<svg width="88" height="40" viewBox="0 0 88 40" fill="none" xmlns="http://www.w3.org/2000/svg">
<rect x="0.5" y="0.5" width="87" height="39" rx="4.5" stroke="#9747FF" stroke-dasharray="10 5"/>
<path d="M20 10C14.5 10 10 14.5 10 20C10 25.5 14.5 30 20 30C25.5 30 30 25.5 30 20C30 14.5 25.5 10 20 10ZM20 28C15.59 28 12 24.41 12 20C12 15.59 15.59 12 20 12C24.41 12 28 15.59 28 20C28 24.41 24.41 28 20 28ZM24.59 15.58L18 22.17L15.41 19.59L14 21L18 25L26 17L24.59 15.58Z" fill="black"/>
<path d="M68 10C62.5 10 58 14.5 58 20C58 25.5 62.5 30 68 30C73.5 30 78 25.5 78 20C78 14.5 73.5 10 68 10ZM66 25L61 20L62.41 18.59L66 22.17L73.59 14.58L75 16L66 25Z" fill="black"/>
</svg>
