<svg width="342" height="47" viewBox="0 0 342 47" fill="none" xmlns="http://www.w3.org/2000/svg">
<rect x="0.25" y="0.25" width="165.5" height="46.5" rx="2.75" stroke="#222222" stroke-width="0.5"/>
<path d="M72.912 18.312H74V18.504C74 20.632 72.432 22.296 69.984 22.904L69.44 21.848C71.504 21.384 72.912 20.04 72.912 18.504V18.312ZM73.152 18.312H74.24V18.504C74.24 19.96 75.632 21.192 77.68 21.656L77.136 22.696C74.72 22.12 73.152 20.536 73.152 18.504V18.312ZM69.744 17.416H77.408V18.472H69.744V17.416ZM72.896 15.816H74.24V18.12H72.896V15.816ZM72.928 24.056H74.256V29.832H72.928V24.056ZM79.328 15.784H80.64V30.264H79.328V15.784ZM68.944 25.032L68.768 23.912C71.504 23.912 75.136 23.896 78.304 23.448L78.4 24.424C75.152 24.984 71.632 25.032 68.944 25.032ZM83.5188 27.272H96.6228V28.376H83.5188V27.272ZM89.3428 23.768H90.6548V27.64H89.3428V23.768ZM89.3108 16.744H90.4628V17.864C90.4628 20.952 87.5028 23.336 84.5908 23.944L84.0308 22.84C86.5748 22.376 89.3108 20.248 89.3108 17.864V16.744ZM89.5508 16.744H90.7028V17.864C90.7028 20.264 93.4548 22.376 95.9988 22.84L95.4228 23.944C92.5108 23.336 89.5508 20.952 89.5508 17.864V16.744Z" fill="#222222"/>
<rect x="176" width="166" height="47" rx="3" fill="#222222"/>
<path d="M244.564 19.224H248.452V20.328H244.564V19.224ZM241.236 16.44C243.396 16.44 244.964 17.816 244.964 19.8C244.964 21.784 243.396 23.144 241.236 23.144C239.076 23.144 237.508 21.784 237.508 19.8C237.508 17.816 239.076 16.44 241.236 16.44ZM241.236 17.56C239.812 17.56 238.788 18.472 238.788 19.8C238.788 21.112 239.812 22.04 241.236 22.04C242.66 22.04 243.684 21.112 243.684 19.8C243.684 18.472 242.66 17.56 241.236 17.56ZM247.86 15.784H249.188V23.544H247.86V15.784ZM239.924 24.264H241.252V26.088H247.876V24.264H249.188V30.056H239.924V24.264ZM241.252 27.144V28.984H247.876V27.144H241.252ZM252.019 27.368H265.123V28.472H252.019V27.368ZM257.875 24.264H259.203V27.832H257.875V24.264ZM253.603 16.856H263.507V21.24H254.963V24.136H253.651V20.168H262.195V17.928H253.603V16.856ZM253.651 23.576H263.843V24.664H253.651V23.576ZM268.386 22.712H278.322V23.8H268.386V22.712ZM266.738 27.192H279.842V28.296H266.738V27.192ZM268.386 17.112H278.178V18.216H269.714V23.192H268.386V17.112Z" fill="white"/>
</svg>
