<svg width="103" height="38" viewBox="0 0 103 38" fill="none" xmlns="http://www.w3.org/2000/svg">
<path d="M22 28L13 19L22 10" stroke="black" stroke-width="2" stroke-linecap="square" stroke-linejoin="round"/>
<g clip-path="url(#clip0_444_17099)">
<path d="M64.5791 3.91166C64.3621 3.96715 64.1858 3.94634 64.0502 3.84924C63.9145 3.75214 63.8264 3.63424 63.7857 3.49553C63.745 3.35682 63.7586 3.21117 63.8264 3.05859C63.8942 2.906 64.0366 2.80197 64.2536 2.74649C64.9317 2.49681 65.5827 2.21245 66.2065 1.89341C66.8304 1.57438 67.4949 1.30389 68.2001 1.08195C68.5799 0.97098 69.0885 0.84614 69.7259 0.707428C70.3633 0.568717 71.021 0.450812 71.6991 0.353714C72.3773 0.256616 73.0282 0.173389 73.6521 0.104034C74.2759 0.0346779 74.7913 0 75.1982 0C75.7406 0 76.2831 0.104034 76.8256 0.312101C77.3681 0.520168 77.6936 0.776784 77.8021 1.08195C77.8563 1.30389 77.836 1.47728 77.741 1.60212C77.6461 1.72696 77.5308 1.81712 77.3952 1.8726C77.0426 1.98357 76.751 2.04599 76.5205 2.05986C76.2899 2.07374 76.0593 2.08067 75.8288 2.08067H75.0761C74.8049 2.08067 74.4658 2.12229 74.0589 2.20551C74.0047 2.23325 73.8013 2.26793 73.4487 2.30955C73.096 2.35116 72.6892 2.39971 72.2281 2.45519L66.8982 20.6403C67.8475 20.1132 68.6477 19.5653 69.2987 18.9965C69.9496 18.4278 70.6684 17.9493 71.455 17.5609C71.6449 17.5054 71.7873 17.5331 71.8822 17.6441C71.9772 17.7551 72.0246 17.9007 72.0246 18.081C72.0246 18.2614 71.9704 18.4417 71.8619 18.622C71.7534 18.8023 71.6042 18.948 71.4143 19.059C71.1702 19.2254 70.9058 19.4265 70.621 19.6623C70.3362 19.8982 70.0039 20.1756 69.6242 20.4946C69.2444 20.8137 68.7901 21.1604 68.2612 21.535C67.7323 21.9095 67.0881 22.3187 66.3286 22.7625C66.1116 23.4838 65.8878 24.219 65.6573 24.9681C65.4267 25.7171 65.1758 26.4523 64.9046 27.1736C64.5791 28.1446 64.2197 29.1641 63.8264 30.2322C63.4331 31.3002 62.9584 32.3128 62.4024 33.2699C61.8463 34.2271 61.1818 35.1009 60.4088 35.8916C59.6357 36.6822 58.7203 37.2856 57.6625 37.7018C56.6317 38.0069 55.7095 38.0763 54.8958 37.9098C54.0821 37.7434 53.4243 37.4105 52.9225 36.9111C52.4207 36.4118 52.1224 35.7737 52.0274 34.9969C51.9325 34.2201 52.0885 33.374 52.4953 32.4585C52.8208 31.6817 53.3023 31.002 53.9397 30.4194C54.5771 29.8368 55.1806 29.2959 55.7502 28.7965C56.7809 27.9087 57.8659 27.0071 59.0051 26.0916C60.1443 25.1761 61.27 24.3439 62.382 23.5948C62.9788 23.2342 63.5077 22.8735 63.9688 22.5129L65.3114 18.8925C66.098 16.2015 66.8914 13.5105 67.6916 10.8195C68.4917 8.12849 69.2309 5.45136 69.909 2.7881C69.4207 2.87133 68.9596 2.96843 68.5256 3.07939C68.0917 3.19036 67.6712 3.2944 67.2644 3.39149C66.8575 3.48859 66.4371 3.57876 66.0031 3.66198C65.5691 3.74521 65.0944 3.82844 64.5791 3.91166ZM61.1208 30.6275C61.5005 29.7397 61.8802 28.8104 62.26 27.8394C62.6397 26.8684 62.9788 25.8974 63.2771 24.9264C63.25 24.8987 63.2364 24.8987 63.2364 24.9264C62.8025 25.2594 62.3074 25.6477 61.7514 26.0916C61.1954 26.5355 60.6325 27.0002 60.0629 27.4857C59.4933 27.9712 58.9305 28.4497 58.3745 28.9213C57.8184 29.393 57.337 29.8091 56.9301 30.1697C56.469 30.5859 56.1299 30.898 55.9129 31.106C55.696 31.3141 55.5129 31.5152 55.3637 31.7094C55.2145 31.9036 55.0721 32.1186 54.9365 32.3544C54.8009 32.5903 54.5703 32.944 54.2448 33.4156C54.1092 33.6098 54.0007 33.9358 53.9193 34.3935C53.838 34.8513 53.8244 35.1911 53.8786 35.413C54.2313 35.8014 54.6585 35.9679 55.1603 35.9124C55.6621 35.8569 56.1435 35.7598 56.6046 35.6211C57.12 35.5101 57.6082 35.2605 58.0693 34.8721C58.5304 34.4837 58.9508 34.0398 59.3306 33.5404C59.7103 33.0411 60.0494 32.5278 60.3477 32.0007C60.6461 31.4736 60.9038 31.0159 61.1208 30.6275Z" fill="#222222"/>
<path d="M78.7375 17.6858C78.7104 17.991 78.6832 18.2545 78.6561 18.4765C78.629 18.6984 78.5883 18.8995 78.5341 19.0799C78.4798 19.2602 78.4188 19.4474 78.351 19.6416C78.2832 19.8358 78.2086 20.0716 78.1272 20.3491C77.7475 21.0426 77.3542 21.6044 76.9473 22.0344C76.5404 22.4644 76.1404 22.8043 75.7471 23.0539C75.3538 23.3036 74.9876 23.477 74.6485 23.5741C74.3095 23.6712 74.045 23.7336 73.8552 23.7614C73.8009 23.7614 73.6653 23.7822 73.4483 23.8238C73.2313 23.8654 72.9804 23.8654 72.6956 23.8238C72.4108 23.7822 72.1124 23.6643 71.8005 23.4701C71.4886 23.2759 71.197 22.943 70.9258 22.4713C70.763 22.1939 70.702 21.6738 70.7427 20.9108C70.7834 20.1479 70.9393 19.281 71.2106 18.31C71.3191 17.8661 71.5089 17.3113 71.7802 16.6455C71.97 16.1738 72.2345 15.6467 72.5735 15.0642C72.9126 14.4816 73.3059 13.9406 73.7534 13.4412C74.201 12.9419 74.7096 12.5188 75.2792 12.172C75.8488 11.8252 76.4862 11.6519 77.1914 11.6519C77.4627 11.6519 77.6932 11.749 77.8831 11.9431C78.0729 12.1373 78.195 12.3732 78.2493 12.6506C78.2764 12.7061 78.2764 12.8101 78.2493 12.9627C78.2221 13.1153 78.195 13.247 78.1679 13.358C78.0323 13.8296 77.8695 14.0446 77.6797 14.003C77.4898 13.9614 77.3677 13.8851 77.3135 13.7741C77.3135 13.6077 77.2931 13.462 77.2524 13.3372C77.2118 13.2124 77.1643 13.1499 77.11 13.1499C77.0287 13.1777 76.7303 13.4759 76.215 14.0446C75.6996 14.6133 75.1707 15.3832 74.6282 16.3542C74.1671 17.1864 73.7738 18.0256 73.4483 18.8718C73.1228 19.7179 72.9601 20.5433 72.9601 21.3478C72.9601 21.6807 73.0143 21.9997 73.1228 22.3049C73.2313 22.6101 73.4483 22.7626 73.7738 22.7626H73.9772C74.6553 22.5684 75.2114 22.2702 75.6453 21.868C76.0793 21.4657 76.4184 21.0357 76.6625 20.5779C76.9066 20.1202 77.0829 19.6624 77.1914 19.2047C77.2999 18.7469 77.3677 18.3655 77.3948 18.0603C76.6896 18.1158 76.215 18.0256 75.9708 17.7898C75.7267 17.554 75.6182 17.2627 75.6453 16.916C75.6725 16.5692 75.781 16.2293 75.9708 15.8964C76.1607 15.5635 76.3506 15.3138 76.5404 15.1474C76.6761 15.0087 76.8727 14.863 77.1304 14.7104C77.3881 14.5579 77.5983 14.4816 77.761 14.4816C78.1136 14.4261 78.3781 14.5093 78.5544 14.7312C78.7307 14.9532 78.7782 15.3416 78.6968 15.8964C79.0494 15.7855 79.4631 15.6051 79.9377 15.3555C80.4124 15.1058 80.6904 14.9532 80.7718 14.8977C81.2329 14.6203 81.6126 14.3637 81.911 14.1279C82.2094 13.892 82.5484 13.6632 82.9282 13.4412C83.3079 13.3025 83.4978 13.4551 83.4978 13.899C83.4978 14.0932 83.4435 14.2596 83.335 14.3983C82.6298 15.2029 81.8839 15.8409 81.0973 16.3126C80.3107 16.7842 79.5241 17.2419 78.7375 17.6858ZM77.5983 15.8132C77.5169 15.73 77.4016 15.7647 77.2524 15.9172C77.1033 16.0698 77.0287 16.1877 77.0287 16.2709C77.0016 16.4097 77.0083 16.5068 77.049 16.5622C77.0897 16.6177 77.144 16.6455 77.2118 16.6455C77.2796 16.6455 77.3474 16.6316 77.4152 16.6039C77.483 16.5761 77.5305 16.5484 77.5576 16.5206C77.639 16.3542 77.6525 16.1184 77.5983 15.8132Z" fill="#222222"/>
<path d="M84.271 13.7741L84.3931 13.8573C84.4473 13.9128 84.4609 13.9474 84.4338 13.9613C84.4066 13.9752 84.4066 14.0099 84.4338 14.0654C84.4338 14.0931 84.4066 14.1902 84.3524 14.3566C84.2981 14.5231 84.2439 14.6965 84.1897 14.8768C84.1354 15.0571 84.0405 15.2999 83.9048 15.6051C83.7421 16.1599 83.5319 16.791 83.2742 17.4985C83.0165 18.2059 82.7792 18.8509 82.5622 19.4335C82.3723 19.9328 82.2638 20.3212 82.2367 20.5987C82.2096 20.8761 82.2096 21.1535 82.2367 21.4309C82.2638 21.7361 82.3656 22.0967 82.5419 22.5129C82.7182 22.929 82.9691 23.1371 83.2946 23.1371C83.5658 23.1648 83.9659 22.9082 84.4948 22.3672C85.0237 21.8263 85.5594 21.1951 86.1019 20.4738C86.6444 19.7525 87.153 19.0243 87.6276 18.2891C88.1023 17.5539 88.4481 17.006 88.6651 16.6454L88.7058 16.6038L88.8686 16.3957C88.9228 16.3402 88.977 16.3125 89.0313 16.3125C89.1127 16.3125 89.1737 16.368 89.2144 16.4789C89.2551 16.5899 89.2822 16.7147 89.2958 16.8535C89.3093 16.9922 89.3161 17.1239 89.3161 17.2488V17.4777C89.3161 17.5331 89.3093 17.5678 89.2958 17.5817C89.2822 17.5956 89.2754 17.6164 89.2754 17.6441C89.194 17.8106 89.1262 17.9631 89.072 18.1019C89.0177 18.2406 88.9499 18.3793 88.8686 18.518C88.6787 18.8509 88.4413 19.2254 88.1565 19.6416C87.8717 20.0577 87.5802 20.4738 87.2818 20.89C86.9834 21.3061 86.6783 21.7153 86.3664 22.1176C86.0544 22.5198 85.7628 22.8597 85.4916 23.1371C85.1932 23.4422 84.8338 23.6711 84.4134 23.8237C83.993 23.9763 83.6472 24.0526 83.3759 24.0526C82.3723 24.0526 81.6129 23.7405 81.0975 23.1163C80.5822 22.4921 80.2974 21.8193 80.2431 21.098C80.1075 19.3225 80.7178 17.1309 82.074 14.5231C82.074 14.4399 82.1282 14.3428 82.2367 14.2318C82.3995 14.0376 82.5893 13.885 82.8063 13.7741C83.0233 13.6631 83.2403 13.5937 83.4573 13.566C83.6743 13.5382 83.8642 13.5452 84.0269 13.5868C84.1897 13.6284 84.271 13.6908 84.271 13.7741ZM84.6372 12.4008C84.5016 12.4286 84.3117 12.4563 84.0676 12.484C83.8235 12.5118 83.6336 12.4979 83.498 12.4424C83.3624 12.3592 83.2471 12.2344 83.1522 12.0679C83.0572 11.9015 83.0098 11.7627 83.0098 11.6518C83.0098 11.5408 83.0776 11.3466 83.2132 11.0692C83.3488 10.7918 83.4573 10.5421 83.5387 10.3201C83.7285 9.90401 84.0269 9.63352 84.4338 9.50868C84.8406 9.38384 85.2475 9.33529 85.6544 9.36303C85.8171 9.39078 85.8917 9.43239 85.8781 9.48788C85.8646 9.54336 85.8781 9.61272 85.9392 9.69594C85.9934 9.75143 86.0544 9.81385 86.1222 9.8832C86.1901 9.95256 86.2104 10.015 86.1833 10.0705L86.1019 10.3618L85.6137 11.6102C85.5323 11.8321 85.3763 12.0194 85.1458 12.1719C84.9152 12.3245 84.7457 12.4008 84.6372 12.4008Z" fill="#222222"/>
<path d="M90.6995 11.5684C90.8622 11.513 91.0589 11.5268 91.2894 11.6101C91.52 11.6933 91.737 11.8181 91.9404 11.9846C92.1438 12.151 92.3066 12.3244 92.4286 12.5047C92.5507 12.6851 92.6117 12.8307 92.6117 12.9417C92.6389 13.0249 92.5982 13.1636 92.4897 13.3578C92.3812 13.552 92.2998 13.7185 92.2456 13.8572L91.3912 15.7714C92.015 14.9946 92.6728 14.2941 93.3644 13.6699C94.0561 13.0457 94.7139 12.7336 95.3377 12.7336C95.8259 12.8169 96.1582 13.0873 96.3345 13.5451C96.5108 14.0028 96.5854 14.5715 96.5583 15.2512C96.5312 15.9309 96.4362 16.6661 96.2735 17.4567C96.1107 18.2474 95.948 19.0034 95.7852 19.7247C95.6225 20.446 95.5004 21.0771 95.4191 21.6181C95.3377 22.1591 95.3513 22.5128 95.4598 22.6792C95.8666 22.6792 96.3955 22.4157 97.0465 21.8886C97.6975 21.3615 98.362 20.7442 99.0401 20.0368C99.7182 19.3294 100.335 18.6219 100.891 17.9145C101.447 17.2071 101.834 16.6869 102.051 16.354C102.295 16.1875 102.539 16.1737 102.783 16.3124C103.027 16.4511 103.068 16.6869 102.905 17.0198C102.688 17.5192 102.363 18.0671 101.929 18.6635C101.495 19.26 101.02 19.8495 100.505 20.4321C99.9895 21.0147 99.4606 21.5695 98.9181 22.0966C98.3756 22.6237 97.8874 23.0676 97.4534 23.4283C97.155 23.7057 96.816 23.9207 96.4362 24.0733C96.0565 24.2259 95.6768 24.3022 95.297 24.3022C94.8359 24.3022 94.4223 24.1773 94.0561 23.9276C93.6899 23.678 93.439 23.2757 93.3034 22.7208C93.1949 22.2492 93.2085 21.5973 93.3441 20.765C93.4797 19.9327 93.6357 19.1074 93.812 18.289C93.9883 17.4706 94.1442 16.7563 94.2799 16.1459C94.4155 15.5356 94.429 15.2027 94.3206 15.1472C94.0764 15.0362 93.7645 15.1125 93.3848 15.3761C93.005 15.6396 92.5982 16.0072 92.1642 16.4788C91.7302 16.9505 91.303 17.4845 90.8826 18.0809C90.4622 18.6774 90.0892 19.2531 89.7637 19.8079C89.6281 20.2795 89.4992 20.7511 89.3772 21.2228C89.2551 21.6944 89.1399 22.1799 89.0314 22.6792C88.9229 23.2618 88.9636 23.8999 89.1534 24.5935C89.1805 24.7599 89.1534 24.8847 89.0517 24.968C88.9568 25.0512 88.8347 25.0928 88.6855 25.0928C88.5363 25.0928 88.3736 25.0512 88.1973 24.968C88.021 24.8847 87.8786 24.7738 87.7701 24.6351C87.6887 24.4131 87.6209 24.2328 87.5667 24.0941C87.5124 23.9554 87.4717 23.8305 87.4446 23.7196C87.4175 23.6086 87.4107 23.4907 87.4243 23.3659C87.4378 23.241 87.4446 23.0815 87.4446 22.8873C87.5531 20.8621 87.9261 18.8993 88.5635 16.999C89.2009 15.0987 89.9129 13.2885 90.6995 11.5684Z" fill="#222222"/>
</g>
<defs>
<clipPath id="clip0_444_17099">
<rect width="51" height="38" fill="white" transform="translate(52)"/>
</clipPath>
</defs>
</svg>
