<svg width="390" height="291" viewBox="0 0 390 291" fill="none" xmlns="http://www.w3.org/2000/svg">
<rect width="390" height="291" fill="#CCCED3"/>
<g filter="url(#filter0_b_52_2577)">
<rect width="390" height="291" fill="white" fill-opacity="0.5"/>
<rect width="390" height="291" fill="#EBF0F7" fill-opacity="0.5"/>
<rect width="390" height="291" fill="#DEDEDE" style="mix-blend-mode:color-burn"/>
<rect width="390" height="291" fill="#7F7F7F" fill-opacity="0.3"/>
</g>
<rect x="128" y="278" width="134" height="5" rx="2.5" fill="black"/>
<g filter="url(#filter1_d_52_2577)">
<path fill-rule="evenodd" clip-rule="evenodd" d="M296 178.36C296 175.784 296 174.496 296.501 173.512C296.942 172.646 297.646 171.942 298.512 171.501C299.496 171 300.784 171 303.36 171H379.64C382.216 171 383.504 171 384.488 171.501C385.354 171.942 386.058 172.646 386.499 173.512C387 174.496 387 175.784 387 178.36V205.64C387 208.216 387 209.504 386.499 210.488C386.058 211.354 385.354 212.058 384.488 212.499C383.504 213 382.216 213 379.64 213H303.36C300.784 213 299.496 213 298.512 212.499C297.646 212.058 296.942 211.354 296.501 210.488C296 209.504 296 208.216 296 205.64V178.36Z" fill="#ADB3BC"/>
</g>
<path d="M323.008 190.875V198H321.562V189.547H322.969L323.008 190.875ZM325.648 189.5L325.641 190.844C325.521 190.818 325.406 190.802 325.297 190.797C325.193 190.786 325.073 190.781 324.938 190.781C324.604 190.781 324.31 190.833 324.055 190.938C323.799 191.042 323.583 191.188 323.406 191.375C323.229 191.562 323.089 191.786 322.984 192.047C322.885 192.302 322.82 192.583 322.789 192.891L322.383 193.125C322.383 192.615 322.432 192.135 322.531 191.688C322.635 191.24 322.794 190.844 323.008 190.5C323.221 190.151 323.492 189.88 323.82 189.688C324.154 189.49 324.549 189.391 325.008 189.391C325.112 189.391 325.232 189.404 325.367 189.43C325.503 189.451 325.596 189.474 325.648 189.5ZM330.336 198.156C329.747 198.156 329.214 198.057 328.734 197.859C328.26 197.656 327.852 197.372 327.508 197.008C327.169 196.643 326.909 196.211 326.727 195.711C326.544 195.211 326.453 194.664 326.453 194.07V193.742C326.453 193.055 326.555 192.443 326.758 191.906C326.961 191.365 327.237 190.906 327.586 190.531C327.935 190.156 328.331 189.872 328.773 189.68C329.216 189.487 329.674 189.391 330.148 189.391C330.753 189.391 331.273 189.495 331.711 189.703C332.154 189.911 332.516 190.203 332.797 190.578C333.078 190.948 333.286 191.385 333.422 191.891C333.557 192.391 333.625 192.938 333.625 193.531V194.18H327.312V193H332.18V192.891C332.159 192.516 332.081 192.151 331.945 191.797C331.815 191.443 331.607 191.151 331.32 190.922C331.034 190.693 330.643 190.578 330.148 190.578C329.82 190.578 329.518 190.648 329.242 190.789C328.966 190.924 328.729 191.128 328.531 191.398C328.333 191.669 328.18 192 328.07 192.391C327.961 192.781 327.906 193.232 327.906 193.742V194.07C327.906 194.471 327.961 194.849 328.07 195.203C328.185 195.552 328.349 195.859 328.562 196.125C328.781 196.391 329.044 196.599 329.352 196.75C329.664 196.901 330.018 196.977 330.414 196.977C330.924 196.977 331.357 196.872 331.711 196.664C332.065 196.456 332.375 196.177 332.641 195.828L333.516 196.523C333.333 196.799 333.102 197.062 332.82 197.312C332.539 197.562 332.193 197.766 331.781 197.922C331.375 198.078 330.893 198.156 330.336 198.156ZM338.852 189.547V190.656H334.281V189.547H338.852ZM335.828 187.492H337.273V195.906C337.273 196.193 337.318 196.409 337.406 196.555C337.495 196.701 337.609 196.797 337.75 196.844C337.891 196.891 338.042 196.914 338.203 196.914C338.323 196.914 338.448 196.904 338.578 196.883C338.714 196.857 338.815 196.836 338.883 196.82L338.891 198C338.776 198.036 338.625 198.07 338.438 198.102C338.255 198.138 338.034 198.156 337.773 198.156C337.419 198.156 337.094 198.086 336.797 197.945C336.5 197.805 336.263 197.57 336.086 197.242C335.914 196.909 335.828 196.461 335.828 195.898V187.492ZM345.719 196.047V189.547H347.172V198H345.789L345.719 196.047ZM345.992 194.266L346.594 194.25C346.594 194.812 346.534 195.333 346.414 195.812C346.299 196.286 346.112 196.698 345.852 197.047C345.591 197.396 345.25 197.669 344.828 197.867C344.406 198.06 343.893 198.156 343.289 198.156C342.878 198.156 342.5 198.096 342.156 197.977C341.818 197.857 341.526 197.672 341.281 197.422C341.036 197.172 340.846 196.846 340.711 196.445C340.581 196.044 340.516 195.562 340.516 195V189.547H341.961V195.016C341.961 195.396 342.003 195.711 342.086 195.961C342.174 196.206 342.292 196.401 342.438 196.547C342.589 196.688 342.755 196.786 342.938 196.844C343.125 196.901 343.318 196.93 343.516 196.93C344.13 196.93 344.617 196.812 344.977 196.578C345.336 196.339 345.594 196.018 345.75 195.617C345.911 195.211 345.992 194.76 345.992 194.266ZM350.82 190.875V198H349.375V189.547H350.781L350.82 190.875ZM353.461 189.5L353.453 190.844C353.333 190.818 353.219 190.802 353.109 190.797C353.005 190.786 352.885 190.781 352.75 190.781C352.417 190.781 352.122 190.833 351.867 190.938C351.612 191.042 351.396 191.188 351.219 191.375C351.042 191.562 350.901 191.786 350.797 192.047C350.698 192.302 350.633 192.583 350.602 192.891L350.195 193.125C350.195 192.615 350.245 192.135 350.344 191.688C350.448 191.24 350.607 190.844 350.82 190.5C351.034 190.151 351.305 189.88 351.633 189.688C351.966 189.49 352.362 189.391 352.82 189.391C352.924 189.391 353.044 189.404 353.18 189.43C353.315 189.451 353.409 189.474 353.461 189.5ZM356.242 191.352V198H354.797V189.547H356.164L356.242 191.352ZM355.898 193.453L355.297 193.43C355.302 192.852 355.388 192.318 355.555 191.828C355.721 191.333 355.956 190.904 356.258 190.539C356.56 190.174 356.919 189.893 357.336 189.695C357.758 189.492 358.224 189.391 358.734 189.391C359.151 189.391 359.526 189.448 359.859 189.562C360.193 189.672 360.477 189.849 360.711 190.094C360.951 190.339 361.133 190.656 361.258 191.047C361.383 191.432 361.445 191.904 361.445 192.461V198H359.992V192.445C359.992 192.003 359.927 191.648 359.797 191.383C359.667 191.112 359.477 190.917 359.227 190.797C358.977 190.672 358.669 190.609 358.305 190.609C357.945 190.609 357.617 190.685 357.32 190.836C357.029 190.987 356.776 191.195 356.562 191.461C356.354 191.727 356.19 192.031 356.07 192.375C355.956 192.714 355.898 193.073 355.898 193.453Z" fill="black"/>
<g filter="url(#filter2_d_52_2577)">
<path fill-rule="evenodd" clip-rule="evenodd" d="M100 178.36C100 175.784 100 174.496 100.501 173.512C100.942 172.646 101.646 171.942 102.512 171.501C103.496 171 104.784 171 107.36 171H282.64C285.216 171 286.504 171 287.488 171.501C288.354 171.942 289.058 172.646 289.499 173.512C290 174.496 290 175.784 290 178.36V205.64C290 208.216 290 209.504 289.499 210.488C289.058 211.354 288.354 212.058 287.488 212.499C286.504 213 285.216 213 282.64 213H107.36C104.784 213 103.496 213 102.512 212.499C101.646 212.058 100.942 211.354 100.501 210.488C100 209.504 100 208.216 100 205.64V178.36Z" fill="#FCFCFE"/>
</g>
<path d="M179.617 195.758C179.617 195.549 179.57 195.357 179.477 195.18C179.388 194.997 179.203 194.833 178.922 194.688C178.646 194.536 178.229 194.406 177.672 194.297C177.203 194.198 176.779 194.081 176.398 193.945C176.023 193.81 175.703 193.646 175.438 193.453C175.177 193.26 174.977 193.034 174.836 192.773C174.695 192.513 174.625 192.208 174.625 191.859C174.625 191.526 174.698 191.211 174.844 190.914C174.995 190.617 175.206 190.354 175.477 190.125C175.753 189.896 176.083 189.716 176.469 189.586C176.854 189.456 177.284 189.391 177.758 189.391C178.435 189.391 179.013 189.51 179.492 189.75C179.971 189.99 180.339 190.31 180.594 190.711C180.849 191.107 180.977 191.547 180.977 192.031H179.531C179.531 191.797 179.461 191.57 179.32 191.352C179.185 191.128 178.984 190.943 178.719 190.797C178.458 190.651 178.138 190.578 177.758 190.578C177.357 190.578 177.031 190.641 176.781 190.766C176.536 190.885 176.357 191.039 176.242 191.227C176.133 191.414 176.078 191.612 176.078 191.82C176.078 191.977 176.104 192.117 176.156 192.242C176.214 192.362 176.312 192.474 176.453 192.578C176.594 192.677 176.792 192.771 177.047 192.859C177.302 192.948 177.628 193.036 178.023 193.125C178.716 193.281 179.286 193.469 179.734 193.688C180.182 193.906 180.516 194.174 180.734 194.492C180.953 194.81 181.062 195.195 181.062 195.648C181.062 196.018 180.984 196.357 180.828 196.664C180.677 196.971 180.456 197.237 180.164 197.461C179.878 197.68 179.534 197.852 179.133 197.977C178.737 198.096 178.292 198.156 177.797 198.156C177.052 198.156 176.422 198.023 175.906 197.758C175.391 197.492 175 197.148 174.734 196.727C174.469 196.305 174.336 195.859 174.336 195.391H175.789C175.81 195.786 175.924 196.102 176.133 196.336C176.341 196.565 176.596 196.729 176.898 196.828C177.201 196.922 177.5 196.969 177.797 196.969C178.193 196.969 178.523 196.917 178.789 196.812C179.06 196.708 179.266 196.565 179.406 196.383C179.547 196.201 179.617 195.992 179.617 195.758ZM184.406 191.172V201.25H182.953V189.547H184.281L184.406 191.172ZM190.102 193.703V193.867C190.102 194.482 190.029 195.052 189.883 195.578C189.737 196.099 189.523 196.552 189.242 196.938C188.966 197.323 188.625 197.622 188.219 197.836C187.812 198.049 187.346 198.156 186.82 198.156C186.284 198.156 185.81 198.068 185.398 197.891C184.987 197.714 184.638 197.456 184.352 197.117C184.065 196.779 183.836 196.372 183.664 195.898C183.497 195.424 183.383 194.891 183.32 194.297V193.422C183.383 192.797 183.5 192.237 183.672 191.742C183.844 191.247 184.07 190.826 184.352 190.477C184.638 190.122 184.984 189.854 185.391 189.672C185.797 189.484 186.266 189.391 186.797 189.391C187.328 189.391 187.799 189.495 188.211 189.703C188.622 189.906 188.969 190.198 189.25 190.578C189.531 190.958 189.742 191.414 189.883 191.945C190.029 192.471 190.102 193.057 190.102 193.703ZM188.648 193.867V193.703C188.648 193.281 188.604 192.885 188.516 192.516C188.427 192.141 188.289 191.812 188.102 191.531C187.919 191.245 187.685 191.021 187.398 190.859C187.112 190.693 186.771 190.609 186.375 190.609C186.01 190.609 185.693 190.672 185.422 190.797C185.156 190.922 184.93 191.091 184.742 191.305C184.555 191.513 184.401 191.753 184.281 192.023C184.167 192.289 184.081 192.565 184.023 192.852V194.875C184.128 195.24 184.273 195.583 184.461 195.906C184.648 196.224 184.898 196.482 185.211 196.68C185.523 196.872 185.917 196.969 186.391 196.969C186.781 196.969 187.117 196.888 187.398 196.727C187.685 196.56 187.919 196.333 188.102 196.047C188.289 195.76 188.427 195.432 188.516 195.062C188.604 194.688 188.648 194.289 188.648 193.867ZM196.93 196.555V192.203C196.93 191.87 196.862 191.581 196.727 191.336C196.596 191.086 196.398 190.893 196.133 190.758C195.867 190.622 195.539 190.555 195.148 190.555C194.784 190.555 194.464 190.617 194.188 190.742C193.917 190.867 193.703 191.031 193.547 191.234C193.396 191.438 193.32 191.656 193.32 191.891H191.875C191.875 191.589 191.953 191.289 192.109 190.992C192.266 190.695 192.49 190.427 192.781 190.188C193.078 189.943 193.432 189.75 193.844 189.609C194.26 189.464 194.724 189.391 195.234 189.391C195.849 189.391 196.391 189.495 196.859 189.703C197.333 189.911 197.703 190.227 197.969 190.648C198.24 191.065 198.375 191.589 198.375 192.219V196.156C198.375 196.438 198.398 196.737 198.445 197.055C198.497 197.372 198.573 197.646 198.672 197.875V198H197.164C197.091 197.833 197.034 197.612 196.992 197.336C196.951 197.055 196.93 196.794 196.93 196.555ZM197.18 192.875L197.195 193.891H195.734C195.323 193.891 194.956 193.924 194.633 193.992C194.31 194.055 194.039 194.151 193.82 194.281C193.602 194.411 193.435 194.576 193.32 194.773C193.206 194.966 193.148 195.193 193.148 195.453C193.148 195.719 193.208 195.961 193.328 196.18C193.448 196.398 193.628 196.573 193.867 196.703C194.112 196.828 194.411 196.891 194.766 196.891C195.208 196.891 195.599 196.797 195.938 196.609C196.276 196.422 196.544 196.193 196.742 195.922C196.945 195.651 197.055 195.388 197.07 195.133L197.688 195.828C197.651 196.047 197.552 196.289 197.391 196.555C197.229 196.82 197.013 197.076 196.742 197.32C196.477 197.56 196.159 197.76 195.789 197.922C195.424 198.078 195.013 198.156 194.555 198.156C193.982 198.156 193.479 198.044 193.047 197.82C192.62 197.596 192.286 197.297 192.047 196.922C191.812 196.542 191.695 196.117 191.695 195.648C191.695 195.195 191.784 194.797 191.961 194.453C192.138 194.104 192.393 193.815 192.727 193.586C193.06 193.352 193.461 193.174 193.93 193.055C194.398 192.935 194.922 192.875 195.5 192.875H197.18ZM204.031 196.969C204.375 196.969 204.693 196.898 204.984 196.758C205.276 196.617 205.516 196.424 205.703 196.18C205.891 195.93 205.997 195.646 206.023 195.328H207.398C207.372 195.828 207.203 196.294 206.891 196.727C206.583 197.154 206.18 197.5 205.68 197.766C205.18 198.026 204.63 198.156 204.031 198.156C203.396 198.156 202.841 198.044 202.367 197.82C201.898 197.596 201.508 197.289 201.195 196.898C200.888 196.508 200.656 196.06 200.5 195.555C200.349 195.044 200.273 194.505 200.273 193.938V193.609C200.273 193.042 200.349 192.505 200.5 192C200.656 191.49 200.888 191.039 201.195 190.648C201.508 190.258 201.898 189.951 202.367 189.727C202.841 189.503 203.396 189.391 204.031 189.391C204.693 189.391 205.271 189.526 205.766 189.797C206.26 190.062 206.648 190.427 206.93 190.891C207.216 191.349 207.372 191.87 207.398 192.453H206.023C205.997 192.104 205.898 191.789 205.727 191.508C205.56 191.227 205.331 191.003 205.039 190.836C204.753 190.664 204.417 190.578 204.031 190.578C203.589 190.578 203.216 190.667 202.914 190.844C202.617 191.016 202.38 191.25 202.203 191.547C202.031 191.839 201.906 192.164 201.828 192.523C201.755 192.878 201.719 193.24 201.719 193.609V193.938C201.719 194.307 201.755 194.672 201.828 195.031C201.901 195.391 202.023 195.716 202.195 196.008C202.372 196.299 202.609 196.534 202.906 196.711C203.208 196.883 203.583 196.969 204.031 196.969ZM212.531 198.156C211.943 198.156 211.409 198.057 210.93 197.859C210.456 197.656 210.047 197.372 209.703 197.008C209.365 196.643 209.104 196.211 208.922 195.711C208.74 195.211 208.648 194.664 208.648 194.07V193.742C208.648 193.055 208.75 192.443 208.953 191.906C209.156 191.365 209.432 190.906 209.781 190.531C210.13 190.156 210.526 189.872 210.969 189.68C211.411 189.487 211.87 189.391 212.344 189.391C212.948 189.391 213.469 189.495 213.906 189.703C214.349 189.911 214.711 190.203 214.992 190.578C215.273 190.948 215.482 191.385 215.617 191.891C215.753 192.391 215.82 192.938 215.82 193.531V194.18H209.508V193H214.375V192.891C214.354 192.516 214.276 192.151 214.141 191.797C214.01 191.443 213.802 191.151 213.516 190.922C213.229 190.693 212.839 190.578 212.344 190.578C212.016 190.578 211.714 190.648 211.438 190.789C211.161 190.924 210.924 191.128 210.727 191.398C210.529 191.669 210.375 192 210.266 192.391C210.156 192.781 210.102 193.232 210.102 193.742V194.07C210.102 194.471 210.156 194.849 210.266 195.203C210.38 195.552 210.544 195.859 210.758 196.125C210.977 196.391 211.24 196.599 211.547 196.75C211.859 196.901 212.214 196.977 212.609 196.977C213.12 196.977 213.552 196.872 213.906 196.664C214.26 196.456 214.57 196.177 214.836 195.828L215.711 196.523C215.529 196.799 215.297 197.062 215.016 197.312C214.734 197.562 214.388 197.766 213.977 197.922C213.57 198.078 213.089 198.156 212.531 198.156Z" fill="black"/>
<g filter="url(#filter3_d_52_2577)">
<path fill-rule="evenodd" clip-rule="evenodd" d="M3 178.36C3 175.784 3 174.496 3.50137 173.512C3.94239 172.646 4.6461 171.942 5.51164 171.501C6.49564 171 7.78376 171 10.36 171H86.64C89.2162 171 90.5044 171 91.4884 171.501C92.3539 171.942 93.0576 172.646 93.4986 173.512C94 174.496 94 175.784 94 178.36V205.64C94 208.216 94 209.504 93.4986 210.488C93.0576 211.354 92.3539 212.058 91.4884 212.499C90.5044 213 89.2162 213 86.64 213H10.36C7.78376 213 6.49564 213 5.51164 212.499C4.6461 212.058 3.94239 211.354 3.50137 210.488C3 209.504 3 208.216 3 205.64V178.36Z" fill="#ADB3BC"/>
</g>
<path d="M40.6953 186.562V198H39.25V188.367L36.3359 189.43V188.125L40.4688 186.562H40.6953ZM52.3984 196.812V198H44.9531V196.961L48.6797 192.812C49.138 192.302 49.4922 191.87 49.7422 191.516C49.9974 191.156 50.1745 190.836 50.2734 190.555C50.3776 190.268 50.4297 189.977 50.4297 189.68C50.4297 189.305 50.3516 188.966 50.1953 188.664C50.0443 188.357 49.8203 188.112 49.5234 187.93C49.2266 187.747 48.8672 187.656 48.4453 187.656C47.9401 187.656 47.5182 187.755 47.1797 187.953C46.8464 188.146 46.5964 188.417 46.4297 188.766C46.263 189.115 46.1797 189.516 46.1797 189.969H44.7344C44.7344 189.328 44.875 188.742 45.1562 188.211C45.4375 187.68 45.8542 187.258 46.4062 186.945C46.9583 186.628 47.638 186.469 48.4453 186.469C49.1641 186.469 49.7786 186.596 50.2891 186.852C50.7995 187.102 51.1901 187.456 51.4609 187.914C51.737 188.367 51.875 188.898 51.875 189.508C51.875 189.841 51.8177 190.18 51.7031 190.523C51.5938 190.862 51.4401 191.201 51.2422 191.539C51.0495 191.878 50.8229 192.211 50.5625 192.539C50.3073 192.867 50.0339 193.19 49.7422 193.508L46.6953 196.812H52.3984ZM56.0547 191.602H57.0859C57.5911 191.602 58.0078 191.518 58.3359 191.352C58.6693 191.18 58.9167 190.948 59.0781 190.656C59.2448 190.359 59.3281 190.026 59.3281 189.656C59.3281 189.219 59.2552 188.852 59.1094 188.555C58.9635 188.258 58.7448 188.034 58.4531 187.883C58.1615 187.732 57.7917 187.656 57.3438 187.656C56.9375 187.656 56.5781 187.737 56.2656 187.898C55.9583 188.055 55.7161 188.279 55.5391 188.57C55.3672 188.862 55.2812 189.206 55.2812 189.602H53.8359C53.8359 189.023 53.9818 188.497 54.2734 188.023C54.5651 187.549 54.974 187.172 55.5 186.891C56.0312 186.609 56.6458 186.469 57.3438 186.469C58.0312 186.469 58.6328 186.591 59.1484 186.836C59.6641 187.076 60.0651 187.435 60.3516 187.914C60.638 188.388 60.7812 188.979 60.7812 189.688C60.7812 189.974 60.7135 190.281 60.5781 190.609C60.4479 190.932 60.2422 191.234 59.9609 191.516C59.6849 191.797 59.3255 192.029 58.8828 192.211C58.4401 192.388 57.9089 192.477 57.2891 192.477H56.0547V191.602ZM56.0547 192.789V191.922H57.2891C58.013 191.922 58.612 192.008 59.0859 192.18C59.5599 192.352 59.9323 192.581 60.2031 192.867C60.4792 193.154 60.6719 193.469 60.7812 193.812C60.8958 194.151 60.9531 194.49 60.9531 194.828C60.9531 195.359 60.862 195.831 60.6797 196.242C60.5026 196.654 60.25 197.003 59.9219 197.289C59.599 197.576 59.2188 197.792 58.7812 197.938C58.3438 198.083 57.8672 198.156 57.3516 198.156C56.8568 198.156 56.3906 198.086 55.9531 197.945C55.5208 197.805 55.138 197.602 54.8047 197.336C54.4714 197.065 54.2109 196.734 54.0234 196.344C53.8359 195.948 53.7422 195.497 53.7422 194.992H55.1875C55.1875 195.388 55.2734 195.734 55.4453 196.031C55.6224 196.328 55.8724 196.56 56.1953 196.727C56.5234 196.888 56.9089 196.969 57.3516 196.969C57.7943 196.969 58.1745 196.893 58.4922 196.742C58.8151 196.586 59.0625 196.352 59.2344 196.039C59.4115 195.727 59.5 195.333 59.5 194.859C59.5 194.385 59.401 193.997 59.2031 193.695C59.0052 193.388 58.724 193.161 58.3594 193.016C58 192.865 57.5755 192.789 57.0859 192.789H56.0547Z" fill="black"/>
<g clip-path="url(#clip0_52_2577)">
<g filter="url(#filter4_d_52_2577)">
<path fill-rule="evenodd" clip-rule="evenodd" d="M343 124.36C343 121.784 343 120.496 343.501 119.512C343.942 118.646 344.646 117.942 345.512 117.501C346.496 117 347.784 117 350.36 117H379.64C382.216 117 383.504 117 384.488 117.501C385.354 117.942 386.058 118.646 386.499 119.512C387 120.496 387 121.784 387 124.36V151.64C387 154.216 387 155.504 386.499 156.488C386.058 157.354 385.354 158.058 384.488 158.499C383.504 159 382.216 159 379.64 159H350.36C347.784 159 346.496 159 345.512 158.499C344.646 158.058 343.942 157.354 343.501 156.488C343 155.504 343 154.216 343 151.64V124.36Z" fill="#ADB3BC"/>
</g>
<path fill-rule="evenodd" clip-rule="evenodd" d="M356.606 134.12C356.591 134.133 356.561 134.162 356.528 134.193C356.505 134.216 356.486 134.235 356.446 134.274L354.271 136.418C354.214 136.477 354.175 136.516 354.083 136.607C354.031 136.657 353.994 136.696 353.913 136.781C353.762 136.925 353.603 137.096 353.454 137.277C353.314 137.424 353.202 137.594 353.123 137.78C352.962 138.265 352.962 138.735 353.106 139.173L353.125 139.223C353.204 139.408 353.315 139.577 353.454 139.723C353.603 139.902 353.762 140.074 353.93 140.237C353.994 140.304 354.031 140.343 354.083 140.393L354.271 140.579L356.254 142.537C356.347 142.628 356.393 142.673 356.445 142.722C356.502 142.781 356.561 142.839 356.62 142.894C356.631 142.903 359.158 145.393 359.158 145.393C359.236 145.47 359.299 145.53 359.441 145.665C359.456 145.679 359.479 145.702 359.486 145.709C359.522 145.747 359.544 145.769 359.558 145.783C359.852 146.074 360.191 146.318 360.562 146.508C360.942 146.694 361.337 146.822 361.745 146.893C362.13 146.955 362.512 146.988 362.894 146.994C362.96 146.995 363.015 146.996 363.137 146.997C363.254 146.998 363.306 146.999 363.37 147L370.902 147C370.98 146.999 371.032 146.998 371.151 146.997C371.274 146.996 371.329 146.995 371.4 146.994C371.784 146.987 372.168 146.953 372.548 146.891C372.965 146.821 373.366 146.691 373.74 146.504C374.117 146.315 374.462 146.068 374.76 145.772C375.057 145.479 375.306 145.141 375.498 144.772C375.688 144.398 375.819 144.004 375.889 143.599C375.952 143.22 375.986 142.839 375.99 142.458C375.994 142.379 375.995 142.304 375.997 142.138C375.999 142.059 375.999 142.024 376 141.982L376 134.99C375.999 134.935 375.998 134.901 375.997 134.823L375.996 134.743C375.995 134.641 375.993 134.565 375.99 134.489C375.986 134.13 375.953 133.755 375.893 133.383C375.82 132.971 375.689 132.581 375.505 132.216C375.311 131.843 375.064 131.508 374.768 131.217C374.474 130.924 374.132 130.679 373.757 130.49C373.384 130.307 372.991 130.178 372.585 130.107C372.196 130.046 371.813 130.014 371.43 130.009C371.304 130.004 371.192 130.003 370.943 130.003C370.862 130.002 370.767 130.001 370.66 130C370.58 130 370.516 130 370.372 130H363.954C363.666 130 363.536 130.001 363.372 130.003C363.134 130.003 363.022 130.004 362.878 130.01C362.514 130.014 362.132 130.046 361.755 130.106C361.337 130.178 360.942 130.306 360.571 130.488C360.191 130.682 359.852 130.926 359.557 131.217C359.544 131.231 359.522 131.253 359.487 131.289C359.479 131.298 359.441 131.335 359.441 131.335C359.299 131.47 359.236 131.53 359.158 131.607L358.833 131.928L356.666 134.067C356.647 134.082 356.626 134.1 356.606 134.12ZM370.372 131.259C370.514 131.259 370.577 131.259 370.655 131.26C370.757 131.26 370.847 131.261 370.933 131.262C371.174 131.262 371.275 131.263 371.397 131.268C371.736 131.272 372.056 131.299 372.373 131.349C372.647 131.397 372.922 131.487 373.181 131.614C373.431 131.74 373.662 131.906 373.863 132.106C374.066 132.306 374.235 132.534 374.364 132.784C374.491 133.034 374.582 133.308 374.633 133.591C374.682 133.892 374.709 134.207 374.713 134.522C374.716 134.603 374.717 134.67 374.719 134.761L374.72 134.84C374.721 134.92 374.721 134.957 374.722 135.002L374.722 141.969C374.721 142.003 374.721 142.04 374.72 142.122C374.718 142.277 374.716 142.344 374.713 142.426C374.709 142.761 374.681 143.077 374.629 143.39C374.58 143.671 374.489 143.946 374.358 144.203C374.23 144.45 374.058 144.682 373.854 144.884C373.652 145.085 373.418 145.253 373.162 145.381C372.902 145.511 372.625 145.601 372.338 145.649C372.022 145.7 371.699 145.729 371.376 145.735C371.31 145.736 371.257 145.736 371.138 145.738C371.015 145.739 370.96 145.739 370.889 145.741L363.383 145.741C363.326 145.739 363.271 145.739 363.149 145.738C363.032 145.736 362.98 145.736 362.916 145.735C362.593 145.73 362.274 145.702 361.959 145.651C361.679 145.603 361.401 145.513 361.14 145.385C360.896 145.26 360.664 145.092 360.461 144.893L360.411 144.841C360.362 144.79 360.34 144.768 360.316 144.747C360.189 144.626 360.131 144.57 360.062 144.502L357.529 142.006L357.529 142.006C357.506 141.985 357.492 141.972 357.482 141.964C357.436 141.921 357.399 141.883 357.363 141.846C357.29 141.776 357.25 141.737 357.158 141.647L355.175 139.689L354.986 139.503C354.947 139.464 354.915 139.432 354.843 139.356C354.686 139.203 354.554 139.06 354.43 138.91L354.392 138.867C354.359 138.834 354.333 138.797 354.312 138.756C354.263 138.588 354.263 138.41 354.313 138.242C354.332 138.203 354.358 138.167 354.389 138.136L354.432 138.088C354.554 137.939 354.684 137.797 354.823 137.664C354.915 137.568 354.947 137.536 354.986 137.497C355.086 137.399 355.13 137.354 355.186 137.297L357.158 135.353L357.35 135.164C357.388 135.127 357.404 135.111 357.425 135.09L357.467 135.053L357.467 135.053C357.498 135.026 357.515 135.011 357.532 134.994L359.736 132.819L360.062 132.498C360.131 132.43 360.189 132.374 360.316 132.253C360.34 132.232 360.362 132.21 360.41 132.16L360.461 132.107C360.664 131.908 360.896 131.74 361.15 131.611C361.401 131.487 361.679 131.397 361.966 131.347C362.272 131.299 362.591 131.272 362.911 131.269C363.051 131.263 363.151 131.262 363.383 131.262C363.548 131.26 363.674 131.259 363.954 131.259H370.372ZM364.32 141.833C364.269 141.882 364.207 141.923 364.137 141.952C363.922 142.039 363.675 141.99 363.51 141.828C363.287 141.606 363.287 141.249 363.51 141.028C363.543 140.996 363.579 140.968 363.617 140.945L366.098 138.497L363.51 135.95L363.518 135.942C363.467 135.891 363.426 135.83 363.397 135.762C363.308 135.55 363.358 135.306 363.523 135.144C363.747 134.924 364.11 134.924 364.334 135.144C364.367 135.176 364.395 135.211 364.419 135.249L366.908 137.698L369.42 135.219C369.439 135.193 369.46 135.168 369.484 135.144C369.647 134.982 369.894 134.933 370.108 135.021C370.322 135.108 370.462 135.314 370.462 135.542C370.462 135.695 370.4 135.837 370.295 135.941L370.301 135.947L367.718 138.496L370.239 140.976C370.262 140.993 370.284 141.011 370.305 141.031C370.469 141.192 370.518 141.435 370.43 141.647C370.341 141.858 370.132 141.996 369.9 141.996C369.746 141.996 369.602 141.934 369.496 141.831L369.49 141.837L366.908 139.295L364.328 141.84L364.32 141.833Z" fill="black"/>
</g>
<g clip-path="url(#clip1_52_2577)">
<g filter="url(#filter5_d_52_2577)">
<rect x="3" y="117" width="44" height="42" rx="4.6" fill="#FCFCFE"/>
</g>
<path d="M34.2161 140.174H29.7701V144.033C29.7701 144.111 29.7701 144.182 29.7701 144.257C29.7701 144.322 29.7701 144.383 29.7673 144.448C29.7653 144.587 29.7522 144.726 29.7281 144.863C29.7018 144.999 29.6543 145.131 29.5869 145.255C29.5179 145.378 29.4278 145.491 29.32 145.588C29.2117 145.686 29.088 145.768 28.9532 145.832C28.8166 145.893 28.6716 145.936 28.5222 145.961C28.3723 145.983 28.2209 145.995 28.0692 145.997C27.9986 145.997 27.9301 146 27.8609 146H22.1415C22.0709 146 22.0028 145.997 21.9333 145.997C21.7816 145.995 21.6302 145.983 21.4803 145.961C21.331 145.936 21.1861 145.893 21.0496 145.832C20.9148 145.768 20.7911 145.686 20.6828 145.588C20.575 145.491 20.4848 145.378 20.4159 145.255C20.3486 145.131 20.301 144.999 20.2747 144.863C20.2504 144.726 20.2372 144.587 20.2352 144.448C20.2352 144.383 20.2324 144.322 20.2324 144.257C20.2324 144.182 20.2324 144.111 20.2324 144.033V140.174H15.7161C15.2593 140.174 14.6732 139.27 15.2219 138.768C15.6882 138.343 23.0178 131.636 24.5517 130.24C24.6644 130.113 24.8236 130.027 24.9997 130H25.0117C25.164 130.008 25.3054 130.075 25.4 130.185C26.9339 131.581 34.2885 138.343 34.7552 138.768C35.3042 139.27 34.8445 140.174 34.2161 140.174Z" fill="black"/>
</g>
<g filter="url(#filter6_d_52_2577)">
<rect x="295.5" y="117" width="33" height="42" rx="4.6" fill="#FCFCFE"/>
</g>
<path d="M304.867 130.359H306.876L312 143.11L317.113 130.359H319.133L312.773 146H311.205L304.867 130.359ZM304.212 130.359H305.984L306.274 139.898V146H304.212V130.359ZM318.005 130.359H319.777V146H317.715V139.898L318.005 130.359Z" fill="black"/>
<g filter="url(#filter7_d_52_2577)">
<rect x="256.5" y="117" width="33" height="42" rx="4.6" fill="#FCFCFE"/>
</g>
<path d="M278.994 130.359V146H276.91L269.036 133.937V146H266.963V130.359H269.036L276.942 142.455V130.359H278.994Z" fill="black"/>
<g filter="url(#filter8_d_52_2577)">
<rect x="217.5" y="117" width="33" height="42" rx="4.6" fill="#FCFCFE"/>
</g>
<path d="M234.537 138.685H230.573L230.552 137.02H234.15C234.745 137.02 235.264 136.919 235.708 136.719C236.152 136.518 236.496 136.232 236.739 135.859C236.99 135.48 237.115 135.029 237.115 134.506C237.115 133.933 237.004 133.467 236.782 133.109C236.567 132.744 236.234 132.479 235.783 132.314C235.339 132.143 234.773 132.057 234.086 132.057H231.035V146H228.962V130.359H234.086C234.888 130.359 235.604 130.442 236.234 130.606C236.865 130.764 237.398 131.015 237.835 131.358C238.279 131.695 238.616 132.125 238.845 132.647C239.074 133.17 239.188 133.797 239.188 134.527C239.188 135.172 239.024 135.756 238.694 136.278C238.365 136.794 237.907 137.216 237.319 137.546C236.739 137.875 236.059 138.087 235.278 138.18L234.537 138.685ZM234.44 146H229.757L230.928 144.313H234.44C235.099 144.313 235.658 144.199 236.116 143.97C236.582 143.741 236.936 143.418 237.18 143.003C237.423 142.58 237.545 142.083 237.545 141.51C237.545 140.93 237.441 140.428 237.233 140.006C237.026 139.583 236.7 139.257 236.256 139.028C235.812 138.799 235.239 138.685 234.537 138.685H231.583L231.604 137.02H235.644L236.084 137.621C236.836 137.686 237.473 137.9 237.996 138.266C238.519 138.624 238.916 139.082 239.188 139.641C239.468 140.199 239.607 140.815 239.607 141.488C239.607 142.462 239.393 143.286 238.963 143.959C238.54 144.625 237.942 145.133 237.169 145.484C236.396 145.828 235.486 146 234.44 146Z" fill="black"/>
<g filter="url(#filter9_d_52_2577)">
<rect x="178.5" y="117" width="33" height="42" rx="4.6" fill="#FCFCFE"/>
</g>
<path d="M194.86 143.626L199.469 130.359H201.714L195.924 146H194.323L194.86 143.626ZM190.553 130.359L195.118 143.626L195.688 146H194.087L188.308 130.359H190.553Z" fill="black"/>
<g filter="url(#filter10_d_52_2577)">
<rect x="139" y="117" width="33" height="42" rx="4.6" fill="#FCFCFE"/>
</g>
<path d="M159.593 141.026H161.655C161.548 142.015 161.265 142.899 160.807 143.68C160.348 144.46 159.7 145.08 158.862 145.538C158.024 145.989 156.979 146.215 155.726 146.215C154.809 146.215 153.975 146.043 153.223 145.699C152.478 145.355 151.837 144.868 151.3 144.238C150.763 143.601 150.347 142.838 150.054 141.95C149.767 141.055 149.624 140.06 149.624 138.964V137.406C149.624 136.311 149.767 135.319 150.054 134.431C150.347 133.535 150.766 132.769 151.311 132.132C151.862 131.494 152.524 131.004 153.298 130.66C154.071 130.316 154.941 130.145 155.908 130.145C157.09 130.145 158.089 130.367 158.905 130.811C159.722 131.255 160.355 131.87 160.807 132.658C161.265 133.439 161.548 134.345 161.655 135.376H159.593C159.493 134.646 159.306 134.019 159.034 133.496C158.762 132.966 158.375 132.558 157.874 132.271C157.373 131.985 156.717 131.842 155.908 131.842C155.214 131.842 154.601 131.974 154.071 132.239C153.549 132.504 153.108 132.88 152.75 133.367C152.399 133.854 152.134 134.438 151.955 135.118C151.776 135.799 151.687 136.554 151.687 137.385V138.964C151.687 139.73 151.765 140.45 151.923 141.123C152.088 141.796 152.335 142.387 152.664 142.896C152.993 143.404 153.412 143.805 153.921 144.099C154.429 144.385 155.031 144.528 155.726 144.528C156.606 144.528 157.308 144.389 157.831 144.109C158.354 143.83 158.748 143.429 159.013 142.906C159.285 142.383 159.478 141.757 159.593 141.026Z" fill="black"/>
<g filter="url(#filter11_d_52_2577)">
<rect x="100" y="117" width="33" height="42" rx="4.6" fill="#FCFCFE"/>
</g>
<path d="M112.762 130.359L116.521 136.354L120.281 130.359H122.698L117.757 138.104L122.816 146H120.378L116.521 139.888L112.665 146H110.227L115.286 138.104L110.345 130.359H112.762Z" fill="black"/>
<g filter="url(#filter12_d_52_2577)">
<rect x="61" y="117" width="34" height="42" rx="4.6" fill="#FCFCFE"/>
</g>
<path d="M83.7148 144.313V146H73.123V144.313H83.7148ZM83.3711 131.863L73.6172 146H72.3389V144.453L82.082 130.359H83.3711V131.863ZM82.4902 130.359V132.057H72.4785V130.359H82.4902Z" fill="black"/>
<g filter="url(#filter13_d_52_2577)">
<rect x="334.5" y="63" width="33" height="42" rx="4.6" fill="#FCFCFE"/>
</g>
<path d="M356.371 90.3135V92H348.551V90.3135H356.371ZM348.959 76.3594V92H346.886V76.3594H348.959Z" fill="black"/>
<g filter="url(#filter14_d_52_2577)">
<rect x="295.5" y="63" width="33" height="42" rx="4.6" fill="#FCFCFE"/>
</g>
<path d="M308.981 76.3594V92H306.908V76.3594H308.981ZM318.424 76.3594L311.925 83.6533L308.272 87.4453L307.929 85.2324L310.679 82.2031L315.932 76.3594H318.424ZM316.426 92L310.636 84.373L311.871 82.7295L318.896 92H316.426Z" fill="black"/>
<g filter="url(#filter15_d_52_2577)">
<rect x="256.5" y="63" width="33" height="42" rx="4.6" fill="#FCFCFE"/>
</g>
<path d="M275.31 87.4346V76.3594H277.372V87.4346C277.372 88.4658 277.161 89.3359 276.738 90.0449C276.316 90.7539 275.732 91.2946 274.987 91.667C274.25 92.0322 273.401 92.2148 272.441 92.2148C271.482 92.2148 270.63 92.0501 269.885 91.7207C269.14 91.3913 268.556 90.89 268.134 90.2168C267.711 89.5436 267.5 88.695 267.5 87.6709H269.573C269.573 88.3298 269.695 88.8704 269.938 89.293C270.182 89.7155 270.519 90.027 270.948 90.2275C271.385 90.4281 271.883 90.5283 272.441 90.5283C272.986 90.5283 273.473 90.4137 273.902 90.1846C274.339 89.9482 274.683 89.6009 274.934 89.1426C275.184 88.6771 275.31 88.1077 275.31 87.4346Z" fill="black"/>
<g filter="url(#filter16_d_52_2577)">
<rect x="217.5" y="63" width="33" height="42" rx="4.6" fill="#FCFCFE"/>
</g>
<path d="M238.179 83.084V84.7705H229.714V83.084H238.179ZM230.036 76.3594V92H227.963V76.3594H230.036ZM239.983 76.3594V92H237.921V76.3594H239.983Z" fill="black"/>
<g filter="url(#filter17_d_52_2577)">
<rect x="178.5" y="63" width="33" height="42" rx="4.6" fill="#FCFCFE"/>
</g>
<path d="M200.876 84.2119V89.9375C200.683 90.224 200.375 90.5462 199.952 90.9043C199.53 91.2552 198.946 91.5632 198.201 91.8281C197.464 92.0859 196.511 92.2148 195.344 92.2148C194.391 92.2148 193.514 92.0501 192.712 91.7207C191.917 91.3841 191.226 90.8971 190.639 90.2598C190.059 89.6152 189.607 88.8346 189.285 87.918C188.97 86.9941 188.812 85.9486 188.812 84.7812V83.5674C188.812 82.4001 188.949 81.3581 189.221 80.4414C189.5 79.5247 189.908 78.7477 190.445 78.1104C190.982 77.4658 191.641 76.9788 192.422 76.6494C193.202 76.3128 194.098 76.1445 195.107 76.1445C196.303 76.1445 197.302 76.3522 198.104 76.7676C198.914 77.1758 199.544 77.7415 199.995 78.4648C200.453 79.1882 200.747 80.0117 200.876 80.9355H198.803C198.71 80.3698 198.523 79.8542 198.244 79.3887C197.972 78.9232 197.582 78.5508 197.073 78.2715C196.565 77.985 195.91 77.8418 195.107 77.8418C194.384 77.8418 193.757 77.9743 193.228 78.2393C192.698 78.5042 192.261 78.8838 191.917 79.3779C191.573 79.8721 191.315 80.4701 191.144 81.1719C190.979 81.8737 190.896 82.665 190.896 83.5459V84.7812C190.896 85.6836 191 86.4893 191.208 87.1982C191.423 87.9072 191.727 88.5124 192.121 89.0137C192.515 89.5078 192.984 89.8838 193.528 90.1416C194.08 90.3994 194.688 90.5283 195.354 90.5283C196.092 90.5283 196.69 90.4674 197.148 90.3457C197.607 90.2168 197.965 90.0664 198.223 89.8945C198.48 89.7155 198.677 89.5472 198.813 89.3896V85.8877H195.193V84.2119H200.876Z" fill="black"/>
<g filter="url(#filter18_d_52_2577)">
<rect x="139.5" y="63" width="33" height="42" rx="4.6" fill="#FCFCFE"/>
</g>
<path d="M153.809 76.3594V92H151.735V76.3594H153.809ZM160.361 83.3955V85.0928H153.357V83.3955H160.361ZM161.425 76.3594V78.0566H153.357V76.3594H161.425Z" fill="black"/>
<g filter="url(#filter19_d_52_2577)">
<rect x="100.5" y="63" width="33" height="42" rx="4.6" fill="#FCFCFE"/>
</g>
<path d="M115.829 92H112.563L112.585 90.3135H115.829C116.946 90.3135 117.877 90.0807 118.622 89.6152C119.367 89.1426 119.925 88.4837 120.298 87.6387C120.677 86.7865 120.867 85.791 120.867 84.6523V83.6963C120.867 82.8011 120.76 82.0062 120.545 81.3115C120.33 80.6097 120.015 80.0189 119.6 79.5391C119.184 79.0521 118.676 78.6833 118.074 78.4326C117.48 78.182 116.796 78.0566 116.022 78.0566H112.499V76.3594H116.022C117.047 76.3594 117.981 76.5312 118.826 76.875C119.671 77.2116 120.398 77.7021 121.007 78.3467C121.623 78.984 122.095 79.7575 122.425 80.667C122.754 81.5693 122.919 82.5863 122.919 83.7178V84.6523C122.919 85.7839 122.754 86.8044 122.425 87.7139C122.095 88.6162 121.619 89.3861 120.996 90.0234C120.38 90.6608 119.635 91.1514 118.762 91.4951C117.895 91.8317 116.918 92 115.829 92ZM113.67 76.3594V92H111.597V76.3594H113.67Z" fill="black"/>
<g filter="url(#filter20_d_52_2577)">
<rect x="61.5" y="63" width="33" height="42" rx="4.6" fill="#FCFCFE"/>
</g>
<path d="M81.6201 88.0469C81.6201 87.6816 81.5628 87.3594 81.4482 87.0801C81.3408 86.7936 81.1475 86.5358 80.8682 86.3066C80.596 86.0775 80.2165 85.859 79.7295 85.6514C79.2497 85.4437 78.641 85.2324 77.9033 85.0176C77.1299 84.7884 76.4316 84.5342 75.8086 84.2549C75.1855 83.9684 74.652 83.6426 74.208 83.2773C73.764 82.9121 73.4238 82.4932 73.1875 82.0205C72.9512 81.5479 72.833 81.0072 72.833 80.3984C72.833 79.7897 72.9583 79.2275 73.209 78.7119C73.4596 78.1963 73.8177 77.7487 74.2832 77.3691C74.7559 76.9824 75.318 76.6816 75.9697 76.4668C76.6214 76.252 77.3483 76.1445 78.1504 76.1445C79.3249 76.1445 80.3203 76.3701 81.1367 76.8213C81.9603 77.2653 82.5869 77.849 83.0166 78.5723C83.4463 79.2884 83.6611 80.0547 83.6611 80.8711H81.5986C81.5986 80.2839 81.4733 79.7646 81.2227 79.3135C80.972 78.8551 80.5924 78.4971 80.084 78.2393C79.5755 77.9743 78.931 77.8418 78.1504 77.8418C77.4128 77.8418 76.804 77.9528 76.3242 78.1748C75.8444 78.3968 75.4863 78.6976 75.25 79.0771C75.0208 79.4567 74.9062 79.89 74.9062 80.377C74.9062 80.7064 74.9743 81.0072 75.1104 81.2793C75.2536 81.5443 75.472 81.7913 75.7656 82.0205C76.0664 82.2497 76.446 82.4609 76.9043 82.6543C77.3698 82.8477 77.9248 83.0339 78.5693 83.2129C79.4574 83.4635 80.2236 83.7428 80.8682 84.0508C81.5127 84.3587 82.0426 84.7061 82.458 85.0928C82.8805 85.4723 83.1921 85.9056 83.3926 86.3926C83.6003 86.8724 83.7041 87.4167 83.7041 88.0254C83.7041 88.6628 83.5752 89.2393 83.3174 89.7549C83.0596 90.2705 82.6908 90.7109 82.2109 91.0762C81.7311 91.4414 81.1546 91.7243 80.4814 91.9248C79.8154 92.1182 79.0706 92.2148 78.2471 92.2148C77.5238 92.2148 76.8112 92.1146 76.1094 91.9141C75.4147 91.7135 74.7809 91.4128 74.208 91.0117C73.6423 90.6107 73.1875 90.1165 72.8438 89.5293C72.5072 88.9349 72.3389 88.2474 72.3389 87.4668H74.4014C74.4014 88.0039 74.5052 88.4658 74.7129 88.8525C74.9206 89.2321 75.2035 89.5472 75.5615 89.7979C75.9268 90.0485 76.3385 90.2347 76.7969 90.3564C77.2624 90.471 77.7458 90.5283 78.2471 90.5283C78.9704 90.5283 79.5827 90.4281 80.084 90.2275C80.5853 90.027 80.9648 89.7406 81.2227 89.3682C81.4876 88.9958 81.6201 88.5553 81.6201 88.0469Z" fill="black"/>
<g filter="url(#filter21_d_52_2577)">
<rect x="22.5" y="63" width="33" height="42" rx="4.6" fill="#FCFCFE"/>
</g>
<path d="M39.4297 77.7451L34.252 92H32.1357L38.0977 76.3594H39.4619L39.4297 77.7451ZM43.7695 92L38.5811 77.7451L38.5488 76.3594H39.9131L45.8965 92H43.7695ZM43.501 86.21V87.9072H34.7139V86.21H43.501Z" fill="black"/>
<g filter="url(#filter22_d_52_2577)">
<rect x="354" y="9" width="33" height="42" rx="4.6" fill="#FCFCFE"/>
</g>
<path d="M371.145 31.8662H366.966V30.1797H371.145C371.954 30.1797 372.609 30.0508 373.11 29.793C373.612 29.5352 373.977 29.1771 374.206 28.7188C374.442 28.2604 374.561 27.7376 374.561 27.1504C374.561 26.6133 374.442 26.1084 374.206 25.6357C373.977 25.1631 373.612 24.7835 373.11 24.4971C372.609 24.2035 371.954 24.0566 371.145 24.0566H367.449V38H365.376V22.3594H371.145C372.326 22.3594 373.325 22.5635 374.142 22.9717C374.958 23.3799 375.577 23.9456 376 24.6689C376.423 25.3851 376.634 26.2051 376.634 27.1289C376.634 28.1315 376.423 28.9873 376 29.6963C375.577 30.4053 374.958 30.946 374.142 31.3184C373.325 31.6836 372.326 31.8662 371.145 31.8662Z" fill="black"/>
<g filter="url(#filter23_d_52_2577)">
<rect x="315" y="9" width="33" height="42" rx="4.6" fill="#FCFCFE"/>
</g>
<path d="M337.784 29.6855V30.6738C337.784 31.8483 337.637 32.901 337.344 33.832C337.05 34.763 336.628 35.5544 336.076 36.2061C335.525 36.8577 334.862 37.3555 334.089 37.6992C333.323 38.043 332.463 38.2148 331.511 38.2148C330.587 38.2148 329.738 38.043 328.965 37.6992C328.199 37.3555 327.533 36.8577 326.967 36.2061C326.408 35.5544 325.975 34.763 325.667 33.832C325.359 32.901 325.205 31.8483 325.205 30.6738V29.6855C325.205 28.5111 325.355 27.4619 325.656 26.5381C325.964 25.6071 326.397 24.8158 326.956 24.1641C327.515 23.5052 328.177 23.0039 328.943 22.6602C329.717 22.3164 330.565 22.1445 331.489 22.1445C332.442 22.1445 333.301 22.3164 334.067 22.6602C334.841 23.0039 335.503 23.5052 336.055 24.1641C336.613 24.8158 337.039 25.6071 337.333 26.5381C337.634 27.4619 337.784 28.5111 337.784 29.6855ZM335.732 30.6738V29.6641C335.732 28.7331 335.636 27.9095 335.442 27.1934C335.256 26.4772 334.98 25.8757 334.615 25.3887C334.25 24.9017 333.802 24.5329 333.272 24.2822C332.75 24.0316 332.155 23.9062 331.489 23.9062C330.845 23.9062 330.261 24.0316 329.738 24.2822C329.223 24.5329 328.779 24.9017 328.406 25.3887C328.041 25.8757 327.758 26.4772 327.558 27.1934C327.357 27.9095 327.257 28.7331 327.257 29.6641V30.6738C327.257 31.612 327.357 32.4427 327.558 33.166C327.758 33.8822 328.045 34.4873 328.417 34.9814C328.797 35.4684 329.244 35.8372 329.76 36.0879C330.283 36.3385 330.866 36.4639 331.511 36.4639C332.184 36.4639 332.782 36.3385 333.305 36.0879C333.827 35.8372 334.268 35.4684 334.626 34.9814C334.991 34.4873 335.267 33.8822 335.453 33.166C335.639 32.4427 335.732 31.612 335.732 30.6738Z" fill="black"/>
<g filter="url(#filter24_d_52_2577)">
<rect x="276" y="9" width="33" height="42" rx="4.6" fill="#FCFCFE"/>
</g>
<path d="M293.542 22.3594V38H291.469V22.3594H293.542Z" fill="black"/>
<g filter="url(#filter25_d_52_2577)">
<rect x="238" y="9" width="32" height="42" rx="4.6" fill="#FCFCFE"/>
</g>
<path d="M257.631 22.3594H259.693V32.9404C259.693 34.1149 259.432 35.0924 258.909 35.873C258.386 36.6536 257.692 37.2409 256.825 37.6348C255.966 38.0215 255.031 38.2148 254.021 38.2148C252.962 38.2148 252.002 38.0215 251.143 37.6348C250.29 37.2409 249.614 36.6536 249.112 35.873C248.618 35.0924 248.371 34.1149 248.371 32.9404V22.3594H250.423V32.9404C250.423 33.7568 250.573 34.43 250.874 34.96C251.175 35.4899 251.594 35.8838 252.131 36.1416C252.675 36.3994 253.305 36.5283 254.021 36.5283C254.745 36.5283 255.375 36.3994 255.912 36.1416C256.456 35.8838 256.879 35.4899 257.18 34.96C257.48 34.43 257.631 33.7568 257.631 32.9404V22.3594Z" fill="black"/>
<g filter="url(#filter26_d_52_2577)">
<rect x="198" y="9" width="33" height="42" rx="4.6" fill="#FCFCFE"/>
</g>
<path d="M210.429 22.3594L214.489 30.2119L218.561 22.3594H220.913L215.521 32.1562V38H213.447V32.1562L208.055 22.3594H210.429Z" fill="black"/>
<g filter="url(#filter27_d_52_2577)">
<rect x="159" y="9" width="33" height="42" rx="4.6" fill="#FCFCFE"/>
</g>
<path d="M176.531 22.3594V38H174.49V22.3594H176.531ZM181.559 22.3594V24.0566H169.474V22.3594H181.559Z" fill="black"/>
<g filter="url(#filter28_d_52_2577)">
<rect x="120" y="9" width="33" height="42" rx="4.6" fill="#FCFCFE"/>
</g>
<path d="M131.537 22.3594H136.715C137.889 22.3594 138.881 22.5384 139.69 22.8965C140.507 23.2546 141.126 23.7845 141.549 24.4863C141.979 25.181 142.193 26.0368 142.193 27.0537C142.193 27.7699 142.047 28.4251 141.753 29.0195C141.466 29.6068 141.051 30.1081 140.507 30.5234C139.97 30.9316 139.325 31.236 138.573 31.4365L137.993 31.6621H133.127L133.105 29.9756H136.779C137.524 29.9756 138.144 29.8467 138.638 29.5889C139.132 29.3239 139.504 28.9694 139.755 28.5254C140.006 28.0814 140.131 27.5908 140.131 27.0537C140.131 26.4521 140.013 25.9258 139.776 25.4746C139.54 25.0234 139.168 24.6761 138.659 24.4326C138.158 24.182 137.51 24.0566 136.715 24.0566H133.61V38H131.537V22.3594ZM140.679 38L136.876 30.9102L139.035 30.8994L142.892 37.8711V38H140.679Z" fill="black"/>
<g filter="url(#filter29_d_52_2577)">
<rect x="81" y="9" width="33" height="42" rx="4.6" fill="#FCFCFE"/>
</g>
<path d="M103 36.3135V38H94.7178V36.3135H103ZM95.1367 22.3594V38H93.0635V22.3594H95.1367ZM101.904 29.084V30.7705H94.7178V29.084H101.904ZM102.893 22.3594V24.0566H94.7178V22.3594H102.893Z" fill="black"/>
<g filter="url(#filter30_d_52_2577)">
<rect x="42" y="9" width="33" height="42" rx="4.6" fill="#FCFCFE"/>
</g>
<path d="M54.665 33.2734L57.7695 22.3594H59.2734L58.4033 26.6025L55.0625 38H53.5693L54.665 33.2734ZM51.4531 22.3594L53.9238 33.0586L54.665 38H53.1826L49.3906 22.3594H51.4531ZM63.291 33.0479L65.708 22.3594H67.7812L64 38H62.5176L63.291 33.0479ZM59.499 22.3594L62.5176 33.2734L63.6133 38H62.1201L58.8975 26.6025L58.0166 22.3594H59.499Z" fill="black"/>
<g filter="url(#filter31_d_52_2577)">
<rect x="3" y="9" width="33" height="42" rx="4.6" fill="#FCFCFE"/>
</g>
<path d="M21.7666 36.2061L25.7412 39.3535L24.3447 40.6426L20.4346 37.5381L21.7666 36.2061ZM25.6875 29.6855V30.6738C25.6875 31.8483 25.5407 32.901 25.2471 33.832C24.9535 34.763 24.5309 35.5544 23.9795 36.2061C23.4281 36.8577 22.7656 37.3555 21.9922 37.6992C21.2259 38.043 20.3665 38.2148 19.4141 38.2148C18.4902 38.2148 17.6416 38.043 16.8682 37.6992C16.1019 37.3555 15.4359 36.8577 14.8701 36.2061C14.3115 35.5544 13.8783 34.763 13.5703 33.832C13.2624 32.901 13.1084 31.8483 13.1084 30.6738V29.6855C13.1084 28.5111 13.2588 27.4619 13.5596 26.5381C13.8675 25.6071 14.3008 24.8158 14.8594 24.1641C15.418 23.5052 16.0804 23.0039 16.8467 22.6602C17.6201 22.3164 18.4688 22.1445 19.3926 22.1445C20.3451 22.1445 21.208 22.3164 21.9814 22.6602C22.7549 23.0039 23.4173 23.5052 23.9688 24.1641C24.5202 24.8158 24.9427 25.6071 25.2363 26.5381C25.5371 27.4619 25.6875 28.5111 25.6875 29.6855ZM23.6357 30.6738V29.6641C23.6357 28.7331 23.5391 27.9095 23.3457 27.1934C23.1595 26.4772 22.8838 25.8757 22.5186 25.3887C22.1533 24.9017 21.7093 24.5329 21.1865 24.2822C20.6637 24.0316 20.0658 23.9062 19.3926 23.9062C18.7552 23.9062 18.1751 24.0316 17.6523 24.2822C17.1367 24.5329 16.6927 24.9017 16.3203 25.3887C15.9479 25.8757 15.6615 26.4772 15.4609 27.1934C15.2604 27.9095 15.1602 28.7331 15.1602 29.6641V30.6738C15.1602 31.612 15.2604 32.4427 15.4609 33.166C15.6615 33.8822 15.9479 34.4873 16.3203 34.9814C16.6999 35.4684 17.151 35.8372 17.6738 36.0879C18.1966 36.3385 18.7767 36.4639 19.4141 36.4639C20.0872 36.4639 20.6852 36.3385 21.208 36.0879C21.7308 35.8372 22.1712 35.4684 22.5293 34.9814C22.8945 34.4873 23.1702 33.8822 23.3564 33.166C23.5426 32.4427 23.6357 31.612 23.6357 30.6738Z" fill="black"/>
<defs>
<filter id="filter0_b_52_2577" x="-53.1521" y="-53.1521" width="496.304" height="397.304" filterUnits="userSpaceOnUse" color-interpolation-filters="sRGB">
<feFlood flood-opacity="0" result="BackgroundImageFix"/>
<feGaussianBlur in="BackgroundImageFix" stdDeviation="26.5761"/>
<feComposite in2="SourceAlpha" operator="in" result="effect1_backgroundBlur_52_2577"/>
<feBlend mode="normal" in="SourceGraphic" in2="effect1_backgroundBlur_52_2577" result="shape"/>
</filter>
<filter id="filter1_d_52_2577" x="296" y="171" width="91" height="43" filterUnits="userSpaceOnUse" color-interpolation-filters="sRGB">
<feFlood flood-opacity="0" result="BackgroundImageFix"/>
<feColorMatrix in="SourceAlpha" type="matrix" values="0 0 0 0 0 0 0 0 0 0 0 0 0 0 0 0 0 0 127 0" result="hardAlpha"/>
<feOffset dy="1"/>
<feColorMatrix type="matrix" values="0 0 0 0 0.537255 0 0 0 0 0.541176 0 0 0 0 0.552941 0 0 0 1 0"/>
<feBlend mode="normal" in2="BackgroundImageFix" result="effect1_dropShadow_52_2577"/>
<feBlend mode="normal" in="SourceGraphic" in2="effect1_dropShadow_52_2577" result="shape"/>
</filter>
<filter id="filter2_d_52_2577" x="100" y="171" width="190" height="43" filterUnits="userSpaceOnUse" color-interpolation-filters="sRGB">
<feFlood flood-opacity="0" result="BackgroundImageFix"/>
<feColorMatrix in="SourceAlpha" type="matrix" values="0 0 0 0 0 0 0 0 0 0 0 0 0 0 0 0 0 0 127 0" result="hardAlpha"/>
<feOffset dy="1"/>
<feColorMatrix type="matrix" values="0 0 0 0 0.537255 0 0 0 0 0.541176 0 0 0 0 0.552941 0 0 0 1 0"/>
<feBlend mode="normal" in2="BackgroundImageFix" result="effect1_dropShadow_52_2577"/>
<feBlend mode="normal" in="SourceGraphic" in2="effect1_dropShadow_52_2577" result="shape"/>
</filter>
<filter id="filter3_d_52_2577" x="3" y="171" width="91" height="43" filterUnits="userSpaceOnUse" color-interpolation-filters="sRGB">
<feFlood flood-opacity="0" result="BackgroundImageFix"/>
<feColorMatrix in="SourceAlpha" type="matrix" values="0 0 0 0 0 0 0 0 0 0 0 0 0 0 0 0 0 0 127 0" result="hardAlpha"/>
<feOffset dy="1"/>
<feColorMatrix type="matrix" values="0 0 0 0 0.537255 0 0 0 0 0.541176 0 0 0 0 0.552941 0 0 0 1 0"/>
<feBlend mode="normal" in2="BackgroundImageFix" result="effect1_dropShadow_52_2577"/>
<feBlend mode="normal" in="SourceGraphic" in2="effect1_dropShadow_52_2577" result="shape"/>
</filter>
<filter id="filter4_d_52_2577" x="343" y="117" width="44" height="43" filterUnits="userSpaceOnUse" color-interpolation-filters="sRGB">
<feFlood flood-opacity="0" result="BackgroundImageFix"/>
<feColorMatrix in="SourceAlpha" type="matrix" values="0 0 0 0 0 0 0 0 0 0 0 0 0 0 0 0 0 0 127 0" result="hardAlpha"/>
<feOffset dy="1"/>
<feColorMatrix type="matrix" values="0 0 0 0 0.537255 0 0 0 0 0.541176 0 0 0 0 0.552941 0 0 0 1 0"/>
<feBlend mode="normal" in2="BackgroundImageFix" result="effect1_dropShadow_52_2577"/>
<feBlend mode="normal" in="SourceGraphic" in2="effect1_dropShadow_52_2577" result="shape"/>
</filter>
<filter id="filter5_d_52_2577" x="3" y="117" width="44" height="43" filterUnits="userSpaceOnUse" color-interpolation-filters="sRGB">
<feFlood flood-opacity="0" result="BackgroundImageFix"/>
<feColorMatrix in="SourceAlpha" type="matrix" values="0 0 0 0 0 0 0 0 0 0 0 0 0 0 0 0 0 0 127 0" result="hardAlpha"/>
<feOffset dy="1"/>
<feColorMatrix type="matrix" values="0 0 0 0 0.537255 0 0 0 0 0.541176 0 0 0 0 0.552941 0 0 0 1 0"/>
<feBlend mode="normal" in2="BackgroundImageFix" result="effect1_dropShadow_52_2577"/>
<feBlend mode="normal" in="SourceGraphic" in2="effect1_dropShadow_52_2577" result="shape"/>
</filter>
<filter id="filter6_d_52_2577" x="295.5" y="117" width="33" height="43" filterUnits="userSpaceOnUse" color-interpolation-filters="sRGB">
<feFlood flood-opacity="0" result="BackgroundImageFix"/>
<feColorMatrix in="SourceAlpha" type="matrix" values="0 0 0 0 0 0 0 0 0 0 0 0 0 0 0 0 0 0 127 0" result="hardAlpha"/>
<feOffset dy="1"/>
<feColorMatrix type="matrix" values="0 0 0 0 0.537255 0 0 0 0 0.541176 0 0 0 0 0.552941 0 0 0 1 0"/>
<feBlend mode="normal" in2="BackgroundImageFix" result="effect1_dropShadow_52_2577"/>
<feBlend mode="normal" in="SourceGraphic" in2="effect1_dropShadow_52_2577" result="shape"/>
</filter>
<filter id="filter7_d_52_2577" x="256.5" y="117" width="33" height="43" filterUnits="userSpaceOnUse" color-interpolation-filters="sRGB">
<feFlood flood-opacity="0" result="BackgroundImageFix"/>
<feColorMatrix in="SourceAlpha" type="matrix" values="0 0 0 0 0 0 0 0 0 0 0 0 0 0 0 0 0 0 127 0" result="hardAlpha"/>
<feOffset dy="1"/>
<feColorMatrix type="matrix" values="0 0 0 0 0.537255 0 0 0 0 0.541176 0 0 0 0 0.552941 0 0 0 1 0"/>
<feBlend mode="normal" in2="BackgroundImageFix" result="effect1_dropShadow_52_2577"/>
<feBlend mode="normal" in="SourceGraphic" in2="effect1_dropShadow_52_2577" result="shape"/>
</filter>
<filter id="filter8_d_52_2577" x="217.5" y="117" width="33" height="43" filterUnits="userSpaceOnUse" color-interpolation-filters="sRGB">
<feFlood flood-opacity="0" result="BackgroundImageFix"/>
<feColorMatrix in="SourceAlpha" type="matrix" values="0 0 0 0 0 0 0 0 0 0 0 0 0 0 0 0 0 0 127 0" result="hardAlpha"/>
<feOffset dy="1"/>
<feColorMatrix type="matrix" values="0 0 0 0 0.537255 0 0 0 0 0.541176 0 0 0 0 0.552941 0 0 0 1 0"/>
<feBlend mode="normal" in2="BackgroundImageFix" result="effect1_dropShadow_52_2577"/>
<feBlend mode="normal" in="SourceGraphic" in2="effect1_dropShadow_52_2577" result="shape"/>
</filter>
<filter id="filter9_d_52_2577" x="178.5" y="117" width="33" height="43" filterUnits="userSpaceOnUse" color-interpolation-filters="sRGB">
<feFlood flood-opacity="0" result="BackgroundImageFix"/>
<feColorMatrix in="SourceAlpha" type="matrix" values="0 0 0 0 0 0 0 0 0 0 0 0 0 0 0 0 0 0 127 0" result="hardAlpha"/>
<feOffset dy="1"/>
<feColorMatrix type="matrix" values="0 0 0 0 0.537255 0 0 0 0 0.541176 0 0 0 0 0.552941 0 0 0 1 0"/>
<feBlend mode="normal" in2="BackgroundImageFix" result="effect1_dropShadow_52_2577"/>
<feBlend mode="normal" in="SourceGraphic" in2="effect1_dropShadow_52_2577" result="shape"/>
</filter>
<filter id="filter10_d_52_2577" x="139" y="117" width="33" height="43" filterUnits="userSpaceOnUse" color-interpolation-filters="sRGB">
<feFlood flood-opacity="0" result="BackgroundImageFix"/>
<feColorMatrix in="SourceAlpha" type="matrix" values="0 0 0 0 0 0 0 0 0 0 0 0 0 0 0 0 0 0 127 0" result="hardAlpha"/>
<feOffset dy="1"/>
<feColorMatrix type="matrix" values="0 0 0 0 0.537255 0 0 0 0 0.541176 0 0 0 0 0.552941 0 0 0 1 0"/>
<feBlend mode="normal" in2="BackgroundImageFix" result="effect1_dropShadow_52_2577"/>
<feBlend mode="normal" in="SourceGraphic" in2="effect1_dropShadow_52_2577" result="shape"/>
</filter>
<filter id="filter11_d_52_2577" x="100" y="117" width="33" height="43" filterUnits="userSpaceOnUse" color-interpolation-filters="sRGB">
<feFlood flood-opacity="0" result="BackgroundImageFix"/>
<feColorMatrix in="SourceAlpha" type="matrix" values="0 0 0 0 0 0 0 0 0 0 0 0 0 0 0 0 0 0 127 0" result="hardAlpha"/>
<feOffset dy="1"/>
<feColorMatrix type="matrix" values="0 0 0 0 0.537255 0 0 0 0 0.541176 0 0 0 0 0.552941 0 0 0 1 0"/>
<feBlend mode="normal" in2="BackgroundImageFix" result="effect1_dropShadow_52_2577"/>
<feBlend mode="normal" in="SourceGraphic" in2="effect1_dropShadow_52_2577" result="shape"/>
</filter>
<filter id="filter12_d_52_2577" x="61" y="117" width="34" height="43" filterUnits="userSpaceOnUse" color-interpolation-filters="sRGB">
<feFlood flood-opacity="0" result="BackgroundImageFix"/>
<feColorMatrix in="SourceAlpha" type="matrix" values="0 0 0 0 0 0 0 0 0 0 0 0 0 0 0 0 0 0 127 0" result="hardAlpha"/>
<feOffset dy="1"/>
<feColorMatrix type="matrix" values="0 0 0 0 0.537255 0 0 0 0 0.541176 0 0 0 0 0.552941 0 0 0 1 0"/>
<feBlend mode="normal" in2="BackgroundImageFix" result="effect1_dropShadow_52_2577"/>
<feBlend mode="normal" in="SourceGraphic" in2="effect1_dropShadow_52_2577" result="shape"/>
</filter>
<filter id="filter13_d_52_2577" x="334.5" y="63" width="33" height="43" filterUnits="userSpaceOnUse" color-interpolation-filters="sRGB">
<feFlood flood-opacity="0" result="BackgroundImageFix"/>
<feColorMatrix in="SourceAlpha" type="matrix" values="0 0 0 0 0 0 0 0 0 0 0 0 0 0 0 0 0 0 127 0" result="hardAlpha"/>
<feOffset dy="1"/>
<feColorMatrix type="matrix" values="0 0 0 0 0.537255 0 0 0 0 0.541176 0 0 0 0 0.552941 0 0 0 1 0"/>
<feBlend mode="normal" in2="BackgroundImageFix" result="effect1_dropShadow_52_2577"/>
<feBlend mode="normal" in="SourceGraphic" in2="effect1_dropShadow_52_2577" result="shape"/>
</filter>
<filter id="filter14_d_52_2577" x="295.5" y="63" width="33" height="43" filterUnits="userSpaceOnUse" color-interpolation-filters="sRGB">
<feFlood flood-opacity="0" result="BackgroundImageFix"/>
<feColorMatrix in="SourceAlpha" type="matrix" values="0 0 0 0 0 0 0 0 0 0 0 0 0 0 0 0 0 0 127 0" result="hardAlpha"/>
<feOffset dy="1"/>
<feColorMatrix type="matrix" values="0 0 0 0 0.537255 0 0 0 0 0.541176 0 0 0 0 0.552941 0 0 0 1 0"/>
<feBlend mode="normal" in2="BackgroundImageFix" result="effect1_dropShadow_52_2577"/>
<feBlend mode="normal" in="SourceGraphic" in2="effect1_dropShadow_52_2577" result="shape"/>
</filter>
<filter id="filter15_d_52_2577" x="256.5" y="63" width="33" height="43" filterUnits="userSpaceOnUse" color-interpolation-filters="sRGB">
<feFlood flood-opacity="0" result="BackgroundImageFix"/>
<feColorMatrix in="SourceAlpha" type="matrix" values="0 0 0 0 0 0 0 0 0 0 0 0 0 0 0 0 0 0 127 0" result="hardAlpha"/>
<feOffset dy="1"/>
<feColorMatrix type="matrix" values="0 0 0 0 0.537255 0 0 0 0 0.541176 0 0 0 0 0.552941 0 0 0 1 0"/>
<feBlend mode="normal" in2="BackgroundImageFix" result="effect1_dropShadow_52_2577"/>
<feBlend mode="normal" in="SourceGraphic" in2="effect1_dropShadow_52_2577" result="shape"/>
</filter>
<filter id="filter16_d_52_2577" x="217.5" y="63" width="33" height="43" filterUnits="userSpaceOnUse" color-interpolation-filters="sRGB">
<feFlood flood-opacity="0" result="BackgroundImageFix"/>
<feColorMatrix in="SourceAlpha" type="matrix" values="0 0 0 0 0 0 0 0 0 0 0 0 0 0 0 0 0 0 127 0" result="hardAlpha"/>
<feOffset dy="1"/>
<feColorMatrix type="matrix" values="0 0 0 0 0.537255 0 0 0 0 0.541176 0 0 0 0 0.552941 0 0 0 1 0"/>
<feBlend mode="normal" in2="BackgroundImageFix" result="effect1_dropShadow_52_2577"/>
<feBlend mode="normal" in="SourceGraphic" in2="effect1_dropShadow_52_2577" result="shape"/>
</filter>
<filter id="filter17_d_52_2577" x="178.5" y="63" width="33" height="43" filterUnits="userSpaceOnUse" color-interpolation-filters="sRGB">
<feFlood flood-opacity="0" result="BackgroundImageFix"/>
<feColorMatrix in="SourceAlpha" type="matrix" values="0 0 0 0 0 0 0 0 0 0 0 0 0 0 0 0 0 0 127 0" result="hardAlpha"/>
<feOffset dy="1"/>
<feColorMatrix type="matrix" values="0 0 0 0 0.537255 0 0 0 0 0.541176 0 0 0 0 0.552941 0 0 0 1 0"/>
<feBlend mode="normal" in2="BackgroundImageFix" result="effect1_dropShadow_52_2577"/>
<feBlend mode="normal" in="SourceGraphic" in2="effect1_dropShadow_52_2577" result="shape"/>
</filter>
<filter id="filter18_d_52_2577" x="139.5" y="63" width="33" height="43" filterUnits="userSpaceOnUse" color-interpolation-filters="sRGB">
<feFlood flood-opacity="0" result="BackgroundImageFix"/>
<feColorMatrix in="SourceAlpha" type="matrix" values="0 0 0 0 0 0 0 0 0 0 0 0 0 0 0 0 0 0 127 0" result="hardAlpha"/>
<feOffset dy="1"/>
<feColorMatrix type="matrix" values="0 0 0 0 0.537255 0 0 0 0 0.541176 0 0 0 0 0.552941 0 0 0 1 0"/>
<feBlend mode="normal" in2="BackgroundImageFix" result="effect1_dropShadow_52_2577"/>
<feBlend mode="normal" in="SourceGraphic" in2="effect1_dropShadow_52_2577" result="shape"/>
</filter>
<filter id="filter19_d_52_2577" x="100.5" y="63" width="33" height="43" filterUnits="userSpaceOnUse" color-interpolation-filters="sRGB">
<feFlood flood-opacity="0" result="BackgroundImageFix"/>
<feColorMatrix in="SourceAlpha" type="matrix" values="0 0 0 0 0 0 0 0 0 0 0 0 0 0 0 0 0 0 127 0" result="hardAlpha"/>
<feOffset dy="1"/>
<feColorMatrix type="matrix" values="0 0 0 0 0.537255 0 0 0 0 0.541176 0 0 0 0 0.552941 0 0 0 1 0"/>
<feBlend mode="normal" in2="BackgroundImageFix" result="effect1_dropShadow_52_2577"/>
<feBlend mode="normal" in="SourceGraphic" in2="effect1_dropShadow_52_2577" result="shape"/>
</filter>
<filter id="filter20_d_52_2577" x="61.5" y="63" width="33" height="43" filterUnits="userSpaceOnUse" color-interpolation-filters="sRGB">
<feFlood flood-opacity="0" result="BackgroundImageFix"/>
<feColorMatrix in="SourceAlpha" type="matrix" values="0 0 0 0 0 0 0 0 0 0 0 0 0 0 0 0 0 0 127 0" result="hardAlpha"/>
<feOffset dy="1"/>
<feColorMatrix type="matrix" values="0 0 0 0 0.537255 0 0 0 0 0.541176 0 0 0 0 0.552941 0 0 0 1 0"/>
<feBlend mode="normal" in2="BackgroundImageFix" result="effect1_dropShadow_52_2577"/>
<feBlend mode="normal" in="SourceGraphic" in2="effect1_dropShadow_52_2577" result="shape"/>
</filter>
<filter id="filter21_d_52_2577" x="22.5" y="63" width="33" height="43" filterUnits="userSpaceOnUse" color-interpolation-filters="sRGB">
<feFlood flood-opacity="0" result="BackgroundImageFix"/>
<feColorMatrix in="SourceAlpha" type="matrix" values="0 0 0 0 0 0 0 0 0 0 0 0 0 0 0 0 0 0 127 0" result="hardAlpha"/>
<feOffset dy="1"/>
<feColorMatrix type="matrix" values="0 0 0 0 0.537255 0 0 0 0 0.541176 0 0 0 0 0.552941 0 0 0 1 0"/>
<feBlend mode="normal" in2="BackgroundImageFix" result="effect1_dropShadow_52_2577"/>
<feBlend mode="normal" in="SourceGraphic" in2="effect1_dropShadow_52_2577" result="shape"/>
</filter>
<filter id="filter22_d_52_2577" x="354" y="9" width="33" height="43" filterUnits="userSpaceOnUse" color-interpolation-filters="sRGB">
<feFlood flood-opacity="0" result="BackgroundImageFix"/>
<feColorMatrix in="SourceAlpha" type="matrix" values="0 0 0 0 0 0 0 0 0 0 0 0 0 0 0 0 0 0 127 0" result="hardAlpha"/>
<feOffset dy="1"/>
<feColorMatrix type="matrix" values="0 0 0 0 0.537255 0 0 0 0 0.541176 0 0 0 0 0.552941 0 0 0 1 0"/>
<feBlend mode="normal" in2="BackgroundImageFix" result="effect1_dropShadow_52_2577"/>
<feBlend mode="normal" in="SourceGraphic" in2="effect1_dropShadow_52_2577" result="shape"/>
</filter>
<filter id="filter23_d_52_2577" x="315" y="9" width="33" height="43" filterUnits="userSpaceOnUse" color-interpolation-filters="sRGB">
<feFlood flood-opacity="0" result="BackgroundImageFix"/>
<feColorMatrix in="SourceAlpha" type="matrix" values="0 0 0 0 0 0 0 0 0 0 0 0 0 0 0 0 0 0 127 0" result="hardAlpha"/>
<feOffset dy="1"/>
<feColorMatrix type="matrix" values="0 0 0 0 0.537255 0 0 0 0 0.541176 0 0 0 0 0.552941 0 0 0 1 0"/>
<feBlend mode="normal" in2="BackgroundImageFix" result="effect1_dropShadow_52_2577"/>
<feBlend mode="normal" in="SourceGraphic" in2="effect1_dropShadow_52_2577" result="shape"/>
</filter>
<filter id="filter24_d_52_2577" x="276" y="9" width="33" height="43" filterUnits="userSpaceOnUse" color-interpolation-filters="sRGB">
<feFlood flood-opacity="0" result="BackgroundImageFix"/>
<feColorMatrix in="SourceAlpha" type="matrix" values="0 0 0 0 0 0 0 0 0 0 0 0 0 0 0 0 0 0 127 0" result="hardAlpha"/>
<feOffset dy="1"/>
<feColorMatrix type="matrix" values="0 0 0 0 0.537255 0 0 0 0 0.541176 0 0 0 0 0.552941 0 0 0 1 0"/>
<feBlend mode="normal" in2="BackgroundImageFix" result="effect1_dropShadow_52_2577"/>
<feBlend mode="normal" in="SourceGraphic" in2="effect1_dropShadow_52_2577" result="shape"/>
</filter>
<filter id="filter25_d_52_2577" x="238" y="9" width="32" height="43" filterUnits="userSpaceOnUse" color-interpolation-filters="sRGB">
<feFlood flood-opacity="0" result="BackgroundImageFix"/>
<feColorMatrix in="SourceAlpha" type="matrix" values="0 0 0 0 0 0 0 0 0 0 0 0 0 0 0 0 0 0 127 0" result="hardAlpha"/>
<feOffset dy="1"/>
<feColorMatrix type="matrix" values="0 0 0 0 0.537255 0 0 0 0 0.541176 0 0 0 0 0.552941 0 0 0 1 0"/>
<feBlend mode="normal" in2="BackgroundImageFix" result="effect1_dropShadow_52_2577"/>
<feBlend mode="normal" in="SourceGraphic" in2="effect1_dropShadow_52_2577" result="shape"/>
</filter>
<filter id="filter26_d_52_2577" x="198" y="9" width="33" height="43" filterUnits="userSpaceOnUse" color-interpolation-filters="sRGB">
<feFlood flood-opacity="0" result="BackgroundImageFix"/>
<feColorMatrix in="SourceAlpha" type="matrix" values="0 0 0 0 0 0 0 0 0 0 0 0 0 0 0 0 0 0 127 0" result="hardAlpha"/>
<feOffset dy="1"/>
<feColorMatrix type="matrix" values="0 0 0 0 0.537255 0 0 0 0 0.541176 0 0 0 0 0.552941 0 0 0 1 0"/>
<feBlend mode="normal" in2="BackgroundImageFix" result="effect1_dropShadow_52_2577"/>
<feBlend mode="normal" in="SourceGraphic" in2="effect1_dropShadow_52_2577" result="shape"/>
</filter>
<filter id="filter27_d_52_2577" x="159" y="9" width="33" height="43" filterUnits="userSpaceOnUse" color-interpolation-filters="sRGB">
<feFlood flood-opacity="0" result="BackgroundImageFix"/>
<feColorMatrix in="SourceAlpha" type="matrix" values="0 0 0 0 0 0 0 0 0 0 0 0 0 0 0 0 0 0 127 0" result="hardAlpha"/>
<feOffset dy="1"/>
<feColorMatrix type="matrix" values="0 0 0 0 0.537255 0 0 0 0 0.541176 0 0 0 0 0.552941 0 0 0 1 0"/>
<feBlend mode="normal" in2="BackgroundImageFix" result="effect1_dropShadow_52_2577"/>
<feBlend mode="normal" in="SourceGraphic" in2="effect1_dropShadow_52_2577" result="shape"/>
</filter>
<filter id="filter28_d_52_2577" x="120" y="9" width="33" height="43" filterUnits="userSpaceOnUse" color-interpolation-filters="sRGB">
<feFlood flood-opacity="0" result="BackgroundImageFix"/>
<feColorMatrix in="SourceAlpha" type="matrix" values="0 0 0 0 0 0 0 0 0 0 0 0 0 0 0 0 0 0 127 0" result="hardAlpha"/>
<feOffset dy="1"/>
<feColorMatrix type="matrix" values="0 0 0 0 0.537255 0 0 0 0 0.541176 0 0 0 0 0.552941 0 0 0 1 0"/>
<feBlend mode="normal" in2="BackgroundImageFix" result="effect1_dropShadow_52_2577"/>
<feBlend mode="normal" in="SourceGraphic" in2="effect1_dropShadow_52_2577" result="shape"/>
</filter>
<filter id="filter29_d_52_2577" x="81" y="9" width="33" height="43" filterUnits="userSpaceOnUse" color-interpolation-filters="sRGB">
<feFlood flood-opacity="0" result="BackgroundImageFix"/>
<feColorMatrix in="SourceAlpha" type="matrix" values="0 0 0 0 0 0 0 0 0 0 0 0 0 0 0 0 0 0 127 0" result="hardAlpha"/>
<feOffset dy="1"/>
<feColorMatrix type="matrix" values="0 0 0 0 0.537255 0 0 0 0 0.541176 0 0 0 0 0.552941 0 0 0 1 0"/>
<feBlend mode="normal" in2="BackgroundImageFix" result="effect1_dropShadow_52_2577"/>
<feBlend mode="normal" in="SourceGraphic" in2="effect1_dropShadow_52_2577" result="shape"/>
</filter>
<filter id="filter30_d_52_2577" x="42" y="9" width="33" height="43" filterUnits="userSpaceOnUse" color-interpolation-filters="sRGB">
<feFlood flood-opacity="0" result="BackgroundImageFix"/>
<feColorMatrix in="SourceAlpha" type="matrix" values="0 0 0 0 0 0 0 0 0 0 0 0 0 0 0 0 0 0 127 0" result="hardAlpha"/>
<feOffset dy="1"/>
<feColorMatrix type="matrix" values="0 0 0 0 0.537255 0 0 0 0 0.541176 0 0 0 0 0.552941 0 0 0 1 0"/>
<feBlend mode="normal" in2="BackgroundImageFix" result="effect1_dropShadow_52_2577"/>
<feBlend mode="normal" in="SourceGraphic" in2="effect1_dropShadow_52_2577" result="shape"/>
</filter>
<filter id="filter31_d_52_2577" x="3" y="9" width="33" height="43" filterUnits="userSpaceOnUse" color-interpolation-filters="sRGB">
<feFlood flood-opacity="0" result="BackgroundImageFix"/>
<feColorMatrix in="SourceAlpha" type="matrix" values="0 0 0 0 0 0 0 0 0 0 0 0 0 0 0 0 0 0 127 0" result="hardAlpha"/>
<feOffset dy="1"/>
<feColorMatrix type="matrix" values="0 0 0 0 0.537255 0 0 0 0 0.541176 0 0 0 0 0.552941 0 0 0 1 0"/>
<feBlend mode="normal" in2="BackgroundImageFix" result="effect1_dropShadow_52_2577"/>
<feBlend mode="normal" in="SourceGraphic" in2="effect1_dropShadow_52_2577" result="shape"/>
</filter>
<clipPath id="clip0_52_2577">
<rect width="44" height="42" fill="white" transform="translate(343 117)"/>
</clipPath>
<clipPath id="clip1_52_2577">
<rect width="44" height="42" fill="white" transform="translate(3 117)"/>
</clipPath>
</defs>
</svg>
