<svg width="255" height="104" viewBox="0 0 255 104" fill="none" xmlns="http://www.w3.org/2000/svg">
<g clip-path="url(#clip0_406_12911)">
<path d="M36.1488 5.72894C35.8756 6.43369 35.352 6.87701 34.5894 7.03615C33.8269 7.19528 33.383 6.92247 33.2805 6.21772C33.3374 5.61527 33.0984 4.93324 32.5862 4.17165C32.0627 3.41006 31.5049 3.02358 30.9017 3.02358C27.7375 3.08042 24.8807 3.72834 22.3425 4.99008C19.8044 6.25182 17.5166 7.83184 15.502 9.7415C13.476 11.6512 11.7346 13.7768 10.2549 16.1298C8.7753 18.4714 7.56882 20.7789 6.61274 23.0409C5.65666 25.303 4.95098 27.4172 4.48433 29.3837C4.01767 31.3502 3.79003 32.9075 3.79003 34.0442C3.79003 35.1809 3.93799 36.3176 4.24531 37.6021C4.54124 38.8866 5.11033 39.9323 5.92983 40.7508C6.86314 41.626 7.93304 41.9216 9.16229 41.6488C10.3915 41.376 11.6322 40.7508 12.8955 39.7618C14.1476 38.7843 15.4223 37.568 16.7085 36.1244C17.9946 34.6808 19.1784 33.2144 20.271 31.7481C21.3637 30.2704 22.3198 28.9063 23.1393 27.6559C23.9587 26.4056 24.562 25.4962 24.9376 24.9506C26.0872 23.2569 27.0091 21.5632 27.7262 19.8809C28.4318 18.1872 29.2513 16.4481 30.1846 14.6407C31.0041 13.9814 31.8123 13.7768 32.5976 14.0269C33.3943 14.2769 33.9521 14.9135 34.2821 15.9479V16.6072L34.2025 17.346C33.1098 21.1085 32.1423 24.9279 31.2887 28.804C30.435 32.6802 29.5814 36.5791 28.705 40.5121C30.2871 39.4208 31.9033 38.3978 33.5423 37.443C35.1813 36.4881 37.0707 35.4651 39.1991 34.3739C39.5861 34.2602 39.9389 34.2829 40.269 34.4193C40.5991 34.5557 40.8153 34.749 40.9292 34.9877C41.043 35.2378 41.0544 35.5106 40.9747 35.8061C40.895 36.1017 40.656 36.3631 40.2804 36.5791C37.6626 37.9431 35.4089 39.2503 33.5195 40.5121C31.6301 41.7738 29.7408 43.1606 27.8286 44.6838C27.4416 46.207 27.066 47.7074 26.679 49.1851C26.292 50.6628 25.8823 52.1292 25.4498 53.6069C25.1766 54.5845 24.7669 55.9371 24.2205 57.6536C23.6742 59.37 23.0368 61.1319 22.297 62.9279C21.5572 64.7239 20.7491 66.4289 19.884 68.043C19.0076 69.6572 18.1085 70.8393 17.1751 71.6009C16.6857 71.976 16.2418 72.3398 15.8662 72.6694C15.4792 72.9991 15.115 73.2946 14.7622 73.5674C14.4093 73.8402 14.011 74.113 13.5785 74.3858C13.1459 74.6586 12.6224 74.9087 12.0191 75.1247C10.0501 75.8863 8.22897 76.1477 6.56721 75.8976C4.90546 75.6476 3.53963 75.0679 2.46973 74.1358C1.39983 73.2037 0.716918 71.976 0.420989 70.4528C0.125059 68.9297 0.352697 67.236 1.11528 65.3831C1.71852 63.8031 2.61769 62.405 3.82418 61.2114C5.01927 60.0065 6.16885 58.8926 7.26151 57.8582C9.28749 56.0053 11.3818 54.107 13.5671 52.1746C15.7524 50.2309 17.915 48.4804 20.0434 46.9003C20.6466 46.4684 21.1816 46.0592 21.6368 45.6727C22.1035 45.2976 22.5815 44.9338 23.071 44.6042L23.7311 41.8988L25.6205 31.9186L25.2108 32.4869C24.2319 33.851 23.1734 35.306 22.058 36.8632C20.9425 38.4205 19.6905 39.8528 18.3247 41.16C16.9589 42.4672 15.4679 43.5471 13.863 44.3882C12.2468 45.2408 10.4598 45.6613 8.49075 45.6613C7.18184 45.6613 5.98674 45.2294 4.92822 44.3541C3.85832 43.4789 2.95915 42.4331 2.21933 41.2055C1.47951 39.9778 0.921792 38.6706 0.534808 37.2725C0.147823 35.8857 -0.0115235 34.6353 0.045386 33.5441C0.159205 29.9976 0.955938 26.2692 2.45835 22.3703C3.96076 18.4714 6.03226 14.8908 8.68425 11.6512C11.3362 8.40019 14.5118 5.71757 18.2337 3.59193C21.9442 1.4663 26.0985 0.431897 30.6854 0.477366C31.5619 0.477366 32.3927 0.625137 33.1895 0.932047C33.9862 1.22759 34.635 1.62544 35.1585 2.11422C35.6821 2.603 36.0349 3.15999 36.2284 3.79654C36.4219 4.42173 36.4105 5.06965 36.1829 5.71757L36.1488 5.72894ZM18.1995 60.8136C18.9052 59.0631 19.5767 57.2102 20.2027 55.2437C20.8287 53.2772 21.3864 51.3107 21.8872 49.3556C21.8303 49.3556 21.8076 49.3784 21.8076 49.4352C20.9881 50.0945 20.0434 50.8788 18.9849 51.8109C17.915 52.743 16.8451 53.7206 15.7524 54.755C14.6597 55.7894 13.5898 56.801 12.5541 57.7786C11.5183 58.7562 10.585 59.6314 9.76553 60.393C8.88912 61.2683 8.25173 61.9162 7.84199 62.3595C7.43224 62.7915 7.09078 63.1893 6.81761 63.5417C6.54445 63.8941 6.27128 64.3146 5.99812 64.8148C5.72495 65.3036 5.29244 66.0424 4.6892 67.02C4.41603 67.4519 4.23392 68.134 4.15425 69.0661C4.07458 69.9982 4.08596 70.6802 4.19978 71.1121C4.96237 71.7714 5.85015 72.0101 6.86314 71.851C7.87613 71.6918 8.84359 71.4645 9.77691 71.1917C10.8127 70.8621 11.7687 70.2937 12.6451 69.4753C13.5216 68.6568 14.3069 67.7475 15.024 66.7358C15.7296 65.7242 16.3556 64.6898 16.9134 63.6213C17.4597 62.5527 17.8922 61.6207 18.2223 60.8022L18.1995 60.8136ZM42.2153 20.8698C42.5454 20.7562 42.9096 20.8016 43.3194 20.9949C43.7291 21.1881 44.0933 21.4268 44.4234 21.7337C44.7535 22.0406 45.0266 22.3703 45.2429 22.7568C45.4592 23.1432 45.573 23.4388 45.573 23.6548C45.6299 23.8139 45.5616 24.0753 45.3681 24.4277C45.1746 24.7801 45.0039 25.0984 44.8331 25.3712C44.4462 26.1328 44.0933 26.8716 43.7633 27.5764C43.4332 28.2811 43.1372 28.9973 42.8641 29.702C43.2966 29.0996 43.8202 28.4289 44.4234 27.7014C45.0266 26.9626 45.6982 26.2919 46.4266 25.7008C47.1664 25.0984 47.929 24.5982 48.7258 24.189C49.5225 23.7798 50.3534 23.5979 51.2298 23.6548C52.2086 23.7116 53.0053 24.0071 53.6086 24.5527C54.2118 25.0984 54.5078 26.0305 54.5078 27.3377C54.5078 29.0882 54.1208 30.6455 53.3582 31.9982C52.5956 33.3622 51.059 34.5103 48.7713 35.431C47.6217 35.9766 46.199 36.3858 44.5145 36.6586C43.8088 36.3858 43.4901 36.0903 43.5698 35.7606C43.6494 35.431 43.7519 35.215 43.8543 35.1014L45.6526 34.1238C46.9047 33.4645 47.7924 32.7484 48.316 31.9527C48.8396 31.157 49.2038 30.4636 49.4201 29.8612C49.6363 29.2019 49.716 28.5767 49.6705 27.9742C49.5566 27.6446 49.3859 27.4513 49.1355 27.4059C48.8851 27.349 48.7144 27.349 48.6006 27.4059C48.2705 27.565 47.8607 27.8151 47.3713 28.1447C46.8819 28.4744 46.29 29.02 45.6071 29.7816C44.9242 30.5432 44.1161 31.5662 43.1942 32.8507C42.2608 34.1352 41.2251 35.7834 40.0755 37.8067C39.8023 38.7843 39.5519 39.7732 39.3357 40.7508C39.1194 41.7283 38.9259 42.7173 38.7666 43.6948C38.5503 44.8429 38.63 46.0933 39.017 47.4573C39.0739 47.787 39.0056 48.0257 38.8121 48.1962C38.6186 48.3553 38.3796 48.4463 38.0723 48.4463C37.765 48.4463 37.4463 48.3667 37.0935 48.1962C36.7406 48.037 36.4561 47.8097 36.2284 47.5369C36.0691 47.1049 35.9325 46.7412 35.8187 46.4684C35.7049 46.1956 35.6252 45.9455 35.5683 45.7295C35.5114 45.5136 35.5 45.2749 35.5228 45.0361C35.5455 44.7974 35.5683 44.4792 35.5683 44.0927C35.7845 40.1142 36.5471 36.0903 37.8674 32.0209C39.1763 27.9515 40.6218 24.2345 42.2153 20.8471V20.8698ZM71.9562 33.8851C71.8993 34.4875 71.8424 34.9991 71.7969 35.4424C71.74 35.8743 71.6603 36.2722 71.5465 36.6245C71.4326 36.9769 71.3074 37.352 71.1822 37.7271C71.0457 38.1136 70.8977 38.5683 70.727 39.1139C69.9644 40.478 69.1676 41.5806 68.3481 42.4331C67.5286 43.2856 66.7205 43.9449 65.9352 44.4337C65.1385 44.9225 64.41 45.2635 63.7271 45.4567C63.0442 45.65 62.5092 45.775 62.1336 45.8205C62.0198 45.8205 61.7466 45.8659 61.3141 45.9455C60.8816 46.0251 60.3694 46.0251 59.8003 45.9455C59.2313 45.8659 58.628 45.6272 58.002 45.2521C57.376 44.8656 56.7841 44.2177 56.2378 43.2856C55.9077 42.74 55.7825 41.717 55.8736 40.2165C55.9533 38.7161 56.272 37.011 56.8183 35.1014C57.0345 34.2261 57.4215 33.1349 57.9679 31.8277C58.3548 30.8956 58.8784 29.8612 59.5613 28.7131C60.2442 27.565 61.041 26.5079 61.9401 25.5189C62.8393 24.53 63.8637 23.7116 65.0133 23.0182C66.1628 22.3362 67.4376 21.9952 68.8603 21.9952C69.4067 21.9952 69.8733 22.1884 70.2489 22.5635C70.6359 22.95 70.8749 23.416 70.9887 23.9503C71.0457 24.064 71.0457 24.2686 70.9887 24.5641C70.9318 24.8597 70.8749 25.1211 70.8294 25.3371C70.5562 26.2692 70.2262 26.6898 69.8506 26.6102C69.4636 26.5306 69.2246 26.3828 69.1107 26.1555C69.1107 25.8259 69.0652 25.5417 68.9855 25.2916C68.9059 25.0415 68.8034 24.9279 68.701 24.9279C68.5416 24.9847 67.9384 25.5644 66.9026 26.6898C65.8669 27.8037 64.797 29.3269 63.7043 31.2366C62.771 32.8734 61.9857 34.5216 61.3255 36.1926C60.6654 37.8635 60.3467 39.4777 60.3467 41.0577C60.3467 41.717 60.4605 42.3422 60.6768 42.9446C60.893 43.5471 61.3369 43.8426 61.9857 43.8426H62.3954C63.7612 43.4675 64.8767 42.8764 65.7531 42.0807C66.6295 41.285 67.3124 40.4439 67.8018 39.5459C68.2912 38.6479 68.6441 37.7499 68.8717 36.8405C69.088 35.9425 69.2245 35.1923 69.2815 34.5898C67.8587 34.7035 66.9026 34.5216 66.4132 34.0556C65.9238 33.5895 65.7076 33.0212 65.7531 32.3392C65.81 31.6571 66.0262 30.9865 66.4132 30.3386C66.7888 29.6793 67.1758 29.1905 67.5628 28.8609C67.836 28.588 68.2343 28.3039 68.7465 27.997C69.2701 27.7014 69.6912 27.5423 70.0213 27.5423C70.727 27.4286 71.2619 27.5991 71.6147 28.0311C71.9676 28.463 72.07 29.236 71.8993 30.3272C72.605 30.1112 73.4472 29.7589 74.4033 29.2587C75.3594 28.7699 75.9171 28.463 76.0878 28.3607C77.0212 27.8151 77.7837 27.3149 78.387 26.8489C78.9902 26.3828 79.6731 25.9395 80.4357 25.4962C81.1983 25.2234 81.5853 25.5189 81.5853 26.3942C81.5853 26.7807 81.4715 27.099 81.2552 27.3718C79.8325 28.9518 78.3301 30.2135 76.748 31.1343C75.1659 32.0664 73.5838 32.9644 71.9904 33.8396L71.9562 33.8851ZM69.6684 30.2022C69.5091 30.043 69.2701 30.1112 68.9742 30.4068C68.6782 30.7023 68.5189 30.941 68.5189 31.1002C68.462 31.373 68.4734 31.5662 68.5644 31.6685C68.6441 31.7822 68.7579 31.8277 68.8945 31.8277C69.0311 31.8277 69.1676 31.8049 69.3042 31.7481C69.4408 31.6912 69.5319 31.6344 69.5888 31.5889C69.7481 31.2593 69.7823 30.7933 69.6684 30.2022ZM88.7559 22.3475C89.0291 22.1884 89.3819 22.1884 89.8258 22.3475C90.2583 22.5067 90.6567 22.7568 91.0095 23.0864C91.3623 23.416 91.6469 23.7798 91.8745 24.189C92.0908 24.5982 92.1249 24.962 91.9542 25.2916C90.7022 27.5309 89.4843 30.0885 88.312 32.9871C87.1397 35.8743 86.4112 39.1026 86.1381 42.6491C87.3332 40.5803 88.6648 38.4092 90.1103 36.1471C91.5558 33.8851 92.9786 31.623 94.3672 29.3496C95.7558 27.0876 97.0533 24.8938 98.2598 22.7568C99.4663 20.6198 100.445 18.6874 101.208 16.9482C101.265 16.6186 101.299 16.3457 101.333 16.1298C101.356 15.9138 101.424 15.6637 101.538 15.3909C101.925 14.7885 102.403 14.5952 102.972 14.8226C103.541 15.0385 103.78 15.4478 103.666 16.0502C103.78 16.323 103.746 16.7322 103.587 17.2778C103.427 17.8235 103.222 18.3918 102.972 18.9943C102.721 19.5967 102.482 20.1423 102.232 20.6311C101.982 21.1199 101.834 21.4495 101.777 21.6087C101.447 22.2111 100.946 23.2228 100.263 24.6323C99.5801 26.0532 98.772 27.6559 97.85 29.4633C96.9167 31.2593 95.9265 33.1462 94.8566 35.1127C93.7867 37.0792 92.7282 38.8752 91.6583 40.5121C90.5884 42.1489 89.5868 43.4902 88.6307 44.5246C87.6746 45.559 86.8437 46.0819 86.1267 46.0819C85.5234 46.1388 84.8633 45.9228 84.1576 45.4226C83.4519 44.9338 82.9853 44.195 82.769 43.2174C82.8828 40.9781 83.1219 38.7161 83.5088 36.4199C82.3593 38.8752 81.278 41.0122 80.2764 42.8423C79.2634 44.6724 78.5122 45.6386 78.0228 45.7523C77.4195 45.8091 76.7708 45.5931 76.0537 45.093C75.348 44.6042 74.8814 43.8653 74.6651 42.8878C74.722 41.035 74.8927 39.148 75.2001 37.2384C75.496 35.3287 75.8943 33.4531 76.3838 31.5889C76.8732 29.7361 77.4764 27.9856 78.1821 26.3487C78.8878 24.7119 79.7073 23.2683 80.6406 22.0065C80.9138 21.8474 81.2666 21.8474 81.7105 22.0065C82.143 22.1657 82.5414 22.4157 82.8942 22.7454C83.2471 23.075 83.5316 23.4388 83.7592 23.848C83.9755 24.2572 84.0096 24.621 83.8389 24.9506C82.5869 27.1899 81.3804 29.6452 80.2309 32.3164C79.0813 34.9877 78.3756 38.1023 78.1024 41.6488C78.9219 40.2279 79.6731 38.9775 80.356 37.8863C81.039 36.795 81.6536 35.772 82.1999 34.8172C82.7463 33.8624 83.2471 32.953 83.7137 32.0777C84.1804 31.2025 84.6243 30.2817 85.0682 29.2928L85.7283 27.9856C86.6047 25.8031 87.6177 23.9162 88.7559 22.3362V22.3475ZM137.186 5.97901C137.402 5.6039 137.778 5.25152 138.29 4.95598C138.813 4.66043 139.337 4.42173 139.883 4.26259C140.43 4.10345 140.885 4.03525 141.238 4.05798C141.591 4.09208 141.716 4.29669 141.602 4.6718C141.659 5.00145 141.716 5.21742 141.761 5.33109C141.648 5.54706 141.568 5.87671 141.511 6.30866C141.397 7.24075 141.226 8.13875 140.976 9.01401C140.726 9.88927 140.475 10.7645 140.202 11.6284C141.625 9.55963 143.127 7.62723 144.709 5.85397C146.291 4.08072 147.873 2.64847 149.467 1.55723C150.719 0.738807 151.937 0.250025 153.109 0.0795194C154.281 -0.0796191 155.499 -4.98591e-05 156.751 0.329594C157.685 0.545568 158.572 1.03435 159.415 1.80731C160.257 2.5689 160.712 3.42143 160.769 4.34216C160.826 5.16058 160.769 6.04721 160.61 7.00204C160.45 7.95687 160.223 8.86624 159.95 9.7415C159.676 10.6168 159.381 11.4238 159.05 12.1513C158.72 12.8902 158.447 13.4472 158.231 13.8336C157.628 14.9249 157.138 15.7888 156.751 16.4139C156.364 17.0391 155.977 17.6189 155.568 18.1304C155.158 18.6533 154.703 19.1761 154.213 19.7218C153.724 20.2674 153.064 21.029 152.244 22.0179C151.208 23.2683 149.968 24.3822 148.511 25.3371C147.065 26.2919 145.552 27.1331 143.958 27.8719C142.376 28.6108 140.771 29.2587 139.166 29.8384C137.55 30.4068 136.07 30.8842 134.705 31.2707C133.999 33.3508 133.236 35.4196 132.451 37.4884C131.654 39.5686 130.869 41.501 130.072 43.297C129.275 45.093 128.501 46.7185 127.739 48.1621C126.976 49.6057 126.259 50.7424 125.61 51.5608L124.95 51.8905C124.518 52.3224 124.074 52.2087 123.641 51.5267C123.209 50.8447 122.936 50.1513 122.822 49.4352C122.822 49.1055 122.936 48.685 123.152 48.1621C123.368 47.6392 123.619 47.0936 123.892 46.5252C124.165 45.9569 124.438 45.4113 124.711 44.8884C124.984 44.3655 125.178 43.9449 125.28 43.6153C126.043 41.5919 126.794 39.6595 127.534 37.8067C128.274 35.9539 128.991 34.067 129.708 32.1573C129.321 32.2141 128.98 32.2482 128.684 32.2823C128.388 32.3051 128.069 32.3278 127.739 32.3278C127.033 32.2141 126.623 31.8618 126.51 31.2593C126.396 30.6568 126.726 30.2476 127.488 30.0317C128.092 29.918 128.638 29.8271 129.127 29.7475C129.617 29.6679 130.14 29.5656 130.687 29.4633C131.29 27.9856 131.848 26.4851 132.371 24.962C132.895 23.4388 133.453 21.8474 134.056 20.2105L135.035 16.9368C135.251 15.9593 135.444 15.1181 135.604 14.4361C135.763 13.7541 135.922 13.1175 136.059 12.5151C136.196 11.9126 136.321 11.2988 136.423 10.6736C136.537 10.0484 136.64 9.27545 136.753 8.34335C136.81 7.91141 136.822 7.50219 136.799 7.11572C136.765 6.7406 136.89 6.35412 137.163 5.96764L137.186 5.97901ZM137.596 22.0975C137.322 23.0296 137.038 23.9844 136.731 24.962C136.435 25.9395 136.116 26.9853 135.786 28.0765C141.135 26.2237 145.358 23.5752 148.443 20.1423C151.527 16.7095 153.917 12.7538 155.613 8.27515C155.727 7.94551 155.886 7.39989 156.103 6.6383C156.319 5.87671 156.433 5.29699 156.433 4.92188C156.433 4.21712 156.171 3.68287 155.659 3.33049C155.135 2.97811 154.714 2.79624 154.384 2.79624C153.997 2.79624 153.553 2.98948 153.029 3.36459C152.506 3.75107 151.982 4.17165 151.436 4.6377C150.89 5.10375 150.412 5.5357 150.002 5.94491L149.228 6.71787C148.295 7.53629 147.316 8.53659 146.28 9.7074C145.244 10.8782 144.208 12.1627 143.161 13.5495C142.126 14.9362 141.113 16.3685 140.134 17.8462C139.155 19.3239 138.301 20.7334 137.596 22.0975ZM164.639 23.8139C165.242 24.3027 165.572 24.8597 165.618 25.4962C165.675 26.1214 165.322 26.326 164.548 26.11C164.115 25.9964 163.683 25.9168 163.273 25.86C162.863 25.8031 162.442 25.86 161.998 26.0191C161.509 26.2351 160.837 26.9057 159.995 28.0197C159.142 29.1337 158.311 30.4295 157.491 31.9072C156.672 33.3849 155.943 34.8968 155.317 36.454C154.691 38.0113 154.35 39.3299 154.293 40.4211C154.293 40.9099 154.35 41.3646 154.452 41.7738C154.566 42.183 154.782 42.3876 155.112 42.3876C155.772 42.3876 156.535 41.9898 157.411 41.2055C158.288 40.4098 159.13 39.4777 159.95 38.3864C160.769 37.2952 161.52 36.1926 162.203 35.0673C162.886 33.9533 163.387 33.0326 163.717 32.3278C163.831 32.055 163.911 31.8277 163.967 31.6344C164.024 31.4412 164.127 31.2707 164.298 31.1002L164.377 31.0206C164.764 30.4181 165.14 30.0203 165.527 29.8384C165.914 29.6452 166.267 29.6111 166.597 29.7134C166.927 29.8271 167.2 30.1112 167.416 30.5773C167.632 31.0433 167.712 31.623 167.667 32.3392C167.393 33.3736 167.189 34.4421 167.052 35.5333C166.915 36.6245 166.79 37.9886 166.688 39.6254C166.574 41.7511 166.745 42.8764 167.177 42.9787C167.723 43.1379 168.27 43.0924 168.816 42.8196C170.239 42.1148 171.536 41.0918 172.709 39.7505C173.881 38.4092 174.905 37.0679 175.782 35.7038C176.214 34.9991 176.67 34.192 177.136 33.294C177.603 32.396 178.138 31.6458 178.73 31.0433C179.06 30.7705 179.333 30.6909 179.549 30.7933C179.766 30.9069 179.925 31.1115 180.039 31.4071C180.153 31.7026 180.221 32.0664 180.244 32.4756C180.266 32.8848 180.255 33.2485 180.198 33.5782C180.198 33.635 180.118 33.8169 179.948 34.1124C179.788 34.408 179.595 34.749 179.379 35.1355C179.162 35.5219 178.946 35.8857 178.718 36.2381C178.502 36.5904 178.366 36.8519 178.309 37.011C177.876 37.7158 177.398 38.4774 176.875 39.2617C176.351 40.0574 175.793 40.8417 175.19 41.6374C174.587 42.4331 173.961 43.1606 173.301 43.8426C172.64 44.5246 171.958 45.1157 171.252 45.6045C170.649 46.0364 169.943 46.3547 169.123 46.548C168.304 46.7412 167.507 46.7753 166.745 46.673C165.925 46.6162 165.311 46.3093 164.901 45.7295C164.491 45.1612 164.206 44.4451 164.036 43.6039C163.876 42.7627 163.82 41.7738 163.876 40.6598C163.933 39.5459 164.036 38.3864 164.206 37.1815C163.774 38.2159 163.171 39.2958 162.408 40.4098C161.646 41.5237 160.792 42.5354 159.87 43.4334C158.937 44.3314 157.935 45.0589 156.842 45.6045C155.75 46.1501 154.657 46.3661 153.564 46.2638C152.631 46.1501 151.868 45.6386 151.265 44.7065C150.662 43.7744 150.389 42.3081 150.446 40.2847C150.446 39.1367 150.708 37.784 151.22 36.2381C151.743 34.6808 152.403 33.1235 153.223 31.5776C154.042 30.0203 154.976 28.5767 156.012 27.2354C157.047 25.8941 158.117 24.871 159.21 24.1663C159.699 23.8366 160.234 23.6093 160.803 23.4729C161.372 23.3365 161.941 23.2683 162.488 23.2683C163.467 23.2683 164.184 23.4615 164.616 23.8366L164.639 23.8139ZM181.769 23.4047C182.201 22.3134 182.543 21.4041 182.793 20.6652C183.044 19.9264 183.191 19.5058 183.248 19.3921C184.341 16.2775 185.411 13.72 186.447 11.6966C187.482 9.6733 188.473 8.08191 189.395 6.91111C190.328 5.7403 191.17 4.92188 191.933 4.45583C192.695 3.98978 193.356 3.78517 193.902 3.84201C195.051 3.84201 195.757 4.25122 196.03 5.06965C196.303 5.88807 196.224 6.76334 195.78 7.68407L195.529 8.34335C195.256 9.04811 194.824 9.93474 194.221 11.0032C193.617 12.0717 192.912 13.2312 192.092 14.4816C191.273 15.7319 190.373 17.0619 189.383 18.4486C188.404 19.8354 187.414 21.2222 186.435 22.5863L183.726 31.0206C183.453 31.9982 183.169 32.9757 182.861 33.9306C182.565 34.8854 182.361 35.8288 182.247 36.7496C182.19 37.0224 182.122 37.5794 182.042 38.4319C181.962 39.2844 181.917 40.1483 181.917 41.0463C181.917 41.9443 182.008 42.7627 182.201 43.5016C182.395 44.2405 182.759 44.6042 183.305 44.6042C183.852 44.6042 184.626 44.0586 185.639 42.9673C186.652 41.8761 187.699 40.5916 188.791 39.1253C189.884 37.6476 190.908 36.1812 191.865 34.7035C192.821 33.2258 193.515 32.1118 193.959 31.3502L194.369 30.941C194.482 30.8274 194.562 30.7819 194.619 30.7819C194.733 30.7819 194.778 30.8046 194.778 30.8615C194.778 30.9183 194.835 30.9979 194.938 31.1115C195.154 31.5435 195.256 31.9982 195.222 32.4642C195.199 32.9303 195.131 33.3736 195.017 33.8169C194.858 34.2488 194.63 34.658 194.357 35.0445C193.97 35.7038 193.481 36.4768 192.877 37.3748C192.274 38.2728 191.637 39.1935 190.954 40.1142C190.271 41.0463 189.588 41.9329 188.905 42.7741C188.222 43.6153 187.608 44.32 187.061 44.8656C186.458 45.4681 185.843 45.8773 185.217 46.0933C184.591 46.3093 184 46.4229 183.453 46.4229C182.907 46.4229 182.304 46.3434 181.655 46.1728L180.346 45.434C179.97 45.1612 179.572 44.877 179.162 44.5701C178.753 44.2746 178.354 43.8426 177.979 43.297C177.705 42.9219 177.523 42.3535 177.444 41.6147C177.364 40.8758 177.318 40.1256 177.318 39.364C177.318 39.148 177.33 38.7843 177.364 38.2614C177.398 37.7385 177.546 36.9087 177.819 35.7606C178.092 34.6126 178.525 33.0553 179.128 31.1002C179.731 29.1337 180.608 26.5761 181.746 23.4047H181.769ZM192.991 6.62693C192.445 7.05888 191.762 8.28652 190.943 10.3099C190.123 12.3332 189.247 14.6521 188.325 17.2665C189.36 15.7888 190.294 14.4247 191.113 13.1743C191.933 11.924 192.604 10.81 193.117 9.85517C193.64 8.90034 193.947 8.12738 194.061 7.52493C194.175 6.92247 194.027 6.54736 193.651 6.37686C193.378 6.37686 193.162 6.45643 192.991 6.62693ZM198.238 39.6141C197.851 39.7277 197.43 39.8528 196.964 39.9778C196.497 40.1142 196.053 40.2165 195.609 40.262C195.45 40.9213 195.461 41.6147 195.655 42.3535C195.848 43.0924 196.349 43.5357 197.168 43.7062C198.534 43.7062 199.911 43.4561 201.311 42.9673C202.7 42.4786 204.055 41.7965 205.363 40.9213C206.672 40.046 207.936 39.0344 209.131 37.8976C210.326 36.7496 211.396 35.5219 212.329 34.2147C212.989 33.7828 213.536 33.76 213.968 34.1693C214.401 34.5785 214.401 35.1127 213.968 35.7606C213.092 36.9655 211.999 38.2273 210.69 39.5686C209.381 40.9099 207.958 42.1376 206.433 43.2515C204.908 44.3655 203.303 45.2862 201.642 45.991C199.98 46.6957 198.375 47.0026 196.85 46.889C195.427 46.889 194.255 46.4116 193.321 45.4567C192.388 44.5019 191.899 43.2288 191.842 41.6488C191.785 40.4439 191.921 39.1253 192.251 37.6817C192.582 36.2381 193.06 34.7944 193.686 33.3395C194.312 31.8959 195.04 30.4977 195.86 29.1678C196.679 27.8265 197.544 26.6556 198.443 25.644C199.342 24.6323 200.264 23.848 201.186 23.2683C202.12 22.6999 203.019 22.4612 203.895 22.5749C204.715 22.6886 205.386 22.9386 205.898 23.3478C206.422 23.7571 206.832 24.2572 207.128 24.8597C207.424 25.4621 207.617 26.0987 207.697 26.7807C207.776 27.4627 207.788 28.0765 207.742 28.6221C207.31 31.3502 206.308 33.6918 204.749 35.6583C203.189 37.6248 201.016 38.932 198.238 39.5913V39.6141ZM204.385 27.906C204.385 27.7924 204.373 27.4854 204.339 26.9626C204.305 26.4397 204.134 26.1896 203.804 26.1896C203.531 26.1896 203.11 26.4397 202.529 26.9285C201.96 27.4172 201.346 28.2357 200.685 29.3837C199.65 31.0206 198.785 32.5097 198.102 33.8396C197.419 35.1809 196.884 36.3972 196.508 37.4771C197.271 37.3179 197.954 37.102 198.557 36.8178C199.16 36.545 199.877 36.113 200.731 35.5106C201.573 34.9081 202.302 34.067 202.905 32.9757C203.337 32.2141 203.702 31.3957 203.975 30.5204C204.248 29.6452 204.385 28.7699 204.385 27.906ZM223.893 6.7065C224.223 6.59283 224.599 6.58146 225.043 6.66103C225.475 6.7406 225.885 6.88837 226.272 7.11572C226.648 7.33169 226.966 7.58176 227.217 7.85457C227.467 8.12738 227.558 8.37746 227.501 8.59343C227.501 8.75257 227.376 9.01401 227.137 9.36639C226.887 9.71877 226.716 10.037 226.602 10.3099C226.329 10.7418 226.044 11.2419 225.737 11.7876C225.441 12.3332 225.145 12.9015 224.872 13.504C226.887 13.2312 228.924 13.0266 230.973 12.8902C233.021 12.7538 235.025 12.6856 236.994 12.6856H238.268C238.678 12.6856 239.077 12.7083 239.452 12.7651C240.545 12.8788 241.592 13.1289 242.605 13.5381C243.618 13.9473 244.198 14.4475 244.369 15.0499C244.483 15.4819 244.426 15.8115 244.21 16.0275C243.994 16.2434 243.743 16.4139 243.47 16.5163C243.197 16.6299 242.867 16.6413 242.491 16.5617C242.104 16.4822 241.592 16.3798 240.932 16.2775C240.272 16.1639 239.498 16.0616 238.599 15.9479C237.699 15.8342 236.641 15.8115 235.446 15.8683C233.147 15.982 230.961 16.107 228.89 16.2321C226.818 16.3685 224.952 16.5504 223.313 16.7663L222.163 19.4717C221.287 21.711 220.388 23.8594 219.454 25.9395C218.521 28.0197 217.679 30.0544 216.916 32.0777C216.153 34.1011 215.505 36.1471 214.993 38.2159C214.469 40.2847 214.184 42.4217 214.127 44.6042C214.071 45.9682 214.378 47.2755 215.027 48.5372C215.3 49.242 215.152 49.7648 214.571 50.0945C214.002 50.4241 213.467 50.3105 212.978 49.7648C212.045 48.2871 211.498 46.7412 211.339 45.1044C211.123 42.9787 211.202 40.7621 211.589 38.4774C211.976 36.1926 212.534 33.851 213.274 31.4753C214.014 29.0996 214.822 26.758 215.687 24.4391C216.563 22.1202 217.383 19.8468 218.145 17.6075C216.723 17.8803 215.391 18.1758 214.127 18.5055C212.875 18.8351 211.373 19.1079 209.62 19.3239C209.461 19.2102 209.256 19.0511 209.006 18.8351C208.755 18.6192 208.585 18.4032 208.471 18.1758C208.357 17.9599 208.323 17.7553 208.345 17.562C208.38 17.3688 208.607 17.221 209.04 17.1073C210.679 16.5617 212.363 16.0616 214.082 15.5955C215.801 15.1295 217.565 14.7316 219.363 14.4134C219.636 13.7086 219.944 12.9243 220.308 12.0831C220.661 11.2419 221.048 10.4463 221.457 9.7074C221.867 8.96854 222.277 8.33199 222.687 7.78637C223.096 7.24075 223.495 6.88837 223.87 6.71787L223.893 6.7065ZM234.467 6.7065C234.797 6.59283 235.173 6.58146 235.617 6.66103C236.049 6.7406 236.459 6.88837 236.846 7.11572C237.221 7.33169 237.54 7.58176 237.79 7.85457C238.041 8.12738 238.132 8.37746 238.075 8.59343C238.075 8.75257 237.95 9.01401 237.711 9.36639C237.46 9.71877 237.29 10.037 237.176 10.3099C236.903 10.7418 236.618 11.2419 236.311 11.7876C236.015 12.3332 235.719 12.9015 235.446 13.504C237.46 13.2312 239.498 13.0266 241.546 12.8902C243.595 12.7538 245.598 12.6856 247.567 12.6856H248.842C249.252 12.6856 249.65 12.7083 250.026 12.7651C251.119 12.8788 252.166 13.1289 253.179 13.5381C254.192 13.9473 254.772 14.4475 254.943 15.0499C255.057 15.4819 255 15.8115 254.784 16.0275C254.567 16.2434 254.317 16.4139 254.044 16.5163C253.771 16.6299 253.441 16.6413 253.065 16.5617C252.678 16.4822 252.166 16.3798 251.506 16.2775C250.845 16.1639 250.072 16.0616 249.172 15.9479C248.273 15.8342 247.215 15.8115 246.02 15.8683C243.72 15.982 241.535 16.107 239.464 16.2321C237.392 16.3685 235.525 16.5504 233.886 16.7663L232.737 19.4717C231.86 21.711 230.961 23.8594 230.028 25.9395C229.095 28.0197 228.252 30.0544 227.49 32.0777C226.727 34.1011 226.078 36.1471 225.566 38.2159C225.043 40.2847 224.758 42.4217 224.701 44.6042C224.644 45.9682 224.952 47.2755 225.6 48.5372C225.874 49.242 225.726 49.7648 225.145 50.0945C224.576 50.4241 224.041 50.3105 223.552 49.7648C222.618 48.2871 222.072 46.7412 221.913 45.1044C221.696 42.9787 221.776 40.7621 222.163 38.4774C222.55 36.1926 223.108 33.851 223.848 31.4753C224.587 29.0996 225.396 26.758 226.261 24.4391C227.137 22.1202 227.956 19.8468 228.719 17.6075C227.296 17.8803 225.965 18.1758 224.701 18.5055C223.449 18.8351 221.947 19.1079 220.194 19.3239C220.035 19.2102 219.83 19.0511 219.579 18.8351C219.329 18.6192 219.158 18.4032 219.044 18.1758C218.931 17.9599 218.896 17.7553 218.919 17.562C218.953 17.3688 219.181 17.221 219.614 17.1073C221.253 16.5617 222.937 16.0616 224.656 15.5955C226.374 15.1295 228.139 14.7316 229.937 14.4134C230.21 13.7086 230.517 12.9243 230.882 12.0831C231.234 11.2419 231.621 10.4463 232.031 9.7074C232.441 8.96854 232.851 8.33199 233.26 7.78637C233.67 7.24075 234.069 6.88837 234.444 6.71787L234.467 6.7065ZM238.064 39.6141C237.677 39.7277 237.255 39.8528 236.789 39.9778C236.322 40.1142 235.878 40.2165 235.434 40.262C235.275 40.9213 235.286 41.6147 235.48 42.3535C235.673 43.0924 236.174 43.5357 236.994 43.7062C238.36 43.7062 239.737 43.4561 241.137 42.9673C242.525 42.4786 243.88 41.7965 245.189 40.9213C246.498 40.046 247.761 39.0344 248.956 37.8976C250.151 36.7496 251.221 35.5219 252.154 34.2147C252.815 33.7828 253.361 33.76 253.793 34.1693C254.226 34.5785 254.226 35.1127 253.793 35.7606C252.917 36.9655 251.824 38.2273 250.515 39.5686C249.206 40.9099 247.784 42.1376 246.259 43.2515C244.733 44.3655 243.129 45.2862 241.467 45.991C239.805 46.6957 238.2 47.0026 236.675 46.889C235.252 46.889 234.08 46.4116 233.147 45.4567C232.213 44.5019 231.724 43.2288 231.667 41.6488C231.61 40.4439 231.747 39.1253 232.077 37.6817C232.407 36.2381 232.885 34.7944 233.511 33.3395C234.137 31.8959 234.865 30.4977 235.685 29.1678C236.504 27.8265 237.369 26.6556 238.268 25.644C239.168 24.6323 240.09 23.848 241.012 23.2683C241.945 22.6999 242.844 22.4612 243.72 22.5749C244.54 22.6886 245.211 22.9386 245.724 23.3478C246.247 23.7571 246.657 24.2572 246.953 24.8597C247.249 25.4621 247.442 26.0987 247.522 26.7807C247.602 27.4627 247.613 28.0765 247.567 28.6221C247.135 31.3502 246.133 33.6918 244.574 35.6583C243.015 37.6248 240.841 38.932 238.064 39.5913V39.6141ZM244.21 27.906C244.21 27.7924 244.198 27.4854 244.164 26.9626C244.13 26.4397 243.959 26.1896 243.629 26.1896C243.356 26.1896 242.935 26.4397 242.355 26.9285C241.785 27.4172 241.171 28.2357 240.511 29.3837C239.475 31.0206 238.61 32.5097 237.927 33.8396C237.244 35.1809 236.709 36.3972 236.334 37.4771C237.096 37.3179 237.779 37.102 238.382 36.8178C238.986 36.545 239.703 36.113 240.556 35.5106C241.399 34.9081 242.127 34.067 242.73 32.9757C243.163 32.2141 243.527 31.3957 243.8 30.5204C244.073 29.6452 244.21 28.7699 244.21 27.906Z" fill="url(#paint0_linear_406_12911)"/>
</g>
<path d="M54.912 89.436H56.074V102.092H54.912V89.436ZM51.202 90.794H52.35C52.35 94.462 50.698 97.668 46.47 99.74L45.854 98.802C49.508 97.038 51.202 94.35 51.202 90.99V90.794ZM46.428 90.794H51.706V91.746H46.428V90.794ZM58.5649 96.394H70.0449V97.346H58.5649V96.394ZM60.0209 89.758H68.5609V92.824H61.1969V94.532H60.0489V91.97H67.4269V90.668H60.0209V89.758ZM60.0489 94.154H68.8409V95.064H60.0489V94.154ZM63.7169 94.63H64.8789V96.87H63.7169V94.63ZM59.8389 98.312H68.6449V101.98H67.4829V99.264H59.8389V98.312ZM77.1698 90.234C79.8018 90.234 81.7618 91.634 81.7618 93.734C81.7618 95.848 79.8018 97.234 77.1698 97.234C74.5378 97.234 72.5638 95.848 72.5638 93.734C72.5638 91.634 74.5378 90.234 77.1698 90.234ZM77.1698 91.186C75.1678 91.186 73.6838 92.208 73.6838 93.734C73.6838 95.246 75.1678 96.282 77.1698 96.282C79.1718 96.282 80.6558 95.246 80.6558 93.734C80.6558 92.208 79.1718 91.186 77.1698 91.186ZM71.4578 99.446H82.9238V100.426H71.4578V99.446ZM84.3367 99.572H95.8027V100.538H84.3367V99.572ZM89.4607 96.856H90.6227V99.978H89.4607V96.856ZM85.7227 90.374H94.3887V94.21H86.9127V96.744H85.7647V93.272H93.2407V91.312H85.7227V90.374ZM85.7647 96.254H94.6827V97.206H85.7647V96.254ZM104.02 90.528H104.972V92.796C104.972 95.708 103.404 98.41 101.332 99.46L100.618 98.508C102.494 97.612 104.02 95.19 104.02 92.796V90.528ZM104.216 90.528H105.168V92.796C105.168 95.106 106.68 97.43 108.556 98.298L107.856 99.222C105.798 98.214 104.216 95.61 104.216 92.796V90.528ZM109.872 89.422H111.034V102.106H109.872V89.422ZM116.675 90.738H117.627V91.76C117.627 94.084 116.227 96.016 114.113 96.772L113.497 95.862C115.415 95.19 116.675 93.566 116.675 91.76V90.738ZM116.885 90.738H117.837V91.746C117.837 93.426 119.055 94.98 120.917 95.61L120.315 96.52C118.229 95.792 116.885 93.93 116.885 91.746V90.738ZM113.861 90.318H120.623V91.27H113.861V90.318ZM122.219 89.436H123.381V97.052H122.219V89.436ZM123.059 92.768H125.257V93.734H123.059V92.768ZM115.163 97.724H123.381V102.092H122.219V98.69H115.163V97.724ZM135.014 89.436H136.176V102.092H135.014V89.436ZM135.896 94.63H138.248V95.61H135.896V94.63ZM126.376 91.452H133.838V92.404H126.376V91.452ZM130.156 93.454C131.948 93.454 133.236 94.658 133.236 96.366C133.236 98.074 131.948 99.278 130.156 99.278C128.378 99.278 127.076 98.074 127.076 96.366C127.076 94.658 128.378 93.454 130.156 93.454ZM130.156 94.42C129.008 94.42 128.182 95.218 128.182 96.366C128.182 97.5 129.008 98.312 130.156 98.312C131.304 98.312 132.13 97.5 132.13 96.366C132.13 95.218 131.304 94.42 130.156 94.42ZM129.554 89.59H130.716V91.886H129.554V89.59ZM140.865 93.23H149.461V94.182H140.865V93.23ZM139.311 95.876H150.791V96.828H139.311V95.876ZM140.865 89.898H142.013V93.706H140.865V89.898ZM140.781 100.832H149.531V101.784H140.781V100.832ZM140.781 98.088H141.929V101.084H140.781V98.088ZM159.037 90.822H160.003V92.11C160.003 94.434 158.575 96.38 156.447 97.15L155.845 96.226C157.749 95.554 159.037 93.916 159.037 92.11V90.822ZM159.261 90.822H160.227V92.11C160.227 93.818 161.543 95.358 163.419 95.988L162.817 96.898C160.717 96.184 159.261 94.336 159.261 92.11V90.822ZM156.153 90.486H163.083V91.424H156.153V90.486ZM164.875 89.45H166.051V98.704H164.875V89.45ZM157.917 100.86H166.429V101.812H157.917V100.86ZM157.917 97.836H159.065V101.28H157.917V97.836ZM168.555 99.572H180.021V100.538H168.555V99.572ZM173.679 96.856H174.841V99.978H173.679V96.856ZM169.941 90.374H178.607V94.21H171.131V96.744H169.983V93.272H177.459V91.312H169.941V90.374ZM169.983 96.254H178.901V97.206H169.983V96.254ZM185.481 95.316H186.447C188.981 95.316 190.395 95.274 192.089 94.966L192.215 95.904C190.479 96.212 189.023 96.268 186.447 96.268H185.481V95.316ZM185.481 90.22H191.263V91.158H186.629V95.764H185.481V90.22ZM186.265 92.726H191.025V93.664H186.265V92.726ZM186.769 97.556H194.721V101.924H186.769V97.556ZM193.587 98.48H187.903V100.986H193.587V98.48ZM193.559 89.436H194.721V96.884H193.559V89.436ZM194.399 92.572H196.597V93.552H194.399V92.572ZM200.432 90.192H201.356V91.886C201.356 93.79 200.278 95.792 198.416 96.646L197.786 95.736C199.438 94.994 200.432 93.328 200.432 91.886V90.192ZM200.614 90.192H201.538V91.886C201.538 93.328 202.476 94.77 204.1 95.428L203.484 96.324C201.65 95.554 200.614 93.776 200.614 91.886V90.192ZM207.334 89.45H208.44V97.094H207.334V89.45ZM205.29 92.726H207.684V93.692H205.29V92.726ZM204.618 89.66H205.724V97.024H204.618V89.66ZM199.956 97.78H208.44V102.092H207.292V98.732H199.956V97.78Z" fill="url(#paint1_linear_406_12911)"/>
<defs>
<linearGradient id="paint0_linear_406_12911" x1="-0.000141562" y1="37.9999" x2="255" y2="37.9999" gradientUnits="userSpaceOnUse">
<stop stop-color="#9FC7C0"/>
<stop offset="1" stop-color="#C9BC9C"/>
</linearGradient>
<linearGradient id="paint1_linear_406_12911" x1="44.9781" y1="96.0011" x2="210.007" y2="96.0011" gradientUnits="userSpaceOnUse">
<stop stop-color="#9FC7C0"/>
<stop offset="1" stop-color="#C9BC9C"/>
</linearGradient>
<clipPath id="clip0_406_12911">
<rect width="255" height="76" fill="white"/>
</clipPath>
</defs>
</svg>
