<svg width="103" height="31" viewBox="0 0 103 31" fill="none" xmlns="http://www.w3.org/2000/svg">
<path d="M14.59 2.33695C14.4797 2.62446 14.2682 2.80531 13.9601 2.87023C13.652 2.93515 13.4727 2.82386 13.4313 2.53635C13.4543 2.29058 13.3577 2.01234 13.1508 1.70165C12.9393 1.39096 12.714 1.23329 12.4703 1.23329C11.192 1.25648 10.0378 1.5208 9.01242 2.03553C7.98702 2.54562 7.06278 3.19483 6.2489 3.97389C5.43041 4.75294 4.72689 5.6201 4.12912 6.58C3.53135 7.53527 3.04394 8.47662 2.65769 9.39943C2.27144 10.3222 1.98636 11.1848 1.79783 11.987C1.6093 12.7892 1.51734 13.4245 1.51734 13.8883C1.51734 14.352 1.57711 14.8157 1.70127 15.3397C1.82082 15.8637 2.05073 16.2903 2.3818 16.6242C2.75885 16.9813 3.19109 17.1018 3.68769 16.9906C4.1843 16.8793 4.6855 16.6242 5.19591 16.2208C5.70171 15.822 6.21671 15.3258 6.73631 14.7369C7.2559 14.1479 7.73412 13.5497 8.17554 12.9515C8.61697 12.3487 9.00322 11.7922 9.33429 11.2821C9.66536 10.772 9.90907 10.4011 10.0608 10.1785C10.5252 9.48754 10.8977 8.79659 11.1874 8.11028C11.4725 7.41934 11.8035 6.70985 12.1806 5.97253C12.5117 5.70357 12.8381 5.6201 13.1554 5.72212C13.4773 5.82414 13.7026 6.08382 13.8359 6.50581V6.77477L13.8038 7.07619C13.3623 8.6111 12.9715 10.1692 12.6266 11.7505C12.2863 13.3318 11.9369 14.9224 11.5828 16.5268C12.222 16.0817 12.8749 15.6643 13.5371 15.2748C14.1992 14.8853 14.9625 14.4679 15.8224 14.0227C15.9741 13.9764 16.1213 13.9856 16.2546 14.0413C16.3879 14.0969 16.4753 14.1758 16.5213 14.2731C16.5673 14.3752 16.5719 14.4865 16.5397 14.607C16.5075 14.7276 16.4109 14.8342 16.2592 14.9224C15.2016 15.4788 14.2912 16.0121 13.5279 16.5268C12.7646 17.0369 12.0013 17.6073 11.2288 18.2287C11.0724 18.8501 10.9207 19.4622 10.7643 20.065C10.608 20.6679 10.4425 21.2661 10.2677 21.8689C10.1574 22.2677 9.99184 22.8195 9.77112 23.5198C9.55041 24.22 9.29291 24.9387 8.99403 25.6714C8.69514 26.4041 8.36867 27.0997 8.01921 27.7582C7.66514 28.4167 7.30189 28.8989 6.92483 29.2096C6.72711 29.3626 6.54778 29.511 6.39604 29.6455C6.2397 29.78 6.09256 29.9006 5.95001 30.0119C5.80747 30.1232 5.64653 30.2344 5.4718 30.3457C5.29707 30.457 5.08555 30.559 4.84184 30.6472C4.04635 30.9578 3.31524 31.0645 2.6393 30.9625C1.96796 30.8605 1.41618 30.624 0.983946 30.2437C0.551714 29.8635 0.275822 29.3626 0.156268 28.7413C0.0367148 28.1199 0.128679 27.4289 0.436759 26.6731C0.680464 26.0285 1.04372 25.4581 1.53113 24.9712C2.01854 24.4797 2.47836 24.0252 2.91979 23.6032C3.73827 22.8474 4.58434 22.0729 5.4672 21.2846C6.35006 20.4963 7.22372 19.7775 8.08358 19.1329C8.32729 18.9567 8.5434 18.7898 8.72733 18.6321C8.91586 18.4791 9.10898 18.3307 9.3067 18.1962L9.5734 17.0926L10.3367 13.0211L10.1712 13.253C9.77572 13.8094 9.34809 14.403 8.89746 15.0383C8.44684 15.6736 7.94104 16.2579 7.38925 16.7912C6.83747 17.3244 6.2351 17.765 5.58675 18.1081C4.93381 18.4513 4.21189 18.6275 3.4164 18.6275C2.8876 18.6275 2.40479 18.4513 1.97716 18.0942C1.54493 17.7371 1.18167 17.3105 0.882785 16.8097C0.583902 16.3089 0.358589 15.7756 0.20225 15.2052C0.0459112 14.6395 -0.0184638 14.1294 0.00452729 13.6842C0.0505094 12.2374 0.372384 10.7164 0.979348 9.12583C1.58631 7.53527 2.42319 6.07455 3.49457 4.75294C4.56595 3.43133 5.84885 2.33231 7.35247 1.46515C8.85148 0.597993 10.5298 0.176007 12.3829 0.194555C12.737 0.194555 13.0726 0.254839 13.3945 0.380044C13.7164 0.500612 13.9785 0.662914 14.19 0.862315C14.4015 1.06171 14.5441 1.28894 14.6222 1.54862C14.7004 1.80367 14.6958 2.06799 14.6038 2.33231L14.59 2.33695ZM7.33867 24.8089C7.62376 24.0948 7.89505 23.3389 8.14796 22.5367C8.40086 21.7344 8.62617 20.9322 8.82849 20.1346C8.8055 20.1346 8.7963 20.1439 8.7963 20.167C8.46523 20.436 8.08358 20.756 7.65595 21.1362C7.22372 21.5165 6.79148 21.9153 6.35006 22.3373C5.90863 22.7593 5.4764 23.172 5.05796 23.5708C4.63952 23.9696 4.26247 24.3266 3.9314 24.6373C3.57734 24.9944 3.31984 25.2587 3.1543 25.4396C2.98877 25.6158 2.85082 25.7781 2.74046 25.9218C2.6301 26.0656 2.51975 26.2372 2.40939 26.4412C2.29903 26.6406 2.1243 26.942 1.8806 27.3408C1.77024 27.517 1.69667 27.7953 1.66448 28.1755C1.63229 28.5558 1.63689 28.834 1.68287 29.0102C1.99095 29.2792 2.34961 29.3766 2.75885 29.3116C3.1681 29.2467 3.55894 29.154 3.936 29.0427C4.35443 28.9082 4.74068 28.6763 5.09474 28.3425C5.44881 28.0086 5.76608 27.6376 6.05577 27.2249C6.34086 26.8122 6.59836 26.3902 6.81907 25.9543C7.03979 25.5184 7.21452 25.1381 7.34787 24.8043L7.33867 24.8089Z" fill="white"/>
<path d="M17.0407 8.51371C17.1741 8.46733 17.3212 8.48588 17.4867 8.56471C17.6523 8.64355 17.7994 8.74093 17.9328 8.86613C18.0661 8.9867 18.1765 9.12582 18.2638 9.28348C18.3512 9.44115 18.3972 9.56172 18.3972 9.64982C18.4202 9.71474 18.3926 9.8214 18.3144 9.96515C18.2362 10.1089 18.1673 10.2387 18.0983 10.35C17.942 10.6607 17.7994 10.9622 17.6661 11.2497C17.5327 11.5372 17.4132 11.8293 17.3028 12.1168C17.4775 11.871 17.6891 11.5975 17.9328 11.3007C18.1765 10.9993 18.4478 10.7257 18.742 10.4845C19.0409 10.2387 19.349 10.0347 19.6709 9.86777C19.9928 9.70083 20.3284 9.62664 20.6825 9.64982C21.0779 9.67301 21.3998 9.79358 21.6435 10.0162C21.8872 10.2387 22.0068 10.619 22.0068 11.1523C22.0068 11.8664 21.8504 12.4971 21.5424 13.0535C21.2343 13.61 20.6135 14.0784 19.6893 14.454C19.2249 14.6766 18.6501 14.8435 17.9695 14.9548C17.6845 14.8435 17.5557 14.7229 17.5879 14.5885C17.6201 14.454 17.6615 14.3659 17.7028 14.3195L18.4294 13.9207C18.9352 13.6517 19.2938 13.3596 19.5053 13.035C19.7169 12.715 19.864 12.4275 19.9514 12.1817C20.0387 11.9128 20.0709 11.6577 20.0525 11.412C20.0066 11.2775 19.9376 11.1987 19.8364 11.1801C19.7353 11.1569 19.6663 11.1569 19.6203 11.1801C19.487 11.245 19.3214 11.347 19.1237 11.4815C18.926 11.616 18.6869 11.8386 18.411 12.1493C18.1351 12.46 17.8086 12.8773 17.4362 13.4013C17.0591 13.9253 16.6407 14.5977 16.1762 15.4232C16.0659 15.822 15.9647 16.2254 15.8774 16.6242C15.79 17.023 15.7118 17.4264 15.6475 17.8252C15.5601 18.2936 15.5923 18.8037 15.7486 19.3602C15.7716 19.4946 15.744 19.592 15.6658 19.6616C15.5877 19.7265 15.4911 19.7636 15.367 19.7636C15.2428 19.7636 15.1141 19.7311 14.9715 19.6616C14.829 19.5967 14.714 19.5039 14.622 19.3926C14.5577 19.2164 14.5025 19.068 14.4565 18.9567C14.4105 18.8454 14.3783 18.7434 14.3554 18.6553C14.3324 18.5672 14.3278 18.4698 14.337 18.3724C14.3462 18.2704 14.3554 18.1452 14.3554 17.9875C14.4427 16.3645 14.7508 14.7229 15.2842 13.0628C15.813 11.4027 16.397 9.88632 17.0407 8.50443V8.51371Z" fill="white"/>
<path d="M29.0563 13.8236C29.0333 14.0693 29.0103 14.278 28.9919 14.4588C28.9689 14.6351 28.9367 14.7974 28.8908 14.9411C28.8448 15.0849 28.7988 15.2379 28.7436 15.3909C28.6884 15.5486 28.6287 15.7341 28.5597 15.9567C28.2516 16.5131 27.9297 16.9629 27.5987 17.3107C27.2676 17.6539 26.9411 17.9275 26.6238 18.1269C26.302 18.3263 26.0077 18.4654 25.7318 18.5442C25.4559 18.6231 25.2398 18.6741 25.088 18.6926C25.0421 18.6926 24.9317 18.7112 24.757 18.7436C24.5822 18.7761 24.3753 18.7761 24.1454 18.7436C23.9155 18.7112 23.6718 18.6138 23.4189 18.4608C23.166 18.3031 22.9269 18.0388 22.7062 17.6585C22.5728 17.4359 22.5222 17.0186 22.559 16.4065C22.5912 15.7944 22.72 15.0988 22.9407 14.3197C23.028 13.9627 23.1844 13.5175 23.4051 12.9842C23.5614 12.604 23.773 12.182 24.0488 11.7136C24.3247 11.2453 24.6466 10.814 25.0099 10.4106C25.3731 10.0118 25.787 9.6686 26.2514 9.39037C26.7158 9.11214 27.2354 8.97302 27.8056 8.97302C28.0263 8.97302 28.2148 9.05186 28.3666 9.20488C28.5183 9.36255 28.6195 9.54804 28.6654 9.77062C28.6884 9.817 28.6884 9.90047 28.6654 10.021C28.6425 10.1416 28.6195 10.2483 28.6011 10.3364C28.4907 10.7166 28.3574 10.8882 28.2056 10.8557C28.0493 10.8233 27.9527 10.763 27.9067 10.6702C27.9067 10.5358 27.8883 10.4198 27.8562 10.3178C27.824 10.2158 27.7826 10.1694 27.7412 10.1694C27.6768 10.1926 27.4331 10.4291 27.0147 10.8882C26.5963 11.3426 26.164 11.964 25.7226 12.7431C25.3455 13.4108 25.0283 14.0832 24.7616 14.7649C24.4949 15.4419 24.3661 16.1051 24.3661 16.7496C24.3661 17.0186 24.4121 17.2736 24.4995 17.5194C24.5868 17.7652 24.7662 17.8858 25.0283 17.8858H25.1938C25.7456 17.7327 26.1962 17.4916 26.5503 17.167C26.9043 16.8424 27.1802 16.4992 27.3779 16.1329C27.5757 15.7665 27.7182 15.4002 27.8102 15.0292C27.8975 14.6629 27.9527 14.3568 27.9757 14.1111C27.4009 14.1574 27.0147 14.0832 26.817 13.8931C26.6192 13.703 26.5319 13.4711 26.5503 13.1929C26.5733 12.9147 26.6606 12.6411 26.817 12.3767C26.9733 12.1078 27.125 11.9084 27.2814 11.7739C27.3917 11.6626 27.5527 11.5467 27.7596 11.4215C27.9711 11.3009 28.1412 11.236 28.2746 11.236C28.5597 11.1896 28.7758 11.2592 28.9183 11.4354C29.0609 11.6116 29.1023 11.9269 29.0333 12.3721C29.3184 12.284 29.6587 12.1402 30.0449 11.9362C30.4312 11.7368 30.6565 11.6116 30.7254 11.5699C31.1025 11.3473 31.4106 11.1432 31.6543 10.9531C31.898 10.763 32.1739 10.5821 32.482 10.4013C32.79 10.29 32.9464 10.4106 32.9464 10.7676C32.9464 10.9253 32.9004 11.0551 32.813 11.1664C32.2383 11.811 31.6313 12.3257 30.9921 12.7013C30.353 13.0816 29.7138 13.4479 29.0701 13.805L29.0563 13.8236ZM28.1321 12.3211C28.0677 12.2562 27.9711 12.284 27.8516 12.4046C27.732 12.5251 27.6676 12.6225 27.6676 12.6874C27.6446 12.7987 27.6492 12.8776 27.686 12.9193C27.7182 12.9657 27.7642 12.9842 27.8194 12.9842C27.8746 12.9842 27.9297 12.9749 27.9849 12.9518C28.0401 12.9286 28.0769 12.9054 28.0999 12.8868C28.1642 12.7524 28.178 12.5622 28.1321 12.3211Z" fill="white"/>
<path d="M35.843 9.11644C35.9533 9.05152 36.0959 9.05152 36.2752 9.11644C36.4499 9.18136 36.6109 9.28338 36.7534 9.41786C36.896 9.55234 37.0109 9.70073 37.1029 9.86767C37.1903 10.0346 37.204 10.183 37.1351 10.3175C36.6293 11.231 36.1373 12.2744 35.6636 13.4569C35.19 14.6347 34.8957 15.9517 34.7854 17.3985C35.2728 16.5545 35.8062 15.6688 36.3902 14.746C36.9741 13.8232 37.5489 12.9004 38.1099 11.973C38.6709 11.0502 39.1951 10.1552 39.6825 9.28338C40.1699 8.41622 40.5653 7.62326 40.8734 6.91376C40.8964 6.77928 40.9102 6.66799 40.924 6.57988C40.9332 6.49177 40.9608 6.38976 41.0068 6.27846C41.1585 6.03269 41.3562 5.95386 41.5861 6.0466C41.816 6.13471 41.9126 6.30165 41.8666 6.54742C41.9126 6.65871 41.8988 6.82565 41.8344 7.04824C41.7701 7.27083 41.6873 7.50269 41.5861 7.74846C41.485 7.99423 41.3884 8.21682 41.2873 8.41622C41.1861 8.61562 41.1263 8.7501 41.1033 8.81502C40.97 9.06079 40.7677 9.47351 40.4918 10.0485C40.2159 10.6282 39.8894 11.282 39.5169 12.0193C39.1399 12.752 38.7398 13.5218 38.3076 14.324C37.8754 15.1263 37.4477 15.859 37.0155 16.5267C36.5833 17.1945 36.1786 17.7417 35.7924 18.1636C35.4061 18.5856 35.0705 18.7989 34.7808 18.7989C34.5371 18.8221 34.275 18.734 33.9853 18.53C33.7002 18.3306 33.5117 18.0292 33.4243 17.6304C33.4703 16.7168 33.5669 15.794 33.7232 14.8573C33.2588 15.859 32.822 16.7307 32.4173 17.4773C32.0081 18.2239 31.7046 18.6181 31.5069 18.6645C31.2632 18.6877 31.0011 18.5995 30.7114 18.3955C30.4263 18.1961 30.2378 17.8947 30.1504 17.4959C30.1734 16.74 30.247 15.9702 30.3665 15.1912C30.4861 14.4121 30.647 13.6424 30.8447 12.8865C31.0424 12.1306 31.2862 11.4165 31.5712 10.7487C31.8563 10.081 32.1874 9.49205 32.5645 8.97732C32.6748 8.9124 32.8174 8.9124 32.9967 8.97732C33.1714 9.04224 33.3324 9.14426 33.4749 9.27874C33.6174 9.41322 33.7324 9.56161 33.8244 9.72855C33.9117 9.89549 33.9255 10.0439 33.8565 10.1784C33.3507 11.0919 32.8633 12.0935 32.3989 13.1833C31.9345 14.273 31.6494 15.5436 31.5391 16.9904C31.8701 16.4108 32.1736 15.9007 32.4495 15.4555C32.7254 15.0103 32.9737 14.593 33.1944 14.2035C33.4151 13.8139 33.6174 13.443 33.806 13.0859C33.9945 12.7288 34.1738 12.3532 34.3532 11.9498L34.6199 11.4165C34.9739 10.5262 35.3832 9.75638 35.843 9.1118V9.11644Z" fill="white"/>
<path d="M55.4082 2.43901C55.4956 2.28598 55.6473 2.14222 55.8542 2.02166C56.0658 1.90109 56.2773 1.80371 56.498 1.73879C56.7187 1.67387 56.9026 1.64604 57.0452 1.65532C57.1877 1.66459 57.2383 1.74806 57.1923 1.90573C57.2153 2.04021 57.2383 2.12831 57.2567 2.17468C57.2107 2.26279 57.1785 2.39727 57.1555 2.57349C57.1095 2.95374 57.0406 3.32008 56.9394 3.67714C56.8383 4.03421 56.7325 4.39127 56.6221 4.7437C57.1969 3.89973 57.8039 3.1114 58.443 2.388C59.0822 1.66459 59.7213 1.0803 60.3651 0.635129C60.8709 0.301249 61.3629 0.101849 61.8365 0.0322908C62.3101 -0.0326303 62.8021 -0.000169737 63.3125 0.13431C63.6896 0.222417 64.0482 0.421817 64.3885 0.737148C64.7288 1.04784 64.9127 1.39563 64.9357 1.77125C64.9587 2.10513 64.9357 2.46683 64.8713 2.85636C64.8069 3.24588 64.715 3.6215 64.6046 3.97392C64.4943 4.33099 64.3747 4.66023 64.2414 4.95701C64.108 5.25843 63.9977 5.48566 63.9103 5.64332C63.6666 6.0885 63.4689 6.44092 63.3171 6.69597C63.1608 6.95102 63.0045 7.18752 62.8389 7.39619C62.6734 7.6095 62.4894 7.82281 62.2917 8.0454C62.094 8.26799 61.8273 8.57868 61.4962 8.98212C61.0778 9.49221 60.5766 9.94666 59.988 10.3362C59.4041 10.7257 58.7925 11.0689 58.1487 11.3703C57.505 11.6717 56.8612 11.936 56.2129 12.1725C55.5599 12.4044 54.9576 12.5991 54.4104 12.7568C54.1253 13.6008 53.8172 14.4494 53.4999 15.2934C53.1781 16.1373 52.8608 16.9303 52.5389 17.663C52.217 18.3957 51.9044 19.0588 51.5963 19.6477C51.2882 20.2366 50.9985 20.7004 50.7364 21.0342L50.4697 21.1687C50.295 21.3449 50.1157 21.2986 49.9409 21.0203C49.7662 20.7421 49.6558 20.4592 49.6099 20.1671C49.6099 20.0326 49.6558 19.861 49.7432 19.6477C49.8306 19.4344 49.9317 19.2118 50.0421 18.98C50.1525 18.7481 50.2628 18.5255 50.3732 18.3122C50.4835 18.0989 50.5617 17.9273 50.6031 17.7928C50.9112 16.9674 51.2146 16.1791 51.5135 15.4232C51.8124 14.6673 52.1021 13.8976 52.3918 13.1185C52.2354 13.1417 52.0975 13.1556 51.9779 13.1695C51.8584 13.1788 51.7296 13.1881 51.5963 13.1881C51.3112 13.1417 51.1457 12.9979 51.0997 12.7522C51.0537 12.5064 51.187 12.3395 51.4951 12.2514C51.7388 12.205 51.9595 12.1679 52.1573 12.1354C52.355 12.103 52.5665 12.0612 52.7872 12.0195C53.0309 11.4167 53.2562 10.8045 53.4678 10.1832C53.6793 9.56177 53.9046 8.91256 54.1483 8.2448L54.5437 6.90928C54.6311 6.51048 54.7093 6.16733 54.7737 5.8891C54.838 5.61086 54.9024 5.35118 54.9576 5.10541C55.0128 4.85963 55.0633 4.60922 55.1047 4.35418C55.1507 4.09913 55.1921 3.77916 55.2381 3.40355C55.2611 3.22733 55.2657 3.06039 55.2565 2.90273C55.2427 2.74506 55.2933 2.59203 55.4036 2.43437L55.4082 2.43901ZM55.5737 9.01458C55.4634 9.39483 55.3484 9.78436 55.2243 10.1832C55.1001 10.582 54.976 11.0086 54.8426 11.4538C57.0038 10.6979 58.7097 9.61742 59.9558 8.21698C61.202 6.81654 62.1676 5.20279 62.8527 3.37572C62.8987 3.24124 62.9631 3.01866 63.0504 2.70796C63.1378 2.39727 63.1838 2.16077 63.1838 2.00775C63.1838 1.72024 63.078 1.50229 62.8711 1.35853C62.6596 1.21478 62.4894 1.14059 62.3561 1.14059C62.1998 1.14059 62.0204 1.21942 61.8089 1.37245C61.5974 1.53011 61.3813 1.70169 61.1652 1.89181C60.9445 2.08194 60.7513 2.25815 60.5858 2.42509C60.4203 2.59203 60.3145 2.69869 60.2685 2.74043C59.8915 3.0743 59.496 3.48238 59.0776 3.96001C58.6591 4.43765 58.2407 4.96165 57.8223 5.52739C57.4038 6.09313 56.9946 6.67742 56.5991 7.28026C56.1991 7.8831 55.8588 8.45811 55.5737 9.01458Z" fill="white"/>
<path d="M66.4991 9.71502C66.7429 9.91442 66.8762 10.1416 66.8946 10.4013C66.9176 10.6564 66.775 10.7398 66.4624 10.6517C66.2876 10.6054 66.1129 10.5729 65.9474 10.5497C65.7818 10.5265 65.6117 10.5497 65.4324 10.6146C65.2346 10.7027 64.9634 10.9763 64.6231 11.4308C64.2782 11.8852 63.9425 12.4139 63.6115 13.0167C63.2804 13.6196 62.9861 14.2363 62.7332 14.8716C62.4803 15.5069 62.3424 16.0448 62.3194 16.49C62.3194 16.6894 62.3424 16.8749 62.3838 17.0418C62.4297 17.2088 62.5171 17.2922 62.6504 17.2922C62.9171 17.2922 63.2252 17.1299 63.5793 16.81C63.9334 16.4854 64.2736 16.1051 64.6047 15.6599C64.9358 15.2148 65.2392 14.7649 65.5151 14.3059C65.791 13.8514 65.9933 13.4758 66.1267 13.1883C66.1727 13.077 66.2049 12.9843 66.2279 12.9054C66.2508 12.8266 66.2922 12.757 66.3612 12.6875L66.3934 12.655C66.5497 12.4092 66.7015 12.2469 66.8578 12.1727C67.0141 12.0939 67.1567 12.08 67.29 12.1217C67.4234 12.1681 67.5337 12.284 67.6211 12.4742C67.7085 12.6643 67.7407 12.9008 67.7223 13.1929C67.6119 13.6149 67.5292 14.0508 67.474 14.496C67.4188 14.9412 67.3682 15.4976 67.3268 16.1654C67.2808 17.0325 67.3498 17.4916 67.5246 17.5334C67.7453 17.5983 67.966 17.5797 68.1867 17.4684C68.7615 17.1809 69.2857 16.7636 69.7593 16.2164C70.2329 15.6692 70.6467 15.122 71.0008 14.5655C71.1755 14.278 71.3595 13.9488 71.548 13.5825C71.7365 13.2161 71.9526 12.9101 72.1917 12.6643C72.3251 12.553 72.4354 12.5205 72.5228 12.5623C72.6102 12.6086 72.6745 12.6921 72.7205 12.8127C72.7665 12.9332 72.7941 13.0816 72.8033 13.2486C72.8125 13.4155 72.8079 13.5639 72.7849 13.6984C72.7849 13.7216 72.7527 13.7911 72.6837 13.9163C72.6194 14.0369 72.5412 14.176 72.4538 14.3337C72.3665 14.4914 72.2791 14.6397 72.1871 14.7835C72.0998 14.9272 72.0446 15.0339 72.0216 15.0988C71.8469 15.3863 71.6537 15.6924 71.4422 16.017C71.2307 16.3416 71.0054 16.6616 70.7617 16.9862C70.518 17.3108 70.2651 17.6076 69.9984 17.8858C69.7317 18.164 69.4558 18.4052 69.1707 18.6046C68.927 18.7808 68.6419 18.9106 68.3108 18.9895C67.9798 19.0683 67.6579 19.0822 67.3498 19.0405C67.0187 19.0173 66.7704 18.8921 66.6049 18.6556C66.4394 18.4237 66.3244 18.1316 66.2554 17.7884C66.1911 17.4453 66.1681 17.0418 66.1911 16.5874C66.2141 16.1329 66.2554 15.6599 66.3244 15.1684C66.1497 15.5904 65.906 16.0309 65.5979 16.4854C65.2898 16.9398 64.945 17.3525 64.5725 17.7189C64.1955 18.0852 63.7908 18.382 63.3494 18.6046C62.908 18.8271 62.4665 18.9153 62.0251 18.8735C61.648 18.8271 61.34 18.6185 61.0963 18.2382C60.8525 17.858 60.7422 17.2598 60.7652 16.4343C60.7652 15.966 60.8709 15.4142 61.0779 14.7835C61.2894 14.1482 61.5561 13.5129 61.8871 12.8822C62.2182 12.2469 62.5953 11.658 63.0137 11.1108C63.4321 10.5636 63.8644 10.1463 64.3058 9.85877C64.5035 9.72429 64.7196 9.63155 64.9496 9.5759C65.1795 9.52026 65.4094 9.49243 65.6301 9.49243C66.0255 9.49243 66.3152 9.57126 66.49 9.72429L66.4991 9.71502Z" fill="white"/>
<path d="M73.4195 9.54791C73.5942 9.10273 73.7322 8.73176 73.8333 8.43034C73.9345 8.12892 73.9943 7.95734 74.0173 7.91097C74.4587 6.64037 74.8909 5.597 75.3093 4.77157C75.7278 3.94615 76.1278 3.29694 76.5003 2.81931C76.8773 2.34167 77.2176 2.00779 77.5257 1.81767C77.8338 1.62754 78.1005 1.54407 78.3212 1.56726C78.7856 1.56726 79.0707 1.7342 79.181 2.06808C79.2914 2.40196 79.2592 2.75902 79.0799 3.13464L78.9787 3.40359C78.8684 3.6911 78.6936 4.0528 78.4499 4.4887C78.2062 4.9246 77.9211 5.3976 77.5901 5.90769C77.259 6.41778 76.8957 6.96034 76.4957 7.52608C76.1002 8.09182 75.7002 8.65756 75.3048 9.21403L74.2104 12.6548C74.1 13.0536 73.9851 13.4524 73.8609 13.842C73.7414 14.2315 73.6586 14.6164 73.6126 14.992C73.5896 15.1033 73.562 15.3305 73.5298 15.6783C73.4977 16.0261 73.4793 16.3785 73.4793 16.7449C73.4793 17.1112 73.516 17.4451 73.5942 17.7465C73.6724 18.0479 73.8195 18.1963 74.0402 18.1963C74.261 18.1963 74.5736 17.9737 74.9829 17.5286C75.3921 17.0834 75.8151 16.5594 76.2566 15.9612C76.698 15.3583 77.1119 14.7601 77.4981 14.1573C77.8843 13.5545 78.1648 13.1 78.3442 12.7893L78.5097 12.6224C78.5557 12.576 78.5879 12.5575 78.6109 12.5575C78.6568 12.5575 78.6752 12.5667 78.6752 12.5899C78.6752 12.6131 78.6982 12.6456 78.7396 12.6919C78.827 12.8682 78.8684 13.0536 78.8546 13.2438C78.8454 13.4339 78.8178 13.6147 78.7718 13.7956C78.7074 13.9718 78.6155 14.1387 78.5051 14.2964C78.3488 14.5654 78.151 14.8807 77.9073 15.247C77.6636 15.6134 77.4061 15.989 77.1302 16.3646C76.8543 16.7449 76.5785 17.1066 76.3026 17.4497C76.0267 17.7929 75.7784 18.0804 75.5577 18.303C75.314 18.5487 75.0656 18.7157 74.8127 18.8038C74.5598 18.8919 74.3207 18.9383 74.1 18.9383C73.8793 18.9383 73.6356 18.9058 73.3735 18.8362L72.8447 18.5348C72.693 18.4235 72.532 18.3076 72.3665 18.1824C72.201 18.0618 72.04 17.8856 71.8883 17.663C71.7779 17.51 71.7044 17.2781 71.6722 16.9767C71.64 16.6753 71.6216 16.3693 71.6216 16.0586C71.6216 15.9704 71.6262 15.8174 71.64 15.6087C71.6538 15.3954 71.7135 15.0569 71.8239 14.5886C71.9343 14.1202 72.109 13.4849 72.3527 12.6873C72.5964 11.8851 72.9505 10.8417 73.4103 9.54791H73.4195ZM77.9533 2.70337C77.7326 2.87959 77.4567 3.38041 77.1256 4.20583C76.7946 5.03126 76.4405 5.97725 76.0681 7.04381C76.4865 6.44097 76.8635 5.8845 77.1946 5.37441C77.5257 4.86432 77.797 4.40987 78.0039 4.02034C78.2154 3.63082 78.3396 3.31549 78.3856 3.06971C78.4315 2.82394 78.3718 2.67091 78.22 2.60136C78.1097 2.60136 78.0223 2.63382 77.9533 2.70337Z" fill="white"/>
<path d="M80.0731 16.1604C79.9168 16.2068 79.7467 16.2532 79.5582 16.3088C79.3696 16.3645 79.1903 16.4016 79.011 16.4248C78.9466 16.6937 78.9512 16.9766 79.0294 17.278C79.1075 17.5794 79.3098 17.7603 79.6409 17.8298C80.1927 17.8298 80.7491 17.7278 81.3147 17.5284C81.8756 17.329 82.4228 17.0508 82.9516 16.6937C83.4804 16.3367 83.9908 15.9239 84.4736 15.4602C84.9565 14.9919 85.3887 14.491 85.7657 13.9578C86.0324 13.7816 86.2531 13.7723 86.4279 13.9392C86.6026 14.1062 86.6026 14.3241 86.4279 14.5884C86.0738 15.08 85.6324 15.5947 85.1036 16.1419C84.5748 16.6891 84 17.1899 83.3839 17.6444C82.7677 18.0988 82.1194 18.4744 81.448 18.7619C80.7767 19.0494 80.1283 19.1746 79.5122 19.1283C78.9374 19.1283 78.4638 18.9335 78.0867 18.544C77.7097 18.1544 77.5119 17.6351 77.489 16.9905C77.466 16.499 77.5211 15.961 77.6545 15.3721C77.7878 14.7832 77.981 14.1943 78.2339 13.6007C78.4868 13.0118 78.7811 12.4414 79.1121 11.8988C79.4432 11.3516 79.7927 10.874 80.1559 10.4613C80.5192 10.0486 80.8916 9.72862 81.2641 9.49213C81.6411 9.26027 82.0044 9.16288 82.3585 9.20926C82.6895 9.25563 82.9608 9.35765 83.1677 9.52459C83.3793 9.69153 83.5448 9.89556 83.6644 10.1413C83.7839 10.3871 83.8621 10.6468 83.8943 10.925C83.9264 11.2033 83.9311 11.4537 83.9127 11.6763C83.7379 12.7892 83.3333 13.7445 82.7033 14.5467C82.0734 15.3489 81.1951 15.8822 80.0731 16.1512V16.1604ZM82.5562 11.3841C82.5562 11.3377 82.5516 11.2125 82.5378 10.9992C82.524 10.7859 82.455 10.6839 82.3217 10.6839C82.2113 10.6839 82.0412 10.7859 81.8067 10.9853C81.5722 11.1847 81.3285 11.5186 81.0618 11.9869C80.6433 12.6547 80.2939 13.2622 80.018 13.8047C79.7421 14.3519 79.526 14.8435 79.3742 15.2886C79.6823 15.2237 79.9582 15.131 80.2019 15.0197C80.4456 14.9084 80.7353 14.7322 81.0802 14.4864C81.4204 14.2406 81.7147 13.8975 81.9584 13.4523C82.1332 13.1416 82.2803 12.8077 82.3907 12.4507C82.501 12.0936 82.5562 11.7365 82.5562 11.3841Z" fill="white"/>
<path d="M90.4377 2.73577C90.571 2.68939 90.7227 2.68476 90.9021 2.71722C91.0768 2.74968 91.2423 2.80996 91.3987 2.90271C91.5504 2.99081 91.6792 3.09283 91.7803 3.20413C91.8815 3.31542 91.9183 3.41744 91.8953 3.50554C91.8953 3.57047 91.8447 3.67712 91.7481 3.82088C91.647 3.96463 91.578 4.09447 91.532 4.20576C91.4217 4.38198 91.3067 4.58602 91.1826 4.8086C91.063 5.03119 90.9435 5.26305 90.8331 5.50882C91.647 5.39753 92.4701 5.31406 93.2977 5.25841C94.1254 5.20277 94.9347 5.17494 95.7302 5.17494H96.2452C96.4107 5.17494 96.5717 5.18422 96.7234 5.2074C97.1648 5.25377 97.5879 5.35579 97.9971 5.52273C98.4063 5.68967 98.6409 5.89371 98.7098 6.13948C98.7558 6.3157 98.7328 6.45018 98.6455 6.53828C98.5581 6.62639 98.4569 6.69595 98.3466 6.73768C98.2362 6.78406 98.1029 6.78869 97.9511 6.75623C97.7948 6.72377 97.5879 6.68204 97.3212 6.6403C97.0545 6.59393 96.7418 6.5522 96.3785 6.50582C96.0153 6.45945 95.5876 6.45018 95.1048 6.47336C94.176 6.51974 93.2931 6.57074 92.4563 6.62175C91.6194 6.6774 90.8653 6.7516 90.2031 6.8397L89.7387 7.94336C89.3847 8.85689 89.0214 9.73333 88.6443 10.5819C88.2673 11.4305 87.927 12.2606 87.6189 13.086C87.3109 13.9115 87.0488 14.7462 86.8419 15.5901C86.6303 16.4341 86.5154 17.3059 86.4924 18.1962C86.4694 18.7527 86.5935 19.286 86.8556 19.8007C86.966 20.0882 86.9062 20.3015 86.6717 20.436C86.4372 20.5705 86.2257 20.5241 86.028 20.3015C85.6509 19.6987 85.4302 19.068 85.3658 18.4003C85.2785 17.5331 85.3106 16.6289 85.467 15.6968C85.6233 14.7647 85.8486 13.8094 86.1475 12.8403C86.4464 11.8711 86.7729 10.9158 87.1223 9.96982C87.4764 9.02383 87.8075 8.09639 88.1156 7.18286C87.5408 7.29415 87.0028 7.41472 86.4924 7.5492C85.982 7.68368 85.3796 7.79497 84.6715 7.88308C84.6071 7.8367 84.5244 7.77178 84.4232 7.68368C84.322 7.59557 84.2531 7.50746 84.2071 7.41472C84.1611 7.32661 84.1473 7.24314 84.1565 7.16431C84.1703 7.08548 84.2623 7.02519 84.437 6.97882C85.0991 6.75623 85.7797 6.5522 86.474 6.36207C87.1683 6.17194 87.881 6.00964 88.6076 5.8798C88.7179 5.59229 88.8421 5.27232 88.9892 4.92917C89.1318 4.58602 89.2881 4.26141 89.4536 3.95999C89.6192 3.65857 89.7847 3.39889 89.9502 3.1763C90.1158 2.95372 90.2767 2.80996 90.4285 2.7404L90.4377 2.73577Z" fill="white"/>
<path d="M94.7047 2.73577C94.8381 2.68939 94.9898 2.68476 95.1692 2.71722C95.3439 2.74968 95.5094 2.80996 95.6658 2.90271C95.8175 2.99081 95.9463 3.09283 96.0474 3.20413C96.1486 3.31542 96.1854 3.41744 96.1624 3.50554C96.1624 3.57047 96.1118 3.67712 96.0152 3.82088C95.9141 3.96463 95.8451 4.09447 95.7991 4.20576C95.6888 4.38198 95.5738 4.58602 95.4497 4.8086C95.3301 5.03119 95.2105 5.26305 95.1002 5.50882C95.9141 5.39753 96.7372 5.31406 97.5648 5.25841C98.3925 5.20277 99.2018 5.17494 99.9973 5.17494H100.512C100.678 5.17494 100.839 5.18422 100.99 5.2074C101.432 5.25377 101.855 5.35579 102.264 5.52273C102.673 5.68967 102.908 5.89371 102.977 6.13948C103.023 6.3157 103 6.45018 102.913 6.53828C102.825 6.62639 102.724 6.69595 102.614 6.73768C102.503 6.78406 102.37 6.78869 102.218 6.75623C102.062 6.72377 101.855 6.68204 101.588 6.6403C101.322 6.59393 101.009 6.5522 100.646 6.50582C100.282 6.45945 99.8547 6.45018 99.3719 6.47336C98.4431 6.51974 97.5602 6.57074 96.7234 6.62175C95.8865 6.6774 95.1324 6.7516 94.4702 6.8397L94.0058 7.94336C93.6518 8.85689 93.2885 9.73333 92.9114 10.5819C92.5344 11.4305 92.1941 12.2606 91.886 13.086C91.578 13.9115 91.3159 14.7462 91.1089 15.5901C90.8974 16.4341 90.7825 17.3059 90.7595 18.1962C90.7365 18.7527 90.8606 19.286 91.1227 19.8007C91.2331 20.0882 91.1733 20.3015 90.9388 20.436C90.7043 20.5705 90.4928 20.5241 90.2951 20.3015C89.918 19.6987 89.6973 19.068 89.6329 18.4003C89.5456 17.5331 89.5777 16.6289 89.7341 15.6968C89.8904 14.7647 90.1157 13.8094 90.4146 12.8403C90.7135 11.8711 91.04 10.9158 91.3894 9.96982C91.7435 9.02383 92.0746 8.09639 92.3826 7.18286C91.8079 7.29415 91.2699 7.41472 90.7595 7.5492C90.2491 7.68368 89.6467 7.79497 88.9386 7.88308C88.8742 7.8367 88.7914 7.77178 88.6903 7.68368C88.5891 7.59557 88.5202 7.50746 88.4742 7.41472C88.4282 7.32661 88.4144 7.24314 88.4236 7.16431C88.4374 7.08548 88.5293 7.02519 88.7041 6.97882C89.3662 6.75623 90.0468 6.5522 90.7411 6.36207C91.4354 6.17194 92.1481 6.00964 92.8747 5.8798C92.985 5.59229 93.1092 5.27232 93.2563 4.92917C93.3988 4.58602 93.5552 4.26141 93.7207 3.95999C93.8863 3.65857 94.0518 3.39889 94.2173 3.1763C94.3829 2.95372 94.5438 2.80996 94.6955 2.7404L94.7047 2.73577Z" fill="white"/>
<path d="M96.1625 16.1604C96.0062 16.2068 95.836 16.2532 95.6475 16.3088C95.459 16.3645 95.2797 16.4016 95.1003 16.4248C95.036 16.6937 95.0405 16.9766 95.1187 17.278C95.1969 17.5794 95.3992 17.7603 95.7303 17.8298C96.2821 17.8298 96.8384 17.7278 97.404 17.5284C97.965 17.329 98.5122 17.0508 99.041 16.6937C99.5698 16.3367 100.08 15.9239 100.563 15.4602C101.046 14.9919 101.478 14.491 101.855 13.9578C102.122 13.7816 102.343 13.7723 102.517 13.9392C102.692 14.1062 102.692 14.3241 102.517 14.5884C102.163 15.08 101.722 15.5947 101.193 16.1419C100.664 16.6891 100.089 17.1899 99.4732 17.6444C98.8571 18.0988 98.2087 18.4744 97.5374 18.7619C96.866 19.0494 96.2177 19.1746 95.6015 19.1283C95.0268 19.1283 94.5531 18.9335 94.1761 18.544C93.799 18.1544 93.6013 17.6351 93.5783 16.9905C93.5553 16.499 93.6105 15.961 93.7438 15.3721C93.8772 14.7832 94.0703 14.1943 94.3232 13.6007C94.5761 13.0118 94.8704 12.4414 95.2015 11.8988C95.5326 11.3516 95.882 10.874 96.2453 10.4613C96.6085 10.0486 96.981 9.72862 97.3534 9.49213C97.7305 9.26027 98.0938 9.16288 98.4478 9.20926C98.7789 9.25563 99.0502 9.35765 99.2571 9.52459C99.4686 9.69153 99.6342 9.89556 99.7537 10.1413C99.8733 10.3871 99.9514 10.6468 99.9836 10.925C100.016 11.2033 100.02 11.4537 100.002 11.6763C99.8273 12.7892 99.4226 13.7445 98.7927 14.5467C98.1627 15.3489 97.2845 15.8822 96.1625 16.1512V16.1604ZM98.6455 11.3841C98.6455 11.3377 98.6409 11.2125 98.6272 10.9992C98.6134 10.7859 98.5444 10.6839 98.411 10.6839C98.3007 10.6839 98.1305 10.7859 97.896 10.9853C97.6615 11.1847 97.4178 11.5186 97.1511 11.9869C96.7327 12.6547 96.3832 13.2622 96.1073 13.8047C95.8314 14.3519 95.6153 14.8435 95.4636 15.2886C95.7717 15.2237 96.0476 15.131 96.2913 15.0197C96.535 14.9084 96.8247 14.7322 97.1695 14.4864C97.5098 14.2406 97.8041 13.8975 98.0478 13.4523C98.2225 13.1416 98.3696 12.8077 98.48 12.4507C98.5904 12.0936 98.6455 11.7365 98.6455 11.3841Z" fill="white"/>
</svg>
