<svg width="255" height="76" viewBox="0 0 255 76" fill="none" xmlns="http://www.w3.org/2000/svg">
<g clip-path="url(#clip0_406_12895)">
<path d="M36.1488 5.72906C35.8756 6.43381 35.352 6.87713 34.5894 7.03627C33.8269 7.19541 33.383 6.9226 33.2805 6.21784C33.3374 5.61539 33.0984 4.93337 32.5862 4.17177C32.0627 3.41018 31.5049 3.0237 30.9017 3.0237C27.7375 3.08054 24.8807 3.72846 22.3425 4.9902C19.8044 6.25194 17.5166 7.83196 15.502 9.74162C13.476 11.6513 11.7346 13.7769 10.2549 16.1299C8.7753 18.4715 7.56882 20.779 6.61274 23.0411C5.65666 25.3031 4.95098 27.4174 4.48433 29.3839C4.01767 31.3504 3.79003 32.9076 3.79003 34.0443C3.79003 35.181 3.93799 36.3178 4.24531 37.6022C4.54124 38.8867 5.11033 39.9325 5.92983 40.7509C6.86314 41.6262 7.93304 41.9217 9.16229 41.6489C10.3915 41.3761 11.6322 40.7509 12.8955 39.762C14.1476 38.7844 15.4223 37.5681 16.7085 36.1245C17.9946 34.6809 19.1784 33.2146 20.271 31.7482C21.3637 30.2705 22.3198 28.9064 23.1393 27.6561C23.9587 26.4057 24.562 25.4963 24.9376 24.9507C26.0872 23.257 27.0091 21.5633 27.7262 19.881C28.4318 18.1873 29.2513 16.4482 30.1846 14.6408C31.0041 13.9815 31.8123 13.7769 32.5976 14.027C33.3943 14.2771 33.9521 14.9136 34.2821 15.948V16.6073L34.2025 17.3462C33.1098 21.1087 32.1423 24.928 31.2887 28.8041C30.435 32.6803 29.5814 36.5792 28.705 40.5122C30.2871 39.421 31.9033 38.3979 33.5423 37.4431C35.1813 36.4883 37.0707 35.4652 39.1991 34.374C39.5861 34.2603 39.9389 34.2831 40.269 34.4195C40.5991 34.5559 40.8153 34.7491 40.9292 34.9878C41.043 35.2379 41.0544 35.5107 40.9747 35.8062C40.895 36.1018 40.656 36.3632 40.2804 36.5792C37.6626 37.9432 35.4089 39.2504 33.5195 40.5122C31.6301 41.7739 29.7408 43.1607 27.8286 44.6839C27.4416 46.2071 27.066 47.7075 26.679 49.1852C26.292 50.663 25.8823 52.1293 25.4498 53.607C25.1766 54.5846 24.7669 55.9373 24.2205 57.6537C23.6742 59.3701 23.0368 61.132 22.297 62.928C21.5572 64.724 20.7491 66.429 19.884 68.0432C19.0076 69.6573 18.1085 70.8394 17.1751 71.601C16.6857 71.9761 16.2418 72.3399 15.8662 72.6695C15.4792 72.9992 15.115 73.2947 14.7622 73.5675C14.4093 73.8403 14.011 74.1132 13.5785 74.386C13.1459 74.6588 12.6224 74.9088 12.0191 75.1248C10.0501 75.8864 8.22897 76.1478 6.56721 75.8978C4.90546 75.6477 3.53963 75.068 2.46973 74.1359C1.39983 73.2038 0.716918 71.9761 0.420989 70.453C0.125059 68.9298 0.352697 67.2361 1.11528 65.3833C1.71852 63.8032 2.61769 62.4051 3.82418 61.2116C5.01927 60.0067 6.16885 58.8927 7.26151 57.8583C9.28749 56.0055 11.3818 54.1072 13.5671 52.1748C15.7524 50.231 17.915 48.4805 20.0434 46.9005C20.6466 46.4685 21.1816 46.0593 21.6368 45.6728C22.1035 45.2977 22.5815 44.934 23.071 44.6043L23.7311 41.899L25.6205 31.9187L25.2108 32.4871C24.2319 33.8511 23.1734 35.3061 22.058 36.8634C20.9425 38.4207 19.6905 39.8529 18.3247 41.1601C16.9589 42.4673 15.4679 43.5472 13.863 44.3883C12.2468 45.2409 10.4598 45.6615 8.49075 45.6615C7.18184 45.6615 5.98674 45.2295 4.92822 44.3542C3.85832 43.479 2.95915 42.4332 2.21933 41.2056C1.47951 39.9779 0.921792 38.6707 0.534808 37.2726C0.147823 35.8858 -0.0115235 34.6354 0.045386 33.5442C0.159205 29.9977 0.955938 26.2693 2.45835 22.3704C3.96076 18.4715 6.03226 14.8909 8.68425 11.6513C11.3362 8.40031 14.5118 5.71769 18.2337 3.59206C21.9442 1.46642 26.0985 0.43202 30.6854 0.477488C31.5619 0.477488 32.3927 0.625259 33.1895 0.932169C33.9862 1.22771 34.635 1.62556 35.1585 2.11434C35.6821 2.60312 36.0349 3.16011 36.2284 3.79666C36.4219 4.42185 36.4105 5.06977 36.1829 5.71769L36.1488 5.72906ZM18.1995 60.8137C18.9052 59.0632 19.5767 57.2104 20.2027 55.2439C20.8287 53.2774 21.3864 51.3109 21.8872 49.3557C21.8303 49.3557 21.8076 49.3785 21.8076 49.4353C20.9881 50.0946 20.0434 50.8789 18.9849 51.811C17.915 52.7431 16.8451 53.7207 15.7524 54.7551C14.6597 55.7895 13.5898 56.8012 12.5541 57.7787C11.5183 58.7563 10.585 59.6315 9.76553 60.3931C8.88912 61.2684 8.25173 61.9163 7.84199 62.3596C7.43224 62.7916 7.09078 63.1894 6.81761 63.5418C6.54445 63.8942 6.27128 64.3148 5.99812 64.8149C5.72495 65.3037 5.29244 66.0425 4.6892 67.0201C4.41603 67.4521 4.23392 68.1341 4.15425 69.0662C4.07458 69.9983 4.08596 70.6803 4.19978 71.1123C4.96237 71.7715 5.85015 72.0102 6.86314 71.8511C7.87613 71.692 8.84359 71.4646 9.77691 71.1918C10.8127 70.8622 11.7687 70.2938 12.6451 69.4754C13.5216 68.657 14.3069 67.7476 15.024 66.7359C15.7296 65.7243 16.3556 64.6899 16.9134 63.6214C17.4597 62.5529 17.8922 61.6208 18.2223 60.8023L18.1995 60.8137ZM42.2153 20.87C42.5454 20.7563 42.9096 20.8017 43.3194 20.995C43.7291 21.1882 44.0933 21.4269 44.4234 21.7338C44.7535 22.0408 45.0266 22.3704 45.2429 22.7569C45.4592 23.1434 45.573 23.4389 45.573 23.6549C45.6299 23.814 45.5616 24.0755 45.3681 24.4278C45.1746 24.7802 45.0039 25.0985 44.8331 25.3713C44.4462 26.1329 44.0933 26.8717 43.7633 27.5765C43.4332 28.2813 43.1372 28.9974 42.8641 29.7021C43.2966 29.0997 43.8202 28.429 44.4234 27.7015C45.0266 26.9627 45.6982 26.292 46.4266 25.7009C47.1664 25.0985 47.929 24.5983 48.7258 24.1891C49.5225 23.7799 50.3534 23.598 51.2298 23.6549C52.2086 23.7117 53.0053 24.0073 53.6086 24.5529C54.2118 25.0985 54.5078 26.0306 54.5078 27.3378C54.5078 29.0883 54.1208 30.6456 53.3582 31.9983C52.5956 33.3623 51.059 34.5104 48.7713 35.4311C47.6217 35.9767 46.199 36.386 44.5145 36.6588C43.8088 36.386 43.4901 36.0904 43.5698 35.7608C43.6494 35.4311 43.7519 35.2151 43.8543 35.1015L45.6526 34.1239C46.9047 33.4646 47.7924 32.7485 48.316 31.9528C48.8396 31.1571 49.2038 30.4637 49.4201 29.8613C49.6363 29.202 49.716 28.5768 49.6705 27.9743C49.5566 27.6447 49.3859 27.4515 49.1355 27.406C48.8851 27.3492 48.7144 27.3492 48.6006 27.406C48.2705 27.5651 47.8607 27.8152 47.3713 28.1449C46.8819 28.4745 46.29 29.0201 45.6071 29.7817C44.9242 30.5433 44.1161 31.5663 43.1942 32.8508C42.2608 34.1353 41.2251 35.7835 40.0755 37.8068C39.8023 38.7844 39.5519 39.7733 39.3357 40.7509C39.1194 41.7285 38.9259 42.7174 38.7666 43.695C38.5503 44.843 38.63 46.0934 39.017 47.4574C39.0739 47.7871 39.0056 48.0258 38.8121 48.1963C38.6186 48.3554 38.3796 48.4464 38.0723 48.4464C37.765 48.4464 37.4463 48.3668 37.0935 48.1963C36.7406 48.0372 36.4561 47.8098 36.2284 47.537C36.0691 47.1051 35.9325 46.7413 35.8187 46.4685C35.7049 46.1957 35.6252 45.9456 35.5683 45.7297C35.5114 45.5137 35.5 45.275 35.5228 45.0363C35.5455 44.7976 35.5683 44.4793 35.5683 44.0928C35.7845 40.1143 36.5471 36.0904 37.8674 32.021C39.1763 27.9516 40.6218 24.2346 42.2153 20.8472V20.87ZM71.9562 33.8852C71.8993 34.4877 71.8424 34.9992 71.7969 35.4425C71.74 35.8744 71.6603 36.2723 71.5465 36.6247C71.4326 36.977 71.3074 37.3521 71.1822 37.7273C71.0457 38.1137 70.8977 38.5684 70.727 39.114C69.9644 40.4781 69.1676 41.5807 68.3481 42.4332C67.5286 43.2857 66.7205 43.945 65.9352 44.4338C65.1385 44.9226 64.41 45.2636 63.7271 45.4569C63.0442 45.6501 62.5092 45.7751 62.1336 45.8206C62.0198 45.8206 61.7466 45.8661 61.3141 45.9456C60.8816 46.0252 60.3694 46.0252 59.8003 45.9456C59.2313 45.8661 58.628 45.6274 58.002 45.2522C57.376 44.8658 56.7841 44.2178 56.2378 43.2857C55.9077 42.7401 55.7825 41.7171 55.8736 40.2166C55.9533 38.7162 56.272 37.0111 56.8183 35.1015C57.0345 34.2262 57.4215 33.135 57.9679 31.8278C58.3548 30.8957 58.8784 29.8613 59.5613 28.7132C60.2442 27.5651 61.041 26.508 61.9401 25.5191C62.8393 24.5301 63.8637 23.7117 65.0133 23.0183C66.1628 22.3363 67.4376 21.9953 68.8603 21.9953C69.4067 21.9953 69.8733 22.1885 70.2489 22.5636C70.6359 22.9501 70.8749 23.4162 70.9887 23.9504C71.0457 24.0641 71.0457 24.2687 70.9887 24.5642C70.9318 24.8598 70.8749 25.1212 70.8294 25.3372C70.5562 26.2693 70.2262 26.6899 69.8506 26.6103C69.4636 26.5307 69.2246 26.383 69.1107 26.1556C69.1107 25.826 69.0652 25.5418 68.9855 25.2917C68.9059 25.0417 68.8034 24.928 68.701 24.928C68.5416 24.9848 67.9384 25.5645 66.9026 26.6899C65.8669 27.8038 64.797 29.327 63.7043 31.2367C62.771 32.8735 61.9857 34.5218 61.3255 36.1927C60.6654 37.8637 60.3467 39.4778 60.3467 41.0578C60.3467 41.7171 60.4605 42.3423 60.6768 42.9447C60.893 43.5472 61.3369 43.8427 61.9857 43.8427H62.3954C63.7612 43.4676 64.8767 42.8765 65.7531 42.0808C66.6295 41.2851 67.3124 40.444 67.8018 39.546C68.2912 38.648 68.6441 37.75 68.8717 36.8406C69.088 35.9426 69.2245 35.1924 69.2815 34.59C67.8587 34.7036 66.9026 34.5218 66.4132 34.0557C65.9238 33.5897 65.7076 33.0213 65.7531 32.3393C65.81 31.6573 66.0262 30.9866 66.4132 30.3387C66.7888 29.6794 67.1758 29.1906 67.5628 28.861C67.836 28.5882 68.2343 28.304 68.7465 27.9971C69.2701 27.7015 69.6912 27.5424 70.0213 27.5424C70.727 27.4287 71.2619 27.5992 71.6147 28.0312C71.9676 28.4631 72.07 29.2361 71.8993 30.3273C72.605 30.1114 73.4472 29.759 74.4033 29.2588C75.3594 28.77 75.9171 28.4631 76.0878 28.3608C77.0212 27.8152 77.7837 27.3151 78.387 26.849C78.9902 26.383 79.6731 25.9396 80.4357 25.4963C81.1983 25.2235 81.5853 25.5191 81.5853 26.3943C81.5853 26.7808 81.4715 27.0991 81.2552 27.3719C79.8325 28.9519 78.3301 30.2137 76.748 31.1344C75.1659 32.0665 73.5838 32.9645 71.9904 33.8397L71.9562 33.8852ZM69.6684 30.2023C69.5091 30.0431 69.2701 30.1114 68.9742 30.4069C68.6782 30.7024 68.5189 30.9411 68.5189 31.1003C68.462 31.3731 68.4734 31.5663 68.5644 31.6686C68.6441 31.7823 68.7579 31.8278 68.8945 31.8278C69.0311 31.8278 69.1676 31.805 69.3042 31.7482C69.4408 31.6914 69.5319 31.6345 69.5888 31.5891C69.7481 31.2594 69.7823 30.7934 69.6684 30.2023ZM88.7559 22.3477C89.0291 22.1885 89.3819 22.1885 89.8258 22.3477C90.2583 22.5068 90.6567 22.7569 91.0095 23.0865C91.3623 23.4162 91.6469 23.7799 91.8745 24.1891C92.0908 24.5983 92.1249 24.9621 91.9542 25.2917C90.7022 27.531 89.4843 30.0886 88.312 32.9872C87.1397 35.8744 86.4112 39.1027 86.1381 42.6492C87.3332 40.5804 88.6648 38.4093 90.1103 36.1472C91.5558 33.8852 92.9786 31.6232 94.3672 29.3498C95.7558 27.0877 97.0533 24.8939 98.2598 22.7569C99.4663 20.6199 100.445 18.6875 101.208 16.9483C101.265 16.6187 101.299 16.3459 101.333 16.1299C101.356 15.9139 101.424 15.6638 101.538 15.391C101.925 14.7886 102.403 14.5953 102.972 14.8227C103.541 15.0387 103.78 15.4479 103.666 16.0503C103.78 16.3231 103.746 16.7323 103.587 17.278C103.427 17.8236 103.222 18.3919 102.972 18.9944C102.721 19.5968 102.482 20.1425 102.232 20.6312C101.982 21.12 101.834 21.4497 101.777 21.6088C101.447 22.2113 100.946 23.2229 100.263 24.6324C99.5801 26.0533 98.772 27.6561 97.85 29.4634C96.9167 31.2594 95.9265 33.1463 94.8566 35.1128C93.7867 37.0793 92.7282 38.8753 91.6583 40.5122C90.5884 42.149 89.5868 43.4903 88.6307 44.5247C87.6746 45.5592 86.8437 46.082 86.1267 46.082C85.5234 46.1389 84.8633 45.9229 84.1576 45.4227C83.4519 44.934 82.9853 44.1951 82.769 43.2175C82.8828 40.9782 83.1219 38.7162 83.5088 36.4201C82.3593 38.8753 81.278 41.0123 80.2764 42.8424C79.2634 44.6725 78.5122 45.6387 78.0228 45.7524C77.4195 45.8092 76.7708 45.5933 76.0537 45.0931C75.348 44.6043 74.8814 43.8655 74.6651 42.8879C74.722 41.0351 74.8927 39.1481 75.2001 37.2385C75.496 35.3288 75.8943 33.4533 76.3838 31.5891C76.8732 29.7362 77.4764 27.9857 78.1821 26.3489C78.8878 24.712 79.7073 23.2684 80.6406 22.0067C80.9138 21.8475 81.2666 21.8475 81.7105 22.0067C82.143 22.1658 82.5414 22.4159 82.8942 22.7455C83.2471 23.0752 83.5316 23.4389 83.7592 23.8481C83.9755 24.2573 84.0096 24.6211 83.8389 24.9507C82.5869 27.19 81.3804 29.6453 80.2309 32.3166C79.0813 34.9878 78.3756 38.1024 78.1024 41.6489C78.9219 40.228 79.6731 38.9776 80.356 37.8864C81.039 36.7952 81.6536 35.7721 82.1999 34.8173C82.7463 33.8625 83.2471 32.9531 83.7137 32.0778C84.1804 31.2026 84.6243 30.2819 85.0682 29.2929L85.7283 27.9857C86.6047 25.8032 87.6177 23.9163 88.7559 22.3363V22.3477ZM137.186 5.97913C137.402 5.60402 137.778 5.25164 138.29 4.9561C138.813 4.66056 139.337 4.42185 139.883 4.26271C140.43 4.10357 140.885 4.03537 141.238 4.0581C141.591 4.09221 141.716 4.29681 141.602 4.67192C141.659 5.00157 141.716 5.21754 141.761 5.33121C141.648 5.54719 141.568 5.87683 141.511 6.30878C141.397 7.24087 141.226 8.13887 140.976 9.01413C140.726 9.88939 140.475 10.7647 140.202 11.6285C141.625 9.55975 143.127 7.62735 144.709 5.8541C146.291 4.08084 147.873 2.64859 149.467 1.55736C150.719 0.73893 151.937 0.250147 153.109 0.0796415C154.281 -0.079497 155.499 7.22112e-05 156.751 0.329716C157.685 0.54569 158.572 1.03447 159.415 1.80743C160.257 2.56902 160.712 3.42155 160.769 4.34228C160.826 5.16071 160.769 6.04734 160.61 7.00217C160.45 7.957 160.223 8.86636 159.95 9.74162C159.676 10.6169 159.381 11.4239 159.05 12.1514C158.72 12.8903 158.447 13.4473 158.231 13.8338C157.628 14.925 157.138 15.7889 156.751 16.4141C156.364 17.0393 155.977 17.619 155.568 18.1305C155.158 18.6534 154.703 19.1763 154.213 19.7219C153.724 20.2675 153.064 21.0291 152.244 22.018C151.208 23.2684 149.968 24.3824 148.511 25.3372C147.065 26.292 145.552 27.1332 143.958 27.872C142.376 28.6109 140.771 29.2588 139.166 29.8385C137.55 30.4069 136.07 30.8843 134.705 31.2708C133.999 33.351 133.236 35.4198 132.451 37.4886C131.654 39.5687 130.869 41.5011 130.072 43.2971C129.275 45.0931 128.501 46.7186 127.739 48.1622C126.976 49.6058 126.259 50.7425 125.61 51.5609L124.95 51.8906C124.518 52.3225 124.074 52.2089 123.641 51.5268C123.209 50.8448 122.936 50.1514 122.822 49.4353C122.822 49.1057 122.936 48.6851 123.152 48.1622C123.368 47.6393 123.619 47.0937 123.892 46.5254C124.165 45.957 124.438 45.4114 124.711 44.8885C124.984 44.3656 125.178 43.945 125.28 43.6154C126.043 41.5921 126.794 39.6597 127.534 37.8068C128.274 35.954 128.991 34.0671 129.708 32.1574C129.321 32.2143 128.98 32.2484 128.684 32.2825C128.388 32.3052 128.069 32.3279 127.739 32.3279C127.033 32.2143 126.623 31.8619 126.51 31.2594C126.396 30.657 126.726 30.2478 127.488 30.0318C128.092 29.9181 128.638 29.8272 129.127 29.7476C129.617 29.668 130.14 29.5657 130.687 29.4634C131.29 27.9857 131.848 26.4853 132.371 24.9621C132.895 23.4389 133.453 21.8475 134.056 20.2107L135.035 16.937C135.251 15.9594 135.444 15.1182 135.604 14.4362C135.763 13.7542 135.922 13.1176 136.059 12.5152C136.196 11.9127 136.321 11.2989 136.423 10.6737C136.537 10.0485 136.64 9.27557 136.753 8.34348C136.81 7.91153 136.822 7.50232 136.799 7.11584C136.765 6.74072 136.89 6.35425 137.163 5.96777L137.186 5.97913ZM137.596 22.0976C137.322 23.0297 137.038 23.9845 136.731 24.9621C136.435 25.9396 136.116 26.9854 135.786 28.0767C141.135 26.2238 145.358 23.5753 148.443 20.1425C151.527 16.7096 153.917 12.7539 155.613 8.27527C155.727 7.94563 155.886 7.40001 156.103 6.63842C156.319 5.87683 156.433 5.29711 156.433 4.922C156.433 4.21724 156.171 3.68299 155.659 3.33061C155.135 2.97824 154.714 2.79636 154.384 2.79636C153.997 2.79636 153.553 2.9896 153.029 3.36472C152.506 3.75119 151.982 4.17177 151.436 4.63782C150.89 5.10387 150.412 5.53582 150.002 5.94503L149.228 6.71799C148.295 7.53642 147.316 8.53672 146.28 9.70752C145.244 10.8783 144.208 12.1628 143.161 13.5496C142.126 14.9364 141.113 16.3686 140.134 17.8463C139.155 19.324 138.301 20.7335 137.596 22.0976ZM164.639 23.814C165.242 24.3028 165.572 24.8598 165.618 25.4963C165.675 26.1215 165.322 26.3261 164.548 26.1102C164.115 25.9965 163.683 25.9169 163.273 25.8601C162.863 25.8032 162.442 25.8601 161.998 26.0192C161.509 26.2352 160.837 26.9058 159.995 28.0198C159.142 29.1338 158.311 30.4296 157.491 31.9073C156.672 33.3851 155.943 34.8969 155.317 36.4542C154.691 38.0114 154.35 39.33 154.293 40.4213C154.293 40.91 154.35 41.3647 154.452 41.7739C154.566 42.1831 154.782 42.3878 155.112 42.3878C155.772 42.3878 156.535 41.9899 157.411 41.2056C158.288 40.4099 159.13 39.4778 159.95 38.3866C160.769 37.2953 161.52 36.1927 162.203 35.0674C162.886 33.9534 163.387 33.0327 163.717 32.3279C163.831 32.0551 163.911 31.8278 163.967 31.6345C164.024 31.4413 164.127 31.2708 164.298 31.1003L164.377 31.0207C164.764 30.4183 165.14 30.0204 165.527 29.8385C165.914 29.6453 166.267 29.6112 166.597 29.7135C166.927 29.8272 167.2 30.1114 167.416 30.5774C167.632 31.0434 167.712 31.6232 167.667 32.3393C167.393 33.3737 167.189 34.4422 167.052 35.5334C166.915 36.6247 166.79 37.9887 166.688 39.6256C166.574 41.7512 166.745 42.8765 167.177 42.9788C167.723 43.138 168.27 43.0925 168.816 42.8197C170.239 42.1149 171.536 41.0919 172.709 39.7506C173.881 38.4093 174.905 37.068 175.782 35.7039C176.214 34.9992 176.67 34.1921 177.136 33.2941C177.603 32.3961 178.138 31.6459 178.73 31.0434C179.06 30.7706 179.333 30.6911 179.549 30.7934C179.766 30.907 179.925 31.1116 180.039 31.4072C180.153 31.7027 180.221 32.0665 180.244 32.4757C180.266 32.8849 180.255 33.2487 180.198 33.5783C180.198 33.6351 180.118 33.817 179.948 34.1125C179.788 34.4081 179.595 34.7491 179.379 35.1356C179.162 35.5221 178.946 35.8858 178.718 36.2382C178.502 36.5906 178.366 36.852 178.309 37.0111C177.876 37.7159 177.398 38.4775 176.875 39.2618C176.351 40.0575 175.793 40.8418 175.19 41.6375C174.587 42.4332 173.961 43.1607 173.301 43.8427C172.64 44.5248 171.958 45.1158 171.252 45.6046C170.649 46.0366 169.943 46.3548 169.123 46.5481C168.304 46.7413 167.507 46.7754 166.745 46.6731C165.925 46.6163 165.311 46.3094 164.901 45.7297C164.491 45.1613 164.206 44.4452 164.036 43.604C163.876 42.7629 163.82 41.7739 163.876 40.66C163.933 39.546 164.036 38.3866 164.206 37.1816C163.774 38.216 163.171 39.2959 162.408 40.4099C161.646 41.5239 160.792 42.5355 159.87 43.4335C158.937 44.3315 157.935 45.059 156.842 45.6046C155.75 46.1502 154.657 46.3662 153.564 46.2639C152.631 46.1502 151.868 45.6387 151.265 44.7066C150.662 43.7745 150.389 42.3082 150.446 40.2848C150.446 39.1368 150.708 37.7841 151.22 36.2382C151.743 34.6809 152.403 33.1236 153.223 31.5777C154.042 30.0204 154.976 28.5768 156.012 27.2355C157.047 25.8942 158.117 24.8711 159.21 24.1664C159.699 23.8367 160.234 23.6094 160.803 23.473C161.372 23.3366 161.941 23.2684 162.488 23.2684C163.467 23.2684 164.184 23.4616 164.616 23.8367L164.639 23.814ZM181.769 23.4048C182.201 22.3136 182.543 21.4042 182.793 20.6653C183.044 19.9265 183.191 19.5059 183.248 19.3922C184.341 16.2777 185.411 13.7201 186.447 11.6968C187.482 9.67342 188.473 8.08203 189.395 6.91123C190.328 5.74043 191.17 4.922 191.933 4.45595C192.695 3.9899 193.356 3.7853 193.902 3.84213C195.051 3.84213 195.757 4.25134 196.03 5.06977C196.303 5.8882 196.224 6.76346 195.78 7.68419L195.529 8.34348C195.256 9.04823 194.824 9.93486 194.221 11.0034C193.617 12.0719 192.912 13.2313 192.092 14.4817C191.273 15.732 190.373 17.062 189.383 18.4488C188.404 19.8356 187.414 21.2223 186.435 22.5864L183.726 31.0207C183.453 31.9983 183.169 32.9758 182.861 33.9307C182.565 34.8855 182.361 35.829 182.247 36.7497C182.19 37.0225 182.122 37.5795 182.042 38.432C181.962 39.2845 181.917 40.1484 181.917 41.0464C181.917 41.9444 182.008 42.7629 182.201 43.5017C182.395 44.2406 182.759 44.6043 183.305 44.6043C183.852 44.6043 184.626 44.0587 185.639 42.9675C186.652 41.8762 187.699 40.5918 188.791 39.1254C189.884 37.6477 190.908 36.1813 191.865 34.7036C192.821 33.2259 193.515 32.1119 193.959 31.3504L194.369 30.9411C194.482 30.8275 194.562 30.782 194.619 30.782C194.733 30.782 194.778 30.8047 194.778 30.8616C194.778 30.9184 194.835 30.998 194.938 31.1117C195.154 31.5436 195.256 31.9983 195.222 32.4643C195.199 32.9304 195.131 33.3737 195.017 33.817C194.858 34.249 194.63 34.6582 194.357 35.0446C193.97 35.7039 193.481 36.4769 192.877 37.3749C192.274 38.2729 191.637 39.1936 190.954 40.1143C190.271 41.0464 189.588 41.9331 188.905 42.7742C188.222 43.6154 187.608 44.3201 187.061 44.8658C186.458 45.4682 185.843 45.8774 185.217 46.0934C184.591 46.3094 184 46.423 183.453 46.423C182.907 46.423 182.304 46.3435 181.655 46.173L180.346 45.4341C179.97 45.1613 179.572 44.8771 179.162 44.5702C178.753 44.2747 178.354 43.8427 177.979 43.2971C177.705 42.922 177.523 42.3536 177.444 41.6148C177.364 40.8759 177.318 40.1257 177.318 39.3641C177.318 39.1481 177.33 38.7844 177.364 38.2615C177.398 37.7386 177.546 36.9088 177.819 35.7608C178.092 34.6127 178.525 33.0554 179.128 31.1003C179.731 29.1338 180.608 26.5762 181.746 23.4048H181.769ZM192.991 6.62705C192.445 7.059 191.762 8.28664 190.943 10.31C190.123 12.3333 189.247 14.6522 188.325 17.2666C189.36 15.7889 190.294 14.4248 191.113 13.1745C191.933 11.9241 192.604 10.8101 193.117 9.85529C193.64 8.90046 193.947 8.1275 194.061 7.52505C194.175 6.9226 194.027 6.54748 193.651 6.37698C193.378 6.37698 193.162 6.45655 192.991 6.62705ZM198.238 39.6142C197.851 39.7279 197.43 39.8529 196.964 39.9779C196.497 40.1143 196.053 40.2166 195.609 40.2621C195.45 40.9214 195.461 41.6148 195.655 42.3536C195.848 43.0925 196.349 43.5358 197.168 43.7063C198.534 43.7063 199.911 43.4562 201.311 42.9675C202.7 42.4787 204.055 41.7967 205.363 40.9214C206.672 40.0461 207.936 39.0345 209.131 37.8978C210.326 36.7497 211.396 35.5221 212.329 34.2149C212.989 33.7829 213.536 33.7602 213.968 34.1694C214.401 34.5786 214.401 35.1128 213.968 35.7608C213.092 36.9657 211.999 38.2274 210.69 39.5687C209.381 40.91 207.958 42.1377 206.433 43.2516C204.908 44.3656 203.303 45.2863 201.642 45.9911C199.98 46.6959 198.375 47.0028 196.85 46.8891C195.427 46.8891 194.255 46.4117 193.321 45.4569C192.388 44.502 191.899 43.2289 191.842 41.6489C191.785 40.444 191.921 39.1254 192.251 37.6818C192.582 36.2382 193.06 34.7946 193.686 33.3396C194.312 31.896 195.04 30.4978 195.86 29.1679C196.679 27.8266 197.544 26.6558 198.443 25.6441C199.342 24.6324 200.264 23.8481 201.186 23.2684C202.12 22.7 203.019 22.4613 203.895 22.575C204.715 22.6887 205.386 22.9388 205.898 23.348C206.422 23.7572 206.832 24.2573 207.128 24.8598C207.424 25.4622 207.617 26.0988 207.697 26.7808C207.776 27.4628 207.788 28.0767 207.742 28.6223C207.31 31.3504 206.308 33.692 204.749 35.6585C203.189 37.625 201.016 38.9322 198.238 39.5915V39.6142ZM204.385 27.9061C204.385 27.7925 204.373 27.4856 204.339 26.9627C204.305 26.4398 204.134 26.1897 203.804 26.1897C203.531 26.1897 203.11 26.4398 202.529 26.9286C201.96 27.4174 201.346 28.2358 200.685 29.3839C199.65 31.0207 198.785 32.5098 198.102 33.8397C197.419 35.181 196.884 36.3973 196.508 37.4772C197.271 37.3181 197.954 37.1021 198.557 36.8179C199.16 36.5451 199.877 36.1131 200.731 35.5107C201.573 34.9082 202.302 34.0671 202.905 32.9758C203.337 32.2143 203.702 31.3958 203.975 30.5206C204.248 29.6453 204.385 28.77 204.385 27.9061ZM223.893 6.70662C224.223 6.59295 224.599 6.58159 225.043 6.66116C225.475 6.74072 225.885 6.8885 226.272 7.11584C226.648 7.33181 226.966 7.58188 227.217 7.85469C227.467 8.1275 227.558 8.37758 227.501 8.59355C227.501 8.75269 227.376 9.01413 227.137 9.36651C226.887 9.71889 226.716 10.0372 226.602 10.31C226.329 10.7419 226.044 11.2421 225.737 11.7877C225.441 12.3333 225.145 12.9017 224.872 13.5041C226.887 13.2313 228.924 13.0267 230.973 12.8903C233.021 12.7539 235.025 12.6857 236.994 12.6857H238.268C238.678 12.6857 239.077 12.7084 239.452 12.7653C240.545 12.8789 241.592 13.129 242.605 13.5382C243.618 13.9474 244.198 14.4476 244.369 15.05C244.483 15.482 244.426 15.8116 244.21 16.0276C243.994 16.2436 243.743 16.4141 243.47 16.5164C243.197 16.63 242.867 16.6414 242.491 16.5618C242.104 16.4823 241.592 16.38 240.932 16.2777C240.272 16.164 239.498 16.0617 238.599 15.948C237.699 15.8344 236.641 15.8116 235.446 15.8685C233.147 15.9821 230.961 16.1072 228.89 16.2322C226.818 16.3686 224.952 16.5505 223.313 16.7665L222.163 19.4718C221.287 21.7111 220.388 23.8595 219.454 25.9396C218.521 28.0198 217.679 30.0545 216.916 32.0778C216.153 34.1012 215.505 36.1472 214.993 38.216C214.469 40.2848 214.184 42.4219 214.127 44.6043C214.071 45.9684 214.378 47.2756 215.027 48.5373C215.3 49.2421 215.152 49.765 214.571 50.0946C214.002 50.4242 213.467 50.3106 212.978 49.765C212.045 48.2872 211.498 46.7413 211.339 45.1045C211.123 42.9788 211.202 40.7623 211.589 38.4775C211.976 36.1927 212.534 33.8511 213.274 31.4754C214.014 29.0997 214.822 26.7581 215.687 24.4392C216.563 22.1203 217.383 19.8469 218.145 17.6076C216.723 17.8804 215.391 18.176 214.127 18.5056C212.875 18.8353 211.373 19.1081 209.62 19.324C209.461 19.2104 209.256 19.0512 209.006 18.8353C208.755 18.6193 208.585 18.4033 208.471 18.176C208.357 17.96 208.323 17.7554 208.345 17.5621C208.38 17.3689 208.607 17.2211 209.04 17.1075C210.679 16.5618 212.363 16.0617 214.082 15.5956C215.801 15.1296 217.565 14.7318 219.363 14.4135C219.636 13.7087 219.944 12.9244 220.308 12.0832C220.661 11.2421 221.048 10.4464 221.457 9.70752C221.867 8.96866 222.277 8.33211 222.687 7.78649C223.096 7.24087 223.495 6.8885 223.87 6.71799L223.893 6.70662ZM234.467 6.70662C234.797 6.59295 235.173 6.58159 235.617 6.66116C236.049 6.74072 236.459 6.8885 236.846 7.11584C237.221 7.33181 237.54 7.58188 237.79 7.85469C238.041 8.1275 238.132 8.37758 238.075 8.59355C238.075 8.75269 237.95 9.01413 237.711 9.36651C237.46 9.71889 237.29 10.0372 237.176 10.31C236.903 10.7419 236.618 11.2421 236.311 11.7877C236.015 12.3333 235.719 12.9017 235.446 13.5041C237.46 13.2313 239.498 13.0267 241.546 12.8903C243.595 12.7539 245.598 12.6857 247.567 12.6857H248.842C249.252 12.6857 249.65 12.7084 250.026 12.7653C251.119 12.8789 252.166 13.129 253.179 13.5382C254.192 13.9474 254.772 14.4476 254.943 15.05C255.057 15.482 255 15.8116 254.784 16.0276C254.567 16.2436 254.317 16.4141 254.044 16.5164C253.771 16.63 253.441 16.6414 253.065 16.5618C252.678 16.4823 252.166 16.38 251.506 16.2777C250.845 16.164 250.072 16.0617 249.172 15.948C248.273 15.8344 247.215 15.8116 246.02 15.8685C243.72 15.9821 241.535 16.1072 239.464 16.2322C237.392 16.3686 235.525 16.5505 233.886 16.7665L232.737 19.4718C231.86 21.7111 230.961 23.8595 230.028 25.9396C229.095 28.0198 228.252 30.0545 227.49 32.0778C226.727 34.1012 226.078 36.1472 225.566 38.216C225.043 40.2848 224.758 42.4219 224.701 44.6043C224.644 45.9684 224.952 47.2756 225.6 48.5373C225.874 49.2421 225.726 49.765 225.145 50.0946C224.576 50.4242 224.041 50.3106 223.552 49.765C222.618 48.2872 222.072 46.7413 221.913 45.1045C221.696 42.9788 221.776 40.7623 222.163 38.4775C222.55 36.1927 223.108 33.8511 223.848 31.4754C224.587 29.0997 225.396 26.7581 226.261 24.4392C227.137 22.1203 227.956 19.8469 228.719 17.6076C227.296 17.8804 225.965 18.176 224.701 18.5056C223.449 18.8353 221.947 19.1081 220.194 19.324C220.035 19.2104 219.83 19.0512 219.579 18.8353C219.329 18.6193 219.158 18.4033 219.044 18.176C218.931 17.96 218.896 17.7554 218.919 17.5621C218.953 17.3689 219.181 17.2211 219.614 17.1075C221.253 16.5618 222.937 16.0617 224.656 15.5956C226.374 15.1296 228.139 14.7318 229.937 14.4135C230.21 13.7087 230.517 12.9244 230.882 12.0832C231.234 11.2421 231.621 10.4464 232.031 9.70752C232.441 8.96866 232.851 8.33211 233.26 7.78649C233.67 7.24087 234.069 6.8885 234.444 6.71799L234.467 6.70662ZM238.064 39.6142C237.677 39.7279 237.255 39.8529 236.789 39.9779C236.322 40.1143 235.878 40.2166 235.434 40.2621C235.275 40.9214 235.286 41.6148 235.48 42.3536C235.673 43.0925 236.174 43.5358 236.994 43.7063C238.36 43.7063 239.737 43.4562 241.137 42.9675C242.525 42.4787 243.88 41.7967 245.189 40.9214C246.498 40.0461 247.761 39.0345 248.956 37.8978C250.151 36.7497 251.221 35.5221 252.154 34.2149C252.815 33.7829 253.361 33.7602 253.793 34.1694C254.226 34.5786 254.226 35.1128 253.793 35.7608C252.917 36.9657 251.824 38.2274 250.515 39.5687C249.206 40.91 247.784 42.1377 246.259 43.2516C244.733 44.3656 243.129 45.2863 241.467 45.9911C239.805 46.6959 238.2 47.0028 236.675 46.8891C235.252 46.8891 234.08 46.4117 233.147 45.4569C232.213 44.502 231.724 43.2289 231.667 41.6489C231.61 40.444 231.747 39.1254 232.077 37.6818C232.407 36.2382 232.885 34.7946 233.511 33.3396C234.137 31.896 234.865 30.4978 235.685 29.1679C236.504 27.8266 237.369 26.6558 238.268 25.6441C239.168 24.6324 240.09 23.8481 241.012 23.2684C241.945 22.7 242.844 22.4613 243.72 22.575C244.54 22.6887 245.211 22.9388 245.724 23.348C246.247 23.7572 246.657 24.2573 246.953 24.8598C247.249 25.4622 247.442 26.0988 247.522 26.7808C247.602 27.4628 247.613 28.0767 247.567 28.6223C247.135 31.3504 246.133 33.692 244.574 35.6585C243.015 37.625 240.841 38.9322 238.064 39.5915V39.6142ZM244.21 27.9061C244.21 27.7925 244.198 27.4856 244.164 26.9627C244.13 26.4398 243.959 26.1897 243.629 26.1897C243.356 26.1897 242.935 26.4398 242.355 26.9286C241.785 27.4174 241.171 28.2358 240.511 29.3839C239.475 31.0207 238.61 32.5098 237.927 33.8397C237.244 35.181 236.709 36.3973 236.334 37.4772C237.096 37.3181 237.779 37.1021 238.382 36.8179C238.986 36.5451 239.703 36.1131 240.556 35.5107C241.399 34.9082 242.127 34.0671 242.73 32.9758C243.163 32.2143 243.527 31.3958 243.8 30.5206C244.073 29.6453 244.21 28.77 244.21 27.9061Z" fill="url(#paint0_linear_406_12895)"/>
</g>
<defs>
<linearGradient id="paint0_linear_406_12895" x1="-0.000141562" y1="38.0001" x2="255" y2="38.0001" gradientUnits="userSpaceOnUse">
<stop stop-color="#9FC7C0"/>
<stop offset="1" stop-color="#C9BC9C"/>
</linearGradient>
<clipPath id="clip0_406_12895">
<rect width="255" height="76" fill="white"/>
</clipPath>
</defs>
</svg>
