<svg width="342" height="14" viewBox="0 0 342 14" fill="none" xmlns="http://www.w3.org/2000/svg">
<path d="M3.48 1.916C5.076 1.916 6.204 3.392 6.204 5.696C6.204 8.012 5.076 9.488 3.48 9.488C1.884 9.488 0.756 8.012 0.756 5.696C0.756 3.392 1.884 1.916 3.48 1.916ZM3.48 2.816C2.424 2.816 1.704 3.944 1.704 5.696C1.704 7.46 2.424 8.612 3.48 8.612C4.524 8.612 5.256 7.46 5.256 5.696C5.256 3.944 4.524 2.816 3.48 2.816ZM7.932 1.088H8.94V11.936H7.932V1.088ZM8.7 5.42H10.716V6.26H8.7V5.42ZM14.5191 2.204H15.3471V3.068C15.3471 5.06 14.1231 6.728 12.2991 7.376L11.7831 6.596C13.4151 6.02 14.5191 4.604 14.5191 3.068V2.204ZM14.7111 2.204H15.5391V3.068C15.5391 4.532 16.6671 5.852 18.2751 6.392L17.7591 7.172C15.9591 6.56 14.7111 4.964 14.7111 3.068V2.204ZM19.5231 1.088H20.5311V7.652H19.5231V1.088ZM13.2831 8.228H20.5311V11.936H19.5231V9.044H13.2831V8.228ZM12.0471 1.844H17.9871V2.648H12.0471V1.844ZM32.3496 6.75195V9.875C32.2441 10.0312 32.0762 10.207 31.8457 10.4023C31.6152 10.5938 31.2969 10.7617 30.8906 10.9062C30.4883 11.0469 29.9688 11.1172 29.332 11.1172C28.8125 11.1172 28.334 11.0273 27.8965 10.8477C27.4629 10.6641 27.0859 10.3984 26.7656 10.0508C26.4492 9.69922 26.2031 9.27344 26.0273 8.77344C25.8555 8.26953 25.7695 7.69922 25.7695 7.0625V6.40039C25.7695 5.76367 25.8438 5.19531 25.9922 4.69531C26.1445 4.19531 26.3672 3.77148 26.6602 3.42383C26.9531 3.07227 27.3125 2.80664 27.7383 2.62695C28.1641 2.44336 28.6523 2.35156 29.2031 2.35156C29.8555 2.35156 30.4004 2.46484 30.8379 2.69141C31.2793 2.91406 31.623 3.22266 31.8691 3.61719C32.1191 4.01172 32.2793 4.46094 32.3496 4.96484H31.2188C31.168 4.65625 31.0664 4.375 30.9141 4.12109C30.7656 3.86719 30.5527 3.66406 30.2754 3.51172C29.998 3.35547 29.6406 3.27734 29.2031 3.27734C28.8086 3.27734 28.4668 3.34961 28.1777 3.49414C27.8887 3.63867 27.6504 3.8457 27.4629 4.11523C27.2754 4.38477 27.1348 4.71094 27.041 5.09375C26.9512 5.47656 26.9062 5.9082 26.9062 6.38867V7.0625C26.9062 7.55469 26.9629 7.99414 27.0762 8.38086C27.1934 8.76758 27.3594 9.09766 27.5742 9.37109C27.7891 9.64062 28.0449 9.8457 28.3418 9.98633C28.6426 10.127 28.9746 10.1973 29.3379 10.1973C29.7402 10.1973 30.0664 10.1641 30.3164 10.0977C30.5664 10.0273 30.7617 9.94531 30.9023 9.85156C31.043 9.75391 31.1504 9.66211 31.2246 9.57617V7.66602H29.25V6.75195H32.3496ZM35.1445 5.65625V11H34.0605V4.66016H35.1152L35.1445 5.65625ZM37.125 4.625L37.1191 5.63281C37.0293 5.61328 36.9434 5.60156 36.8613 5.59766C36.7832 5.58984 36.6934 5.58594 36.5918 5.58594C36.3418 5.58594 36.1211 5.625 35.9297 5.70312C35.7383 5.78125 35.5762 5.89062 35.4434 6.03125C35.3105 6.17188 35.2051 6.33984 35.127 6.53516C35.0527 6.72656 35.0039 6.9375 34.9805 7.16797L34.6758 7.34375C34.6758 6.96094 34.7129 6.60156 34.7871 6.26562C34.8652 5.92969 34.9844 5.63281 35.1445 5.375C35.3047 5.11328 35.5078 4.91016 35.7539 4.76562C36.0039 4.61719 36.3008 4.54297 36.6445 4.54297C36.7227 4.54297 36.8125 4.55273 36.9141 4.57227C37.0156 4.58789 37.0859 4.60547 37.125 4.625ZM37.7227 7.90039V7.76562C37.7227 7.30859 37.7891 6.88477 37.9219 6.49414C38.0547 6.09961 38.2461 5.75781 38.4961 5.46875C38.7461 5.17578 39.0488 4.94922 39.4043 4.78906C39.7598 4.625 40.1582 4.54297 40.5996 4.54297C41.0449 4.54297 41.4453 4.625 41.8008 4.78906C42.1602 4.94922 42.4648 5.17578 42.7148 5.46875C42.9688 5.75781 43.1621 6.09961 43.2949 6.49414C43.4277 6.88477 43.4941 7.30859 43.4941 7.76562V7.90039C43.4941 8.35742 43.4277 8.78125 43.2949 9.17188C43.1621 9.5625 42.9688 9.9043 42.7148 10.1973C42.4648 10.4863 42.1621 10.7129 41.8066 10.877C41.4551 11.0371 41.0566 11.1172 40.6113 11.1172C40.166 11.1172 39.7656 11.0371 39.4102 10.877C39.0547 10.7129 38.75 10.4863 38.4961 10.1973C38.2461 9.9043 38.0547 9.5625 37.9219 9.17188C37.7891 8.78125 37.7227 8.35742 37.7227 7.90039ZM38.8066 7.76562V7.90039C38.8066 8.2168 38.8438 8.51562 38.918 8.79688C38.9922 9.07422 39.1035 9.32031 39.252 9.53516C39.4043 9.75 39.5938 9.91992 39.8203 10.0449C40.0469 10.166 40.3105 10.2266 40.6113 10.2266C40.9082 10.2266 41.168 10.166 41.3906 10.0449C41.6172 9.91992 41.8047 9.75 41.9531 9.53516C42.1016 9.32031 42.2129 9.07422 42.2871 8.79688C42.3652 8.51562 42.4043 8.2168 42.4043 7.90039V7.76562C42.4043 7.45312 42.3652 7.1582 42.2871 6.88086C42.2129 6.59961 42.0996 6.35156 41.9473 6.13672C41.7988 5.91797 41.6113 5.74609 41.3848 5.62109C41.1621 5.49609 40.9004 5.43359 40.5996 5.43359C40.3027 5.43359 40.041 5.49609 39.8145 5.62109C39.5918 5.74609 39.4043 5.91797 39.252 6.13672C39.1035 6.35156 38.9922 6.59961 38.918 6.88086C38.8438 7.1582 38.8066 7.45312 38.8066 7.76562ZM46.459 9.875L48.0879 4.66016H48.8027L48.6621 5.69727L47.0039 11H46.3066L46.459 9.875ZM45.3633 4.66016L46.752 9.93359L46.8516 11H46.1191L44.2793 4.66016H45.3633ZM50.3613 9.89258L51.6855 4.66016H52.7637L50.9238 11H50.1973L50.3613 9.89258ZM48.9609 4.66016L50.5547 9.78711L50.7363 11H50.0449L48.3398 5.68555L48.1992 4.66016H48.9609ZM60.1641 7.6543H57.8848V6.73438H60.1641C60.6055 6.73438 60.9629 6.66406 61.2363 6.52344C61.5098 6.38281 61.709 6.1875 61.834 5.9375C61.9629 5.6875 62.0273 5.40234 62.0273 5.08203C62.0273 4.78906 61.9629 4.51367 61.834 4.25586C61.709 3.99805 61.5098 3.79102 61.2363 3.63477C60.9629 3.47461 60.6055 3.39453 60.1641 3.39453H58.1484V11H57.0176V2.46875H60.1641C60.8086 2.46875 61.3535 2.58008 61.7988 2.80273C62.2441 3.02539 62.582 3.33398 62.8125 3.72852C63.043 4.11914 63.1582 4.56641 63.1582 5.07031C63.1582 5.61719 63.043 6.08398 62.8125 6.4707C62.582 6.85742 62.2441 7.15234 61.7988 7.35547C61.3535 7.55469 60.8086 7.6543 60.1641 7.6543ZM68.0918 9.91602V6.65234C68.0918 6.40234 68.041 6.18555 67.9395 6.00195C67.8418 5.81445 67.6934 5.66992 67.4941 5.56836C67.2949 5.4668 67.0488 5.41602 66.7559 5.41602C66.4824 5.41602 66.2422 5.46289 66.0352 5.55664C65.832 5.65039 65.6719 5.77344 65.5547 5.92578C65.4414 6.07812 65.3848 6.24219 65.3848 6.41797H64.3008C64.3008 6.19141 64.3594 5.9668 64.4766 5.74414C64.5938 5.52148 64.7617 5.32031 64.9805 5.14062C65.2031 4.95703 65.4688 4.8125 65.7773 4.70703C66.0898 4.59766 66.4375 4.54297 66.8203 4.54297C67.2812 4.54297 67.6875 4.62109 68.0391 4.77734C68.3945 4.93359 68.6719 5.16992 68.8711 5.48633C69.0742 5.79883 69.1758 6.19141 69.1758 6.66406V9.61719C69.1758 9.82812 69.1934 10.0527 69.2285 10.291C69.2676 10.5293 69.3242 10.7344 69.3984 10.9062V11H68.2676C68.2129 10.875 68.1699 10.709 68.1387 10.502C68.1074 10.291 68.0918 10.0957 68.0918 9.91602ZM68.2793 7.15625L68.291 7.91797H67.1953C66.8867 7.91797 66.6113 7.94336 66.3691 7.99414C66.127 8.04102 65.9238 8.11328 65.7598 8.21094C65.5957 8.30859 65.4707 8.43164 65.3848 8.58008C65.2988 8.72461 65.2559 8.89453 65.2559 9.08984C65.2559 9.28906 65.3008 9.4707 65.3906 9.63477C65.4805 9.79883 65.6152 9.92969 65.7949 10.0273C65.9785 10.1211 66.2031 10.168 66.4688 10.168C66.8008 10.168 67.0938 10.0977 67.3477 9.95703C67.6016 9.81641 67.8027 9.64453 67.9512 9.44141C68.1035 9.23828 68.1855 9.04102 68.1973 8.84961L68.6602 9.37109C68.6328 9.53516 68.5586 9.7168 68.4375 9.91602C68.3164 10.1152 68.1543 10.3066 67.9512 10.4902C67.752 10.6699 67.5137 10.8203 67.2363 10.9414C66.9629 11.0586 66.6543 11.1172 66.3105 11.1172C65.8809 11.1172 65.5039 11.0332 65.1797 10.8652C64.8594 10.6973 64.6094 10.4727 64.4297 10.1914C64.2539 9.90625 64.166 9.58789 64.166 9.23633C64.166 8.89648 64.2324 8.59766 64.3652 8.33984C64.498 8.07812 64.6895 7.86133 64.9395 7.68945C65.1895 7.51367 65.4902 7.38086 65.8418 7.29102C66.1934 7.20117 66.5859 7.15625 67.0195 7.15625H68.2793ZM72.0586 2V11H70.9688V2H72.0586ZM76.4297 11.1172C75.9883 11.1172 75.5879 11.043 75.2285 10.8945C74.873 10.7422 74.5664 10.5293 74.3086 10.2559C74.0547 9.98242 73.8594 9.6582 73.7227 9.2832C73.5859 8.9082 73.5176 8.49805 73.5176 8.05273V7.80664C73.5176 7.29102 73.5938 6.83203 73.7461 6.42969C73.8984 6.02344 74.1055 5.67969 74.3672 5.39844C74.6289 5.11719 74.9258 4.9043 75.2578 4.75977C75.5898 4.61523 75.9336 4.54297 76.2891 4.54297C76.7422 4.54297 77.1328 4.62109 77.4609 4.77734C77.793 4.93359 78.0645 5.15234 78.2754 5.43359C78.4863 5.71094 78.6426 6.03906 78.7441 6.41797C78.8457 6.79297 78.8965 7.20312 78.8965 7.64844V8.13477H74.1621V7.25H77.8125V7.16797C77.7969 6.88672 77.7383 6.61328 77.6367 6.34766C77.5391 6.08203 77.3828 5.86328 77.168 5.69141C76.9531 5.51953 76.6602 5.43359 76.2891 5.43359C76.043 5.43359 75.8164 5.48633 75.6094 5.5918C75.4023 5.69336 75.2246 5.8457 75.0762 6.04883C74.9277 6.25195 74.8125 6.5 74.7305 6.79297C74.6484 7.08594 74.6074 7.42383 74.6074 7.80664V8.05273C74.6074 8.35352 74.6484 8.63672 74.7305 8.90234C74.8164 9.16406 74.9395 9.39453 75.0996 9.59375C75.2637 9.79297 75.4609 9.94922 75.6914 10.0625C75.9258 10.1758 76.1914 10.2324 76.4883 10.2324C76.8711 10.2324 77.1953 10.1543 77.4609 9.99805C77.7266 9.8418 77.959 9.63281 78.1582 9.37109L78.8145 9.89258C78.6777 10.0996 78.5039 10.2969 78.293 10.4844C78.082 10.6719 77.8223 10.8242 77.5137 10.9414C77.209 11.0586 76.8477 11.1172 76.4297 11.1172ZM82.8164 4.66016V5.49219H79.3887V4.66016H82.8164ZM80.5488 3.11914H81.6328V9.42969C81.6328 9.64453 81.666 9.80664 81.7324 9.91602C81.7988 10.0254 81.8848 10.0977 81.9902 10.1328C82.0957 10.168 82.209 10.1855 82.3301 10.1855C82.4199 10.1855 82.5137 10.1777 82.6113 10.1621C82.7129 10.1426 82.7891 10.127 82.8398 10.1152L82.8457 11C82.7598 11.0273 82.6465 11.0527 82.5059 11.0762C82.3691 11.1035 82.2031 11.1172 82.0078 11.1172C81.7422 11.1172 81.498 11.0645 81.2754 10.959C81.0527 10.8535 80.875 10.6777 80.7422 10.4316C80.6133 10.1816 80.5488 9.8457 80.5488 9.42383V3.11914ZM86.7422 4.66016V5.49219H83.3145V4.66016H86.7422ZM84.4746 3.11914H85.5586V9.42969C85.5586 9.64453 85.5918 9.80664 85.6582 9.91602C85.7246 10.0254 85.8105 10.0977 85.916 10.1328C86.0215 10.168 86.1348 10.1855 86.2559 10.1855C86.3457 10.1855 86.4395 10.1777 86.5371 10.1621C86.6387 10.1426 86.7148 10.127 86.7656 10.1152L86.7715 11C86.6855 11.0273 86.5723 11.0527 86.4316 11.0762C86.2949 11.1035 86.1289 11.1172 85.9336 11.1172C85.668 11.1172 85.4238 11.0645 85.2012 10.959C84.9785 10.8535 84.8008 10.6777 84.668 10.4316C84.5391 10.1816 84.4746 9.8457 84.4746 9.42383V3.11914ZM90.6445 11.1172C90.2031 11.1172 89.8027 11.043 89.4434 10.8945C89.0879 10.7422 88.7812 10.5293 88.5234 10.2559C88.2695 9.98242 88.0742 9.6582 87.9375 9.2832C87.8008 8.9082 87.7324 8.49805 87.7324 8.05273V7.80664C87.7324 7.29102 87.8086 6.83203 87.9609 6.42969C88.1133 6.02344 88.3203 5.67969 88.582 5.39844C88.8438 5.11719 89.1406 4.9043 89.4727 4.75977C89.8047 4.61523 90.1484 4.54297 90.5039 4.54297C90.957 4.54297 91.3477 4.62109 91.6758 4.77734C92.0078 4.93359 92.2793 5.15234 92.4902 5.43359C92.7012 5.71094 92.8574 6.03906 92.959 6.41797C93.0605 6.79297 93.1113 7.20312 93.1113 7.64844V8.13477H88.377V7.25H92.0273V7.16797C92.0117 6.88672 91.9531 6.61328 91.8516 6.34766C91.7539 6.08203 91.5977 5.86328 91.3828 5.69141C91.168 5.51953 90.875 5.43359 90.5039 5.43359C90.2578 5.43359 90.0312 5.48633 89.8242 5.5918C89.6172 5.69336 89.4395 5.8457 89.291 6.04883C89.1426 6.25195 89.0273 6.5 88.9453 6.79297C88.8633 7.08594 88.8223 7.42383 88.8223 7.80664V8.05273C88.8223 8.35352 88.8633 8.63672 88.9453 8.90234C89.0312 9.16406 89.1543 9.39453 89.3145 9.59375C89.4785 9.79297 89.6758 9.94922 89.9062 10.0625C90.1406 10.1758 90.4062 10.2324 90.7031 10.2324C91.0859 10.2324 91.4102 10.1543 91.6758 9.99805C91.9414 9.8418 92.1738 9.63281 92.373 9.37109L93.0293 9.89258C92.8926 10.0996 92.7188 10.2969 92.5078 10.4844C92.2969 10.6719 92.0371 10.8242 91.7285 10.9414C91.4238 11.0586 91.0625 11.1172 90.6445 11.1172ZM97.6668 1.868C99.3588 1.868 100.571 2.912 100.571 4.424C100.571 5.948 99.3588 6.992 97.6668 6.992C95.9748 6.992 94.7508 5.948 94.7508 4.424C94.7508 2.912 95.9748 1.868 97.6668 1.868ZM97.6668 2.732C96.5388 2.732 95.7228 3.416 95.7228 4.424C95.7228 5.432 96.5388 6.128 97.6668 6.128C98.7828 6.128 99.5988 5.432 99.5988 4.424C99.5988 3.416 98.7828 2.732 97.6668 2.732ZM101.987 1.076H102.983V11.948H101.987V1.076ZM94.3428 9.572L94.1988 8.744C96.1788 8.744 98.9148 8.732 101.279 8.36L101.363 9.092C98.9268 9.56 96.2748 9.572 94.3428 9.572ZM111.25 7.592H112.258V9.38H111.25V7.592ZM116.002 1.088H116.998V11.936H116.002V1.088ZM108.358 9.872L108.226 9.044C110.278 9.032 112.978 9.008 115.318 8.708L115.39 9.44C112.978 9.848 110.362 9.872 108.358 9.872ZM108.454 2.408H115.042V3.212H108.454V2.408ZM111.742 3.836C113.302 3.836 114.358 4.628 114.358 5.84C114.358 7.064 113.302 7.844 111.742 7.844C110.194 7.844 109.138 7.064 109.138 5.84C109.138 4.628 110.194 3.836 111.742 3.836ZM111.742 4.604C110.77 4.604 110.086 5.096 110.086 5.84C110.086 6.584 110.77 7.076 111.742 7.076C112.726 7.076 113.41 6.584 113.41 5.84C113.41 5.096 112.726 4.604 111.742 4.604ZM111.25 1.088H112.246V2.852H111.25V1.088ZM122.277 6.548H123.273V8.96H122.277V6.548ZM127.089 1.088H128.085V9.344H127.089V1.088ZM120.681 10.88H128.349V11.696H120.681V10.88ZM120.681 8.54H121.677V11.108H120.681V8.54ZM119.277 6.92L119.145 6.104C121.149 6.104 123.837 6.08 126.141 5.78L126.213 6.512C123.873 6.884 121.245 6.92 119.277 6.92ZM124.881 7.496H127.341V8.228H124.881V7.496ZM122.673 1.532C124.257 1.532 125.337 2.276 125.337 3.416C125.337 4.568 124.257 5.312 122.673 5.312C121.077 5.312 119.997 4.568 119.997 3.416C119.997 2.276 121.077 1.532 122.673 1.532ZM122.673 2.276C121.653 2.276 120.945 2.72 120.945 3.416C120.945 4.112 121.653 4.556 122.673 4.556C123.681 4.556 124.389 4.112 124.389 3.416C124.389 2.72 123.681 2.276 122.673 2.276ZM138.117 1.076H139.113V11.948H138.117V1.076ZM133.389 1.916C134.997 1.916 136.149 3.392 136.149 5.696C136.149 8.012 134.997 9.488 133.389 9.488C131.793 9.488 130.641 8.012 130.641 5.696C130.641 3.392 131.793 1.916 133.389 1.916ZM133.389 2.816C132.333 2.816 131.589 3.944 131.589 5.696C131.589 7.46 132.333 8.612 133.389 8.612C134.457 8.612 135.189 7.46 135.189 5.696C135.189 3.944 134.457 2.816 133.389 2.816ZM147.14 1.916C148.736 1.916 149.864 3.392 149.864 5.696C149.864 8.012 148.736 9.488 147.14 9.488C145.544 9.488 144.416 8.012 144.416 5.696C144.416 3.392 145.544 1.916 147.14 1.916ZM147.14 2.816C146.084 2.816 145.364 3.944 145.364 5.696C145.364 7.46 146.084 8.612 147.14 8.612C148.184 8.612 148.916 7.46 148.916 5.696C148.916 3.944 148.184 2.816 147.14 2.816ZM151.592 1.088H152.6V11.936H151.592V1.088ZM152.36 5.42H154.376V6.26H152.36V5.42ZM163.183 1.088H164.179V11.936H163.183V1.088ZM155.983 2.144H156.967V8.864H155.983V2.144ZM155.983 8.276H156.871C158.515 8.276 160.231 8.156 162.067 7.772L162.187 8.624C160.303 9.008 158.587 9.14 156.871 9.14H155.983V8.276ZM174.222 1.1H175.23V9.044H174.222V1.1ZM168.258 10.88H175.554V11.696H168.258V10.88ZM168.258 8.312H169.242V11.264H168.258V8.312ZM169.158 1.688H169.986V2.792C169.986 4.904 168.786 6.752 166.962 7.496L166.446 6.692C168.078 6.056 169.158 4.472 169.158 2.792V1.688ZM169.338 1.688H170.154V2.792C170.154 4.424 171.246 5.9 172.866 6.488L172.338 7.292C170.538 6.596 169.338 4.856 169.338 2.792V1.688ZM184.709 1.076H185.717V11.936H184.709V1.076ZM185.441 5.48H187.445V6.308H185.441V5.48ZM181.937 2.252H182.909C182.909 5.336 181.493 8.12 177.989 9.884L177.437 9.116C180.437 7.592 181.937 5.276 181.937 2.408V2.252ZM177.941 2.252H182.453V3.068H177.941V2.252ZM190.816 6.668H191.8V9.92H190.816V6.668ZM194.824 6.668H195.82V9.92H194.824V6.668ZM188.416 9.728H198.244V10.556H188.416V9.728ZM193.312 1.772C195.604 1.772 197.248 2.864 197.248 4.568C197.248 6.26 195.604 7.352 193.312 7.352C191.008 7.352 189.364 6.26 189.364 4.568C189.364 2.864 191.008 1.772 193.312 1.772ZM193.312 2.564C191.572 2.564 190.324 3.356 190.324 4.568C190.324 5.768 191.572 6.56 193.312 6.56C195.052 6.56 196.288 5.768 196.288 4.568C196.288 3.356 195.052 2.564 193.312 2.564ZM202.037 8.59766H200.947C200.951 8.22266 200.984 7.91602 201.047 7.67773C201.113 7.43555 201.221 7.21484 201.369 7.01562C201.518 6.81641 201.715 6.58984 201.961 6.33594C202.141 6.15234 202.305 5.98047 202.453 5.82031C202.605 5.65625 202.729 5.48047 202.822 5.29297C202.916 5.10156 202.963 4.87305 202.963 4.60742C202.963 4.33789 202.914 4.10547 202.816 3.91016C202.723 3.71484 202.582 3.56445 202.395 3.45898C202.211 3.35352 201.982 3.30078 201.709 3.30078C201.482 3.30078 201.268 3.3418 201.064 3.42383C200.861 3.50586 200.697 3.63281 200.572 3.80469C200.447 3.97266 200.383 4.19336 200.379 4.4668H199.295C199.303 4.02539 199.412 3.64648 199.623 3.33008C199.838 3.01367 200.127 2.77148 200.49 2.60352C200.854 2.43555 201.26 2.35156 201.709 2.35156C202.205 2.35156 202.627 2.44141 202.975 2.62109C203.326 2.80078 203.594 3.05859 203.777 3.39453C203.961 3.72656 204.053 4.12109 204.053 4.57812C204.053 4.92969 203.98 5.25391 203.836 5.55078C203.695 5.84375 203.514 6.11914 203.291 6.37695C203.068 6.63477 202.832 6.88086 202.582 7.11523C202.367 7.31445 202.223 7.53906 202.148 7.78906C202.074 8.03906 202.037 8.30859 202.037 8.59766ZM200.9 10.4551C200.9 10.2793 200.955 10.1309 201.064 10.0098C201.174 9.88867 201.332 9.82812 201.539 9.82812C201.75 9.82812 201.91 9.88867 202.02 10.0098C202.129 10.1309 202.184 10.2793 202.184 10.4551C202.184 10.623 202.129 10.7676 202.02 10.8887C201.91 11.0098 201.75 11.0703 201.539 11.0703C201.332 11.0703 201.174 11.0098 201.064 10.8887C200.955 10.7676 200.9 10.623 200.9 10.4551Z" fill="black"/>
<path d="M278.684 7.592H279.692V9.38H278.684V7.592ZM283.436 1.088H284.432V11.936H283.436V1.088ZM275.792 9.872L275.66 9.044C277.712 9.032 280.412 9.008 282.752 8.708L282.824 9.44C280.412 9.848 277.796 9.872 275.792 9.872ZM275.888 2.408H282.476V3.212H275.888V2.408ZM279.176 3.836C280.736 3.836 281.792 4.628 281.792 5.84C281.792 7.064 280.736 7.844 279.176 7.844C277.628 7.844 276.572 7.064 276.572 5.84C276.572 4.628 277.628 3.836 279.176 3.836ZM279.176 4.604C278.204 4.604 277.52 5.096 277.52 5.84C277.52 6.584 278.204 7.076 279.176 7.076C280.16 7.076 280.844 6.584 280.844 5.84C280.844 5.096 280.16 4.604 279.176 4.604ZM278.684 1.088H279.68V2.852H278.684V1.088ZM289.711 6.548H290.707V8.96H289.711V6.548ZM294.523 1.088H295.519V9.344H294.523V1.088ZM288.115 10.88H295.783V11.696H288.115V10.88ZM288.115 8.54H289.111V11.108H288.115V8.54ZM286.711 6.92L286.579 6.104C288.583 6.104 291.271 6.08 293.575 5.78L293.647 6.512C291.307 6.884 288.679 6.92 286.711 6.92ZM292.315 7.496H294.775V8.228H292.315V7.496ZM290.107 1.532C291.691 1.532 292.771 2.276 292.771 3.416C292.771 4.568 291.691 5.312 290.107 5.312C288.511 5.312 287.431 4.568 287.431 3.416C287.431 2.276 288.511 1.532 290.107 1.532ZM290.107 2.276C289.087 2.276 288.379 2.72 288.379 3.416C288.379 4.112 289.087 4.556 290.107 4.556C291.115 4.556 291.823 4.112 291.823 3.416C291.823 2.72 291.115 2.276 290.107 2.276ZM305.01 1.076H306.018V11.936H305.01V1.076ZM305.742 5.48H307.746V6.308H305.742V5.48ZM302.238 2.252H303.21C303.21 5.336 301.794 8.12 298.29 9.884L297.738 9.116C300.738 7.592 302.238 5.276 302.238 2.408V2.252ZM298.242 2.252H302.754V3.068H298.242V2.252ZM316.601 1.088H317.609V6.908H316.601V1.088ZM310.613 7.448H311.597V8.768H316.625V7.448H317.609V11.792H310.613V7.448ZM311.597 9.56V10.988H316.625V9.56H311.597ZM311.789 1.604C313.433 1.604 314.609 2.624 314.609 4.1C314.609 5.588 313.433 6.608 311.789 6.608C310.145 6.608 308.957 5.588 308.957 4.1C308.957 2.624 310.145 1.604 311.789 1.604ZM311.789 2.432C310.709 2.432 309.929 3.116 309.929 4.1C309.929 5.084 310.709 5.768 311.789 5.768C312.869 5.768 313.649 5.084 313.649 4.1C313.649 3.116 312.869 2.432 311.789 2.432ZM327.1 1.088H328.096V11.936H327.1V1.088ZM327.856 5.54H329.872V6.38H327.856V5.54ZM319.696 2.816H326.092V3.632H319.696V2.816ZM322.936 4.532C324.472 4.532 325.576 5.564 325.576 7.028C325.576 8.492 324.472 9.524 322.936 9.524C321.412 9.524 320.296 8.492 320.296 7.028C320.296 5.564 321.412 4.532 322.936 4.532ZM322.936 5.36C321.952 5.36 321.244 6.044 321.244 7.028C321.244 8 321.952 8.696 322.936 8.696C323.92 8.696 324.628 8 324.628 7.028C324.628 6.044 323.92 5.36 322.936 5.36ZM322.42 1.22H323.416V3.188H322.42V1.22ZM338.691 1.088H339.687V11.936H338.691V1.088ZM335.511 2.252H336.495C336.495 5.396 335.079 8.144 331.455 9.92L330.927 9.116C334.059 7.604 335.511 5.3 335.511 2.42V2.252ZM331.419 2.252H335.943V3.068H331.419V2.252Z" fill="black"/>
<path d="M275 12.8H341.235V13.4H275V12.8Z" fill="black"/>
</svg>
