<svg width="342" height="42" viewBox="0 0 342 42" fill="none" xmlns="http://www.w3.org/2000/svg">
<rect x="0.25" y="0.25" width="341.5" height="41.5" rx="2.75" stroke="#6F6F6F" stroke-width="0.5"/>
<path d="M316.5 12C318.224 12 319.877 12.6848 321.096 13.9038C322.315 15.1228 323 16.7761 323 18.5C323 20.11 322.41 21.59 321.44 22.73L321.71 23H322.5L327.5 28L326 29.5L321 24.5V23.71L320.73 23.44C319.59 24.41 318.11 25 316.5 25C314.776 25 313.123 24.3152 311.904 23.0962C310.685 21.8772 310 20.2239 310 18.5C310 16.7761 310.685 15.1228 311.904 13.9038C313.123 12.6848 314.776 12 316.5 12ZM316.5 14C314 14 312 16 312 18.5C312 21 314 23 316.5 23C319 23 321 21 321 18.5C321 16 319 14 316.5 14Z" fill="#6F6F6F"/>
</svg>
