<svg width="342" height="36" viewBox="0 0 342 36" fill="none" xmlns="http://www.w3.org/2000/svg">
<path d="M22.5 27L13.5 18L22.5 9" stroke="#222222" stroke-width="2" stroke-linecap="square" stroke-linejoin="round"/>
<rect width="302" height="1" transform="matrix(1 0 0 -1 40 36)" fill="#222222"/>
<path d="M337 9H323C321.895 9 321 9.89543 321 11V25C321 26.1046 321.895 27 323 27H337C338.105 27 339 26.1046 339 25V11C339 9.89543 338.105 9 337 9Z" stroke="black" stroke-width="2" stroke-linecap="round" stroke-linejoin="round"/>
<path d="M327 15L333 21" stroke="black" stroke-width="2" stroke-linecap="square" stroke-linejoin="round"/>
<path d="M333 15L327 21" stroke="black" stroke-width="2" stroke-linecap="square" stroke-linejoin="round"/>
<path d="M45.964 13.248H47.182C47.182 16.44 44.942 18.722 41.302 19.744L40.826 18.834C44.032 17.924 45.964 16.09 45.964 13.738V13.248ZM41.484 13.248H46.748V14.186H41.484V13.248ZM49.94 12.436H51.102V19.66H49.94V12.436ZM47.196 15.684H50.164V16.65H47.196V15.684ZM42.94 20.192H51.102V24.924H42.94V20.192ZM49.968 21.13H44.088V23.972H49.968V21.13ZM56.2249 13.192H57.1489V14.886C57.1489 16.79 56.0709 18.792 54.2089 19.646L53.5789 18.736C55.2309 17.994 56.2249 16.328 56.2249 14.886V13.192ZM56.4069 13.192H57.3309V14.886C57.3309 16.328 58.2689 17.77 59.8929 18.428L59.2769 19.324C57.4429 18.554 56.4069 16.776 56.4069 14.886V13.192ZM63.1269 12.45H64.2329V20.094H63.1269V12.45ZM61.0829 15.726H63.4769V16.692H61.0829V15.726ZM60.4109 12.66H61.5169V20.024H60.4109V12.66ZM55.7489 20.78H64.2329V25.092H63.0849V21.732H55.7489V20.78ZM69.8318 13.402C71.6658 13.402 72.9818 15.124 72.9818 17.812C72.9818 20.514 71.6658 22.236 69.8318 22.236C67.9838 22.236 66.6818 20.514 66.6818 17.812C66.6818 15.124 67.9838 13.402 69.8318 13.402ZM69.8318 14.452C68.6138 14.452 67.7878 15.768 67.7878 17.812C67.7878 19.87 68.6138 21.214 69.8318 21.214C71.0498 21.214 71.8758 19.87 71.8758 17.812C71.8758 15.768 71.0498 14.452 69.8318 14.452ZM75.7258 12.422H76.8738V25.106H75.7258V12.422ZM72.6038 17.252H76.2298V18.204H72.6038V17.252ZM79.3227 18.316H90.8027V19.198H79.3227V18.316ZM80.6807 20.22H89.3607V22.922H81.8707V24.406H80.7227V22.124H88.2267V21.046H80.6807V20.22ZM80.7227 24.098H89.7667V24.938H80.7227V24.098ZM80.7787 12.8H89.3187V15.432H81.9547V16.804H80.8067V14.648H88.1847V13.626H80.7787V12.8ZM80.8067 16.524H89.5567V17.364H80.8067V16.524ZM104.886 12.436H106.062V19.226H104.886V12.436ZM97.9003 19.856H99.0483V21.396H104.914V19.856H106.062V24.924H97.9003V19.856ZM99.0483 22.32V23.986H104.914V22.32H99.0483ZM99.2723 13.038C101.19 13.038 102.562 14.228 102.562 15.95C102.562 17.686 101.19 18.876 99.2723 18.876C97.3543 18.876 95.9683 17.686 95.9683 15.95C95.9683 14.228 97.3543 13.038 99.2723 13.038ZM99.2723 14.004C98.0123 14.004 97.1023 14.802 97.1023 15.95C97.1023 17.098 98.0123 17.896 99.2723 17.896C100.532 17.896 101.442 17.098 101.442 15.95C101.442 14.802 100.532 14.004 99.2723 14.004ZM109.085 18.708H109.995C112.487 18.708 113.719 18.666 115.231 18.4L115.357 19.338C113.789 19.618 112.529 19.66 109.995 19.66H109.085V18.708ZM109.057 13.192H114.517V16.79H110.233V19.282H109.085V15.88H113.369V14.144H109.057V13.192ZM117.807 12.45H118.969V20.22H117.807V12.45ZM115.357 14.312H118.073V15.264H115.357V14.312ZM115.357 16.93H118.073V17.882H115.357V16.93ZM110.499 20.906H118.969V25.12H117.807V21.858H110.499V20.906ZM130.014 12.436H131.176V25.092H130.014V12.436ZM130.896 17.63H133.248V18.61H130.896V17.63ZM121.376 14.452H128.838V15.404H121.376V14.452ZM125.156 16.454C126.948 16.454 128.236 17.658 128.236 19.366C128.236 21.074 126.948 22.278 125.156 22.278C123.378 22.278 122.076 21.074 122.076 19.366C122.076 17.658 123.378 16.454 125.156 16.454ZM125.156 17.42C124.008 17.42 123.182 18.218 123.182 19.366C123.182 20.5 124.008 21.312 125.156 21.312C126.304 21.312 127.13 20.5 127.13 19.366C127.13 18.218 126.304 17.42 125.156 17.42ZM124.554 12.59H125.716V14.886H124.554V12.59ZM139.309 16.958H141.731V17.924H139.309V16.958ZM136.943 13.626H137.853V16.034C137.853 18.68 136.747 21.242 134.899 22.376L134.171 21.494C135.907 20.472 136.943 18.204 136.943 16.034V13.626ZM137.167 13.626H138.063V15.992C138.063 18.022 139.015 20.178 140.681 21.186L140.009 22.096C138.189 20.976 137.167 18.456 137.167 15.992V13.626ZM143.957 12.436H145.077V25.092H143.957V12.436ZM141.395 12.702H142.487V24.462H141.395V12.702ZM150.004 18.946H151.152V22.74H150.004V18.946ZM154.68 18.946H155.842V22.74H154.68V18.946ZM147.204 22.516H158.67V23.482H147.204V22.516ZM152.916 13.234C155.59 13.234 157.508 14.508 157.508 16.496C157.508 18.47 155.59 19.744 152.916 19.744C150.228 19.744 148.31 18.47 148.31 16.496C148.31 14.508 150.228 13.234 152.916 13.234ZM152.916 14.158C150.886 14.158 149.43 15.082 149.43 16.496C149.43 17.896 150.886 18.82 152.916 18.82C154.946 18.82 156.388 17.896 156.388 16.496C156.388 15.082 154.946 14.158 152.916 14.158ZM160.367 23.3301C160.367 23.1159 160.433 22.9359 160.565 22.79C160.702 22.6396 160.898 22.5645 161.153 22.5645C161.409 22.5645 161.602 22.6396 161.734 22.79C161.871 22.9359 161.939 23.1159 161.939 23.3301C161.939 23.5397 161.871 23.7174 161.734 23.8633C161.602 24.0091 161.409 24.082 161.153 24.082C160.898 24.082 160.702 24.0091 160.565 23.8633C160.433 23.7174 160.367 23.5397 160.367 23.3301Z" fill="#DFDFDF"/>
</svg>
