<svg width="390" height="42" viewBox="0 0 390 42" fill="none" xmlns="http://www.w3.org/2000/svg">
<path d="M88.588 18.672H89.75V20.926H88.588V18.672ZM94.398 13.436H95.56V20.884H94.398V13.436ZM85.298 19.064L85.158 18.196C87.594 18.196 90.688 18.182 93.39 17.874L93.46 18.63C90.688 19.036 87.664 19.064 85.298 19.064ZM87.076 21.346H95.56V23.978H88.238V25.406H87.104V23.208H94.412V22.186H87.076V21.346ZM87.104 25.112H95.98V25.952H87.104V25.112ZM91.878 19.456H94.762V20.212H91.878V19.456ZM89.246 13.674C91.122 13.674 92.354 14.402 92.354 15.578C92.354 16.754 91.122 17.482 89.246 17.482C87.356 17.482 86.124 16.754 86.124 15.578C86.124 14.402 87.356 13.674 89.246 13.674ZM89.246 14.486C88 14.486 87.202 14.906 87.202 15.578C87.202 16.25 88 16.67 89.246 16.67C90.464 16.67 91.262 16.25 91.262 15.578C91.262 14.906 90.464 14.486 89.246 14.486ZM106.731 13.436H107.893V22.69H106.731V13.436ZM107.529 17.272H109.769V18.238H107.529V17.272ZM103.273 14.416H104.505C104.505 17.692 102.209 20.086 98.5829 21.248L98.0789 20.296C101.271 19.316 103.273 17.356 103.273 14.92V14.416ZM98.5969 14.416H103.861V15.368H98.5969V14.416ZM99.9969 24.86H108.453V25.812H99.9969V24.86ZM99.9969 21.752H101.159V25.238H99.9969V21.752Z" fill="black"/>
<path d="M286.052 15.41H289.86V16.362H286.052V15.41ZM286.052 18.448H289.86V19.4H286.052V18.448ZM289.44 13.45H290.602V22.802H289.44V13.45ZM282.524 24.86H290.952V25.812H282.524V24.86ZM282.524 21.836H283.686V25.28H282.524V21.836ZM283.644 14.248C285.506 14.248 286.906 15.55 286.906 17.412C286.906 19.274 285.506 20.576 283.644 20.576C281.782 20.576 280.382 19.274 280.382 17.412C280.382 15.55 281.782 14.248 283.644 14.248ZM283.644 15.27C282.412 15.27 281.502 16.166 281.502 17.412C281.502 18.672 282.412 19.568 283.644 19.568C284.876 19.568 285.8 18.672 285.8 17.412C285.8 16.166 284.876 15.27 283.644 15.27ZM301.731 13.436H302.893V22.69H301.731V13.436ZM302.529 17.272H304.769V18.238H302.529V17.272ZM298.273 14.416H299.505C299.505 17.692 297.209 20.086 293.583 21.248L293.079 20.296C296.271 19.316 298.273 17.356 298.273 14.92V14.416ZM293.597 14.416H298.861V15.368H293.597V14.416ZM294.997 24.86H303.453V25.812H294.997V24.86ZM294.997 21.752H296.159V25.238H294.997V21.752Z" fill="#DFDFDF"/>
<rect x="195" y="40" width="195" height="2" fill="#DFDFDF"/>
<rect y="40" width="195" height="2" fill="black"/>
</svg>
