<svg width="97" height="36" viewBox="0 0 97 36" fill="none" xmlns="http://www.w3.org/2000/svg">
<rect width="97" height="36" rx="3" fill="#F5F5F5"/>
<path d="M21.8037 13.0332H21.9131V14.1064H21.8037C21.1338 14.1064 20.5732 14.2158 20.1221 14.4346C19.6709 14.6488 19.3132 14.9382 19.0488 15.3027C18.7845 15.6628 18.5931 16.0684 18.4746 16.5195C18.3607 16.9707 18.3037 17.4287 18.3037 17.8936V19.3564C18.3037 19.7985 18.3561 20.1904 18.4609 20.5322C18.5658 20.8695 18.7093 21.1543 18.8916 21.3867C19.0739 21.6191 19.279 21.7946 19.5068 21.9131C19.7393 22.0316 19.9808 22.0908 20.2314 22.0908C20.5231 22.0908 20.7829 22.0361 21.0107 21.9268C21.2386 21.8128 21.43 21.6556 21.585 21.4551C21.7445 21.25 21.8652 21.0085 21.9473 20.7305C22.0293 20.4525 22.0703 20.1471 22.0703 19.8145C22.0703 19.5182 22.0339 19.2334 21.9609 18.96C21.888 18.682 21.7764 18.4359 21.626 18.2217C21.4756 18.0029 21.2865 17.832 21.0586 17.709C20.8353 17.5814 20.5687 17.5176 20.2588 17.5176C19.9079 17.5176 19.5798 17.6042 19.2744 17.7773C18.9736 17.946 18.7253 18.1693 18.5293 18.4473C18.3379 18.7207 18.2285 19.0192 18.2012 19.3428L17.5312 19.3359C17.5951 18.8255 17.7135 18.3903 17.8867 18.0303C18.0645 17.6657 18.2832 17.3695 18.543 17.1416C18.8073 16.9092 19.1012 16.7406 19.4248 16.6357C19.7529 16.5264 20.0993 16.4717 20.4639 16.4717C20.9606 16.4717 21.389 16.5651 21.749 16.752C22.109 16.9388 22.4053 17.1895 22.6377 17.5039C22.8701 17.8138 23.041 18.1647 23.1504 18.5566C23.2643 18.944 23.3213 19.3428 23.3213 19.7529C23.3213 20.2223 23.2552 20.6621 23.123 21.0723C22.9909 21.4824 22.7926 21.8424 22.5283 22.1523C22.2686 22.4622 21.9473 22.7038 21.5645 22.877C21.1816 23.0501 20.7373 23.1367 20.2314 23.1367C19.6937 23.1367 19.2243 23.0273 18.8232 22.8086C18.4222 22.5853 18.0895 22.2891 17.8252 21.9199C17.5609 21.5508 17.3626 21.1406 17.2305 20.6895C17.0983 20.2383 17.0322 19.7803 17.0322 19.3154V18.7207C17.0322 18.0189 17.1029 17.3307 17.2441 16.6562C17.3854 15.9818 17.6292 15.3711 17.9756 14.8242C18.3265 14.2773 18.8118 13.8421 19.4316 13.5186C20.0514 13.195 20.8421 13.0332 21.8037 13.0332ZM28.086 16.672H29.248V18.926H28.086V16.672ZM33.896 11.436H35.058V18.884H33.896V11.436ZM24.796 17.064L24.656 16.196C27.092 16.196 30.186 16.182 32.888 15.874L32.958 16.63C30.186 17.036 27.162 17.064 24.796 17.064ZM26.574 19.346H35.058V21.978H27.736V23.406H26.602V21.208H33.91V20.186H26.574V19.346ZM26.602 23.112H35.478V23.952H26.602V23.112ZM31.376 17.456H34.26V18.212H31.376V17.456ZM28.744 11.674C30.62 11.674 31.852 12.402 31.852 13.578C31.852 14.754 30.62 15.482 28.744 15.482C26.854 15.482 25.622 14.754 25.622 13.578C25.622 12.402 26.854 11.674 28.744 11.674ZM28.744 12.486C27.498 12.486 26.7 12.906 26.7 13.578C26.7 14.25 27.498 14.67 28.744 14.67C29.962 14.67 30.76 14.25 30.76 13.578C30.76 12.906 29.962 12.486 28.744 12.486Z" fill="#222222"/>
<path d="M76 15.5L71 20.5L66 15.5" stroke="#222222" stroke-width="2" stroke-linecap="square" stroke-linejoin="round"/>
</svg>
