<svg width="342" height="56" viewBox="0 0 342 56" fill="none" xmlns="http://www.w3.org/2000/svg">
<rect width="342" height="56" rx="3" fill="#C7E2DD"/>
<path d="M167.254 21.422H168.43V34.106H167.254V21.422ZM168.15 26.42H170.502V27.4H168.15V26.42ZM159.232 29.976H160.226C162.564 29.976 164.202 29.892 166.092 29.542L166.218 30.522C164.272 30.886 162.606 30.956 160.226 30.956H159.232V29.976ZM159.232 22.654H165.112V23.606H160.38V30.41H159.232V22.654ZM177.291 21.716C180.021 21.716 181.743 22.612 181.743 24.11C181.743 25.608 180.021 26.49 177.291 26.49C174.547 26.49 172.839 25.608 172.839 24.11C172.839 22.612 174.547 21.716 177.291 21.716ZM177.291 22.64C175.275 22.64 174.029 23.172 174.029 24.11C174.029 25.034 175.275 25.58 177.291 25.58C179.293 25.58 180.553 25.034 180.553 24.11C180.553 23.172 179.293 22.64 177.291 22.64ZM172.965 29.752H181.603V33.924H172.965V29.752ZM180.469 30.69H174.113V32.986H180.469V30.69ZM171.565 27.582H183.003V28.52H171.565V27.582Z" fill="white"/>
</svg>
