<svg width="255" height="101" viewBox="0 0 255 101" fill="none" xmlns="http://www.w3.org/2000/svg">
<g filter="url(#filter0_d_444_17187)">
<rect x="10" y="6" width="235" height="81" rx="5" fill="white" shape-rendering="crispEdges"/>
<path d="M100.844 19.088H101.804V29.936H100.844V19.088ZM99.008 23.432H101.096V24.26H99.008V23.432ZM98.384 19.328H99.32V29.384H98.384V19.328ZM92.984 26.432H93.692C95.276 26.432 96.356 26.372 97.616 26.108L97.712 26.936C96.416 27.212 95.324 27.26 93.692 27.26H92.984V26.432ZM92.984 20.408H97.016V21.224H93.968V26.804H92.984V20.408ZM103.663 20.228H110.071V21.044H103.663V20.228ZM106.867 21.596C108.403 21.596 109.459 22.364 109.459 23.564C109.459 24.752 108.403 25.508 106.867 25.508C105.307 25.508 104.263 24.752 104.263 23.564C104.263 22.364 105.307 21.596 106.867 21.596ZM106.867 22.376C105.871 22.376 105.211 22.832 105.211 23.564C105.211 24.272 105.871 24.74 106.867 24.74C107.839 24.74 108.511 24.272 108.511 23.564C108.511 22.832 107.839 22.376 106.867 22.376ZM111.055 19.088H112.051V25.868H111.055V19.088ZM111.775 22.076H113.659V22.904H111.775V22.076ZM105.007 26.456H112.051V29.936H111.055V27.272H105.007V26.456ZM106.363 19.028H107.359V20.684H106.363V19.028ZM115.357 24.6364C115.357 23.5625 115.496 22.5753 115.774 21.6747C116.055 20.7713 116.456 19.9403 116.976 19.1818H117.862C117.658 19.4631 117.466 19.8097 117.287 20.2216C117.111 20.6307 116.956 21.081 116.822 21.5724C116.689 22.0611 116.584 22.5668 116.507 23.0895C116.433 23.6122 116.396 24.1278 116.396 24.6364C116.396 25.3125 116.462 25.9986 116.592 26.6946C116.723 27.3906 116.899 28.0369 117.121 28.6335C117.342 29.2301 117.589 29.7159 117.862 30.0909H116.976C116.456 29.3324 116.055 28.5028 115.774 27.6023C115.496 26.6989 115.357 25.7102 115.357 24.6364ZM119.329 29V28.233L122.21 25.0795C122.548 24.7102 122.826 24.3892 123.045 24.1165C123.264 23.8409 123.426 23.5824 123.531 23.3409C123.639 23.0966 123.693 22.8409 123.693 22.5739C123.693 22.267 123.619 22.0014 123.471 21.777C123.326 21.5526 123.127 21.3793 122.875 21.2571C122.622 21.1349 122.338 21.0739 122.022 21.0739C121.687 21.0739 121.395 21.1435 121.145 21.2827C120.897 21.419 120.706 21.6108 120.569 21.858C120.436 22.1051 120.369 22.3949 120.369 22.7273H119.363C119.363 22.2159 119.481 21.767 119.717 21.3807C119.953 20.9943 120.274 20.6932 120.68 20.4773C121.089 20.2614 121.548 20.1534 122.056 20.1534C122.568 20.1534 123.021 20.2614 123.416 20.4773C123.811 20.6932 124.12 20.9844 124.345 21.3509C124.569 21.7173 124.681 22.125 124.681 22.5739C124.681 22.8949 124.623 23.2088 124.507 23.5156C124.393 23.8196 124.194 24.1591 123.91 24.5341C123.629 24.9062 123.238 25.3608 122.738 25.8977L120.778 27.9943V28.0625H124.835V29H119.329ZM128.112 27.8068L128.044 28.267C127.995 28.5909 127.922 28.9375 127.822 29.3068C127.725 29.6761 127.625 30.0241 127.52 30.3509C127.414 30.6776 127.328 30.9375 127.26 31.1307H126.493C126.529 30.9489 126.578 30.7088 126.637 30.4105C126.697 30.1122 126.757 29.7784 126.816 29.4091C126.879 29.0426 126.93 28.6676 126.97 28.2841L127.021 27.8068H128.112ZM132.579 29.1193C132.016 29.1193 131.515 29.0227 131.075 28.8295C130.637 28.6364 130.289 28.3679 130.031 28.0241C129.775 27.6776 129.636 27.2756 129.613 26.8182H130.687C130.71 27.0994 130.806 27.3423 130.977 27.5469C131.147 27.7486 131.37 27.9048 131.646 28.0156C131.921 28.1264 132.227 28.1818 132.562 28.1818C132.937 28.1818 133.269 28.1165 133.559 27.9858C133.849 27.8551 134.076 27.6733 134.241 27.4403C134.406 27.2074 134.488 26.9375 134.488 26.6307C134.488 26.3097 134.408 26.027 134.249 25.7827C134.09 25.5355 133.857 25.3423 133.55 25.2031C133.244 25.0639 132.869 24.9943 132.425 24.9943H131.727V24.0568H132.425C132.772 24.0568 133.076 23.9943 133.337 23.8693C133.602 23.7443 133.808 23.5682 133.955 23.3409C134.106 23.1136 134.181 22.8466 134.181 22.5398C134.181 22.2443 134.116 21.9872 133.985 21.7685C133.854 21.5497 133.67 21.3793 133.431 21.2571C133.195 21.1349 132.917 21.0739 132.596 21.0739C132.295 21.0739 132.011 21.1293 131.744 21.2401C131.479 21.348 131.263 21.5057 131.096 21.7131C130.928 21.9176 130.837 22.1648 130.823 22.4545H129.8C129.817 21.9972 129.955 21.5966 130.214 21.2528C130.472 20.9062 130.81 20.6364 131.228 20.4432C131.648 20.25 132.11 20.1534 132.613 20.1534C133.153 20.1534 133.616 20.2628 134.002 20.4815C134.388 20.6974 134.685 20.983 134.893 21.3381C135.1 21.6932 135.204 22.0767 135.204 22.4886C135.204 22.9801 135.075 23.3991 134.816 23.7457C134.56 24.0923 134.212 24.3324 133.772 24.4659V24.5341C134.323 24.625 134.754 24.8594 135.063 25.2372C135.373 25.6122 135.528 26.0767 135.528 26.6307C135.528 27.1051 135.398 27.5312 135.14 27.9091C134.884 28.2841 134.535 28.5795 134.092 28.7955C133.648 29.0114 133.144 29.1193 132.579 29.1193ZM144.887 19.088H145.883V27.128H144.887V19.088ZM141.827 20.504H145.259V21.308H141.827V20.504ZM138.947 28.88H146.171V29.696H138.947V28.88ZM138.947 26.432H139.943V29.252H138.947V26.432ZM137.591 19.88H138.587V24.992H137.591V19.88ZM137.591 24.68H138.407C139.955 24.68 141.407 24.596 143.099 24.296L143.195 25.124C141.455 25.436 140.003 25.508 138.407 25.508H137.591V24.68ZM141.827 22.568H145.259V23.384H141.827V22.568ZM156.25 19.088H157.21V29.936H156.25V19.088ZM152.302 22.976H154.378V23.804H152.302V22.976ZM154.078 19.34H155.014V29.384H154.078V19.34ZM150.214 20.768H150.982V22.148C150.982 24.524 150.07 26.768 148.474 27.776L147.862 27.032C149.374 26.12 150.214 24.14 150.214 22.148V20.768ZM150.418 20.768H151.186V22.148C151.186 24.032 152.002 25.916 153.49 26.78L152.878 27.512C151.294 26.552 150.418 24.416 150.418 22.148V20.768ZM148.162 20.348H153.118V21.176H148.162V20.348ZM161.513 25.3182C161.513 26.392 161.373 27.3807 161.092 28.2841C160.813 29.1847 160.414 30.0142 159.894 30.7727H159.008C159.212 30.4915 159.403 30.1449 159.579 29.733C159.758 29.3239 159.914 28.875 160.048 28.3864C160.181 27.8949 160.285 27.3878 160.359 26.8651C160.435 26.3395 160.474 25.8239 160.474 25.3182C160.474 24.642 160.408 23.956 160.278 23.2599C160.147 22.5639 159.971 21.9176 159.749 21.321C159.528 20.7244 159.281 20.2386 159.008 19.8636H159.894C160.414 20.6222 160.813 21.4531 161.092 22.3565C161.373 23.2571 161.513 24.2443 161.513 25.3182Z" fill="black"/>
<rect width="235" height="1" transform="matrix(1 0 0 -1 10 47)" fill="#DFDFDF"/>
<path d="M105.844 62.088H106.804V72.936H105.844V62.088ZM104.008 66.432H106.096V67.26H104.008V66.432ZM103.384 62.328H104.32V72.384H103.384V62.328ZM97.984 69.432H98.692C100.276 69.432 101.356 69.372 102.616 69.108L102.712 69.936C101.416 70.212 100.324 70.26 98.692 70.26H97.984V69.432ZM97.984 63.408H102.016V64.224H98.968V69.804H97.984V63.408ZM108.663 63.228H115.071V64.044H108.663V63.228ZM111.867 64.596C113.403 64.596 114.459 65.364 114.459 66.564C114.459 67.752 113.403 68.508 111.867 68.508C110.307 68.508 109.263 67.752 109.263 66.564C109.263 65.364 110.307 64.596 111.867 64.596ZM111.867 65.376C110.871 65.376 110.211 65.832 110.211 66.564C110.211 67.272 110.871 67.74 111.867 67.74C112.839 67.74 113.511 67.272 113.511 66.564C113.511 65.832 112.839 65.376 111.867 65.376ZM116.055 62.088H117.051V68.868H116.055V62.088ZM116.775 65.076H118.659V65.904H116.775V65.076ZM110.007 69.456H117.051V72.936H116.055V70.272H110.007V69.456ZM111.363 62.028H112.359V63.684H111.363V62.028ZM120.357 67.6364C120.357 66.5625 120.496 65.5753 120.774 64.6747C121.055 63.7713 121.456 62.9403 121.976 62.1818H122.862C122.658 62.4631 122.466 62.8097 122.287 63.2216C122.111 63.6307 121.956 64.081 121.822 64.5724C121.689 65.0611 121.584 65.5668 121.507 66.0895C121.433 66.6122 121.396 67.1278 121.396 67.6364C121.396 68.3125 121.462 68.9986 121.592 69.6946C121.723 70.3906 121.899 71.0369 122.121 71.6335C122.342 72.2301 122.589 72.7159 122.862 73.0909H121.976C121.456 72.3324 121.055 71.5028 120.774 70.6023C120.496 69.6989 120.357 68.7102 120.357 67.6364ZM124.125 70.2102V69.3409L127.96 63.2727H128.591V64.6193H128.164L125.267 69.2045V69.2727H130.431V70.2102H124.125ZM128.233 72V69.946V69.5412V63.2727H129.238V72H128.233ZM139.645 62.088H140.641V70.128H139.645V62.088ZM136.585 63.504H140.017V64.308H136.585V63.504ZM133.705 71.88H140.929V72.696H133.705V71.88ZM133.705 69.432H134.701V72.252H133.705V69.432ZM132.349 62.88H133.345V67.992H132.349V62.88ZM132.349 67.68H133.165C134.713 67.68 136.165 67.596 137.857 67.296L137.953 68.124C136.213 68.436 134.761 68.508 133.165 68.508H132.349V67.68ZM136.585 65.568H140.017V66.384H136.585V65.568ZM151.008 62.088H151.968V72.936H151.008V62.088ZM147.06 65.976H149.136V66.804H147.06V65.976ZM148.836 62.34H149.772V72.384H148.836V62.34ZM144.972 63.768H145.74V65.148C145.74 67.524 144.828 69.768 143.232 70.776L142.62 70.032C144.132 69.12 144.972 67.14 144.972 65.148V63.768ZM145.176 63.768H145.944V65.148C145.944 67.032 146.76 68.916 148.248 69.78L147.636 70.512C146.052 69.552 145.176 67.416 145.176 65.148V63.768ZM142.92 63.348H147.876V64.176H142.92V63.348ZM156.271 68.3182C156.271 69.392 156.131 70.3807 155.849 71.2841C155.571 72.1847 155.172 73.0142 154.652 73.7727H153.766C153.97 73.4915 154.161 73.1449 154.337 72.733C154.516 72.3239 154.672 71.875 154.805 71.3864C154.939 70.8949 155.043 70.3878 155.116 69.8651C155.193 69.3395 155.232 68.8239 155.232 68.3182C155.232 67.642 155.166 66.956 155.036 66.2599C154.905 65.5639 154.729 64.9176 154.507 64.321C154.286 63.7244 154.038 63.2386 153.766 62.8636H154.652C155.172 63.6222 155.571 64.4531 155.849 65.3565C156.131 66.2571 156.271 67.2443 156.271 68.3182Z" fill="black"/>
</g>
<defs>
<filter id="filter0_d_444_17187" x="0" y="0" width="255" height="101" filterUnits="userSpaceOnUse" color-interpolation-filters="sRGB">
<feFlood flood-opacity="0" result="BackgroundImageFix"/>
<feColorMatrix in="SourceAlpha" type="matrix" values="0 0 0 0 0 0 0 0 0 0 0 0 0 0 0 0 0 0 127 0" result="hardAlpha"/>
<feOffset dy="4"/>
<feGaussianBlur stdDeviation="5"/>
<feComposite in2="hardAlpha" operator="out"/>
<feColorMatrix type="matrix" values="0 0 0 0 0 0 0 0 0 0 0 0 0 0 0 0 0 0 0.1 0"/>
<feBlend mode="normal" in2="BackgroundImageFix" result="effect1_dropShadow_444_17187"/>
<feBlend mode="normal" in="SourceGraphic" in2="effect1_dropShadow_444_17187" result="shape"/>
</filter>
</defs>
</svg>
