<svg width="72" height="24" viewBox="0 0 72 24" fill="none" xmlns="http://www.w3.org/2000/svg">
<path d="M15 18L9 12L15 6" stroke="black" stroke-width="2" stroke-linecap="square" stroke-linejoin="round"/>
<path d="M41.375 12.1797H38.4922L38.4766 10.9688H41.0938C41.526 10.9688 41.9036 10.8958 42.2266 10.75C42.5495 10.6042 42.7995 10.3958 42.9766 10.125C43.1589 9.84896 43.25 9.52083 43.25 9.14062C43.25 8.72396 43.1693 8.38542 43.0078 8.125C42.8516 7.85938 42.6094 7.66667 42.2812 7.54688C41.9583 7.42188 41.5469 7.35938 41.0469 7.35938H38.8281V17.5H37.3203V6.125H41.0469C41.6302 6.125 42.151 6.1849 42.6094 6.30469C43.0677 6.41927 43.4557 6.60156 43.7734 6.85156C44.0964 7.09635 44.3411 7.40885 44.5078 7.78906C44.6745 8.16927 44.7578 8.625 44.7578 9.15625C44.7578 9.625 44.638 10.0495 44.3984 10.4297C44.1589 10.8047 43.8255 11.112 43.3984 11.3516C42.9766 11.5911 42.4818 11.7448 41.9141 11.8125L41.375 12.1797ZM41.3047 17.5H37.8984L38.75 16.2734H41.3047C41.7839 16.2734 42.1901 16.1901 42.5234 16.0234C42.862 15.8568 43.1198 15.6224 43.2969 15.3203C43.474 15.013 43.5625 14.651 43.5625 14.2344C43.5625 13.8125 43.487 13.4479 43.3359 13.1406C43.1849 12.8333 42.9479 12.5964 42.625 12.4297C42.3021 12.263 41.8854 12.1797 41.375 12.1797H39.2266L39.2422 10.9688H42.1797L42.5 11.4062C43.0469 11.4531 43.5104 11.6094 43.8906 11.875C44.2708 12.1354 44.5599 12.4688 44.7578 12.875C44.9609 13.2812 45.0625 13.7292 45.0625 14.2188C45.0625 14.9271 44.9062 15.526 44.5938 16.0156C44.2865 16.5 43.8516 16.8698 43.2891 17.125C42.7266 17.375 42.0651 17.5 41.3047 17.5ZM52.0547 16.0547V11.7031C52.0547 11.3698 51.987 11.0807 51.8516 10.8359C51.7214 10.5859 51.5234 10.3932 51.2578 10.2578C50.9922 10.1224 50.6641 10.0547 50.2734 10.0547C49.9089 10.0547 49.5885 10.1172 49.3125 10.2422C49.0417 10.3672 48.8281 10.5312 48.6719 10.7344C48.5208 10.9375 48.4453 11.1562 48.4453 11.3906H47C47 11.0885 47.0781 10.7891 47.2344 10.4922C47.3906 10.1953 47.6146 9.92708 47.9062 9.6875C48.2031 9.44271 48.5573 9.25 48.9688 9.10938C49.3854 8.96354 49.849 8.89062 50.3594 8.89062C50.974 8.89062 51.5156 8.99479 51.9844 9.20312C52.4583 9.41146 52.8281 9.72656 53.0938 10.1484C53.3646 10.5651 53.5 11.0885 53.5 11.7188V15.6562C53.5 15.9375 53.5234 16.237 53.5703 16.5547C53.6224 16.8724 53.6979 17.1458 53.7969 17.375V17.5H52.2891C52.2161 17.3333 52.1589 17.112 52.1172 16.8359C52.0755 16.5547 52.0547 16.2943 52.0547 16.0547ZM52.3047 12.375L52.3203 13.3906H50.8594C50.4479 13.3906 50.0807 13.4245 49.7578 13.4922C49.4349 13.5547 49.1641 13.651 48.9453 13.7812C48.7266 13.9115 48.5599 14.0755 48.4453 14.2734C48.3307 14.4661 48.2734 14.6927 48.2734 14.9531C48.2734 15.2188 48.3333 15.4609 48.4531 15.6797C48.5729 15.8984 48.7526 16.0729 48.9922 16.2031C49.237 16.3281 49.5365 16.3906 49.8906 16.3906C50.3333 16.3906 50.724 16.2969 51.0625 16.1094C51.401 15.9219 51.6693 15.6927 51.8672 15.4219C52.0703 15.151 52.1797 14.888 52.1953 14.6328L52.8125 15.3281C52.776 15.5469 52.6771 15.7891 52.5156 16.0547C52.3542 16.3203 52.138 16.5755 51.8672 16.8203C51.6016 17.0599 51.2839 17.2604 50.9141 17.4219C50.5495 17.5781 50.138 17.6562 49.6797 17.6562C49.1068 17.6562 48.6042 17.5443 48.1719 17.3203C47.7448 17.0964 47.4115 16.7969 47.1719 16.4219C46.9375 16.0417 46.8203 15.6172 46.8203 15.1484C46.8203 14.6953 46.9089 14.2969 47.0859 13.9531C47.263 13.6042 47.5182 13.3151 47.8516 13.0859C48.1849 12.8516 48.5859 12.6745 49.0547 12.5547C49.5234 12.4349 50.0469 12.375 50.625 12.375H52.3047ZM59.1562 16.4688C59.5 16.4688 59.8177 16.3984 60.1094 16.2578C60.401 16.1172 60.6406 15.9245 60.8281 15.6797C61.0156 15.4297 61.1224 15.1458 61.1484 14.8281H62.5234C62.4974 15.3281 62.3281 15.7943 62.0156 16.2266C61.7083 16.6536 61.3047 17 60.8047 17.2656C60.3047 17.526 59.7552 17.6562 59.1562 17.6562C58.5208 17.6562 57.9661 17.5443 57.4922 17.3203C57.0234 17.0964 56.6328 16.7891 56.3203 16.3984C56.013 16.0078 55.7812 15.5599 55.625 15.0547C55.474 14.5443 55.3984 14.0052 55.3984 13.4375V13.1094C55.3984 12.5417 55.474 12.0052 55.625 11.5C55.7812 10.9896 56.013 10.5391 56.3203 10.1484C56.6328 9.75781 57.0234 9.45052 57.4922 9.22656C57.9661 9.0026 58.5208 8.89062 59.1562 8.89062C59.8177 8.89062 60.3958 9.02604 60.8906 9.29688C61.3854 9.5625 61.7734 9.92708 62.0547 10.3906C62.3411 10.849 62.4974 11.3698 62.5234 11.9531H61.1484C61.1224 11.6042 61.0234 11.2891 60.8516 11.0078C60.6849 10.7266 60.4557 10.5026 60.1641 10.3359C59.8776 10.1641 59.5417 10.0781 59.1562 10.0781C58.7135 10.0781 58.3411 10.1667 58.0391 10.3438C57.7422 10.5156 57.5052 10.75 57.3281 11.0469C57.1562 11.3385 57.0312 11.6641 56.9531 12.0234C56.8802 12.3776 56.8438 12.7396 56.8438 13.1094V13.4375C56.8438 13.8073 56.8802 14.1719 56.9531 14.5312C57.026 14.8906 57.1484 15.2161 57.3203 15.5078C57.4974 15.7995 57.7344 16.0339 58.0312 16.2109C58.3333 16.3828 58.7083 16.4688 59.1562 16.4688ZM65.6016 5.5V17.5H64.1484V5.5H65.6016ZM70.7656 9.04688L67.0781 12.9922L65.0156 15.1328L64.8984 13.5938L66.375 11.8281L69 9.04688H70.7656ZM69.4453 17.5L66.4297 13.4688L67.1797 12.1797L71.1484 17.5H69.4453Z" fill="black"/>
</svg>
