<svg width="342" height="221" viewBox="0 0 342 221" fill="none" xmlns="http://www.w3.org/2000/svg">
<path d="M9.884 29.422H11.046V42.106H9.884V29.422ZM4.368 30.402C6.244 30.402 7.588 32.124 7.588 34.812C7.588 37.514 6.244 39.236 4.368 39.236C2.506 39.236 1.162 37.514 1.162 34.812C1.162 32.124 2.506 30.402 4.368 30.402ZM4.368 31.452C3.136 31.452 2.268 32.768 2.268 34.812C2.268 36.87 3.136 38.214 4.368 38.214C5.614 38.214 6.468 36.87 6.468 34.812C6.468 32.768 5.614 31.452 4.368 31.452ZM14.0269 30.892H18.8569V38.704H14.0269V30.892ZM17.7649 31.816H15.1189V37.78H17.7649V31.816ZM23.2109 29.436H24.3309V42.092H23.2109V29.436ZM18.2689 34.196H21.1809V35.162H18.2689V34.196ZM20.7049 29.702H21.8109V41.462H20.7049V29.702ZM29.9998 29.898C31.8898 29.898 33.2758 31.046 33.2758 32.712C33.2758 34.364 31.8898 35.512 29.9998 35.512C28.1238 35.512 26.7378 34.364 26.7378 32.712C26.7378 31.046 28.1238 29.898 29.9998 29.898ZM29.9998 30.85C28.7818 30.85 27.8578 31.62 27.8578 32.712C27.8578 33.804 28.7818 34.56 29.9998 34.56C31.2318 34.56 32.1418 33.804 32.1418 32.712C32.1418 31.62 31.2318 30.85 29.9998 30.85ZM35.6558 29.436H36.8318V35.918H35.6558V29.436ZM28.6418 36.534H36.8318V39.614H29.8038V41.518H28.6698V38.746H35.6838V37.472H28.6418V36.534ZM28.6698 41H37.2518V41.924H28.6698V41Z" fill="#222222"/>
<line y1="51.75" x2="342" y2="51.75" stroke="#222222" stroke-width="0.5"/>
<path d="M9.884 89.422H11.046V102.106H9.884V89.422ZM1.414 90.5H2.562V93.846H6.216V90.5H7.378V99.054H1.414V90.5ZM2.562 94.77V98.102H6.216V94.77H2.562ZM14.2369 90.136H20.1309V95.316H14.2369V90.136ZM19.0109 91.06H15.3569V94.378H19.0109V91.06ZM22.7769 89.436H23.9389V95.946H22.7769V89.436ZM15.7489 96.576H23.9389V99.642H16.9109V101.42H15.7769V98.774H22.7909V97.5H15.7489V96.576ZM15.7769 101.028H24.3729V101.952H15.7769V101.028ZM32.4218 93.006H36.0618V93.958H32.4218V93.006ZM35.6978 89.45H36.8598V98.816H35.6978V89.45ZM28.7258 100.86H37.1678V101.812H28.7258V100.86ZM28.7258 97.906H29.8878V101.35H28.7258V97.906ZM27.0738 90.276H28.2218V92.516H31.6518V90.276H32.7858V96.66H27.0738V90.276ZM28.2218 93.426V95.708H31.6518V93.426H28.2218ZM39.8967 91.284H50.1727V92.236H39.8967V91.284ZM39.3367 99.656H50.8027V100.622H39.3367V99.656ZM44.4747 97.654H45.6227V100.034H44.4747V97.654ZM45.0347 93.09C47.5967 93.09 49.1787 93.972 49.1787 95.498C49.1787 97.024 47.5967 97.906 45.0347 97.906C42.4867 97.906 40.9047 97.024 40.9047 95.498C40.9047 93.972 42.4867 93.09 45.0347 93.09ZM45.0347 94C43.2007 94 42.0667 94.56 42.0667 95.498C42.0667 96.436 43.2007 96.982 45.0347 96.982C46.8827 96.982 48.0027 96.436 48.0027 95.498C48.0027 94.56 46.8827 94 45.0347 94ZM44.4747 89.646H45.6227V91.872H44.4747V89.646Z" fill="#222222"/>
<line y1="111.75" x2="342" y2="111.75" stroke="#222222" stroke-width="0.5"/>
<rect y="148" width="342" height="45" rx="3" fill="#9FC7C0"/>
<path d="M152.382 174.072H163.848V175.038H152.382V174.072ZM157.506 171.356H158.668V174.478H157.506V171.356ZM153.768 164.874H162.434V168.71H154.958V171.244H153.81V167.772H161.286V165.812H153.768V164.874ZM153.81 170.754H162.728V171.706H153.81V170.754ZM166.493 165.28H174.641V166.218H166.493V165.28ZM165.261 173.778H176.699V174.744H165.261V173.778ZM174.025 165.28H175.159V166.54C175.159 168.164 175.159 169.97 174.683 172.7L173.521 172.588C174.025 169.998 174.025 168.108 174.025 166.54V165.28ZM187.337 163.95H188.513V173.19H187.337V163.95ZM180.379 175.36H188.891V176.312H180.379V175.36ZM180.379 172.238H181.527V175.682H180.379V172.238ZM181.723 164.818C183.613 164.818 185.013 166.106 185.013 167.94C185.013 169.76 183.613 171.062 181.723 171.062C179.833 171.062 178.419 169.76 178.419 167.94C178.419 166.106 179.833 164.818 181.723 164.818ZM181.723 165.826C180.491 165.826 179.553 166.694 179.553 167.94C179.553 169.172 180.491 170.04 181.723 170.04C182.955 170.04 183.893 169.172 183.893 167.94C183.893 166.694 182.955 165.826 181.723 165.826Z" fill="white"/>
</svg>
