<svg width="103" height="31" viewBox="0 0 103 31" fill="none" xmlns="http://www.w3.org/2000/svg">
<g clip-path="url(#clip0_406_13035)">
<path d="M14.6011 2.33678C14.4908 2.62424 14.2793 2.80507 13.9713 2.86998C13.6633 2.93489 13.484 2.82361 13.4426 2.53615C13.4656 2.29041 13.369 2.01222 13.1621 1.70157C12.9507 1.39092 12.7254 1.23328 12.4817 1.23328C11.2037 1.25646 10.0497 1.52074 9.02449 2.0354C7.99927 2.55006 7.0752 3.19454 6.26146 3.97348C5.44312 4.75242 4.73972 5.61946 4.14206 6.57922C3.5444 7.53435 3.05708 8.47557 2.67089 9.39825C2.28471 10.3209 1.99968 11.1833 1.81118 11.9854C1.62269 12.7876 1.53074 13.4228 1.53074 13.8864C1.53074 14.3501 1.59051 14.8137 1.71464 15.3377C1.83417 15.8616 2.06404 16.2882 2.39505 16.622C2.77204 16.979 3.20419 17.0996 3.70071 16.9883C4.19723 16.877 4.69835 16.622 5.20866 16.2186C5.71437 15.8199 6.22928 15.3238 6.74878 14.7349C7.26829 14.1461 7.74642 13.548 8.18777 12.9498C8.62912 12.3471 9.0153 11.7907 9.34631 11.2807C9.67732 10.7707 9.92098 10.3997 10.0727 10.1772C10.537 9.48634 10.9094 8.7955 11.1991 8.10929C11.4841 7.41844 11.8151 6.70905 12.1921 5.97183C12.5231 5.70291 12.8495 5.61946 13.1667 5.72146C13.4886 5.82346 13.7138 6.08311 13.8472 6.50504V6.77396L13.815 7.07533C13.3736 8.61003 12.9828 10.1679 12.638 11.749C12.2932 13.33 11.9484 14.9204 11.5944 16.5246C12.2335 16.0795 12.8863 15.6622 13.5483 15.2728C14.2104 14.8833 14.9735 14.466 15.8332 14.0209C15.9895 13.9745 16.1321 13.9838 16.2654 14.0394C16.3987 14.0951 16.4861 14.1739 16.532 14.2713C16.578 14.3733 16.5826 14.4845 16.5504 14.6051C16.5182 14.7256 16.4217 14.8323 16.27 14.9204C15.2126 15.4768 14.3023 16.01 13.5391 16.5246C12.776 17.0393 12.0128 17.6049 11.2404 18.2262C11.0841 18.8475 10.9324 19.4596 10.7761 20.0623C10.6198 20.6651 10.4543 21.2632 10.2796 21.8659C10.1692 22.2647 10.0037 22.8164 9.78306 23.5166C9.56239 24.2167 9.30493 24.9353 9.0061 25.6679C8.70727 26.4005 8.38086 27.096 8.03146 27.7544C7.67746 28.4128 7.31426 28.895 6.93728 29.2056C6.73959 29.3586 6.56029 29.507 6.40858 29.6414C6.25226 29.7759 6.10515 29.8965 5.96263 30.0077C5.82011 30.119 5.6592 30.2303 5.4845 30.3416C5.3098 30.4528 5.09832 30.5548 4.85466 30.6429C4.05931 30.9536 3.32372 31.0602 2.65251 30.9582C1.98129 30.8562 1.4296 30.6198 0.997443 30.2396C0.565288 29.8594 0.289445 29.3586 0.169912 28.7373C0.0503801 28.116 0.142328 27.4252 0.450353 26.6694C0.694015 26.0249 1.05721 25.4546 1.54453 24.9678C2.02726 24.4763 2.4916 24.0219 2.93295 23.6C3.75128 22.8443 4.5972 22.07 5.4799 21.2817C6.3626 20.4889 7.23611 19.7749 8.09582 19.1304C8.33948 18.9542 8.55556 18.7873 8.73945 18.6296C8.92795 18.4766 9.12104 18.3283 9.31873 18.1938L9.58537 17.0903L10.3485 13.0194L10.183 13.2512C9.78766 13.8076 9.3601 14.4011 8.90956 15.0363C8.45901 15.6715 7.9533 16.2557 7.40161 16.7889C6.84993 17.3221 6.24767 17.7626 5.59943 18.1057C4.9466 18.4534 4.22481 18.625 3.42946 18.625C2.90076 18.625 2.41804 18.4488 1.99048 18.0918C1.55833 17.7348 1.19513 17.3082 0.896301 16.8075C0.59747 16.3067 0.372198 15.7735 0.215886 15.2032C0.0595749 14.6376 -0.00478861 14.1275 0.0181984 13.6824C0.0641723 12.2358 0.38599 10.715 0.992846 9.12469C1.5997 7.53435 2.43643 6.07384 3.50762 4.75242C4.57881 3.42637 5.86149 2.33214 7.36483 1.4651C8.86358 0.598068 10.5416 0.176141 12.3944 0.194688C12.7484 0.194688 13.084 0.254963 13.4058 0.38015C13.7276 0.5007 13.9897 0.66298 14.2012 0.862351C14.4126 1.06172 14.5552 1.28891 14.6333 1.54856C14.7115 1.80357 14.7069 2.06786 14.6149 2.33214L14.6011 2.33678ZM7.35104 24.8055C7.63608 24.0915 7.90733 23.3357 8.16018 22.5336C8.41304 21.7315 8.63831 20.9294 8.8406 20.1319C8.81761 20.1319 8.80841 20.1411 8.80841 20.1643C8.4774 20.4332 8.09582 20.7532 7.66826 21.1334C7.23611 21.5136 6.80395 21.9123 6.3626 22.3342C5.92125 22.7562 5.4891 23.1688 5.07073 23.5676C4.65237 23.9663 4.27538 24.3233 3.94437 24.634C3.59037 24.991 3.33292 25.2553 3.16741 25.4361C3.00191 25.6123 2.86399 25.7746 2.75365 25.9183C2.64331 26.062 2.53297 26.2336 2.42264 26.4376C2.3123 26.637 2.1376 26.9383 1.89393 27.3371C1.7836 27.5133 1.71004 27.7915 1.67786 28.1717C1.64568 28.5519 1.65027 28.83 1.69625 29.0062C2.00427 29.2752 2.36287 29.3725 2.77204 29.3076C3.18121 29.2427 3.57198 29.15 3.94897 29.0387C4.36733 28.9042 4.75351 28.6724 5.10751 28.3386C5.46151 28.0047 5.77873 27.6338 6.06837 27.2212C6.35341 26.8085 6.60626 26.3866 6.83154 25.9507C7.05221 25.5149 7.22691 25.1347 7.36024 24.8009L7.35104 24.8055ZM17.0515 8.51267C17.1849 8.4663 17.332 8.48485 17.4975 8.56367C17.663 8.64249 17.8101 8.73986 17.9434 8.86504C18.0768 8.99023 18.1871 9.12469 18.2744 9.28233C18.3618 9.43998 18.4078 9.56053 18.4078 9.64862C18.4308 9.71353 18.4032 9.82017 18.325 9.96391C18.2469 10.1076 18.1779 10.2375 18.1089 10.3487C17.9526 10.6594 17.8101 10.9608 17.6768 11.2482C17.5435 11.5357 17.4239 11.8278 17.3136 12.1153C17.4883 11.8695 17.6998 11.596 17.9434 11.2992C18.1871 10.9979 18.4583 10.7243 18.7526 10.4832C19.0514 10.2375 19.3594 10.0335 19.6813 9.86654C20.0031 9.69962 20.3387 9.62544 20.6927 9.64862C21.0881 9.6718 21.4099 9.79235 21.6535 10.0149C21.8972 10.2375 22.0167 10.6177 22.0167 11.1509C22.0167 11.8649 21.8604 12.5001 21.5524 13.0519C21.2444 13.6082 20.6237 14.0765 19.6996 14.4521C19.2353 14.6746 18.6606 14.8416 17.9802 14.9528C17.6952 14.8416 17.5665 14.721 17.5986 14.5866C17.6308 14.4521 17.6722 14.364 17.7136 14.3176L18.44 13.9189C18.9457 13.65 19.3043 13.3579 19.5157 13.0333C19.7272 12.7087 19.8743 12.4259 19.9617 12.1802C20.049 11.9113 20.0812 11.6562 20.0628 11.4105C20.0169 11.2761 19.9479 11.1972 19.8468 11.1787C19.7456 11.1555 19.6767 11.1555 19.6307 11.1787C19.4974 11.2436 19.3318 11.3456 19.1342 11.4801C18.9365 11.6145 18.6974 11.8371 18.4216 12.1477C18.1457 12.4584 17.8193 12.8757 17.4469 13.3996C17.0699 13.9235 16.6516 14.5958 16.1872 15.4211C16.0769 15.8199 15.9758 16.2233 15.8884 16.622C15.8011 17.0207 15.7229 17.4241 15.6585 17.8229C15.5712 18.2912 15.6034 18.8012 15.7597 19.3576C15.7827 19.492 15.7551 19.5894 15.6769 19.6589C15.5988 19.7239 15.5022 19.7609 15.3781 19.7609C15.254 19.7609 15.1252 19.7285 14.9827 19.6589C14.8402 19.594 14.7253 19.5013 14.6333 19.39C14.5689 19.2138 14.5138 19.0655 14.4678 18.9542C14.4218 18.8429 14.3897 18.7409 14.3667 18.6528C14.3437 18.5647 14.3391 18.4673 14.3483 18.37C14.3575 18.2726 14.3667 18.1428 14.3667 17.9851C14.454 16.3624 14.762 14.721 15.2953 13.0611C15.824 11.4012 16.4079 9.88509 17.0515 8.50339V8.51267ZM29.0645 13.8215C29.0415 14.0673 29.0186 14.2759 29.0002 14.4567C28.9772 14.6329 28.945 14.7952 28.899 14.9389C28.8531 15.0827 28.8025 15.2357 28.7519 15.3887C28.6967 15.5463 28.637 15.7318 28.568 15.9543C28.26 16.5107 27.9382 16.9605 27.6072 17.3082C27.2761 17.656 26.9497 17.9249 26.6325 18.1242C26.3107 18.3236 26.0165 18.4627 25.7406 18.5415C25.4648 18.6204 25.2487 18.6714 25.097 18.6899C25.051 18.6899 24.9407 18.7084 24.766 18.7409C24.5913 18.7734 24.3844 18.7734 24.1545 18.7409C23.9246 18.7084 23.681 18.6111 23.4281 18.4581C23.1753 18.3004 22.9362 18.0361 22.7155 17.656C22.5822 17.4334 22.5316 17.0161 22.5684 16.4041C22.6006 15.7921 22.7293 15.0966 22.95 14.3176C23.0373 13.9606 23.1937 13.5155 23.4143 12.9823C23.5706 12.6021 23.7821 12.1802 24.058 11.7119C24.3338 11.2436 24.6556 10.8124 25.0188 10.409C25.382 10.0056 25.7958 9.6718 26.2601 9.38897C26.7245 9.11078 27.2394 8.97168 27.814 8.97168C28.0347 8.97168 28.2232 9.05051 28.3749 9.20351C28.5312 9.36116 28.6278 9.55125 28.6738 9.76917C28.6967 9.81554 28.6967 9.899 28.6738 10.0195C28.6508 10.1401 28.6278 10.2467 28.6094 10.3348C28.4991 10.715 28.3657 10.8866 28.214 10.8541C28.0577 10.8217 27.9612 10.7614 27.9152 10.6687C27.9152 10.5342 27.8968 10.4183 27.8646 10.3163C27.8324 10.2143 27.7911 10.1679 27.7497 10.1679C27.6853 10.1911 27.4417 10.4276 27.0233 10.8866C26.6049 11.341 26.1728 11.9623 25.7314 12.7412C25.3544 13.4089 25.0372 14.0812 24.7706 14.7627C24.5039 15.4443 24.3752 16.1027 24.3752 16.7472C24.3752 17.0161 24.4212 17.2711 24.5085 17.5169C24.5959 17.7626 24.7752 17.8831 25.0372 17.8831H25.2027C25.7544 17.7301 26.205 17.489 26.559 17.1645C26.913 16.8399 27.1888 16.4968 27.3865 16.1305C27.5842 15.7642 27.7267 15.3979 27.8186 15.027C27.906 14.6607 27.9612 14.3547 27.9841 14.109C27.4095 14.1554 27.0233 14.0812 26.8256 13.8911C26.6279 13.701 26.5406 13.4691 26.559 13.1909C26.5819 12.9128 26.6693 12.6392 26.8256 12.3749C26.9773 12.106 27.1336 11.9066 27.2899 11.7722C27.4003 11.6609 27.5612 11.545 27.7681 11.4198C27.9795 11.2992 28.1497 11.2343 28.283 11.2343C28.568 11.188 28.7841 11.2575 28.9266 11.4337C29.0691 11.6099 29.1105 11.9252 29.0415 12.3703C29.3266 12.2822 29.6668 12.1385 30.053 11.9344C30.4392 11.7351 30.6644 11.6099 30.7334 11.5682C31.1104 11.3456 31.4184 11.1416 31.6621 10.9515C31.9057 10.7614 32.1816 10.5806 32.4896 10.3997C32.7976 10.2885 32.9539 10.409 32.9539 10.766C32.9539 10.9237 32.908 11.0535 32.8206 11.1648C32.2459 11.8093 31.6391 12.3239 31 12.6995C30.361 13.0797 29.722 13.446 29.0783 13.803L29.0645 13.8215ZM28.1405 12.3193C28.0761 12.2544 27.9795 12.2822 27.86 12.4027C27.7405 12.5233 27.6761 12.6207 27.6761 12.6856C27.6531 12.7968 27.6577 12.8757 27.6945 12.9174C27.7267 12.9638 27.7727 12.9823 27.8278 12.9823C27.883 12.9823 27.9382 12.973 27.9933 12.9498C28.0485 12.9267 28.0853 12.9035 28.1083 12.8849C28.1726 12.7505 28.1864 12.5604 28.1405 12.3193ZM35.8503 9.11542C35.9606 9.05051 36.1031 9.05051 36.2824 9.11542C36.4571 9.18033 36.6181 9.28233 36.7606 9.41679C36.9031 9.55125 37.018 9.69962 37.11 9.86654C37.1973 10.0335 37.2111 10.1818 37.1422 10.3163C36.6364 11.2297 36.1445 12.2729 35.671 13.4552C35.1975 14.6329 34.9032 15.9497 34.7929 17.3963C35.2756 16.5525 35.8135 15.6669 36.3974 14.7442C36.9812 13.8215 37.5559 12.8988 38.1168 11.9715C38.6777 11.0489 39.2018 10.154 39.6891 9.28233C40.1764 8.41066 40.5718 7.62245 40.8798 6.91305C40.9028 6.77859 40.9166 6.66732 40.9304 6.57922C40.9396 6.49113 40.9672 6.38912 41.0132 6.27785C41.1695 6.03211 41.3626 5.95329 41.5924 6.04602C41.8223 6.13411 41.9188 6.30103 41.8729 6.54677C41.9188 6.65804 41.9051 6.82496 41.8407 7.04751C41.7763 7.27007 41.6936 7.5019 41.5924 7.74763C41.4913 7.99337 41.3947 8.21593 41.2936 8.4153C41.1925 8.61467 41.1327 8.74913 41.1097 8.81404C40.9764 9.05978 40.7741 9.47243 40.4983 10.0474C40.2224 10.6269 39.896 11.2807 39.5236 12.0179C39.1466 12.7505 38.7466 13.5201 38.3145 14.3223C37.8823 15.1244 37.4548 15.857 37.0226 16.5246C36.5905 17.1923 36.1859 17.7394 35.7997 18.1613C35.4135 18.5833 35.0779 18.7965 34.7883 18.7965C34.5446 18.8197 34.278 18.7316 33.9929 18.5276C33.7079 18.3283 33.5194 18.0269 33.4321 17.6281C33.478 16.7147 33.5746 15.7921 33.7309 14.8555C33.2666 15.857 32.8298 16.7286 32.4252 17.4751C32.0161 18.2216 31.7126 18.6157 31.5149 18.6621C31.2713 18.6853 31.0092 18.5972 30.7196 18.3932C30.4346 18.1938 30.2461 17.8924 30.1587 17.4937C30.1817 16.7379 30.2507 15.9682 30.3748 15.1893C30.4943 14.4104 30.6552 13.6453 30.8529 12.8849C31.0506 12.1292 31.2943 11.4151 31.5793 10.7475C31.8643 10.0798 32.1954 9.49098 32.5723 8.97632C32.6827 8.91141 32.8252 8.91141 33.0045 8.97632C33.1792 9.04123 33.3401 9.14324 33.4826 9.2777C33.6251 9.41216 33.7401 9.56053 33.832 9.72744C33.9194 9.89436 33.9332 10.0427 33.8642 10.1772C33.3585 11.0906 32.8712 12.0921 32.4068 13.1817C31.9425 14.2713 31.6575 15.5417 31.5471 16.9883C31.8781 16.4087 32.1816 15.8987 32.4574 15.4536C32.7333 15.0085 32.9815 14.5912 33.2022 14.2017C33.4229 13.8122 33.6251 13.4413 33.8136 13.0843C34.0021 12.7273 34.1814 12.3517 34.3607 11.9484L34.6274 11.4151C34.9814 10.5249 35.3905 9.75526 35.8503 9.11078V9.11542ZM55.4122 2.43878C55.4995 2.28577 55.6513 2.14204 55.8581 2.02149C56.0696 1.90094 56.2811 1.80357 56.5018 1.73866C56.7225 1.67375 56.9063 1.64593 57.0489 1.6552C57.1914 1.66911 57.242 1.75257 57.196 1.90558C57.219 2.04004 57.242 2.12813 57.2604 2.1745C57.2144 2.26259 57.1822 2.39705 57.1592 2.57324C57.1132 2.95344 57.0443 3.31973 56.9431 3.67674C56.842 4.03375 56.7408 4.39077 56.6305 4.74315C57.2052 3.89929 57.812 3.11108 58.4511 2.38778C59.0901 1.66448 59.7292 1.08027 60.3728 0.63516C60.8785 0.301328 61.3704 0.101957 61.844 0.0324082C62.3175 -0.0325035 62.8094 -4.76425e-05 63.3151 0.134412C63.6921 0.222507 64.0507 0.421879 64.3909 0.737164C64.7311 1.04781 64.915 1.39556 64.938 1.77112C64.961 2.10495 64.938 2.4666 64.8736 2.85607C64.8093 3.24554 64.7173 3.61646 64.607 3.97348C64.4967 4.33049 64.3771 4.65969 64.2438 4.95643C64.1105 5.2578 64.0001 5.485 63.9128 5.64264C63.6691 6.08775 63.4714 6.44013 63.3151 6.69514C63.1588 6.95015 63.0025 7.18661 62.837 7.39526C62.6715 7.60854 62.4876 7.82182 62.2899 8.04437C62.0922 8.26693 61.8256 8.57758 61.4945 8.98096C61.0762 9.49098 60.5751 9.94536 59.9866 10.3348C59.4027 10.7243 58.7913 11.0674 58.1476 11.3688C57.5086 11.6702 56.8604 11.9344 56.2121 12.1709C55.5593 12.4027 54.9617 12.5975 54.41 12.7551C54.1249 13.6036 53.8169 14.4475 53.4997 15.2913C53.1779 16.1398 52.8606 16.928 52.5388 17.6606C52.217 18.3932 51.9044 19.0562 51.5964 19.645C51.2883 20.2339 50.9987 20.6975 50.7366 21.0314L50.47 21.1658C50.2953 21.342 50.116 21.2956 49.9413 21.0175C49.7666 20.7393 49.6563 20.4564 49.6103 20.1643C49.6103 20.0299 49.6563 19.8583 49.7436 19.645C49.831 19.4317 49.9321 19.2092 50.0424 18.9774C50.1528 18.7455 50.2631 18.523 50.3735 18.3097C50.4838 18.0964 50.5619 17.9249 50.6033 17.7904C50.9114 16.9651 51.2148 16.1769 51.5136 15.4211C51.8124 14.6654 52.1021 13.8957 52.3917 13.1168C52.2354 13.1399 52.0975 13.1539 51.9779 13.1678C51.8584 13.177 51.7297 13.1863 51.5964 13.1863C51.3113 13.1399 51.1458 12.9962 51.0998 12.7505C51.0539 12.5047 51.1872 12.3378 51.4952 12.2497C51.7389 12.2034 51.9596 12.1663 52.1572 12.1338C52.3549 12.1014 52.5664 12.0596 52.7871 12.0179C53.0307 11.4151 53.256 10.8031 53.4675 10.1818C53.679 9.56053 53.9043 8.91141 54.1479 8.24375L54.5433 6.90842C54.6306 6.50967 54.7088 6.16657 54.7732 5.88838C54.8375 5.61018 54.9019 5.35054 54.9571 5.1048C55.0122 4.85906 55.0628 4.60869 55.1042 4.35368C55.1501 4.09867 55.1915 3.78338 55.2375 3.40318C55.2605 3.22699 55.2651 3.06008 55.2559 2.90244C55.2421 2.74943 55.2927 2.59179 55.403 2.43414L55.4122 2.43878ZM55.5777 9.01341C55.4674 9.39361 55.3524 9.78308 55.2283 10.1818C55.1088 10.5806 54.98 11.0071 54.8467 11.4522C57.0075 10.6965 58.7131 9.61617 59.959 8.21593C61.2049 6.81569 62.1704 5.20217 62.8554 3.37536C62.9014 3.2409 62.9657 3.01835 63.0531 2.7077C63.1404 2.39705 63.1864 2.16059 63.1864 2.00758C63.1864 1.72011 63.0807 1.5022 62.8738 1.35846C62.6623 1.21473 62.4922 1.14054 62.3589 1.14054C62.2025 1.14054 62.0233 1.21937 61.8118 1.37237C61.6003 1.53002 61.3888 1.70157 61.1681 1.89167C60.9475 2.08176 60.7544 2.25795 60.5889 2.42487L60.2762 2.74016C59.8993 3.07399 59.5039 3.482 59.0855 3.95957C58.6672 4.43713 58.2488 4.96107 57.8258 5.52672C57.4075 6.09238 56.9983 6.67659 56.6029 7.27934C56.2076 7.88209 55.8627 8.45703 55.5777 9.01341ZM66.5011 9.71353C66.7448 9.91291 66.8781 10.1401 66.8965 10.3997C66.9195 10.6548 66.777 10.7382 66.4643 10.6501C66.2896 10.6038 66.1149 10.5713 65.9494 10.5481C65.7839 10.5249 65.6138 10.5481 65.4345 10.613C65.2368 10.7011 64.9656 10.9747 64.6254 11.4291C64.2806 11.8834 63.945 12.412 63.6139 13.0148C63.2829 13.6175 62.9887 14.2342 62.7359 14.8694C62.483 15.5046 62.3451 16.0424 62.3221 16.4875C62.3221 16.6869 62.3451 16.8724 62.3864 17.0393C62.4324 17.2062 62.5198 17.2897 62.6531 17.2897C62.9197 17.2897 63.2278 17.1274 63.5818 16.8075C63.9358 16.4829 64.276 16.1027 64.607 15.6576C64.938 15.2125 65.2414 14.7627 65.5173 14.3037C65.7931 13.8493 65.9954 13.4738 66.1287 13.1863C66.1747 13.075 66.2069 12.9823 66.2299 12.9035C66.2529 12.8247 66.2942 12.7551 66.3632 12.6856L66.3954 12.6531C66.5517 12.4074 66.7034 12.2451 66.8597 12.1709C67.016 12.0921 67.1585 12.0782 67.2919 12.1199C67.4252 12.1663 67.5355 12.2822 67.6229 12.4723C67.7102 12.6624 67.7424 12.8988 67.724 13.1909C67.6137 13.6129 67.5309 14.0487 67.4758 14.4938C67.4206 14.9389 67.37 15.4953 67.3286 16.163C67.2827 17.03 67.3516 17.489 67.5263 17.5308C67.747 17.5957 67.9677 17.5771 68.1884 17.4659C68.763 17.1784 69.2871 16.7611 69.7607 16.214C70.2342 15.6669 70.648 15.1198 71.002 14.5634C71.1767 14.2759 71.3606 13.9467 71.549 13.5804C71.7375 13.2141 71.9536 12.9081 72.1927 12.6624C72.326 12.5511 72.4363 12.5186 72.5237 12.5604C72.611 12.6067 72.6754 12.6902 72.7214 12.8108C72.7674 12.9313 72.7949 13.0797 72.8041 13.2466C72.8133 13.4135 72.8087 13.5619 72.7858 13.6963C72.7858 13.7195 72.7536 13.7937 72.6846 13.9143C72.6202 14.0348 72.5421 14.1739 72.4547 14.3315C72.3674 14.4892 72.28 14.6376 72.1881 14.7813C72.1007 14.925 72.0456 15.0317 72.0226 15.0966C71.8479 15.384 71.6548 15.6947 71.4433 16.0146C71.2318 16.3392 71.0066 16.6591 70.7629 16.9837C70.5192 17.3082 70.2664 17.6049 69.9997 17.8831C69.7331 18.1613 69.4572 18.4024 69.1722 18.6018C68.9285 18.778 68.6435 18.9078 68.3125 18.9866C67.9815 19.0655 67.6597 19.0794 67.3516 19.0376C67.0206 19.0145 66.7724 18.8893 66.6069 18.6528C66.4413 18.421 66.3264 18.1289 66.2574 17.7858C66.1931 17.4427 66.1701 17.0393 66.1931 16.5849C66.2161 16.1305 66.2575 15.6576 66.3264 15.1661C66.1517 15.588 65.9081 16.0285 65.6 16.4829C65.292 16.9373 64.9472 17.3499 64.5748 17.7162C64.1978 18.0825 63.7932 18.3793 63.3519 18.6018C62.9105 18.8244 62.4692 18.9125 62.0278 18.8707C61.6509 18.8244 61.3428 18.6157 61.0992 18.2355C60.8555 17.8553 60.7452 17.2572 60.7682 16.4319C60.7682 15.9636 60.8739 15.4119 61.0808 14.7813C61.2923 14.1461 61.5589 13.5109 61.8899 12.8803C62.2209 12.2451 62.5979 11.6562 63.0163 11.1091C63.4347 10.562 63.8668 10.1447 64.3082 9.85727C64.5058 9.72281 64.7219 9.63008 64.9518 9.57444C65.1817 9.5188 65.4115 9.49098 65.6322 9.49098C66.0276 9.49098 66.3172 9.5698 66.4919 9.72281L66.5011 9.71353ZM73.4202 9.54662C73.5949 9.10151 73.7328 8.73058 73.834 8.42921C73.9351 8.12783 73.9949 7.95628 74.0179 7.90991C74.4592 6.6395 74.8914 5.59627 75.3097 4.77097C75.7281 3.94566 76.1281 3.29654 76.5004 2.81898C76.8774 2.34141 77.2176 2.00758 77.5257 1.81748C77.8337 1.62738 78.1003 1.54392 78.321 1.56711C78.7853 1.56711 79.0704 1.73402 79.1807 2.06786C79.2911 2.40169 79.2589 2.7587 79.0796 3.13426L78.9784 3.40318C78.8681 3.69065 78.6934 4.0523 78.4497 4.48814C78.2061 4.92397 77.921 5.3969 77.59 5.90692C77.259 6.41694 76.8958 6.95942 76.4958 7.52508C76.1005 8.09074 75.7005 8.6564 75.3051 9.21279L74.2109 12.6531C74.1006 13.0519 73.9857 13.4506 73.8615 13.8401C73.742 14.2295 73.6593 14.6144 73.6133 14.9899C73.5903 15.1012 73.5627 15.3284 73.5305 15.6761C73.4983 16.0239 73.48 16.3763 73.48 16.7425C73.48 17.1088 73.5167 17.4427 73.5949 17.744C73.673 18.0454 73.8202 18.1938 74.0408 18.1938C74.2615 18.1938 74.5741 17.9712 74.9833 17.5261C75.3925 17.081 75.8154 16.5571 76.2568 15.959C76.6981 15.3562 77.1119 14.7581 77.4981 14.1554C77.8843 13.5526 78.1647 13.0982 78.344 12.7876L78.5095 12.6207C78.5555 12.5743 78.5877 12.5557 78.6106 12.5557C78.6566 12.5557 78.675 12.565 78.675 12.5882C78.675 12.6114 78.698 12.6438 78.7394 12.6902C78.8267 12.8664 78.8681 13.0519 78.8543 13.242C78.8451 13.432 78.8175 13.6129 78.7716 13.7937C78.7072 13.9699 78.6152 14.1368 78.5049 14.2944C78.3486 14.5634 78.1509 14.8787 77.9072 15.2449C77.6636 15.6112 77.4061 15.9868 77.1303 16.3624C76.8544 16.7425 76.5786 17.1042 76.3028 17.4473C76.0269 17.7904 75.7787 18.0779 75.558 18.3004C75.3143 18.5462 75.0661 18.7131 74.8132 18.8012C74.5603 18.8893 74.3213 18.9356 74.1006 18.9356C73.8799 18.9356 73.6363 18.9032 73.3742 18.8336L72.8455 18.5323C72.6938 18.421 72.5329 18.3051 72.3674 18.1799C72.2019 18.0593 72.041 17.8831 71.8893 17.6606C71.7789 17.5076 71.7054 17.2758 71.6732 16.9744C71.641 16.673 71.6226 16.367 71.6226 16.0563C71.6226 15.9682 71.6272 15.8199 71.641 15.6066C71.6548 15.3933 71.7146 15.0548 71.8249 14.5866C71.9352 14.1183 72.1099 13.4831 72.3536 12.6856C72.5973 11.8834 72.9513 10.8402 73.411 9.54662H73.4202ZM77.9532 2.70306C77.7325 2.87925 77.4567 3.38 77.1257 4.20531C76.7947 5.03061 76.4407 5.97647 76.0683 7.04288C76.4867 6.44013 76.8636 5.88374 77.1946 5.37372C77.5257 4.8637 77.7969 4.40932 78.0038 4.01984C78.2153 3.63037 78.3394 3.31509 78.3854 3.06935C78.4314 2.82361 78.3716 2.67061 78.2199 2.60106C78.1095 2.60106 78.0222 2.63351 77.9532 2.70306ZM80.0726 16.1583C79.9163 16.2047 79.7462 16.2557 79.5577 16.3067C79.3692 16.3624 79.1899 16.4041 79.0106 16.4226C78.9463 16.6915 78.9509 16.9744 79.029 17.2758C79.1072 17.5771 79.3094 17.758 79.6405 17.8275C80.1921 17.8275 80.7484 17.7255 81.3139 17.5261C81.8748 17.3268 82.4219 17.0486 82.9506 16.6915C83.4793 16.3345 83.9896 15.9219 84.4723 15.4582C84.9551 14.9899 85.3872 14.4892 85.7642 13.956C86.0308 13.7798 86.2515 13.7705 86.4262 13.9374C86.6009 14.1044 86.6009 14.3223 86.4262 14.5866C86.0722 15.078 85.6309 15.5927 85.1022 16.1398C84.5735 16.6869 83.9988 17.1877 83.3827 17.642C82.7667 18.0964 82.1185 18.472 81.4472 18.7594C80.776 19.0469 80.1278 19.1721 79.5117 19.1257C78.9371 19.1257 78.4635 18.931 78.0865 18.5415C77.7096 18.1521 77.5119 17.6328 77.4889 16.9883C77.4659 16.4968 77.5211 15.959 77.6544 15.3701C77.7877 14.7813 77.9808 14.1924 78.2337 13.599C78.4865 13.0101 78.7808 12.4398 79.1118 11.8974C79.4428 11.3502 79.7922 10.8727 80.1554 10.46C80.5186 10.0474 80.891 9.72744 81.2633 9.49098C81.6403 9.25915 82.0035 9.16178 82.3575 9.20815C82.6885 9.25451 82.9598 9.35652 83.1667 9.52343C83.3781 9.69035 83.5436 9.89436 83.6632 10.1401C83.7827 10.3858 83.8609 10.6455 83.8931 10.9237C83.9252 11.2019 83.9298 11.4522 83.9114 11.6748C83.7367 12.7876 83.3322 13.7427 82.7023 14.5448C82.0725 15.3469 81.1944 15.8802 80.0726 16.1491V16.1583ZM82.5552 11.3827C82.5552 11.3363 82.5506 11.2111 82.5368 10.9979C82.523 10.7846 82.4541 10.6826 82.3207 10.6826C82.2104 10.6826 82.0403 10.7846 81.8058 10.9839C81.576 11.1833 81.3277 11.5172 81.0611 11.9854C80.6427 12.6531 80.2933 13.2605 80.0174 13.803C79.7416 14.3501 79.5255 14.8462 79.3738 15.2867C79.6818 15.2218 79.9577 15.1337 80.2013 15.0178C80.445 14.9065 80.7346 14.7303 81.0794 14.4845C81.4197 14.2388 81.7139 13.8957 81.9576 13.4506C82.1323 13.1399 82.2794 12.8061 82.3897 12.4491C82.5 12.0921 82.5552 11.7351 82.5552 11.3827ZM90.4352 2.73552C90.5685 2.68915 90.7202 2.68452 90.8995 2.71697C91.0742 2.74943 91.2397 2.8097 91.396 2.90244C91.5477 2.99053 91.6764 3.09253 91.7776 3.20381C91.8787 3.31509 91.9155 3.41709 91.8925 3.50519C91.8925 3.5701 91.8419 3.67674 91.7454 3.82047C91.6443 3.96421 91.5753 4.09403 91.5293 4.20531C91.419 4.3815 91.3041 4.5855 91.1799 4.80806C91.0604 5.03061 90.9409 5.26244 90.8305 5.50818C91.6443 5.3969 92.4672 5.31344 93.2947 5.2578C94.1223 5.20217 94.9314 5.17435 95.7267 5.17435H96.2417C96.4072 5.17435 96.5681 5.18362 96.7198 5.2068C97.1611 5.25317 97.5841 5.35517 97.9933 5.52209C98.4024 5.689 98.6369 5.89301 98.7059 6.13875C98.7518 6.31494 98.7288 6.4494 98.6415 6.53749C98.5541 6.62559 98.453 6.69514 98.3427 6.73687C98.2323 6.78323 98.099 6.78787 97.9473 6.75541C97.791 6.72296 97.5841 6.68123 97.3174 6.6395C97.0508 6.59313 96.7382 6.5514 96.375 6.50504C96.0118 6.45867 95.5842 6.4494 95.1015 6.47258C94.1728 6.51895 93.2901 6.56995 92.4534 6.62095C91.6167 6.67659 90.8627 6.75077 90.2007 6.83887L89.7363 7.94237C89.3823 8.85577 89.0191 9.73208 88.6422 10.5806C88.2652 11.4291 87.925 12.259 87.6169 13.0843C87.3089 13.9096 87.0469 14.7442 86.84 15.588C86.6285 16.4319 86.5136 17.3036 86.4906 18.1938C86.4676 18.7502 86.5917 19.2834 86.8538 19.798C86.9641 20.0855 86.9044 20.2988 86.6699 20.4332C86.44 20.5677 86.2239 20.5213 86.0262 20.2988C85.6493 19.696 85.4286 19.0655 85.3642 18.3978C85.2769 17.5308 85.3091 16.6266 85.4654 15.6947C85.6217 14.7627 85.8469 13.8076 86.1458 12.8386C86.4446 11.8695 86.771 10.9144 87.1204 9.96854C87.4744 9.02269 87.8054 8.09538 88.1135 7.18197C87.5388 7.29325 87.0009 7.4138 86.4906 7.54826C85.9849 7.68272 85.378 7.794 84.67 7.88209C84.6057 7.83573 84.5229 7.77082 84.4218 7.68272C84.3206 7.59463 84.2517 7.50653 84.2057 7.4138C84.1597 7.32571 84.1459 7.24225 84.1551 7.16343C84.1689 7.08461 84.2608 7.02433 84.4355 6.97797C85.0976 6.75541 85.778 6.5514 86.4722 6.3613C87.1664 6.17121 87.879 6.00893 88.6054 5.8791C88.7157 5.59164 88.8399 5.27171 88.987 4.92861C89.1295 4.5855 89.2858 4.26095 89.4513 3.95957C89.6168 3.65819 89.7823 3.39855 89.9478 3.17599C90.1133 2.95344 90.2742 2.8097 90.4259 2.74016L90.4352 2.73552ZM94.7061 2.73552C94.8394 2.68915 94.9912 2.68452 95.1705 2.71697C95.3452 2.74943 95.5107 2.8097 95.667 2.90244C95.8187 2.99053 95.9474 3.09253 96.0486 3.20381C96.1497 3.31509 96.1865 3.41709 96.1635 3.50519C96.1635 3.5701 96.1129 3.67674 96.0164 3.82047C95.9152 3.96421 95.8463 4.09403 95.8003 4.20531C95.69 4.3815 95.575 4.5855 95.4509 4.80806C95.3314 5.03061 95.2118 5.26244 95.1015 5.50818C95.9152 5.3969 96.7382 5.31344 97.5657 5.2578C98.3932 5.20217 99.2024 5.17435 99.9977 5.17435H100.513C100.678 5.17435 100.839 5.18362 100.991 5.2068C101.432 5.25317 101.855 5.35517 102.264 5.52209C102.673 5.689 102.908 5.89301 102.977 6.13875C103.023 6.31494 103 6.4494 102.912 6.53749C102.825 6.62559 102.724 6.69514 102.614 6.73687C102.503 6.78323 102.37 6.78787 102.218 6.75541C102.062 6.72296 101.855 6.68123 101.588 6.6395C101.322 6.59313 101.009 6.5514 100.646 6.50504C100.283 6.45867 99.8552 6.4494 99.3725 6.47258C98.4438 6.51895 97.5611 6.56995 96.7244 6.62095C95.8877 6.67659 95.1337 6.75077 94.4717 6.83887L94.0073 7.94237C93.6533 8.85577 93.2901 9.73208 92.9131 10.5806C92.5362 11.4291 92.1959 12.259 91.8879 13.0843C91.5799 13.9096 91.3178 14.7442 91.111 15.588C90.8995 16.4319 90.7845 17.3036 90.7616 18.1938C90.7386 18.7502 90.8627 19.2834 91.1248 19.798C91.2351 20.0855 91.1753 20.2988 90.9409 20.4332C90.711 20.5677 90.4949 20.5213 90.2972 20.2988C89.9202 19.696 89.6996 19.0655 89.6352 18.3978C89.5479 17.5308 89.58 16.6266 89.7363 15.6947C89.8927 14.7627 90.1179 13.8076 90.4168 12.8386C90.7156 11.8695 91.042 10.9144 91.3914 9.96854C91.7454 9.02269 92.0764 8.09538 92.3844 7.18197C91.8098 7.29325 91.2719 7.4138 90.7616 7.54826C90.2558 7.68272 89.649 7.794 88.941 7.88209C88.8766 7.83573 88.7939 7.77082 88.6927 7.68272C88.5916 7.59463 88.5226 7.50653 88.4767 7.4138C88.4307 7.32571 88.4169 7.24225 88.4261 7.16343C88.4399 7.08461 88.5318 7.02433 88.7065 6.97797C89.3685 6.75541 90.049 6.5514 90.7432 6.3613C91.4374 6.17121 92.15 6.00893 92.8764 5.8791C92.9867 5.59164 93.1108 5.27171 93.2579 4.92861C93.4005 4.5855 93.5568 4.26095 93.7223 3.95957C93.8878 3.65819 94.0533 3.39855 94.2188 3.17599C94.3843 2.95344 94.5452 2.8097 94.6969 2.74016L94.7061 2.73552ZM96.1589 16.1583C96.0026 16.2047 95.8325 16.2557 95.644 16.3067C95.4555 16.3624 95.2762 16.4041 95.0969 16.4226C95.0325 16.6915 95.0371 16.9744 95.1153 17.2758C95.1935 17.5771 95.3957 17.758 95.7267 17.8275C96.2784 17.8275 96.8347 17.7255 97.4002 17.5261C97.9611 17.3268 98.5082 17.0486 99.0369 16.6915C99.5656 16.3345 100.076 15.9219 100.559 15.4582C101.041 14.9899 101.473 14.4892 101.85 13.956C102.117 13.7798 102.338 13.7705 102.512 13.9374C102.687 14.1044 102.687 14.3223 102.512 14.5866C102.159 15.078 101.717 15.5927 101.188 16.1398C100.66 16.6869 100.085 17.1877 99.469 17.642C98.853 18.0964 98.2047 18.472 97.5335 18.7594C96.8623 19.0469 96.2141 19.1721 95.598 19.1257C95.0233 19.1257 94.5498 18.931 94.1728 18.5415C93.7958 18.1521 93.5982 17.6328 93.5752 16.9883C93.5522 16.4968 93.6073 15.959 93.7407 15.3701C93.874 14.7813 94.0671 14.1924 94.3199 13.599C94.5728 13.0101 94.867 12.4398 95.1981 11.8974C95.5291 11.3502 95.8785 10.8727 96.2417 10.46C96.6048 10.0474 96.9772 9.72744 97.3496 9.49098C97.7266 9.25915 98.0898 9.16178 98.4438 9.20815C98.7748 9.25451 99.0461 9.35652 99.2529 9.52343C99.4644 9.69035 99.6299 9.89436 99.7495 10.1401C99.869 10.3858 99.9472 10.6455 99.9793 10.9237C100.012 11.2019 100.016 11.4522 99.9977 11.6748C99.823 12.7876 99.4185 13.7427 98.7886 14.5448C98.1588 15.3469 97.2807 15.8802 96.1589 16.1491V16.1583ZM98.6415 11.3827C98.6415 11.3363 98.6369 11.2111 98.6231 10.9979C98.6093 10.7846 98.5404 10.6826 98.407 10.6826C98.2967 10.6826 98.1266 10.7846 97.8921 10.9839C97.6622 11.1833 97.414 11.5172 97.1473 11.9854C96.729 12.6531 96.3796 13.2605 96.1037 13.803C95.8279 14.3501 95.6118 14.8462 95.4601 15.2867C95.7681 15.2218 96.044 15.1337 96.2876 15.0178C96.5313 14.9065 96.8209 14.7303 97.1657 14.4845C97.5059 14.2388 97.8002 13.8957 98.0438 13.4506C98.2185 13.1399 98.3656 12.8061 98.476 12.4491C98.5863 12.0921 98.6415 11.7351 98.6415 11.3827Z" fill="url(#paint0_linear_406_13035)"/>
</g>
<defs>
<linearGradient id="paint0_linear_406_13035" x1="-0.000191218" y1="15.4999" x2="103" y2="15.4999" gradientUnits="userSpaceOnUse">
<stop stop-color="#9FC7C0"/>
<stop offset="1" stop-color="#C9BC9C"/>
</linearGradient>
<clipPath id="clip0_406_13035">
<rect width="103" height="31" fill="white"/>
</clipPath>
</defs>
</svg>
