<svg width="342" height="884" viewBox="0 0 342 884" fill="none" xmlns="http://www.w3.org/2000/svg">
<path d="M10.3594 9.04688V9.58594C10.3594 10.4505 10.2422 11.2266 10.0078 11.9141C9.77344 12.6016 9.44271 13.1875 9.01562 13.6719C8.58854 14.151 8.07812 14.5182 7.48438 14.7734C6.89583 15.0286 6.24219 15.1562 5.52344 15.1562C4.8099 15.1562 4.15625 15.0286 3.5625 14.7734C2.97396 14.5182 2.46354 14.151 2.03125 13.6719C1.59896 13.1875 1.26302 12.6016 1.02344 11.9141C0.789062 11.2266 0.671875 10.4505 0.671875 9.58594V9.04688C0.671875 8.17708 0.789062 7.40104 1.02344 6.71875C1.25781 6.03125 1.58854 5.44531 2.01562 4.96094C2.44792 4.47656 2.95833 4.10677 3.54688 3.85156C4.14062 3.59635 4.79427 3.46875 5.50781 3.46875C6.22656 3.46875 6.88021 3.59635 7.46875 3.85156C8.0625 4.10677 8.57292 4.47656 9 4.96094C9.43229 5.44531 9.76562 6.03125 10 6.71875C10.2396 7.40104 10.3594 8.17708 10.3594 9.04688ZM7.99219 9.58594V9.03125C7.99219 8.42708 7.9375 7.89583 7.82812 7.4375C7.71875 6.97917 7.55729 6.59375 7.34375 6.28125C7.13021 5.96875 6.86979 5.73438 6.5625 5.57812C6.25521 5.41667 5.90365 5.33594 5.50781 5.33594C5.11198 5.33594 4.76042 5.41667 4.45312 5.57812C4.15104 5.73438 3.89323 5.96875 3.67969 6.28125C3.47135 6.59375 3.3125 6.97917 3.20312 7.4375C3.09375 7.89583 3.03906 8.42708 3.03906 9.03125V9.58594C3.03906 10.1849 3.09375 10.7161 3.20312 11.1797C3.3125 11.638 3.47396 12.026 3.6875 12.3438C3.90104 12.6562 4.16146 12.8932 4.46875 13.0547C4.77604 13.2161 5.1276 13.2969 5.52344 13.2969C5.91927 13.2969 6.27083 13.2161 6.57812 13.0547C6.88542 12.8932 7.14323 12.6562 7.35156 12.3438C7.5599 12.026 7.71875 11.638 7.82812 11.1797C7.9375 10.7161 7.99219 10.1849 7.99219 9.58594ZM21.3906 9.04688V9.58594C21.3906 10.4505 21.2734 11.2266 21.0391 11.9141C20.8047 12.6016 20.474 13.1875 20.0469 13.6719C19.6198 14.151 19.1094 14.5182 18.5156 14.7734C17.9271 15.0286 17.2734 15.1562 16.5547 15.1562C15.8411 15.1562 15.1875 15.0286 14.5938 14.7734C14.0052 14.5182 13.4948 14.151 13.0625 13.6719C12.6302 13.1875 12.2943 12.6016 12.0547 11.9141C11.8203 11.2266 11.7031 10.4505 11.7031 9.58594V9.04688C11.7031 8.17708 11.8203 7.40104 12.0547 6.71875C12.2891 6.03125 12.6198 5.44531 13.0469 4.96094C13.4792 4.47656 13.9896 4.10677 14.5781 3.85156C15.1719 3.59635 15.8255 3.46875 16.5391 3.46875C17.2578 3.46875 17.9115 3.59635 18.5 3.85156C19.0938 4.10677 19.6042 4.47656 20.0312 4.96094C20.4635 5.44531 20.7969 6.03125 21.0312 6.71875C21.2708 7.40104 21.3906 8.17708 21.3906 9.04688ZM19.0234 9.58594V9.03125C19.0234 8.42708 18.9688 7.89583 18.8594 7.4375C18.75 6.97917 18.5885 6.59375 18.375 6.28125C18.1615 5.96875 17.901 5.73438 17.5938 5.57812C17.2865 5.41667 16.9349 5.33594 16.5391 5.33594C16.1432 5.33594 15.7917 5.41667 15.4844 5.57812C15.1823 5.73438 14.9245 5.96875 14.7109 6.28125C14.5026 6.59375 14.3438 6.97917 14.2344 7.4375C14.125 7.89583 14.0703 8.42708 14.0703 9.03125V9.58594C14.0703 10.1849 14.125 10.7161 14.2344 11.1797C14.3438 11.638 14.5052 12.026 14.7188 12.3438C14.9323 12.6562 15.1927 12.8932 15.5 13.0547C15.8073 13.2161 16.1589 13.2969 16.5547 13.2969C16.9505 13.2969 17.3021 13.2161 17.6094 13.0547C17.9167 12.8932 18.1745 12.6562 18.3828 12.3438C18.5911 12.026 18.75 11.638 18.8594 11.1797C18.9688 10.7161 19.0234 10.1849 19.0234 9.58594ZM32.8785 1.608H35.0225V9.912H32.8785V1.608ZM23.5505 2.456H25.6625V8.568H23.5505V2.456ZM23.5505 7.448H24.8305C27.4065 7.448 29.5025 7.304 31.6785 6.84L31.9345 8.552C29.6785 9.048 27.4865 9.208 24.8305 9.208H23.5505V7.448ZM25.1665 10.536H35.0225V16.264H25.1665V10.536ZM32.9265 12.2H27.2465V14.584H32.9265V12.2ZM42.1893 2.584C44.5253 2.584 46.2693 4.104 46.2693 6.232C46.2693 8.376 44.5253 9.896 42.1893 9.896C39.8693 9.896 38.0933 8.376 38.0933 6.232C38.0933 4.104 39.8693 2.584 42.1893 2.584ZM42.1893 4.408C41.0533 4.408 40.1893 5.08 40.1893 6.232C40.1893 7.4 41.0533 8.072 42.1893 8.072C43.3253 8.072 44.1893 7.4 44.1893 6.232C44.1893 5.08 43.3253 4.408 42.1893 4.408ZM47.6613 1.592H49.7893V16.456H47.6613V1.592ZM37.7413 13.448L37.4853 11.736C40.0933 11.736 43.7253 11.704 46.8453 11.24L47.0053 12.776C43.7893 13.416 40.3013 13.448 37.7413 13.448ZM57.7724 2.184H67.8364V7.432H57.7724V2.184ZM65.7404 3.848H59.8524V5.768H65.7404V3.848ZM56.1244 8.824H69.5164V10.504H56.1244V8.824ZM61.7404 7.048H63.8684V9.304H61.7404V7.048ZM57.6124 11.576H67.9004V16.424H65.7724V13.256H57.6124V11.576ZM74.1391 9.672H76.2671V13.656H74.1391V9.672ZM78.7951 9.688H80.9071V13.672H78.7951V9.688ZM70.8591 13.08H84.2671V14.808H70.8591V13.08ZM71.8831 2.776H83.1631V4.472H71.8831V2.776ZM71.9471 8.632H83.1151V10.312H71.9471V8.632ZM73.8991 4.184H76.0271V8.872H73.8991V4.184ZM79.0351 4.184H81.1471V8.872H79.0351V4.184Z" fill="black"/>
<rect y="31" width="342" height="0.5" fill="#6F6F6F"/>
<path d="M4.656 81.888C6.752 81.888 8.256 83.856 8.256 86.928C8.256 90.016 6.752 91.984 4.656 91.984C2.544 91.984 1.056 90.016 1.056 86.928C1.056 83.856 2.544 81.888 4.656 81.888ZM4.656 83.088C3.264 83.088 2.32 84.592 2.32 86.928C2.32 89.28 3.264 90.816 4.656 90.816C6.048 90.816 6.992 89.28 6.992 86.928C6.992 84.592 6.048 83.088 4.656 83.088ZM11.392 80.768H12.704V95.264H11.392V80.768ZM7.824 86.288H11.968V87.376H7.824V86.288ZM17.9028 93.84H27.9188V94.928H17.9028V93.84ZM17.9028 90.448H19.2468V94.448H17.9028V90.448ZM26.2388 80.8H27.5668V91.328H26.2388V80.8ZM23.6468 84.752H27.3108V85.84H23.6468V84.752ZM15.8868 87.904H16.5268C17.3908 87.904 18.4788 87.872 19.7108 87.6L19.8388 88.688C18.5108 88.976 17.4548 88.992 16.5268 88.992H15.8868V87.904ZM15.8868 81.984H19.5508V83.072H17.1988V88.224H15.8868V81.984ZM20.3348 87.904H21.0548C22.5908 87.904 23.6308 87.872 24.8628 87.584L24.9908 88.672C23.6948 88.944 22.6388 88.992 21.0548 88.992H20.3348V87.904ZM20.3348 81.984H24.3188V83.072H21.6308V88.192H20.3348V81.984ZM35.8703 81.376H45.5983V86.304H35.8703V81.376ZM44.2863 82.448H37.1663V85.232H44.2863V82.448ZM34.1903 88.112H47.2623V89.184H34.1903V88.112ZM40.0783 86.016H41.3903V88.512H40.0783V86.016ZM35.6463 90.672H45.6463V95.248H44.3183V91.76H35.6463V90.672ZM52.541 88.624H53.869V92.752H52.541V88.624ZM57.005 88.624H58.317V92.752H57.005V88.624ZM48.925 92.4H62.029V93.504H48.925V92.4ZM50.061 82.112H60.797V83.2H50.061V82.112ZM50.093 87.904H60.781V88.976H50.093V87.904ZM52.317 82.992H53.645V88.128H52.317V82.992ZM57.245 82.992H58.557V88.128H57.245V82.992ZM63.6278 87.504H76.7478V88.512H63.6278V87.504ZM65.1798 89.68H75.0998V92.768H66.5398V94.464H65.2278V91.856H73.8038V90.624H65.1798V89.68ZM65.2278 94.112H75.5638V95.072H65.2278V94.112ZM65.2918 81.2H75.0518V84.208H66.6358V85.776H65.3238V83.312H73.7558V82.144H65.2918V81.2ZM65.3238 85.456H75.3238V86.416H65.3238V85.456ZM86.1393 82.032H87.2273V84.624C87.2273 87.952 85.4353 91.04 83.0673 92.24L82.2513 91.152C84.3953 90.128 86.1393 87.36 86.1393 84.624V82.032ZM86.3633 82.032H87.4513V84.624C87.4513 87.264 89.1793 89.92 91.3233 90.912L90.5233 91.968C88.1713 90.816 86.3633 87.84 86.3633 84.624V82.032ZM92.8273 80.768H94.1553V95.264H92.8273V80.768ZM100.602 82.272H101.69V83.44C101.69 86.096 100.09 88.304 97.674 89.168L96.97 88.128C99.162 87.36 100.602 85.504 100.602 83.44V82.272ZM100.842 82.272H101.93V83.424C101.93 85.344 103.322 87.12 105.45 87.84L104.762 88.88C102.378 88.048 100.842 85.92 100.842 83.424V82.272ZM97.386 81.792H105.114V82.88H97.386V81.792ZM106.938 80.784H108.266V89.488H106.938V80.784ZM107.898 84.592H110.41V85.696H107.898V84.592ZM98.874 90.256H108.266V95.248H106.938V91.36H98.874V90.256ZM121.657 80.736H122.985V88.72H121.657V80.736ZM122.425 84.208H125.129V85.328H122.425V84.208ZM113.801 89.456H122.985V92.688H115.145V94.448H113.833V91.728H121.689V90.464H113.801V89.456ZM113.833 94.064H123.513V95.088H113.833V94.064ZM111.801 82.08H120.345V83.12H111.801V82.08ZM116.073 83.76C118.153 83.76 119.529 84.672 119.529 86.144C119.529 87.6 118.153 88.496 116.073 88.496C113.961 88.496 112.601 87.6 112.601 86.144C112.601 84.672 113.961 83.76 116.073 83.76ZM116.073 84.736C114.729 84.736 113.865 85.28 113.865 86.144C113.865 86.992 114.729 87.536 116.073 87.536C117.401 87.536 118.265 86.992 118.265 86.144C118.265 85.28 117.401 84.736 116.073 84.736ZM115.401 80.624H116.729V82.8H115.401V80.624ZM136.52 80.784H137.832V95.248H136.52V80.784ZM137.416 86.736H139.992V87.856H137.416V86.736ZM129.592 82.336H130.808C130.808 85.824 130.072 89.2 127.48 92L126.408 91.248C128.792 88.768 129.592 85.76 129.592 82.48V82.336ZM126.872 82.336H130.088V83.44H126.872V82.336ZM133.528 82.336H134.76C134.76 85.84 134.264 89.808 131.608 92.96L130.536 92.224C132.984 89.392 133.528 85.808 133.528 82.464V82.336ZM131.272 82.336H134.072V83.44H131.272V82.336ZM144.406 88.224H145.718V92.56H144.406V88.224ZM149.75 88.224H151.078V92.56H149.75V88.224ZM141.206 92.304H154.31V93.408H141.206V92.304ZM147.734 81.696C150.79 81.696 152.982 83.152 152.982 85.424C152.982 87.68 150.79 89.136 147.734 89.136C144.662 89.136 142.47 87.68 142.47 85.424C142.47 83.152 144.662 81.696 147.734 81.696ZM147.734 82.752C145.414 82.752 143.75 83.808 143.75 85.424C143.75 87.024 145.414 88.08 147.734 88.08C150.054 88.08 151.702 87.024 151.702 85.424C151.702 83.808 150.054 82.752 147.734 82.752ZM159.367 90.7969H157.914C157.919 90.2969 157.964 89.888 158.047 89.5703C158.135 89.2474 158.279 88.9531 158.477 88.6875C158.674 88.4219 158.938 88.1198 159.266 87.7812C159.505 87.5365 159.724 87.3073 159.922 87.0938C160.125 86.875 160.289 86.6406 160.414 86.3906C160.539 86.1354 160.602 85.8307 160.602 85.4766C160.602 85.1172 160.536 84.8073 160.406 84.5469C160.281 84.2865 160.094 84.0859 159.844 83.9453C159.599 83.8047 159.294 83.7344 158.93 83.7344C158.628 83.7344 158.341 83.7891 158.07 83.8984C157.799 84.0078 157.581 84.1771 157.414 84.4062C157.247 84.6302 157.161 84.9245 157.156 85.2891H155.711C155.721 84.7005 155.867 84.1953 156.148 83.7734C156.435 83.3516 156.82 83.0286 157.305 82.8047C157.789 82.5807 158.331 82.4688 158.93 82.4688C159.591 82.4688 160.154 82.5885 160.617 82.8281C161.086 83.0677 161.443 83.4115 161.688 83.8594C161.932 84.3021 162.055 84.8281 162.055 85.4375C162.055 85.9062 161.958 86.3385 161.766 86.7344C161.578 87.125 161.336 87.4922 161.039 87.8359C160.742 88.1797 160.427 88.5078 160.094 88.8203C159.807 89.0859 159.615 89.3854 159.516 89.7188C159.417 90.0521 159.367 90.4115 159.367 90.7969ZM157.852 93.2734C157.852 93.0391 157.924 92.8411 158.07 92.6797C158.216 92.5182 158.427 92.4375 158.703 92.4375C158.984 92.4375 159.198 92.5182 159.344 92.6797C159.49 92.8411 159.562 93.0391 159.562 93.2734C159.562 93.4974 159.49 93.6901 159.344 93.8516C159.198 94.013 158.984 94.0938 158.703 94.0938C158.427 94.0938 158.216 94.013 158.07 93.8516C157.924 93.6901 157.852 93.4974 157.852 93.2734Z" fill="black"/>
<path d="M3.672 128.548H4.668V130.96H3.672V128.548ZM8.484 123.088H9.48V131.344H8.484V123.088ZM2.076 132.88H9.744V133.696H2.076V132.88ZM2.076 130.54H3.072V133.108H2.076V130.54ZM0.672 128.92L0.54 128.104C2.544 128.104 5.232 128.08 7.536 127.78L7.608 128.512C5.268 128.884 2.64 128.92 0.672 128.92ZM6.276 129.496H8.736V130.228H6.276V129.496ZM4.068 123.532C5.652 123.532 6.732 124.276 6.732 125.416C6.732 126.568 5.652 127.312 4.068 127.312C2.472 127.312 1.392 126.568 1.392 125.416C1.392 124.276 2.472 123.532 4.068 123.532ZM4.068 124.276C3.048 124.276 2.34 124.72 2.34 125.416C2.34 126.112 3.048 126.556 4.068 126.556C5.076 126.556 5.784 126.112 5.784 125.416C5.784 124.72 5.076 124.276 4.068 124.276ZM18.9831 123.088H19.9791V133.936H18.9831V123.088ZM19.7391 127.54H21.7551V128.38H19.7391V127.54ZM11.5791 124.816H17.9751V125.632H11.5791V124.816ZM14.8191 126.532C16.3551 126.532 17.4591 127.564 17.4591 129.028C17.4591 130.492 16.3551 131.524 14.8191 131.524C13.2951 131.524 12.1791 130.492 12.1791 129.028C12.1791 127.564 13.2951 126.532 14.8191 126.532ZM14.8191 127.36C13.8351 127.36 13.1271 128.044 13.1271 129.028C13.1271 130 13.8351 130.696 14.8191 130.696C15.8031 130.696 16.5111 130 16.5111 129.028C16.5111 128.044 15.8031 127.36 14.8191 127.36ZM14.3031 123.22H15.2991V125.188H14.3031V123.22ZM23.9981 126.34H31.3661V127.156H23.9981V126.34ZM22.6661 128.608H32.5061V129.424H22.6661V128.608ZM23.9981 123.484H24.9821V126.748H23.9981V123.484ZM23.9261 132.856H31.4261V133.672H23.9261V132.856ZM23.9261 130.504H24.9101V133.072H23.9261V130.504ZM37.9418 123.532H45.2378V127.228H37.9418V123.532ZM44.2538 124.336H38.9138V126.424H44.2538V124.336ZM36.6818 128.584H46.4858V129.388H36.6818V128.584ZM41.0978 127.012H42.0818V128.884H41.0978V127.012ZM37.7738 130.504H45.2738V133.936H44.2778V131.32H37.7738V130.504ZM50.4448 128.968H51.4408V132.064H50.4448V128.968ZM53.7928 128.968H54.7768V132.064H53.7928V128.968ZM47.7328 131.8H57.5608V132.628H47.7328V131.8ZM48.5848 124.084H56.6368V124.9H48.5848V124.084ZM48.6088 128.428H56.6248V129.232H48.6088V128.428ZM50.2768 124.744H51.2728V128.596H50.2768V124.744ZM53.9728 124.744H54.9568V128.596H53.9728V124.744ZM58.7599 128.128H68.5999V128.884H58.7599V128.128ZM59.9239 129.76H67.3639V132.076H60.9439V133.348H59.9599V131.392H66.3919V130.468H59.9239V129.76ZM59.9599 133.084H67.7119V133.804H59.9599V133.084ZM60.0079 123.4H67.3279V125.656H61.0159V126.832H60.0319V124.984H66.3559V124.108H60.0079V123.4ZM60.0319 126.592H67.5319V127.312H60.0319V126.592ZM80.6715 123.088H81.6795V128.908H80.6715V123.088ZM74.6835 129.448H75.6675V130.768H80.6955V129.448H81.6795V133.792H74.6835V129.448ZM75.6675 131.56V132.988H80.6955V131.56H75.6675ZM75.8595 123.604C77.5035 123.604 78.6795 124.624 78.6795 126.1C78.6795 127.588 77.5035 128.608 75.8595 128.608C74.2155 128.608 73.0275 127.588 73.0275 126.1C73.0275 124.624 74.2155 123.604 75.8595 123.604ZM75.8595 124.432C74.7795 124.432 73.9995 125.116 73.9995 126.1C73.9995 127.084 74.7795 127.768 75.8595 127.768C76.9395 127.768 77.7195 127.084 77.7195 126.1C77.7195 125.116 76.9395 124.432 75.8595 124.432ZM84.2706 128.464H85.0506C87.1866 128.464 88.2426 128.428 89.5386 128.2L89.6466 129.004C88.3026 129.244 87.2226 129.28 85.0506 129.28H84.2706V128.464ZM84.2466 123.736H88.9266V126.82H85.2546V128.956H84.2706V126.04H87.9426V124.552H84.2466V123.736ZM91.7466 123.1H92.7426V129.76H91.7466V123.1ZM89.6466 124.696H91.9746V125.512H89.6466V124.696ZM89.6466 126.94H91.9746V127.756H89.6466V126.94ZM85.4826 130.348H92.7426V133.96H91.7466V131.164H85.4826V130.348ZM94.8416 124.936H100.218V125.752H94.8416V124.936ZM97.5296 126.472C98.8856 126.472 99.8696 127.492 99.8696 128.956C99.8696 130.408 98.8856 131.428 97.5296 131.428C96.1856 131.428 95.2016 130.408 95.2016 128.956C95.2016 127.492 96.1856 126.472 97.5296 126.472ZM97.5296 127.324C96.7016 127.324 96.1016 127.996 96.1016 128.956C96.1016 129.916 96.7016 130.588 97.5296 130.588C98.3696 130.588 98.9816 129.916 98.9816 128.956C98.9816 127.996 98.3696 127.324 97.5296 127.324ZM103.086 123.088H104.046V133.936H103.086V123.088ZM101.358 127.648H103.41V128.476H101.358V127.648ZM100.77 123.328H101.706V133.408H100.77V123.328ZM97.0496 123.4H98.0336V125.44H97.0496V123.4ZM110.249 124.156H111.113V124.612C111.113 126.556 109.049 127.984 106.865 128.356L106.481 127.564C108.389 127.288 110.249 126.04 110.249 124.612V124.156ZM110.501 124.156H111.353V124.612C111.353 126.04 113.225 127.288 115.121 127.564L114.749 128.356C112.553 127.984 110.501 126.556 110.501 124.612V124.156ZM110.285 129.796H111.269V133.936H110.285V129.796ZM105.905 129.268H115.709V130.084H105.905V129.268ZM106.817 123.76H114.761V124.564H106.817V123.76ZM121.216 126.964H123.292V127.792H121.216V126.964ZM119.188 124.108H119.968V126.172C119.968 128.44 119.02 130.636 117.436 131.608L116.812 130.852C118.3 129.976 119.188 128.032 119.188 126.172V124.108ZM119.38 124.108H120.148V126.136C120.148 127.876 120.964 129.724 122.392 130.588L121.816 131.368C120.256 130.408 119.38 128.248 119.38 126.136V124.108ZM125.2 123.088H126.16V133.936H125.2V123.088ZM123.004 123.316H123.94V133.396H123.004V123.316ZM130.383 128.668H131.367V131.92H130.383V128.668ZM134.391 128.668H135.387V131.92H134.391V128.668ZM127.983 131.728H137.811V132.556H127.983V131.728ZM132.879 123.772C135.171 123.772 136.815 124.864 136.815 126.568C136.815 128.26 135.171 129.352 132.879 129.352C130.575 129.352 128.931 128.26 128.931 126.568C128.931 124.864 130.575 123.772 132.879 123.772ZM132.879 124.564C131.139 124.564 129.891 125.356 129.891 126.568C129.891 127.768 131.139 128.56 132.879 128.56C134.619 128.56 135.855 127.768 135.855 126.568C135.855 125.356 134.619 124.564 132.879 124.564ZM139.266 132.426C139.266 132.242 139.322 132.088 139.436 131.963C139.553 131.834 139.721 131.77 139.939 131.77C140.158 131.77 140.324 131.834 140.438 131.963C140.555 132.088 140.613 132.242 140.613 132.426C140.613 132.605 140.555 132.758 140.438 132.883C140.324 133.008 140.158 133.07 139.939 133.07C139.721 133.07 139.553 133.008 139.436 132.883C139.322 132.758 139.266 132.605 139.266 132.426Z" fill="#DFDFDF"/>
<rect y="148" width="342" height="0.5" fill="#DFDFDF"/>
<path d="M14 216H7V218H14M19 221H5V210H19M19 205H18V203H16V205H8V203H6V205H5C3.89 205 3 205.9 3 207V221C3 221.53 3.21071 222.039 3.58579 222.414C3.96086 222.789 4.46957 223 5 223H19C19.5304 223 20.0391 222.789 20.4142 222.414C20.7893 222.039 21 221.53 21 221V207C21 206.47 20.7893 205.961 20.4142 205.586C20.0391 205.211 19.5304 205 19 205ZM17 212H7V214H17V212Z" fill="black"/>
<path d="M50.848 206.108H52.992V220.924H50.848V206.108ZM46.48 207.644H48.592C48.592 212.172 47.056 215.884 41.792 218.428L40.688 216.732C44.944 214.684 46.48 211.996 46.48 208.028V207.644ZM41.472 207.644H47.488V209.324H41.472V207.644ZM64.8788 206.108H67.0228V216.716H64.8788V206.108ZM66.4148 210.236H68.9908V211.98H66.4148V210.236ZM60.7508 207.212H63.0228C63.0228 211.244 60.5588 214.012 56.1428 215.292L55.2467 213.596C58.8788 212.604 60.7508 210.62 60.7508 208.268V207.212ZM55.8868 207.212H61.9028V208.924H55.8868V207.212ZM57.4388 218.972H67.5188V220.668H57.4388V218.972ZM57.4388 215.644H59.5828V219.724H57.4388V215.644Z" fill="black"/>
<rect x="239" y="196" width="103" height="36" rx="3" fill="#C9BC9C"/>
<path d="M272.004 214.988H272.988V218.948H272.004V214.988ZM267.6 214.64H277.404V215.468H267.6V214.64ZM271.992 209.948H272.868V210.224C272.868 212.096 270.84 213.476 268.56 213.824L268.212 213.032C270.168 212.768 271.992 211.58 271.992 210.224V209.948ZM272.124 209.948H272.988V210.224C272.988 211.568 274.824 212.768 276.768 213.032L276.408 213.824C274.14 213.488 272.124 212.072 272.124 210.224V209.948ZM268.548 209.42H276.456V210.236H268.548V209.42ZM272.004 208.088H272.988V209.708H272.004V208.088ZM285.971 208.076H286.979V218.936H285.971V208.076ZM286.703 212.48H288.707V213.308H286.703V212.48ZM283.199 209.252H284.171C284.171 212.336 282.755 215.12 279.251 216.884L278.699 216.116C281.699 214.592 283.199 212.276 283.199 209.408V209.252ZM279.203 209.252H283.715V210.068H279.203V209.252Z" fill="black"/>
<path d="M308.083 214.583H304.583V218.083H303.417V214.583H299.917V213.417H303.417V209.917H304.583V213.417H308.083V214.583Z" fill="black"/>
<path d="M11 299.5V307.5H3V299.5H11ZM9 301.5H5V305.5H9V301.5ZM12 288L17.5 297H6.5L12 288ZM12 291.86L10.08 295H13.92L12 291.86ZM17.5 299C20 299 22 301 22 303.5C22 306 20 308 17.5 308C15 308 13 306 13 303.5C13 301 15 299 17.5 299ZM17.5 301C16.837 301 16.2011 301.263 15.7322 301.732C15.2634 302.201 15 302.837 15 303.5C15 304.163 15.2634 304.799 15.7322 305.268C16.2011 305.737 16.837 306 17.5 306C18.163 306 18.7989 305.737 19.2678 305.268C19.7366 304.799 20 304.163 20 303.5C20 302.837 19.7366 302.201 19.2678 301.732C18.7989 301.263 18.163 301 17.5 301Z" fill="black"/>
<path d="M46.24 291.532H48.32C48.32 296.108 47.232 299.916 41.712 302.716L40.576 301.1C45.184 298.78 46.24 295.948 46.24 291.788V291.532ZM41.488 291.532H47.504V293.212H41.488V291.532ZM46.288 295.164V296.796L40.976 297.308L40.72 295.484L46.288 295.164ZM50.112 290.092H52.256V304.908H50.112V290.092ZM51.696 295.756H54.304V297.5H51.696V295.756ZM61.3908 295.5H64.0148V297.212H61.3908V295.5ZM55.7908 299.964H56.7988C58.8788 299.964 60.2228 299.932 61.8388 299.66L62.0148 301.356C60.3508 301.644 58.9268 301.676 56.7988 301.676H55.7908V299.964ZM55.7908 291.74H61.2948V293.42H57.8068V300.588H55.7908V291.74ZM57.2308 295.724H60.7348V297.356H57.2308V295.724ZM66.0628 290.108H68.0948V304.924H66.0628V290.108ZM63.0068 290.364H64.9908V304.268H63.0068V290.364ZM71.4535 291.356H80.8455V293.068H71.4535V291.356ZM70.0935 301.42H83.4855V303.148H70.0935V301.42ZM74.8295 296.332H76.9575V302.268H74.8295V296.332ZM80.0775 291.356H82.2055V292.78C82.2055 294.636 82.2055 296.716 81.6135 299.884L79.4855 299.644C80.0775 296.7 80.0775 294.556 80.0775 292.78V291.356ZM95.0043 290.092H97.1323V304.956H95.0043V290.092ZM85.5963 299.772H86.9083C89.5323 299.772 91.6283 299.676 93.9803 299.276L94.1883 300.988C91.7883 301.42 89.6123 301.5 86.9083 301.5H85.5963V299.772ZM85.5803 291.356H92.5723V297.084H87.7563V300.412H85.5963V295.404H90.3963V293.052H85.5803V291.356Z" fill="black"/>
<rect x="239" y="280" width="103" height="36" rx="3" fill="#9FC7C0"/>
<path d="M272.004 298.988H272.988V302.948H272.004V298.988ZM267.6 298.64H277.404V299.468H267.6V298.64ZM271.992 293.948H272.868V294.224C272.868 296.096 270.84 297.476 268.56 297.824L268.212 297.032C270.168 296.768 271.992 295.58 271.992 294.224V293.948ZM272.124 293.948H272.988V294.224C272.988 295.568 274.824 296.768 276.768 297.032L276.408 297.824C274.14 297.488 272.124 296.072 272.124 294.224V293.948ZM268.548 293.42H276.456V294.236H268.548V293.42ZM272.004 292.088H272.988V293.708H272.004V292.088ZM285.971 292.076H286.979V302.936H285.971V292.076ZM286.703 296.48H288.707V297.308H286.703V296.48ZM283.199 293.252H284.171C284.171 296.336 282.755 299.12 279.251 300.884L278.699 300.116C281.699 298.592 283.199 296.276 283.199 293.408V293.252ZM279.203 293.252H283.715V294.068H279.203V293.252Z" fill="black"/>
<path d="M308.083 298.583H304.583V302.083H303.417V298.583H299.917V297.417H303.417V293.917H304.583V297.417H308.083V298.583Z" fill="black"/>
<path d="M15 367H5C4.46957 367 3.96086 367.211 3.58579 367.586C3.21071 367.961 3 368.47 3 369V383C3 383.53 3.21071 384.039 3.58579 384.414C3.96086 384.789 4.46957 385 5 385H19C19.5304 385 20.0391 384.789 20.4142 384.414C20.7893 384.039 21 383.53 21 383V373L15 367ZM19 383H5V369H14V374H19M17 378H7V376H17M14 381H7V379H14" fill="black"/>
<path d="M46.272 377.596H48.384V382.94H46.272V377.596ZM40.656 376.972H54.048V378.7H40.656V376.972ZM46.256 370.764H48.128V371.116C48.128 373.596 45.984 375.756 42.064 376.22L41.328 374.556C44.672 374.172 46.256 372.492 46.256 371.116V370.764ZM46.528 370.764H48.4V371.116C48.4 372.46 50 374.172 53.328 374.556L52.576 376.22C48.672 375.772 46.528 373.532 46.528 371.116V370.764ZM41.856 369.804H52.832V371.484H41.856V369.804ZM46.272 368.14H48.384V370.38H46.272V368.14ZM58.6868 371.004H60.4148V371.58C60.4148 374.284 59.1028 376.7 56.2868 377.58L55.2628 375.916C57.6628 375.164 58.6868 373.372 58.6868 371.58V371.004ZM59.0708 371.004H60.8148V371.58C60.8148 373.244 61.8548 374.956 64.2548 375.676L63.2308 377.34C60.4308 376.508 59.0708 374.172 59.0708 371.58V371.004ZM55.7747 369.852H63.7268V371.516H55.7747V369.852ZM58.6868 368.22H60.8148V370.476H58.6868V368.22ZM63.2628 372.412H66.7028V374.156H63.2628V372.412ZM65.6308 368.124H67.7588V379.084H65.6308V368.124ZM57.9828 380.972H68.0948V382.668H57.9828V380.972ZM57.9828 378.172H60.1108V382.092H57.9828V378.172ZM75.7099 368.684H85.7739V373.932H75.7099V368.684ZM83.6779 370.348H77.7899V372.268H83.6779V370.348ZM74.0619 375.324H87.4539V377.004H74.0619V375.324ZM79.6779 373.548H81.8059V375.804H79.6779V373.548ZM75.5499 378.076H85.8379V382.924H83.7099V379.756H75.5499V378.076ZM92.0766 376.172H94.2046V380.156H92.0766V376.172ZM96.7326 376.188H98.8446V380.172H96.7326V376.188ZM88.7966 379.58H102.205V381.308H88.7966V379.58ZM89.8206 369.276H101.101V370.972H89.8206V369.276ZM89.8846 375.132H101.053V376.812H89.8846V375.132ZM91.8366 370.684H93.9646V375.372H91.8366V370.684ZM96.9726 370.684H99.0846V375.372H96.9726V370.684Z" fill="black"/>
<rect y="424" width="159" height="218" rx="10" fill="#F5F5F5"/>
<path d="M28.704 451.632C30.912 451.632 32.528 453.68 32.528 456.912C32.528 460.176 30.912 462.224 28.704 462.224C26.48 462.224 24.88 460.176 24.88 456.912C24.88 453.68 26.48 451.632 28.704 451.632ZM28.704 453.568C27.632 453.568 26.912 454.736 26.912 456.912C26.912 459.12 27.632 460.304 28.704 460.304C29.792 460.304 30.496 459.12 30.496 456.912C30.496 454.736 29.792 453.568 28.704 453.568ZM34.96 450.592H37.072V465.456H34.96V450.592ZM31.904 455.936H35.856V457.648H31.904V455.936ZM39.3588 451.904H48.0788V453.584H39.3588V451.904ZM43.7268 454.048C45.8548 454.048 47.3588 455.152 47.3588 456.784C47.3588 458.416 45.8548 459.504 43.7268 459.504C41.5828 459.504 40.0788 458.416 40.0788 456.784C40.0788 455.152 41.5828 454.048 43.7268 454.048ZM43.7268 455.648C42.7668 455.648 42.1268 456.032 42.1268 456.784C42.1268 457.52 42.7668 457.904 43.7268 457.904C44.6708 457.904 45.3268 457.52 45.3268 456.784C45.3268 456.032 44.6708 455.648 43.7268 455.648ZM48.8948 450.608H51.0228V459.904H48.8948V450.608ZM50.4308 454.432H52.9908V456.16H50.4308V454.432ZM41.1348 460.512H51.0228V465.424H48.8948V462.208H41.1348V460.512ZM42.6548 450.528H44.7828V452.864H42.6548V450.528Z" fill="#9FC7C0"/>
<path d="M29.532 502.648H32.844V503.464H29.532V502.648ZM29.532 505.144H32.844V505.972H29.532V505.144ZM27.552 501.724C29.148 501.724 30.348 502.804 30.348 504.304C30.348 505.816 29.148 506.884 27.552 506.884C25.944 506.884 24.756 505.816 24.756 504.304C24.756 502.804 25.944 501.724 27.552 501.724ZM27.552 502.576C26.496 502.576 25.716 503.284 25.716 504.304C25.716 505.324 26.496 506.032 27.552 506.032C28.608 506.032 29.4 505.324 29.4 504.304C29.4 503.284 28.608 502.576 27.552 502.576ZM32.52 501.088H33.516V507.508H32.52V501.088ZM29.952 507.76C32.184 507.76 33.564 508.528 33.564 509.836C33.564 511.156 32.184 511.912 29.952 511.912C27.708 511.912 26.328 511.156 26.328 509.836C26.328 508.528 27.708 507.76 29.952 507.76ZM29.952 508.552C28.308 508.552 27.312 509.032 27.312 509.836C27.312 510.652 28.308 511.132 29.952 511.132C31.584 511.132 32.58 510.652 32.58 509.836C32.58 509.032 31.584 508.552 29.952 508.552ZM38.5311 501.916C40.1031 501.916 41.2311 503.392 41.2311 505.696C41.2311 508.012 40.1031 509.488 38.5311 509.488C36.9471 509.488 35.8311 508.012 35.8311 505.696C35.8311 503.392 36.9471 501.916 38.5311 501.916ZM38.5311 502.816C37.4871 502.816 36.7791 503.944 36.7791 505.696C36.7791 507.46 37.4871 508.612 38.5311 508.612C39.5751 508.612 40.2831 507.46 40.2831 505.696C40.2831 503.944 39.5751 502.816 38.5311 502.816ZM43.5831 501.076H44.5671V511.948H43.5831V501.076ZM40.9071 505.216H44.0151V506.032H40.9071V505.216ZM49.7621 507.592H50.7701V509.38H49.7621V507.592ZM54.5141 501.088H55.5101V511.936H54.5141V501.088ZM46.8701 509.872L46.7381 509.044C48.7901 509.032 51.4901 509.008 53.8301 508.708L53.9021 509.44C51.4901 509.848 48.8741 509.872 46.8701 509.872ZM46.9661 502.408H53.5541V503.212H46.9661V502.408ZM50.2541 503.836C51.8141 503.836 52.8701 504.628 52.8701 505.84C52.8701 507.064 51.8141 507.844 50.2541 507.844C48.7061 507.844 47.6501 507.064 47.6501 505.84C47.6501 504.628 48.7061 503.836 50.2541 503.836ZM50.2541 504.604C49.2821 504.604 48.5981 505.096 48.5981 505.84C48.5981 506.584 49.2821 507.076 50.2541 507.076C51.2381 507.076 51.9221 506.584 51.9221 505.84C51.9221 505.096 51.2381 504.604 50.2541 504.604ZM49.7621 501.088H50.7581V502.852H49.7621V501.088ZM60.5252 507.556H61.5212V509.32H60.5252V507.556ZM65.0852 501.088H66.0812V511.936H65.0852V501.088ZM65.7572 505.696H67.7612V506.536H65.7572V505.696ZM57.7292 509.872L57.5852 509.044C59.5292 509.044 62.1812 509.02 64.4252 508.696L64.5092 509.44C62.1692 509.86 59.6252 509.872 57.7292 509.872ZM57.7652 502.396H64.2572V503.2H57.7652V502.396ZM61.0172 503.836C62.5292 503.836 63.5732 504.628 63.5732 505.84C63.5732 507.064 62.5292 507.844 61.0172 507.844C59.5052 507.844 58.4732 507.064 58.4732 505.84C58.4732 504.628 59.5052 503.836 61.0172 503.836ZM61.0172 504.604C60.0452 504.604 59.4092 505.096 59.4092 505.84C59.4092 506.584 60.0452 507.076 61.0172 507.076C61.9892 507.076 62.6372 506.584 62.6372 505.84C62.6372 505.096 61.9892 504.604 61.0172 504.604ZM60.5252 501.1H61.5212V502.936H60.5252V501.1ZM76.5928 507.928C78.8968 507.928 80.3728 508.684 80.3728 509.932C80.3728 511.168 78.8968 511.912 76.5928 511.912C74.2768 511.912 72.8128 511.168 72.8128 509.932C72.8128 508.684 74.2768 507.928 76.5928 507.928ZM76.5928 508.708C74.8888 508.708 73.7968 509.176 73.7968 509.932C73.7968 510.676 74.8888 511.144 76.5928 511.144C78.2968 511.144 79.3768 510.676 79.3768 509.932C79.3768 509.176 78.2968 508.708 76.5928 508.708ZM72.8968 501.628H79.8808V502.444H72.8968V501.628ZM71.7328 506.14H81.5248V506.944H71.7328V506.14ZM75.7528 504.052H76.7368V506.368H75.7528V504.052ZM79.3048 501.628H80.2768V502.552C80.2768 503.428 80.2768 504.304 79.9888 505.432L79.0048 505.312C79.3048 504.196 79.3048 503.404 79.3048 502.552V501.628ZM82.7599 507.508H92.5999V508.324H82.7599V507.508ZM87.1519 507.892H88.1359V511.936H87.1519V507.892ZM83.9959 501.52H84.9919V503.008H90.3559V501.52H91.3399V506.212H83.9959V501.52ZM84.9919 503.812V505.408H90.3559V503.812H84.9919ZM101.155 501.088H102.151V511.936H101.155V501.088ZM101.911 505.54H103.927V506.38H101.911V505.54ZM93.7509 502.816H100.147V503.632H93.7509V502.816ZM96.9909 504.532C98.5269 504.532 99.6309 505.564 99.6309 507.028C99.6309 508.492 98.5269 509.524 96.9909 509.524C95.4669 509.524 94.3509 508.492 94.3509 507.028C94.3509 505.564 95.4669 504.532 96.9909 504.532ZM96.9909 505.36C96.0069 505.36 95.2989 506.044 95.2989 507.028C95.2989 508 96.0069 508.696 96.9909 508.696C97.9749 508.696 98.6829 508 98.6829 507.028C98.6829 506.044 97.9749 505.36 96.9909 505.36ZM96.4749 501.22H97.4709V503.188H96.4749V501.22ZM112.746 501.088H113.742V511.936H112.746V501.088ZM109.566 502.252H110.55C110.55 505.396 109.134 508.144 105.51 509.92L104.982 509.116C108.114 507.604 109.566 505.3 109.566 502.42V502.252ZM105.474 502.252H109.998V503.068H105.474V502.252Z" fill="#222222"/>
<path d="M25.86 532.716H33.312V533.52H25.86V532.716ZM24.6 535.764H34.428V536.592H24.6V535.764ZM29.004 533.136H29.988V536.148H29.004V533.136ZM25.86 527.964H33.192V528.78H26.868V533.016H25.86V527.964ZM26.544 530.292H32.964V531.096H26.544V530.292ZM37.2831 534.132H44.5311V537.936H43.5231V534.936H37.2831V534.132ZM43.5231 527.088H44.5311V533.532H43.5231V527.088ZM38.7111 527.724C40.3431 527.724 41.5311 528.78 41.5311 530.304C41.5311 531.816 40.3431 532.86 38.7111 532.86C37.0671 532.86 35.8791 531.816 35.8791 530.304C35.8791 528.78 37.0671 527.724 38.7111 527.724ZM38.7111 528.576C37.6311 528.576 36.8511 529.272 36.8511 530.304C36.8511 531.324 37.6311 532.032 38.7111 532.032C39.7911 532.032 40.5711 531.324 40.5711 530.304C40.5711 529.272 39.7911 528.576 38.7111 528.576ZM53.9987 527.832H54.8627V528.66C54.8627 531.024 52.6667 532.86 50.4947 533.352L50.0507 532.524C51.9587 532.164 53.9987 530.508 53.9987 528.66V527.832ZM54.1787 527.832H55.0427V528.66C55.0427 530.52 57.0947 532.164 58.9907 532.524L58.5467 533.352C56.3867 532.86 54.1787 531.036 54.1787 528.66V527.832ZM49.6547 535.656H59.4827V536.472H49.6547V535.656ZM68.6378 527.076H69.6218V537.948H68.6378V527.076ZM66.3818 531.168H68.7818V531.996H66.3818V531.168ZM61.1858 534.516H62.0138C64.0538 534.516 65.3378 534.48 66.8618 534.192L66.9578 535.008C65.3978 535.284 64.0778 535.344 62.0138 535.344H61.1858V534.516ZM61.1858 528.072H66.2018V528.9H62.1698V534.804H61.1858V528.072ZM61.9178 531.12H65.7338V531.924H61.9178V531.12ZM79.6048 527.088H80.6008V537.96H79.6048V527.088ZM72.4288 534.42H73.3048C75.4528 534.42 76.8448 534.348 78.4528 534.048L78.5608 534.888C76.9048 535.2 75.4888 535.26 73.3048 535.26H72.4288V534.42ZM72.4288 528.12H77.5528V528.948H73.4128V534.732H72.4288V528.12Z" fill="#222222"/>
<path d="M29.532 554.648H32.844V555.464H29.532V554.648ZM29.532 557.144H32.844V557.972H29.532V557.144ZM27.552 553.724C29.148 553.724 30.348 554.804 30.348 556.304C30.348 557.816 29.148 558.884 27.552 558.884C25.944 558.884 24.756 557.816 24.756 556.304C24.756 554.804 25.944 553.724 27.552 553.724ZM27.552 554.576C26.496 554.576 25.716 555.284 25.716 556.304C25.716 557.324 26.496 558.032 27.552 558.032C28.608 558.032 29.4 557.324 29.4 556.304C29.4 555.284 28.608 554.576 27.552 554.576ZM32.52 553.088H33.516V559.508H32.52V553.088ZM29.952 559.76C32.184 559.76 33.564 560.528 33.564 561.836C33.564 563.156 32.184 563.912 29.952 563.912C27.708 563.912 26.328 563.156 26.328 561.836C26.328 560.528 27.708 559.76 29.952 559.76ZM29.952 560.552C28.308 560.552 27.312 561.032 27.312 561.836C27.312 562.652 28.308 563.132 29.952 563.132C31.584 563.132 32.58 562.652 32.58 561.836C32.58 561.032 31.584 560.552 29.952 560.552ZM38.5311 553.916C40.1031 553.916 41.2311 555.392 41.2311 557.696C41.2311 560.012 40.1031 561.488 38.5311 561.488C36.9471 561.488 35.8311 560.012 35.8311 557.696C35.8311 555.392 36.9471 553.916 38.5311 553.916ZM38.5311 554.816C37.4871 554.816 36.7791 555.944 36.7791 557.696C36.7791 559.46 37.4871 560.612 38.5311 560.612C39.5751 560.612 40.2831 559.46 40.2831 557.696C40.2831 555.944 39.5751 554.816 38.5311 554.816ZM43.5831 553.076H44.5671V563.948H43.5831V553.076ZM40.9071 557.216H44.0151V558.032H40.9071V557.216ZM48.9341 555.08H49.6901V555.428C49.6901 557.18 48.8141 558.752 47.2421 559.412L46.7501 558.668C48.1301 558.116 48.9341 556.808 48.9341 555.428V555.08ZM49.1261 555.08H49.8701V555.428C49.8701 556.724 50.6981 557.948 52.0661 558.476L51.5981 559.22C50.0021 558.596 49.1261 557.096 49.1261 555.428V555.08ZM46.9661 554.516H51.8021V555.32H46.9661V554.516ZM48.9341 553.208H49.8701V554.852H48.9341V553.208ZM54.8621 553.1H55.8101V559.748H54.8621V553.1ZM53.1101 555.98H55.1621V556.796H53.1101V555.98ZM52.5581 553.28H53.4941V559.676H52.5581V553.28ZM48.5381 560.324H55.8101V563.936H54.8261V561.128H48.5381V560.324ZM68.5778 553.088H69.5738V558.836H68.5778V553.088ZM62.0618 563.024H62.7098C64.2698 563.024 65.1938 563 66.3578 562.784L66.4658 563.552C65.2538 563.768 64.3178 563.792 62.7098 563.792H62.0618V563.024ZM62.0378 559.328H65.6258V561.836H63.0218V563.444H62.0618V561.116H64.6658V560.096H62.0378V559.328ZM66.0938 559.328H69.5738V563.864H68.5898V560.144H66.0938V559.328ZM63.7298 553.58C65.3498 553.58 66.5378 554.576 66.5378 556.016C66.5378 557.456 65.3498 558.452 63.7298 558.452C62.1218 558.452 60.9338 557.456 60.9338 556.016C60.9338 554.576 62.1218 553.58 63.7298 553.58ZM63.7298 554.396C62.6858 554.396 61.8938 555.068 61.8938 556.016C61.8938 556.964 62.6858 557.636 63.7298 557.636C64.7858 557.636 65.5658 556.964 65.5658 556.016C65.5658 555.068 64.7858 554.396 63.7298 554.396ZM79.6288 553.088H80.6248V563.936H79.6288V553.088ZM76.4488 554.252H77.4328C77.4328 557.396 76.0168 560.144 72.3928 561.92L71.8648 561.116C74.9968 559.604 76.4488 557.3 76.4488 554.42V554.252ZM72.3568 554.252H76.8808V555.068H72.3568V554.252Z" fill="#222222"/>
<path d="M24.924 579.844H30.72V580.66H24.924V579.844ZM24.744 584.68L24.624 583.852C26.496 583.852 29.088 583.828 31.224 583.552L31.296 584.296C29.112 584.644 26.58 584.68 24.744 584.68ZM25.992 580.384H26.952V584.212H25.992V580.384ZM28.68 580.384H29.64V584.212H28.68V580.384ZM32.016 579.088H33.012V585.088H32.016V579.088ZM32.736 581.608H34.62V582.436H32.736V581.608ZM26.172 585.568H27.156V586.84H32.028V585.568H33.012V589.792H26.172V585.568ZM27.156 587.644V588.976H32.028V587.644H27.156ZM40.0311 582.88H41.0151V584.908H40.0311V582.88ZM40.0191 579.256H40.8831V579.736C40.8831 581.692 38.8071 583.084 36.5991 583.444L36.2151 582.652C38.1591 582.388 40.0191 581.188 40.0191 579.736V579.256ZM40.1751 579.256H41.0271V579.736C41.0271 581.188 42.8991 582.388 44.8311 582.652L44.4591 583.444C42.2631 583.072 40.1751 581.692 40.1751 579.736V579.256ZM35.6271 584.476H45.4311V585.268H35.6271V584.476ZM40.5231 586.168C42.8511 586.168 44.2431 586.84 44.2431 588.04C44.2431 589.252 42.8511 589.912 40.5231 589.912C38.1951 589.912 36.8031 589.252 36.8031 588.04C36.8031 586.84 38.1951 586.168 40.5231 586.168ZM40.5231 586.936C38.8191 586.936 37.8111 587.332 37.8111 588.04C37.8111 588.748 38.8191 589.144 40.5231 589.144C42.2391 589.144 43.2351 588.748 43.2351 588.04C43.2351 587.332 42.2391 586.936 40.5231 586.936ZM49.6547 584.188H59.4587V585.004H49.6547V584.188ZM50.9147 582.22H58.3307V583.036H50.9147V582.22ZM50.9147 579.424H58.2107V580.24H51.9107V582.7H50.9147V579.424ZM50.8787 588.976H58.3787V589.792H50.8787V588.976ZM50.8787 586.168H58.2707V586.972H51.8747V589.444H50.8787V586.168ZM68.5898 579.088H69.5858V589.936H68.5898V579.088ZM65.4098 580.252H66.3938C66.3938 583.396 64.9778 586.144 61.3538 587.92L60.8258 587.116C63.9578 585.604 65.4098 583.3 65.4098 580.42V580.252ZM61.3178 580.252H65.8418V581.068H61.3178V580.252Z" fill="#222222"/>
<rect x="12" y="475" width="135" height="0.5" fill="#DFDFDF"/>
<rect x="183" y="424" width="159" height="218" rx="10" fill="#F5F5F5"/>
<path d="M210.968 452.944H212.648V454.608C212.648 457.952 211.24 461.36 208.52 462.64L207.32 460.96C209.768 459.808 210.968 457.04 210.968 454.608V452.944ZM211.416 452.944H213.096V454.608C213.096 456.848 214.248 459.472 216.68 460.592L215.512 462.272C212.792 461.008 211.416 457.76 211.416 454.608V452.944ZM207.896 452.032H216.024V453.776H207.896V452.032ZM217.112 450.608H219.256V465.424H217.112V450.608ZM218.776 456.256H221.4V458.016H218.776V456.256ZM232.567 450.608H234.711V465.424H232.567V450.608ZM228.199 452.144H230.311C230.311 456.672 228.775 460.384 223.511 462.928L222.407 461.232C226.663 459.184 228.199 456.496 228.199 452.528V452.144ZM223.191 452.144H229.207V453.824H223.191V452.144ZM242.79 454.512H245.798V456.208H242.79V454.512ZM242.71 458.208H245.734V459.904H242.71V458.208ZM247.814 450.608H249.846V465.424H247.814V450.608ZM244.758 450.928H246.742V464.768H244.758V450.928ZM241.414 452.352H243.462C243.462 456.56 242.198 459.92 238.07 462.352L236.87 460.864C240.214 458.832 241.414 456.368 241.414 452.784V452.352ZM237.718 452.352H242.134V454.048H237.718V452.352ZM252.228 451.264H254.34V453.008H257.236V451.264H259.348V457.744H252.228V451.264ZM254.34 454.608V456.08H257.236V454.608H254.34ZM261.332 450.608H263.46V458.128H261.332V450.608ZM262.596 453.456H265.412V455.184H262.596V453.456ZM253.668 458.704H263.46V462.736H255.812V464.496H253.7V461.216H261.364V460.336H253.668V458.704ZM253.7 463.68H263.892V465.328H253.7V463.68Z" fill="#9FC7C0"/>
<path d="M210.6 506.512H211.608V508.984H210.6V506.512ZM211.116 501.784C212.808 501.784 214.02 502.828 214.02 504.34C214.02 505.852 212.808 506.896 211.116 506.896C209.424 506.896 208.2 505.852 208.2 504.34C208.2 502.828 209.424 501.784 211.116 501.784ZM211.116 502.648C209.988 502.648 209.172 503.332 209.172 504.34C209.172 505.348 209.988 506.044 211.116 506.044C212.232 506.044 213.048 505.348 213.048 504.34C213.048 503.332 212.232 502.648 211.116 502.648ZM215.436 501.076H216.432V511.948H215.436V501.076ZM207.792 509.596L207.648 508.768C209.628 508.768 212.364 508.756 214.728 508.384L214.812 509.116C212.376 509.584 209.724 509.596 207.792 509.596ZM219.887 501.592H226.871V502.408H219.887V501.592ZM218.639 505.48H228.467V506.296H218.639V505.48ZM223.043 506.032H224.027V508.588H223.043V506.032ZM226.223 501.592H227.195V502.396C227.195 503.296 227.195 504.388 226.835 505.876L225.863 505.756C226.223 504.304 226.223 503.272 226.223 502.396V501.592ZM219.659 508.264H227.267V511.936H226.271V509.08H219.659V508.264ZM232.57 501.916C234.142 501.916 235.27 503.392 235.27 505.696C235.27 508.012 234.142 509.488 232.57 509.488C230.986 509.488 229.87 508.012 229.87 505.696C229.87 503.392 230.986 501.916 232.57 501.916ZM232.57 502.816C231.526 502.816 230.818 503.944 230.818 505.696C230.818 507.46 231.526 508.612 232.57 508.612C233.614 508.612 234.322 507.46 234.322 505.696C234.322 503.944 233.614 502.816 232.57 502.816ZM237.622 501.076H238.606V511.948H237.622V501.076ZM234.946 505.216H238.054V506.032H234.946V505.216ZM244.078 502.108H245.026V504.76H247.294V502.108H248.218V509.224H244.078V502.108ZM245.026 505.564V508.408H247.294V505.564H245.026ZM251.95 501.088H252.91V511.936H251.95V501.088ZM250.21 505.384H252.298V506.2H250.21V505.384ZM249.55 501.316H250.498V511.396H249.55V501.316ZM254.721 507.304H264.561V508.12H254.721V507.304ZM259.113 507.808H260.097V511.936H259.113V507.808ZM259.617 501.52C261.885 501.52 263.409 502.444 263.409 503.896C263.409 505.348 261.885 506.272 259.617 506.272C257.361 506.272 255.825 505.348 255.825 503.896C255.825 502.444 257.361 501.52 259.617 501.52ZM259.617 502.324C257.961 502.324 256.833 502.936 256.833 503.896C256.833 504.856 257.961 505.468 259.617 505.468C261.273 505.468 262.389 504.856 262.389 503.896C262.389 502.936 261.273 502.324 259.617 502.324ZM273.668 501.088H274.664V511.936H273.668V501.088ZM270.488 502.252H271.472C271.472 505.396 270.056 508.144 266.432 509.92L265.904 509.116C269.036 507.604 270.488 505.3 270.488 502.42V502.252ZM266.396 502.252H270.92V503.068H266.396V502.252Z" fill="#222222"/>
<path d="M208.764 528.144H215.652V528.96H208.764V528.144ZM207.588 535.644H217.392V536.46H207.588V535.644ZM215.244 528.144H216.216V529.176C216.216 530.496 216.216 531.984 215.772 534.204L214.776 534.084C215.244 531.984 215.244 530.46 215.244 529.176V528.144ZM215.46 530.748V531.504L208.62 531.888L208.464 531.024L215.46 530.748ZM211.404 532.836H212.4V535.944H211.404V532.836ZM226.523 527.088H227.531V533.748H226.523V527.088ZM219.287 531.888H220.187C222.527 531.888 223.883 531.828 225.443 531.504L225.563 532.332C223.955 532.632 222.575 532.704 220.187 532.704H219.287V531.888ZM219.287 527.94H224.387V528.756H220.283V532.332H219.287V527.94ZM223.919 533.772C226.175 533.772 227.567 534.54 227.567 535.848C227.567 537.168 226.175 537.924 223.919 537.924C221.675 537.924 220.283 537.168 220.283 535.848C220.283 534.54 221.675 533.772 223.919 533.772ZM223.919 534.564C222.275 534.564 221.279 535.044 221.279 535.848C221.279 536.652 222.275 537.144 223.919 537.144C225.575 537.144 226.571 536.652 226.571 535.848C226.571 535.044 225.575 534.564 223.919 534.564ZM233.039 528.108H233.987V530.76H236.255V528.108H237.179V535.224H233.039V528.108ZM233.987 531.564V534.408H236.255V531.564H233.987ZM240.911 527.088H241.871V537.936H240.911V527.088ZM239.171 531.384H241.259V532.2H239.171V531.384ZM238.511 527.316H239.459V537.396H238.511V527.316ZM243.682 533.304H253.522V534.12H243.682V533.304ZM248.074 533.808H249.058V537.936H248.074V533.808ZM248.578 527.52C250.846 527.52 252.37 528.444 252.37 529.896C252.37 531.348 250.846 532.272 248.578 532.272C246.322 532.272 244.786 531.348 244.786 529.896C244.786 528.444 246.322 527.52 248.578 527.52ZM248.578 528.324C246.922 528.324 245.794 528.936 245.794 529.896C245.794 530.856 246.922 531.468 248.578 531.468C250.234 531.468 251.35 530.856 251.35 529.896C251.35 528.936 250.234 528.324 248.578 528.324ZM262.629 527.088H263.625V537.936H262.629V527.088ZM259.449 528.252H260.433C260.433 531.396 259.017 534.144 255.393 535.92L254.865 535.116C257.997 533.604 259.449 531.3 259.449 528.42V528.252ZM255.357 528.252H259.881V529.068H255.357V528.252Z" fill="#222222"/>
<path d="M210.276 554.636H211.068V556.4C211.068 558.656 209.688 560.984 207.996 561.848L207.42 561.056C208.968 560.3 210.276 558.236 210.276 556.4V554.636ZM210.456 554.636H211.248V556.4C211.248 558.116 212.472 560.048 214.044 560.792L213.48 561.584C211.764 560.732 210.456 558.548 210.456 556.4V554.636ZM207.804 554.192H213.648V555.032H207.804V554.192ZM214.932 553.088H215.94V563.936H214.932V553.088ZM215.7 557.468H217.716V558.308H215.7V557.468ZM223.259 553.82H224.303C224.303 556.58 222.347 558.548 219.191 559.412L218.795 558.632C221.579 557.864 223.259 556.268 223.259 554.252V553.82ZM219.347 553.82H223.871V554.624H219.347V553.82ZM220.319 560.048H227.555V563.912H226.559V560.852H220.319V560.048ZM226.559 553.088H227.555V559.556H226.559V553.088ZM223.859 555.02H226.763V555.836H223.859V555.02ZM223.751 557.324H226.691V558.14H223.751V557.324ZM229.666 558.248H239.47V559.052H229.666V558.248ZM234.562 559.988C236.878 559.988 238.282 560.708 238.282 561.956C238.282 563.204 236.878 563.912 234.562 563.912C232.246 563.912 230.842 563.204 230.842 561.956C230.842 560.708 232.246 559.988 234.562 559.988ZM234.562 560.78C232.87 560.78 231.85 561.2 231.85 561.956C231.85 562.7 232.87 563.132 234.562 563.132C236.266 563.132 237.274 562.7 237.274 561.956C237.274 561.2 236.266 560.78 234.562 560.78ZM233.926 554.072H234.814V554.396C234.814 556.136 232.822 557.324 230.578 557.588L230.218 556.808C232.162 556.592 233.926 555.62 233.926 554.396V554.072ZM234.346 554.072H235.222V554.396C235.222 555.62 236.986 556.592 238.93 556.808L238.57 557.588C236.326 557.324 234.346 556.136 234.346 554.396V554.072ZM230.566 553.64H238.594V554.444H230.566V553.64ZM248.554 559.928C250.858 559.928 252.334 560.684 252.334 561.932C252.334 563.168 250.858 563.912 248.554 563.912C246.238 563.912 244.774 563.168 244.774 561.932C244.774 560.684 246.238 559.928 248.554 559.928ZM248.554 560.708C246.85 560.708 245.758 561.176 245.758 561.932C245.758 562.676 246.85 563.144 248.554 563.144C250.258 563.144 251.338 562.676 251.338 561.932C251.338 561.176 250.258 560.708 248.554 560.708ZM244.858 553.628H251.842V554.444H244.858V553.628ZM243.694 558.14H253.486V558.944H243.694V558.14ZM247.714 556.052H248.698V558.368H247.714V556.052ZM251.266 553.628H252.238V554.552C252.238 555.428 252.238 556.304 251.95 557.432L250.966 557.312C251.266 556.196 251.266 555.404 251.266 554.552V553.628ZM254.721 559.508H264.561V560.324H254.721V559.508ZM259.113 559.892H260.097V563.936H259.113V559.892ZM255.957 553.52H256.953V555.008H262.317V553.52H263.301V558.212H255.957V553.52ZM256.953 555.812V557.408H262.317V555.812H256.953ZM273.116 553.088H274.112V563.936H273.116V553.088ZM273.872 557.54H275.888V558.38H273.872V557.54ZM265.712 554.816H272.108V555.632H265.712V554.816ZM268.952 556.532C270.488 556.532 271.592 557.564 271.592 559.028C271.592 560.492 270.488 561.524 268.952 561.524C267.428 561.524 266.312 560.492 266.312 559.028C266.312 557.564 267.428 556.532 268.952 556.532ZM268.952 557.36C267.968 557.36 267.26 558.044 267.26 559.028C267.26 560 267.968 560.696 268.952 560.696C269.936 560.696 270.644 560 270.644 559.028C270.644 558.044 269.936 557.36 268.952 557.36ZM268.436 553.22H269.432V555.188H268.436V553.22ZM284.707 553.088H285.703V563.936H284.707V553.088ZM281.527 554.252H282.511C282.511 557.396 281.095 560.144 277.471 561.92L276.943 561.116C280.075 559.604 281.527 557.3 281.527 554.42V554.252ZM277.435 554.252H281.959V555.068H277.435V554.252Z" fill="#222222"/>
<path d="M207.588 584.848H217.392V585.664H207.588V584.848ZM212.004 583.264H212.988V585.268H212.004V583.264ZM208.86 588.88H216.312V589.696H208.86V588.88ZM208.86 586.564H209.856V589.144H208.86V586.564ZM212.496 579.4C214.812 579.4 216.312 580.228 216.312 581.572C216.312 582.928 214.812 583.732 212.496 583.732C210.168 583.732 208.68 582.928 208.68 581.572C208.68 580.228 210.168 579.4 212.496 579.4ZM212.496 580.216C210.792 580.216 209.7 580.732 209.7 581.572C209.7 582.424 210.792 582.928 212.496 582.928C214.2 582.928 215.292 582.424 215.292 581.572C215.292 580.732 214.2 580.216 212.496 580.216ZM225.983 579.076H226.979V589.948H225.983V579.076ZM226.739 583.396H228.755V584.236H226.739V583.396ZM219.071 586.504H219.935C221.975 586.504 223.391 586.432 225.035 586.12L225.143 586.948C223.451 587.248 222.011 587.332 219.935 587.332H219.071V586.504ZM219.047 580.096H223.955V583.984H220.055V586.84H219.071V583.168H222.971V580.912H219.047V580.096ZM237.562 579.1H238.57V587.02H237.562V579.1ZM231.598 588.88H238.894V589.696H231.598V588.88ZM231.598 586.204H232.582V589.156H231.598V586.204ZM232.75 579.844C234.37 579.844 235.57 580.948 235.57 582.52C235.57 584.08 234.37 585.196 232.75 585.196C231.13 585.196 229.918 584.08 229.918 582.52C229.918 580.948 231.13 579.844 232.75 579.844ZM232.75 580.708C231.694 580.708 230.89 581.452 230.89 582.52C230.89 583.576 231.694 584.32 232.75 584.32C233.806 584.32 234.61 583.576 234.61 582.52C234.61 581.452 233.806 580.708 232.75 580.708ZM251.11 579.088H252.106V585.58H251.11V579.088ZM251.83 581.884H253.714V582.724H251.83V581.884ZM248.11 579.88H249.178C249.178 582.664 247.246 584.692 244.114 585.616L243.694 584.812C246.454 583.996 248.11 582.364 248.11 580.336V579.88ZM244.174 579.88H248.674V580.708H244.174V579.88ZM248.71 585.712C250.858 585.712 252.226 586.504 252.226 587.812C252.226 589.12 250.858 589.912 248.71 589.912C246.55 589.912 245.17 589.12 245.17 587.812C245.17 586.504 246.55 585.712 248.71 585.712ZM248.71 586.504C247.15 586.504 246.154 586.996 246.154 587.812C246.154 588.628 247.15 589.12 248.71 589.12C250.27 589.12 251.266 588.628 251.266 587.812C251.266 586.996 250.27 586.504 248.71 586.504ZM258.249 579.868C259.941 579.868 261.153 580.912 261.153 582.424C261.153 583.948 259.941 584.992 258.249 584.992C256.557 584.992 255.333 583.948 255.333 582.424C255.333 580.912 256.557 579.868 258.249 579.868ZM258.249 580.732C257.121 580.732 256.305 581.416 256.305 582.424C256.305 583.432 257.121 584.128 258.249 584.128C259.365 584.128 260.181 583.432 260.181 582.424C260.181 581.416 259.365 580.732 258.249 580.732ZM262.569 579.076H263.565V589.948H262.569V579.076ZM254.925 587.572L254.781 586.744C256.761 586.744 259.497 586.732 261.861 586.36L261.945 587.092C259.509 587.56 256.857 587.572 254.925 587.572ZM268.748 584.188H278.552V585.004H268.748V584.188ZM270.008 582.22H277.424V583.036H270.008V582.22ZM270.008 579.424H277.304V580.24H271.004V582.7H270.008V579.424ZM269.972 588.976H277.472V589.792H269.972V588.976ZM269.972 586.168H277.364V586.972H270.968V589.444H269.972V586.168ZM287.684 579.088H288.68V589.936H287.684V579.088ZM284.504 580.252H285.488C285.488 583.396 284.072 586.144 280.448 587.92L279.92 587.116C283.052 585.604 284.504 583.3 284.504 580.42V580.252ZM280.412 580.252H284.936V581.068H280.412V580.252Z" fill="#222222"/>
<path d="M213.348 608.076H216.084V608.892H213.348V608.076ZM215.52 605.1H216.516V613.044H215.52V605.1ZM209.592 614.88H216.816V615.696H209.592V614.88ZM209.592 612.348H210.588V615.3H209.592V612.348ZM210.36 606.444H211.176V607.32C211.176 609.288 209.952 610.992 208.14 611.664L207.624 610.872C209.244 610.296 210.36 608.856 210.36 607.32V606.444ZM210.552 606.444H211.356V607.308C211.356 608.712 212.412 610.08 213.984 610.632L213.48 611.412C211.716 610.776 210.552 609.144 210.552 607.308V606.444ZM207.936 605.976H213.732V606.78H207.936V605.976ZM221.315 606.636H222.107V608.4C222.107 610.656 220.727 612.984 219.035 613.848L218.459 613.056C220.007 612.3 221.315 610.236 221.315 608.4V606.636ZM221.495 606.636H222.287V608.4C222.287 610.116 223.511 612.048 225.083 612.792L224.519 613.584C222.803 612.732 221.495 610.548 221.495 608.4V606.636ZM218.843 606.192H224.687V607.032H218.843V606.192ZM225.971 605.088H226.979V615.936H225.971V605.088ZM226.739 609.468H228.755V610.308H226.739V609.468ZM231.934 607.08H232.69V607.428C232.69 609.18 231.814 610.752 230.242 611.412L229.75 610.668C231.13 610.116 231.934 608.808 231.934 607.428V607.08ZM232.126 607.08H232.87V607.428C232.87 608.724 233.698 609.948 235.066 610.476L234.598 611.22C233.002 610.596 232.126 609.096 232.126 607.428V607.08ZM229.966 606.516H234.802V607.32H229.966V606.516ZM231.934 605.208H232.87V606.852H231.934V605.208ZM237.862 605.1H238.81V611.748H237.862V605.1ZM236.11 607.98H238.162V608.796H236.11V607.98ZM235.558 605.28H236.494V611.676H235.558V605.28ZM231.538 612.324H238.81V615.936H237.826V613.128H231.538V612.324ZM251.578 605.088H252.574V610.836H251.578V605.088ZM245.062 615.024H245.71C247.27 615.024 248.194 615 249.358 614.784L249.466 615.552C248.254 615.768 247.318 615.792 245.71 615.792H245.062V615.024ZM245.038 611.328H248.626V613.836H246.022V615.444H245.062V613.116H247.666V612.096H245.038V611.328ZM249.094 611.328H252.574V615.864H251.59V612.144H249.094V611.328ZM246.73 605.58C248.35 605.58 249.538 606.576 249.538 608.016C249.538 609.456 248.35 610.452 246.73 610.452C245.122 610.452 243.934 609.456 243.934 608.016C243.934 606.576 245.122 605.58 246.73 605.58ZM246.73 606.396C245.686 606.396 244.894 607.068 244.894 608.016C244.894 608.964 245.686 609.636 246.73 609.636C247.786 609.636 248.566 608.964 248.566 608.016C248.566 607.068 247.786 606.396 246.73 606.396ZM262.629 605.088H263.625V615.936H262.629V605.088ZM259.449 606.252H260.433C260.433 609.396 259.017 612.144 255.393 613.92L254.865 613.116C257.997 611.604 259.449 609.3 259.449 606.42V606.252ZM255.357 606.252H259.881V607.068H255.357V606.252Z" fill="#222222"/>
<rect x="195" y="475" width="135" height="0.5" fill="#DFDFDF"/>
<rect y="666" width="159" height="218" rx="10" fill="#F5F5F5"/>
<path d="M34.144 692.592H36.256V707.456H34.144V692.592ZM35.776 698.192H38.4V699.952H35.776V698.192ZM25.248 702.272H26.496C29.008 702.272 30.96 702.192 33.136 701.808L33.344 703.52C31.104 703.92 29.072 704.016 26.496 704.016H25.248V702.272ZM25.232 693.856H32.048V699.6H27.36V702.928H25.248V697.904H29.936V695.552H25.232V693.856ZM49.5188 692.592H51.6628V707.456H49.5188V692.592ZM43.6788 693.632C45.9188 693.632 47.5668 695.68 47.5668 698.912C47.5668 702.176 45.9188 704.224 43.6788 704.224C41.4388 704.224 39.7908 702.176 39.7908 698.912C39.7908 695.68 41.4388 693.632 43.6788 693.632ZM43.6788 695.568C42.5748 695.568 41.8228 696.736 41.8228 698.912C41.8228 701.12 42.5748 702.304 43.6788 702.304C44.7828 702.304 45.5188 701.12 45.5188 698.912C45.5188 696.736 44.7828 695.568 43.6788 695.568ZM54.0935 703.968H67.5015V705.712H54.0935V703.968ZM55.1175 693.888H66.3975V695.584H55.1175V693.888ZM55.1815 700.016H66.3495V701.728H55.1815V700.016ZM57.1335 695.456H59.2615V700.176H57.1335V695.456ZM62.2695 695.456H64.3815V700.176H62.2695V695.456Z" fill="#C9BC9C"/>
<path d="M24.6 751.716H34.428V752.544H24.6V751.716ZM29.016 749.088H30V751.992H29.016V749.088ZM28.992 744.456H29.832V745.128C29.832 747.348 27.612 749.028 25.476 749.472L25.068 748.68C26.94 748.368 28.992 746.844 28.992 745.128V744.456ZM29.172 744.456H30.012V745.128C30.012 746.844 32.076 748.332 33.972 748.644L33.576 749.436C31.404 749.004 29.172 747.348 29.172 745.128V744.456ZM25.404 744.072H33.6V744.888H25.404V744.072ZM43.4991 743.088H44.4951V749.628H43.4991V743.088ZM40.2711 743.88H41.3031C41.3031 746.676 39.2391 748.716 36.1551 749.616L35.7471 748.836C38.4711 748.032 40.2711 746.4 40.2711 744.312V743.88ZM36.3351 743.88H40.8471V744.708H36.3351V743.88ZM40.9191 749.712C43.1631 749.712 44.5671 750.492 44.5671 751.812C44.5671 753.144 43.1631 753.912 40.9191 753.912C38.6751 753.912 37.2831 753.144 37.2831 751.812C37.2831 750.492 38.6751 749.712 40.9191 749.712ZM40.9191 750.516C39.2751 750.516 38.2791 750.996 38.2791 751.812C38.2791 752.628 39.2751 753.12 40.9191 753.12C42.5631 753.12 43.5711 752.628 43.5711 751.812C43.5711 750.996 42.5631 750.516 40.9191 750.516ZM54.0221 743.088H55.0181V753.936H54.0221V743.088ZM54.7781 747.54H56.7941V748.38H54.7781V747.54ZM46.6181 744.816H53.0141V745.632H46.6181V744.816ZM49.8581 746.532C51.3941 746.532 52.4981 747.564 52.4981 749.028C52.4981 750.492 51.3941 751.524 49.8581 751.524C48.3341 751.524 47.2181 750.492 47.2181 749.028C47.2181 747.564 48.3341 746.532 49.8581 746.532ZM49.8581 747.36C48.8741 747.36 48.1661 748.044 48.1661 749.028C48.1661 750 48.8741 750.696 49.8581 750.696C50.8421 750.696 51.5501 750 51.5501 749.028C51.5501 748.044 50.8421 747.36 49.8581 747.36ZM49.3421 743.22H50.3381V745.188H49.3421V743.22ZM65.6132 743.088H66.6092V753.936H65.6132V743.088ZM62.4332 744.252H63.4172C63.4172 747.396 62.0012 750.144 58.3772 751.92L57.8492 751.116C60.9812 749.604 62.4332 747.3 62.4332 744.42V744.252ZM58.3412 744.252H62.8652V745.068H58.3412V744.252Z" fill="#222222"/>
<path d="M25.788 776.696H33.192V779.792H25.788V776.696ZM32.22 777.464H26.772V779.036H32.22V777.464ZM25.104 769.976H33.828V770.756H25.104V769.976ZM29.496 771.188C31.728 771.188 33 771.716 33 772.724C33 773.732 31.728 774.26 29.496 774.26C27.252 774.26 25.992 773.732 25.992 772.724C25.992 771.716 27.252 771.188 29.496 771.188ZM29.496 771.884C27.924 771.884 27.048 772.184 27.048 772.724C27.048 773.264 27.924 773.564 29.496 773.564C31.056 773.564 31.932 773.264 31.932 772.724C31.932 772.184 31.056 771.884 29.496 771.884ZM29.004 768.932H29.988V770.48H29.004V768.932ZM24.588 775.088H34.392V775.868H24.588V775.088ZM29.004 774.02H29.988V775.52H29.004V774.02ZM36.8991 774.932H44.3511V775.736H36.8991V774.932ZM35.6391 777.716H45.4671V778.544H35.6391V777.716ZM36.8991 770.012H44.2311V770.828H37.9071V775.184H36.8991V770.012ZM37.5831 772.436H44.0031V773.228H37.5831V772.436ZM47.0261 776.444H47.7461C49.0661 776.444 50.2901 776.396 51.7781 776.144L51.8621 776.96C50.3381 777.224 49.1141 777.272 47.7461 777.272H47.0261V776.444ZM47.0021 770.276H50.8781V774.056H47.9981V776.78H47.0261V773.252H49.9181V771.092H47.0021V770.276ZM54.9221 769.088H55.8821V779.936H54.9221V769.088ZM51.3941 772.976H53.1461V773.804H51.3941V772.976ZM52.7381 769.352H53.6621V779.372H52.7381V769.352ZM65.5892 769.076H66.5852V779.948H65.5892V769.076ZM60.8612 769.916C62.4692 769.916 63.6212 771.392 63.6212 773.696C63.6212 776.012 62.4692 777.488 60.8612 777.488C59.2652 777.488 58.1132 776.012 58.1132 773.696C58.1132 771.392 59.2652 769.916 60.8612 769.916ZM60.8612 770.816C59.8052 770.816 59.0612 771.944 59.0612 773.696C59.0612 775.46 59.8052 776.612 60.8612 776.612C61.9292 776.612 62.6612 775.46 62.6612 773.696C62.6612 771.944 61.9292 770.816 60.8612 770.816ZM76.6283 769.088H77.6243V775.58H76.6283V769.088ZM69.4283 769.808H70.4123V774.284H69.4283V769.808ZM69.4283 773.792H70.3043C72.2123 773.792 73.7843 773.684 75.4763 773.324L75.6083 774.152C73.8443 774.524 72.2603 774.632 70.3043 774.632H69.4283V773.792ZM74.0243 775.664C76.2683 775.664 77.6723 776.456 77.6723 777.788C77.6723 779.132 76.2683 779.912 74.0243 779.912C71.7803 779.912 70.3883 779.132 70.3883 777.788C70.3883 776.456 71.7803 775.664 74.0243 775.664ZM74.0243 776.468C72.3803 776.468 71.3843 776.948 71.3843 777.788C71.3843 778.628 72.3803 779.108 74.0243 779.108C75.6683 779.108 76.6763 778.628 76.6763 777.788C76.6763 776.948 75.6683 776.468 74.0243 776.468Z" fill="#222222"/>
<path d="M32.496 795.088H33.504V800.704H32.496V795.088ZM26.424 801.232H33.504V803.848H27.432V805.48H26.46V803.104H32.508V802.024H26.424V801.232ZM26.46 805.024H33.9V805.816H26.46V805.024ZM25.08 795.82H30.9V796.612H25.08V795.82ZM24.888 800.344L24.78 799.516C26.712 799.516 29.304 799.468 31.416 799.204L31.476 799.936C29.316 800.26 26.796 800.332 24.888 800.344ZM26.148 796.18H27.108V799.876H26.148V796.18ZM28.86 796.18H29.832V799.876H28.86V796.18ZM42.9831 795.076H43.9791V805.948H42.9831V795.076ZM43.7391 799.396H45.7551V800.236H43.7391V799.396ZM36.0711 802.504H36.9351C38.9751 802.504 40.3911 802.432 42.0351 802.12L42.1431 802.948C40.4511 803.248 39.0111 803.332 36.9351 803.332H36.0711V802.504ZM36.0471 796.096H40.9551V799.984H37.0551V802.84H36.0711V799.168H39.9711V796.912H36.0471V796.096ZM51.1781 799.192H53.2181V800.02H51.1781V799.192ZM47.0741 802.516H47.7701C49.4381 802.516 50.4341 802.48 51.6341 802.24L51.7301 803.056C50.4941 803.296 49.4621 803.332 47.7701 803.332H47.0741V802.516ZM47.0741 796.396H51.0941V797.2H48.0221V802.792H47.0741V796.396ZM47.7341 799.324H50.6021V800.116H47.7341V799.324ZM54.9221 795.088H55.8821V805.936H54.9221V795.088ZM52.7381 795.34H53.6861V805.384H52.7381V795.34ZM62.0612 795.832H62.9252V796.66C62.9252 799.024 60.7292 800.86 58.5572 801.352L58.1132 800.524C60.0212 800.164 62.0612 798.508 62.0612 796.66V795.832ZM62.2412 795.832H63.1052V796.66C63.1052 798.52 65.1572 800.164 67.0532 800.524L66.6092 801.352C64.4492 800.86 62.2412 799.036 62.2412 796.66V795.832ZM57.7172 803.656H67.5452V804.472H57.7172V803.656Z" fill="#222222"/>
<path d="M29.556 827.892C31.764 827.892 33.12 828.636 33.12 829.908C33.12 831.18 31.764 831.924 29.556 831.924C27.348 831.924 25.992 831.18 25.992 829.908C25.992 828.636 27.348 827.892 29.556 827.892ZM29.556 828.696C27.948 828.696 26.964 829.14 26.964 829.908C26.964 830.688 27.948 831.132 29.556 831.132C31.164 831.132 32.148 830.688 32.148 829.908C32.148 829.14 31.164 828.696 29.556 828.696ZM32.016 821.088H33.012V827.604H32.016V821.088ZM32.736 823.812H34.62V824.652H32.736V823.812ZM25.044 821.772H26.028V823.392H29.088V821.772H30.06V826.776H25.044V821.772ZM26.028 824.184V825.972H29.088V824.184H26.028ZM38.3391 822.936H39.1551V823.404C39.1551 825.288 37.9551 826.872 36.1431 827.484L35.6631 826.704C37.2591 826.188 38.3391 824.868 38.3391 823.404V822.936ZM38.5191 822.936H39.3351V823.404C39.3351 824.748 40.4511 825.96 42.0471 826.428L41.5911 827.208C39.7671 826.644 38.5191 825.18 38.5191 823.404V822.936ZM35.9391 822.396H41.7231V823.2H35.9391V822.396ZM38.3391 821.04H39.3351V822.684H38.3391V821.04ZM41.3991 824.172H43.8471V825H41.3991V824.172ZM43.5591 821.088H44.5551V827.652H43.5591V821.088ZM40.9911 827.94C43.2351 827.94 44.6031 828.672 44.6031 829.932C44.6031 831.18 43.2351 831.912 40.9911 831.912C38.7351 831.912 37.3671 831.18 37.3671 829.932C37.3671 828.672 38.7351 827.94 40.9911 827.94ZM40.9911 828.72C39.3471 828.72 38.3631 829.164 38.3631 829.932C38.3631 830.688 39.3471 831.132 40.9911 831.132C42.6231 831.132 43.6191 830.688 43.6191 829.932C43.6191 829.164 42.6231 828.72 40.9911 828.72ZM46.6781 829.704H56.5061V830.532H46.6781V829.704ZM51.0461 827.076H52.0301V829.98H51.0461V827.076ZM51.0221 821.808H51.8861V822.648C51.8861 824.964 49.6661 826.752 47.4821 827.208L47.0621 826.38C48.9701 826.032 51.0221 824.436 51.0221 822.648V821.808ZM51.2021 821.808H52.0661V822.648C52.0661 824.448 54.1301 826.032 56.0381 826.38L55.6061 827.208C53.4221 826.752 51.2021 824.964 51.2021 822.648V821.808ZM68.0378 821.088H69.0338V831.936H68.0378V821.088ZM68.7938 825.54H70.8098V826.38H68.7938V825.54ZM60.6338 822.816H67.0298V823.632H60.6338V822.816ZM63.8738 824.532C65.4098 824.532 66.5138 825.564 66.5138 827.028C66.5138 828.492 65.4098 829.524 63.8738 829.524C62.3498 829.524 61.2338 828.492 61.2338 827.028C61.2338 825.564 62.3498 824.532 63.8738 824.532ZM63.8738 825.36C62.8898 825.36 62.1818 826.044 62.1818 827.028C62.1818 828 62.8898 828.696 63.8738 828.696C64.8578 828.696 65.5658 828 65.5658 827.028C65.5658 826.044 64.8578 825.36 63.8738 825.36ZM63.3578 821.22H64.3538V823.188H63.3578V821.22ZM79.6288 821.088H80.6248V831.936H79.6288V821.088ZM76.4488 822.252H77.4328C77.4328 825.396 76.0168 828.144 72.3928 829.92L71.8648 829.116C74.9968 827.604 76.4488 825.3 76.4488 822.42V822.252ZM72.3568 822.252H76.8808V823.068H72.3568V822.252Z" fill="#222222"/>
<path d="M27.264 847.748H28.08V849.08C28.08 851.204 26.904 852.896 25.08 853.604L24.552 852.812C26.208 852.224 27.264 850.76 27.264 849.08V847.748ZM27.432 847.748H28.248V849.116C28.248 850.592 29.328 851.984 30.912 852.548L30.42 853.328C28.632 852.68 27.432 851.024 27.432 849.116V847.748ZM32.016 847.076H33.012V855.092H32.016V847.076ZM32.7 850.412H34.62V851.24H32.7V850.412ZM26.28 856.88H33.492V857.696H26.28V856.88ZM26.28 854.336H27.276V857.276H26.28V854.336ZM37.8951 849.08H38.6511V849.428C38.6511 851.18 37.7751 852.752 36.2031 853.412L35.7111 852.668C37.0911 852.116 37.8951 850.808 37.8951 849.428V849.08ZM38.0871 849.08H38.8311V849.428C38.8311 850.724 39.6591 851.948 41.0271 852.476L40.5591 853.22C38.9631 852.596 38.0871 851.096 38.0871 849.428V849.08ZM35.9271 848.516H40.7631V849.32H35.9271V848.516ZM37.8951 847.208H38.8311V848.852H37.8951V847.208ZM43.8231 847.1H44.7711V853.748H43.8231V847.1ZM42.0711 849.98H44.1231V850.796H42.0711V849.98ZM41.5191 847.28H42.4551V853.676H41.5191V847.28ZM37.4991 854.324H44.7711V857.936H43.7871V855.128H37.4991V854.324ZM54.0221 847.088H55.0181V857.936H54.0221V847.088ZM54.7781 851.54H56.7941V852.38H54.7781V851.54ZM46.6181 848.816H53.0141V849.632H46.6181V848.816ZM49.8581 850.532C51.3941 850.532 52.4981 851.564 52.4981 853.028C52.4981 854.492 51.3941 855.524 49.8581 855.524C48.3341 855.524 47.2181 854.492 47.2181 853.028C47.2181 851.564 48.3341 850.532 49.8581 850.532ZM49.8581 851.36C48.8741 851.36 48.1661 852.044 48.1661 853.028C48.1661 854 48.8741 854.696 49.8581 854.696C50.8421 854.696 51.5501 854 51.5501 853.028C51.5501 852.044 50.8421 851.36 49.8581 851.36ZM49.3421 847.22H50.3381V849.188H49.3421V847.22ZM65.6132 847.088H66.6092V857.936H65.6132V847.088ZM62.4332 848.252H63.4172C63.4172 851.396 62.0012 854.144 58.3772 855.92L57.8492 855.116C60.9812 853.604 62.4332 851.3 62.4332 848.42V848.252ZM58.3412 848.252H62.8652V849.068H58.3412V848.252Z" fill="#222222"/>
<rect x="12" y="717" width="135" height="0.5" fill="#DFDFDF"/>
<rect x="183" y="666" width="159" height="218" rx="10" fill="#F5F5F5"/>
<path d="M213.112 694.032H215.176C215.176 698.592 213.992 702.416 208.68 705.2L207.512 703.584C211.88 701.28 213.112 698.48 213.112 694.288V694.032ZM208.392 694.032H214.408V695.712H208.392V694.032ZM213.32 697.664V699.28L207.88 699.776L207.608 697.984L213.32 697.664ZM217.912 692.608H220.04V707.424H217.912V692.608ZM215.16 698.288H219.032V700.016H215.16V698.288ZM232.567 692.592H234.695V707.456H232.567V692.592ZM223.159 702.272H224.471C227.095 702.272 229.191 702.176 231.543 701.776L231.751 703.488C229.351 703.92 227.175 704 224.471 704H223.159V702.272ZM223.143 693.856H230.135V699.584H225.319V702.912H223.159V697.904H227.959V695.552H223.143V693.856ZM241.141 693.632C243.35 693.632 244.966 695.68 244.966 698.912C244.966 702.176 243.35 704.224 241.141 704.224C238.918 704.224 237.318 702.176 237.318 698.912C237.318 695.68 238.918 693.632 241.141 693.632ZM241.141 695.568C240.07 695.568 239.35 696.736 239.35 698.912C239.35 701.12 240.07 702.304 241.141 702.304C242.23 702.304 242.934 701.12 242.934 698.912C242.934 696.736 242.23 695.568 241.141 695.568ZM247.398 692.592H249.51V707.456H247.398V692.592ZM244.342 697.936H248.294V699.648H244.342V697.936Z" fill="#C9BC9C"/>
<path d="M215.844 743.088H216.804V753.936H215.844V743.088ZM214.008 747.432H216.096V748.26H214.008V747.432ZM213.384 743.328H214.32V753.384H213.384V743.328ZM207.984 750.432H208.692C210.276 750.432 211.356 750.372 212.616 750.108L212.712 750.936C211.416 751.212 210.324 751.26 208.692 751.26H207.984V750.432ZM207.984 744.408H212.016V745.224H208.968V750.804H207.984V744.408ZM221.639 748.512H222.647V750.984H221.639V748.512ZM222.155 743.784C223.847 743.784 225.059 744.828 225.059 746.34C225.059 747.852 223.847 748.896 222.155 748.896C220.463 748.896 219.239 747.852 219.239 746.34C219.239 744.828 220.463 743.784 222.155 743.784ZM222.155 744.648C221.027 744.648 220.211 745.332 220.211 746.34C220.211 747.348 221.027 748.044 222.155 748.044C223.271 748.044 224.087 747.348 224.087 746.34C224.087 745.332 223.271 744.648 222.155 744.648ZM226.475 743.076H227.471V753.948H226.475V743.076ZM218.831 751.596L218.687 750.768C220.667 750.768 223.403 750.756 225.767 750.384L225.851 751.116C223.415 751.584 220.763 751.596 218.831 751.596ZM237.082 743.088H238.078V749.484H237.082V743.088ZM237.658 745.86H239.662V746.688H237.658V745.86ZM231.058 749.976H238.078V752.172H232.054V753.324H231.082V751.512H237.106V750.684H231.058V749.976ZM231.082 753.108H238.498V753.816H231.082V753.108ZM232.51 747.54H233.506V748.92H232.51V747.54ZM229.726 749.244L229.606 748.512C231.538 748.512 234.202 748.5 236.434 748.188L236.518 748.824C234.202 749.232 231.622 749.244 229.726 749.244ZM229.882 743.916H236.11V744.624H229.882V743.916ZM233.002 744.96C234.538 744.96 235.522 745.488 235.522 746.388C235.522 747.288 234.538 747.816 233.002 747.816C231.454 747.816 230.47 747.288 230.47 746.388C230.47 745.488 231.454 744.96 233.002 744.96ZM233.002 745.62C232.03 745.62 231.406 745.908 231.406 746.388C231.406 746.868 232.03 747.168 233.002 747.168C233.974 747.168 234.586 746.868 234.586 746.388C234.586 745.908 233.974 745.62 233.002 745.62ZM232.51 742.98H233.506V744.288H232.51V742.98ZM240.717 748.428H250.521V749.244H240.717V748.428ZM245.121 746.688H246.105V748.764H245.121V746.688ZM241.953 746.376H249.381V747.192H241.953V746.376ZM241.953 743.58H249.297V744.384H242.937V746.856H241.953V743.58ZM245.601 750.024C247.917 750.024 249.321 750.732 249.321 751.968C249.321 753.228 247.917 753.924 245.601 753.924C243.285 753.924 241.881 753.228 241.881 751.968C241.881 750.732 243.285 750.024 245.601 750.024ZM245.601 750.792C243.909 750.792 242.889 751.224 242.889 751.968C242.889 752.724 243.909 753.144 245.601 753.144C247.305 753.144 248.313 752.724 248.313 751.968C248.313 751.224 247.305 750.792 245.601 750.792Z" fill="#222222"/>
<path d="M212.46 775.928C214.764 775.928 216.24 776.684 216.24 777.932C216.24 779.168 214.764 779.912 212.46 779.912C210.144 779.912 208.68 779.168 208.68 777.932C208.68 776.684 210.144 775.928 212.46 775.928ZM212.46 776.708C210.756 776.708 209.664 777.176 209.664 777.932C209.664 778.676 210.756 779.144 212.46 779.144C214.164 779.144 215.244 778.676 215.244 777.932C215.244 777.176 214.164 776.708 212.46 776.708ZM208.764 769.628H215.748V770.444H208.764V769.628ZM207.6 774.14H217.392V774.944H207.6V774.14ZM211.62 772.052H212.604V774.368H211.62V772.052ZM215.172 769.628H216.144V770.552C216.144 771.428 216.144 772.304 215.856 773.432L214.872 773.312C215.172 772.196 215.172 771.404 215.172 770.552V769.628ZM218.639 777.728H228.467V778.556H218.639V777.728ZM223.031 774.92H224.027V777.956H223.031V774.92ZM219.779 769.988H227.267V775.1H219.779V769.988ZM226.307 770.792H220.751V774.296H226.307V770.792ZM235.426 772.076H238.162V772.892H235.426V772.076ZM237.598 769.1H238.594V777.044H237.598V769.1ZM231.67 778.88H238.894V779.696H231.67V778.88ZM231.67 776.348H232.666V779.3H231.67V776.348ZM232.438 770.444H233.254V771.32C233.254 773.288 232.03 774.992 230.218 775.664L229.702 774.872C231.322 774.296 232.438 772.856 232.438 771.32V770.444ZM232.63 770.444H233.434V771.308C233.434 772.712 234.49 774.08 236.062 774.632L235.558 775.412C233.794 774.776 232.63 773.144 232.63 771.308V770.444ZM230.014 769.976H235.81V770.78H230.014V769.976ZM246.394 770.864H247.21V771.332C247.21 773.192 245.986 774.704 244.174 775.292L243.694 774.512C245.302 774.02 246.394 772.76 246.394 771.332V770.864ZM246.574 770.864H247.39V771.332C247.39 772.652 248.446 773.84 250.042 774.308L249.574 775.1C247.762 774.536 246.574 773.072 246.574 771.332V770.864ZM243.994 770.36H249.778V771.164H243.994V770.36ZM246.394 769.04H247.39V770.684H246.394V769.04ZM251.11 769.088H252.106V775.508H251.11V769.088ZM251.83 771.824H253.714V772.664H251.83V771.824ZM245.29 776.012H252.106V779.792H245.29V776.012ZM251.134 776.804H246.262V778.988H251.134V776.804ZM262.065 769.076H263.073V779.936H262.065V769.076ZM262.797 773.48H264.801V774.308H262.797V773.48ZM259.293 770.252H260.265C260.265 773.336 258.849 776.12 255.345 777.884L254.793 777.116C257.793 775.592 259.293 773.276 259.293 770.408V770.252ZM255.297 770.252H259.809V771.068H255.297V770.252ZM273.116 769.088H274.112V779.936H273.116V769.088ZM273.872 773.54H275.888V774.38H273.872V773.54ZM265.712 770.816H272.108V771.632H265.712V770.816ZM268.952 772.532C270.488 772.532 271.592 773.564 271.592 775.028C271.592 776.492 270.488 777.524 268.952 777.524C267.428 777.524 266.312 776.492 266.312 775.028C266.312 773.564 267.428 772.532 268.952 772.532ZM268.952 773.36C267.968 773.36 267.26 774.044 267.26 775.028C267.26 776 267.968 776.696 268.952 776.696C269.936 776.696 270.644 776 270.644 775.028C270.644 774.044 269.936 773.36 268.952 773.36ZM268.436 769.22H269.432V771.188H268.436V769.22ZM284.707 769.088H285.703V779.936H284.707V769.088ZM281.527 770.252H282.511C282.511 773.396 281.095 776.144 277.471 777.92L276.943 777.116C280.075 775.604 281.527 773.3 281.527 770.42V770.252ZM277.435 770.252H281.959V771.068H277.435V770.252Z" fill="#222222"/>
<path d="M207.576 796.936H212.952V797.752H207.576V796.936ZM210.264 798.472C211.62 798.472 212.604 799.492 212.604 800.956C212.604 802.408 211.62 803.428 210.264 803.428C208.92 803.428 207.936 802.408 207.936 800.956C207.936 799.492 208.92 798.472 210.264 798.472ZM210.264 799.324C209.436 799.324 208.836 799.996 208.836 800.956C208.836 801.916 209.436 802.588 210.264 802.588C211.104 802.588 211.716 801.916 211.716 800.956C211.716 799.996 211.104 799.324 210.264 799.324ZM215.82 795.088H216.78V805.936H215.82V795.088ZM214.092 799.648H216.144V800.476H214.092V799.648ZM213.504 795.328H214.44V805.408H213.504V795.328ZM209.784 795.4H210.768V797.44H209.784V795.4ZM223.139 796.216H224.099C224.099 799.348 223.019 802.228 219.203 804.148L218.639 803.38C221.987 801.7 223.139 799.288 223.139 796.324V796.216ZM219.227 796.216H223.739V797.02H219.227V796.216ZM223.079 798.904V799.66L218.843 800.056L218.675 799.192L223.079 798.904ZM226.559 795.088H227.555V805.936H226.559V795.088ZM224.075 799.432H227.039V800.26H224.075V799.432ZM229.666 801.22H239.47V802.036H229.666V801.22ZM230.926 804.88H238.45V805.696H230.926V804.88ZM230.926 802.792H231.922V805.288H230.926V802.792ZM234.07 799.756H235.054V801.496H234.07V799.756ZM230.962 799.312H238.318V800.092H230.962V799.312ZM230.962 795.484H238.27V796.276H231.946V799.612H230.962V795.484ZM231.658 797.392H237.982V798.148H231.658V797.392ZM251.578 795.1H252.586V803.044H251.578V795.1ZM245.614 804.88H252.91V805.696H245.614V804.88ZM245.614 802.312H246.598V805.264H245.614V802.312ZM246.514 795.688H247.342V796.792C247.342 798.904 246.142 800.752 244.318 801.496L243.802 800.692C245.434 800.056 246.514 798.472 246.514 796.792V795.688ZM246.694 795.688H247.51V796.792C247.51 798.424 248.602 799.9 250.222 800.488L249.694 801.292C247.894 800.596 246.694 798.856 246.694 796.792V795.688ZM257.433 796.936H258.249V797.404C258.249 799.288 257.049 800.872 255.237 801.484L254.757 800.704C256.353 800.188 257.433 798.868 257.433 797.404V796.936ZM257.613 796.936H258.429V797.404C258.429 798.748 259.545 799.96 261.141 800.428L260.685 801.208C258.861 800.644 257.613 799.18 257.613 797.404V796.936ZM255.033 796.396H260.817V797.2H255.033V796.396ZM257.433 795.04H258.429V796.684H257.433V795.04ZM260.493 798.172H262.941V799H260.493V798.172ZM262.653 795.088H263.649V801.652H262.653V795.088ZM260.085 801.94C262.329 801.94 263.697 802.672 263.697 803.932C263.697 805.18 262.329 805.912 260.085 805.912C257.829 805.912 256.461 805.18 256.461 803.932C256.461 802.672 257.829 801.94 260.085 801.94ZM260.085 802.72C258.441 802.72 257.457 803.164 257.457 803.932C257.457 804.688 258.441 805.132 260.085 805.132C261.717 805.132 262.713 804.688 262.713 803.932C262.713 803.164 261.717 802.72 260.085 802.72ZM273.116 795.088H274.112V805.936H273.116V795.088ZM273.872 799.54H275.888V800.38H273.872V799.54ZM265.712 796.816H272.108V797.632H265.712V796.816ZM268.952 798.532C270.488 798.532 271.592 799.564 271.592 801.028C271.592 802.492 270.488 803.524 268.952 803.524C267.428 803.524 266.312 802.492 266.312 801.028C266.312 799.564 267.428 798.532 268.952 798.532ZM268.952 799.36C267.968 799.36 267.26 800.044 267.26 801.028C267.26 802 267.968 802.696 268.952 802.696C269.936 802.696 270.644 802 270.644 801.028C270.644 800.044 269.936 799.36 268.952 799.36ZM268.436 795.22H269.432V797.188H268.436V795.22ZM284.707 795.088H285.703V805.936H284.707V795.088ZM281.527 796.252H282.511C282.511 799.396 281.095 802.144 277.471 803.92L276.943 803.116C280.075 801.604 281.527 799.3 281.527 796.42V796.252ZM277.435 796.252H281.959V797.068H277.435V796.252Z" fill="#222222"/>
<path d="M207.6 829.764H217.428V830.592H207.6V829.764ZM211.98 826.956H212.976V830.136H211.98V826.956ZM208.452 822.12H216.504V822.936H208.452V822.12ZM208.476 826.488H216.492V827.292H208.476V826.488ZM210.144 822.78H211.14V826.632H210.144V822.78ZM213.84 822.78H214.824V826.632H213.84V822.78ZM219.899 826.932H227.351V827.736H219.899V826.932ZM218.639 829.716H228.467V830.544H218.639V829.716ZM219.899 822.012H227.231V822.828H220.907V827.184H219.899V822.012ZM220.583 824.436H227.003V825.228H220.583V824.436ZM230.578 821.364H238.546V822.144H230.578V821.364ZM230.626 824.208H238.498V824.976H230.626V824.208ZM232.222 821.664H233.218V824.712H232.222V821.664ZM235.918 821.664H236.902V824.712H235.918V821.664ZM229.666 826.008H239.47V826.8H229.666V826.008ZM234.07 824.76H235.054V826.428H234.07V824.76ZM230.854 827.652H238.222V830.016H231.862V831.36H230.878V829.308H237.238V828.396H230.854V827.652ZM230.878 831.06H238.546V831.816H230.878V831.06ZM248.613 821.076H249.609V831.948H248.613V821.076ZM241.341 828.504H242.241C244.053 828.504 245.673 828.432 247.593 828.12L247.701 828.936C245.733 829.26 244.101 829.332 242.241 829.332H241.341V828.504ZM241.317 822.096H246.333V825.972H242.337V828.816H241.341V825.156H245.325V822.912H241.317V822.096ZM256.148 827.22H257.144V829.92H256.148V827.22ZM256.652 821.796C258.944 821.796 260.588 822.912 260.588 824.64C260.588 826.368 258.944 827.484 256.652 827.484C254.36 827.484 252.704 826.368 252.704 824.64C252.704 822.912 254.36 821.796 256.652 821.796ZM256.652 822.588C254.924 822.588 253.664 823.404 253.664 824.64C253.664 825.876 254.924 826.692 256.652 826.692C258.368 826.692 259.628 825.876 259.628 824.64C259.628 823.404 258.368 822.588 256.652 822.588ZM251.756 829.728H261.584V830.556H251.756V829.728ZM266.216 822.06H271.196V827.088H266.216V822.06ZM270.224 822.864H267.188V826.284H270.224V822.864ZM273.188 821.076H274.184V829.032H273.188V821.076ZM273.872 824.388H275.792V825.216H273.872V824.388ZM267.428 830.88H274.676V831.696H267.428V830.88ZM267.428 828.276H268.424V831.228H267.428V828.276ZM276.811 825.612H286.615V826.428H276.811V825.612ZM278.107 823.932H285.451V824.736H278.107V823.932ZM278.107 821.436H285.331V822.252H279.091V824.58H278.107V821.436ZM277.987 827.364H285.355V829.92H278.995V831.288H278.011V829.176H284.371V828.144H277.987V827.364ZM278.011 831.024H285.679V831.816H278.011V831.024ZM295.746 821.088H296.742V831.936H295.746V821.088ZM292.566 822.252H293.55C293.55 825.396 292.134 828.144 288.51 829.92L287.982 829.116C291.114 827.604 292.566 825.3 292.566 822.42V822.252ZM288.474 822.252H292.998V823.068H288.474V822.252Z" fill="#222222"/>
<rect x="195" y="717" width="135" height="0.5" fill="#DFDFDF"/>
</svg>
