<svg width="390" height="700" viewBox="0 0 390 700" fill="none" xmlns="http://www.w3.org/2000/svg">
<path d="M0 20C0 8.9543 8.95431 0 20 0H370C381.046 0 390 8.95431 390 20V700H0V20Z" fill="white"/>
<path d="M34.0781 33.4531V34.1719C34.0781 35.026 33.9714 35.7917 33.7578 36.4688C33.5443 37.1458 33.237 37.7214 32.8359 38.1953C32.4349 38.6693 31.9531 39.0312 31.3906 39.2812C30.8333 39.5312 30.2083 39.6562 29.5156 39.6562C28.8438 39.6562 28.2266 39.5312 27.6641 39.2812C27.1068 39.0312 26.6224 38.6693 26.2109 38.1953C25.8047 37.7214 25.4896 37.1458 25.2656 36.4688C25.0417 35.7917 24.9297 35.026 24.9297 34.1719V33.4531C24.9297 32.599 25.0391 31.8359 25.2578 31.1641C25.4818 30.487 25.7969 29.9115 26.2031 29.4375C26.6094 28.9583 27.0911 28.5938 27.6484 28.3438C28.2109 28.0938 28.8281 27.9688 29.5 27.9688C30.1927 27.9688 30.8177 28.0938 31.375 28.3438C31.9375 28.5938 32.4193 28.9583 32.8203 29.4375C33.2266 29.9115 33.5365 30.487 33.75 31.1641C33.9688 31.8359 34.0781 32.599 34.0781 33.4531ZM32.5859 34.1719V33.4375C32.5859 32.7604 32.5156 32.1615 32.375 31.6406C32.2396 31.1198 32.0391 30.6823 31.7734 30.3281C31.5078 29.974 31.1823 29.7057 30.7969 29.5234C30.4167 29.3411 29.9844 29.25 29.5 29.25C29.0312 29.25 28.6068 29.3411 28.2266 29.5234C27.8516 29.7057 27.5286 29.974 27.2578 30.3281C26.9922 30.6823 26.7865 31.1198 26.6406 31.6406C26.4948 32.1615 26.4219 32.7604 26.4219 33.4375V34.1719C26.4219 34.8542 26.4948 35.4583 26.6406 35.9844C26.7865 36.5052 26.9948 36.9453 27.2656 37.3047C27.5417 37.6589 27.8672 37.9271 28.2422 38.1094C28.6224 38.2917 29.0469 38.3828 29.5156 38.3828C30.0052 38.3828 30.4401 38.2917 30.8203 38.1094C31.2005 37.9271 31.5208 37.6589 31.7812 37.3047C32.0469 36.9453 32.2474 36.5052 32.3828 35.9844C32.5182 35.4583 32.5859 34.8542 32.5859 34.1719ZM45.0938 33.4531V34.1719C45.0938 35.026 44.987 35.7917 44.7734 36.4688C44.5599 37.1458 44.2526 37.7214 43.8516 38.1953C43.4505 38.6693 42.9688 39.0312 42.4062 39.2812C41.849 39.5312 41.224 39.6562 40.5312 39.6562C39.8594 39.6562 39.2422 39.5312 38.6797 39.2812C38.1224 39.0312 37.638 38.6693 37.2266 38.1953C36.8203 37.7214 36.5052 37.1458 36.2812 36.4688C36.0573 35.7917 35.9453 35.026 35.9453 34.1719V33.4531C35.9453 32.599 36.0547 31.8359 36.2734 31.1641C36.4974 30.487 36.8125 29.9115 37.2188 29.4375C37.625 28.9583 38.1068 28.5938 38.6641 28.3438C39.2266 28.0938 39.8438 27.9688 40.5156 27.9688C41.2083 27.9688 41.8333 28.0938 42.3906 28.3438C42.9531 28.5938 43.4349 28.9583 43.8359 29.4375C44.2422 29.9115 44.5521 30.487 44.7656 31.1641C44.9844 31.8359 45.0938 32.599 45.0938 33.4531ZM43.6016 34.1719V33.4375C43.6016 32.7604 43.5312 32.1615 43.3906 31.6406C43.2552 31.1198 43.0547 30.6823 42.7891 30.3281C42.5234 29.974 42.1979 29.7057 41.8125 29.5234C41.4323 29.3411 41 29.25 40.5156 29.25C40.0469 29.25 39.6224 29.3411 39.2422 29.5234C38.8672 29.7057 38.5443 29.974 38.2734 30.3281C38.0078 30.6823 37.8021 31.1198 37.6562 31.6406C37.5104 32.1615 37.4375 32.7604 37.4375 33.4375V34.1719C37.4375 34.8542 37.5104 35.4583 37.6562 35.9844C37.8021 36.5052 38.0104 36.9453 38.2812 37.3047C38.5573 37.6589 38.8828 37.9271 39.2578 38.1094C39.638 38.2917 40.0625 38.3828 40.5312 38.3828C41.0208 38.3828 41.4557 38.2917 41.8359 38.1094C42.2161 37.9271 42.5365 37.6589 42.7969 37.3047C43.0625 36.9453 43.263 36.5052 43.3984 35.9844C43.5339 35.4583 43.6016 34.8542 43.6016 34.1719ZM57.3433 26.284H58.6713V34.476H57.3433V26.284ZM47.7273 27.116H49.0393V33.004H47.7273V27.116ZM47.7273 32.268H48.8953C51.3113 32.268 53.4713 32.108 55.7753 31.628L55.9673 32.716C53.5673 33.228 51.3913 33.388 48.8953 33.388H47.7273V32.268ZM49.3273 35.18H58.6713V40.556H49.3273V35.18ZM57.3753 36.236H50.6233V39.468H57.3753V36.236ZM66.238 27.324C68.494 27.324 70.11 28.716 70.11 30.732C70.11 32.764 68.494 34.156 66.238 34.156C63.982 34.156 62.35 32.764 62.35 30.732C62.35 28.716 63.982 27.324 66.238 27.324ZM66.238 28.476C64.734 28.476 63.646 29.388 63.646 30.732C63.646 32.076 64.734 33.004 66.238 33.004C67.726 33.004 68.814 32.076 68.814 30.732C68.814 29.388 67.726 28.476 66.238 28.476ZM71.998 26.268H73.326V40.764H71.998V26.268ZM61.806 37.596L61.614 36.492C64.254 36.492 67.902 36.476 71.054 35.98L71.166 36.956C67.918 37.58 64.382 37.596 61.806 37.596ZM81.9015 26.876H91.6295V31.804H81.9015V26.876ZM90.3175 27.948H83.1975V30.732H90.3175V27.948ZM80.2215 33.612H93.2935V34.684H80.2215V33.612ZM86.1095 31.516H87.4215V34.012H86.1095V31.516ZM81.6775 36.172H91.6775V40.748H90.3495V37.26H81.6775V36.172ZM98.5723 34.124H99.9003V38.252H98.5723V34.124ZM103.036 34.124H104.348V38.252H103.036V34.124ZM94.9563 37.9H108.06V39.004H94.9563V37.9ZM96.0923 27.612H106.828V28.7H96.0923V27.612ZM96.1243 33.404H106.812V34.476H96.1243V33.404ZM98.3483 28.492H99.6763V33.628H98.3483V28.492ZM103.276 28.492H104.588V33.628H103.276V28.492ZM117.196 27.772H118.284V28.94C118.284 31.596 116.684 33.804 114.268 34.668L113.564 33.628C115.756 32.86 117.196 31.004 117.196 28.94V27.772ZM117.436 27.772H118.524V28.924C118.524 30.844 119.916 32.62 122.044 33.34L121.356 34.38C118.972 33.548 117.436 31.42 117.436 28.924V27.772ZM113.98 27.292H121.708V28.38H113.98V27.292ZM123.532 26.284H124.86V34.988H123.532V26.284ZM124.492 30.092H127.004V31.196H124.492V30.092ZM115.468 35.756H124.86V40.748H123.532V36.86H115.468V35.756ZM131.995 27.1H133.099V28.588C133.099 31.388 131.515 33.676 129.035 34.604L128.347 33.516C130.555 32.732 131.995 30.796 131.995 28.588V27.1ZM132.235 27.1H133.323V28.54C133.323 30.588 134.731 32.396 136.843 33.132L136.123 34.172C133.787 33.292 132.235 31.164 132.235 28.54V27.1ZM138.923 26.284H140.251V34.844H138.923V26.284ZM135.499 35.26C138.475 35.26 140.315 36.268 140.315 37.996C140.315 39.724 138.475 40.716 135.499 40.716C132.507 40.716 130.667 39.724 130.667 37.996C130.667 36.268 132.507 35.26 135.499 35.26ZM135.499 36.316C133.323 36.316 131.995 36.94 131.995 37.996C131.995 39.052 133.323 39.676 135.499 39.676C137.675 39.676 139.003 39.052 139.003 37.996C139.003 36.94 137.675 36.316 135.499 36.316ZM135.786 29.34H139.211V30.444H135.786V29.34Z" fill="#222222"/>
<path d="M348 40V26H355V33H362V34C362.7 34 363.37 34.13 364 34.35V30L358 24H348C346.89 24 346 24.89 346 26V40C346 41.1 346.89 42 348 42H356.35C356.13 41.37 356 40.7 356 40H348ZM357 25.5L362.5 31H357V25.5ZM366 39V41H363V44H361V41H358V39H361V36H363V39H366Z" fill="#222222"/>
<path d="M100.588 110.672H101.75V112.926H100.588V110.672ZM106.398 105.436H107.56V112.884H106.398V105.436ZM97.298 111.064L97.158 110.196C99.594 110.196 102.688 110.182 105.39 109.874L105.46 110.63C102.688 111.036 99.664 111.064 97.298 111.064ZM99.076 113.346H107.56V115.978H100.238V117.406H99.104V115.208H106.412V114.186H99.076V113.346ZM99.104 117.112H107.98V117.952H99.104V117.112ZM103.878 111.456H106.762V112.212H103.878V111.456ZM101.246 105.674C103.122 105.674 104.354 106.402 104.354 107.578C104.354 108.754 103.122 109.482 101.246 109.482C99.356 109.482 98.124 108.754 98.124 107.578C98.124 106.402 99.356 105.674 101.246 105.674ZM101.246 106.486C100 106.486 99.202 106.906 99.202 107.578C99.202 108.25 100 108.67 101.246 108.67C102.464 108.67 103.262 108.25 103.262 107.578C103.262 106.906 102.464 106.486 101.246 106.486ZM118.731 105.436H119.893V114.69H118.731V105.436ZM119.529 109.272H121.769V110.238H119.529V109.272ZM115.273 106.416H116.505C116.505 109.692 114.209 112.086 110.583 113.248L110.079 112.296C113.271 111.316 115.273 109.356 115.273 106.92V106.416ZM110.597 106.416H115.861V107.368H110.597V106.416ZM111.997 116.86H120.453V117.812H111.997V116.86ZM111.997 113.752H113.159V117.238H111.997V113.752Z" fill="black"/>
<path d="M274.052 107.41H277.86V108.362H274.052V107.41ZM274.052 110.448H277.86V111.4H274.052V110.448ZM277.44 105.45H278.602V114.802H277.44V105.45ZM270.524 116.86H278.952V117.812H270.524V116.86ZM270.524 113.836H271.686V117.28H270.524V113.836ZM271.644 106.248C273.506 106.248 274.906 107.55 274.906 109.412C274.906 111.274 273.506 112.576 271.644 112.576C269.782 112.576 268.382 111.274 268.382 109.412C268.382 107.55 269.782 106.248 271.644 106.248ZM271.644 107.27C270.412 107.27 269.502 108.166 269.502 109.412C269.502 110.672 270.412 111.568 271.644 111.568C272.876 111.568 273.8 110.672 273.8 109.412C273.8 108.166 272.876 107.27 271.644 107.27ZM289.731 105.436H290.893V114.69H289.731V105.436ZM290.529 109.272H292.769V110.238H290.529V109.272ZM286.273 106.416H287.505C287.505 109.692 285.209 112.086 281.583 113.248L281.079 112.296C284.271 111.316 286.273 109.356 286.273 106.92V106.416ZM281.597 106.416H286.861V107.368H281.597V106.416ZM282.997 116.86H291.453V117.812H282.997V116.86ZM282.997 113.752H284.159V117.238H282.997V113.752Z" fill="#DFDFDF"/>
<rect x="195" y="130" width="171" height="2" fill="#DFDFDF"/>
<rect x="24" y="130" width="171" height="2" fill="black"/>
<path d="M150 198L144 192L150 186" stroke="black" stroke-width="2" stroke-linecap="square" stroke-linejoin="round"/>
<path d="M189.492 186.109H189.617V187.336H189.492C188.727 187.336 188.086 187.461 187.57 187.711C187.055 187.956 186.646 188.286 186.344 188.703C186.042 189.115 185.823 189.578 185.688 190.094C185.557 190.609 185.492 191.133 185.492 191.664V193.336C185.492 193.841 185.552 194.289 185.672 194.68C185.792 195.065 185.956 195.391 186.164 195.656C186.372 195.922 186.607 196.122 186.867 196.258C187.133 196.393 187.409 196.461 187.695 196.461C188.029 196.461 188.326 196.398 188.586 196.273C188.846 196.143 189.065 195.964 189.242 195.734C189.424 195.5 189.562 195.224 189.656 194.906C189.75 194.589 189.797 194.24 189.797 193.859C189.797 193.521 189.755 193.195 189.672 192.883C189.589 192.565 189.461 192.284 189.289 192.039C189.117 191.789 188.901 191.594 188.641 191.453C188.385 191.307 188.081 191.234 187.727 191.234C187.326 191.234 186.951 191.333 186.602 191.531C186.258 191.724 185.974 191.979 185.75 192.297C185.531 192.609 185.406 192.951 185.375 193.32L184.609 193.312C184.682 192.729 184.818 192.232 185.016 191.82C185.219 191.404 185.469 191.065 185.766 190.805C186.068 190.539 186.404 190.346 186.773 190.227C187.148 190.102 187.544 190.039 187.961 190.039C188.529 190.039 189.018 190.146 189.43 190.359C189.841 190.573 190.18 190.859 190.445 191.219C190.711 191.573 190.906 191.974 191.031 192.422C191.161 192.865 191.227 193.32 191.227 193.789C191.227 194.326 191.151 194.828 191 195.297C190.849 195.766 190.622 196.177 190.32 196.531C190.023 196.885 189.656 197.161 189.219 197.359C188.781 197.557 188.273 197.656 187.695 197.656C187.081 197.656 186.544 197.531 186.086 197.281C185.628 197.026 185.247 196.688 184.945 196.266C184.643 195.844 184.417 195.375 184.266 194.859C184.115 194.344 184.039 193.82 184.039 193.289V192.609C184.039 191.807 184.12 191.021 184.281 190.25C184.443 189.479 184.721 188.781 185.117 188.156C185.518 187.531 186.073 187.034 186.781 186.664C187.49 186.294 188.393 186.109 189.492 186.109ZM196.672 190.268H198V192.844H196.672V190.268ZM203.312 184.284H204.64V192.796H203.312V184.284ZM192.912 190.716L192.752 189.724C195.536 189.724 199.072 189.708 202.16 189.356L202.24 190.22C199.072 190.684 195.616 190.716 192.912 190.716ZM194.944 193.324H204.64V196.332H196.272V197.964H194.976V195.452H203.328V194.284H194.944V193.324ZM194.976 197.628H205.12V198.588H194.976V197.628ZM200.432 191.164H203.728V192.028H200.432V191.164ZM197.424 184.556C199.568 184.556 200.976 185.388 200.976 186.732C200.976 188.076 199.568 188.908 197.424 188.908C195.264 188.908 193.856 188.076 193.856 186.732C193.856 185.388 195.264 184.556 197.424 184.556ZM197.424 185.484C196 185.484 195.088 185.964 195.088 186.732C195.088 187.5 196 187.98 197.424 187.98C198.816 187.98 199.728 187.5 199.728 186.732C199.728 185.964 198.816 185.484 197.424 185.484Z" fill="black"/>
<path d="M240 198L246 192L240 186" stroke="black" stroke-width="2" stroke-linecap="square" stroke-linejoin="round"/>
<rect x="24.25" y="228.25" width="341.5" height="70.5" rx="2.75" stroke="#DFDFDF" stroke-width="0.5"/>
<path d="M69.962 246.686H71.124V248.604H69.962V246.686ZM70.508 242.01C72.342 242.01 73.63 243.018 73.63 244.516C73.63 246.014 72.342 247.008 70.508 247.008C68.688 247.008 67.4 246.014 67.4 244.516C67.4 243.018 68.688 242.01 70.508 242.01ZM70.508 242.906C69.318 242.906 68.492 243.564 68.492 244.516C68.492 245.482 69.318 246.126 70.508 246.126C71.712 246.126 72.538 245.482 72.538 244.516C72.538 243.564 71.712 242.906 70.508 242.906ZM75.338 241.45H76.5V251.124H75.338V241.45ZM76.01 245.72H78.348V246.686H76.01V245.72ZM68.492 252.846H76.948V253.812H68.492V252.846ZM68.492 250.298H69.654V253.266H68.492V250.298ZM66.826 249.248L66.672 248.296C68.898 248.296 71.978 248.268 74.554 247.876L74.638 248.73C71.992 249.22 68.996 249.248 66.826 249.248ZM82.7709 248.856H83.9189V251.964H82.7709V248.856ZM86.8169 248.828H87.9509V251.95H86.8169V248.828ZM79.5789 251.572H91.0449V252.538H79.5789V251.572ZM80.9649 242.374H89.6309V246.196H82.1549V248.744H81.0069V245.272H88.4829V243.312H80.9649V242.374ZM81.0069 248.226H89.9249V249.178H81.0069V248.226ZM101.11 241.45H102.272V250.942H101.11V241.45ZM101.908 245.594H104.148V246.574H101.908V245.594ZM92.4858 242.976H99.9618V243.914H92.4858V242.976ZM96.2238 244.614C98.0158 244.614 99.2478 245.552 99.2478 246.98C99.2478 248.394 98.0158 249.332 96.2238 249.332C94.4178 249.332 93.1858 248.394 93.1858 246.98C93.1858 245.552 94.4178 244.614 96.2238 244.614ZM96.2238 245.524C95.0758 245.524 94.2918 246.098 94.2918 246.98C94.2918 247.848 95.0758 248.422 96.2238 248.422C97.3578 248.422 98.1418 247.848 98.1418 246.98C98.1418 246.098 97.3578 245.524 96.2238 245.524ZM95.6358 241.436H96.7978V243.466H95.6358V241.436ZM94.3898 252.86H102.846V253.812H94.3898V252.86ZM94.3898 250.186H95.5518V253.266H94.3898V250.186ZM110.265 241.954H118.777V246.266H110.265V241.954ZM117.629 242.892H111.399V245.328H117.629V242.892ZM108.795 247.848H120.233V248.786H108.795V247.848ZM113.947 246.014H115.095V248.198H113.947V246.014ZM110.069 250.088H118.819V254.092H117.657V251.04H110.069V250.088ZM124.852 248.296H126.014V251.908H124.852V248.296ZM128.758 248.296H129.906V251.908H128.758V248.296ZM121.688 251.6H133.154V252.566H121.688V251.6ZM122.682 242.598H132.076V243.55H122.682V242.598ZM122.71 247.666H132.062V248.604H122.71V247.666ZM124.656 243.368H125.818V247.862H124.656V243.368ZM128.968 243.368H130.116V247.862H128.968V243.368Z" fill="black"/>
<path d="M96.5625 281.242V283H88.7812V281.5L92.4609 277.555C92.8307 277.143 93.1224 276.781 93.3359 276.469C93.5495 276.151 93.7031 275.867 93.7969 275.617C93.8958 275.362 93.9453 275.12 93.9453 274.891C93.9453 274.547 93.888 274.253 93.7734 274.008C93.6589 273.758 93.4896 273.565 93.2656 273.43C93.0469 273.294 92.776 273.227 92.4531 273.227C92.1094 273.227 91.8125 273.31 91.5625 273.477C91.3177 273.643 91.1302 273.875 91 274.172C90.875 274.469 90.8125 274.805 90.8125 275.18H88.5547C88.5547 274.503 88.7161 273.883 89.0391 273.32C89.362 272.753 89.8177 272.302 90.4062 271.969C90.9948 271.63 91.6927 271.461 92.5 271.461C93.2969 271.461 93.9688 271.591 94.5156 271.852C95.0677 272.107 95.4844 272.477 95.7656 272.961C96.0521 273.44 96.1953 274.013 96.1953 274.68C96.1953 275.055 96.1354 275.422 96.0156 275.781C95.8958 276.135 95.724 276.49 95.5 276.844C95.2812 277.193 95.0156 277.547 94.7031 277.906C94.3906 278.266 94.0443 278.638 93.6641 279.023L91.6875 281.242H96.5625ZM109.092 271.436H110.212V284.092H109.092V271.436ZM107.048 276.518H109.47V277.47H107.048V276.518ZM103.772 273.06H104.892C104.892 276.322 103.772 279.346 100.16 281.376L99.4735 280.55C102.652 278.772 103.772 276.21 103.772 273.284V273.06ZM99.9635 273.06H104.164V274.026H99.9635V273.06ZM106.278 271.772H107.384V283.476H106.278V271.772Z" fill="black"/>
<path d="M191.352 241.436H192.514V248.59H191.352V241.436ZM192.206 244.334H194.39V245.3H192.206V244.334ZM184.534 249.276H192.514V253.924H184.534V249.276ZM191.38 250.214H185.682V252.972H191.38V250.214ZM183.302 242.066H184.464V247.134H183.302V242.066ZM183.302 246.658H184.296C186.116 246.658 188.006 246.532 190.078 246.112L190.218 247.064C188.076 247.512 186.186 247.638 184.296 247.638H183.302V246.658ZM195.565 248.086H207.003V249.038H195.565V248.086ZM197.049 252.86H205.743V253.812H197.049V252.86ZM197.049 250.144H198.211V253.154H197.049V250.144ZM201.291 241.856C203.993 241.856 205.743 242.808 205.743 244.39C205.743 245.958 203.993 246.91 201.291 246.91C198.575 246.91 196.839 245.958 196.839 244.39C196.839 242.808 198.575 241.856 201.291 241.856ZM201.291 242.808C199.303 242.808 198.029 243.396 198.029 244.39C198.029 245.384 199.303 245.972 201.291 245.972C203.279 245.972 204.553 245.384 204.553 244.39C204.553 243.396 203.279 242.808 201.291 242.808ZM213.386 241.954H221.898V246.266H213.386V241.954ZM220.75 242.892H214.52V245.328H220.75V242.892ZM211.916 247.848H223.354V248.786H211.916V247.848ZM217.068 246.014H218.216V248.198H217.068V246.014ZM213.19 250.088H221.94V254.092H220.778V251.04H213.19V250.088ZM227.973 248.296H229.135V251.908H227.973V248.296ZM231.879 248.296H233.027V251.908H231.879V248.296ZM224.809 251.6H236.275V252.566H224.809V251.6ZM225.803 242.598H235.197V243.55H225.803V242.598ZM225.831 247.666H235.183V248.604H225.831V247.666ZM227.777 243.368H228.939V247.862H227.777V243.368ZM232.089 243.368H233.237V247.862H232.089V243.368Z" fill="black"/>
<path d="M206.062 281.242V283H198.281V281.5L201.961 277.555C202.331 277.143 202.622 276.781 202.836 276.469C203.049 276.151 203.203 275.867 203.297 275.617C203.396 275.362 203.445 275.12 203.445 274.891C203.445 274.547 203.388 274.253 203.273 274.008C203.159 273.758 202.99 273.565 202.766 273.43C202.547 273.294 202.276 273.227 201.953 273.227C201.609 273.227 201.312 273.31 201.062 273.477C200.818 273.643 200.63 273.875 200.5 274.172C200.375 274.469 200.312 274.805 200.312 275.18H198.055C198.055 274.503 198.216 273.883 198.539 273.32C198.862 272.753 199.318 272.302 199.906 271.969C200.495 271.63 201.193 271.461 202 271.461C202.797 271.461 203.469 271.591 204.016 271.852C204.568 272.107 204.984 272.477 205.266 272.961C205.552 273.44 205.695 274.013 205.695 274.68C205.695 275.055 205.635 275.422 205.516 275.781C205.396 276.135 205.224 276.49 205 276.844C204.781 277.193 204.516 277.547 204.203 277.906C203.891 278.266 203.544 278.638 203.164 279.023L201.188 281.242H206.062ZM218.592 271.436H219.712V284.092H218.592V271.436ZM216.548 276.518H218.97V277.47H216.548V276.518ZM213.272 273.06H214.392C214.392 276.322 213.272 279.346 209.66 281.376L208.974 280.55C212.152 278.772 213.272 276.21 213.272 273.284V273.06ZM209.464 273.06H213.664V274.026H209.464V273.06ZM215.778 271.772H216.884V283.476H215.778V271.772Z" fill="black"/>
<path d="M286.26 246.392H287.24C289.788 246.392 291.286 246.308 293.022 245.958L293.162 246.896C291.37 247.26 289.83 247.344 287.24 247.344H286.26V246.392ZM286.26 242.164H291.846V243.102H287.408V246.952H286.26V242.164ZM294.352 241.436H295.514V247.806H294.352V241.436ZM295.192 244.096H297.39V245.062H295.192V244.096ZM287.478 248.45H295.514V251.572H288.654V253.532H287.506V250.676H294.38V249.374H287.478V248.45ZM287.506 252.986H295.976V253.924H287.506V252.986ZM301.757 242.15H302.723V243.452C302.723 245.902 301.337 247.904 299.167 248.716L298.565 247.764C300.497 247.078 301.757 245.384 301.757 243.452V242.15ZM301.967 242.15H302.919V243.41C302.919 245.202 304.151 246.784 305.999 247.428L305.369 248.338C303.325 247.568 301.967 245.706 301.967 243.41V242.15ZM307.819 241.436H308.981V248.926H307.819V241.436ZM304.823 249.29C307.427 249.29 309.037 250.172 309.037 251.684C309.037 253.196 307.427 254.064 304.823 254.064C302.205 254.064 300.595 253.196 300.595 251.684C300.595 250.172 302.205 249.29 304.823 249.29ZM304.823 250.214C302.919 250.214 301.757 250.76 301.757 251.684C301.757 252.608 302.919 253.154 304.823 253.154C306.727 253.154 307.889 252.608 307.889 251.684C307.889 250.76 306.727 250.214 304.823 250.214ZM305.075 244.11H308.071V245.076H305.075V244.11ZM311.444 247.204H322.924V248.1H311.444V247.204ZM312.802 249.234H321.482V251.936H313.992V253.42H312.844V251.138H320.348V250.06H312.802V249.234ZM312.844 253.112H321.888V253.952H312.844V253.112ZM312.9 241.786H321.44V244.418H314.076V245.79H312.928V243.634H320.306V242.612H312.9V241.786ZM312.928 245.496H321.678V246.336H312.928V245.496ZM314.538 247.554H315.686V249.752H314.538V247.554ZM318.682 247.554H319.83V249.752H318.682V247.554Z" fill="black"/>
<path d="M291.375 281.289H291.523C292.148 281.289 292.685 281.214 293.133 281.062C293.586 280.906 293.958 280.682 294.25 280.391C294.542 280.099 294.758 279.742 294.898 279.32C295.039 278.893 295.109 278.409 295.109 277.867V275.711C295.109 275.299 295.068 274.938 294.984 274.625C294.906 274.312 294.792 274.055 294.641 273.852C294.495 273.643 294.323 273.487 294.125 273.383C293.932 273.279 293.719 273.227 293.484 273.227C293.234 273.227 293.013 273.289 292.82 273.414C292.628 273.534 292.464 273.698 292.328 273.906C292.198 274.115 292.096 274.354 292.023 274.625C291.956 274.891 291.922 275.169 291.922 275.461C291.922 275.753 291.956 276.031 292.023 276.297C292.091 276.557 292.193 276.789 292.328 276.992C292.464 277.19 292.633 277.349 292.836 277.469C293.039 277.583 293.279 277.641 293.555 277.641C293.82 277.641 294.057 277.591 294.266 277.492C294.479 277.388 294.659 277.253 294.805 277.086C294.956 276.919 295.07 276.734 295.148 276.531C295.232 276.328 295.273 276.122 295.273 275.914L296.016 276.32C296.016 276.685 295.938 277.044 295.781 277.398C295.625 277.753 295.406 278.076 295.125 278.367C294.849 278.654 294.529 278.883 294.164 279.055C293.799 279.227 293.409 279.312 292.992 279.312C292.461 279.312 291.99 279.216 291.578 279.023C291.167 278.826 290.818 278.555 290.531 278.211C290.25 277.862 290.036 277.456 289.891 276.992C289.745 276.529 289.672 276.026 289.672 275.484C289.672 274.932 289.76 274.414 289.938 273.93C290.12 273.445 290.378 273.018 290.711 272.648C291.049 272.279 291.453 271.99 291.922 271.781C292.396 271.568 292.922 271.461 293.5 271.461C294.078 271.461 294.604 271.573 295.078 271.797C295.552 272.021 295.958 272.339 296.297 272.75C296.635 273.156 296.896 273.643 297.078 274.211C297.266 274.779 297.359 275.409 297.359 276.102V276.883C297.359 277.622 297.279 278.31 297.117 278.945C296.961 279.581 296.724 280.156 296.406 280.672C296.094 281.182 295.703 281.62 295.234 281.984C294.771 282.349 294.232 282.628 293.617 282.82C293.003 283.013 292.315 283.109 291.555 283.109H291.375V281.289ZM306.625 276.312V278.281C306.625 279.135 306.534 279.872 306.352 280.492C306.169 281.107 305.906 281.612 305.562 282.008C305.224 282.398 304.82 282.688 304.352 282.875C303.883 283.062 303.362 283.156 302.789 283.156C302.331 283.156 301.904 283.099 301.508 282.984C301.112 282.865 300.755 282.68 300.438 282.43C300.125 282.18 299.854 281.865 299.625 281.484C299.401 281.099 299.229 280.641 299.109 280.109C298.99 279.578 298.93 278.969 298.93 278.281V276.312C298.93 275.458 299.021 274.727 299.203 274.117C299.391 273.503 299.654 273 299.992 272.609C300.336 272.219 300.742 271.932 301.211 271.75C301.68 271.562 302.201 271.469 302.773 271.469C303.232 271.469 303.656 271.529 304.047 271.648C304.443 271.763 304.799 271.943 305.117 272.188C305.435 272.432 305.706 272.747 305.93 273.133C306.154 273.513 306.326 273.969 306.445 274.5C306.565 275.026 306.625 275.63 306.625 276.312ZM304.367 278.578V276.008C304.367 275.596 304.344 275.237 304.297 274.93C304.255 274.622 304.19 274.362 304.102 274.148C304.013 273.93 303.904 273.753 303.773 273.617C303.643 273.482 303.495 273.383 303.328 273.32C303.161 273.258 302.977 273.227 302.773 273.227C302.518 273.227 302.292 273.276 302.094 273.375C301.901 273.474 301.737 273.633 301.602 273.852C301.466 274.065 301.362 274.352 301.289 274.711C301.221 275.065 301.188 275.497 301.188 276.008V278.578C301.188 278.99 301.208 279.352 301.25 279.664C301.297 279.977 301.365 280.245 301.453 280.469C301.547 280.688 301.656 280.867 301.781 281.008C301.911 281.143 302.06 281.242 302.227 281.305C302.398 281.367 302.586 281.398 302.789 281.398C303.039 281.398 303.26 281.349 303.453 281.25C303.651 281.146 303.818 280.984 303.953 280.766C304.094 280.542 304.198 280.25 304.266 279.891C304.333 279.531 304.367 279.094 304.367 278.578ZM309.693 275.487V274.961C309.693 274.583 309.775 274.239 309.939 273.929C310.103 273.619 310.338 273.37 310.643 273.184C310.948 272.997 311.311 272.903 311.73 272.903C312.158 272.903 312.523 272.997 312.824 273.184C313.129 273.37 313.364 273.619 313.528 273.929C313.692 274.239 313.774 274.583 313.774 274.961V275.487C313.774 275.856 313.692 276.196 313.528 276.506C313.368 276.816 313.136 277.064 312.83 277.251C312.53 277.438 312.167 277.531 311.744 277.531C311.32 277.531 310.953 277.438 310.643 277.251C310.338 277.064 310.103 276.816 309.939 276.506C309.775 276.196 309.693 275.856 309.693 275.487ZM310.643 274.961V275.487C310.643 275.697 310.682 275.895 310.759 276.082C310.841 276.269 310.964 276.422 311.128 276.54C311.292 276.654 311.497 276.711 311.744 276.711C311.99 276.711 312.192 276.654 312.352 276.54C312.511 276.422 312.63 276.269 312.707 276.082C312.785 275.895 312.824 275.697 312.824 275.487V274.961C312.824 274.747 312.783 274.546 312.701 274.359C312.623 274.168 312.502 274.015 312.338 273.901C312.179 273.783 311.976 273.724 311.73 273.724C311.488 273.724 311.286 273.783 311.121 273.901C310.962 274.015 310.841 274.168 310.759 274.359C310.682 274.546 310.643 274.747 310.643 274.961ZM314.539 281.093V280.56C314.539 280.186 314.621 279.844 314.786 279.534C314.95 279.224 315.184 278.976 315.49 278.789C315.795 278.602 316.157 278.509 316.577 278.509C317.005 278.509 317.37 278.602 317.67 278.789C317.976 278.976 318.21 279.224 318.374 279.534C318.538 279.844 318.621 280.186 318.621 280.56V281.093C318.621 281.466 318.538 281.808 318.374 282.118C318.215 282.428 317.982 282.676 317.677 282.863C317.376 283.05 317.014 283.144 316.59 283.144C316.166 283.144 315.802 283.05 315.496 282.863C315.191 282.676 314.954 282.428 314.786 282.118C314.621 281.808 314.539 281.466 314.539 281.093ZM315.49 280.56V281.093C315.49 281.302 315.528 281.503 315.606 281.694C315.688 281.881 315.811 282.034 315.975 282.152C316.139 282.266 316.344 282.323 316.59 282.323C316.836 282.323 317.039 282.266 317.199 282.152C317.363 282.034 317.483 281.881 317.561 281.694C317.638 281.507 317.677 281.307 317.677 281.093V280.56C317.677 280.345 317.636 280.145 317.554 279.958C317.477 279.771 317.356 279.621 317.192 279.507C317.032 279.388 316.827 279.329 316.577 279.329C316.335 279.329 316.132 279.388 315.968 279.507C315.809 279.621 315.688 279.771 315.606 279.958C315.528 280.145 315.49 280.345 315.49 280.56ZM316.891 274.462L312.031 282.241L311.32 281.79L316.18 274.011L316.891 274.462Z" fill="black"/>
<path d="M34.3594 358.547V359.086C34.3594 359.951 34.2422 360.727 34.0078 361.414C33.7734 362.102 33.4427 362.688 33.0156 363.172C32.5885 363.651 32.0781 364.018 31.4844 364.273C30.8958 364.529 30.2422 364.656 29.5234 364.656C28.8099 364.656 28.1562 364.529 27.5625 364.273C26.974 364.018 26.4635 363.651 26.0312 363.172C25.599 362.688 25.263 362.102 25.0234 361.414C24.7891 360.727 24.6719 359.951 24.6719 359.086V358.547C24.6719 357.677 24.7891 356.901 25.0234 356.219C25.2578 355.531 25.5885 354.945 26.0156 354.461C26.4479 353.977 26.9583 353.607 27.5469 353.352C28.1406 353.096 28.7943 352.969 29.5078 352.969C30.2266 352.969 30.8802 353.096 31.4688 353.352C32.0625 353.607 32.5729 353.977 33 354.461C33.4323 354.945 33.7656 355.531 34 356.219C34.2396 356.901 34.3594 357.677 34.3594 358.547ZM31.9922 359.086V358.531C31.9922 357.927 31.9375 357.396 31.8281 356.938C31.7188 356.479 31.5573 356.094 31.3438 355.781C31.1302 355.469 30.8698 355.234 30.5625 355.078C30.2552 354.917 29.9036 354.836 29.5078 354.836C29.112 354.836 28.7604 354.917 28.4531 355.078C28.151 355.234 27.8932 355.469 27.6797 355.781C27.4714 356.094 27.3125 356.479 27.2031 356.938C27.0938 357.396 27.0391 357.927 27.0391 358.531V359.086C27.0391 359.685 27.0938 360.216 27.2031 360.68C27.3125 361.138 27.474 361.526 27.6875 361.844C27.901 362.156 28.1615 362.393 28.4688 362.555C28.776 362.716 29.1276 362.797 29.5234 362.797C29.9193 362.797 30.2708 362.716 30.5781 362.555C30.8854 362.393 31.1432 362.156 31.3516 361.844C31.5599 361.526 31.7188 361.138 31.8281 360.68C31.9375 360.216 31.9922 359.685 31.9922 359.086ZM45.3906 358.547V359.086C45.3906 359.951 45.2734 360.727 45.0391 361.414C44.8047 362.102 44.474 362.688 44.0469 363.172C43.6198 363.651 43.1094 364.018 42.5156 364.273C41.9271 364.529 41.2734 364.656 40.5547 364.656C39.8411 364.656 39.1875 364.529 38.5938 364.273C38.0052 364.018 37.4948 363.651 37.0625 363.172C36.6302 362.688 36.2943 362.102 36.0547 361.414C35.8203 360.727 35.7031 359.951 35.7031 359.086V358.547C35.7031 357.677 35.8203 356.901 36.0547 356.219C36.2891 355.531 36.6198 354.945 37.0469 354.461C37.4792 353.977 37.9896 353.607 38.5781 353.352C39.1719 353.096 39.8255 352.969 40.5391 352.969C41.2578 352.969 41.9115 353.096 42.5 353.352C43.0938 353.607 43.6042 353.977 44.0312 354.461C44.4635 354.945 44.7969 355.531 45.0312 356.219C45.2708 356.901 45.3906 357.677 45.3906 358.547ZM43.0234 359.086V358.531C43.0234 357.927 42.9688 357.396 42.8594 356.938C42.75 356.479 42.5885 356.094 42.375 355.781C42.1615 355.469 41.901 355.234 41.5938 355.078C41.2865 354.917 40.9349 354.836 40.5391 354.836C40.1432 354.836 39.7917 354.917 39.4844 355.078C39.1823 355.234 38.9245 355.469 38.7109 355.781C38.5026 356.094 38.3438 356.479 38.2344 356.938C38.125 357.396 38.0703 357.927 38.0703 358.531V359.086C38.0703 359.685 38.125 360.216 38.2344 360.68C38.3438 361.138 38.5052 361.526 38.7188 361.844C38.9323 362.156 39.1927 362.393 39.5 362.555C39.8073 362.716 40.1589 362.797 40.5547 362.797C40.9505 362.797 41.3021 362.716 41.6094 362.555C41.9167 362.393 42.1745 362.156 42.3828 361.844C42.5911 361.526 42.75 361.138 42.8594 360.68C42.9688 360.216 43.0234 359.685 43.0234 359.086ZM56.8785 351.108H59.0225V359.412H56.8785V351.108ZM47.5505 351.956H49.6625V358.068H47.5505V351.956ZM47.5505 356.948H48.8305C51.4065 356.948 53.5025 356.804 55.6785 356.34L55.9345 358.052C53.6785 358.548 51.4865 358.708 48.8305 358.708H47.5505V356.948ZM49.1665 360.036H59.0225V365.764H49.1665V360.036ZM56.9265 361.7H51.2465V364.084H56.9265V361.7ZM66.1893 352.084C68.5253 352.084 70.2693 353.604 70.2693 355.732C70.2693 357.876 68.5253 359.396 66.1893 359.396C63.8693 359.396 62.0933 357.876 62.0933 355.732C62.0933 353.604 63.8693 352.084 66.1893 352.084ZM66.1893 353.908C65.0533 353.908 64.1893 354.58 64.1893 355.732C64.1893 356.9 65.0533 357.572 66.1893 357.572C67.3253 357.572 68.1893 356.9 68.1893 355.732C68.1893 354.58 67.3253 353.908 66.1893 353.908ZM71.6613 351.092H73.7893V365.956H71.6613V351.092ZM61.7413 362.948L61.4853 361.236C64.0933 361.236 67.7253 361.204 70.8453 360.74L71.0053 362.276C67.7893 362.916 64.3013 362.948 61.7413 362.948ZM81.7724 351.684H91.8364V356.932H81.7724V351.684ZM89.7404 353.348H83.8524V355.268H89.7404V353.348ZM80.1244 358.324H93.5164V360.004H80.1244V358.324ZM85.7404 356.548H87.8684V358.804H85.7404V356.548ZM81.6124 361.076H91.9004V365.924H89.7724V362.756H81.6124V361.076ZM98.1391 359.172H100.267V363.156H98.1391V359.172ZM102.795 359.188H104.907V363.172H102.795V359.188ZM94.8591 362.58H108.267V364.308H94.8591V362.58ZM95.8831 352.276H107.163V353.972H95.8831V352.276ZM95.9471 358.132H107.115V359.812H95.9471V358.132ZM97.8991 353.684H100.027V358.372H97.8991V353.684ZM103.035 353.684H105.147V358.372H103.035V353.684Z" fill="black"/>
<path d="M365.5 364L360.5 369L357 365.5L358.5 364L360.5 366L364 362.5L365.5 364ZM348 349C346.89 349 346 349.89 346 351V367C346 368.11 346.89 369 348 369H355.81C355.28 368.09 355 367.05 355 366C355 362.69 357.69 360 361 360C361.34 360 361.67 360.03 362 360.08V355L356 349M355 350.5L360.5 356H355V350.5Z" fill="#222222"/>
<rect x="24" y="391" width="342" height="0.5" fill="#DFDFDF"/>
<path d="M27.5752 421.125V422.164H26.2695V433.594H27.5752V434.633H25.0049V421.125H27.5752ZM28.4188 427.25H39.8568V428.174H28.4188V427.25ZM33.5568 425.066H34.7048V427.614H33.5568V425.066ZM29.6788 429.406H38.4568V433.69H37.2948V430.358H29.6788V429.406ZM29.8608 424.786H38.5408V425.738H29.8608V424.786ZM29.8608 421.44H38.4288V422.392H31.0228V425.276H29.8608V421.44ZM47.6117 425.22H51.1397V426.172H47.6117V425.22ZM44.5597 422.028H45.5117V424.282C45.5117 427.124 44.0137 429.84 42.0117 430.918L41.2697 429.994C43.1317 429.07 44.5597 426.634 44.5597 424.282V422.028ZM44.7837 422.028H45.7217V424.282C45.7217 426.592 47.1497 428.888 48.9837 429.756L48.2977 430.694C46.2537 429.658 44.7837 427.054 44.7837 424.282V422.028ZM50.5657 420.922H51.7137V433.606H50.5657V420.922ZM53.5449 422.164V421.125H56.1289V434.633H53.5449V433.594H54.8574V422.164H53.5449ZM61.368 427.25H72.806V428.174H61.368V427.25ZM66.506 425.066H67.654V427.614H66.506V425.066ZM62.628 429.406H71.406V433.69H70.244V430.358H62.628V429.406ZM62.81 424.786H71.49V425.738H62.81V424.786ZM62.81 421.44H71.378V422.392H63.972V425.276H62.81V421.44ZM80.5609 425.22H84.0889V426.172H80.5609V425.22ZM77.5089 422.028H78.4609V424.282C78.4609 427.124 76.9629 429.84 74.9609 430.918L74.2189 429.994C76.0809 429.07 77.5089 426.634 77.5089 424.282V422.028ZM77.7329 422.028H78.6709V424.282C78.6709 426.592 80.0989 428.888 81.9329 429.756L81.2469 430.694C79.2029 429.658 77.7329 427.054 77.7329 424.282V422.028ZM83.5149 420.922H84.6629V433.606H83.5149V420.922ZM92.5713 426.901H93.4736C93.9157 426.901 94.2803 426.828 94.5674 426.683C94.859 426.532 95.0755 426.329 95.2168 426.074C95.3626 425.814 95.4355 425.523 95.4355 425.199C95.4355 424.816 95.3717 424.495 95.2441 424.235C95.1165 423.976 94.9251 423.78 94.6699 423.647C94.4147 423.515 94.0911 423.449 93.6992 423.449C93.3438 423.449 93.0293 423.52 92.7559 423.661C92.487 423.798 92.2751 423.994 92.1201 424.249C91.9697 424.504 91.8945 424.805 91.8945 425.151H90.6299C90.6299 424.646 90.7575 424.185 91.0127 423.771C91.2679 423.356 91.6257 423.025 92.0859 422.779C92.5508 422.533 93.0885 422.41 93.6992 422.41C94.3008 422.41 94.8271 422.517 95.2783 422.731C95.7295 422.941 96.0804 423.256 96.3311 423.675C96.5817 424.09 96.707 424.607 96.707 425.227C96.707 425.477 96.6478 425.746 96.5293 426.033C96.4154 426.316 96.2354 426.58 95.9893 426.826C95.7477 427.072 95.4333 427.275 95.0459 427.435C94.6585 427.59 94.1937 427.667 93.6514 427.667H92.5713V426.901ZM92.5713 427.94V427.182H93.6514C94.2848 427.182 94.8089 427.257 95.2236 427.407C95.6383 427.558 95.9642 427.758 96.2012 428.009C96.4427 428.259 96.6113 428.535 96.707 428.836C96.8073 429.132 96.8574 429.428 96.8574 429.725C96.8574 430.189 96.7777 430.602 96.6182 430.962C96.4632 431.322 96.2422 431.627 95.9551 431.878C95.6725 432.129 95.3398 432.318 94.957 432.445C94.5742 432.573 94.1572 432.637 93.7061 432.637C93.2731 432.637 92.8652 432.575 92.4824 432.452C92.1042 432.329 91.7692 432.151 91.4775 431.919C91.1859 431.682 90.958 431.393 90.7939 431.051C90.6299 430.704 90.5479 430.31 90.5479 429.868H91.8125C91.8125 430.215 91.8877 430.518 92.0381 430.777C92.193 431.037 92.4118 431.24 92.6943 431.386C92.9814 431.527 93.3187 431.598 93.7061 431.598C94.0934 431.598 94.4261 431.532 94.7041 431.399C94.9867 431.263 95.2031 431.058 95.3535 430.784C95.5085 430.511 95.5859 430.167 95.5859 429.752C95.5859 429.337 95.4993 428.998 95.3262 428.733C95.153 428.465 94.9069 428.266 94.5879 428.139C94.2734 428.007 93.902 427.94 93.4736 427.94H92.5713ZM101.945 426.62H103.093V429.686H101.945V426.62ZM107.713 420.936H108.875V430.498H107.713V420.936ZM100.237 432.36H109.183V433.312H100.237V432.36ZM100.237 429.462H101.399V432.654H100.237V429.462ZM98.5294 426.9L98.3754 425.934C100.699 425.934 103.877 425.892 106.579 425.514L106.663 426.354C103.905 426.83 100.825 426.886 98.5294 426.9ZM104.969 427.824H108.007V428.748H104.969V427.824ZM99.5234 421.706H104.983V422.644H99.5234V421.706ZM104.269 421.706H105.417V422.182C105.417 422.952 105.417 424.282 105.081 426.116L103.933 426.032C104.269 424.184 104.269 422.924 104.269 422.182V421.706ZM123.393 420.936H124.555V433.592H123.393V420.936ZM124.275 426.13H126.627V427.11H124.275V426.13ZM114.755 422.952H122.217V423.904H114.755V422.952ZM118.535 424.954C120.327 424.954 121.615 426.158 121.615 427.866C121.615 429.574 120.327 430.778 118.535 430.778C116.757 430.778 115.455 429.574 115.455 427.866C115.455 426.158 116.757 424.954 118.535 424.954ZM118.535 425.92C117.387 425.92 116.561 426.718 116.561 427.866C116.561 429 117.387 429.812 118.535 429.812C119.683 429.812 120.509 429 120.509 427.866C120.509 426.718 119.683 425.92 118.535 425.92ZM117.933 421.09H119.095V423.386H117.933V421.09ZM136.916 420.936H138.078V433.592H136.916V420.936ZM133.206 422.294H134.354C134.354 425.962 132.702 429.168 128.474 431.24L127.858 430.302C131.512 428.538 133.206 425.85 133.206 422.49V422.294ZM128.432 422.294H133.71V423.246H128.432V422.294Z" fill="#222222"/>
<path d="M354 417.5C348.5 417.5 344 422 344 427.5C344 433 348.5 437.5 354 437.5C359.5 437.5 364 433 364 427.5C364 422 359.5 417.5 354 417.5ZM354 435.5C349.59 435.5 346 431.91 346 427.5C346 423.09 349.59 419.5 354 419.5C358.41 419.5 362 423.09 362 427.5C362 431.91 358.41 435.5 354 435.5ZM358.59 423.08L352 429.67L349.41 427.09L348 428.5L352 432.5L360 424.5L358.59 423.08Z" fill="#DFDFDF"/>
<path d="M27.5752 461.125V462.164H26.2695V473.594H27.5752V474.633H25.0049V461.125H27.5752ZM31.7928 461.902C33.6268 461.902 34.9428 463.624 34.9428 466.312C34.9428 469.014 33.6268 470.736 31.7928 470.736C29.9448 470.736 28.6427 469.014 28.6427 466.312C28.6427 463.624 29.9448 461.902 31.7928 461.902ZM31.7928 462.952C30.5748 462.952 29.7488 464.268 29.7488 466.312C29.7488 468.37 30.5748 469.714 31.7928 469.714C33.0108 469.714 33.8368 468.37 33.8368 466.312C33.8368 464.268 33.0108 462.952 31.7928 462.952ZM37.6868 460.922H38.8348V473.606H37.6868V460.922ZM34.5648 465.752H38.1908V466.704H34.5648V465.752ZM41.3257 462.266H48.8017V463.218H41.3257V462.266ZM45.0637 463.862C46.8557 463.862 48.0877 464.758 48.0877 466.158C48.0877 467.544 46.8557 468.426 45.0637 468.426C43.2437 468.426 42.0257 467.544 42.0257 466.158C42.0257 464.758 43.2437 463.862 45.0637 463.862ZM45.0637 464.772C43.9017 464.772 43.1317 465.304 43.1317 466.158C43.1317 466.984 43.9017 467.53 45.0637 467.53C46.1977 467.53 46.9817 466.984 46.9817 466.158C46.9817 465.304 46.1977 464.772 45.0637 464.772ZM49.9497 460.936H51.1117V468.846H49.9497V460.936ZM50.7897 464.422H52.9877V465.388H50.7897V464.422ZM42.8937 469.532H51.1117V473.592H49.9497V470.484H42.8937V469.532ZM44.4757 460.866H45.6377V462.798H44.4757V460.866ZM53.5449 462.164V461.125H56.1289V474.633H53.5449V473.594H54.8574V462.164H53.5449ZM67.122 462.756H70.986V463.708H67.122V462.756ZM67.122 465.668H70.986V466.634H67.122V465.668ZM64.812 461.678C66.674 461.678 68.074 462.938 68.074 464.688C68.074 466.452 66.674 467.698 64.812 467.698C62.936 467.698 61.55 466.452 61.55 464.688C61.55 462.938 62.936 461.678 64.812 461.678ZM64.812 462.672C63.58 462.672 62.67 463.498 62.67 464.688C62.67 465.878 63.58 466.704 64.812 466.704C66.044 466.704 66.968 465.878 66.968 464.688C66.968 463.498 66.044 462.672 64.812 462.672ZM70.608 460.936H71.77V468.426H70.608V460.936ZM67.612 468.72C70.216 468.72 71.826 469.616 71.826 471.142C71.826 472.682 70.216 473.564 67.612 473.564C64.994 473.564 63.384 472.682 63.384 471.142C63.384 469.616 64.994 468.72 67.612 468.72ZM67.612 469.644C65.694 469.644 64.532 470.204 64.532 471.142C64.532 472.094 65.694 472.654 67.612 472.654C69.516 472.654 70.678 472.094 70.678 471.142C70.678 470.204 69.516 469.644 67.612 469.644ZM77.6209 461.902C79.4549 461.902 80.7709 463.624 80.7709 466.312C80.7709 469.014 79.4549 470.736 77.6209 470.736C75.7729 470.736 74.4709 469.014 74.4709 466.312C74.4709 463.624 75.7729 461.902 77.6209 461.902ZM77.6209 462.952C76.4029 462.952 75.5769 464.268 75.5769 466.312C75.5769 468.37 76.4029 469.714 77.6209 469.714C78.8389 469.714 79.6649 468.37 79.6649 466.312C79.6649 464.268 78.8389 462.952 77.6209 462.952ZM83.5149 460.922H84.6629V473.606H83.5149V460.922ZM80.3929 465.752H84.0189V466.704H80.3929V465.752ZM99.2504 460.922H100.412V470.092H99.2504V460.922ZM100.062 464.688H102.288V465.654H100.062V464.688ZM91.1724 466.9H92.1524C94.7564 466.9 96.2264 466.83 97.9204 466.48L98.0464 467.418C96.3104 467.782 94.8124 467.866 92.1524 467.866H91.1724V466.9ZM91.1724 462.014H96.7584V462.98H92.3204V467.418H91.1724V462.014ZM92.5304 472.36H100.986V473.312H92.5304V472.36ZM92.5304 469.182H93.6924V472.794H92.5304V469.182ZM106.851 461.902C108.685 461.902 110.001 463.624 110.001 466.312C110.001 469.014 108.685 470.736 106.851 470.736C105.003 470.736 103.701 469.014 103.701 466.312C103.701 463.624 105.003 461.902 106.851 461.902ZM106.851 462.952C105.633 462.952 104.807 464.268 104.807 466.312C104.807 468.37 105.633 469.714 106.851 469.714C108.069 469.714 108.895 468.37 108.895 466.312C108.895 464.268 108.069 462.952 106.851 462.952ZM112.745 460.922H113.893V473.606H112.745V460.922ZM109.623 465.752H113.249V466.704H109.623V465.752ZM129.461 460.936H130.581V473.592H129.461V460.936ZM127.459 465.948H129.881V466.9H127.459V465.948ZM126.661 461.202H127.767V472.962H126.661V461.202ZM120.277 462.392H125.107V470.204H120.277V462.392ZM124.015 463.316H121.369V469.28H124.015V463.316ZM136.25 461.398C138.14 461.398 139.526 462.546 139.526 464.212C139.526 465.864 138.14 467.012 136.25 467.012C134.374 467.012 132.988 465.864 132.988 464.212C132.988 462.546 134.374 461.398 136.25 461.398ZM136.25 462.35C135.032 462.35 134.108 463.12 134.108 464.212C134.108 465.304 135.032 466.06 136.25 466.06C137.482 466.06 138.392 465.304 138.392 464.212C138.392 463.12 137.482 462.35 136.25 462.35ZM141.906 460.936H143.082V467.418H141.906V460.936ZM134.892 468.034H143.082V471.114H136.054V473.018H134.92V470.246H141.934V468.972H134.892V468.034ZM134.92 472.5H143.502V473.424H134.92V472.5ZM153.343 462.492V472.5H152.078V464.071L149.528 465.001V463.859L153.145 462.492H153.343ZM163.31 466.73V468.248C163.31 469.064 163.237 469.752 163.091 470.312C162.945 470.873 162.735 471.324 162.462 471.666C162.188 472.008 161.858 472.256 161.471 472.411C161.088 472.562 160.655 472.637 160.172 472.637C159.789 472.637 159.436 472.589 159.112 472.493C158.789 472.397 158.497 472.245 158.237 472.035C157.982 471.821 157.763 471.543 157.581 471.201C157.399 470.859 157.26 470.445 157.164 469.957C157.068 469.469 157.021 468.9 157.021 468.248V466.73C157.021 465.915 157.093 465.231 157.239 464.68C157.39 464.128 157.602 463.686 157.875 463.354C158.148 463.016 158.477 462.775 158.859 462.629C159.247 462.483 159.68 462.41 160.158 462.41C160.546 462.41 160.901 462.458 161.225 462.554C161.553 462.645 161.844 462.793 162.1 462.998C162.355 463.199 162.571 463.467 162.749 463.805C162.931 464.137 163.07 464.545 163.166 465.028C163.262 465.511 163.31 466.079 163.31 466.73ZM162.038 468.453V466.519C162.038 466.072 162.011 465.68 161.956 465.343C161.906 465.001 161.831 464.709 161.73 464.468C161.63 464.226 161.503 464.03 161.348 463.88C161.197 463.729 161.022 463.62 160.821 463.552C160.625 463.479 160.404 463.442 160.158 463.442C159.857 463.442 159.591 463.499 159.358 463.613C159.126 463.723 158.93 463.898 158.771 464.14C158.616 464.381 158.497 464.698 158.415 465.09C158.333 465.482 158.292 465.958 158.292 466.519V468.453C158.292 468.9 158.317 469.294 158.367 469.636C158.422 469.978 158.502 470.274 158.606 470.524C158.711 470.771 158.839 470.973 158.989 471.133C159.14 471.292 159.313 471.411 159.509 471.488C159.709 471.561 159.93 471.598 160.172 471.598C160.482 471.598 160.753 471.538 160.985 471.42C161.218 471.301 161.411 471.117 161.566 470.866C161.726 470.611 161.844 470.285 161.922 469.889C161.999 469.488 162.038 469.009 162.038 468.453ZM174.413 460.936H175.533V473.592H174.413V460.936ZM172.369 466.018H174.791V466.97H172.369V466.018ZM169.093 462.56H170.213C170.213 465.822 169.093 468.846 165.481 470.876L164.795 470.05C167.973 468.272 169.093 465.71 169.093 462.784V462.56ZM165.285 462.56H169.485V463.526H165.285V462.56ZM171.599 461.272H172.705V472.976H171.599V461.272ZM184.661 467.264H185.837V470.148H184.661V467.264ZM185.263 461.748C187.237 461.748 188.651 462.966 188.651 464.73C188.651 466.494 187.237 467.712 185.263 467.712C183.289 467.712 181.861 466.494 181.861 464.73C181.861 462.966 183.289 461.748 185.263 461.748ZM185.263 462.756C183.947 462.756 182.995 463.554 182.995 464.73C182.995 465.906 183.947 466.718 185.263 466.718C186.565 466.718 187.517 465.906 187.517 464.73C187.517 463.554 186.565 462.756 185.263 462.756ZM190.303 460.922H191.465V473.606H190.303V460.922ZM181.385 470.862L181.217 469.896C183.527 469.896 186.719 469.882 189.477 469.448L189.575 470.302C186.733 470.848 183.639 470.862 181.385 470.862ZM194.026 468.188H205.506V469.14H194.026V468.188ZM199.15 468.776H200.298V473.592H199.15V468.776ZM199.738 461.44C202.384 461.44 204.162 462.518 204.162 464.212C204.162 465.906 202.384 466.984 199.738 466.984C197.106 466.984 195.314 465.906 195.314 464.212C195.314 462.518 197.106 461.44 199.738 461.44ZM199.738 462.378C197.806 462.378 196.49 463.092 196.49 464.212C196.49 465.332 197.806 466.046 199.738 466.046C201.67 466.046 202.972 465.332 202.972 464.212C202.972 463.092 201.67 462.378 199.738 462.378ZM216.131 460.936H217.293V473.592H216.131V460.936ZM212.421 462.294H213.569C213.569 465.962 211.917 469.168 207.689 471.24L207.073 470.302C210.727 468.538 212.421 465.85 212.421 462.49V462.294ZM207.647 462.294H212.925V463.246H207.647V462.294Z" fill="#222222"/>
<path d="M354 457.5C348.5 457.5 344 462 344 467.5C344 473 348.5 477.5 354 477.5C359.5 477.5 364 473 364 467.5C364 462 359.5 457.5 354 457.5ZM354 475.5C349.59 475.5 346 471.91 346 467.5C346 463.09 349.59 459.5 354 459.5C358.41 459.5 362 463.09 362 467.5C362 471.91 358.41 475.5 354 475.5ZM358.59 463.08L352 469.67L349.41 467.09L348 468.5L352 472.5L360 464.5L358.59 463.08Z" fill="#DFDFDF"/>
<path d="M27.5752 501.125V502.164H26.2695V513.594H27.5752V514.633H25.0049V501.125H27.5752ZM33.4868 501.804H34.4948V502.77C34.4948 505.528 31.9328 507.67 29.3988 508.244L28.8808 507.278C31.1068 506.858 33.4868 504.926 33.4868 502.77V501.804ZM33.6968 501.804H34.7048V502.77C34.7048 504.94 37.0988 506.858 39.3108 507.278L38.7928 508.244C36.2728 507.67 33.6968 505.542 33.6968 502.77V501.804ZM28.4188 510.932H39.8848V511.884H28.4188V510.932ZM41.4517 501.986H47.3457V502.938H41.4517V501.986ZM41.3677 507.978L41.2417 506.998C42.9357 506.998 45.6517 506.984 47.6397 506.718L47.6817 507.586C45.6657 507.936 43.0337 507.978 41.3677 507.978ZM42.5297 502.63H43.5937V507.166H42.5297V502.63ZM45.1897 502.63H46.2537V507.166H45.1897V502.63ZM50.8877 500.936H51.9937V508.636H50.8877V500.936ZM46.9117 504.324H49.0817V505.29H46.9117V504.324ZM48.5497 501.174H49.6557V508.566H48.5497V501.174ZM43.3837 509.266H51.9937V513.592H50.8457V510.218H43.3837V509.266ZM53.5449 502.164V501.125H56.1289V514.633H53.5449V513.594H54.8574V502.164H53.5449ZM70.986 500.936H72.106V513.592H70.986V500.936ZM68.844 506.004H71.28V506.97H68.844V506.004ZM68.116 501.216H69.208V512.948H68.116V501.216ZM61.816 509.504H62.642C64.49 509.504 65.75 509.434 67.22 509.126L67.332 510.092C65.82 510.414 64.546 510.47 62.642 510.47H61.816V509.504ZM61.816 502.476H66.52V503.428H62.964V509.938H61.816V502.476ZM77.7469 507.264H78.9229V510.148H77.7469V507.264ZM78.3489 501.748C80.3229 501.748 81.7369 502.966 81.7369 504.73C81.7369 506.494 80.3229 507.712 78.3489 507.712C76.3749 507.712 74.9469 506.494 74.9469 504.73C74.9469 502.966 76.3749 501.748 78.3489 501.748ZM78.3489 502.756C77.0329 502.756 76.0809 503.554 76.0809 504.73C76.0809 505.906 77.0329 506.718 78.3489 506.718C79.6509 506.718 80.6029 505.906 80.6029 504.73C80.6029 503.554 79.6509 502.756 78.3489 502.756ZM83.3889 500.922H84.5509V513.606H83.3889V500.922ZM74.4709 510.862L74.3029 509.896C76.6129 509.896 79.8049 509.882 82.5629 509.448L82.6609 510.302C79.8189 510.848 76.7249 510.862 74.4709 510.862ZM95.7638 500.936H96.9258V508.398H95.7638V500.936ZM96.4358 504.17H98.7738V505.136H96.4358V504.17ZM88.7358 508.972H96.9258V511.534H89.8978V512.878H88.7638V510.764H95.7918V509.798H88.7358V508.972ZM88.7638 512.626H97.4158V513.452H88.7638V512.626ZM90.4298 506.13H91.5918V507.74H90.4298V506.13ZM87.1818 508.118L87.0418 507.264C89.2958 507.264 92.4038 507.25 95.0078 506.886L95.1058 507.628C92.4038 508.104 89.3938 508.118 87.1818 508.118ZM87.3638 501.902H94.6298V502.728H87.3638V501.902ZM91.0038 503.12C92.7958 503.12 93.9438 503.736 93.9438 504.786C93.9438 505.836 92.7958 506.452 91.0038 506.452C89.1978 506.452 88.0498 505.836 88.0498 504.786C88.0498 503.736 89.1978 503.12 91.0038 503.12ZM91.0038 503.89C89.8698 503.89 89.1418 504.226 89.1418 504.786C89.1418 505.346 89.8698 505.696 91.0038 505.696C92.1378 505.696 92.8518 505.346 92.8518 504.786C92.8518 504.226 92.1378 503.89 91.0038 503.89ZM90.4298 500.81H91.5918V502.336H90.4298V500.81ZM100.005 507.166H111.443V508.118H100.005V507.166ZM105.143 505.136H106.291V507.558H105.143V505.136ZM101.447 504.772H110.113V505.724H101.447V504.772ZM101.447 501.51H110.015V502.448H102.595V505.332H101.447V501.51ZM105.703 509.028C108.405 509.028 110.043 509.854 110.043 511.296C110.043 512.766 108.405 513.578 105.703 513.578C103.001 513.578 101.363 512.766 101.363 511.296C101.363 509.854 103.001 509.028 105.703 509.028ZM105.703 509.924C103.729 509.924 102.539 510.428 102.539 511.296C102.539 512.178 103.729 512.668 105.703 512.668C107.691 512.668 108.867 512.178 108.867 511.296C108.867 510.428 107.691 509.924 105.703 509.924ZM119.702 502.742H120.64V504.8C120.64 507.474 119.03 510.162 117.014 511.156L116.342 510.232C118.176 509.364 119.702 506.984 119.702 504.8V502.742ZM119.926 502.742H120.864V504.8C120.864 506.942 122.39 509.126 124.252 509.924L123.594 510.848C121.55 509.896 119.926 507.432 119.926 504.8V502.742ZM116.762 502.224H123.832V503.204H116.762V502.224ZM125.54 500.936H126.702V513.592H125.54V500.936ZM132.819 507.306H133.981V510.12H132.819V507.306ZM138.433 500.936H139.595V510.568H138.433V500.936ZM130.957 512.36H139.903V513.312H130.957V512.36ZM130.957 509.63H132.119V512.626H130.957V509.63ZM129.319 507.74L129.165 506.788C131.503 506.788 134.639 506.76 137.327 506.41L137.411 507.264C134.681 507.698 131.615 507.74 129.319 507.74ZM135.857 508.412H138.727V509.266H135.857V508.412ZM133.281 501.454C135.129 501.454 136.389 502.322 136.389 503.652C136.389 504.996 135.129 505.864 133.281 505.864C131.419 505.864 130.159 504.996 130.159 503.652C130.159 502.322 131.419 501.454 133.281 501.454ZM133.281 502.322C132.091 502.322 131.265 502.84 131.265 503.652C131.265 504.464 132.091 504.982 133.281 504.982C134.457 504.982 135.283 504.464 135.283 503.652C135.283 502.84 134.457 502.322 133.281 502.322ZM150.682 500.936H151.844V513.592H150.682V500.936ZM151.564 506.13H153.916V507.11H151.564V506.13ZM142.044 502.952H149.506V503.904H142.044V502.952ZM145.824 504.954C147.616 504.954 148.904 506.158 148.904 507.866C148.904 509.574 147.616 510.778 145.824 510.778C144.046 510.778 142.744 509.574 142.744 507.866C142.744 506.158 144.046 504.954 145.824 504.954ZM145.824 505.92C144.676 505.92 143.85 506.718 143.85 507.866C143.85 509 144.676 509.812 145.824 509.812C146.972 509.812 147.798 509 147.798 507.866C147.798 506.718 146.972 505.92 145.824 505.92ZM145.222 501.09H146.384V503.386H145.222V501.09ZM156.197 502.196H164.345V503.162H156.197V502.196ZM154.993 510.862H166.431V511.828H154.993V510.862ZM159.431 506.34H160.593V511.338H159.431V506.34ZM163.911 502.196H165.059V503.456C165.059 505.024 165.059 506.76 164.597 509.322L163.435 509.168C163.911 506.746 163.911 504.968 163.911 503.456V502.196ZM179.997 500.936H181.159V508.286H179.997V500.936ZM180.655 504.156H183.035V505.136H180.655V504.156ZM173.207 508.846H174.341V510.19H180.011V508.846H181.159V513.424H173.207V508.846ZM174.341 511.086V512.486H180.011V511.086H174.341ZM171.373 502.224H178.849V503.176H171.373V502.224ZM175.111 503.75C176.917 503.75 178.135 504.632 178.135 505.976C178.135 507.32 176.917 508.202 175.111 508.202C173.291 508.202 172.073 507.32 172.073 505.976C172.073 504.632 173.291 503.75 175.111 503.75ZM175.111 504.632C173.949 504.632 173.179 505.164 173.179 505.976C173.179 506.788 173.949 507.32 175.111 507.32C176.245 507.32 177.029 506.788 177.029 505.976C177.029 505.164 176.245 504.632 175.111 504.632ZM174.523 500.81H175.685V502.742H174.523V500.81ZM189.613 501.79H190.831C190.831 505.01 188.549 507.306 184.867 508.314L184.405 507.404C187.653 506.508 189.613 504.646 189.613 502.294V501.79ZM185.049 501.79H190.327V502.728H185.049V501.79ZM186.183 509.056H194.625V513.564H193.463V509.994H186.183V509.056ZM193.463 500.936H194.625V508.482H193.463V500.936ZM190.313 503.19H193.701V504.142H190.313V503.19ZM190.187 505.878H193.617V506.83H190.187V505.878ZM205.67 500.936H206.832V513.592H205.67V500.936ZM206.552 506.13H208.904V507.11H206.552V506.13ZM197.032 502.952H204.494V503.904H197.032V502.952ZM200.812 504.954C202.604 504.954 203.892 506.158 203.892 507.866C203.892 509.574 202.604 510.778 200.812 510.778C199.034 510.778 197.732 509.574 197.732 507.866C197.732 506.158 199.034 504.954 200.812 504.954ZM200.812 505.92C199.664 505.92 198.838 506.718 198.838 507.866C198.838 509 199.664 509.812 200.812 509.812C201.96 509.812 202.786 509 202.786 507.866C202.786 506.718 201.96 505.92 200.812 505.92ZM200.21 501.09H201.372V503.386H200.21V501.09ZM219.193 500.936H220.355V513.592H219.193V500.936ZM215.483 502.294H216.631C216.631 505.962 214.979 509.168 210.751 511.24L210.135 510.302C213.789 508.538 215.483 505.85 215.483 502.49V502.294ZM210.709 502.294H215.987V503.246H210.709V502.294Z" fill="#222222"/>
<path d="M354 497.5C348.5 497.5 344 502 344 507.5C344 513 348.5 517.5 354 517.5C359.5 517.5 364 513 364 507.5C364 502 359.5 497.5 354 497.5ZM354 515.5C349.59 515.5 346 511.91 346 507.5C346 503.09 349.59 499.5 354 499.5C358.41 499.5 362 503.09 362 507.5C362 511.91 358.41 515.5 354 515.5ZM358.59 503.08L352 509.67L349.41 507.09L348 508.5L352 512.5L360 504.5L358.59 503.08Z" fill="#DFDFDF"/>
<path d="M27.5752 541.125V542.164H26.2695V553.594H27.5752V554.633H25.0049V541.125H27.5752ZM36.9868 540.922H38.1488V553.606H36.9868V540.922ZM37.8688 545.962H40.2208V546.942H37.8688V545.962ZM28.9228 549.588H29.9308C32.3108 549.588 33.9628 549.504 35.8808 549.14L36.0068 550.106C34.0328 550.456 32.3528 550.554 29.9308 550.554H28.9228V549.588ZM28.8948 542.112H34.6208V546.648H30.0708V549.98H28.9228V545.696H33.4728V543.064H28.8948V542.112ZM50.4817 540.922H51.6437V553.606H50.4817V540.922ZM44.9657 541.902C46.8417 541.902 48.1857 543.624 48.1857 546.312C48.1857 549.014 46.8417 550.736 44.9657 550.736C43.1037 550.736 41.7597 549.014 41.7597 546.312C41.7597 543.624 43.1037 541.902 44.9657 541.902ZM44.9657 542.952C43.7337 542.952 42.8657 544.268 42.8657 546.312C42.8657 548.37 43.7337 549.714 44.9657 549.714C46.2117 549.714 47.0657 548.37 47.0657 546.312C47.0657 544.268 46.2117 542.952 44.9657 542.952ZM54.1766 551.002H65.6426V551.968H54.1766V551.002ZM55.1706 542.196H64.5646V543.148H55.1706V542.196ZM55.1986 547.544H64.5506V548.496H55.1986V547.544ZM57.1446 543.078H58.3066V547.642H57.1446V543.078ZM61.4566 543.078H62.6046V547.642H61.4566V543.078ZM66.4238 542.164V541.125H69.0078V554.633H66.4238V553.594H67.7363V542.164H66.4238ZM77.6069 541.902C79.4689 541.902 80.7849 543.624 80.7849 546.312C80.7849 549.014 79.4689 550.736 77.6069 550.736C75.7449 550.736 74.4289 549.014 74.4289 546.312C74.4289 543.624 75.7449 541.902 77.6069 541.902ZM77.6069 542.952C76.3749 542.952 75.5349 544.268 75.5349 546.312C75.5349 548.37 76.3749 549.714 77.6069 549.714C78.8249 549.714 79.6789 548.37 79.6789 546.312C79.6789 544.268 78.8249 542.952 77.6069 542.952ZM82.8009 540.936H83.9769V553.592H82.8009V540.936ZM83.6969 545.99H86.0489V546.97H83.6969V545.99ZM90.5558 542.966H91.5078V543.498C91.5078 545.71 90.0518 547.544 87.9238 548.244L87.3498 547.334C89.2538 546.732 90.5558 545.192 90.5558 543.498V542.966ZM90.7518 542.966H91.7038V543.498C91.7038 545.094 93.0478 546.522 94.9238 547.068L94.3918 547.978C92.2358 547.334 90.7518 545.612 90.7518 543.498V542.966ZM87.6718 542.42H94.5598V543.358H87.6718V542.42ZM90.5558 540.866H91.7038V542.826H90.5558V540.866ZM96.3238 540.95H97.4998V548.44H96.3238V540.95ZM89.3238 549.084H97.4998V553.424H89.3238V549.084ZM96.3518 550.008H90.4578V552.486H96.3518V550.008ZM110.037 542.547V543.258L105.915 552.5H104.582L108.697 543.586H103.311V542.547H110.037ZM114.684 542.028H115.636V544.296C115.636 547.208 114.068 549.91 111.996 550.96L111.282 550.008C113.158 549.112 114.684 546.69 114.684 544.296V542.028ZM114.88 542.028H115.832V544.296C115.832 546.606 117.344 548.93 119.22 549.798L118.52 550.722C116.462 549.714 114.88 547.11 114.88 544.296V542.028ZM120.536 540.922H121.698V553.606H120.536V540.922ZM136.916 540.936H138.078V553.592H136.916V540.936ZM133.206 542.294H134.354C134.354 545.962 132.702 549.168 128.474 551.24L127.858 550.302C131.512 548.538 133.206 545.85 133.206 542.49V542.294ZM128.432 542.294H133.71V543.246H128.432V542.294ZM143.649 541.594H144.615V542.882C144.615 545.318 143.243 547.334 141.129 548.16L140.513 547.222C142.417 546.522 143.649 544.814 143.649 542.882V541.594ZM143.859 541.594H144.811V542.966C144.811 544.674 146.071 546.256 147.891 546.886L147.275 547.796C145.245 547.04 143.859 545.164 143.859 542.966V541.594ZM149.235 540.936H150.397V548.608H149.235V540.936ZM150.075 544.198H152.273V545.178H150.075V544.198ZM146.365 548.958C148.955 548.958 150.523 549.812 150.523 551.268C150.523 552.724 148.955 553.564 146.365 553.564C143.775 553.564 142.207 552.724 142.207 551.268C142.207 549.812 143.775 548.958 146.365 548.958ZM146.365 549.882C144.489 549.882 143.341 550.386 143.341 551.268C143.341 552.15 144.489 552.654 146.365 552.654C148.241 552.654 149.389 552.15 149.389 551.268C149.389 550.386 148.241 549.882 146.365 549.882ZM162.03 540.936H163.192V553.592H162.03V540.936ZM162.912 546.13H165.264V547.11H162.912V546.13ZM153.392 542.952H160.854V543.904H153.392V542.952ZM157.172 544.954C158.964 544.954 160.252 546.158 160.252 547.866C160.252 549.574 158.964 550.778 157.172 550.778C155.394 550.778 154.092 549.574 154.092 547.866C154.092 546.158 155.394 544.954 157.172 544.954ZM157.172 545.92C156.024 545.92 155.198 546.718 155.198 547.866C155.198 549 156.024 549.812 157.172 549.812C158.32 549.812 159.146 549 159.146 547.866C159.146 546.718 158.32 545.92 157.172 545.92ZM156.57 541.09H157.732V543.386H156.57V541.09ZM175.553 540.936H176.715V553.592H175.553V540.936ZM171.843 542.294H172.991C172.991 545.962 171.339 549.168 167.111 551.24L166.495 550.302C170.149 548.538 171.843 545.85 171.843 542.49V542.294ZM167.069 542.294H172.347V543.246H167.069V542.294Z" fill="#222222"/>
<path d="M354 537.5C348.5 537.5 344 542 344 547.5C344 553 348.5 557.5 354 557.5C359.5 557.5 364 553 364 547.5C364 542 359.5 537.5 354 537.5ZM354 555.5C349.59 555.5 346 551.91 346 547.5C346 543.09 349.59 539.5 354 539.5C358.41 539.5 362 543.09 362 547.5C362 551.91 358.41 555.5 354 555.5ZM358.59 543.08L352 549.67L349.41 547.09L348 548.5L352 552.5L360 544.5L358.59 543.08Z" fill="#DFDFDF"/>
</svg>
