<svg width="342" height="342" viewBox="0 0 342 342" fill="none" xmlns="http://www.w3.org/2000/svg">
<path d="M0 3.00001C0 1.34315 1.34315 0 3 0H339C340.657 0 342 1.34315 342 3V339C342 340.657 340.657 342 339 342H3.00001C1.34315 342 0 340.657 0 339V3.00001Z" fill="#F5F5F5"/>
<path d="M0 295H342V339C342 340.657 340.657 342 339 342H3.00001C1.34315 342 0 340.657 0 339V295Z" fill="#DFDFDF"/>
<path d="M143.414 312.032H144.502V314.624C144.502 317.824 142.774 320.944 140.486 322.16L139.67 321.104C141.766 320.048 143.414 317.264 143.414 314.624V312.032ZM143.654 312.032H144.726V314.624C144.726 317.168 146.342 319.808 148.39 320.832L147.574 321.888C145.334 320.688 143.654 317.728 143.654 314.624V312.032ZM149.654 310.784H150.998V325.248H149.654V310.784ZM150.678 316.64H153.366V317.76H150.678V316.64ZM158.437 312.368H159.541V313.84C159.541 316.496 157.909 318.72 155.477 319.6L154.789 318.544C156.965 317.776 158.437 315.904 158.437 313.84V312.368ZM158.693 312.368H159.797V313.84C159.797 315.792 161.301 317.552 163.445 318.272L162.757 319.312C160.357 318.496 158.693 316.384 158.693 313.84V312.368ZM155.141 311.984H163.061V313.056H155.141V311.984ZM165.109 310.8H166.453V321.376H165.109V310.8ZM157.157 323.84H166.885V324.928H157.157V323.84ZM157.157 320.384H158.469V324.32H157.157V320.384ZM180.18 313.44H184.356V314.512H180.18V313.44ZM180.18 316.56H184.388V317.632H180.18V316.56ZM183.844 310.8H185.172V321.504H183.844V310.8ZM175.876 323.84H185.524V324.928H175.876V323.84ZM175.876 320.464H177.204V324.4H175.876V320.464ZM173.988 311.744H175.3V314.304H179.22V311.744H180.516V319.04H173.988V311.744ZM175.3 315.344V317.952H179.22V315.344H175.3ZM194.915 313.44H198.787V314.528H194.915V313.44ZM194.787 316.448H198.691V317.536H194.787V316.448ZM198.563 310.784H199.891V319.456H198.563V310.784ZM194.035 311.872H195.459C195.459 315.6 192.883 318.208 188.723 319.456L188.179 318.384C191.875 317.312 194.035 315.184 194.035 312.448V311.872ZM188.931 311.872H194.947V312.96H188.931V311.872ZM195.187 319.616C198.115 319.616 199.971 320.656 199.971 322.4C199.971 324.144 198.115 325.184 195.187 325.184C192.259 325.184 190.403 324.144 190.403 322.4C190.403 320.656 192.259 319.616 195.187 319.616ZM195.187 320.656C193.075 320.656 191.715 321.312 191.715 322.4C191.715 323.488 193.075 324.128 195.187 324.128C197.315 324.128 198.675 323.488 198.675 322.4C198.675 321.312 197.315 320.656 195.187 320.656Z" fill="black"/>
</svg>
