<svg width="342" height="228" viewBox="0 0 342 228" fill="none" xmlns="http://www.w3.org/2000/svg">
<rect x="0.25" y="0.25" width="341.5" height="47.5" rx="2.75" stroke="#6F6F6F" stroke-width="0.5"/>
<path d="M34.318 17.436H35.438V30.092H34.318V17.436ZM32.176 22.504H34.612V23.47H32.176V22.504ZM31.448 17.716H32.54V29.448H31.448V17.716ZM25.148 26.004H25.974C27.822 26.004 29.082 25.934 30.552 25.626L30.664 26.592C29.152 26.914 27.878 26.97 25.974 26.97H25.148V26.004ZM25.148 18.976H29.852V19.928H26.296V26.438H25.148V18.976ZM37.6069 18.766H45.0829V19.718H37.6069V18.766ZM41.3449 20.362C43.1369 20.362 44.3689 21.258 44.3689 22.658C44.3689 24.044 43.1369 24.926 41.3449 24.926C39.5249 24.926 38.3069 24.044 38.3069 22.658C38.3069 21.258 39.5249 20.362 41.3449 20.362ZM41.3449 21.272C40.1829 21.272 39.4129 21.804 39.4129 22.658C39.4129 23.484 40.1829 24.03 41.3449 24.03C42.4789 24.03 43.2629 23.484 43.2629 22.658C43.2629 21.804 42.4789 21.272 41.3449 21.272ZM46.2309 17.436H47.3929V25.346H46.2309V17.436ZM47.0709 20.922H49.2689V21.888H47.0709V20.922ZM39.1749 26.032H47.3929V30.092H46.2309V26.984H39.1749V26.032ZM40.7569 17.366H41.9189V19.298H40.7569V17.366Z" fill="black"/>
<path d="M255.554 25.6504V26.6895H248.362V25.9443L252.819 19.0469H253.852L252.744 21.043L249.798 25.6504H255.554ZM254.166 19.0469V29H252.901V19.0469H254.166ZM265.815 17.436H266.977V26.816H265.815V17.436ZM262.245 19.088H266.249V20.026H262.245V19.088ZM258.885 28.86H267.313V29.812H258.885V28.86ZM258.885 26.004H260.047V29.294H258.885V26.004ZM257.303 18.36H258.465V24.324H257.303V18.36ZM257.303 23.96H258.255C260.061 23.96 261.755 23.862 263.729 23.512L263.841 24.478C261.811 24.842 260.117 24.926 258.255 24.926H257.303V23.96ZM262.245 21.496H266.249V22.448H262.245V21.496ZM279.072 17.436H280.192V30.092H279.072V17.436ZM274.466 21.972H276.888V22.938H274.466V21.972ZM276.538 17.73H277.63V29.448H276.538V17.73ZM272.03 19.396H272.926V21.006C272.926 23.778 271.862 26.396 270 27.572L269.286 26.704C271.05 25.64 272.03 23.33 272.03 21.006V19.396ZM272.268 19.396H273.164V21.006C273.164 23.204 274.116 25.402 275.852 26.41L275.138 27.264C273.29 26.144 272.268 23.652 272.268 21.006V19.396ZM269.636 18.906H275.418V19.872H269.636V18.906Z" fill="black"/>
<path d="M312 21L306 27L300 21" stroke="black" stroke-width="2" stroke-linecap="square" stroke-linejoin="round"/>
<rect x="0.25" y="60.25" width="341.5" height="47.5" rx="2.75" stroke="#6F6F6F" stroke-width="0.5"/>
<path d="M27.766 78.094H28.732V79.382C28.732 81.818 27.36 83.834 25.246 84.66L24.63 83.722C26.534 83.022 27.766 81.314 27.766 79.382V78.094ZM27.976 78.094H28.928V79.466C28.928 81.174 30.188 82.756 32.008 83.386L31.392 84.296C29.362 83.54 27.976 81.664 27.976 79.466V78.094ZM33.352 77.436H34.514V85.108H33.352V77.436ZM34.192 80.698H36.39V81.678H34.192V80.698ZM30.482 85.458C33.072 85.458 34.64 86.312 34.64 87.768C34.64 89.224 33.072 90.064 30.482 90.064C27.892 90.064 26.324 89.224 26.324 87.768C26.324 86.312 27.892 85.458 30.482 85.458ZM30.482 86.382C28.606 86.382 27.458 86.886 27.458 87.768C27.458 88.65 28.606 89.154 30.482 89.154C32.358 89.154 33.506 88.65 33.506 87.768C33.506 86.886 32.358 86.382 30.482 86.382ZM38.0689 85.99H38.8949C40.8969 85.99 42.0869 85.948 43.5009 85.668L43.6269 86.634C42.1569 86.928 40.9249 86.97 38.8949 86.97H38.0689V85.99ZM38.0689 78.878H43.0529V79.83H39.1749V86.354H38.0689V78.878ZM38.8389 82.224H42.8569V83.162H38.8389V82.224ZM47.2109 77.436H48.3309V90.092H47.2109V77.436ZM45.2089 82.504H47.6309V83.47H45.2089V82.504ZM44.4249 77.702H45.5309V89.462H44.4249V77.702Z" fill="black"/>
<path d="M266.495 77.436H267.601V90.092H266.495V77.436ZM264.493 82.532H266.929V83.512H264.493V82.532ZM263.737 77.702H264.829V89.462H263.737V77.702ZM259.425 79.396H260.335V80.852C260.335 83.89 259.341 86.326 257.395 87.488L256.681 86.592C258.501 85.584 259.425 83.428 259.425 80.852V79.396ZM259.635 79.396H260.545V80.852C260.545 83.176 261.483 85.234 263.261 86.144L262.575 87.04C260.643 85.976 259.635 83.638 259.635 80.852V79.396ZM256.975 78.92H262.855V79.886H256.975V78.92ZM269.728 78.766H277.204V79.718H269.728V78.766ZM273.466 80.362C275.258 80.362 276.49 81.258 276.49 82.658C276.49 84.044 275.258 84.926 273.466 84.926C271.646 84.926 270.428 84.044 270.428 82.658C270.428 81.258 271.646 80.362 273.466 80.362ZM273.466 81.272C272.304 81.272 271.534 81.804 271.534 82.658C271.534 83.484 272.304 84.03 273.466 84.03C274.6 84.03 275.384 83.484 275.384 82.658C275.384 81.804 274.6 81.272 273.466 81.272ZM278.352 77.436H279.514V85.346H278.352V77.436ZM279.192 80.922H281.39V81.888H279.192V80.922ZM271.296 86.032H279.514V90.092H278.352V86.984H271.296V86.032ZM272.878 77.366H274.04V79.298H272.878V77.366Z" fill="black"/>
<path d="M312 81L306 87L300 81" stroke="black" stroke-width="2" stroke-linecap="square" stroke-linejoin="round"/>
<rect x="0.25" y="120.25" width="341.5" height="47.5" rx="2.75" stroke="#6F6F6F" stroke-width="0.5"/>
<path d="M24.728 138.766H32.204V139.718H24.728V138.766ZM28.466 140.362C30.258 140.362 31.49 141.258 31.49 142.658C31.49 144.044 30.258 144.926 28.466 144.926C26.646 144.926 25.428 144.044 25.428 142.658C25.428 141.258 26.646 140.362 28.466 140.362ZM28.466 141.272C27.304 141.272 26.534 141.804 26.534 142.658C26.534 143.484 27.304 144.03 28.466 144.03C29.6 144.03 30.384 143.484 30.384 142.658C30.384 141.804 29.6 141.272 28.466 141.272ZM33.352 137.436H34.514V145.346H33.352V137.436ZM34.192 140.922H36.39V141.888H34.192V140.922ZM26.296 146.032H34.514V150.092H33.352V146.984H26.296V146.032ZM27.878 137.366H29.04V139.298H27.878V137.366ZM46.8189 137.436H47.9809V146.816H46.8189V137.436ZM43.2489 139.088H47.2529V140.026H43.2489V139.088ZM39.8889 148.86H48.3169V149.812H39.8889V148.86ZM39.8889 146.004H41.0509V149.294H39.8889V146.004ZM38.3069 138.36H39.4689V144.324H38.3069V138.36ZM38.3069 143.96H39.2589C41.0649 143.96 42.7589 143.862 44.7329 143.512L44.8449 144.478C42.8149 144.842 41.1209 144.926 39.2589 144.926H38.3069V143.96ZM43.2489 141.496H47.2529V142.448H43.2489V141.496Z" fill="black"/>
<path d="M255.737 145.65V146.689H248.546V145.944L253.003 139.047H254.035L252.928 141.043L249.981 145.65H255.737ZM254.35 139.047V149H253.085V139.047H254.35ZM256.787 138.766H264.263V139.718H256.787V138.766ZM260.525 140.362C262.317 140.362 263.549 141.258 263.549 142.658C263.549 144.044 262.317 144.926 260.525 144.926C258.705 144.926 257.487 144.044 257.487 142.658C257.487 141.258 258.705 140.362 260.525 140.362ZM260.525 141.272C259.363 141.272 258.593 141.804 258.593 142.658C258.593 143.484 259.363 144.03 260.525 144.03C261.659 144.03 262.443 143.484 262.443 142.658C262.443 141.804 261.659 141.272 260.525 141.272ZM265.411 137.436H266.573V145.346H265.411V137.436ZM266.251 140.922H268.449V141.888H266.251V140.922ZM258.355 146.032H266.573V150.092H265.411V146.984H258.355V146.032ZM259.937 137.366H261.099V139.298H259.937V137.366ZM278.878 137.436H280.04V146.816H278.878V137.436ZM275.308 139.088H279.312V140.026H275.308V139.088ZM271.948 148.86H280.376V149.812H271.948V148.86ZM271.948 146.004H273.11V149.294H271.948V146.004ZM270.366 138.36H271.528V144.324H270.366V138.36ZM270.366 143.96H271.318C273.124 143.96 274.818 143.862 276.792 143.512L276.904 144.478C274.874 144.842 273.18 144.926 271.318 144.926H270.366V143.96ZM275.308 141.496H279.312V142.448H275.308V141.496Z" fill="black"/>
<path d="M312 141L306 147L300 141" stroke="black" stroke-width="2" stroke-linecap="square" stroke-linejoin="round"/>
<rect x="0.25" y="180.25" width="341.5" height="47.5" rx="2.75" stroke="#6F6F6F" stroke-width="0.5"/>
<path d="M31.406 200.922H34.598V201.874H31.406V200.922ZM33.94 197.45H35.102V206.718H33.94V197.45ZM27.024 208.86H35.452V209.812H27.024V208.86ZM27.024 205.906H28.186V209.35H27.024V205.906ZM27.92 199.018H28.872V200.04C28.872 202.336 27.444 204.324 25.33 205.108L24.728 204.184C26.618 203.512 27.92 201.832 27.92 200.04V199.018ZM28.144 199.018H29.082V200.026C29.082 201.664 30.314 203.26 32.148 203.904L31.56 204.814C29.502 204.072 28.144 202.168 28.144 200.026V199.018ZM25.092 198.472H31.854V199.41H25.092V198.472ZM43.2489 205.416C45.9369 205.416 47.6589 206.298 47.6589 207.754C47.6589 209.196 45.9369 210.064 43.2489 210.064C40.5469 210.064 38.8389 209.196 38.8389 207.754C38.8389 206.298 40.5469 205.416 43.2489 205.416ZM43.2489 206.326C41.2609 206.326 39.9869 206.872 39.9869 207.754C39.9869 208.622 41.2609 209.168 43.2489 209.168C45.2369 209.168 46.4969 208.622 46.4969 207.754C46.4969 206.872 45.2369 206.326 43.2489 206.326ZM38.9369 198.066H47.0849V199.018H38.9369V198.066ZM37.5789 203.33H49.0029V204.268H37.5789V203.33ZM42.2689 200.894H43.4169V203.596H42.2689V200.894ZM46.4129 198.066H47.5469V199.144C47.5469 200.166 47.5469 201.188 47.2109 202.504L46.0629 202.364C46.4129 201.062 46.4129 200.138 46.4129 199.144V198.066Z" fill="black"/>
<path d="M267.43 199.76H270.818V200.712H267.43V199.76ZM267.318 202.392H270.734V203.344H267.318V202.392ZM270.622 197.436H271.784V205.024H270.622V197.436ZM266.66 198.388H267.906C267.906 201.65 265.652 203.932 262.012 205.024L261.536 204.086C264.77 203.148 266.66 201.286 266.66 198.892V198.388ZM262.194 198.388H267.458V199.34H262.194V198.388ZM267.668 205.164C270.23 205.164 271.854 206.074 271.854 207.6C271.854 209.126 270.23 210.036 267.668 210.036C265.106 210.036 263.482 209.126 263.482 207.6C263.482 206.074 265.106 205.164 267.668 205.164ZM267.668 206.074C265.82 206.074 264.63 206.648 264.63 207.6C264.63 208.552 265.82 209.112 267.668 209.112C269.53 209.112 270.72 208.552 270.72 207.6C270.72 206.648 269.53 206.074 267.668 206.074ZM280.015 199.256H283.879V200.208H280.015V199.256ZM280.015 202.168H283.879V203.134H280.015V202.168ZM277.705 198.178C279.567 198.178 280.967 199.438 280.967 201.188C280.967 202.952 279.567 204.198 277.705 204.198C275.829 204.198 274.443 202.952 274.443 201.188C274.443 199.438 275.829 198.178 277.705 198.178ZM277.705 199.172C276.473 199.172 275.563 199.998 275.563 201.188C275.563 202.378 276.473 203.204 277.705 203.204C278.937 203.204 279.861 202.378 279.861 201.188C279.861 199.998 278.937 199.172 277.705 199.172ZM283.501 197.436H284.663V204.926H283.501V197.436ZM280.505 205.22C283.109 205.22 284.719 206.116 284.719 207.642C284.719 209.182 283.109 210.064 280.505 210.064C277.887 210.064 276.277 209.182 276.277 207.642C276.277 206.116 277.887 205.22 280.505 205.22ZM280.505 206.144C278.587 206.144 277.425 206.704 277.425 207.642C277.425 208.594 278.587 209.154 280.505 209.154C282.409 209.154 283.571 208.594 283.571 207.642C283.571 206.704 282.409 206.144 280.505 206.144ZM287.167 198.766H294.643V199.718H287.167V198.766ZM290.905 200.362C292.697 200.362 293.929 201.258 293.929 202.658C293.929 204.044 292.697 204.926 290.905 204.926C289.085 204.926 287.867 204.044 287.867 202.658C287.867 201.258 289.085 200.362 290.905 200.362ZM290.905 201.272C289.743 201.272 288.973 201.804 288.973 202.658C288.973 203.484 289.743 204.03 290.905 204.03C292.039 204.03 292.823 203.484 292.823 202.658C292.823 201.804 292.039 201.272 290.905 201.272ZM295.791 197.436H296.953V205.346H295.791V197.436ZM296.631 200.922H298.829V201.888H296.631V200.922ZM288.735 206.032H296.953V210.092H295.791V206.984H288.735V206.032ZM290.317 197.366H291.479V199.298H290.317V197.366Z" fill="black"/>
</svg>
