<svg width="342" height="57" viewBox="0 0 342 57" fill="none" xmlns="http://www.w3.org/2000/svg">
<rect y="28" width="342" height="0.5" fill="#DFDFDF"/>
<path d="M21.728 2.766H29.204V3.718H21.728V2.766ZM25.466 4.362C27.258 4.362 28.49 5.258 28.49 6.658C28.49 8.044 27.258 8.926 25.466 8.926C23.646 8.926 22.428 8.044 22.428 6.658C22.428 5.258 23.646 4.362 25.466 4.362ZM25.466 5.272C24.304 5.272 23.534 5.804 23.534 6.658C23.534 7.484 24.304 8.03 25.466 8.03C26.6 8.03 27.384 7.484 27.384 6.658C27.384 5.804 26.6 5.272 25.466 5.272ZM30.352 1.436H31.514V9.346H30.352V1.436ZM31.192 4.922H33.39V5.888H31.192V4.922ZM23.296 10.032H31.514V14.092H30.352V10.984H23.296V10.032ZM24.878 1.366H26.04V3.298H24.878V1.366ZM41.3269 4.6H44.1409V5.566H41.3269V4.6ZM43.8189 1.436H44.9809V8.842H43.8189V1.436ZM36.7769 9.458H44.9809V13.924H36.7769V9.458ZM43.8469 10.382H37.9109V12.986H43.8469V10.382ZM37.7989 2.64H38.7509V3.662C38.7509 5.972 37.3229 7.946 35.2089 8.73L34.6069 7.806C36.4969 7.134 37.7989 5.454 37.7989 3.662V2.64ZM38.0229 2.64H38.9609V3.648C38.9609 5.286 40.1929 6.868 42.0269 7.512L41.4389 8.436C39.3809 7.694 38.0229 5.776 38.0229 3.648V2.64ZM34.9709 2.248H41.7329V3.186H34.9709V2.248Z" fill="#222222"/>
<path d="M87.074 2.402C88.908 2.402 90.224 4.124 90.224 6.812C90.224 9.514 88.908 11.236 87.074 11.236C85.226 11.236 83.924 9.514 83.924 6.812C83.924 4.124 85.226 2.402 87.074 2.402ZM87.074 3.452C85.856 3.452 85.03 4.768 85.03 6.812C85.03 8.87 85.856 10.214 87.074 10.214C88.292 10.214 89.118 8.87 89.118 6.812C89.118 4.768 88.292 3.452 87.074 3.452ZM92.968 1.422H94.116V14.106H92.968V1.422ZM89.846 6.252H93.472V7.204H89.846V6.252ZM96.6069 2.766H104.083V3.718H96.6069V2.766ZM100.345 4.362C102.137 4.362 103.369 5.258 103.369 6.658C103.369 8.044 102.137 8.926 100.345 8.926C98.5249 8.926 97.3069 8.044 97.3069 6.658C97.3069 5.258 98.5249 4.362 100.345 4.362ZM100.345 5.272C99.1829 5.272 98.4129 5.804 98.4129 6.658C98.4129 7.484 99.1829 8.03 100.345 8.03C101.479 8.03 102.263 7.484 102.263 6.658C102.263 5.804 101.479 5.272 100.345 5.272ZM105.231 1.436H106.393V9.346H105.231V1.436ZM106.071 4.922H108.269V5.888H106.071V4.922ZM98.1749 10.032H106.393V14.092H105.231V10.984H98.1749V10.032ZM99.7569 1.366H100.919V3.298H99.7569V1.366Z" fill="#222222"/>
<path d="M148.822 3.242H149.746V5.3C149.746 7.932 148.136 10.648 146.162 11.656L145.49 10.732C147.296 9.85 148.822 7.442 148.822 5.3V3.242ZM149.032 3.242H149.956V5.3C149.956 7.302 151.384 9.556 153.218 10.424L152.56 11.348C150.558 10.354 149.032 7.806 149.032 5.3V3.242ZM145.938 2.724H152.756V3.704H145.938V2.724ZM154.254 1.436H155.43V14.092H154.254V1.436ZM155.15 6.546H157.502V7.526H155.15V6.546ZM163.969 2.29H165.187C165.187 5.51 162.905 7.806 159.223 8.814L158.761 7.904C162.009 7.008 163.969 5.146 163.969 2.794V2.29ZM159.405 2.29H164.683V3.228H159.405V2.29ZM160.539 9.556H168.981V14.064H167.819V10.494H160.539V9.556ZM167.819 1.436H168.981V8.982H167.819V1.436ZM164.669 3.69H168.057V4.642H164.669V3.69ZM164.543 6.378H167.973V7.33H164.543V6.378ZM171.444 7.456H182.882V8.394H171.444V7.456ZM177.156 9.486C179.858 9.486 181.496 10.326 181.496 11.782C181.496 13.238 179.858 14.064 177.156 14.064C174.454 14.064 172.816 13.238 172.816 11.782C172.816 10.326 174.454 9.486 177.156 9.486ZM177.156 10.41C175.182 10.41 173.992 10.9 173.992 11.782C173.992 12.65 175.182 13.154 177.156 13.154C179.144 13.154 180.32 12.65 180.32 11.782C180.32 10.9 179.144 10.41 177.156 10.41ZM176.414 2.584H177.45V2.962C177.45 4.992 175.126 6.378 172.508 6.686L172.088 5.776C174.356 5.524 176.414 4.39 176.414 2.962V2.584ZM176.904 2.584H177.926V2.962C177.926 4.39 179.984 5.524 182.252 5.776L181.832 6.686C179.214 6.378 176.904 4.992 176.904 2.962V2.584ZM172.494 2.08H181.86V3.018H172.494V2.08Z" fill="#222222"/>
<path d="M226.37 9.416C229.058 9.416 230.78 10.298 230.78 11.754C230.78 13.196 229.058 14.064 226.37 14.064C223.668 14.064 221.96 13.196 221.96 11.754C221.96 10.298 223.668 9.416 226.37 9.416ZM226.37 10.326C224.382 10.326 223.108 10.872 223.108 11.754C223.108 12.622 224.382 13.168 226.37 13.168C228.358 13.168 229.618 12.622 229.618 11.754C229.618 10.872 228.358 10.326 226.37 10.326ZM222.058 2.066H230.206V3.018H222.058V2.066ZM220.7 7.33H232.124V8.268H220.7V7.33ZM225.39 4.894H226.538V7.596H225.39V4.894ZM229.534 2.066H230.668V3.144C230.668 4.166 230.668 5.188 230.332 6.504L229.184 6.364C229.534 5.062 229.534 4.138 229.534 3.144V2.066ZM233.579 11.516H245.045V12.482H233.579V11.516ZM238.703 8.24H239.865V11.782H238.703V8.24ZM234.909 2.486H243.645V8.45H234.909V2.486ZM242.525 3.424H236.043V7.512H242.525V3.424ZM253.164 4.922H256.356V5.874H253.164V4.922ZM255.698 1.45H256.86V10.718H255.698V1.45ZM248.782 12.86H257.21V13.812H248.782V12.86ZM248.782 9.906H249.944V13.35H248.782V9.906ZM249.678 3.018H250.63V4.04C250.63 6.336 249.202 8.324 247.088 9.108L246.486 8.184C248.376 7.512 249.678 5.832 249.678 4.04V3.018ZM249.902 3.018H250.84V4.026C250.84 5.664 252.072 7.26 253.906 7.904L253.318 8.814C251.26 8.072 249.902 6.168 249.902 4.026V3.018ZM246.85 2.472H253.612V3.41H246.85V2.472Z" fill="#222222"/>
<path d="M304.898 1.45H306.074V10.69H304.898V1.45ZM297.94 12.86H306.452V13.812H297.94V12.86ZM297.94 9.738H299.088V13.182H297.94V9.738ZM299.284 2.318C301.174 2.318 302.574 3.606 302.574 5.44C302.574 7.26 301.174 8.562 299.284 8.562C297.394 8.562 295.98 7.26 295.98 5.44C295.98 3.606 297.394 2.318 299.284 2.318ZM299.284 3.326C298.052 3.326 297.114 4.194 297.114 5.44C297.114 6.672 298.052 7.54 299.284 7.54C300.516 7.54 301.454 6.672 301.454 5.44C301.454 4.194 300.516 3.326 299.284 3.326ZM315.397 5.006H318.043V5.944H315.397V5.006ZM317.819 1.436H318.981V10.844H317.819V1.436ZM310.889 12.86H319.317V13.812H310.889V12.86ZM310.889 10.046H312.051V13.42H310.889V10.046ZM309.209 7.89H310.133C312.555 7.89 313.899 7.834 315.523 7.554L315.635 8.492C313.983 8.8 312.597 8.842 310.133 8.842H309.209V7.89ZM309.209 2.416H314.879V3.368H310.357V8.044H309.209V2.416ZM309.979 5.104H314.529V6.028H309.979V5.104Z" fill="#222222"/>
<path d="M24.7002 48.1689H25.7529C26.0902 48.1689 26.3682 48.112 26.5869 47.998C26.8057 47.8796 26.9674 47.7155 27.0723 47.5059C27.1816 47.2917 27.2363 47.0433 27.2363 46.7607C27.2363 46.5055 27.1862 46.2799 27.0859 46.084C26.9902 45.8835 26.8421 45.7285 26.6416 45.6191C26.4411 45.5052 26.1882 45.4482 25.8828 45.4482C25.6413 45.4482 25.418 45.4961 25.2129 45.5918C25.0078 45.6875 24.8438 45.8219 24.7207 45.9951C24.5977 46.1683 24.5361 46.3779 24.5361 46.624H22.5605C22.5605 46.0771 22.7064 45.6009 22.998 45.1953C23.2943 44.7897 23.6908 44.473 24.1875 44.2451C24.6842 44.0173 25.2311 43.9033 25.8281 43.9033C26.5026 43.9033 27.0928 44.0127 27.5986 44.2314C28.1045 44.4456 28.4987 44.7624 28.7812 45.1816C29.0638 45.6009 29.2051 46.1204 29.2051 46.7402C29.2051 47.0547 29.1322 47.36 28.9863 47.6562C28.8405 47.9479 28.6309 48.2122 28.3574 48.4492C28.0885 48.6816 27.7604 48.8685 27.373 49.0098C26.9857 49.1465 26.5505 49.2148 26.0674 49.2148H24.7002V48.1689ZM24.7002 49.666V48.6475H26.0674C26.6097 48.6475 27.0859 48.709 27.4961 48.832C27.9062 48.9551 28.2503 49.1328 28.5283 49.3652C28.8063 49.5931 29.016 49.8643 29.1572 50.1787C29.2985 50.4886 29.3691 50.8327 29.3691 51.2109C29.3691 51.6758 29.2803 52.0905 29.1025 52.4551C28.9248 52.8151 28.6742 53.1204 28.3506 53.3711C28.0316 53.6217 27.6579 53.8132 27.2295 53.9453C26.8011 54.0729 26.334 54.1367 25.8281 54.1367C25.4089 54.1367 24.9964 54.0798 24.5908 53.9658C24.1898 53.8473 23.8252 53.6719 23.4971 53.4395C23.1735 53.2025 22.9137 52.9062 22.7178 52.5508C22.5264 52.1908 22.4307 51.7646 22.4307 51.2725H24.4062C24.4062 51.5277 24.4701 51.7555 24.5977 51.9561C24.7253 52.1566 24.9007 52.3138 25.124 52.4277C25.3519 52.5417 25.6048 52.5986 25.8828 52.5986C26.1973 52.5986 26.4661 52.5417 26.6895 52.4277C26.9173 52.3092 27.0905 52.1452 27.209 51.9355C27.332 51.7214 27.3936 51.473 27.3936 51.1904C27.3936 50.8258 27.3275 50.5342 27.1953 50.3154C27.0632 50.0921 26.874 49.9281 26.6279 49.8232C26.3818 49.7184 26.0902 49.666 25.7529 49.666H24.7002ZM37.4834 44.0469V45.1064L33.6348 54H31.5566L35.4053 45.585H30.4492V44.0469H37.4834ZM40.6143 49.4678L39.042 49.0918L39.6094 44.0469H45.2012V45.6396H41.2295L40.9834 47.8477C41.1156 47.7702 41.3161 47.6882 41.585 47.6016C41.8538 47.5104 42.1546 47.4648 42.4873 47.4648C42.9704 47.4648 43.3988 47.54 43.7725 47.6904C44.1462 47.8408 44.4629 48.0596 44.7227 48.3467C44.987 48.6338 45.1875 48.9847 45.3242 49.3994C45.4609 49.8141 45.5293 50.2835 45.5293 50.8076C45.5293 51.2497 45.4609 51.6712 45.3242 52.0723C45.1875 52.4688 44.9801 52.8242 44.7021 53.1387C44.4242 53.4486 44.0755 53.6924 43.6562 53.8701C43.237 54.0479 42.7402 54.1367 42.166 54.1367C41.7376 54.1367 41.3229 54.0729 40.9219 53.9453C40.5254 53.8177 40.1676 53.6286 39.8486 53.3779C39.5342 53.1273 39.2812 52.8242 39.0898 52.4688C38.903 52.1087 38.805 51.6986 38.7959 51.2383H40.751C40.7783 51.5208 40.8512 51.7646 40.9697 51.9697C41.0928 52.1702 41.2546 52.3252 41.4551 52.4346C41.6556 52.5439 41.8903 52.5986 42.1592 52.5986C42.4098 52.5986 42.624 52.5508 42.8018 52.4551C42.9795 52.3594 43.123 52.2272 43.2324 52.0586C43.3418 51.8854 43.4215 51.6849 43.4717 51.457C43.5264 51.2246 43.5537 50.974 43.5537 50.7051C43.5537 50.4362 43.5218 50.1924 43.458 49.9736C43.3942 49.7549 43.2962 49.5658 43.1641 49.4062C43.0319 49.2467 42.8633 49.1237 42.6582 49.0371C42.4577 48.9505 42.223 48.9072 41.9541 48.9072C41.5895 48.9072 41.307 48.9642 41.1064 49.0781C40.9105 49.1921 40.7464 49.3219 40.6143 49.4678Z" fill="#222222"/>
<path d="M72.86 49.716H80.312V50.52H72.86V49.716ZM71.6 52.764H81.428V53.592H71.6V52.764ZM76.004 50.136H76.988V53.148H76.004V50.136ZM72.86 44.964H80.192V45.78H73.868V50.016H72.86V44.964ZM73.544 47.292H79.964V48.096H73.544V47.292ZM84.2831 51.132H91.5311V54.936H90.5231V51.936H84.2831V51.132ZM90.5231 44.088H91.5311V50.532H90.5231V44.088ZM85.7111 44.724C87.3431 44.724 88.5311 45.78 88.5311 47.304C88.5311 48.816 87.3431 49.86 85.7111 49.86C84.0671 49.86 82.8791 48.816 82.8791 47.304C82.8791 45.78 84.0671 44.724 85.7111 44.724ZM85.7111 45.576C84.6311 45.576 83.8511 46.272 83.8511 47.304C83.8511 48.324 84.6311 49.032 85.7111 49.032C86.7911 49.032 87.5711 48.324 87.5711 47.304C87.5711 46.272 86.7911 45.576 85.7111 45.576ZM103.954 51.2725C103.954 51.8968 103.808 52.4232 103.517 52.8516C103.225 53.2754 102.824 53.5967 102.313 53.8154C101.808 54.0296 101.233 54.1367 100.591 54.1367C99.9482 54.1367 99.3717 54.0296 98.8613 53.8154C98.3509 53.5967 97.9476 53.2754 97.6514 52.8516C97.3551 52.4232 97.207 51.8968 97.207 51.2725C97.207 50.8532 97.2913 50.4749 97.46 50.1377C97.6286 49.7959 97.8633 49.5042 98.1641 49.2627C98.4694 49.0166 98.8271 48.8298 99.2373 48.7021C99.6475 48.57 100.094 48.5039 100.577 48.5039C101.224 48.5039 101.803 48.6178 102.313 48.8457C102.824 49.0736 103.225 49.3949 103.517 49.8096C103.808 50.2243 103.954 50.7119 103.954 51.2725ZM101.972 51.1426C101.972 50.8372 101.912 50.5752 101.794 50.3564C101.68 50.1331 101.518 49.9622 101.309 49.8438C101.099 49.7253 100.855 49.666 100.577 49.666C100.299 49.666 100.055 49.7253 99.8457 49.8438C99.6361 49.9622 99.472 50.1331 99.3535 50.3564C99.2396 50.5752 99.1826 50.8372 99.1826 51.1426C99.1826 51.4434 99.2396 51.7031 99.3535 51.9219C99.472 52.1406 99.6361 52.3092 99.8457 52.4277C100.06 52.5417 100.308 52.5986 100.591 52.5986C100.873 52.5986 101.117 52.5417 101.322 52.4277C101.532 52.3092 101.691 52.1406 101.801 51.9219C101.915 51.7031 101.972 51.4434 101.972 51.1426ZM103.742 46.6855C103.742 47.1914 103.608 47.6403 103.339 48.0322C103.07 48.4196 102.696 48.7227 102.218 48.9414C101.744 49.1602 101.201 49.2695 100.591 49.2695C99.9756 49.2695 99.4287 49.1602 98.9502 48.9414C98.4717 48.7227 98.098 48.4196 97.8291 48.0322C97.5602 47.6403 97.4258 47.1914 97.4258 46.6855C97.4258 46.084 97.5602 45.5781 97.8291 45.168C98.1025 44.7533 98.4762 44.4388 98.9502 44.2246C99.4287 44.0104 99.971 43.9033 100.577 43.9033C101.192 43.9033 101.737 44.0104 102.211 44.2246C102.689 44.4388 103.063 44.7533 103.332 45.168C103.605 45.5781 103.742 46.084 103.742 46.6855ZM101.773 46.7744C101.773 46.5055 101.726 46.2731 101.63 46.0771C101.534 45.8766 101.397 45.7217 101.22 45.6123C101.047 45.5029 100.832 45.4482 100.577 45.4482C100.331 45.4482 100.119 45.5007 99.9414 45.6055C99.7682 45.7103 99.6338 45.863 99.5381 46.0635C99.4469 46.2594 99.4014 46.4964 99.4014 46.7744C99.4014 47.0433 99.4469 47.2803 99.5381 47.4854C99.6338 47.6859 99.7705 47.8431 99.9482 47.957C100.126 48.071 100.34 48.1279 100.591 48.1279C100.841 48.1279 101.053 48.071 101.227 47.957C101.404 47.8431 101.539 47.6859 101.63 47.4854C101.726 47.2803 101.773 47.0433 101.773 46.7744ZM107.14 49.4678L105.567 49.0918L106.135 44.0469H111.727V45.6396H107.755L107.509 47.8477C107.641 47.7702 107.841 47.6882 108.11 47.6016C108.379 47.5104 108.68 47.4648 109.013 47.4648C109.496 47.4648 109.924 47.54 110.298 47.6904C110.672 47.8408 110.988 48.0596 111.248 48.3467C111.512 48.6338 111.713 48.9847 111.85 49.3994C111.986 49.8141 112.055 50.2835 112.055 50.8076C112.055 51.2497 111.986 51.6712 111.85 52.0723C111.713 52.4688 111.506 52.8242 111.228 53.1387C110.95 53.4486 110.601 53.6924 110.182 53.8701C109.762 54.0479 109.266 54.1367 108.691 54.1367C108.263 54.1367 107.848 54.0729 107.447 53.9453C107.051 53.8177 106.693 53.6286 106.374 53.3779C106.06 53.1273 105.807 52.8242 105.615 52.4688C105.428 52.1087 105.33 51.6986 105.321 51.2383H107.276C107.304 51.5208 107.377 51.7646 107.495 51.9697C107.618 52.1702 107.78 52.3252 107.98 52.4346C108.181 52.5439 108.416 52.5986 108.685 52.5986C108.935 52.5986 109.149 52.5508 109.327 52.4551C109.505 52.3594 109.648 52.2272 109.758 52.0586C109.867 51.8854 109.947 51.6849 109.997 51.457C110.052 51.2246 110.079 50.974 110.079 50.7051C110.079 50.4362 110.047 50.1924 109.983 49.9736C109.92 49.7549 109.822 49.5658 109.689 49.4062C109.557 49.2467 109.389 49.1237 109.184 49.0371C108.983 48.9505 108.748 48.9072 108.479 48.9072C108.115 48.9072 107.832 48.9642 107.632 49.0781C107.436 49.1921 107.272 49.3219 107.14 49.4678ZM115.179 49.4678L113.606 49.0918L114.174 44.0469H119.766V45.6396H115.794L115.548 47.8477C115.68 47.7702 115.881 47.6882 116.149 47.6016C116.418 47.5104 116.719 47.4648 117.052 47.4648C117.535 47.4648 117.963 47.54 118.337 47.6904C118.711 47.8408 119.027 48.0596 119.287 48.3467C119.551 48.6338 119.752 48.9847 119.889 49.3994C120.025 49.8141 120.094 50.2835 120.094 50.8076C120.094 51.2497 120.025 51.6712 119.889 52.0723C119.752 52.4688 119.545 52.8242 119.267 53.1387C118.989 53.4486 118.64 53.6924 118.221 53.8701C117.801 54.0479 117.305 54.1367 116.73 54.1367C116.302 54.1367 115.887 54.0729 115.486 53.9453C115.09 53.8177 114.732 53.6286 114.413 53.3779C114.099 53.1273 113.846 52.8242 113.654 52.4688C113.467 52.1087 113.369 51.6986 113.36 51.2383H115.315C115.343 51.5208 115.416 51.7646 115.534 51.9697C115.657 52.1702 115.819 52.3252 116.02 52.4346C116.22 52.5439 116.455 52.5986 116.724 52.5986C116.974 52.5986 117.188 52.5508 117.366 52.4551C117.544 52.3594 117.688 52.2272 117.797 52.0586C117.906 51.8854 117.986 51.6849 118.036 51.457C118.091 51.2246 118.118 50.974 118.118 50.7051C118.118 50.4362 118.086 50.1924 118.022 49.9736C117.959 49.7549 117.861 49.5658 117.729 49.4062C117.596 49.2467 117.428 49.1237 117.223 49.0371C117.022 48.9505 116.787 48.9072 116.519 48.9072C116.154 48.9072 115.871 48.9642 115.671 49.0781C115.475 49.1921 115.311 49.3219 115.179 49.4678Z" fill="#222222"/>
<path d="M160.383 48.1484V49.8711C160.383 50.6185 160.303 51.2633 160.144 51.8057C159.984 52.3434 159.754 52.7855 159.453 53.1318C159.157 53.4736 158.804 53.7266 158.394 53.8906C157.983 54.0547 157.528 54.1367 157.026 54.1367C156.625 54.1367 156.252 54.0866 155.905 53.9863C155.559 53.8815 155.247 53.7197 154.969 53.501C154.695 53.2822 154.458 53.0065 154.258 52.6738C154.062 52.3366 153.911 51.9355 153.807 51.4707C153.702 51.0059 153.649 50.4727 153.649 49.8711V48.1484C153.649 47.401 153.729 46.7607 153.889 46.2275C154.053 45.6898 154.283 45.25 154.579 44.9082C154.88 44.5664 155.235 44.3158 155.646 44.1562C156.056 43.9922 156.511 43.9102 157.013 43.9102C157.414 43.9102 157.785 43.9626 158.127 44.0674C158.473 44.1676 158.785 44.3249 159.063 44.5391C159.341 44.7533 159.578 45.029 159.774 45.3662C159.97 45.6989 160.121 46.0977 160.226 46.5625C160.33 47.0228 160.383 47.5514 160.383 48.1484ZM158.407 50.1309V47.8818C158.407 47.5218 158.387 47.2074 158.346 46.9385C158.309 46.6696 158.252 46.4417 158.175 46.2549C158.097 46.0635 158.002 45.9085 157.888 45.79C157.774 45.6715 157.644 45.585 157.498 45.5303C157.352 45.4756 157.19 45.4482 157.013 45.4482C156.789 45.4482 156.591 45.4915 156.418 45.5781C156.249 45.6647 156.106 45.8037 155.987 45.9951C155.869 46.182 155.778 46.4326 155.714 46.7471C155.655 47.057 155.625 47.4352 155.625 47.8818V50.1309C155.625 50.4909 155.643 50.8076 155.68 51.0811C155.721 51.3545 155.78 51.5892 155.857 51.7852C155.939 51.9766 156.035 52.1338 156.145 52.2568C156.258 52.3753 156.388 52.4619 156.534 52.5166C156.685 52.5713 156.849 52.5986 157.026 52.5986C157.245 52.5986 157.439 52.5553 157.607 52.4688C157.781 52.3776 157.926 52.2363 158.045 52.0449C158.168 51.849 158.259 51.5938 158.318 51.2793C158.378 50.9648 158.407 50.582 158.407 50.1309ZM173.357 44.088H174.317V54.936H173.357V44.088ZM171.605 48.444H173.681V49.26H171.605V48.444ZM168.797 45.48H169.757C169.757 48.276 168.797 50.868 165.701 52.608L165.113 51.9C167.837 50.376 168.797 48.18 168.797 45.672V45.48ZM165.533 45.48H169.133V46.308H165.533V45.48ZM170.945 44.376H171.893V54.408H170.945V44.376Z" fill="#222222"/>
<path d="M221.98 44.472H222.856V45.072C222.856 47.148 220.744 48.636 218.488 49.02L218.092 48.216C220.072 47.916 221.98 46.62 221.98 45.072V44.472ZM222.16 44.472H223.024V45.072C223.024 46.584 224.956 47.916 226.912 48.216L226.516 49.02C224.284 48.636 222.16 47.124 222.16 45.072V44.472ZM221.98 50.808H222.964V54.936H221.98V50.808ZM217.6 50.196H227.404V51.024H217.6V50.196ZM231.267 44.652H232.095V45.756C232.095 47.844 230.919 49.572 229.107 50.28L228.579 49.476C230.211 48.876 231.267 47.412 231.267 45.756V44.652ZM231.447 44.652H232.263V45.828C232.263 47.292 233.343 48.648 234.903 49.188L234.375 49.968C232.635 49.32 231.447 47.712 231.447 45.828V44.652ZM236.055 44.088H237.051V50.664H236.055V44.088ZM236.775 46.884H238.659V47.724H236.775V46.884ZM233.595 50.964C235.815 50.964 237.159 51.696 237.159 52.944C237.159 54.192 235.815 54.912 233.595 54.912C231.375 54.912 230.031 54.192 230.031 52.944C230.031 51.696 231.375 50.964 233.595 50.964ZM233.595 51.756C231.987 51.756 231.003 52.188 231.003 52.944C231.003 53.7 231.987 54.132 233.595 54.132C235.203 54.132 236.187 53.7 236.187 52.944C236.187 52.188 235.203 51.756 233.595 51.756ZM248.047 44.0264V54H246.078V46.2959L243.713 47.0479V45.4961L247.835 44.0264H248.047ZM254.288 50.592H255.296V52.38H254.288V50.592ZM259.04 44.088H260.036V54.936H259.04V44.088ZM251.396 52.872L251.264 52.044C253.316 52.032 256.016 52.008 258.356 51.708L258.428 52.44C256.016 52.848 253.4 52.872 251.396 52.872ZM251.492 45.408H258.08V46.212H251.492V45.408ZM254.78 46.836C256.34 46.836 257.396 47.628 257.396 48.84C257.396 50.064 256.34 50.844 254.78 50.844C253.232 50.844 252.176 50.064 252.176 48.84C252.176 47.628 253.232 46.836 254.78 46.836ZM254.78 47.604C253.808 47.604 253.124 48.096 253.124 48.84C253.124 49.584 253.808 50.076 254.78 50.076C255.764 50.076 256.448 49.584 256.448 48.84C256.448 48.096 255.764 47.604 254.78 47.604ZM254.288 44.088H255.284V45.852H254.288V44.088Z" fill="#222222"/>
<path d="M305.383 48.1484V49.8711C305.383 50.6185 305.303 51.2633 305.144 51.8057C304.984 52.3434 304.754 52.7855 304.453 53.1318C304.157 53.4736 303.804 53.7266 303.394 53.8906C302.983 54.0547 302.528 54.1367 302.026 54.1367C301.625 54.1367 301.252 54.0866 300.905 53.9863C300.559 53.8815 300.247 53.7197 299.969 53.501C299.695 53.2822 299.458 53.0065 299.258 52.6738C299.062 52.3366 298.911 51.9355 298.807 51.4707C298.702 51.0059 298.649 50.4727 298.649 49.8711V48.1484C298.649 47.401 298.729 46.7607 298.889 46.2275C299.053 45.6898 299.283 45.25 299.579 44.9082C299.88 44.5664 300.235 44.3158 300.646 44.1562C301.056 43.9922 301.511 43.9102 302.013 43.9102C302.414 43.9102 302.785 43.9626 303.127 44.0674C303.473 44.1676 303.785 44.3249 304.063 44.5391C304.341 44.7533 304.578 45.029 304.774 45.3662C304.97 45.6989 305.121 46.0977 305.226 46.5625C305.33 47.0228 305.383 47.5514 305.383 48.1484ZM303.407 50.1309V47.8818C303.407 47.5218 303.387 47.2074 303.346 46.9385C303.309 46.6696 303.252 46.4417 303.175 46.2549C303.097 46.0635 303.002 45.9085 302.888 45.79C302.774 45.6715 302.644 45.585 302.498 45.5303C302.352 45.4756 302.19 45.4482 302.013 45.4482C301.789 45.4482 301.591 45.4915 301.418 45.5781C301.249 45.6647 301.106 45.8037 300.987 45.9951C300.869 46.182 300.778 46.4326 300.714 46.7471C300.655 47.057 300.625 47.4352 300.625 47.8818V50.1309C300.625 50.4909 300.643 50.8076 300.68 51.0811C300.721 51.3545 300.78 51.5892 300.857 51.7852C300.939 51.9766 301.035 52.1338 301.145 52.2568C301.258 52.3753 301.388 52.4619 301.534 52.5166C301.685 52.5713 301.849 52.5986 302.026 52.5986C302.245 52.5986 302.439 52.5553 302.607 52.4688C302.781 52.3776 302.926 52.2363 303.045 52.0449C303.168 51.849 303.259 51.5938 303.318 51.2793C303.378 50.9648 303.407 50.582 303.407 50.1309ZM309.723 50.592H310.731V52.38H309.723V50.592ZM314.475 44.088H315.471V54.936H314.475V44.088ZM306.831 52.872L306.699 52.044C308.751 52.032 311.451 52.008 313.791 51.708L313.863 52.44C311.451 52.848 308.835 52.872 306.831 52.872ZM306.927 45.408H313.515V46.212H306.927V45.408ZM310.215 46.836C311.775 46.836 312.831 47.628 312.831 48.84C312.831 50.064 311.775 50.844 310.215 50.844C308.667 50.844 307.611 50.064 307.611 48.84C307.611 47.628 308.667 46.836 310.215 46.836ZM310.215 47.604C309.243 47.604 308.559 48.096 308.559 48.84C308.559 49.584 309.243 50.076 310.215 50.076C311.199 50.076 311.883 49.584 311.883 48.84C311.883 48.096 311.199 47.604 310.215 47.604ZM309.723 44.088H310.719V45.852H309.723V44.088Z" fill="#222222"/>
</svg>
