<svg width="140" height="224" viewBox="0 0 140 224" fill="none" xmlns="http://www.w3.org/2000/svg">
<path d="M0.56 2.416H8.19V3.886H0.56V2.416ZM4.382 4.292C6.244 4.292 7.56 5.258 7.56 6.686C7.56 8.114 6.244 9.066 4.382 9.066C2.506 9.066 1.19 8.114 1.19 6.686C1.19 5.258 2.506 4.292 4.382 4.292ZM4.382 5.692C3.542 5.692 2.982 6.028 2.982 6.686C2.982 7.33 3.542 7.666 4.382 7.666C5.208 7.666 5.782 7.33 5.782 6.686C5.782 6.028 5.208 5.692 4.382 5.692ZM8.904 1.282H10.766V9.416H8.904V1.282ZM10.248 4.628H12.488V6.14H10.248V4.628ZM2.114 9.948H10.766V14.246H8.904V11.432H2.114V9.948ZM3.444 1.212H5.306V3.256H3.444V1.212ZM20.4529 4.264H22.9169V5.776H20.4529V4.264ZM22.4269 1.282H24.2889V8.772H22.4269V1.282ZM15.6509 9.304H24.2889V14.106H15.6509V9.304ZM22.4689 10.76H17.4849V12.636H22.4689V10.76ZM16.4349 2.486H17.9469V3.298C17.9469 5.748 16.7989 7.988 14.3069 8.8L13.3689 7.33C15.5109 6.63 16.4349 4.936 16.4349 3.298V2.486ZM16.8269 2.486H18.3249V3.298C18.3249 4.81 19.2069 6.406 21.2509 7.092L20.3409 8.562C17.9329 7.764 16.8269 5.608 16.8269 3.298V2.486ZM13.8729 1.94H20.8449V3.41H13.8729V1.94Z" fill="#222222"/>
<path d="M4.116 54.178C6.048 54.178 7.462 55.97 7.462 58.798C7.462 61.654 6.048 63.446 4.116 63.446C2.17 63.446 0.77 61.654 0.77 58.798C0.77 55.97 2.17 54.178 4.116 54.178ZM4.116 55.872C3.178 55.872 2.548 56.894 2.548 58.798C2.548 60.73 3.178 61.766 4.116 61.766C5.068 61.766 5.684 60.73 5.684 58.798C5.684 56.894 5.068 55.872 4.116 55.872ZM9.59 53.268H11.438V66.274H9.59V53.268ZM6.916 57.944H10.374V59.442H6.916V57.944ZM13.4389 54.416H21.0689V55.886H13.4389V54.416ZM17.2609 56.292C19.1229 56.292 20.4389 57.258 20.4389 58.686C20.4389 60.114 19.1229 61.066 17.2609 61.066C15.3849 61.066 14.0689 60.114 14.0689 58.686C14.0689 57.258 15.3849 56.292 17.2609 56.292ZM17.2609 57.692C16.4209 57.692 15.8609 58.028 15.8609 58.686C15.8609 59.33 16.4209 59.666 17.2609 59.666C18.0869 59.666 18.6609 59.33 18.6609 58.686C18.6609 58.028 18.0869 57.692 17.2609 57.692ZM21.7829 53.282H23.6449V61.416H21.7829V53.282ZM23.1269 56.628H25.3669V58.14H23.1269V56.628ZM14.9929 61.948H23.6449V66.246H21.7829V63.432H14.9929V61.948ZM16.3229 53.212H18.1849V55.256H16.3229V53.212Z" fill="#222222"/>
<path d="M3.472 107.326H4.942V108.782C4.942 111.708 3.71 114.69 1.33 115.81L0.28 114.34C2.422 113.332 3.472 110.91 3.472 108.782V107.326ZM3.864 107.326H5.334V108.782C5.334 110.742 6.342 113.038 8.47 114.018L7.448 115.488C5.068 114.382 3.864 111.54 3.864 108.782V107.326ZM0.784 106.528H7.896V108.054H0.784V106.528ZM8.848 105.282H10.724V118.246H8.848V105.282ZM10.304 110.224H12.6V111.764H10.304V110.224ZM18.3669 106.094H20.3129C20.3129 109.58 18.1569 111.946 14.2789 112.968L13.5789 111.512C16.7569 110.686 18.3669 109.006 18.3669 107.018V106.094ZM14.3069 106.094H19.5709V107.578H14.3069V106.094ZM15.4549 113.528H24.2889V118.204H22.4269V114.984H15.4549V113.528ZM22.4269 105.282H24.2889V112.982H22.4269V105.282ZM19.6969 107.368H22.7349V108.838H19.6969V107.368ZM19.5709 110.126H22.6229V111.61H19.5709V110.126ZM26.3178 111.26H38.0358V112.73H26.3178V111.26ZM32.1558 113.444C34.9558 113.444 36.6498 114.326 36.6498 115.852C36.6498 117.378 34.9558 118.246 32.1558 118.246C29.3558 118.246 27.6478 117.378 27.6478 115.852C27.6478 114.326 29.3558 113.444 32.1558 113.444ZM32.1558 114.886C30.4198 114.886 29.5378 115.18 29.5378 115.852C29.5378 116.51 30.4198 116.818 32.1558 116.818C33.8918 116.818 34.7738 116.51 34.7738 115.852C34.7738 115.18 33.8918 114.886 32.1558 114.886ZM30.8958 106.612H32.5478V106.934C32.5478 108.866 30.7978 110.476 27.4518 110.77L26.8078 109.328C29.6498 109.076 30.8958 107.942 30.8958 106.934V106.612ZM31.8058 106.612H33.4578V106.934C33.4578 107.942 34.6898 109.076 37.5458 109.328L36.9018 110.77C33.5698 110.476 31.8058 108.88 31.8058 106.934V106.612ZM27.3818 105.884H36.9858V107.354H27.3818V105.884Z" fill="#222222"/>
<path d="M6.356 165.346C9.156 165.346 10.948 166.27 10.948 167.81C10.948 169.322 9.156 170.246 6.356 170.246C3.556 170.246 1.764 169.322 1.764 167.81C1.764 166.27 3.556 165.346 6.356 165.346ZM6.356 166.746C4.606 166.746 3.612 167.11 3.612 167.81C3.612 168.496 4.606 168.846 6.356 168.846C8.106 168.846 9.1 168.496 9.1 167.81C9.1 167.11 8.106 166.746 6.356 166.746ZM1.904 157.856H10.108V159.326H1.904V157.856ZM0.588 163.064H12.264V164.548H0.588V163.064ZM4.914 160.81H6.762V163.442H4.914V160.81ZM9.03 157.856H10.878V158.92C10.878 159.942 10.878 161.048 10.528 162.392L8.68 162.196C9.03 160.866 9.03 159.928 9.03 158.92V157.856ZM13.4529 167.236H25.1849V168.748H13.4529V167.236ZM18.3669 164.366H20.2289V167.586H18.3669V164.366ZM14.6709 158.234H23.8969V164.604H14.6709V158.234ZM22.0769 159.718H16.5049V163.134H22.0769V159.718ZM33.2618 160.628H36.2858V162.126H33.2618V160.628ZM35.3058 157.296H37.1678V166.746H35.3058V157.296ZM28.6138 168.538H37.4618V170.022H28.6138V168.538ZM28.6138 165.948H30.4758V169.42H28.6138V165.948ZM29.3138 158.99H30.8258V159.802C30.8258 162.238 29.6778 164.492 27.1858 165.318L26.2478 163.834C28.3898 163.134 29.3138 161.44 29.3138 159.802V158.99ZM29.7058 158.99H31.2038V159.802C31.2038 161.314 32.0858 162.924 34.1298 163.61L33.2198 165.066C30.8118 164.268 29.7058 162.112 29.7058 159.802V158.99ZM26.7518 158.164H33.7238V159.634H26.7518V158.164Z" fill="#222222"/>
<path d="M9.464 209.296H11.34V218.606H9.464V209.296ZM2.702 220.538H11.662V222.022H2.702V220.538ZM2.702 217.668H4.564V221.14H2.702V217.668ZM4.284 210.108C6.272 210.108 7.798 211.48 7.798 213.398C7.798 215.302 6.272 216.688 4.284 216.688C2.296 216.688 0.756 215.302 0.756 213.398C0.756 211.48 2.296 210.108 4.284 210.108ZM4.284 211.718C3.318 211.718 2.576 212.334 2.576 213.398C2.576 214.448 3.318 215.064 4.284 215.064C5.236 215.064 5.978 214.448 5.978 213.398C5.978 212.334 5.236 211.718 4.284 211.718ZM20.2709 212.796H22.6649V214.266H20.2709V212.796ZM22.4269 209.282H24.2889V218.858H22.4269V209.282ZM15.7209 220.538H24.5829V222.022H15.7209V220.538ZM15.7209 218.046H17.5969V221.574H15.7209V218.046ZM14.0409 215.638H15.0489C17.3869 215.638 18.7589 215.596 20.3689 215.33L20.5229 216.786C18.8989 217.094 17.4429 217.136 15.0489 217.136H14.0409V215.638ZM14.0409 210.262H19.9349V211.746H15.8889V215.792H14.0409V210.262ZM15.3289 212.936H19.5289V214.378H15.3289V212.936Z" fill="#222222"/>
<path d="M89.6729 7.40137H90.5752C91.0173 7.40137 91.3818 7.32845 91.6689 7.18262C91.9606 7.03223 92.1771 6.82943 92.3184 6.57422C92.4642 6.31445 92.5371 6.02279 92.5371 5.69922C92.5371 5.31641 92.4733 4.99512 92.3457 4.73535C92.2181 4.47559 92.0267 4.27962 91.7715 4.14746C91.5163 4.0153 91.1927 3.94922 90.8008 3.94922C90.4453 3.94922 90.1309 4.01986 89.8574 4.16113C89.5885 4.29785 89.3766 4.49382 89.2217 4.74902C89.0713 5.00423 88.9961 5.30501 88.9961 5.65137H87.7314C87.7314 5.14551 87.859 4.68522 88.1143 4.27051C88.3695 3.85579 88.7272 3.52539 89.1875 3.2793C89.6523 3.0332 90.1901 2.91016 90.8008 2.91016C91.4023 2.91016 91.9287 3.01725 92.3799 3.23145C92.8311 3.44108 93.182 3.75553 93.4326 4.1748C93.6833 4.58952 93.8086 5.10677 93.8086 5.72656C93.8086 5.97721 93.7493 6.24609 93.6309 6.5332C93.5169 6.81576 93.3369 7.08008 93.0908 7.32617C92.8493 7.57227 92.5348 7.77507 92.1475 7.93457C91.7601 8.08952 91.2952 8.16699 90.7529 8.16699H89.6729V7.40137ZM89.6729 8.44043V7.68164H90.7529C91.3864 7.68164 91.9105 7.75684 92.3252 7.90723C92.7399 8.05762 93.0658 8.25814 93.3027 8.50879C93.5443 8.75944 93.7129 9.03516 93.8086 9.33594C93.9089 9.63216 93.959 9.92839 93.959 10.2246C93.959 10.6895 93.8792 11.1019 93.7197 11.4619C93.5648 11.8219 93.3438 12.1273 93.0566 12.3779C92.7741 12.6286 92.4414 12.8177 92.0586 12.9453C91.6758 13.0729 91.2588 13.1367 90.8076 13.1367C90.3747 13.1367 89.9668 13.0752 89.584 12.9521C89.2057 12.8291 88.8708 12.6514 88.5791 12.4189C88.2874 12.182 88.0596 11.8926 87.8955 11.5508C87.7314 11.2044 87.6494 10.8102 87.6494 10.3682H88.9141C88.9141 10.7145 88.9893 11.0176 89.1396 11.2773C89.2946 11.5371 89.5133 11.7399 89.7959 11.8857C90.083 12.027 90.4202 12.0977 90.8076 12.0977C91.195 12.0977 91.5277 12.0316 91.8057 11.8994C92.0882 11.7627 92.3047 11.5576 92.4551 11.2842C92.61 11.0107 92.6875 10.6667 92.6875 10.252C92.6875 9.83724 92.6009 9.49772 92.4277 9.2334C92.2546 8.96452 92.0085 8.76628 91.6895 8.63867C91.375 8.50651 91.0036 8.44043 90.5752 8.44043H89.6729ZM102.135 3.04688V3.75781L98.0127 13H96.6797L100.795 4.08594H95.4082V3.04688H102.135ZM105.177 8.2627L104.165 8.00293L104.664 3.04688H109.771V4.21582H105.737L105.437 6.92285C105.619 6.81803 105.849 6.72005 106.127 6.62891C106.41 6.53776 106.733 6.49219 107.098 6.49219C107.558 6.49219 107.97 6.57194 108.335 6.73145C108.7 6.88639 109.009 7.1097 109.265 7.40137C109.524 7.69303 109.723 8.04395 109.859 8.4541C109.996 8.86426 110.064 9.32227 110.064 9.82812C110.064 10.3066 109.998 10.7464 109.866 11.1475C109.739 11.5485 109.545 11.8994 109.285 12.2002C109.025 12.4964 108.697 12.7266 108.301 12.8906C107.909 13.0547 107.446 13.1367 106.913 13.1367C106.512 13.1367 106.132 13.082 105.771 12.9727C105.416 12.8587 105.097 12.6878 104.814 12.46C104.536 12.2275 104.309 11.9404 104.131 11.5986C103.958 11.2523 103.848 10.8467 103.803 10.3818H105.006C105.061 10.7555 105.17 11.07 105.334 11.3252C105.498 11.5804 105.712 11.7741 105.977 11.9062C106.245 12.0339 106.558 12.0977 106.913 12.0977C107.214 12.0977 107.48 12.0452 107.713 11.9404C107.945 11.8356 108.141 11.6852 108.301 11.4893C108.46 11.2933 108.581 11.0563 108.663 10.7783C108.75 10.5003 108.793 10.1882 108.793 9.8418C108.793 9.52734 108.75 9.23568 108.663 8.9668C108.576 8.69792 108.447 8.46322 108.273 8.2627C108.105 8.06217 107.897 7.90723 107.651 7.79785C107.405 7.68392 107.123 7.62695 106.804 7.62695C106.38 7.62695 106.059 7.68392 105.84 7.79785C105.626 7.91178 105.405 8.06673 105.177 8.2627Z" fill="#6F6F6F"/>
<path d="M89.17 60.002H97.864V60.94H89.17V60.002ZM87.7 63.558H99.166V64.524H87.7V63.558ZM92.838 60.492H93.986V64.006H92.838V60.492ZM89.17 54.458H97.724V55.41H90.346V60.352H89.17V54.458ZM89.968 57.174H97.458V58.112H89.968V57.174ZM102.497 61.654H110.953V66.092H109.777V62.592H102.497V61.654ZM109.777 53.436H110.953V60.954H109.777V53.436ZM104.163 54.178C106.067 54.178 107.453 55.41 107.453 57.188C107.453 58.952 106.067 60.17 104.163 60.17C102.245 60.17 100.859 58.952 100.859 57.188C100.859 55.41 102.245 54.178 104.163 54.178ZM104.163 55.172C102.903 55.172 101.993 55.984 101.993 57.188C101.993 58.378 102.903 59.204 104.163 59.204C105.423 59.204 106.333 58.378 106.333 57.188C106.333 55.984 105.423 55.172 104.163 55.172ZM123.333 62.3066C123.333 62.9128 123.192 63.4277 122.909 63.8516C122.631 64.2708 122.253 64.5898 121.774 64.8086C121.3 65.0273 120.765 65.1367 120.168 65.1367C119.571 65.1367 119.033 65.0273 118.555 64.8086C118.076 64.5898 117.698 64.2708 117.42 63.8516C117.142 63.4277 117.003 62.9128 117.003 62.3066C117.003 61.9102 117.078 61.5479 117.229 61.2197C117.383 60.887 117.6 60.5977 117.878 60.3516C118.16 60.1055 118.493 59.9163 118.876 59.7842C119.263 59.6475 119.689 59.5791 120.154 59.5791C120.765 59.5791 121.31 59.6976 121.788 59.9346C122.267 60.167 122.643 60.4883 122.916 60.8984C123.194 61.3086 123.333 61.778 123.333 62.3066ZM122.062 62.2793C122.062 61.9102 121.982 61.5843 121.822 61.3018C121.663 61.0146 121.439 60.7913 121.152 60.6318C120.865 60.4723 120.533 60.3926 120.154 60.3926C119.767 60.3926 119.432 60.4723 119.149 60.6318C118.871 60.7913 118.655 61.0146 118.5 61.3018C118.345 61.5843 118.268 61.9102 118.268 62.2793C118.268 62.6621 118.343 62.9902 118.493 63.2637C118.648 63.5326 118.867 63.7399 119.149 63.8857C119.437 64.027 119.776 64.0977 120.168 64.0977C120.56 64.0977 120.897 64.027 121.18 63.8857C121.462 63.7399 121.679 63.5326 121.829 63.2637C121.984 62.9902 122.062 62.6621 122.062 62.2793ZM123.101 57.6377C123.101 58.1208 122.973 58.556 122.718 58.9434C122.463 59.3307 122.114 59.6361 121.672 59.8594C121.23 60.0827 120.729 60.1943 120.168 60.1943C119.598 60.1943 119.09 60.0827 118.644 59.8594C118.201 59.6361 117.855 59.3307 117.604 58.9434C117.354 58.556 117.229 58.1208 117.229 57.6377C117.229 57.0589 117.354 56.5667 117.604 56.1611C117.86 55.7555 118.208 55.4456 118.65 55.2314C119.092 55.0173 119.596 54.9102 120.161 54.9102C120.731 54.9102 121.237 55.0173 121.679 55.2314C122.121 55.4456 122.467 55.7555 122.718 56.1611C122.973 56.5667 123.101 57.0589 123.101 57.6377ZM121.836 57.6582C121.836 57.3255 121.765 57.0316 121.624 56.7764C121.483 56.5212 121.287 56.3206 121.036 56.1748C120.785 56.0244 120.494 55.9492 120.161 55.9492C119.828 55.9492 119.537 56.0199 119.286 56.1611C119.04 56.2979 118.846 56.4938 118.705 56.749C118.568 57.0042 118.5 57.3073 118.5 57.6582C118.5 58 118.568 58.2985 118.705 58.5537C118.846 58.8089 119.042 59.0072 119.293 59.1484C119.544 59.2897 119.835 59.3604 120.168 59.3604C120.501 59.3604 120.79 59.2897 121.036 59.1484C121.287 59.0072 121.483 58.8089 121.624 58.5537C121.765 58.2985 121.836 58 121.836 57.6582ZM126.532 60.2627L125.521 60.0029L126.02 55.0469H131.126V56.2158H127.093L126.792 58.9229C126.974 58.818 127.204 58.7201 127.482 58.6289C127.765 58.5378 128.089 58.4922 128.453 58.4922C128.913 58.4922 129.326 58.5719 129.69 58.7314C130.055 58.8864 130.365 59.1097 130.62 59.4014C130.88 59.693 131.078 60.0439 131.215 60.4541C131.352 60.8643 131.42 61.3223 131.42 61.8281C131.42 62.3066 131.354 62.7464 131.222 63.1475C131.094 63.5485 130.9 63.8994 130.641 64.2002C130.381 64.4964 130.053 64.7266 129.656 64.8906C129.264 65.0547 128.802 65.1367 128.269 65.1367C127.868 65.1367 127.487 65.082 127.127 64.9727C126.771 64.8587 126.452 64.6878 126.17 64.46C125.892 64.2275 125.664 63.9404 125.486 63.5986C125.313 63.2523 125.204 62.8467 125.158 62.3818H126.361C126.416 62.7555 126.525 63.07 126.689 63.3252C126.854 63.5804 127.068 63.7741 127.332 63.9062C127.601 64.0339 127.913 64.0977 128.269 64.0977C128.569 64.0977 128.836 64.0452 129.068 63.9404C129.301 63.8356 129.497 63.6852 129.656 63.4893C129.816 63.2933 129.937 63.0563 130.019 62.7783C130.105 62.5003 130.148 62.1882 130.148 61.8418C130.148 61.5273 130.105 61.2357 130.019 60.9668C129.932 60.6979 129.802 60.4632 129.629 60.2627C129.46 60.0622 129.253 59.9072 129.007 59.7979C128.761 59.6839 128.478 59.627 128.159 59.627C127.735 59.627 127.414 59.6839 127.195 59.7979C126.981 59.9118 126.76 60.0667 126.532 60.2627ZM134.407 60.2627L133.396 60.0029L133.895 55.0469H139.001V56.2158H134.968L134.667 58.9229C134.849 58.818 135.079 58.7201 135.357 58.6289C135.64 58.5378 135.964 58.4922 136.328 58.4922C136.788 58.4922 137.201 58.5719 137.565 58.7314C137.93 58.8864 138.24 59.1097 138.495 59.4014C138.755 59.693 138.953 60.0439 139.09 60.4541C139.227 60.8643 139.295 61.3223 139.295 61.8281C139.295 62.3066 139.229 62.7464 139.097 63.1475C138.969 63.5485 138.775 63.8994 138.516 64.2002C138.256 64.4964 137.928 64.7266 137.531 64.8906C137.139 65.0547 136.677 65.1367 136.144 65.1367C135.743 65.1367 135.362 65.082 135.002 64.9727C134.646 64.8587 134.327 64.6878 134.045 64.46C133.767 64.2275 133.539 63.9404 133.361 63.5986C133.188 63.2523 133.079 62.8467 133.033 62.3818H134.236C134.291 62.7555 134.4 63.07 134.564 63.3252C134.729 63.5804 134.943 63.7741 135.207 63.9062C135.476 64.0339 135.788 64.0977 136.144 64.0977C136.444 64.0977 136.711 64.0452 136.943 63.9404C137.176 63.8356 137.372 63.6852 137.531 63.4893C137.691 63.2933 137.812 63.0563 137.894 62.7783C137.98 62.5003 138.023 62.1882 138.023 61.8418C138.023 61.5273 137.98 61.2357 137.894 60.9668C137.807 60.6979 137.677 60.4632 137.504 60.2627C137.335 60.0622 137.128 59.9072 136.882 59.7979C136.636 59.6839 136.353 59.627 136.034 59.627C135.61 59.627 135.289 59.6839 135.07 59.7979C134.856 59.9118 134.635 60.0667 134.407 60.2627Z" fill="#6F6F6F"/>
<path d="M94.0752 111.23V112.748C94.0752 113.564 94.0023 114.252 93.8564 114.812C93.7106 115.373 93.501 115.824 93.2275 116.166C92.9541 116.508 92.6237 116.756 92.2363 116.911C91.8535 117.062 91.4206 117.137 90.9375 117.137C90.5547 117.137 90.2015 117.089 89.8779 116.993C89.5544 116.897 89.2627 116.745 89.0029 116.535C88.7477 116.321 88.529 116.043 88.3467 115.701C88.1644 115.359 88.0254 114.945 87.9297 114.457C87.834 113.969 87.7861 113.4 87.7861 112.748V111.23C87.7861 110.415 87.859 109.731 88.0049 109.18C88.1553 108.628 88.3672 108.186 88.6406 107.854C88.9141 107.516 89.2422 107.275 89.625 107.129C90.0124 106.983 90.4453 106.91 90.9238 106.91C91.3112 106.91 91.6667 106.958 91.9902 107.054C92.3184 107.145 92.61 107.293 92.8652 107.498C93.1204 107.699 93.3369 107.967 93.5146 108.305C93.6969 108.637 93.8359 109.045 93.9316 109.528C94.0273 110.011 94.0752 110.579 94.0752 111.23ZM92.8037 112.953V111.019C92.8037 110.572 92.7764 110.18 92.7217 109.843C92.6715 109.501 92.5964 109.209 92.4961 108.968C92.3958 108.726 92.2682 108.53 92.1133 108.38C91.9629 108.229 91.7874 108.12 91.5869 108.052C91.391 107.979 91.1699 107.942 90.9238 107.942C90.623 107.942 90.3564 107.999 90.124 108.113C89.8916 108.223 89.6956 108.398 89.5361 108.64C89.3812 108.881 89.2627 109.198 89.1807 109.59C89.0986 109.982 89.0576 110.458 89.0576 111.019V112.953C89.0576 113.4 89.0827 113.794 89.1328 114.136C89.1875 114.478 89.2673 114.774 89.3721 115.024C89.4769 115.271 89.6045 115.473 89.7549 115.633C89.9053 115.792 90.0785 115.911 90.2744 115.988C90.4749 116.061 90.696 116.098 90.9375 116.098C91.2474 116.098 91.5186 116.038 91.751 115.92C91.9834 115.801 92.1771 115.617 92.332 115.366C92.4915 115.111 92.61 114.785 92.6875 114.389C92.765 113.988 92.8037 113.509 92.8037 112.953ZM105.179 105.436H106.299V118.092H105.179V105.436ZM103.135 110.518H105.557V111.47H103.135V110.518ZM99.859 107.06H100.979C100.979 110.322 99.859 113.346 96.247 115.376L95.561 114.55C98.739 112.772 99.859 110.21 99.859 107.284V107.06ZM96.051 107.06H100.251V108.026H96.051V107.06ZM102.365 105.772H103.471V117.476H102.365V105.772Z" fill="#6F6F6F"/>
<path d="M92.81 157.884H93.832V158.584C93.832 161.006 91.368 162.742 88.736 163.19L88.274 162.252C90.584 161.902 92.81 160.39 92.81 158.584V157.884ZM93.02 157.884H94.028V158.584C94.028 160.348 96.282 161.902 98.564 162.252L98.102 163.19C95.498 162.742 93.02 160.978 93.02 158.584V157.884ZM92.81 165.276H93.958V170.092H92.81V165.276ZM87.7 164.562H99.138V165.528H87.7V164.562ZM103.645 158.094H104.611V159.382C104.611 161.818 103.239 163.834 101.125 164.66L100.509 163.722C102.413 163.022 103.645 161.314 103.645 159.382V158.094ZM103.855 158.094H104.807V159.466C104.807 161.174 106.067 162.756 107.887 163.386L107.271 164.296C105.241 163.54 103.855 161.664 103.855 159.466V158.094ZM109.231 157.436H110.393V165.108H109.231V157.436ZM110.071 160.698H112.269V161.678H110.071V160.698ZM106.361 165.458C108.951 165.458 110.519 166.312 110.519 167.768C110.519 169.224 108.951 170.064 106.361 170.064C103.771 170.064 102.203 169.224 102.203 167.768C102.203 166.312 103.771 165.458 106.361 165.458ZM106.361 166.382C104.485 166.382 103.337 166.886 103.337 167.768C103.337 168.65 104.485 169.154 106.361 169.154C108.237 169.154 109.385 168.65 109.385 167.768C109.385 166.886 108.237 166.382 106.361 166.382ZM121.214 158.992V169H119.949V160.571L117.399 161.501V160.359L121.016 158.992H121.214ZM128.403 165.024H129.579V167.11H128.403V165.024ZM133.947 157.436H135.109V170.092H133.947V157.436ZM125.029 167.684L124.875 166.718C127.269 166.704 130.419 166.676 133.149 166.326L133.233 167.18C130.419 167.656 127.367 167.684 125.029 167.684ZM125.141 158.976H132.827V159.914H125.141V158.976ZM128.977 160.642C130.797 160.642 132.029 161.566 132.029 162.98C132.029 164.408 130.797 165.318 128.977 165.318C127.171 165.318 125.939 164.408 125.939 162.98C125.939 161.566 127.171 160.642 128.977 160.642ZM128.977 161.538C127.843 161.538 127.045 162.112 127.045 162.98C127.045 163.848 127.843 164.422 128.977 164.422C130.125 164.422 130.923 163.848 130.923 162.98C130.923 162.112 130.125 161.538 128.977 161.538ZM128.403 157.436H129.565V159.494H128.403V157.436Z" fill="#6F6F6F"/>
<path d="M94.0752 215.23V216.748C94.0752 217.564 94.0023 218.252 93.8564 218.812C93.7106 219.373 93.501 219.824 93.2275 220.166C92.9541 220.508 92.6237 220.756 92.2363 220.911C91.8535 221.062 91.4206 221.137 90.9375 221.137C90.5547 221.137 90.2015 221.089 89.8779 220.993C89.5544 220.897 89.2627 220.745 89.0029 220.535C88.7477 220.321 88.529 220.043 88.3467 219.701C88.1644 219.359 88.0254 218.945 87.9297 218.457C87.834 217.969 87.7861 217.4 87.7861 216.748V215.23C87.7861 214.415 87.859 213.731 88.0049 213.18C88.1553 212.628 88.3672 212.186 88.6406 211.854C88.9141 211.516 89.2422 211.275 89.625 211.129C90.0124 210.983 90.4453 210.91 90.9238 210.91C91.3112 210.91 91.6667 210.958 91.9902 211.054C92.3184 211.145 92.61 211.293 92.8652 211.498C93.1204 211.699 93.3369 211.967 93.5146 212.305C93.6969 212.637 93.8359 213.045 93.9316 213.528C94.0273 214.011 94.0752 214.579 94.0752 215.23ZM92.8037 216.953V215.019C92.8037 214.572 92.7764 214.18 92.7217 213.843C92.6715 213.501 92.5964 213.209 92.4961 212.968C92.3958 212.726 92.2682 212.53 92.1133 212.38C91.9629 212.229 91.7874 212.12 91.5869 212.052C91.391 211.979 91.1699 211.942 90.9238 211.942C90.623 211.942 90.3564 211.999 90.124 212.113C89.8916 212.223 89.6956 212.398 89.5361 212.64C89.3812 212.881 89.2627 213.198 89.1807 213.59C89.0986 213.982 89.0576 214.458 89.0576 215.019V216.953C89.0576 217.4 89.0827 217.794 89.1328 218.136C89.1875 218.478 89.2673 218.774 89.3721 219.024C89.4769 219.271 89.6045 219.473 89.7549 219.633C89.9053 219.792 90.0785 219.911 90.2744 219.988C90.4749 220.061 90.696 220.098 90.9375 220.098C91.2474 220.098 91.5186 220.038 91.751 219.92C91.9834 219.801 92.1771 219.617 92.332 219.366C92.4915 219.111 92.61 218.785 92.6875 218.389C92.765 217.988 92.8037 217.509 92.8037 216.953ZM99.173 217.024H100.349V219.11H99.173V217.024ZM104.717 209.436H105.879V222.092H104.717V209.436ZM95.799 219.684L95.645 218.718C98.039 218.704 101.189 218.676 103.919 218.326L104.003 219.18C101.189 219.656 98.137 219.684 95.799 219.684ZM95.911 210.976H103.597V211.914H95.911V210.976ZM99.747 212.642C101.567 212.642 102.799 213.566 102.799 214.98C102.799 216.408 101.567 217.318 99.747 217.318C97.941 217.318 96.709 216.408 96.709 214.98C96.709 213.566 97.941 212.642 99.747 212.642ZM99.747 213.538C98.613 213.538 97.815 214.112 97.815 214.98C97.815 215.848 98.613 216.422 99.747 216.422C100.895 216.422 101.693 215.848 101.693 214.98C101.693 214.112 100.895 213.538 99.747 213.538ZM99.173 209.436H100.335V211.494H99.173V209.436Z" fill="#6F6F6F"/>
</svg>
