<svg width="141" height="359" viewBox="0 0 141 359" fill="none" xmlns="http://www.w3.org/2000/svg">
<g filter="url(#filter0_d_444_17275)">
<rect x="10" y="6" width="121" height="339" rx="5" fill="white" shape-rendering="crispEdges"/>
<path d="M50.9034 29V28.233L53.7841 25.0795C54.1222 24.7102 54.4006 24.3892 54.6193 24.1165C54.8381 23.8409 55 23.5824 55.1051 23.3409C55.2131 23.0966 55.267 22.8409 55.267 22.5739C55.267 22.267 55.1932 22.0014 55.0455 21.777C54.9006 21.5526 54.7017 21.3793 54.4489 21.2571C54.196 21.1349 53.9119 21.0739 53.5966 21.0739C53.2614 21.0739 52.9688 21.1435 52.7188 21.2827C52.4716 21.419 52.2798 21.6108 52.1435 21.858C52.0099 22.1051 51.9432 22.3949 51.9432 22.7273H50.9375C50.9375 22.2159 51.0554 21.767 51.2912 21.3807C51.527 20.9943 51.848 20.6932 52.2543 20.4773C52.6634 20.2614 53.1222 20.1534 53.6307 20.1534C54.142 20.1534 54.5952 20.2614 54.9901 20.4773C55.3849 20.6932 55.6946 20.9844 55.919 21.3509C56.1435 21.7173 56.2557 22.125 56.2557 22.5739C56.2557 22.8949 56.1974 23.2088 56.081 23.5156C55.9673 23.8196 55.7685 24.1591 55.4844 24.5341C55.2031 24.9062 54.8125 25.3608 54.3125 25.8977L52.3523 27.9943V28.0625H56.4091V29H50.9034ZM61.0156 29.1193C60.3736 29.1193 59.8267 28.9446 59.375 28.5952C58.9233 28.2429 58.5781 27.733 58.3395 27.0653C58.1009 26.3949 57.9815 25.5852 57.9815 24.6364C57.9815 23.6932 58.1009 22.8878 58.3395 22.2202C58.581 21.5497 58.9276 21.0384 59.3793 20.6861C59.8338 20.331 60.3793 20.1534 61.0156 20.1534C61.652 20.1534 62.196 20.331 62.6477 20.6861C63.1023 21.0384 63.4489 21.5497 63.6875 22.2202C63.929 22.8878 64.0497 23.6932 64.0497 24.6364C64.0497 25.5852 63.9304 26.3949 63.6918 27.0653C63.4531 27.733 63.108 28.2429 62.6562 28.5952C62.2045 28.9446 61.6577 29.1193 61.0156 29.1193ZM61.0156 28.1818C61.652 28.1818 62.1463 27.875 62.4986 27.2614C62.8509 26.6477 63.027 25.7727 63.027 24.6364C63.027 23.8807 62.946 23.2372 62.7841 22.706C62.625 22.1747 62.3949 21.7699 62.0938 21.4915C61.7955 21.2131 61.4361 21.0739 61.0156 21.0739C60.3849 21.0739 59.892 21.3849 59.5369 22.0071C59.1818 22.6264 59.0043 23.5028 59.0043 24.6364C59.0043 25.392 59.0838 26.0341 59.2429 26.5625C59.402 27.0909 59.6307 27.4929 59.929 27.7685C60.2301 28.044 60.5923 28.1818 61.0156 28.1818ZM65.669 29V28.233L68.5497 25.0795C68.8878 24.7102 69.1662 24.3892 69.3849 24.1165C69.6037 23.8409 69.7656 23.5824 69.8707 23.3409C69.9787 23.0966 70.0327 22.8409 70.0327 22.5739C70.0327 22.267 69.9588 22.0014 69.8111 21.777C69.6662 21.5526 69.4673 21.3793 69.2145 21.2571C68.9616 21.1349 68.6776 21.0739 68.3622 21.0739C68.027 21.0739 67.7344 21.1435 67.4844 21.2827C67.2372 21.419 67.0455 21.6108 66.9091 21.858C66.7756 22.1051 66.7088 22.3949 66.7088 22.7273H65.7031C65.7031 22.2159 65.821 21.767 66.0568 21.3807C66.2926 20.9943 66.6136 20.6932 67.0199 20.4773C67.429 20.2614 67.8878 20.1534 68.3963 20.1534C68.9077 20.1534 69.3608 20.2614 69.7557 20.4773C70.1506 20.6932 70.4602 20.9844 70.6847 21.3509C70.9091 21.7173 71.0213 22.125 71.0213 22.5739C71.0213 22.8949 70.9631 23.2088 70.8466 23.5156C70.733 23.8196 70.5341 24.1591 70.25 24.5341C69.9688 24.9062 69.5781 25.3608 69.0781 25.8977L67.1179 27.9943V28.0625H71.1747V29H65.669ZM72.5426 27.2102V26.3409L76.3778 20.2727H77.0085V21.6193H76.5824L73.6847 26.2045V26.2727H78.8494V27.2102H72.5426ZM76.6506 29V26.946V26.5412V20.2727H77.6562V29H76.6506ZM88.063 19.088H89.059V27.128H88.063V19.088ZM85.003 20.504H88.435V21.308H85.003V20.504ZM82.123 28.88H89.347V29.696H82.123V28.88ZM82.123 26.432H83.119V29.252H82.123V26.432ZM80.767 19.88H81.763V24.992H80.767V19.88ZM80.767 24.68H81.583C83.131 24.68 84.583 24.596 86.275 24.296L86.371 25.124C84.631 25.436 83.179 25.508 81.583 25.508H80.767V24.68ZM85.003 22.568H88.435V23.384H85.003V22.568Z" fill="black"/>
<rect width="121" height="1" transform="matrix(1 0 0 -1 10 47)" fill="#DFDFDF"/>
<path d="M50.9034 72V71.233L53.7841 68.0795C54.1222 67.7102 54.4006 67.3892 54.6193 67.1165C54.8381 66.8409 55 66.5824 55.1051 66.3409C55.2131 66.0966 55.267 65.8409 55.267 65.5739C55.267 65.267 55.1932 65.0014 55.0455 64.777C54.9006 64.5526 54.7017 64.3793 54.4489 64.2571C54.196 64.1349 53.9119 64.0739 53.5966 64.0739C53.2614 64.0739 52.9688 64.1435 52.7188 64.2827C52.4716 64.419 52.2798 64.6108 52.1435 64.858C52.0099 65.1051 51.9432 65.3949 51.9432 65.7273H50.9375C50.9375 65.2159 51.0554 64.767 51.2912 64.3807C51.527 63.9943 51.848 63.6932 52.2543 63.4773C52.6634 63.2614 53.1222 63.1534 53.6307 63.1534C54.142 63.1534 54.5952 63.2614 54.9901 63.4773C55.3849 63.6932 55.6946 63.9844 55.919 64.3509C56.1435 64.7173 56.2557 65.125 56.2557 65.5739C56.2557 65.8949 56.1974 66.2088 56.081 66.5156C55.9673 66.8196 55.7685 67.1591 55.4844 67.5341C55.2031 67.9062 54.8125 68.3608 54.3125 68.8977L52.3523 70.9943V71.0625H56.4091V72H50.9034ZM61.0156 72.1193C60.3736 72.1193 59.8267 71.9446 59.375 71.5952C58.9233 71.2429 58.5781 70.733 58.3395 70.0653C58.1009 69.3949 57.9815 68.5852 57.9815 67.6364C57.9815 66.6932 58.1009 65.8878 58.3395 65.2202C58.581 64.5497 58.9276 64.0384 59.3793 63.6861C59.8338 63.331 60.3793 63.1534 61.0156 63.1534C61.652 63.1534 62.196 63.331 62.6477 63.6861C63.1023 64.0384 63.4489 64.5497 63.6875 65.2202C63.929 65.8878 64.0497 66.6932 64.0497 67.6364C64.0497 68.5852 63.9304 69.3949 63.6918 70.0653C63.4531 70.733 63.108 71.2429 62.6562 71.5952C62.2045 71.9446 61.6577 72.1193 61.0156 72.1193ZM61.0156 71.1818C61.652 71.1818 62.1463 70.875 62.4986 70.2614C62.8509 69.6477 63.027 68.7727 63.027 67.6364C63.027 66.8807 62.946 66.2372 62.7841 65.706C62.625 65.1747 62.3949 64.7699 62.0938 64.4915C61.7955 64.2131 61.4361 64.0739 61.0156 64.0739C60.3849 64.0739 59.892 64.3849 59.5369 65.0071C59.1818 65.6264 59.0043 66.5028 59.0043 67.6364C59.0043 68.392 59.0838 69.0341 59.2429 69.5625C59.402 70.0909 59.6307 70.4929 59.929 70.7685C60.2301 71.044 60.5923 71.1818 61.0156 71.1818ZM65.669 72V71.233L68.5497 68.0795C68.8878 67.7102 69.1662 67.3892 69.3849 67.1165C69.6037 66.8409 69.7656 66.5824 69.8707 66.3409C69.9787 66.0966 70.0327 65.8409 70.0327 65.5739C70.0327 65.267 69.9588 65.0014 69.8111 64.777C69.6662 64.5526 69.4673 64.3793 69.2145 64.2571C68.9616 64.1349 68.6776 64.0739 68.3622 64.0739C68.027 64.0739 67.7344 64.1435 67.4844 64.2827C67.2372 64.419 67.0455 64.6108 66.9091 64.858C66.7756 65.1051 66.7088 65.3949 66.7088 65.7273H65.7031C65.7031 65.2159 65.821 64.767 66.0568 64.3807C66.2926 63.9943 66.6136 63.6932 67.0199 63.4773C67.429 63.2614 67.8878 63.1534 68.3963 63.1534C68.9077 63.1534 69.3608 63.2614 69.7557 63.4773C70.1506 63.6932 70.4602 63.9844 70.6847 64.3509C70.9091 64.7173 71.0213 65.125 71.0213 65.5739C71.0213 65.8949 70.9631 66.2088 70.8466 66.5156C70.733 66.8196 70.5341 67.1591 70.25 67.5341C69.9688 67.9062 69.5781 68.3608 69.0781 68.8977L67.1179 70.9943V71.0625H71.1747V72H65.669ZM75.8835 72.1193C75.321 72.1193 74.8196 72.0227 74.3793 71.8295C73.9418 71.6364 73.5938 71.3679 73.3352 71.0241C73.0795 70.6776 72.9403 70.2756 72.9176 69.8182H73.9915C74.0142 70.0994 74.1108 70.3423 74.2812 70.5469C74.4517 70.7486 74.6747 70.9048 74.9503 71.0156C75.2259 71.1264 75.5313 71.1818 75.8665 71.1818C76.2415 71.1818 76.5739 71.1165 76.8636 70.9858C77.1534 70.8551 77.3807 70.6733 77.5455 70.4403C77.7102 70.2074 77.7926 69.9375 77.7926 69.6307C77.7926 69.3097 77.7131 69.027 77.554 68.7827C77.3949 68.5355 77.1619 68.3423 76.8551 68.2031C76.5483 68.0639 76.1733 67.9943 75.7301 67.9943H75.0312V67.0568H75.7301C76.0767 67.0568 76.3807 66.9943 76.642 66.8693C76.9063 66.7443 77.1122 66.5682 77.2599 66.3409C77.4105 66.1136 77.4858 65.8466 77.4858 65.5398C77.4858 65.2443 77.4205 64.9872 77.2898 64.7685C77.1591 64.5497 76.9744 64.3793 76.7358 64.2571C76.5 64.1349 76.2216 64.0739 75.9006 64.0739C75.5994 64.0739 75.3153 64.1293 75.0483 64.2401C74.7841 64.348 74.5682 64.5057 74.4006 64.7131C74.233 64.9176 74.142 65.1648 74.1278 65.4545H73.1051C73.1222 64.9972 73.2599 64.5966 73.5185 64.2528C73.777 63.9062 74.1151 63.6364 74.5327 63.4432C74.9531 63.25 75.4148 63.1534 75.9176 63.1534C76.4574 63.1534 76.9205 63.2628 77.3068 63.4815C77.6932 63.6974 77.9901 63.983 78.1974 64.3381C78.4048 64.6932 78.5085 65.0767 78.5085 65.4886C78.5085 65.9801 78.3793 66.3991 78.1207 66.7457C77.8651 67.0923 77.517 67.3324 77.0767 67.4659V67.5341C77.6278 67.625 78.0582 67.8594 78.3679 68.2372C78.6776 68.6122 78.8324 69.0767 78.8324 69.6307C78.8324 70.1051 78.7031 70.5312 78.4446 70.9091C78.1889 71.2841 77.8395 71.5795 77.3963 71.7955C76.9531 72.0114 76.4489 72.1193 75.8835 72.1193ZM88.1919 62.088H89.1879V70.128H88.1919V62.088ZM85.1319 63.504H88.5639V64.308H85.1319V63.504ZM82.2519 71.88H89.4759V72.696H82.2519V71.88ZM82.2519 69.432H83.2479V72.252H82.2519V69.432ZM80.8959 62.88H81.8919V67.992H80.8959V62.88ZM80.8959 67.68H81.7119C83.2599 67.68 84.7119 67.596 86.4039 67.296L86.4999 68.124C84.7599 68.436 83.3079 68.508 81.7119 68.508H80.8959V67.68ZM85.1319 65.568H88.5639V66.384H85.1319V65.568Z" fill="black"/>
<rect width="121" height="1" transform="matrix(1 0 0 -1 10 90)" fill="#DFDFDF"/>
<path d="M50.9034 115V114.233L53.7841 111.08C54.1222 110.71 54.4006 110.389 54.6193 110.116C54.8381 109.841 55 109.582 55.1051 109.341C55.2131 109.097 55.267 108.841 55.267 108.574C55.267 108.267 55.1932 108.001 55.0455 107.777C54.9006 107.553 54.7017 107.379 54.4489 107.257C54.196 107.135 53.9119 107.074 53.5966 107.074C53.2614 107.074 52.9688 107.143 52.7188 107.283C52.4716 107.419 52.2798 107.611 52.1435 107.858C52.0099 108.105 51.9432 108.395 51.9432 108.727H50.9375C50.9375 108.216 51.0554 107.767 51.2912 107.381C51.527 106.994 51.848 106.693 52.2543 106.477C52.6634 106.261 53.1222 106.153 53.6307 106.153C54.142 106.153 54.5952 106.261 54.9901 106.477C55.3849 106.693 55.6946 106.984 55.919 107.351C56.1435 107.717 56.2557 108.125 56.2557 108.574C56.2557 108.895 56.1974 109.209 56.081 109.516C55.9673 109.82 55.7685 110.159 55.4844 110.534C55.2031 110.906 54.8125 111.361 54.3125 111.898L52.3523 113.994V114.062H56.4091V115H50.9034ZM61.0156 115.119C60.3736 115.119 59.8267 114.945 59.375 114.595C58.9233 114.243 58.5781 113.733 58.3395 113.065C58.1009 112.395 57.9815 111.585 57.9815 110.636C57.9815 109.693 58.1009 108.888 58.3395 108.22C58.581 107.55 58.9276 107.038 59.3793 106.686C59.8338 106.331 60.3793 106.153 61.0156 106.153C61.652 106.153 62.196 106.331 62.6477 106.686C63.1023 107.038 63.4489 107.55 63.6875 108.22C63.929 108.888 64.0497 109.693 64.0497 110.636C64.0497 111.585 63.9304 112.395 63.6918 113.065C63.4531 113.733 63.108 114.243 62.6562 114.595C62.2045 114.945 61.6577 115.119 61.0156 115.119ZM61.0156 114.182C61.652 114.182 62.1463 113.875 62.4986 113.261C62.8509 112.648 63.027 111.773 63.027 110.636C63.027 109.881 62.946 109.237 62.7841 108.706C62.625 108.175 62.3949 107.77 62.0938 107.491C61.7955 107.213 61.4361 107.074 61.0156 107.074C60.3849 107.074 59.892 107.385 59.5369 108.007C59.1818 108.626 59.0043 109.503 59.0043 110.636C59.0043 111.392 59.0838 112.034 59.2429 112.562C59.402 113.091 59.6307 113.493 59.929 113.768C60.2301 114.044 60.5923 114.182 61.0156 114.182ZM65.669 115V114.233L68.5497 111.08C68.8878 110.71 69.1662 110.389 69.3849 110.116C69.6037 109.841 69.7656 109.582 69.8707 109.341C69.9787 109.097 70.0327 108.841 70.0327 108.574C70.0327 108.267 69.9588 108.001 69.8111 107.777C69.6662 107.553 69.4673 107.379 69.2145 107.257C68.9616 107.135 68.6776 107.074 68.3622 107.074C68.027 107.074 67.7344 107.143 67.4844 107.283C67.2372 107.419 67.0455 107.611 66.9091 107.858C66.7756 108.105 66.7088 108.395 66.7088 108.727H65.7031C65.7031 108.216 65.821 107.767 66.0568 107.381C66.2926 106.994 66.6136 106.693 67.0199 106.477C67.429 106.261 67.8878 106.153 68.3963 106.153C68.9077 106.153 69.3608 106.261 69.7557 106.477C70.1506 106.693 70.4602 106.984 70.6847 107.351C70.9091 107.717 71.0213 108.125 71.0213 108.574C71.0213 108.895 70.9631 109.209 70.8466 109.516C70.733 109.82 70.5341 110.159 70.25 110.534C69.9688 110.906 69.5781 111.361 69.0781 111.898L67.1179 113.994V114.062H71.1747V115H65.669ZM72.9347 115V114.233L75.8153 111.08C76.1534 110.71 76.4318 110.389 76.6506 110.116C76.8693 109.841 77.0313 109.582 77.1364 109.341C77.2443 109.097 77.2983 108.841 77.2983 108.574C77.2983 108.267 77.2244 108.001 77.0767 107.777C76.9318 107.553 76.733 107.379 76.4801 107.257C76.2273 107.135 75.9432 107.074 75.6278 107.074C75.2926 107.074 75 107.143 74.75 107.283C74.5028 107.419 74.3111 107.611 74.1747 107.858C74.0412 108.105 73.9744 108.395 73.9744 108.727H72.9688C72.9688 108.216 73.0866 107.767 73.3224 107.381C73.5582 106.994 73.8793 106.693 74.2855 106.477C74.6946 106.261 75.1534 106.153 75.6619 106.153C76.1733 106.153 76.6264 106.261 77.0213 106.477C77.4162 106.693 77.7259 106.984 77.9503 107.351C78.1747 107.717 78.2869 108.125 78.2869 108.574C78.2869 108.895 78.2287 109.209 78.1122 109.516C77.9986 109.82 77.7997 110.159 77.5156 110.534C77.2344 110.906 76.8438 111.361 76.3438 111.898L74.3835 113.994V114.062H78.4403V115H72.9347ZM87.8169 105.088H88.8129V113.128H87.8169V105.088ZM84.7569 106.504H88.1889V107.308H84.7569V106.504ZM81.8769 114.88H89.1009V115.696H81.8769V114.88ZM81.8769 112.432H82.8729V115.252H81.8769V112.432ZM80.5209 105.88H81.5169V110.992H80.5209V105.88ZM80.5209 110.68H81.3369C82.8849 110.68 84.3369 110.596 86.0289 110.296L86.1249 111.124C84.3849 111.436 82.9329 111.508 81.3369 111.508H80.5209V110.68ZM84.7569 108.568H88.1889V109.384H84.7569V108.568Z" fill="black"/>
<rect width="121" height="1" transform="matrix(1 0 0 -1 10 133)" fill="#DFDFDF"/>
<path d="M51.9034 158V157.233L54.7841 154.08C55.1222 153.71 55.4006 153.389 55.6193 153.116C55.8381 152.841 56 152.582 56.1051 152.341C56.2131 152.097 56.267 151.841 56.267 151.574C56.267 151.267 56.1932 151.001 56.0455 150.777C55.9006 150.553 55.7017 150.379 55.4489 150.257C55.196 150.135 54.9119 150.074 54.5966 150.074C54.2614 150.074 53.9688 150.143 53.7188 150.283C53.4716 150.419 53.2798 150.611 53.1435 150.858C53.0099 151.105 52.9432 151.395 52.9432 151.727H51.9375C51.9375 151.216 52.0554 150.767 52.2912 150.381C52.527 149.994 52.848 149.693 53.2543 149.477C53.6634 149.261 54.1222 149.153 54.6307 149.153C55.142 149.153 55.5952 149.261 55.9901 149.477C56.3849 149.693 56.6946 149.984 56.919 150.351C57.1435 150.717 57.2557 151.125 57.2557 151.574C57.2557 151.895 57.1974 152.209 57.081 152.516C56.9673 152.82 56.7685 153.159 56.4844 153.534C56.2031 153.906 55.8125 154.361 55.3125 154.898L53.3523 156.994V157.062H57.4091V158H51.9034ZM62.0156 158.119C61.3736 158.119 60.8267 157.945 60.375 157.595C59.9233 157.243 59.5781 156.733 59.3395 156.065C59.1009 155.395 58.9815 154.585 58.9815 153.636C58.9815 152.693 59.1009 151.888 59.3395 151.22C59.581 150.55 59.9276 150.038 60.3793 149.686C60.8338 149.331 61.3793 149.153 62.0156 149.153C62.652 149.153 63.196 149.331 63.6477 149.686C64.1023 150.038 64.4489 150.55 64.6875 151.22C64.929 151.888 65.0497 152.693 65.0497 153.636C65.0497 154.585 64.9304 155.395 64.6918 156.065C64.4531 156.733 64.108 157.243 63.6562 157.595C63.2045 157.945 62.6577 158.119 62.0156 158.119ZM62.0156 157.182C62.652 157.182 63.1463 156.875 63.4986 156.261C63.8509 155.648 64.027 154.773 64.027 153.636C64.027 152.881 63.946 152.237 63.7841 151.706C63.625 151.175 63.3949 150.77 63.0938 150.491C62.7955 150.213 62.4361 150.074 62.0156 150.074C61.3849 150.074 60.892 150.385 60.5369 151.007C60.1818 151.626 60.0043 152.503 60.0043 153.636C60.0043 154.392 60.0838 155.034 60.2429 155.562C60.402 156.091 60.6307 156.493 60.929 156.768C61.2301 157.044 61.5923 157.182 62.0156 157.182ZM66.669 158V157.233L69.5497 154.08C69.8878 153.71 70.1662 153.389 70.3849 153.116C70.6037 152.841 70.7656 152.582 70.8707 152.341C70.9787 152.097 71.0327 151.841 71.0327 151.574C71.0327 151.267 70.9588 151.001 70.8111 150.777C70.6662 150.553 70.4673 150.379 70.2145 150.257C69.9616 150.135 69.6776 150.074 69.3622 150.074C69.027 150.074 68.7344 150.143 68.4844 150.283C68.2372 150.419 68.0455 150.611 67.9091 150.858C67.7756 151.105 67.7088 151.395 67.7088 151.727H66.7031C66.7031 151.216 66.821 150.767 67.0568 150.381C67.2926 149.994 67.6136 149.693 68.0199 149.477C68.429 149.261 68.8878 149.153 69.3963 149.153C69.9077 149.153 70.3608 149.261 70.7557 149.477C71.1506 149.693 71.4602 149.984 71.6847 150.351C71.9091 150.717 72.0213 151.125 72.0213 151.574C72.0213 151.895 71.9631 152.209 71.8466 152.516C71.733 152.82 71.5341 153.159 71.25 153.534C70.9688 153.906 70.5781 154.361 70.0781 154.898L68.1179 156.994V157.062H72.1747V158H66.669ZM77.0028 149.273V158H75.946V150.381H75.8949L73.7642 151.795V150.722L75.946 149.273H77.0028ZM87.1294 148.088H88.1254V156.128H87.1294V148.088ZM84.0694 149.504H87.5014V150.308H84.0694V149.504ZM81.1894 157.88H88.4134V158.696H81.1894V157.88ZM81.1894 155.432H82.1854V158.252H81.1894V155.432ZM79.8334 148.88H80.8294V153.992H79.8334V148.88ZM79.8334 153.68H80.6494C82.1974 153.68 83.6494 153.596 85.3414 153.296L85.4374 154.124C83.6974 154.436 82.2454 154.508 80.6494 154.508H79.8334V153.68ZM84.0694 151.568H87.5014V152.384H84.0694V151.568Z" fill="black"/>
<rect width="121" height="1" transform="matrix(1 0 0 -1 10 176)" fill="#DFDFDF"/>
<path d="M50.9034 201V200.233L53.7841 197.08C54.1222 196.71 54.4006 196.389 54.6193 196.116C54.8381 195.841 55 195.582 55.1051 195.341C55.2131 195.097 55.267 194.841 55.267 194.574C55.267 194.267 55.1932 194.001 55.0455 193.777C54.9006 193.553 54.7017 193.379 54.4489 193.257C54.196 193.135 53.9119 193.074 53.5966 193.074C53.2614 193.074 52.9688 193.143 52.7188 193.283C52.4716 193.419 52.2798 193.611 52.1435 193.858C52.0099 194.105 51.9432 194.395 51.9432 194.727H50.9375C50.9375 194.216 51.0554 193.767 51.2912 193.381C51.527 192.994 51.848 192.693 52.2543 192.477C52.6634 192.261 53.1222 192.153 53.6307 192.153C54.142 192.153 54.5952 192.261 54.9901 192.477C55.3849 192.693 55.6946 192.984 55.919 193.351C56.1435 193.717 56.2557 194.125 56.2557 194.574C56.2557 194.895 56.1974 195.209 56.081 195.516C55.9673 195.82 55.7685 196.159 55.4844 196.534C55.2031 196.906 54.8125 197.361 54.3125 197.898L52.3523 199.994V200.062H56.4091V201H50.9034ZM61.0156 201.119C60.3736 201.119 59.8267 200.945 59.375 200.595C58.9233 200.243 58.5781 199.733 58.3395 199.065C58.1009 198.395 57.9815 197.585 57.9815 196.636C57.9815 195.693 58.1009 194.888 58.3395 194.22C58.581 193.55 58.9276 193.038 59.3793 192.686C59.8338 192.331 60.3793 192.153 61.0156 192.153C61.652 192.153 62.196 192.331 62.6477 192.686C63.1023 193.038 63.4489 193.55 63.6875 194.22C63.929 194.888 64.0497 195.693 64.0497 196.636C64.0497 197.585 63.9304 198.395 63.6918 199.065C63.4531 199.733 63.108 200.243 62.6562 200.595C62.2045 200.945 61.6577 201.119 61.0156 201.119ZM61.0156 200.182C61.652 200.182 62.1463 199.875 62.4986 199.261C62.8509 198.648 63.027 197.773 63.027 196.636C63.027 195.881 62.946 195.237 62.7841 194.706C62.625 194.175 62.3949 193.77 62.0938 193.491C61.7955 193.213 61.4361 193.074 61.0156 193.074C60.3849 193.074 59.892 193.385 59.5369 194.007C59.1818 194.626 59.0043 195.503 59.0043 196.636C59.0043 197.392 59.0838 198.034 59.2429 198.562C59.402 199.091 59.6307 199.493 59.929 199.768C60.2301 200.044 60.5923 200.182 61.0156 200.182ZM65.669 201V200.233L68.5497 197.08C68.8878 196.71 69.1662 196.389 69.3849 196.116C69.6037 195.841 69.7656 195.582 69.8707 195.341C69.9787 195.097 70.0327 194.841 70.0327 194.574C70.0327 194.267 69.9588 194.001 69.8111 193.777C69.6662 193.553 69.4673 193.379 69.2145 193.257C68.9616 193.135 68.6776 193.074 68.3622 193.074C68.027 193.074 67.7344 193.143 67.4844 193.283C67.2372 193.419 67.0455 193.611 66.9091 193.858C66.7756 194.105 66.7088 194.395 66.7088 194.727H65.7031C65.7031 194.216 65.821 193.767 66.0568 193.381C66.2926 192.994 66.6136 192.693 67.0199 192.477C67.429 192.261 67.8878 192.153 68.3963 192.153C68.9077 192.153 69.3608 192.261 69.7557 192.477C70.1506 192.693 70.4602 192.984 70.6847 193.351C70.9091 193.717 71.0213 194.125 71.0213 194.574C71.0213 194.895 70.9631 195.209 70.8466 195.516C70.733 195.82 70.5341 196.159 70.25 196.534C69.9688 196.906 69.5781 197.361 69.0781 197.898L67.1179 199.994V200.062H71.1747V201H65.669ZM75.7812 201.119C75.1392 201.119 74.5923 200.945 74.1406 200.595C73.6889 200.243 73.3438 199.733 73.1051 199.065C72.8665 198.395 72.7472 197.585 72.7472 196.636C72.7472 195.693 72.8665 194.888 73.1051 194.22C73.3466 193.55 73.6932 193.038 74.1449 192.686C74.5994 192.331 75.1449 192.153 75.7812 192.153C76.4176 192.153 76.9616 192.331 77.4134 192.686C77.8679 193.038 78.2145 193.55 78.4531 194.22C78.6946 194.888 78.8153 195.693 78.8153 196.636C78.8153 197.585 78.696 198.395 78.4574 199.065C78.2188 199.733 77.8736 200.243 77.4219 200.595C76.9702 200.945 76.4233 201.119 75.7812 201.119ZM75.7812 200.182C76.4176 200.182 76.9119 199.875 77.2642 199.261C77.6165 198.648 77.7926 197.773 77.7926 196.636C77.7926 195.881 77.7116 195.237 77.5497 194.706C77.3906 194.175 77.1605 193.77 76.8594 193.491C76.5611 193.213 76.2017 193.074 75.7812 193.074C75.1506 193.074 74.6577 193.385 74.3026 194.007C73.9474 194.626 73.7699 195.503 73.7699 196.636C73.7699 197.392 73.8494 198.034 74.0085 198.562C74.1676 199.091 74.3963 199.493 74.6946 199.768C74.9957 200.044 75.358 200.182 75.7812 200.182ZM88.0513 191.088H89.0473V199.128H88.0513V191.088ZM84.9913 192.504H88.4233V193.308H84.9913V192.504ZM82.1113 200.88H89.3353V201.696H82.1113V200.88ZM82.1113 198.432H83.1073V201.252H82.1113V198.432ZM80.7553 191.88H81.7513V196.992H80.7553V191.88ZM80.7553 196.68H81.5713C83.1193 196.68 84.5713 196.596 86.2633 196.296L86.3593 197.124C84.6193 197.436 83.1673 197.508 81.5713 197.508H80.7553V196.68ZM84.9913 194.568H88.4233V195.384H84.9913V194.568Z" fill="black"/>
<rect width="121" height="1" transform="matrix(1 0 0 -1 10 219)" fill="#DFDFDF"/>
<path d="M51.9034 244V243.233L54.7841 240.08C55.1222 239.71 55.4006 239.389 55.6193 239.116C55.8381 238.841 56 238.582 56.1051 238.341C56.2131 238.097 56.267 237.841 56.267 237.574C56.267 237.267 56.1932 237.001 56.0455 236.777C55.9006 236.553 55.7017 236.379 55.4489 236.257C55.196 236.135 54.9119 236.074 54.5966 236.074C54.2614 236.074 53.9688 236.143 53.7188 236.283C53.4716 236.419 53.2798 236.611 53.1435 236.858C53.0099 237.105 52.9432 237.395 52.9432 237.727H51.9375C51.9375 237.216 52.0554 236.767 52.2912 236.381C52.527 235.994 52.848 235.693 53.2543 235.477C53.6634 235.261 54.1222 235.153 54.6307 235.153C55.142 235.153 55.5952 235.261 55.9901 235.477C56.3849 235.693 56.6946 235.984 56.919 236.351C57.1435 236.717 57.2557 237.125 57.2557 237.574C57.2557 237.895 57.1974 238.209 57.081 238.516C56.9673 238.82 56.7685 239.159 56.4844 239.534C56.2031 239.906 55.8125 240.361 55.3125 240.898L53.3523 242.994V243.062H57.4091V244H51.9034ZM62.0156 244.119C61.3736 244.119 60.8267 243.945 60.375 243.595C59.9233 243.243 59.5781 242.733 59.3395 242.065C59.1009 241.395 58.9815 240.585 58.9815 239.636C58.9815 238.693 59.1009 237.888 59.3395 237.22C59.581 236.55 59.9276 236.038 60.3793 235.686C60.8338 235.331 61.3793 235.153 62.0156 235.153C62.652 235.153 63.196 235.331 63.6477 235.686C64.1023 236.038 64.4489 236.55 64.6875 237.22C64.929 237.888 65.0497 238.693 65.0497 239.636C65.0497 240.585 64.9304 241.395 64.6918 242.065C64.4531 242.733 64.108 243.243 63.6562 243.595C63.2045 243.945 62.6577 244.119 62.0156 244.119ZM62.0156 243.182C62.652 243.182 63.1463 242.875 63.4986 242.261C63.8509 241.648 64.027 240.773 64.027 239.636C64.027 238.881 63.946 238.237 63.7841 237.706C63.625 237.175 63.3949 236.77 63.0938 236.491C62.7955 236.213 62.4361 236.074 62.0156 236.074C61.3849 236.074 60.892 236.385 60.5369 237.007C60.1818 237.626 60.0043 238.503 60.0043 239.636C60.0043 240.392 60.0838 241.034 60.2429 241.562C60.402 242.091 60.6307 242.493 60.929 242.768C61.2301 243.044 61.5923 243.182 62.0156 243.182ZM69.7372 235.273V244H68.6804V236.381H68.6293L66.4986 237.795V236.722L68.6804 235.273H69.7372ZM75.0256 235.153C75.3835 235.156 75.7415 235.224 76.0994 235.358C76.4574 235.491 76.7841 235.713 77.0795 236.023C77.375 236.33 77.6122 236.749 77.7912 237.28C77.9702 237.811 78.0597 238.477 78.0597 239.278C78.0597 240.054 77.9858 240.743 77.8381 241.345C77.6932 241.945 77.483 242.45 77.2074 242.862C76.9347 243.274 76.6023 243.587 76.2102 243.8C75.821 244.013 75.3807 244.119 74.8892 244.119C74.4006 244.119 73.9645 244.023 73.581 243.83C73.2003 243.634 72.8878 243.362 72.6435 243.016C72.402 242.666 72.2472 242.261 72.179 241.801H73.2188C73.3125 242.202 73.4986 242.533 73.777 242.794C74.0582 243.053 74.429 243.182 74.8892 243.182C75.5625 243.182 76.0938 242.888 76.483 242.3C76.875 241.712 77.071 240.881 77.071 239.807H77.0028C76.8438 240.045 76.6548 240.251 76.4361 240.425C76.2173 240.598 75.9744 240.732 75.7074 240.825C75.4403 240.919 75.1563 240.966 74.8551 240.966C74.3551 240.966 73.8963 240.842 73.4787 240.595C73.0639 240.345 72.7315 240.003 72.4815 239.568C72.2344 239.131 72.1108 238.631 72.1108 238.068C72.1108 237.534 72.2301 237.045 72.4688 236.602C72.7102 236.156 73.0483 235.801 73.483 235.537C73.9205 235.273 74.4347 235.145 75.0256 235.153ZM75.0256 236.091C74.6676 236.091 74.3452 236.18 74.0582 236.359C73.7741 236.536 73.5483 236.774 73.3807 237.075C73.2159 237.374 73.1335 237.705 73.1335 238.068C73.1335 238.432 73.2131 238.763 73.3722 239.061C73.5341 239.357 73.7543 239.592 74.0327 239.768C74.3139 239.942 74.6335 240.028 74.9915 240.028C75.2614 240.028 75.5128 239.976 75.7457 239.871C75.9787 239.763 76.1818 239.616 76.3551 239.432C76.5313 239.244 76.669 239.033 76.7685 238.797C76.8679 238.558 76.9176 238.31 76.9176 238.051C76.9176 237.71 76.8352 237.391 76.6705 237.092C76.5085 236.794 76.2841 236.553 75.9972 236.368C75.7131 236.183 75.3892 236.091 75.0256 236.091ZM87.352 234.088H88.348V242.128H87.352V234.088ZM84.292 235.504H87.724V236.308H84.292V235.504ZM81.412 243.88H88.636V244.696H81.412V243.88ZM81.412 241.432H82.408V244.252H81.412V241.432ZM80.056 234.88H81.052V239.992H80.056V234.88ZM80.056 239.68H80.872C82.42 239.68 83.872 239.596 85.564 239.296L85.66 240.124C83.92 240.436 82.468 240.508 80.872 240.508H80.056V239.68ZM84.292 237.568H87.724V238.384H84.292V237.568Z" fill="black"/>
<rect width="121" height="1" transform="matrix(1 0 0 -1 10 262)" fill="#DFDFDF"/>
<path d="M51.9034 287V286.233L54.7841 283.08C55.1222 282.71 55.4006 282.389 55.6193 282.116C55.8381 281.841 56 281.582 56.1051 281.341C56.2131 281.097 56.267 280.841 56.267 280.574C56.267 280.267 56.1932 280.001 56.0455 279.777C55.9006 279.553 55.7017 279.379 55.4489 279.257C55.196 279.135 54.9119 279.074 54.5966 279.074C54.2614 279.074 53.9688 279.143 53.7188 279.283C53.4716 279.419 53.2798 279.611 53.1435 279.858C53.0099 280.105 52.9432 280.395 52.9432 280.727H51.9375C51.9375 280.216 52.0554 279.767 52.2912 279.381C52.527 278.994 52.848 278.693 53.2543 278.477C53.6634 278.261 54.1222 278.153 54.6307 278.153C55.142 278.153 55.5952 278.261 55.9901 278.477C56.3849 278.693 56.6946 278.984 56.919 279.351C57.1435 279.717 57.2557 280.125 57.2557 280.574C57.2557 280.895 57.1974 281.209 57.081 281.516C56.9673 281.82 56.7685 282.159 56.4844 282.534C56.2031 282.906 55.8125 283.361 55.3125 283.898L53.3523 285.994V286.062H57.4091V287H51.9034ZM62.0156 287.119C61.3736 287.119 60.8267 286.945 60.375 286.595C59.9233 286.243 59.5781 285.733 59.3395 285.065C59.1009 284.395 58.9815 283.585 58.9815 282.636C58.9815 281.693 59.1009 280.888 59.3395 280.22C59.581 279.55 59.9276 279.038 60.3793 278.686C60.8338 278.331 61.3793 278.153 62.0156 278.153C62.652 278.153 63.196 278.331 63.6477 278.686C64.1023 279.038 64.4489 279.55 64.6875 280.22C64.929 280.888 65.0497 281.693 65.0497 282.636C65.0497 283.585 64.9304 284.395 64.6918 285.065C64.4531 285.733 64.108 286.243 63.6562 286.595C63.2045 286.945 62.6577 287.119 62.0156 287.119ZM62.0156 286.182C62.652 286.182 63.1463 285.875 63.4986 285.261C63.8509 284.648 64.027 283.773 64.027 282.636C64.027 281.881 63.946 281.237 63.7841 280.706C63.625 280.175 63.3949 279.77 63.0938 279.491C62.7955 279.213 62.4361 279.074 62.0156 279.074C61.3849 279.074 60.892 279.385 60.5369 280.007C60.1818 280.626 60.0043 281.503 60.0043 282.636C60.0043 283.392 60.0838 284.034 60.2429 284.562C60.402 285.091 60.6307 285.493 60.929 285.768C61.2301 286.044 61.5923 286.182 62.0156 286.182ZM69.7372 278.273V287H68.6804V279.381H68.6293L66.4986 280.795V279.722L68.6804 278.273H69.7372ZM75.0426 287.119C74.4574 287.119 73.9403 287.016 73.4915 286.808C73.0455 286.598 72.6974 286.31 72.4474 285.943C72.1974 285.574 72.0739 285.153 72.0767 284.682C72.0739 284.312 72.1463 283.972 72.294 283.659C72.4418 283.344 72.6435 283.081 72.8991 282.871C73.1577 282.658 73.446 282.523 73.7642 282.466V282.415C73.3466 282.307 73.0142 282.072 72.767 281.712C72.5199 281.348 72.3977 280.935 72.4006 280.472C72.3977 280.028 72.5099 279.632 72.7372 279.283C72.9645 278.933 73.277 278.658 73.6747 278.456C74.0753 278.254 74.5313 278.153 75.0426 278.153C75.5483 278.153 76 278.254 76.3977 278.456C76.7955 278.658 77.108 278.933 77.3352 279.283C77.5653 279.632 77.6818 280.028 77.6847 280.472C77.6818 280.935 77.5554 281.348 77.3054 281.712C77.0582 282.072 76.7301 282.307 76.321 282.415V282.466C76.6364 282.523 76.9205 282.658 77.1733 282.871C77.4261 283.081 77.6278 283.344 77.7784 283.659C77.929 283.972 78.0057 284.312 78.0085 284.682C78.0057 285.153 77.8778 285.574 77.625 285.943C77.375 286.31 77.027 286.598 76.581 286.808C76.1378 287.016 75.625 287.119 75.0426 287.119ZM75.0426 286.182C75.4375 286.182 75.7784 286.118 76.0653 285.99C76.3523 285.862 76.5739 285.682 76.7301 285.449C76.8864 285.216 76.9659 284.943 76.9688 284.631C76.9659 284.301 76.8807 284.01 76.7131 283.757C76.5455 283.504 76.3168 283.305 76.027 283.161C75.7401 283.016 75.4119 282.943 75.0426 282.943C74.6705 282.943 74.3381 283.016 74.0455 283.161C73.7557 283.305 73.527 283.504 73.3594 283.757C73.1946 284.01 73.1136 284.301 73.1165 284.631C73.1136 284.943 73.1889 285.216 73.3423 285.449C73.4986 285.682 73.7216 285.862 74.0114 285.99C74.3011 286.118 74.6449 286.182 75.0426 286.182ZM75.0426 282.04C75.3551 282.04 75.6321 281.977 75.8736 281.852C76.1179 281.727 76.3097 281.553 76.4489 281.328C76.5881 281.104 76.6591 280.841 76.6619 280.54C76.6591 280.244 76.5895 279.987 76.4531 279.768C76.3168 279.547 76.1278 279.376 75.8864 279.257C75.6449 279.135 75.3636 279.074 75.0426 279.074C74.7159 279.074 74.4304 279.135 74.1861 279.257C73.9418 279.376 73.7528 279.547 73.6193 279.768C73.4858 279.987 73.4205 280.244 73.4233 280.54C73.4205 280.841 73.4872 281.104 73.6236 281.328C73.7628 281.553 73.9545 281.727 74.1989 281.852C74.4432 281.977 74.7244 282.04 75.0426 282.04ZM87.2583 277.088H88.2543V285.128H87.2583V277.088ZM84.1983 278.504H87.6303V279.308H84.1983V278.504ZM81.3183 286.88H88.5423V287.696H81.3183V286.88ZM81.3183 284.432H82.3143V287.252H81.3183V284.432ZM79.9623 277.88H80.9583V282.992H79.9623V277.88ZM79.9623 282.68H80.7783C82.3263 282.68 83.7783 282.596 85.4703 282.296L85.5663 283.124C83.8263 283.436 82.3743 283.508 80.7783 283.508H79.9623V282.68ZM84.1983 280.568H87.6303V281.384H84.1983V280.568Z" fill="black"/>
<rect width="121" height="1" transform="matrix(1 0 0 -1 10 305)" fill="#DFDFDF"/>
<path d="M51.9034 330V329.233L54.7841 326.08C55.1222 325.71 55.4006 325.389 55.6193 325.116C55.8381 324.841 56 324.582 56.1051 324.341C56.2131 324.097 56.267 323.841 56.267 323.574C56.267 323.267 56.1932 323.001 56.0455 322.777C55.9006 322.553 55.7017 322.379 55.4489 322.257C55.196 322.135 54.9119 322.074 54.5966 322.074C54.2614 322.074 53.9688 322.143 53.7188 322.283C53.4716 322.419 53.2798 322.611 53.1435 322.858C53.0099 323.105 52.9432 323.395 52.9432 323.727H51.9375C51.9375 323.216 52.0554 322.767 52.2912 322.381C52.527 321.994 52.848 321.693 53.2543 321.477C53.6634 321.261 54.1222 321.153 54.6307 321.153C55.142 321.153 55.5952 321.261 55.9901 321.477C56.3849 321.693 56.6946 321.984 56.919 322.351C57.1435 322.717 57.2557 323.125 57.2557 323.574C57.2557 323.895 57.1974 324.209 57.081 324.516C56.9673 324.82 56.7685 325.159 56.4844 325.534C56.2031 325.906 55.8125 326.361 55.3125 326.898L53.3523 328.994V329.062H57.4091V330H51.9034ZM62.0156 330.119C61.3736 330.119 60.8267 329.945 60.375 329.595C59.9233 329.243 59.5781 328.733 59.3395 328.065C59.1009 327.395 58.9815 326.585 58.9815 325.636C58.9815 324.693 59.1009 323.888 59.3395 323.22C59.581 322.55 59.9276 322.038 60.3793 321.686C60.8338 321.331 61.3793 321.153 62.0156 321.153C62.652 321.153 63.196 321.331 63.6477 321.686C64.1023 322.038 64.4489 322.55 64.6875 323.22C64.929 323.888 65.0497 324.693 65.0497 325.636C65.0497 326.585 64.9304 327.395 64.6918 328.065C64.4531 328.733 64.108 329.243 63.6562 329.595C63.2045 329.945 62.6577 330.119 62.0156 330.119ZM62.0156 329.182C62.652 329.182 63.1463 328.875 63.4986 328.261C63.8509 327.648 64.027 326.773 64.027 325.636C64.027 324.881 63.946 324.237 63.7841 323.706C63.625 323.175 63.3949 322.77 63.0938 322.491C62.7955 322.213 62.4361 322.074 62.0156 322.074C61.3849 322.074 60.892 322.385 60.5369 323.007C60.1818 323.626 60.0043 324.503 60.0043 325.636C60.0043 326.392 60.0838 327.034 60.2429 327.562C60.402 328.091 60.6307 328.493 60.929 328.768C61.2301 329.044 61.5923 329.182 62.0156 329.182ZM69.7372 321.273V330H68.6804V322.381H68.6293L66.4986 323.795V322.722L68.6804 321.273H69.7372ZM72.5199 330L76.4233 322.278V322.21H71.9233V321.273H77.5142V322.261L73.6278 330H72.5199ZM86.7192 320.088H87.7152V328.128H86.7192V320.088ZM83.6592 321.504H87.0912V322.308H83.6592V321.504ZM80.7792 329.88H88.0032V330.696H80.7792V329.88ZM80.7792 327.432H81.7752V330.252H80.7792V327.432ZM79.4232 320.88H80.4192V325.992H79.4232V320.88ZM79.4232 325.68H80.2392C81.7872 325.68 83.2392 325.596 84.9312 325.296L85.0272 326.124C83.2872 326.436 81.8352 326.508 80.2392 326.508H79.4232V325.68ZM83.6592 323.568H87.0912V324.384H83.6592V323.568Z" fill="black"/>
</g>
<defs>
<filter id="filter0_d_444_17275" x="0" y="0" width="141" height="359" filterUnits="userSpaceOnUse" color-interpolation-filters="sRGB">
<feFlood flood-opacity="0" result="BackgroundImageFix"/>
<feColorMatrix in="SourceAlpha" type="matrix" values="0 0 0 0 0 0 0 0 0 0 0 0 0 0 0 0 0 0 127 0" result="hardAlpha"/>
<feOffset dy="4"/>
<feGaussianBlur stdDeviation="5"/>
<feComposite in2="hardAlpha" operator="out"/>
<feColorMatrix type="matrix" values="0 0 0 0 0 0 0 0 0 0 0 0 0 0 0 0 0 0 0.1 0"/>
<feBlend mode="normal" in2="BackgroundImageFix" result="effect1_dropShadow_444_17275"/>
<feBlend mode="normal" in="SourceGraphic" in2="effect1_dropShadow_444_17275" result="shape"/>
</filter>
</defs>
</svg>
