<svg width="117" height="531" viewBox="0 0 117 531" fill="none" xmlns="http://www.w3.org/2000/svg">
<g filter="url(#filter0_d_444_17227)">
<rect x="10" y="6" width="97" height="511" rx="5" fill="white" shape-rendering="crispEdges"/>
<path d="M53.9716 20.2727V29H52.9148V21.3807H52.8636L50.733 22.7955V21.7216L52.9148 20.2727H53.9716ZM59.0821 23.576H60.0781V25.508H59.0821V23.576ZM64.0621 19.088H65.0581V25.472H64.0621V19.088ZM56.2621 23.912L56.1421 23.168C58.2301 23.168 60.8821 23.156 63.1981 22.892L63.2581 23.54C60.8821 23.888 58.2901 23.912 56.2621 23.912ZM57.7861 25.868H65.0581V28.124H58.7821V29.348H57.8101V27.464H64.0741V26.588H57.7861V25.868ZM57.8101 29.096H65.4181V29.816H57.8101V29.096ZM61.9021 24.248H64.3741V24.896H61.9021V24.248ZM59.6461 19.292C61.2541 19.292 62.3101 19.916 62.3101 20.924C62.3101 21.932 61.2541 22.556 59.6461 22.556C58.0261 22.556 56.9701 21.932 56.9701 20.924C56.9701 19.916 58.0261 19.292 59.6461 19.292ZM59.6461 19.988C58.5781 19.988 57.8941 20.348 57.8941 20.924C57.8941 21.5 58.5781 21.86 59.6461 21.86C60.6901 21.86 61.3741 21.5 61.3741 20.924C61.3741 20.348 60.6901 19.988 59.6461 19.988Z" fill="black"/>
<rect width="97" height="1" transform="matrix(1 0 0 -1 10 47)" fill="#DFDFDF"/>
<path d="M49.9034 72V71.233L52.7841 68.0795C53.1222 67.7102 53.4006 67.3892 53.6193 67.1165C53.8381 66.8409 54 66.5824 54.1051 66.3409C54.2131 66.0966 54.267 65.8409 54.267 65.5739C54.267 65.267 54.1932 65.0014 54.0455 64.777C53.9006 64.5526 53.7017 64.3793 53.4489 64.2571C53.196 64.1349 52.9119 64.0739 52.5966 64.0739C52.2614 64.0739 51.9688 64.1435 51.7188 64.2827C51.4716 64.419 51.2798 64.6108 51.1435 64.858C51.0099 65.1051 50.9432 65.3949 50.9432 65.7273H49.9375C49.9375 65.2159 50.0554 64.767 50.2912 64.3807C50.527 63.9943 50.848 63.6932 51.2543 63.4773C51.6634 63.2614 52.1222 63.1534 52.6307 63.1534C53.142 63.1534 53.5952 63.2614 53.9901 63.4773C54.3849 63.6932 54.6946 63.9844 54.919 64.3509C55.1435 64.7173 55.2557 65.125 55.2557 65.5739C55.2557 65.8949 55.1974 66.2088 55.081 66.5156C54.9673 66.8196 54.7685 67.1591 54.4844 67.5341C54.2031 67.9062 53.8125 68.3608 53.3125 68.8977L51.3523 70.9943V71.0625H55.4091V72H49.9034ZM59.7696 66.576H60.7656V68.508H59.7696V66.576ZM64.7496 62.088H65.7456V68.472H64.7496V62.088ZM56.9496 66.912L56.8296 66.168C58.9176 66.168 61.5696 66.156 63.8856 65.892L63.9456 66.54C61.5696 66.888 58.9776 66.912 56.9496 66.912ZM58.4736 68.868H65.7456V71.124H59.4696V72.348H58.4976V70.464H64.7616V69.588H58.4736V68.868ZM58.4976 72.096H66.1056V72.816H58.4976V72.096ZM62.5896 67.248H65.0616V67.896H62.5896V67.248ZM60.3336 62.292C61.9416 62.292 62.9976 62.916 62.9976 63.924C62.9976 64.932 61.9416 65.556 60.3336 65.556C58.7136 65.556 57.6576 64.932 57.6576 63.924C57.6576 62.916 58.7136 62.292 60.3336 62.292ZM60.3336 62.988C59.2656 62.988 58.5816 63.348 58.5816 63.924C58.5816 64.5 59.2656 64.86 60.3336 64.86C61.3776 64.86 62.0616 64.5 62.0616 63.924C62.0616 63.348 61.3776 62.988 60.3336 62.988Z" fill="black"/>
<rect width="97" height="1" transform="matrix(1 0 0 -1 10 90)" fill="#DFDFDF"/>
<path d="M52.8523 115.119C52.2898 115.119 51.7884 115.023 51.348 114.83C50.9105 114.636 50.5625 114.368 50.304 114.024C50.0483 113.678 49.9091 113.276 49.8864 112.818H50.9602C50.983 113.099 51.0795 113.342 51.25 113.547C51.4205 113.749 51.6435 113.905 51.919 114.016C52.1946 114.126 52.5 114.182 52.8352 114.182C53.2102 114.182 53.5426 114.116 53.8324 113.986C54.1222 113.855 54.3494 113.673 54.5142 113.44C54.679 113.207 54.7614 112.938 54.7614 112.631C54.7614 112.31 54.6818 112.027 54.5227 111.783C54.3636 111.536 54.1307 111.342 53.8239 111.203C53.517 111.064 53.142 110.994 52.6989 110.994H52V110.057H52.6989C53.0455 110.057 53.3494 109.994 53.6108 109.869C53.875 109.744 54.081 109.568 54.2287 109.341C54.3793 109.114 54.4545 108.847 54.4545 108.54C54.4545 108.244 54.3892 107.987 54.2585 107.768C54.1278 107.55 53.9432 107.379 53.7045 107.257C53.4688 107.135 53.1903 107.074 52.8693 107.074C52.5682 107.074 52.2841 107.129 52.017 107.24C51.7528 107.348 51.5369 107.506 51.3693 107.713C51.2017 107.918 51.1108 108.165 51.0966 108.455H50.0739C50.0909 107.997 50.2287 107.597 50.4872 107.253C50.7457 106.906 51.0838 106.636 51.5014 106.443C51.9219 106.25 52.3835 106.153 52.8864 106.153C53.4261 106.153 53.8892 106.263 54.2756 106.482C54.6619 106.697 54.9588 106.983 55.1662 107.338C55.3736 107.693 55.4773 108.077 55.4773 108.489C55.4773 108.98 55.348 109.399 55.0895 109.746C54.8338 110.092 54.4858 110.332 54.0455 110.466V110.534C54.5966 110.625 55.027 110.859 55.3366 111.237C55.6463 111.612 55.8011 112.077 55.8011 112.631C55.8011 113.105 55.6719 113.531 55.4134 113.909C55.1577 114.284 54.8082 114.58 54.3651 114.795C53.9219 115.011 53.4176 115.119 52.8523 115.119ZM60.1446 109.576H61.1406V111.508H60.1446V109.576ZM65.1246 105.088H66.1206V111.472H65.1246V105.088ZM57.3246 109.912L57.2046 109.168C59.2926 109.168 61.9446 109.156 64.2606 108.892L64.3206 109.54C61.9446 109.888 59.3526 109.912 57.3246 109.912ZM58.8486 111.868H66.1206V114.124H59.8446V115.348H58.8726V113.464H65.1366V112.588H58.8486V111.868ZM58.8726 115.096H66.4806V115.816H58.8726V115.096ZM62.9646 110.248H65.4366V110.896H62.9646V110.248ZM60.7086 105.292C62.3166 105.292 63.3726 105.916 63.3726 106.924C63.3726 107.932 62.3166 108.556 60.7086 108.556C59.0886 108.556 58.0326 107.932 58.0326 106.924C58.0326 105.916 59.0886 105.292 60.7086 105.292ZM60.7086 105.988C59.6406 105.988 58.9566 106.348 58.9566 106.924C58.9566 107.5 59.6406 107.86 60.7086 107.86C61.7526 107.86 62.4366 107.5 62.4366 106.924C62.4366 106.348 61.7526 105.988 60.7086 105.988Z" fill="black"/>
<rect width="97" height="1" transform="matrix(1 0 0 -1 10 133)" fill="#DFDFDF"/>
<path d="M49.6989 156.21V155.341L53.5341 149.273H54.1648V150.619H53.7386L50.8409 155.205V155.273H56.0057V156.21H49.6989ZM53.8068 158V155.946V155.541V149.273H54.8125V158H53.8068ZM60.2032 152.576H61.1992V154.508H60.2032V152.576ZM65.1832 148.088H66.1792V154.472H65.1832V148.088ZM57.3832 152.912L57.2632 152.168C59.3512 152.168 62.0032 152.156 64.3192 151.892L64.3792 152.54C62.0032 152.888 59.4112 152.912 57.3832 152.912ZM58.9072 154.868H66.1792V157.124H59.9032V158.348H58.9312V156.464H65.1952V155.588H58.9072V154.868ZM58.9312 158.096H66.5392V158.816H58.9312V158.096ZM63.0232 153.248H65.4952V153.896H63.0232V153.248ZM60.7672 148.292C62.3752 148.292 63.4312 148.916 63.4312 149.924C63.4312 150.932 62.3752 151.556 60.7672 151.556C59.1472 151.556 58.0912 150.932 58.0912 149.924C58.0912 148.916 59.1472 148.292 60.7672 148.292ZM60.7672 148.988C59.6992 148.988 59.0152 149.348 59.0152 149.924C59.0152 150.5 59.6992 150.86 60.7672 150.86C61.8112 150.86 62.4952 150.5 62.4952 149.924C62.4952 149.348 61.8112 148.988 60.7672 148.988Z" fill="black"/>
<rect width="97" height="1" transform="matrix(1 0 0 -1 10 176)" fill="#DFDFDF"/>
<path d="M52.6307 201.119C52.1307 201.119 51.6804 201.02 51.2798 200.821C50.8793 200.622 50.5582 200.349 50.3168 200.003C50.0753 199.656 49.9432 199.261 49.9205 198.818H50.9432C50.983 199.213 51.1619 199.54 51.4801 199.798C51.8011 200.054 52.1847 200.182 52.6307 200.182C52.9886 200.182 53.3068 200.098 53.5852 199.93C53.8665 199.763 54.0866 199.533 54.2457 199.24C54.4077 198.945 54.4886 198.611 54.4886 198.239C54.4886 197.858 54.4048 197.518 54.2372 197.22C54.0724 196.919 53.8452 196.682 53.5554 196.509C53.2656 196.335 52.9347 196.247 52.5625 196.244C52.2955 196.241 52.0213 196.283 51.7401 196.368C51.4588 196.45 51.2273 196.557 51.0455 196.688L50.0568 196.568L50.5852 192.273H55.1193V193.21H51.4716L51.1648 195.784H51.2159C51.3949 195.642 51.6193 195.524 51.8892 195.43C52.1591 195.337 52.4403 195.29 52.733 195.29C53.267 195.29 53.7429 195.418 54.1605 195.673C54.581 195.926 54.9105 196.273 55.1491 196.713C55.3906 197.153 55.5114 197.656 55.5114 198.222C55.5114 198.778 55.3864 199.276 55.1364 199.713C54.8892 200.148 54.5483 200.491 54.1136 200.744C53.679 200.994 53.1847 201.119 52.6307 201.119ZM59.8048 195.576H60.8008V197.508H59.8048V195.576ZM64.7848 191.088H65.7808V197.472H64.7848V191.088ZM56.9848 195.912L56.8648 195.168C58.9528 195.168 61.6048 195.156 63.9208 194.892L63.9808 195.54C61.6048 195.888 59.0128 195.912 56.9848 195.912ZM58.5088 197.868H65.7808V200.124H59.5048V201.348H58.5328V199.464H64.7968V198.588H58.5088V197.868ZM58.5328 201.096H66.1408V201.816H58.5328V201.096ZM62.6248 196.248H65.0968V196.896H62.6248V196.248ZM60.3688 191.292C61.9768 191.292 63.0328 191.916 63.0328 192.924C63.0328 193.932 61.9768 194.556 60.3688 194.556C58.7488 194.556 57.6928 193.932 57.6928 192.924C57.6928 191.916 58.7488 191.292 60.3688 191.292ZM60.3688 191.988C59.3008 191.988 58.6168 192.348 58.6168 192.924C58.6168 193.5 59.3008 193.86 60.3688 193.86C61.4128 193.86 62.0968 193.5 62.0968 192.924C62.0968 192.348 61.4128 191.988 60.3688 191.988Z" fill="black"/>
<rect width="97" height="1" transform="matrix(1 0 0 -1 10 219)" fill="#DFDFDF"/>
<path d="M52.8011 244.119C52.4432 244.114 52.0852 244.045 51.7273 243.915C51.3693 243.784 51.0426 243.564 50.7472 243.254C50.4517 242.942 50.2145 242.52 50.0355 241.989C49.8565 241.455 49.767 240.784 49.767 239.977C49.767 239.205 49.8395 238.52 49.9844 237.923C50.1293 237.324 50.3395 236.82 50.6151 236.411C50.8906 235.999 51.223 235.686 51.6122 235.473C52.0043 235.26 52.446 235.153 52.9375 235.153C53.4261 235.153 53.8608 235.251 54.2415 235.447C54.625 235.641 54.9375 235.911 55.179 236.257C55.4205 236.604 55.5767 237.003 55.6477 237.455H54.608C54.5114 237.062 54.3239 236.737 54.0455 236.479C53.767 236.22 53.3977 236.091 52.9375 236.091C52.2614 236.091 51.7287 236.385 51.3395 236.973C50.9531 237.561 50.7585 238.386 50.7557 239.449H50.8239C50.983 239.207 51.1719 239.001 51.3906 238.831C51.6122 238.658 51.8565 238.524 52.1236 238.43C52.3906 238.337 52.6733 238.29 52.9716 238.29C53.4716 238.29 53.929 238.415 54.3438 238.665C54.7585 238.912 55.0909 239.254 55.3409 239.692C55.5909 240.126 55.7159 240.625 55.7159 241.188C55.7159 241.727 55.5952 242.222 55.3537 242.67C55.1122 243.116 54.7727 243.472 54.3352 243.736C53.9006 243.997 53.3892 244.125 52.8011 244.119ZM52.8011 243.182C53.1591 243.182 53.4801 243.092 53.7642 242.913C54.0511 242.734 54.277 242.494 54.4418 242.193C54.6094 241.892 54.6932 241.557 54.6932 241.188C54.6932 240.827 54.6122 240.499 54.4503 240.203C54.2912 239.905 54.071 239.668 53.7898 239.491C53.5114 239.315 53.1932 239.227 52.8352 239.227C52.5653 239.227 52.3139 239.281 52.081 239.389C51.848 239.494 51.6435 239.639 51.4673 239.824C51.294 240.009 51.1577 240.22 51.0582 240.459C50.9588 240.695 50.9091 240.943 50.9091 241.205C50.9091 241.551 50.9901 241.875 51.152 242.176C51.3168 242.477 51.5412 242.72 51.8253 242.905C52.1122 243.089 52.4375 243.182 52.8011 243.182ZM59.9923 238.576H60.9883V240.508H59.9923V238.576ZM64.9723 234.088H65.9683V240.472H64.9723V234.088ZM57.1723 238.912L57.0523 238.168C59.1403 238.168 61.7923 238.156 64.1083 237.892L64.1683 238.54C61.7923 238.888 59.2003 238.912 57.1723 238.912ZM58.6963 240.868H65.9683V243.124H59.6923V244.348H58.7203V242.464H64.9843V241.588H58.6963V240.868ZM58.7203 244.096H66.3283V244.816H58.7203V244.096ZM62.8123 239.248H65.2843V239.896H62.8123V239.248ZM60.5563 234.292C62.1643 234.292 63.2203 234.916 63.2203 235.924C63.2203 236.932 62.1643 237.556 60.5563 237.556C58.9363 237.556 57.8803 236.932 57.8803 235.924C57.8803 234.916 58.9363 234.292 60.5563 234.292ZM60.5563 234.988C59.4883 234.988 58.8043 235.348 58.8043 235.924C58.8043 236.5 59.4883 236.86 60.5563 236.86C61.6003 236.86 62.2843 236.5 62.2843 235.924C62.2843 235.348 61.6003 234.988 60.5563 234.988Z" fill="black"/>
<rect width="97" height="1" transform="matrix(1 0 0 -1 10 262)" fill="#DFDFDF"/>
<path d="M50.6761 287L54.5795 279.278V279.21H50.0795V278.273H55.6705V279.261L51.7841 287H50.6761ZM59.8595 281.576H60.8555V283.508H59.8595V281.576ZM64.8395 277.088H65.8355V283.472H64.8395V277.088ZM57.0395 281.912L56.9195 281.168C59.0075 281.168 61.6595 281.156 63.9755 280.892L64.0355 281.54C61.6595 281.888 59.0675 281.912 57.0395 281.912ZM58.5635 283.868H65.8355V286.124H59.5595V287.348H58.5875V285.464H64.8515V284.588H58.5635V283.868ZM58.5875 287.096H66.1955V287.816H58.5875V287.096ZM62.6795 282.248H65.1515V282.896H62.6795V282.248ZM60.4235 277.292C62.0315 277.292 63.0875 277.916 63.0875 278.924C63.0875 279.932 62.0315 280.556 60.4235 280.556C58.8035 280.556 57.7475 279.932 57.7475 278.924C57.7475 277.916 58.8035 277.292 60.4235 277.292ZM60.4235 277.988C59.3555 277.988 58.6715 278.348 58.6715 278.924C58.6715 279.5 59.3555 279.86 60.4235 279.86C61.4675 279.86 62.1515 279.5 62.1515 278.924C62.1515 278.348 61.4675 277.988 60.4235 277.988Z" fill="black"/>
<rect width="97" height="1" transform="matrix(1 0 0 -1 10 305)" fill="#DFDFDF"/>
<path d="M52.6989 330.119C52.1136 330.119 51.5966 330.016 51.1477 329.808C50.7017 329.598 50.3537 329.31 50.1037 328.943C49.8537 328.574 49.7301 328.153 49.733 327.682C49.7301 327.312 49.8026 326.972 49.9503 326.659C50.098 326.344 50.2997 326.081 50.5554 325.871C50.8139 325.658 51.1023 325.523 51.4205 325.466V325.415C51.0028 325.307 50.6705 325.072 50.4233 324.712C50.1761 324.348 50.054 323.935 50.0568 323.472C50.054 323.028 50.1662 322.632 50.3935 322.283C50.6207 321.933 50.9332 321.658 51.331 321.456C51.7315 321.254 52.1875 321.153 52.6989 321.153C53.2045 321.153 53.6563 321.254 54.054 321.456C54.4517 321.658 54.7642 321.933 54.9915 322.283C55.2216 322.632 55.3381 323.028 55.3409 323.472C55.3381 323.935 55.2116 324.348 54.9616 324.712C54.7145 325.072 54.3864 325.307 53.9773 325.415V325.466C54.2926 325.523 54.5767 325.658 54.8295 325.871C55.0824 326.081 55.2841 326.344 55.4347 326.659C55.5852 326.972 55.6619 327.312 55.6648 327.682C55.6619 328.153 55.5341 328.574 55.2812 328.943C55.0312 329.31 54.6832 329.598 54.2372 329.808C53.794 330.016 53.2813 330.119 52.6989 330.119ZM52.6989 329.182C53.0938 329.182 53.4347 329.118 53.7216 328.99C54.0085 328.862 54.2301 328.682 54.3864 328.449C54.5426 328.216 54.6222 327.943 54.625 327.631C54.6222 327.301 54.5369 327.01 54.3693 326.757C54.2017 326.504 53.973 326.305 53.6832 326.161C53.3963 326.016 53.0682 325.943 52.6989 325.943C52.3267 325.943 51.9943 326.016 51.7017 326.161C51.4119 326.305 51.1832 326.504 51.0156 326.757C50.8509 327.01 50.7699 327.301 50.7727 327.631C50.7699 327.943 50.8452 328.216 50.9986 328.449C51.1548 328.682 51.3778 328.862 51.6676 328.99C51.9574 329.118 52.3011 329.182 52.6989 329.182ZM52.6989 325.04C53.0114 325.04 53.2884 324.977 53.5298 324.852C53.7741 324.727 53.9659 324.553 54.1051 324.328C54.2443 324.104 54.3153 323.841 54.3182 323.54C54.3153 323.244 54.2457 322.987 54.1094 322.768C53.973 322.547 53.7841 322.376 53.5426 322.257C53.3011 322.135 53.0199 322.074 52.6989 322.074C52.3722 322.074 52.0866 322.135 51.8423 322.257C51.598 322.376 51.4091 322.547 51.2756 322.768C51.142 322.987 51.0767 323.244 51.0795 323.54C51.0767 323.841 51.1435 324.104 51.2798 324.328C51.419 324.553 51.6108 324.727 51.8551 324.852C52.0994 324.977 52.3807 325.04 52.6989 325.04ZM59.8985 324.576H60.8945V326.508H59.8985V324.576ZM64.8785 320.088H65.8745V326.472H64.8785V320.088ZM57.0785 324.912L56.9585 324.168C59.0465 324.168 61.6985 324.156 64.0145 323.892L64.0745 324.54C61.6985 324.888 59.1065 324.912 57.0785 324.912ZM58.6025 326.868H65.8745V329.124H59.5985V330.348H58.6265V328.464H64.8905V327.588H58.6025V326.868ZM58.6265 330.096H66.2345V330.816H58.6265V330.096ZM62.7185 325.248H65.1905V325.896H62.7185V325.248ZM60.4625 320.292C62.0705 320.292 63.1265 320.916 63.1265 321.924C63.1265 322.932 62.0705 323.556 60.4625 323.556C58.8425 323.556 57.7865 322.932 57.7865 321.924C57.7865 320.916 58.8425 320.292 60.4625 320.292ZM60.4625 320.988C59.3945 320.988 58.7105 321.348 58.7105 321.924C58.7105 322.5 59.3945 322.86 60.4625 322.86C61.5065 322.86 62.1905 322.5 62.1905 321.924C62.1905 321.348 61.5065 320.988 60.4625 320.988Z" fill="black"/>
<rect width="97" height="1" transform="matrix(1 0 0 -1 10 348)" fill="#DFDFDF"/>
<path d="M52.6818 364.153C53.0398 364.156 53.3977 364.224 53.7557 364.358C54.1136 364.491 54.4403 364.713 54.7358 365.023C55.0313 365.33 55.2685 365.749 55.4474 366.28C55.6264 366.811 55.7159 367.477 55.7159 368.278C55.7159 369.054 55.642 369.743 55.4943 370.345C55.3494 370.945 55.1392 371.45 54.8636 371.862C54.5909 372.274 54.2585 372.587 53.8665 372.8C53.4773 373.013 53.0369 373.119 52.5455 373.119C52.0568 373.119 51.6207 373.023 51.2372 372.83C50.8565 372.634 50.544 372.362 50.2997 372.016C50.0582 371.666 49.9034 371.261 49.8352 370.801H50.875C50.9688 371.202 51.1548 371.533 51.4332 371.794C51.7145 372.053 52.0852 372.182 52.5455 372.182C53.2188 372.182 53.75 371.888 54.1392 371.3C54.5313 370.712 54.7273 369.881 54.7273 368.807H54.6591C54.5 369.045 54.3111 369.251 54.0923 369.425C53.8736 369.598 53.6307 369.732 53.3636 369.825C53.0966 369.919 52.8125 369.966 52.5114 369.966C52.0114 369.966 51.5526 369.842 51.1349 369.595C50.7202 369.345 50.3878 369.003 50.1378 368.568C49.8906 368.131 49.767 367.631 49.767 367.068C49.767 366.534 49.8864 366.045 50.125 365.602C50.3665 365.156 50.7045 364.801 51.1392 364.537C51.5767 364.273 52.0909 364.145 52.6818 364.153ZM52.6818 365.091C52.3239 365.091 52.0014 365.18 51.7145 365.359C51.4304 365.536 51.2045 365.774 51.0369 366.075C50.8722 366.374 50.7898 366.705 50.7898 367.068C50.7898 367.432 50.8693 367.763 51.0284 368.061C51.1903 368.357 51.4105 368.592 51.6889 368.768C51.9702 368.942 52.2898 369.028 52.6477 369.028C52.9176 369.028 53.169 368.976 53.402 368.871C53.6349 368.763 53.8381 368.616 54.0114 368.432C54.1875 368.244 54.3253 368.033 54.4247 367.797C54.5241 367.558 54.5739 367.31 54.5739 367.051C54.5739 366.71 54.4915 366.391 54.3267 366.092C54.1648 365.794 53.9403 365.553 53.6534 365.368C53.3693 365.183 53.0455 365.091 52.6818 365.091ZM59.9923 367.576H60.9883V369.508H59.9923V367.576ZM64.9723 363.088H65.9683V369.472H64.9723V363.088ZM57.1723 367.912L57.0523 367.168C59.1403 367.168 61.7923 367.156 64.1083 366.892L64.1683 367.54C61.7923 367.888 59.2003 367.912 57.1723 367.912ZM58.6963 369.868H65.9683V372.124H59.6923V373.348H58.7203V371.464H64.9843V370.588H58.6963V369.868ZM58.7203 373.096H66.3283V373.816H58.7203V373.096ZM62.8123 368.248H65.2843V368.896H62.8123V368.248ZM60.5563 363.292C62.1643 363.292 63.2203 363.916 63.2203 364.924C63.2203 365.932 62.1643 366.556 60.5563 366.556C58.9363 366.556 57.8803 365.932 57.8803 364.924C57.8803 363.916 58.9363 363.292 60.5563 363.292ZM60.5563 363.988C59.4883 363.988 58.8043 364.348 58.8043 364.924C58.8043 365.5 59.4883 365.86 60.5563 365.86C61.6003 365.86 62.2843 365.5 62.2843 364.924C62.2843 364.348 61.6003 363.988 60.5563 363.988Z" fill="black"/>
<rect width="97" height="1" transform="matrix(1 0 0 -1 10 391)" fill="#DFDFDF"/>
<path d="M49.9716 407.273V416H48.9148V408.381H48.8636L46.733 409.795V408.722L48.9148 407.273H49.9716ZM55.3281 416.119C54.6861 416.119 54.1392 415.945 53.6875 415.595C53.2358 415.243 52.8906 414.733 52.652 414.065C52.4134 413.395 52.294 412.585 52.294 411.636C52.294 410.693 52.4134 409.888 52.652 409.22C52.8935 408.55 53.2401 408.038 53.6918 407.686C54.1463 407.331 54.6918 407.153 55.3281 407.153C55.9645 407.153 56.5085 407.331 56.9602 407.686C57.4148 408.038 57.7614 408.55 58 409.22C58.2415 409.888 58.3622 410.693 58.3622 411.636C58.3622 412.585 58.2429 413.395 58.0043 414.065C57.7656 414.733 57.4205 415.243 56.9688 415.595C56.517 415.945 55.9702 416.119 55.3281 416.119ZM55.3281 415.182C55.9645 415.182 56.4588 414.875 56.8111 414.261C57.1634 413.648 57.3395 412.773 57.3395 411.636C57.3395 410.881 57.2585 410.237 57.0966 409.706C56.9375 409.175 56.7074 408.77 56.4062 408.491C56.108 408.213 55.7486 408.074 55.3281 408.074C54.6974 408.074 54.2045 408.385 53.8494 409.007C53.4943 409.626 53.3168 410.503 53.3168 411.636C53.3168 412.392 53.3963 413.034 53.5554 413.562C53.7145 414.091 53.9432 414.493 54.2415 414.768C54.5426 415.044 54.9048 415.182 55.3281 415.182ZM62.5821 410.576H63.5781V412.508H62.5821V410.576ZM67.5621 406.088H68.5581V412.472H67.5621V406.088ZM59.7621 410.912L59.6421 410.168C61.7301 410.168 64.3821 410.156 66.6981 409.892L66.7581 410.54C64.3821 410.888 61.7901 410.912 59.7621 410.912ZM61.2861 412.868H68.5581V415.124H62.2821V416.348H61.3101V414.464H67.5741V413.588H61.2861V412.868ZM61.3101 416.096H68.9181V416.816H61.3101V416.096ZM65.4021 411.248H67.8741V411.896H65.4021V411.248ZM63.1461 406.292C64.7541 406.292 65.8101 406.916 65.8101 407.924C65.8101 408.932 64.7541 409.556 63.1461 409.556C61.5261 409.556 60.4701 408.932 60.4701 407.924C60.4701 406.916 61.5261 406.292 63.1461 406.292ZM63.1461 406.988C62.0781 406.988 61.3941 407.348 61.3941 407.924C61.3941 408.5 62.0781 408.86 63.1461 408.86C64.1901 408.86 64.8741 408.5 64.8741 407.924C64.8741 407.348 64.1901 406.988 63.1461 406.988Z" fill="black"/>
<rect width="97" height="1" transform="matrix(1 0 0 -1 10 434)" fill="#DFDFDF"/>
<path d="M50.9716 450.273V459H49.9148V451.381H49.8636L47.733 452.795V451.722L49.9148 450.273H50.9716ZM56.5497 450.273V459H55.4929V451.381H55.4418L53.3111 452.795V451.722L55.4929 450.273H56.5497ZM61.6603 453.576H62.6563V455.508H61.6603V453.576ZM66.6403 449.088H67.6363V455.472H66.6403V449.088ZM58.8403 453.912L58.7203 453.168C60.8083 453.168 63.4603 453.156 65.7763 452.892L65.8363 453.54C63.4603 453.888 60.8683 453.912 58.8403 453.912ZM60.3643 455.868H67.6363V458.124H61.3603V459.348H60.3883V457.464H66.6523V456.588H60.3643V455.868ZM60.3883 459.096H67.9963V459.816H60.3883V459.096ZM64.4803 454.248H66.9523V454.896H64.4803V454.248ZM62.2243 449.292C63.8323 449.292 64.8883 449.916 64.8883 450.924C64.8883 451.932 63.8323 452.556 62.2243 452.556C60.6043 452.556 59.5483 451.932 59.5483 450.924C59.5483 449.916 60.6043 449.292 62.2243 449.292ZM62.2243 449.988C61.1562 449.988 60.4723 450.348 60.4723 450.924C60.4723 451.5 61.1562 451.86 62.2243 451.86C63.2683 451.86 63.9523 451.5 63.9523 450.924C63.9523 450.348 63.2683 449.988 62.2243 449.988Z" fill="black"/>
<rect width="97" height="1" transform="matrix(1 0 0 -1 10 477)" fill="#DFDFDF"/>
<path d="M50.4716 493.273V502H49.4148V494.381H49.3636L47.233 495.795V494.722L49.4148 493.273H50.4716ZM52.9815 502V501.233L55.8622 498.08C56.2003 497.71 56.4787 497.389 56.6974 497.116C56.9162 496.841 57.0781 496.582 57.1832 496.341C57.2912 496.097 57.3452 495.841 57.3452 495.574C57.3452 495.267 57.2713 495.001 57.1236 494.777C56.9787 494.553 56.7798 494.379 56.527 494.257C56.2741 494.135 55.9901 494.074 55.6747 494.074C55.3395 494.074 55.0469 494.143 54.7969 494.283C54.5497 494.419 54.358 494.611 54.2216 494.858C54.0881 495.105 54.0213 495.395 54.0213 495.727H53.0156C53.0156 495.216 53.1335 494.767 53.3693 494.381C53.6051 493.994 53.9261 493.693 54.3324 493.477C54.7415 493.261 55.2003 493.153 55.7088 493.153C56.2202 493.153 56.6733 493.261 57.0682 493.477C57.4631 493.693 57.7727 493.984 57.9972 494.351C58.2216 494.717 58.3338 495.125 58.3338 495.574C58.3338 495.895 58.2756 496.209 58.1591 496.516C58.0455 496.82 57.8466 497.159 57.5625 497.534C57.2812 497.906 56.8906 498.361 56.3906 498.898L54.4304 500.994V501.062H58.4872V502H52.9815ZM62.8478 496.576H63.8438V498.508H62.8478V496.576ZM67.8278 492.088H68.8238V498.472H67.8278V492.088ZM60.0278 496.912L59.9078 496.168C61.9958 496.168 64.6478 496.156 66.9638 495.892L67.0238 496.54C64.6478 496.888 62.0558 496.912 60.0278 496.912ZM61.5518 498.868H68.8238V501.124H62.5478V502.348H61.5758V500.464H67.8398V499.588H61.5518V498.868ZM61.5758 502.096H69.1838V502.816H61.5758V502.096ZM65.6678 497.248H68.1398V497.896H65.6678V497.248ZM63.4118 492.292C65.0198 492.292 66.0758 492.916 66.0758 493.924C66.0758 494.932 65.0198 495.556 63.4118 495.556C61.7918 495.556 60.7358 494.932 60.7358 493.924C60.7358 492.916 61.7918 492.292 63.4118 492.292ZM63.4118 492.988C62.3438 492.988 61.6598 493.348 61.6598 493.924C61.6598 494.5 62.3438 494.86 63.4118 494.86C64.4558 494.86 65.1398 494.5 65.1398 493.924C65.1398 493.348 64.4558 492.988 63.4118 492.988Z" fill="black"/>
</g>
<defs>
<filter id="filter0_d_444_17227" x="0" y="0" width="117" height="531" filterUnits="userSpaceOnUse" color-interpolation-filters="sRGB">
<feFlood flood-opacity="0" result="BackgroundImageFix"/>
<feColorMatrix in="SourceAlpha" type="matrix" values="0 0 0 0 0 0 0 0 0 0 0 0 0 0 0 0 0 0 127 0" result="hardAlpha"/>
<feOffset dy="4"/>
<feGaussianBlur stdDeviation="5"/>
<feComposite in2="hardAlpha" operator="out"/>
<feColorMatrix type="matrix" values="0 0 0 0 0 0 0 0 0 0 0 0 0 0 0 0 0 0 0.1 0"/>
<feBlend mode="normal" in2="BackgroundImageFix" result="effect1_dropShadow_444_17227"/>
<feBlend mode="normal" in="SourceGraphic" in2="effect1_dropShadow_444_17227" result="shape"/>
</filter>
</defs>
</svg>
