<svg width="342" height="40" viewBox="0 0 342 40" fill="none" xmlns="http://www.w3.org/2000/svg">
<path d="M76.588 18.672H77.75V20.926H76.588V18.672ZM82.398 13.436H83.56V20.884H82.398V13.436ZM73.298 19.064L73.158 18.196C75.594 18.196 78.688 18.182 81.39 17.874L81.46 18.63C78.688 19.036 75.664 19.064 73.298 19.064ZM75.076 21.346H83.56V23.978H76.238V25.406H75.104V23.208H82.412V22.186H75.076V21.346ZM75.104 25.112H83.98V25.952H75.104V25.112ZM79.878 19.456H82.762V20.212H79.878V19.456ZM77.246 13.674C79.122 13.674 80.354 14.402 80.354 15.578C80.354 16.754 79.122 17.482 77.246 17.482C75.356 17.482 74.124 16.754 74.124 15.578C74.124 14.402 75.356 13.674 77.246 13.674ZM77.246 14.486C76 14.486 75.202 14.906 75.202 15.578C75.202 16.25 76 16.67 77.246 16.67C78.464 16.67 79.262 16.25 79.262 15.578C79.262 14.906 78.464 14.486 77.246 14.486ZM94.7309 13.436H95.8929V22.69H94.7309V13.436ZM95.5289 17.272H97.7689V18.238H95.5289V17.272ZM91.2729 14.416H92.5049C92.5049 17.692 90.2089 20.086 86.5829 21.248L86.0789 20.296C89.2709 19.316 91.2729 17.356 91.2729 14.92V14.416ZM86.5969 14.416H91.8609V15.368H86.5969V14.416ZM87.9969 24.86H96.4529V25.812H87.9969V24.86ZM87.9969 21.752H89.1589V25.238H87.9969V21.752Z" fill="black"/>
<path d="M250.052 15.41H253.86V16.362H250.052V15.41ZM250.052 18.448H253.86V19.4H250.052V18.448ZM253.44 13.45H254.602V22.802H253.44V13.45ZM246.524 24.86H254.952V25.812H246.524V24.86ZM246.524 21.836H247.686V25.28H246.524V21.836ZM247.644 14.248C249.506 14.248 250.906 15.55 250.906 17.412C250.906 19.274 249.506 20.576 247.644 20.576C245.782 20.576 244.382 19.274 244.382 17.412C244.382 15.55 245.782 14.248 247.644 14.248ZM247.644 15.27C246.412 15.27 245.502 16.166 245.502 17.412C245.502 18.672 246.412 19.568 247.644 19.568C248.876 19.568 249.8 18.672 249.8 17.412C249.8 16.166 248.876 15.27 247.644 15.27ZM265.731 13.436H266.893V22.69H265.731V13.436ZM266.529 17.272H268.769V18.238H266.529V17.272ZM262.273 14.416H263.505C263.505 17.692 261.209 20.086 257.583 21.248L257.079 20.296C260.271 19.316 262.273 17.356 262.273 14.92V14.416ZM257.597 14.416H262.861V15.368H257.597V14.416ZM258.997 24.86H267.453V25.812H258.997V24.86ZM258.997 21.752H260.159V25.238H258.997V21.752Z" fill="#DFDFDF"/>
<rect x="171" y="38" width="171" height="2" fill="#DFDFDF"/>
<rect y="38" width="171" height="2" fill="black"/>
</svg>
