<svg width="131" height="49" viewBox="0 0 131 49" fill="none" xmlns="http://www.w3.org/2000/svg">
<path d="M12.5391 7.56836V13.2031C12.3177 13.4701 11.9759 13.7598 11.5137 14.0723C11.0514 14.3783 10.4557 14.6419 9.72656 14.8633C8.9974 15.0846 8.11523 15.1953 7.08008 15.1953C6.16211 15.1953 5.32552 15.0456 4.57031 14.7461C3.8151 14.4401 3.16406 13.9941 2.61719 13.4082C2.07682 12.8223 1.66016 12.1061 1.36719 11.2598C1.07422 10.4069 0.927734 9.43359 0.927734 8.33984V7.45117C0.927734 6.35742 1.06771 5.38411 1.34766 4.53125C1.63411 3.67839 2.04102 2.95898 2.56836 2.37305C3.0957 1.78711 3.72396 1.34115 4.45312 1.03516C5.18229 0.729167 5.99284 0.576172 6.88477 0.576172C8.12174 0.576172 9.13737 0.777995 9.93164 1.18164C10.7259 1.57878 11.3314 2.13216 11.748 2.8418C12.1712 3.54492 12.4316 4.35221 12.5293 5.26367H9.6875C9.61589 4.7819 9.47917 4.36198 9.27734 4.00391C9.07552 3.64583 8.78581 3.36589 8.4082 3.16406C8.03711 2.96224 7.55534 2.86133 6.96289 2.86133C6.47461 2.86133 6.03841 2.96224 5.6543 3.16406C5.27669 3.35938 4.95768 3.64909 4.69727 4.0332C4.43685 4.41732 4.23828 4.89258 4.10156 5.45898C3.96484 6.02539 3.89648 6.68294 3.89648 7.43164V8.33984C3.89648 9.08203 3.9681 9.73958 4.11133 10.3125C4.25456 10.8789 4.46615 11.3574 4.74609 11.748C5.03255 12.1322 5.38411 12.4219 5.80078 12.6172C6.21745 12.8125 6.70247 12.9102 7.25586 12.9102C7.7181 12.9102 8.10221 12.8711 8.4082 12.793C8.7207 12.7148 8.97135 12.6204 9.16016 12.5098C9.35547 12.3926 9.50521 12.2819 9.60938 12.1777V9.6582H6.93359V7.56836H12.5391ZM17.0391 6.73828V15H14.2266V4.43359H16.873L17.0391 6.73828ZM20.2227 4.36523L20.1738 6.97266C20.0371 6.95312 19.8711 6.93685 19.6758 6.92383C19.487 6.9043 19.3145 6.89453 19.1582 6.89453C18.7611 6.89453 18.416 6.94661 18.123 7.05078C17.8366 7.14844 17.5957 7.29492 17.4004 7.49023C17.2116 7.68555 17.0684 7.92318 16.9707 8.20312C16.8796 8.48307 16.8275 8.80208 16.8145 9.16016L16.248 8.98438C16.248 8.30078 16.3164 7.67253 16.4531 7.09961C16.5898 6.52018 16.7884 6.01562 17.0488 5.58594C17.3158 5.15625 17.6413 4.82422 18.0254 4.58984C18.4095 4.35547 18.849 4.23828 19.3438 4.23828C19.5 4.23828 19.6595 4.2513 19.8223 4.27734C19.985 4.29688 20.1185 4.32617 20.2227 4.36523ZM20.3086 9.82422V9.61914C20.3086 8.8444 20.4193 8.13151 20.6406 7.48047C20.862 6.82292 21.1842 6.25326 21.6074 5.77148C22.0306 5.28971 22.5514 4.91536 23.1699 4.64844C23.7884 4.375 24.498 4.23828 25.2988 4.23828C26.0996 4.23828 26.8125 4.375 27.4375 4.64844C28.0625 4.91536 28.5866 5.28971 29.0098 5.77148C29.4395 6.25326 29.765 6.82292 29.9863 7.48047C30.2077 8.13151 30.3184 8.8444 30.3184 9.61914V9.82422C30.3184 10.5924 30.2077 11.3053 29.9863 11.9629C29.765 12.6139 29.4395 13.1836 29.0098 13.6719C28.5866 14.1536 28.0658 14.528 27.4473 14.7949C26.8288 15.0618 26.1191 15.1953 25.3184 15.1953C24.5176 15.1953 23.8047 15.0618 23.1797 14.7949C22.5612 14.528 22.0371 14.1536 21.6074 13.6719C21.1842 13.1836 20.862 12.6139 20.6406 11.9629C20.4193 11.3053 20.3086 10.5924 20.3086 9.82422ZM23.1211 9.61914V9.82422C23.1211 10.2669 23.1602 10.6803 23.2383 11.0645C23.3164 11.4486 23.4401 11.7871 23.6094 12.0801C23.7852 12.3665 24.013 12.5911 24.293 12.7539C24.5729 12.9167 24.9147 12.998 25.3184 12.998C25.709 12.998 26.0443 12.9167 26.3242 12.7539C26.6042 12.5911 26.8288 12.3665 26.998 12.0801C27.1673 11.7871 27.291 11.4486 27.3691 11.0645C27.4538 10.6803 27.4961 10.2669 27.4961 9.82422V9.61914C27.4961 9.18945 27.4538 8.78581 27.3691 8.4082C27.291 8.02409 27.1641 7.68555 26.9883 7.39258C26.819 7.0931 26.5944 6.85872 26.3145 6.68945C26.0345 6.52018 25.696 6.43555 25.2988 6.43555C24.9017 6.43555 24.5632 6.52018 24.2832 6.68945C24.0098 6.85872 23.7852 7.0931 23.6094 7.39258C23.4401 7.68555 23.3164 8.02409 23.2383 8.4082C23.1602 8.78581 23.1211 9.18945 23.1211 9.61914ZM34.5645 12.2656L36.7617 4.43359H38.5488L37.9727 7.50977L35.7754 15H34.2812L34.5645 12.2656ZM33.4512 4.43359L35.0234 12.2559L35.1699 15H33.4121L30.7363 4.43359H33.4512ZM40.5605 12.1289L42.0938 4.43359H44.8184L42.1426 15H40.3945L40.5605 12.1289ZM38.793 4.43359L40.9805 12.207L41.2832 15H39.7793L37.582 7.51953L37.0254 4.43359H38.793ZM55.9277 9.93164H52.3047V7.64648H55.9277C56.4876 7.64648 56.9434 7.55534 57.2949 7.37305C57.6465 7.18424 57.9036 6.92383 58.0664 6.5918C58.2292 6.25977 58.3105 5.88542 58.3105 5.46875C58.3105 5.04557 58.2292 4.65169 58.0664 4.28711C57.9036 3.92253 57.6465 3.62956 57.2949 3.4082C56.9434 3.18685 56.4876 3.07617 55.9277 3.07617H53.3203V15H50.3906V0.78125H55.9277C57.041 0.78125 57.9948 0.983073 58.7891 1.38672C59.5898 1.78385 60.2018 2.33398 60.625 3.03711C61.0482 3.74023 61.2598 4.54427 61.2598 5.44922C61.2598 6.36719 61.0482 7.16146 60.625 7.83203C60.2018 8.5026 59.5898 9.02018 58.7891 9.38477C57.9948 9.74935 57.041 9.93164 55.9277 9.93164ZM68.1914 12.6172V7.91016C68.1914 7.57161 68.1361 7.2819 68.0254 7.04102C67.9147 6.79362 67.7422 6.60156 67.5078 6.46484C67.2799 6.32812 66.9837 6.25977 66.6191 6.25977C66.3066 6.25977 66.0365 6.3151 65.8086 6.42578C65.5807 6.52995 65.4049 6.68294 65.2812 6.88477C65.1576 7.08008 65.0957 7.3112 65.0957 7.57812H62.2832C62.2832 7.12891 62.3874 6.70247 62.5957 6.29883C62.804 5.89518 63.1068 5.54036 63.5039 5.23438C63.901 4.92188 64.373 4.67773 64.9199 4.50195C65.4733 4.32617 66.0918 4.23828 66.7754 4.23828C67.5957 4.23828 68.3249 4.375 68.9629 4.64844C69.6009 4.92188 70.1022 5.33203 70.4668 5.87891C70.8379 6.42578 71.0234 7.10938 71.0234 7.92969V12.4512C71.0234 13.0306 71.0592 13.5059 71.1309 13.877C71.2025 14.2415 71.3066 14.5605 71.4434 14.834V15H68.6016C68.4648 14.7135 68.3607 14.3555 68.2891 13.9258C68.224 13.4896 68.1914 13.0534 68.1914 12.6172ZM68.5625 8.56445L68.582 10.1562H67.0098C66.6387 10.1562 66.3164 10.1986 66.043 10.2832C65.7695 10.3678 65.5449 10.4883 65.3691 10.6445C65.1934 10.7943 65.0632 10.9701 64.9785 11.1719C64.9004 11.3737 64.8613 11.5951 64.8613 11.8359C64.8613 12.0768 64.9167 12.2949 65.0273 12.4902C65.138 12.679 65.2975 12.8288 65.5059 12.9395C65.7142 13.0436 65.9583 13.0957 66.2383 13.0957C66.6615 13.0957 67.0293 13.0111 67.3418 12.8418C67.6543 12.6725 67.8952 12.4642 68.0645 12.2168C68.2402 11.9694 68.3314 11.735 68.3379 11.5137L69.0801 12.7051C68.9759 12.972 68.8327 13.2487 68.6504 13.5352C68.4746 13.8216 68.25 14.0918 67.9766 14.3457C67.7031 14.5931 67.3743 14.7982 66.9902 14.9609C66.6061 15.1172 66.1504 15.1953 65.623 15.1953C64.9525 15.1953 64.3438 15.0618 63.7969 14.7949C63.2565 14.5215 62.8268 14.1471 62.5078 13.6719C62.1953 13.1901 62.0391 12.6432 62.0391 12.0312C62.0391 11.4779 62.1432 10.9863 62.3516 10.5566C62.5599 10.127 62.8659 9.76562 63.2695 9.47266C63.6797 9.17318 64.1908 8.94857 64.8027 8.79883C65.4147 8.64258 66.1243 8.56445 66.9316 8.56445H68.5625ZM75.6602 0V15H72.8379V0H75.6602ZM82.3477 15.1953C81.5273 15.1953 80.7917 15.0651 80.1406 14.8047C79.4896 14.5378 78.9362 14.1699 78.4805 13.7012C78.0312 13.2324 77.6862 12.6888 77.4453 12.0703C77.2044 11.4453 77.084 10.7812 77.084 10.0781V9.6875C77.084 8.88672 77.1979 8.1543 77.4258 7.49023C77.6536 6.82617 77.9792 6.25 78.4023 5.76172C78.832 5.27344 79.3529 4.89909 79.9648 4.63867C80.5768 4.37174 81.2669 4.23828 82.0352 4.23828C82.7839 4.23828 83.4479 4.36198 84.0273 4.60938C84.6068 4.85677 85.0918 5.20833 85.4824 5.66406C85.8796 6.11979 86.179 6.66667 86.3809 7.30469C86.5827 7.9362 86.6836 8.63932 86.6836 9.41406V10.5859H78.2852V8.71094H83.9199V8.49609C83.9199 8.10547 83.8483 7.75716 83.7051 7.45117C83.5684 7.13867 83.36 6.89128 83.0801 6.70898C82.8001 6.52669 82.4421 6.43555 82.0059 6.43555C81.6348 6.43555 81.3158 6.51693 81.0488 6.67969C80.7819 6.84245 80.5638 7.07031 80.3945 7.36328C80.2318 7.65625 80.1081 8.0013 80.0234 8.39844C79.9453 8.78906 79.9062 9.21875 79.9062 9.6875V10.0781C79.9062 10.5013 79.9648 10.8919 80.082 11.25C80.2057 11.6081 80.3783 11.9173 80.5996 12.1777C80.8275 12.4382 81.1009 12.64 81.4199 12.7832C81.7454 12.9264 82.1133 12.998 82.5234 12.998C83.0312 12.998 83.5033 12.9004 83.9395 12.7051C84.3822 12.5033 84.763 12.2005 85.082 11.7969L86.4492 13.2812C86.2279 13.6003 85.9251 13.9062 85.541 14.1992C85.1634 14.4922 84.7077 14.7331 84.1738 14.9219C83.64 15.1042 83.0312 15.1953 82.3477 15.1953ZM92.9609 4.43359V6.42578H86.8086V4.43359H92.9609ZM88.332 1.82617H91.1445V11.8164C91.1445 12.1224 91.1836 12.3568 91.2617 12.5195C91.3464 12.6823 91.4701 12.7962 91.6328 12.8613C91.7956 12.9199 92.0007 12.9492 92.248 12.9492C92.4238 12.9492 92.5801 12.9427 92.7168 12.9297C92.86 12.9102 92.9805 12.8906 93.0781 12.8711L93.0879 14.9414C92.847 15.0195 92.5866 15.0814 92.3066 15.127C92.0267 15.1725 91.7174 15.1953 91.3789 15.1953C90.7604 15.1953 90.2201 15.0944 89.7578 14.8926C89.3021 14.6842 88.9505 14.3522 88.7031 13.8965C88.4557 13.4408 88.332 12.8418 88.332 12.0996V1.82617ZM99.2383 4.43359V6.42578H93.0859V4.43359H99.2383ZM94.6094 1.82617H97.4219V11.8164C97.4219 12.1224 97.4609 12.3568 97.5391 12.5195C97.6237 12.6823 97.7474 12.7962 97.9102 12.8613C98.0729 12.9199 98.278 12.9492 98.5254 12.9492C98.7012 12.9492 98.8574 12.9427 98.9941 12.9297C99.1374 12.9102 99.2578 12.8906 99.3555 12.8711L99.3652 14.9414C99.1243 15.0195 98.8639 15.0814 98.584 15.127C98.304 15.1725 97.9948 15.1953 97.6562 15.1953C97.0378 15.1953 96.4974 15.0944 96.0352 14.8926C95.5794 14.6842 95.2279 14.3522 94.9805 13.8965C94.7331 13.4408 94.6094 12.8418 94.6094 12.0996V1.82617ZM105.203 15.1953C104.383 15.1953 103.647 15.0651 102.996 14.8047C102.345 14.5378 101.792 14.1699 101.336 13.7012C100.887 13.2324 100.542 12.6888 100.301 12.0703C100.06 11.4453 99.9395 10.7812 99.9395 10.0781V9.6875C99.9395 8.88672 100.053 8.1543 100.281 7.49023C100.509 6.82617 100.835 6.25 101.258 5.76172C101.688 5.27344 102.208 4.89909 102.82 4.63867C103.432 4.37174 104.122 4.23828 104.891 4.23828C105.639 4.23828 106.303 4.36198 106.883 4.60938C107.462 4.85677 107.947 5.20833 108.338 5.66406C108.735 6.11979 109.035 6.66667 109.236 7.30469C109.438 7.9362 109.539 8.63932 109.539 9.41406V10.5859H101.141V8.71094H106.775V8.49609C106.775 8.10547 106.704 7.75716 106.561 7.45117C106.424 7.13867 106.215 6.89128 105.936 6.70898C105.656 6.52669 105.298 6.43555 104.861 6.43555C104.49 6.43555 104.171 6.51693 103.904 6.67969C103.637 6.84245 103.419 7.07031 103.25 7.36328C103.087 7.65625 102.964 8.0013 102.879 8.39844C102.801 8.78906 102.762 9.21875 102.762 9.6875V10.0781C102.762 10.5013 102.82 10.8919 102.938 11.25C103.061 11.6081 103.234 11.9173 103.455 12.1777C103.683 12.4382 103.956 12.64 104.275 12.7832C104.601 12.9264 104.969 12.998 105.379 12.998C105.887 12.998 106.359 12.9004 106.795 12.7051C107.238 12.5033 107.618 12.2005 107.938 11.7969L109.305 13.2812C109.083 13.6003 108.781 13.9062 108.396 14.1992C108.019 14.4922 107.563 14.7331 107.029 14.9219C106.495 15.1042 105.887 15.1953 105.203 15.1953ZM10.14 36.04H15.02V38.18H10.14V36.04ZM5.1 31.68H7.26V34.36C7.26 39.02 5.68 43.32 2.2 45.06L0.54 42.92C3.7 41.46 5.1 37.88 5.1 34.36V31.68ZM5.66 31.68H7.78V34.36C7.78 37.88 9.12 41.26 12.18 42.62L10.6 44.74C7.12 43.06 5.66 38.98 5.66 34.36V31.68ZM13.7 30.24H16.34V48.82H13.7V30.24ZM31.3984 30.24H34.0784V48.82H31.3984V30.24ZM19.6184 31.72H22.2584V36.22H26.0784V31.72H28.7184V44.5H19.6184V31.72ZM22.2584 38.28V42.36H26.0784V38.28H22.2584ZM43.4769 31.32H45.7969V32.66C45.7969 36.68 42.9369 40.24 38.1369 41.18L36.9969 38.98C41.1769 38.26 43.4769 35.32 43.4769 32.66V31.32ZM44.0169 31.32H46.3169V32.66C46.3169 35.38 48.5969 38.26 52.7969 38.98L51.6569 41.18C46.8569 40.24 44.0169 36.74 44.0169 32.66V31.32ZM36.6169 44.36H53.3769V46.52H36.6169V44.36ZM71.6758 30.24H74.3558V48.82H71.6758V30.24ZM64.3758 31.54C67.1758 31.54 69.2358 34.1 69.2358 38.14C69.2358 42.22 67.1758 44.78 64.3758 44.78C61.5758 44.78 59.5158 42.22 59.5158 38.14C59.5158 34.1 61.5758 31.54 64.3758 31.54ZM64.3758 33.96C62.9958 33.96 62.0558 35.42 62.0558 38.14C62.0558 40.9 62.9958 42.38 64.3758 42.38C65.7558 42.38 66.6758 40.9 66.6758 38.14C66.6758 35.42 65.7558 33.96 64.3758 33.96ZM80.6342 36.46H83.2942V39.86H80.6342V36.46ZM87.1542 36.46H89.7942V39.86H87.1542V36.46ZM76.8742 39.04H93.6142V41.14H76.8742V39.04ZM85.2142 42.08C89.2142 42.08 91.6342 43.28 91.6342 45.42C91.6342 47.58 89.2142 48.78 85.2142 48.78C81.1942 48.78 78.7742 47.58 78.7742 45.42C78.7742 43.28 81.1942 42.08 85.2142 42.08ZM85.2142 44.08C82.7342 44.08 81.4742 44.5 81.4742 45.42C81.4742 46.36 82.7342 46.78 85.2142 46.78C87.6942 46.78 88.9542 46.36 88.9542 45.42C88.9542 44.5 87.6942 44.08 85.2142 44.08ZM85.2542 30.52C89.3342 30.52 91.9542 31.88 91.9542 34.1C91.9542 36.3 89.3342 37.62 85.2542 37.62C81.1542 37.62 78.5542 36.3 78.5542 34.1C78.5542 31.88 81.1542 30.52 85.2542 30.52ZM85.2542 32.56C82.7142 32.56 81.2942 33.06 81.2942 34.1C81.2942 35.12 82.7142 35.62 85.2542 35.62C87.7942 35.62 89.2142 35.12 89.2142 34.1C89.2142 33.06 87.7942 32.56 85.2542 32.56ZM108.533 32.66H111.733V34.84H108.533V32.66ZM108.533 36.68H111.733V38.86H108.533V36.68ZM106.693 30.26H109.353V41.18H106.693V30.26ZM96.9927 41.94H109.353V48.78H106.693V44.06H96.9927V41.94ZM99.9327 31.26C102.793 31.26 104.973 33.16 104.973 35.8C104.973 38.44 102.793 40.32 99.9327 40.32C97.0727 40.32 94.8927 38.44 94.8927 35.8C94.8927 33.16 97.0727 31.26 99.9327 31.26ZM99.9327 33.52C98.5327 33.52 97.4927 34.34 97.4927 35.8C97.4927 37.26 98.5327 38.1 99.9327 38.1C101.333 38.1 102.373 37.26 102.373 35.8C102.373 34.34 101.333 33.52 99.9327 33.52ZM113.491 31.6H121.411V33.74H113.491V31.6ZM115.771 35.92H118.411V40.56H115.771V35.92ZM120.371 31.6H122.991V32.76C122.991 34.06 122.991 35.9 122.551 38.2L119.971 37.92C120.371 35.64 120.371 34.04 120.371 32.76V31.6ZM124.791 30.26H127.471V44.12H124.791V30.26ZM126.411 35.9H129.671V38.08H126.411V35.9ZM115.111 46.34H128.051V48.46H115.111V46.34ZM115.111 42.88H117.771V47H115.111V42.88ZM112.651 41.64L112.411 39.54C115.611 39.54 120.071 39.48 123.791 38.96L123.951 40.84C120.131 41.56 115.831 41.64 112.651 41.64Z" fill="#222222"/>
</svg>
