<svg width="342" height="47" viewBox="0 0 342 47" fill="none" xmlns="http://www.w3.org/2000/svg">
<rect x="0.25" y="0.25" width="165.5" height="46.5" rx="2.75" stroke="#222222" stroke-width="0.5"/>
<path d="M79.296 15.768H80.624V30.264H79.296V15.768ZM72.992 16.888C75.136 16.888 76.672 18.856 76.672 21.928C76.672 25.016 75.136 26.984 72.992 26.984C70.864 26.984 69.328 25.016 69.328 21.928C69.328 18.856 70.864 16.888 72.992 16.888ZM72.992 18.088C71.584 18.088 70.592 19.592 70.592 21.928C70.592 24.28 71.584 25.816 72.992 25.816C74.416 25.816 75.392 24.28 75.392 21.928C75.392 19.592 74.416 18.088 72.992 18.088ZM91.1828 19.768H94.8308V20.856H91.1828V19.768ZM94.0788 15.8H95.4068V26.392H94.0788V15.8ZM86.1748 28.84H95.8068V29.928H86.1748V28.84ZM86.1748 25.464H87.5028V29.4H86.1748V25.464ZM87.1988 17.592H88.2868V18.76C88.2868 21.384 86.6548 23.656 84.2388 24.552L83.5508 23.496C85.7108 22.728 87.1988 20.808 87.1988 18.76V17.592ZM87.4548 17.592H88.5268V18.744C88.5268 20.616 89.9348 22.44 92.0308 23.176L91.3588 24.216C89.0068 23.368 87.4548 21.192 87.4548 18.744V17.592ZM83.9668 16.968H91.6948V18.04H83.9668V16.968Z" fill="#222222"/>
<rect x="176" width="166" height="47" rx="3" fill="#222222"/>
<path d="M254.576 15.768H255.92V30.264H254.576V15.768ZM255.6 21.48H258.288V22.6H255.6V21.48ZM245.408 25.544H246.544C249.216 25.544 251.088 25.448 253.248 25.048L253.392 26.168C251.168 26.584 249.264 26.664 246.544 26.664H245.408V25.544ZM245.408 17.176H252.128V18.264H246.72V26.04H245.408V17.176ZM266.047 16.104C269.167 16.104 271.135 17.128 271.135 18.84C271.135 20.552 269.167 21.56 266.047 21.56C262.911 21.56 260.959 20.552 260.959 18.84C260.959 17.128 262.911 16.104 266.047 16.104ZM266.047 17.16C263.743 17.16 262.319 17.768 262.319 18.84C262.319 19.896 263.743 20.52 266.047 20.52C268.335 20.52 269.775 19.896 269.775 18.84C269.775 17.768 268.335 17.16 266.047 17.16ZM261.103 25.288H270.975V30.056H261.103V25.288ZM269.679 26.36H262.415V28.984H269.679V26.36ZM259.503 22.808H272.575V23.88H259.503V22.808Z" fill="white"/>
</svg>
