<svg width="159" height="218" viewBox="0 0 159 218" fill="none" xmlns="http://www.w3.org/2000/svg">
<rect width="159" height="218" rx="10" fill="#F5F5F5"/>
<path d="M28.704 27.632C30.912 27.632 32.528 29.68 32.528 32.912C32.528 36.176 30.912 38.224 28.704 38.224C26.48 38.224 24.88 36.176 24.88 32.912C24.88 29.68 26.48 27.632 28.704 27.632ZM28.704 29.568C27.632 29.568 26.912 30.736 26.912 32.912C26.912 35.12 27.632 36.304 28.704 36.304C29.792 36.304 30.496 35.12 30.496 32.912C30.496 30.736 29.792 29.568 28.704 29.568ZM34.96 26.592H37.072V41.456H34.96V26.592ZM31.904 31.936H35.856V33.648H31.904V31.936ZM39.3588 27.904H48.0788V29.584H39.3588V27.904ZM43.7268 30.048C45.8548 30.048 47.3588 31.152 47.3588 32.784C47.3588 34.416 45.8548 35.504 43.7268 35.504C41.5828 35.504 40.0788 34.416 40.0788 32.784C40.0788 31.152 41.5828 30.048 43.7268 30.048ZM43.7268 31.648C42.7668 31.648 42.1268 32.032 42.1268 32.784C42.1268 33.52 42.7668 33.904 43.7268 33.904C44.6708 33.904 45.3268 33.52 45.3268 32.784C45.3268 32.032 44.6708 31.648 43.7268 31.648ZM48.8948 26.608H51.0228V35.904H48.8948V26.608ZM50.4308 30.432H52.9908V32.16H50.4308V30.432ZM41.1348 36.512H51.0228V41.424H48.8948V38.208H41.1348V36.512ZM42.6548 26.528H44.7828V28.864H42.6548V26.528Z" fill="#9FC7C0"/>
<path d="M29.532 78.648H32.844V79.464H29.532V78.648ZM29.532 81.144H32.844V81.972H29.532V81.144ZM27.552 77.724C29.148 77.724 30.348 78.804 30.348 80.304C30.348 81.816 29.148 82.884 27.552 82.884C25.944 82.884 24.756 81.816 24.756 80.304C24.756 78.804 25.944 77.724 27.552 77.724ZM27.552 78.576C26.496 78.576 25.716 79.284 25.716 80.304C25.716 81.324 26.496 82.032 27.552 82.032C28.608 82.032 29.4 81.324 29.4 80.304C29.4 79.284 28.608 78.576 27.552 78.576ZM32.52 77.088H33.516V83.508H32.52V77.088ZM29.952 83.76C32.184 83.76 33.564 84.528 33.564 85.836C33.564 87.156 32.184 87.912 29.952 87.912C27.708 87.912 26.328 87.156 26.328 85.836C26.328 84.528 27.708 83.76 29.952 83.76ZM29.952 84.552C28.308 84.552 27.312 85.032 27.312 85.836C27.312 86.652 28.308 87.132 29.952 87.132C31.584 87.132 32.58 86.652 32.58 85.836C32.58 85.032 31.584 84.552 29.952 84.552ZM38.5311 77.916C40.1031 77.916 41.2311 79.392 41.2311 81.696C41.2311 84.012 40.1031 85.488 38.5311 85.488C36.9471 85.488 35.8311 84.012 35.8311 81.696C35.8311 79.392 36.9471 77.916 38.5311 77.916ZM38.5311 78.816C37.4871 78.816 36.7791 79.944 36.7791 81.696C36.7791 83.46 37.4871 84.612 38.5311 84.612C39.5751 84.612 40.2831 83.46 40.2831 81.696C40.2831 79.944 39.5751 78.816 38.5311 78.816ZM43.5831 77.076H44.5671V87.948H43.5831V77.076ZM40.9071 81.216H44.0151V82.032H40.9071V81.216ZM49.7621 83.592H50.7701V85.38H49.7621V83.592ZM54.5141 77.088H55.5101V87.936H54.5141V77.088ZM46.8701 85.872L46.7381 85.044C48.7901 85.032 51.4901 85.008 53.8301 84.708L53.9021 85.44C51.4901 85.848 48.8741 85.872 46.8701 85.872ZM46.9661 78.408H53.5541V79.212H46.9661V78.408ZM50.2541 79.836C51.8141 79.836 52.8701 80.628 52.8701 81.84C52.8701 83.064 51.8141 83.844 50.2541 83.844C48.7061 83.844 47.6501 83.064 47.6501 81.84C47.6501 80.628 48.7061 79.836 50.2541 79.836ZM50.2541 80.604C49.2821 80.604 48.5981 81.096 48.5981 81.84C48.5981 82.584 49.2821 83.076 50.2541 83.076C51.2381 83.076 51.9221 82.584 51.9221 81.84C51.9221 81.096 51.2381 80.604 50.2541 80.604ZM49.7621 77.088H50.7581V78.852H49.7621V77.088ZM60.5252 83.556H61.5212V85.32H60.5252V83.556ZM65.0852 77.088H66.0812V87.936H65.0852V77.088ZM65.7572 81.696H67.7612V82.536H65.7572V81.696ZM57.7292 85.872L57.5852 85.044C59.5292 85.044 62.1812 85.02 64.4252 84.696L64.5092 85.44C62.1692 85.86 59.6252 85.872 57.7292 85.872ZM57.7652 78.396H64.2572V79.2H57.7652V78.396ZM61.0172 79.836C62.5292 79.836 63.5732 80.628 63.5732 81.84C63.5732 83.064 62.5292 83.844 61.0172 83.844C59.5052 83.844 58.4732 83.064 58.4732 81.84C58.4732 80.628 59.5052 79.836 61.0172 79.836ZM61.0172 80.604C60.0452 80.604 59.4092 81.096 59.4092 81.84C59.4092 82.584 60.0452 83.076 61.0172 83.076C61.9892 83.076 62.6372 82.584 62.6372 81.84C62.6372 81.096 61.9892 80.604 61.0172 80.604ZM60.5252 77.1H61.5212V78.936H60.5252V77.1ZM76.5928 83.928C78.8968 83.928 80.3728 84.684 80.3728 85.932C80.3728 87.168 78.8968 87.912 76.5928 87.912C74.2768 87.912 72.8128 87.168 72.8128 85.932C72.8128 84.684 74.2768 83.928 76.5928 83.928ZM76.5928 84.708C74.8888 84.708 73.7968 85.176 73.7968 85.932C73.7968 86.676 74.8888 87.144 76.5928 87.144C78.2968 87.144 79.3768 86.676 79.3768 85.932C79.3768 85.176 78.2968 84.708 76.5928 84.708ZM72.8968 77.628H79.8808V78.444H72.8968V77.628ZM71.7328 82.14H81.5248V82.944H71.7328V82.14ZM75.7528 80.052H76.7368V82.368H75.7528V80.052ZM79.3048 77.628H80.2768V78.552C80.2768 79.428 80.2768 80.304 79.9888 81.432L79.0048 81.312C79.3048 80.196 79.3048 79.404 79.3048 78.552V77.628ZM82.7599 83.508H92.5999V84.324H82.7599V83.508ZM87.1519 83.892H88.1359V87.936H87.1519V83.892ZM83.9959 77.52H84.9919V79.008H90.3559V77.52H91.3399V82.212H83.9959V77.52ZM84.9919 79.812V81.408H90.3559V79.812H84.9919ZM101.155 77.088H102.151V87.936H101.155V77.088ZM101.911 81.54H103.927V82.38H101.911V81.54ZM93.7509 78.816H100.147V79.632H93.7509V78.816ZM96.9909 80.532C98.5269 80.532 99.6309 81.564 99.6309 83.028C99.6309 84.492 98.5269 85.524 96.9909 85.524C95.4669 85.524 94.3509 84.492 94.3509 83.028C94.3509 81.564 95.4669 80.532 96.9909 80.532ZM96.9909 81.36C96.0069 81.36 95.2989 82.044 95.2989 83.028C95.2989 84 96.0069 84.696 96.9909 84.696C97.9749 84.696 98.6829 84 98.6829 83.028C98.6829 82.044 97.9749 81.36 96.9909 81.36ZM96.4749 77.22H97.4709V79.188H96.4749V77.22ZM112.746 77.088H113.742V87.936H112.746V77.088ZM109.566 78.252H110.55C110.55 81.396 109.134 84.144 105.51 85.92L104.982 85.116C108.114 83.604 109.566 81.3 109.566 78.42V78.252ZM105.474 78.252H109.998V79.068H105.474V78.252Z" fill="#222222"/>
<path d="M25.86 108.716H33.312V109.52H25.86V108.716ZM24.6 111.764H34.428V112.592H24.6V111.764ZM29.004 109.136H29.988V112.148H29.004V109.136ZM25.86 103.964H33.192V104.78H26.868V109.016H25.86V103.964ZM26.544 106.292H32.964V107.096H26.544V106.292ZM37.2831 110.132H44.5311V113.936H43.5231V110.936H37.2831V110.132ZM43.5231 103.088H44.5311V109.532H43.5231V103.088ZM38.7111 103.724C40.3431 103.724 41.5311 104.78 41.5311 106.304C41.5311 107.816 40.3431 108.86 38.7111 108.86C37.0671 108.86 35.8791 107.816 35.8791 106.304C35.8791 104.78 37.0671 103.724 38.7111 103.724ZM38.7111 104.576C37.6311 104.576 36.8511 105.272 36.8511 106.304C36.8511 107.324 37.6311 108.032 38.7111 108.032C39.7911 108.032 40.5711 107.324 40.5711 106.304C40.5711 105.272 39.7911 104.576 38.7111 104.576ZM53.9987 103.832H54.8627V104.66C54.8627 107.024 52.6667 108.86 50.4947 109.352L50.0507 108.524C51.9587 108.164 53.9987 106.508 53.9987 104.66V103.832ZM54.1787 103.832H55.0427V104.66C55.0427 106.52 57.0947 108.164 58.9907 108.524L58.5467 109.352C56.3867 108.86 54.1787 107.036 54.1787 104.66V103.832ZM49.6547 111.656H59.4827V112.472H49.6547V111.656ZM68.6378 103.076H69.6218V113.948H68.6378V103.076ZM66.3818 107.168H68.7818V107.996H66.3818V107.168ZM61.1858 110.516H62.0138C64.0538 110.516 65.3378 110.48 66.8618 110.192L66.9578 111.008C65.3978 111.284 64.0778 111.344 62.0138 111.344H61.1858V110.516ZM61.1858 104.072H66.2018V104.9H62.1698V110.804H61.1858V104.072ZM61.9178 107.12H65.7338V107.924H61.9178V107.12ZM79.6048 103.088H80.6008V113.96H79.6048V103.088ZM72.4288 110.42H73.3048C75.4528 110.42 76.8448 110.348 78.4528 110.048L78.5608 110.888C76.9048 111.2 75.4888 111.26 73.3048 111.26H72.4288V110.42ZM72.4288 104.12H77.5528V104.948H73.4128V110.732H72.4288V104.12Z" fill="#222222"/>
<path d="M29.532 130.648H32.844V131.464H29.532V130.648ZM29.532 133.144H32.844V133.972H29.532V133.144ZM27.552 129.724C29.148 129.724 30.348 130.804 30.348 132.304C30.348 133.816 29.148 134.884 27.552 134.884C25.944 134.884 24.756 133.816 24.756 132.304C24.756 130.804 25.944 129.724 27.552 129.724ZM27.552 130.576C26.496 130.576 25.716 131.284 25.716 132.304C25.716 133.324 26.496 134.032 27.552 134.032C28.608 134.032 29.4 133.324 29.4 132.304C29.4 131.284 28.608 130.576 27.552 130.576ZM32.52 129.088H33.516V135.508H32.52V129.088ZM29.952 135.76C32.184 135.76 33.564 136.528 33.564 137.836C33.564 139.156 32.184 139.912 29.952 139.912C27.708 139.912 26.328 139.156 26.328 137.836C26.328 136.528 27.708 135.76 29.952 135.76ZM29.952 136.552C28.308 136.552 27.312 137.032 27.312 137.836C27.312 138.652 28.308 139.132 29.952 139.132C31.584 139.132 32.58 138.652 32.58 137.836C32.58 137.032 31.584 136.552 29.952 136.552ZM38.5311 129.916C40.1031 129.916 41.2311 131.392 41.2311 133.696C41.2311 136.012 40.1031 137.488 38.5311 137.488C36.9471 137.488 35.8311 136.012 35.8311 133.696C35.8311 131.392 36.9471 129.916 38.5311 129.916ZM38.5311 130.816C37.4871 130.816 36.7791 131.944 36.7791 133.696C36.7791 135.46 37.4871 136.612 38.5311 136.612C39.5751 136.612 40.2831 135.46 40.2831 133.696C40.2831 131.944 39.5751 130.816 38.5311 130.816ZM43.5831 129.076H44.5671V139.948H43.5831V129.076ZM40.9071 133.216H44.0151V134.032H40.9071V133.216ZM48.9341 131.08H49.6901V131.428C49.6901 133.18 48.8141 134.752 47.2421 135.412L46.7501 134.668C48.1301 134.116 48.9341 132.808 48.9341 131.428V131.08ZM49.1261 131.08H49.8701V131.428C49.8701 132.724 50.6981 133.948 52.0661 134.476L51.5981 135.22C50.0021 134.596 49.1261 133.096 49.1261 131.428V131.08ZM46.9661 130.516H51.8021V131.32H46.9661V130.516ZM48.9341 129.208H49.8701V130.852H48.9341V129.208ZM54.8621 129.1H55.8101V135.748H54.8621V129.1ZM53.1101 131.98H55.1621V132.796H53.1101V131.98ZM52.5581 129.28H53.4941V135.676H52.5581V129.28ZM48.5381 136.324H55.8101V139.936H54.8261V137.128H48.5381V136.324ZM68.5778 129.088H69.5738V134.836H68.5778V129.088ZM62.0618 139.024H62.7098C64.2698 139.024 65.1938 139 66.3578 138.784L66.4658 139.552C65.2538 139.768 64.3178 139.792 62.7098 139.792H62.0618V139.024ZM62.0378 135.328H65.6258V137.836H63.0218V139.444H62.0618V137.116H64.6658V136.096H62.0378V135.328ZM66.0938 135.328H69.5738V139.864H68.5898V136.144H66.0938V135.328ZM63.7298 129.58C65.3498 129.58 66.5378 130.576 66.5378 132.016C66.5378 133.456 65.3498 134.452 63.7298 134.452C62.1218 134.452 60.9338 133.456 60.9338 132.016C60.9338 130.576 62.1218 129.58 63.7298 129.58ZM63.7298 130.396C62.6858 130.396 61.8938 131.068 61.8938 132.016C61.8938 132.964 62.6858 133.636 63.7298 133.636C64.7858 133.636 65.5658 132.964 65.5658 132.016C65.5658 131.068 64.7858 130.396 63.7298 130.396ZM79.6288 129.088H80.6248V139.936H79.6288V129.088ZM76.4488 130.252H77.4328C77.4328 133.396 76.0168 136.144 72.3928 137.92L71.8648 137.116C74.9968 135.604 76.4488 133.3 76.4488 130.42V130.252ZM72.3568 130.252H76.8808V131.068H72.3568V130.252Z" fill="#222222"/>
<path d="M24.924 155.844H30.72V156.66H24.924V155.844ZM24.744 160.68L24.624 159.852C26.496 159.852 29.088 159.828 31.224 159.552L31.296 160.296C29.112 160.644 26.58 160.68 24.744 160.68ZM25.992 156.384H26.952V160.212H25.992V156.384ZM28.68 156.384H29.64V160.212H28.68V156.384ZM32.016 155.088H33.012V161.088H32.016V155.088ZM32.736 157.608H34.62V158.436H32.736V157.608ZM26.172 161.568H27.156V162.84H32.028V161.568H33.012V165.792H26.172V161.568ZM27.156 163.644V164.976H32.028V163.644H27.156ZM40.0311 158.88H41.0151V160.908H40.0311V158.88ZM40.0191 155.256H40.8831V155.736C40.8831 157.692 38.8071 159.084 36.5991 159.444L36.2151 158.652C38.1591 158.388 40.0191 157.188 40.0191 155.736V155.256ZM40.1751 155.256H41.0271V155.736C41.0271 157.188 42.8991 158.388 44.8311 158.652L44.4591 159.444C42.2631 159.072 40.1751 157.692 40.1751 155.736V155.256ZM35.6271 160.476H45.4311V161.268H35.6271V160.476ZM40.5231 162.168C42.8511 162.168 44.2431 162.84 44.2431 164.04C44.2431 165.252 42.8511 165.912 40.5231 165.912C38.1951 165.912 36.8031 165.252 36.8031 164.04C36.8031 162.84 38.1951 162.168 40.5231 162.168ZM40.5231 162.936C38.8191 162.936 37.8111 163.332 37.8111 164.04C37.8111 164.748 38.8191 165.144 40.5231 165.144C42.2391 165.144 43.2351 164.748 43.2351 164.04C43.2351 163.332 42.2391 162.936 40.5231 162.936ZM49.6547 160.188H59.4587V161.004H49.6547V160.188ZM50.9147 158.22H58.3307V159.036H50.9147V158.22ZM50.9147 155.424H58.2107V156.24H51.9107V158.7H50.9147V155.424ZM50.8787 164.976H58.3787V165.792H50.8787V164.976ZM50.8787 162.168H58.2707V162.972H51.8747V165.444H50.8787V162.168ZM68.5898 155.088H69.5858V165.936H68.5898V155.088ZM65.4098 156.252H66.3938C66.3938 159.396 64.9778 162.144 61.3538 163.92L60.8258 163.116C63.9578 161.604 65.4098 159.3 65.4098 156.42V156.252ZM61.3178 156.252H65.8418V157.068H61.3178V156.252Z" fill="#222222"/>
<path d="M24.924 181.844H30.72V182.66H24.924V181.844ZM24.744 186.68L24.624 185.852C26.496 185.852 29.088 185.828 31.224 185.552L31.296 186.296C29.112 186.644 26.58 186.68 24.744 186.68ZM25.992 182.384H26.952V186.212H25.992V182.384ZM28.68 182.384H29.64V186.212H28.68V182.384ZM32.016 181.088H33.012V187.088H32.016V181.088ZM32.736 183.608H34.62V184.436H32.736V183.608ZM26.172 187.568H27.156V188.84H32.028V187.568H33.012V191.792H26.172V187.568ZM27.156 189.644V190.976H32.028V189.644H27.156ZM40.0311 184.88H41.0151V186.908H40.0311V184.88ZM40.0191 181.256H40.8831V181.736C40.8831 183.692 38.8071 185.084 36.5991 185.444L36.2151 184.652C38.1591 184.388 40.0191 183.188 40.0191 181.736V181.256ZM40.1751 181.256H41.0271V181.736C41.0271 183.188 42.8991 184.388 44.8311 184.652L44.4591 185.444C42.2631 185.072 40.1751 183.692 40.1751 181.736V181.256ZM35.6271 186.476H45.4311V187.268H35.6271V186.476ZM40.5231 188.168C42.8511 188.168 44.2431 188.84 44.2431 190.04C44.2431 191.252 42.8511 191.912 40.5231 191.912C38.1951 191.912 36.8031 191.252 36.8031 190.04C36.8031 188.84 38.1951 188.168 40.5231 188.168ZM40.5231 188.936C38.8191 188.936 37.8111 189.332 37.8111 190.04C37.8111 190.748 38.8191 191.144 40.5231 191.144C42.2391 191.144 43.2351 190.748 43.2351 190.04C43.2351 189.332 42.2391 188.936 40.5231 188.936ZM49.6547 186.188H59.4587V187.004H49.6547V186.188ZM50.9147 184.22H58.3307V185.036H50.9147V184.22ZM50.9147 181.424H58.2107V182.24H51.9107V184.7H50.9147V181.424ZM50.8787 190.976H58.3787V191.792H50.8787V190.976ZM50.8787 188.168H58.2707V188.972H51.8747V191.444H50.8787V188.168ZM68.5898 181.088H69.5858V191.936H68.5898V181.088ZM65.4098 182.252H66.3938C66.3938 185.396 64.9778 188.144 61.3538 189.92L60.8258 189.116C63.9578 187.604 65.4098 185.3 65.4098 182.42V182.252ZM61.3178 182.252H65.8418V183.068H61.3178V182.252Z" fill="#222222"/>
<rect x="12" y="51" width="135" height="0.5" fill="#DFDFDF"/>
</svg>
