<svg width="389" height="60" viewBox="0 0 389 60" fill="none" xmlns="http://www.w3.org/2000/svg">
<rect width="389" height="60" fill="white"/>
<rect x="16.25" y="8.25" width="356.5" height="43.5" rx="2.75" stroke="#DFDFDF" stroke-width="0.5"/>
<path d="M26.0801 29.9395L25.2129 29.7168L25.6406 25.4688H30.0176V26.4707H26.5605L26.3027 28.791C26.459 28.7012 26.6562 28.6172 26.8945 28.5391C27.1367 28.4609 27.4141 28.4219 27.7266 28.4219C28.1211 28.4219 28.4746 28.4902 28.7871 28.627C29.0996 28.7598 29.3652 28.9512 29.584 29.2012C29.8066 29.4512 29.9766 29.752 30.0938 30.1035C30.2109 30.4551 30.2695 30.8477 30.2695 31.2812C30.2695 31.6914 30.2129 32.0684 30.0996 32.4121C29.9902 32.7559 29.8242 33.0566 29.6016 33.3145C29.3789 33.5684 29.0977 33.7656 28.7578 33.9062C28.4219 34.0469 28.0254 34.1172 27.5684 34.1172C27.2246 34.1172 26.8984 34.0703 26.5898 33.9766C26.2852 33.8789 26.0117 33.7324 25.7695 33.5371C25.5312 33.3379 25.3359 33.0918 25.1836 32.7988C25.0352 32.502 24.9414 32.1543 24.9023 31.7559H25.9336C25.9805 32.0762 26.0742 32.3457 26.2148 32.5645C26.3555 32.7832 26.5391 32.9492 26.7656 33.0625C26.9961 33.1719 27.2637 33.2266 27.5684 33.2266C27.8262 33.2266 28.0547 33.1816 28.2539 33.0918C28.4531 33.002 28.6211 32.873 28.7578 32.7051C28.8945 32.5371 28.998 32.334 29.0684 32.0957C29.1426 31.8574 29.1797 31.5898 29.1797 31.293C29.1797 31.0234 29.1426 30.7734 29.0684 30.543C28.9941 30.3125 28.8828 30.1113 28.7344 29.9395C28.5898 29.7676 28.4121 29.6348 28.2012 29.541C27.9902 29.4434 27.748 29.3945 27.4746 29.3945C27.1113 29.3945 26.8359 29.4434 26.6484 29.541C26.4648 29.6387 26.2754 29.7715 26.0801 29.9395ZM34.254 28.576H35.25V30.508H34.254V28.576ZM39.234 24.088H40.23V30.472H39.234V24.088ZM31.434 28.912L31.314 28.168C33.402 28.168 36.054 28.156 38.37 27.892L38.43 28.54C36.054 28.888 33.462 28.912 31.434 28.912ZM32.958 30.868H40.23V33.124H33.954V34.348H32.982V32.464H39.246V31.588H32.958V30.868ZM32.982 34.096H40.59V34.816H32.982V34.096ZM37.074 29.248H39.546V29.896H37.074V29.248ZM34.818 24.292C36.426 24.292 37.482 24.916 37.482 25.924C37.482 26.932 36.426 27.556 34.818 27.556C33.198 27.556 32.142 26.932 32.142 25.924C32.142 24.916 33.198 24.292 34.818 24.292ZM34.818 24.988C33.75 24.988 33.066 25.348 33.066 25.924C33.066 26.5 33.75 26.86 34.818 26.86C35.862 26.86 36.546 26.5 36.546 25.924C36.546 25.348 35.862 24.988 34.818 24.988ZM49.7096 24.832H50.5736V25.66C50.5736 28.024 48.3776 29.86 46.2056 30.352L45.7616 29.524C47.6696 29.164 49.7096 27.508 49.7096 25.66V24.832ZM49.8896 24.832H50.7536V25.66C50.7536 27.52 52.8056 29.164 54.7016 29.524L54.2576 30.352C52.0976 29.86 49.8896 28.036 49.8896 25.66V24.832ZM45.3656 32.656H55.1936V33.472H45.3656V32.656ZM64.3487 24.076H65.3327V34.948H64.3487V24.076ZM62.0927 28.168H64.4927V28.996H62.0927V28.168ZM56.8967 31.516H57.7247C59.7647 31.516 61.0487 31.48 62.5727 31.192L62.6687 32.008C61.1087 32.284 59.7887 32.344 57.7247 32.344H56.8967V31.516ZM56.8967 25.072H61.9127V25.9H57.8807V31.804H56.8967V25.072ZM57.6287 28.12H61.4447V28.924H57.6287V28.12ZM75.3158 24.088H76.3118V34.96H75.3158V24.088ZM68.1398 31.42H69.0158C71.1638 31.42 72.5558 31.348 74.1638 31.048L74.2718 31.888C72.6158 32.2 71.1998 32.26 69.0158 32.26H68.1398V31.42ZM68.1398 25.12H73.2638V25.948H69.1238V31.732H68.1398V25.12ZM85.8034 25.156H86.6674V25.612C86.6674 27.556 84.6034 28.984 82.4194 29.356L82.0354 28.564C83.9434 28.288 85.8034 27.04 85.8034 25.612V25.156ZM86.0554 25.156H86.9074V25.612C86.9074 27.04 88.7794 28.288 90.6754 28.564L90.3034 29.356C88.1074 28.984 86.0554 27.556 86.0554 25.612V25.156ZM85.8394 30.796H86.8234V34.936H85.8394V30.796ZM81.4594 30.268H91.2634V31.084H81.4594V30.268ZM82.3714 24.76H90.3154V25.564H82.3714V24.76ZM100.742 24.088H101.702V34.936H100.742V24.088ZM96.7944 27.976H98.8704V28.804H96.7944V27.976ZM98.5704 24.34H99.5064V34.384H98.5704V24.34ZM94.7064 25.768H95.4744V27.148C95.4744 29.524 94.5624 31.768 92.9664 32.776L92.3544 32.032C93.8664 31.12 94.7064 29.14 94.7064 27.148V25.768ZM94.9104 25.768H95.6784V27.148C95.6784 29.032 96.4944 30.916 97.9824 31.78L97.3704 32.512C95.7864 31.552 94.9104 29.416 94.9104 27.148V25.768ZM92.6544 25.348H97.6104V26.176H92.6544V25.348Z" fill="#222222"/>
<line x1="103.5" y1="23" x2="103.5" y2="37" stroke="#222222"/>
<path d="M353 40C358.523 40 363 35.5228 363 30C363 24.4772 358.523 20 353 20C347.477 20 343 24.4772 343 30C343 35.5228 347.477 40 353 40Z" stroke="#6F6F6F" stroke-width="2" stroke-linecap="round" stroke-linejoin="round"/>
<path d="M357 29L353 25L349 29" stroke="#6F6F6F" stroke-width="2" stroke-linecap="square" stroke-linejoin="round"/>
<path d="M353 35V27" stroke="#6F6F6F" stroke-width="2" stroke-linecap="square" stroke-linejoin="round"/>
</svg>
