<svg width="342" height="41" viewBox="0 0 342 41" fill="none" xmlns="http://www.w3.org/2000/svg">
<path d="M10.0781 8.95312V9.67188C10.0781 10.526 9.97135 11.2917 9.75781 11.9688C9.54427 12.6458 9.23698 13.2214 8.83594 13.6953C8.4349 14.1693 7.95312 14.5312 7.39062 14.7812C6.83333 15.0312 6.20833 15.1562 5.51562 15.1562C4.84375 15.1562 4.22656 15.0312 3.66406 14.7812C3.10677 14.5312 2.6224 14.1693 2.21094 13.6953C1.80469 13.2214 1.48958 12.6458 1.26562 11.9688C1.04167 11.2917 0.929688 10.526 0.929688 9.67188V8.95312C0.929688 8.09896 1.03906 7.33594 1.25781 6.66406C1.48177 5.98698 1.79688 5.41146 2.20312 4.9375C2.60938 4.45833 3.09115 4.09375 3.64844 3.84375C4.21094 3.59375 4.82812 3.46875 5.5 3.46875C6.19271 3.46875 6.81771 3.59375 7.375 3.84375C7.9375 4.09375 8.41927 4.45833 8.82031 4.9375C9.22656 5.41146 9.53646 5.98698 9.75 6.66406C9.96875 7.33594 10.0781 8.09896 10.0781 8.95312ZM8.58594 9.67188V8.9375C8.58594 8.26042 8.51562 7.66146 8.375 7.14062C8.23958 6.61979 8.03906 6.18229 7.77344 5.82812C7.50781 5.47396 7.18229 5.20573 6.79688 5.02344C6.41667 4.84115 5.98438 4.75 5.5 4.75C5.03125 4.75 4.60677 4.84115 4.22656 5.02344C3.85156 5.20573 3.52865 5.47396 3.25781 5.82812C2.99219 6.18229 2.78646 6.61979 2.64062 7.14062C2.49479 7.66146 2.42188 8.26042 2.42188 8.9375V9.67188C2.42188 10.3542 2.49479 10.9583 2.64062 11.4844C2.78646 12.0052 2.99479 12.4453 3.26562 12.8047C3.54167 13.1589 3.86719 13.4271 4.24219 13.6094C4.6224 13.7917 5.04688 13.8828 5.51562 13.8828C6.00521 13.8828 6.4401 13.7917 6.82031 13.6094C7.20052 13.4271 7.52083 13.1589 7.78125 12.8047C8.04688 12.4453 8.2474 12.0052 8.38281 11.4844C8.51823 10.9583 8.58594 10.3542 8.58594 9.67188ZM21.0938 8.95312V9.67188C21.0938 10.526 20.987 11.2917 20.7734 11.9688C20.5599 12.6458 20.2526 13.2214 19.8516 13.6953C19.4505 14.1693 18.9688 14.5312 18.4062 14.7812C17.849 15.0312 17.224 15.1562 16.5312 15.1562C15.8594 15.1562 15.2422 15.0312 14.6797 14.7812C14.1224 14.5312 13.638 14.1693 13.2266 13.6953C12.8203 13.2214 12.5052 12.6458 12.2812 11.9688C12.0573 11.2917 11.9453 10.526 11.9453 9.67188V8.95312C11.9453 8.09896 12.0547 7.33594 12.2734 6.66406C12.4974 5.98698 12.8125 5.41146 13.2188 4.9375C13.625 4.45833 14.1068 4.09375 14.6641 3.84375C15.2266 3.59375 15.8438 3.46875 16.5156 3.46875C17.2083 3.46875 17.8333 3.59375 18.3906 3.84375C18.9531 4.09375 19.4349 4.45833 19.8359 4.9375C20.2422 5.41146 20.5521 5.98698 20.7656 6.66406C20.9844 7.33594 21.0938 8.09896 21.0938 8.95312ZM19.6016 9.67188V8.9375C19.6016 8.26042 19.5312 7.66146 19.3906 7.14062C19.2552 6.61979 19.0547 6.18229 18.7891 5.82812C18.5234 5.47396 18.1979 5.20573 17.8125 5.02344C17.4323 4.84115 17 4.75 16.5156 4.75C16.0469 4.75 15.6224 4.84115 15.2422 5.02344C14.8672 5.20573 14.5443 5.47396 14.2734 5.82812C14.0078 6.18229 13.8021 6.61979 13.6562 7.14062C13.5104 7.66146 13.4375 8.26042 13.4375 8.9375V9.67188C13.4375 10.3542 13.5104 10.9583 13.6562 11.4844C13.8021 12.0052 14.0104 12.4453 14.2812 12.8047C14.5573 13.1589 14.8828 13.4271 15.2578 13.6094C15.638 13.7917 16.0625 13.8828 16.5312 13.8828C17.0208 13.8828 17.4557 13.7917 17.8359 13.6094C18.2161 13.4271 18.5365 13.1589 18.7969 12.8047C19.0625 12.4453 19.263 12.0052 19.3984 11.4844C19.5339 10.9583 19.6016 10.3542 19.6016 9.67188ZM33.3433 1.784H34.6713V9.976H33.3433V1.784ZM23.7273 2.616H25.0393V8.504H23.7273V2.616ZM23.7273 7.768H24.8953C27.3113 7.768 29.4713 7.608 31.7753 7.128L31.9673 8.216C29.5673 8.728 27.3913 8.888 24.8953 8.888H23.7273V7.768ZM25.3273 10.68H34.6713V16.056H25.3273V10.68ZM33.3753 11.736H26.6233V14.968H33.3753V11.736Z" fill="black"/>
<path d="M4.93359 31.6602H5.91797V37.8652C5.91797 38.4238 5.80469 38.9004 5.57812 39.2949C5.35156 39.6895 5.03516 39.9883 4.62891 40.1914C4.22656 40.3984 3.76172 40.502 3.23438 40.502C3.01562 40.502 2.75781 40.4668 2.46094 40.3965C2.16797 40.3301 1.87891 40.2148 1.59375 40.0508C1.3125 39.8906 1.07617 39.6738 0.884766 39.4004L1.45312 38.7559C1.71875 39.0762 1.99609 39.2988 2.28516 39.4238C2.57812 39.5488 2.86719 39.6113 3.15234 39.6113C3.49609 39.6113 3.79297 39.5469 4.04297 39.418C4.29297 39.2891 4.48633 39.0977 4.62305 38.8438C4.76367 38.5938 4.83398 38.2852 4.83398 37.918V33.0547L4.93359 31.6602ZM0.568359 34.9004V34.7773C0.568359 34.293 0.625 33.8535 0.738281 33.459C0.855469 33.0605 1.02148 32.7188 1.23633 32.4336C1.45508 32.1484 1.71875 31.9297 2.02734 31.7773C2.33594 31.6211 2.68359 31.543 3.07031 31.543C3.46875 31.543 3.81641 31.6133 4.11328 31.7539C4.41406 31.8906 4.66797 32.0918 4.875 32.3574C5.08594 32.6191 5.25195 32.9355 5.37305 33.3066C5.49414 33.6777 5.57812 34.0977 5.625 34.5664V35.1055C5.58203 35.5703 5.49805 35.9883 5.37305 36.3594C5.25195 36.7305 5.08594 37.0469 4.875 37.3086C4.66797 37.5703 4.41406 37.7715 4.11328 37.9121C3.8125 38.0488 3.46094 38.1172 3.05859 38.1172C2.67969 38.1172 2.33594 38.0371 2.02734 37.877C1.72266 37.7168 1.46094 37.4922 1.24219 37.2031C1.02344 36.9141 0.855469 36.5742 0.738281 36.1836C0.625 35.7891 0.568359 35.3613 0.568359 34.9004ZM1.65234 34.7773V34.9004C1.65234 35.2168 1.68359 35.5137 1.74609 35.791C1.8125 36.0684 1.91211 36.3125 2.04492 36.5234C2.18164 36.7344 2.35547 36.9004 2.56641 37.0215C2.77734 37.1387 3.0293 37.1973 3.32227 37.1973C3.68164 37.1973 3.97852 37.1211 4.21289 36.9688C4.44727 36.8164 4.63281 36.6152 4.76953 36.3652C4.91016 36.1152 5.01953 35.8438 5.09766 35.5508V34.1387C5.05469 33.9238 4.98828 33.7168 4.89844 33.5176C4.8125 33.3145 4.69922 33.1348 4.55859 32.9785C4.42188 32.8184 4.25195 32.6914 4.04883 32.5977C3.8457 32.5039 3.60742 32.457 3.33398 32.457C3.03711 32.457 2.78125 32.5195 2.56641 32.6445C2.35547 32.7656 2.18164 32.9336 2.04492 33.1484C1.91211 33.3594 1.8125 33.6055 1.74609 33.8867C1.68359 34.1641 1.65234 34.4609 1.65234 34.7773ZM8.64844 32.6562V38H7.56445V31.6602H8.61914L8.64844 32.6562ZM10.6289 31.625L10.623 32.6328C10.5332 32.6133 10.4473 32.6016 10.3652 32.5977C10.2871 32.5898 10.1973 32.5859 10.0957 32.5859C9.8457 32.5859 9.625 32.625 9.43359 32.7031C9.24219 32.7812 9.08008 32.8906 8.94727 33.0312C8.81445 33.1719 8.70898 33.3398 8.63086 33.5352C8.55664 33.7266 8.50781 33.9375 8.48438 34.168L8.17969 34.3438C8.17969 33.9609 8.2168 33.6016 8.29102 33.2656C8.36914 32.9297 8.48828 32.6328 8.64844 32.375C8.80859 32.1133 9.01172 31.9102 9.25781 31.7656C9.50781 31.6172 9.80469 31.543 10.1484 31.543C10.2266 31.543 10.3164 31.5527 10.418 31.5723C10.5195 31.5879 10.5898 31.6055 10.6289 31.625ZM11.2266 34.9004V34.7656C11.2266 34.3086 11.293 33.8848 11.4258 33.4941C11.5586 33.0996 11.75 32.7578 12 32.4688C12.25 32.1758 12.5527 31.9492 12.9082 31.7891C13.2637 31.625 13.6621 31.543 14.1035 31.543C14.5488 31.543 14.9492 31.625 15.3047 31.7891C15.6641 31.9492 15.9688 32.1758 16.2188 32.4688C16.4727 32.7578 16.666 33.0996 16.7988 33.4941C16.9316 33.8848 16.998 34.3086 16.998 34.7656V34.9004C16.998 35.3574 16.9316 35.7812 16.7988 36.1719C16.666 36.5625 16.4727 36.9043 16.2188 37.1973C15.9688 37.4863 15.666 37.7129 15.3105 37.877C14.959 38.0371 14.5605 38.1172 14.1152 38.1172C13.6699 38.1172 13.2695 38.0371 12.9141 37.877C12.5586 37.7129 12.2539 37.4863 12 37.1973C11.75 36.9043 11.5586 36.5625 11.4258 36.1719C11.293 35.7812 11.2266 35.3574 11.2266 34.9004ZM12.3105 34.7656V34.9004C12.3105 35.2168 12.3477 35.5156 12.4219 35.7969C12.4961 36.0742 12.6074 36.3203 12.7559 36.5352C12.9082 36.75 13.0977 36.9199 13.3242 37.0449C13.5508 37.166 13.8145 37.2266 14.1152 37.2266C14.4121 37.2266 14.6719 37.166 14.8945 37.0449C15.1211 36.9199 15.3086 36.75 15.457 36.5352C15.6055 36.3203 15.7168 36.0742 15.791 35.7969C15.8691 35.5156 15.9082 35.2168 15.9082 34.9004V34.7656C15.9082 34.4531 15.8691 34.1582 15.791 33.8809C15.7168 33.5996 15.6035 33.3516 15.4512 33.1367C15.3027 32.918 15.1152 32.7461 14.8887 32.6211C14.666 32.4961 14.4043 32.4336 14.1035 32.4336C13.8066 32.4336 13.5449 32.4961 13.3184 32.6211C13.0957 32.7461 12.9082 32.918 12.7559 33.1367C12.6074 33.3516 12.4961 33.5996 12.4219 33.8809C12.3477 34.1582 12.3105 34.4531 12.3105 34.7656ZM19.9629 36.875L21.5918 31.6602H22.3066L22.166 32.6973L20.5078 38H19.8105L19.9629 36.875ZM18.8672 31.6602L20.2559 36.9336L20.3555 38H19.623L17.7832 31.6602H18.8672ZM23.8652 36.8926L25.1895 31.6602H26.2676L24.4277 38H23.7012L23.8652 36.8926ZM22.4648 31.6602L24.0586 36.7871L24.2402 38H23.5488L21.8438 32.6855L21.7031 31.6602H22.4648ZM28.4648 32.8789V40.4375H27.375V31.6602H28.3711L28.4648 32.8789ZM32.7363 34.7773V34.9004C32.7363 35.3613 32.6816 35.7891 32.5723 36.1836C32.4629 36.5742 32.3027 36.9141 32.0918 37.2031C31.8848 37.4922 31.6289 37.7168 31.3242 37.877C31.0195 38.0371 30.6699 38.1172 30.2754 38.1172C29.873 38.1172 29.5176 38.0508 29.209 37.918C28.9004 37.7852 28.6387 37.5918 28.4238 37.3379C28.209 37.084 28.0371 36.7793 27.9082 36.4238C27.7832 36.0684 27.6973 35.668 27.6504 35.2227V34.5664C27.6973 34.0977 27.7852 33.6777 27.9141 33.3066C28.043 32.9355 28.2129 32.6191 28.4238 32.3574C28.6387 32.0918 28.8984 31.8906 29.2031 31.7539C29.5078 31.6133 29.8594 31.543 30.2578 31.543C30.6562 31.543 31.0098 31.6211 31.3184 31.7773C31.627 31.9297 31.8867 32.1484 32.0977 32.4336C32.3086 32.7188 32.4668 33.0605 32.5723 33.459C32.6816 33.8535 32.7363 34.293 32.7363 34.7773ZM31.6465 34.9004V34.7773C31.6465 34.4609 31.6133 34.1641 31.5469 33.8867C31.4805 33.6055 31.377 33.3594 31.2363 33.1484C31.0996 32.9336 30.9238 32.7656 30.709 32.6445C30.4941 32.5195 30.2383 32.457 29.9414 32.457C29.668 32.457 29.4297 32.5039 29.2266 32.5977C29.0273 32.6914 28.8574 32.8184 28.7168 32.9785C28.5762 33.1348 28.4609 33.3145 28.3711 33.5176C28.2852 33.7168 28.2207 33.9238 28.1777 34.1387V35.6562C28.2559 35.9297 28.3652 36.1875 28.5059 36.4297C28.6465 36.668 28.834 36.8613 29.0684 37.0098C29.3027 37.1543 29.5977 37.2266 29.9531 37.2266C30.2461 37.2266 30.498 37.166 30.709 37.0449C30.9238 36.9199 31.0996 36.75 31.2363 36.5352C31.377 36.3203 31.4805 36.0742 31.5469 35.7969C31.6133 35.5156 31.6465 35.2168 31.6465 34.9004ZM37.8574 36.916V33.6523C37.8574 33.4023 37.8066 33.1855 37.7051 33.002C37.6074 32.8145 37.459 32.6699 37.2598 32.5684C37.0605 32.4668 36.8145 32.416 36.5215 32.416C36.248 32.416 36.0078 32.4629 35.8008 32.5566C35.5977 32.6504 35.4375 32.7734 35.3203 32.9258C35.207 33.0781 35.1504 33.2422 35.1504 33.418H34.0664C34.0664 33.1914 34.125 32.9668 34.2422 32.7441C34.3594 32.5215 34.5273 32.3203 34.7461 32.1406C34.9688 31.957 35.2344 31.8125 35.543 31.707C35.8555 31.5977 36.2031 31.543 36.5859 31.543C37.0469 31.543 37.4531 31.6211 37.8047 31.7773C38.1602 31.9336 38.4375 32.1699 38.6367 32.4863C38.8398 32.7988 38.9414 33.1914 38.9414 33.6641V36.6172C38.9414 36.8281 38.959 37.0527 38.9941 37.291C39.0332 37.5293 39.0898 37.7344 39.1641 37.9062V38H38.0332C37.9785 37.875 37.9355 37.709 37.9043 37.502C37.873 37.291 37.8574 37.0957 37.8574 36.916ZM38.0449 34.1562L38.0566 34.918H36.9609C36.6523 34.918 36.377 34.9434 36.1348 34.9941C35.8926 35.041 35.6895 35.1133 35.5254 35.2109C35.3613 35.3086 35.2363 35.4316 35.1504 35.5801C35.0645 35.7246 35.0215 35.8945 35.0215 36.0898C35.0215 36.2891 35.0664 36.4707 35.1562 36.6348C35.2461 36.7988 35.3809 36.9297 35.5605 37.0273C35.7441 37.1211 35.9688 37.168 36.2344 37.168C36.5664 37.168 36.8594 37.0977 37.1133 36.957C37.3672 36.8164 37.5684 36.6445 37.7168 36.4414C37.8691 36.2383 37.9512 36.041 37.9629 35.8496L38.4258 36.3711C38.3984 36.5352 38.3242 36.7168 38.2031 36.916C38.082 37.1152 37.9199 37.3066 37.7168 37.4902C37.5176 37.6699 37.2793 37.8203 37.002 37.9414C36.7285 38.0586 36.4199 38.1172 36.0762 38.1172C35.6465 38.1172 35.2695 38.0332 34.9453 37.8652C34.625 37.6973 34.375 37.4727 34.1953 37.1914C34.0195 36.9062 33.9316 36.5879 33.9316 36.2363C33.9316 35.8965 33.998 35.5977 34.1309 35.3398C34.2637 35.0781 34.4551 34.8613 34.7051 34.6895C34.9551 34.5137 35.2559 34.3809 35.6074 34.291C35.959 34.2012 36.3516 34.1562 36.7852 34.1562H38.0449ZM41.8242 29V38H40.7344V29H41.8242ZM46.1953 38.1172C45.7539 38.1172 45.3535 38.043 44.9941 37.8945C44.6387 37.7422 44.332 37.5293 44.0742 37.2559C43.8203 36.9824 43.625 36.6582 43.4883 36.2832C43.3516 35.9082 43.2832 35.498 43.2832 35.0527V34.8066C43.2832 34.291 43.3594 33.832 43.5117 33.4297C43.6641 33.0234 43.8711 32.6797 44.1328 32.3984C44.3945 32.1172 44.6914 31.9043 45.0234 31.7598C45.3555 31.6152 45.6992 31.543 46.0547 31.543C46.5078 31.543 46.8984 31.6211 47.2266 31.7773C47.5586 31.9336 47.8301 32.1523 48.041 32.4336C48.252 32.7109 48.4082 33.0391 48.5098 33.418C48.6113 33.793 48.6621 34.2031 48.6621 34.6484V35.1348H43.9277V34.25H47.5781V34.168C47.5625 33.8867 47.5039 33.6133 47.4023 33.3477C47.3047 33.082 47.1484 32.8633 46.9336 32.6914C46.7188 32.5195 46.4258 32.4336 46.0547 32.4336C45.8086 32.4336 45.582 32.4863 45.375 32.5918C45.168 32.6934 44.9902 32.8457 44.8418 33.0488C44.6934 33.252 44.5781 33.5 44.4961 33.793C44.4141 34.0859 44.373 34.4238 44.373 34.8066V35.0527C44.373 35.3535 44.4141 35.6367 44.4961 35.9023C44.582 36.1641 44.7051 36.3945 44.8652 36.5938C45.0293 36.793 45.2266 36.9492 45.457 37.0625C45.6914 37.1758 45.957 37.2324 46.2539 37.2324C46.6367 37.2324 46.9609 37.1543 47.2266 36.998C47.4922 36.8418 47.7246 36.6328 47.9238 36.3711L48.5801 36.8926C48.4434 37.0996 48.2695 37.2969 48.0586 37.4844C47.8477 37.6719 47.5879 37.8242 47.2793 37.9414C46.9746 38.0586 46.6133 38.1172 46.1953 38.1172ZM52.582 31.6602V32.4922H49.1543V31.6602H52.582ZM50.3145 30.1191H51.3984V36.4297C51.3984 36.6445 51.4316 36.8066 51.498 36.916C51.5645 37.0254 51.6504 37.0977 51.7559 37.1328C51.8613 37.168 51.9746 37.1855 52.0957 37.1855C52.1855 37.1855 52.2793 37.1777 52.377 37.1621C52.4785 37.1426 52.5547 37.127 52.6055 37.1152L52.6113 38C52.5254 38.0273 52.4121 38.0527 52.2715 38.0762C52.1348 38.1035 51.9688 38.1172 51.7734 38.1172C51.5078 38.1172 51.2637 38.0645 51.041 37.959C50.8184 37.8535 50.6406 37.6777 50.5078 37.4316C50.3789 37.1816 50.3145 36.8457 50.3145 36.4238V30.1191ZM56.5078 31.6602V32.4922H53.0801V31.6602H56.5078ZM54.2402 30.1191H55.3242V36.4297C55.3242 36.6445 55.3574 36.8066 55.4238 36.916C55.4902 37.0254 55.5762 37.0977 55.6816 37.1328C55.7871 37.168 55.9004 37.1855 56.0215 37.1855C56.1113 37.1855 56.2051 37.1777 56.3027 37.1621C56.4043 37.1426 56.4805 37.127 56.5312 37.1152L56.5371 38C56.4512 38.0273 56.3379 38.0527 56.1973 38.0762C56.0605 38.1035 55.8945 38.1172 55.6992 38.1172C55.4336 38.1172 55.1895 38.0645 54.9668 37.959C54.7441 37.8535 54.5664 37.6777 54.4336 37.4316C54.3047 37.1816 54.2402 36.8457 54.2402 36.4238V30.1191ZM60.4102 38.1172C59.9688 38.1172 59.5684 38.043 59.209 37.8945C58.8535 37.7422 58.5469 37.5293 58.2891 37.2559C58.0352 36.9824 57.8398 36.6582 57.7031 36.2832C57.5664 35.9082 57.498 35.498 57.498 35.0527V34.8066C57.498 34.291 57.5742 33.832 57.7266 33.4297C57.8789 33.0234 58.0859 32.6797 58.3477 32.3984C58.6094 32.1172 58.9062 31.9043 59.2383 31.7598C59.5703 31.6152 59.9141 31.543 60.2695 31.543C60.7227 31.543 61.1133 31.6211 61.4414 31.7773C61.7734 31.9336 62.0449 32.1523 62.2559 32.4336C62.4668 32.7109 62.623 33.0391 62.7246 33.418C62.8262 33.793 62.877 34.2031 62.877 34.6484V35.1348H58.1426V34.25H61.793V34.168C61.7773 33.8867 61.7188 33.6133 61.6172 33.3477C61.5195 33.082 61.3633 32.8633 61.1484 32.6914C60.9336 32.5195 60.6406 32.4336 60.2695 32.4336C60.0234 32.4336 59.7969 32.4863 59.5898 32.5918C59.3828 32.6934 59.2051 32.8457 59.0566 33.0488C58.9082 33.252 58.793 33.5 58.7109 33.793C58.6289 34.0859 58.5879 34.4238 58.5879 34.8066V35.0527C58.5879 35.3535 58.6289 35.6367 58.7109 35.9023C58.7969 36.1641 58.9199 36.3945 59.0801 36.5938C59.2441 36.793 59.4414 36.9492 59.6719 37.0625C59.9062 37.1758 60.1719 37.2324 60.4688 37.2324C60.8516 37.2324 61.1758 37.1543 61.4414 36.998C61.707 36.8418 61.9395 36.6328 62.1387 36.3711L62.7949 36.8926C62.6582 37.0996 62.4844 37.2969 62.2734 37.4844C62.0625 37.6719 61.8027 37.8242 61.4941 37.9414C61.1895 38.0586 60.8281 38.1172 60.4102 38.1172ZM67.5879 29.4219V38H66.5039V30.7754L64.3184 31.5723V30.5938L67.418 29.4219H67.5879ZM76.3652 37.1094V38H70.7812V37.2207L73.5762 34.1094C73.9199 33.7266 74.1855 33.4023 74.373 33.1367C74.5645 32.8672 74.6973 32.627 74.7715 32.416C74.8496 32.2012 74.8887 31.9824 74.8887 31.7598C74.8887 31.4785 74.8301 31.2246 74.7129 30.998C74.5996 30.7676 74.4316 30.584 74.209 30.4473C73.9863 30.3105 73.7168 30.2422 73.4004 30.2422C73.0215 30.2422 72.7051 30.3164 72.4512 30.4648C72.2012 30.6094 72.0137 30.8125 71.8887 31.0742C71.7637 31.3359 71.7012 31.6367 71.7012 31.9766H70.6172C70.6172 31.4961 70.7227 31.0566 70.9336 30.6582C71.1445 30.2598 71.457 29.9434 71.8711 29.709C72.2852 29.4707 72.7949 29.3516 73.4004 29.3516C73.9395 29.3516 74.4004 29.4473 74.7832 29.6387C75.166 29.8262 75.459 30.0918 75.6621 30.4355C75.8691 30.7754 75.9727 31.1738 75.9727 31.6309C75.9727 31.8809 75.9297 32.1348 75.8438 32.3926C75.7617 32.6465 75.6465 32.9004 75.498 33.1543C75.3535 33.4082 75.1836 33.6582 74.9883 33.9043C74.7969 34.1504 74.5918 34.3926 74.373 34.6309L72.0879 37.1094H76.3652ZM79.1074 33.2012H79.8809C80.2598 33.2012 80.5723 33.1387 80.8184 33.0137C81.0684 32.8848 81.2539 32.7109 81.375 32.4922C81.5 32.2695 81.5625 32.0195 81.5625 31.7422C81.5625 31.4141 81.5078 31.1387 81.3984 30.916C81.2891 30.6934 81.125 30.5254 80.9062 30.4121C80.6875 30.2988 80.4102 30.2422 80.0742 30.2422C79.7695 30.2422 79.5 30.3027 79.2656 30.4238C79.0352 30.541 78.8535 30.709 78.7207 30.9277C78.5918 31.1465 78.5273 31.4043 78.5273 31.7012H77.4434C77.4434 31.2676 77.5527 30.873 77.7715 30.5176C77.9902 30.1621 78.2969 29.8789 78.6914 29.668C79.0898 29.457 79.5508 29.3516 80.0742 29.3516C80.5898 29.3516 81.041 29.4434 81.4277 29.627C81.8145 29.8066 82.1152 30.0762 82.3301 30.4355C82.5449 30.791 82.6523 31.2344 82.6523 31.7656C82.6523 31.9805 82.6016 32.2109 82.5 32.457C82.4023 32.6992 82.248 32.9258 82.0371 33.1367C81.8301 33.3477 81.5605 33.5215 81.2285 33.6582C80.8965 33.791 80.498 33.8574 80.0332 33.8574H79.1074V33.2012ZM79.1074 34.0918V33.4414H80.0332C80.5762 33.4414 81.0254 33.5059 81.3809 33.6348C81.7363 33.7637 82.0156 33.9355 82.2188 34.1504C82.4258 34.3652 82.5703 34.6016 82.6523 34.8594C82.7383 35.1133 82.7812 35.3672 82.7812 35.6211C82.7812 36.0195 82.7129 36.373 82.5762 36.6816C82.4434 36.9902 82.2539 37.252 82.0078 37.4668C81.7656 37.6816 81.4805 37.8438 81.1523 37.9531C80.8242 38.0625 80.4668 38.1172 80.0801 38.1172C79.709 38.1172 79.3594 38.0645 79.0312 37.959C78.707 37.8535 78.4199 37.7012 78.1699 37.502C77.9199 37.2988 77.7246 37.0508 77.584 36.7578C77.4434 36.4609 77.373 36.123 77.373 35.7441H78.457C78.457 36.041 78.5215 36.3008 78.6504 36.5234C78.7832 36.7461 78.9707 36.9199 79.2129 37.0449C79.459 37.166 79.748 37.2266 80.0801 37.2266C80.4121 37.2266 80.6973 37.1699 80.9355 37.0566C81.1777 36.9395 81.3633 36.7637 81.4922 36.5293C81.625 36.2949 81.6914 36 81.6914 35.6445C81.6914 35.2891 81.6172 34.998 81.4688 34.7715C81.3203 34.541 81.1094 34.3711 80.8359 34.2617C80.5664 34.1484 80.248 34.0918 79.8809 34.0918H79.1074ZM93.7383 35.0527C93.7227 35.4121 93.668 35.7734 93.5742 36.1367C93.4805 36.4961 93.3398 36.8262 93.1523 37.127C92.9648 37.4277 92.7207 37.6699 92.4199 37.8535C92.123 38.0332 91.7637 38.123 91.3418 38.123C91.0723 38.123 90.8359 38.0762 90.6328 37.9824C90.4336 37.8848 90.2695 37.7461 90.1406 37.5664C90.0156 37.3867 89.9277 37.1699 89.877 36.916C89.8301 36.6621 89.8223 36.3789 89.8535 36.0664L90.1523 32.8203H91.0137L90.7148 36.0664C90.6914 36.3516 90.6973 36.584 90.7324 36.7637C90.7715 36.9434 90.8301 37.082 90.9082 37.1797C90.9863 37.2734 91.0742 37.3379 91.1719 37.373C91.2734 37.4082 91.3711 37.4258 91.4648 37.4258C91.6992 37.4258 91.9082 37.3652 92.0918 37.2441C92.2754 37.1191 92.4297 36.9492 92.5547 36.7344C92.6836 36.5156 92.7832 36.2637 92.8535 35.9785C92.9238 35.6895 92.9668 35.3809 92.9824 35.0527C93.0098 34.4707 92.9824 33.9355 92.9004 33.4473C92.8223 32.959 92.6875 32.5254 92.4961 32.1465C92.3086 31.7676 92.0625 31.4473 91.7578 31.1855C91.4531 30.9238 91.0898 30.7246 90.668 30.5879C90.2461 30.4512 89.7637 30.3828 89.2207 30.3828C88.7285 30.3828 88.2734 30.459 87.8555 30.6113C87.4414 30.7598 87.0684 30.9746 86.7363 31.2559C86.4082 31.5371 86.125 31.875 85.8867 32.2695C85.6523 32.6641 85.4668 33.1094 85.3301 33.6055C85.1973 34.0977 85.1191 34.6289 85.0957 35.1992C85.0684 35.7852 85.0996 36.3242 85.1895 36.8164C85.2793 37.3047 85.4238 37.7402 85.623 38.123C85.8262 38.5098 86.082 38.8359 86.3906 39.1016C86.6992 39.3711 87.0566 39.5742 87.4629 39.7109C87.8691 39.8516 88.3223 39.9219 88.8223 39.9219C89.166 39.9219 89.5137 39.8809 89.8652 39.7988C90.2207 39.7168 90.5176 39.6055 90.7559 39.4648L90.9785 40.1328C90.7051 40.3086 90.3633 40.4395 89.9531 40.5254C89.5469 40.6113 89.1621 40.6543 88.7988 40.6543C88.2051 40.6543 87.6621 40.5723 87.1699 40.4082C86.6816 40.248 86.248 40.0117 85.8691 39.6992C85.4941 39.3906 85.1816 39.0137 84.9316 38.5684C84.6816 38.127 84.498 37.623 84.3809 37.0566C84.2637 36.4902 84.2188 35.8711 84.2461 35.1992C84.2734 34.5586 84.3691 33.9551 84.5332 33.3887C84.7012 32.8223 84.9297 32.3086 85.2188 31.8477C85.5078 31.3867 85.8516 30.9902 86.25 30.6582C86.6523 30.3223 87.1035 30.0645 87.6035 29.8848C88.1074 29.7051 88.6543 29.6152 89.2441 29.6152C89.8457 29.6152 90.3906 29.6973 90.8789 29.8613C91.3672 30.0254 91.7949 30.2617 92.1621 30.5703C92.5332 30.8789 92.8398 31.2559 93.082 31.7012C93.3242 32.1465 93.5 32.6504 93.6094 33.2129C93.7227 33.7754 93.7656 34.3887 93.7383 35.0527ZM87.7207 35.5508C87.6934 35.8242 87.6934 36.0684 87.7207 36.2832C87.748 36.498 87.8008 36.6797 87.8789 36.8281C87.957 36.9766 88.0586 37.0898 88.1836 37.168C88.3125 37.2422 88.4629 37.2793 88.6348 37.2793C88.748 37.2793 88.8672 37.252 88.9922 37.1973C89.1172 37.1387 89.2402 37.0488 89.3613 36.9277C89.4824 36.8066 89.5957 36.6484 89.7012 36.4531C89.8066 36.2578 89.8945 36.0234 89.9648 35.75L90.3516 36.1719C90.2617 36.4922 90.1445 36.7734 90 37.0156C89.8594 37.2578 89.7012 37.4609 89.5254 37.625C89.3496 37.7891 89.1621 37.9141 88.9629 38C88.7676 38.082 88.5684 38.123 88.3652 38.123C88.0801 38.123 87.8301 38.0625 87.6152 37.9414C87.4004 37.8164 87.2266 37.6406 87.0938 37.4141C86.9609 37.1875 86.8672 36.918 86.8125 36.6055C86.7617 36.2891 86.7539 35.9375 86.7891 35.5508C86.8242 35.1406 86.8965 34.7617 87.0059 34.4141C87.1152 34.0664 87.25 33.7559 87.4102 33.4824C87.5742 33.209 87.7578 32.9766 87.9609 32.7852C88.168 32.5938 88.3867 32.4492 88.6172 32.3516C88.8477 32.25 89.084 32.1992 89.3262 32.1992C89.748 32.1992 90.0801 32.2617 90.3223 32.3867C90.5645 32.5078 90.7949 32.6523 91.0137 32.8203L90.5156 33.4004C90.4023 33.291 90.2539 33.1895 90.0703 33.0957C89.8867 33.002 89.6699 32.9551 89.4199 32.9551C89.2051 32.9551 89.0039 33.0098 88.8164 33.1191C88.6289 33.2285 88.459 33.3926 88.3066 33.6113C88.1582 33.8301 88.0332 34.1016 87.9316 34.4258C87.8301 34.7461 87.7598 35.1211 87.7207 35.5508ZM96.2578 33.0137V38H95.1738V31.6602H96.1992L96.2578 33.0137ZM96 34.5898L95.5488 34.5723C95.5527 34.1387 95.6172 33.7383 95.7422 33.3711C95.8672 33 96.043 32.6777 96.2695 32.4043C96.4961 32.1309 96.7656 31.9199 97.0781 31.7715C97.3945 31.6191 97.7441 31.543 98.127 31.543C98.4395 31.543 98.7207 31.5859 98.9707 31.6719C99.2207 31.7539 99.4336 31.8867 99.6094 32.0703C99.7891 32.2539 99.9258 32.4922 100.02 32.7852C100.113 33.0742 100.16 33.4277 100.16 33.8457V38H99.0703V33.834C99.0703 33.502 99.0215 33.2363 98.9238 33.0371C98.8262 32.834 98.6836 32.6875 98.4961 32.5977C98.3086 32.5039 98.0781 32.457 97.8047 32.457C97.5352 32.457 97.2891 32.5137 97.0664 32.627C96.8477 32.7402 96.6582 32.8965 96.498 33.0957C96.3418 33.2949 96.2188 33.5234 96.1289 33.7812C96.043 34.0352 96 34.3047 96 34.5898ZM105.545 36.916V33.6523C105.545 33.4023 105.494 33.1855 105.393 33.002C105.295 32.8145 105.146 32.6699 104.947 32.5684C104.748 32.4668 104.502 32.416 104.209 32.416C103.936 32.416 103.695 32.4629 103.488 32.5566C103.285 32.6504 103.125 32.7734 103.008 32.9258C102.895 33.0781 102.838 33.2422 102.838 33.418H101.754C101.754 33.1914 101.812 32.9668 101.93 32.7441C102.047 32.5215 102.215 32.3203 102.434 32.1406C102.656 31.957 102.922 31.8125 103.23 31.707C103.543 31.5977 103.891 31.543 104.273 31.543C104.734 31.543 105.141 31.6211 105.492 31.7773C105.848 31.9336 106.125 32.1699 106.324 32.4863C106.527 32.7988 106.629 33.1914 106.629 33.6641V36.6172C106.629 36.8281 106.646 37.0527 106.682 37.291C106.721 37.5293 106.777 37.7344 106.852 37.9062V38H105.721C105.666 37.875 105.623 37.709 105.592 37.502C105.561 37.291 105.545 37.0957 105.545 36.916ZM105.732 34.1562L105.744 34.918H104.648C104.34 34.918 104.064 34.9434 103.822 34.9941C103.58 35.041 103.377 35.1133 103.213 35.2109C103.049 35.3086 102.924 35.4316 102.838 35.5801C102.752 35.7246 102.709 35.8945 102.709 36.0898C102.709 36.2891 102.754 36.4707 102.844 36.6348C102.934 36.7988 103.068 36.9297 103.248 37.0273C103.432 37.1211 103.656 37.168 103.922 37.168C104.254 37.168 104.547 37.0977 104.801 36.957C105.055 36.8164 105.256 36.6445 105.404 36.4414C105.557 36.2383 105.639 36.041 105.65 35.8496L106.113 36.3711C106.086 36.5352 106.012 36.7168 105.891 36.916C105.77 37.1152 105.607 37.3066 105.404 37.4902C105.205 37.6699 104.967 37.8203 104.689 37.9414C104.416 38.0586 104.107 38.1172 103.764 38.1172C103.334 38.1172 102.957 38.0332 102.633 37.8652C102.312 37.6973 102.062 37.4727 101.883 37.1914C101.707 36.9062 101.619 36.5879 101.619 36.2363C101.619 35.8965 101.686 35.5977 101.818 35.3398C101.951 35.0781 102.143 34.8613 102.393 34.6895C102.643 34.5137 102.943 34.3809 103.295 34.291C103.646 34.2012 104.039 34.1562 104.473 34.1562H105.732ZM110.168 37.0215L111.902 31.6602H113.01L110.73 38H110.004L110.168 37.0215ZM108.721 31.6602L110.508 37.0508L110.631 38H109.904L107.607 31.6602H108.721ZM116.602 38.1172C116.16 38.1172 115.76 38.043 115.4 37.8945C115.045 37.7422 114.738 37.5293 114.48 37.2559C114.227 36.9824 114.031 36.6582 113.895 36.2832C113.758 35.9082 113.689 35.498 113.689 35.0527V34.8066C113.689 34.291 113.766 33.832 113.918 33.4297C114.07 33.0234 114.277 32.6797 114.539 32.3984C114.801 32.1172 115.098 31.9043 115.43 31.7598C115.762 31.6152 116.105 31.543 116.461 31.543C116.914 31.543 117.305 31.6211 117.633 31.7773C117.965 31.9336 118.236 32.1523 118.447 32.4336C118.658 32.7109 118.814 33.0391 118.916 33.418C119.018 33.793 119.068 34.2031 119.068 34.6484V35.1348H114.334V34.25H117.984V34.168C117.969 33.8867 117.91 33.6133 117.809 33.3477C117.711 33.082 117.555 32.8633 117.34 32.6914C117.125 32.5195 116.832 32.4336 116.461 32.4336C116.215 32.4336 115.988 32.4863 115.781 32.5918C115.574 32.6934 115.396 32.8457 115.248 33.0488C115.1 33.252 114.984 33.5 114.902 33.793C114.82 34.0859 114.779 34.4238 114.779 34.8066V35.0527C114.779 35.3535 114.82 35.6367 114.902 35.9023C114.988 36.1641 115.111 36.3945 115.271 36.5938C115.436 36.793 115.633 36.9492 115.863 37.0625C116.098 37.1758 116.363 37.2324 116.66 37.2324C117.043 37.2324 117.367 37.1543 117.633 36.998C117.898 36.8418 118.131 36.6328 118.33 36.3711L118.986 36.8926C118.85 37.0996 118.676 37.2969 118.465 37.4844C118.254 37.6719 117.994 37.8242 117.686 37.9414C117.381 38.0586 117.02 38.1172 116.602 38.1172ZM121.418 32.6562V38H120.334V31.6602H121.389L121.418 32.6562ZM123.398 31.625L123.393 32.6328C123.303 32.6133 123.217 32.6016 123.135 32.5977C123.057 32.5898 122.967 32.5859 122.865 32.5859C122.615 32.5859 122.395 32.625 122.203 32.7031C122.012 32.7812 121.85 32.8906 121.717 33.0312C121.584 33.1719 121.479 33.3398 121.4 33.5352C121.326 33.7266 121.277 33.9375 121.254 34.168L120.949 34.3438C120.949 33.9609 120.986 33.6016 121.061 33.2656C121.139 32.9297 121.258 32.6328 121.418 32.375C121.578 32.1133 121.781 31.9102 122.027 31.7656C122.277 31.6172 122.574 31.543 122.918 31.543C122.996 31.543 123.086 31.5527 123.188 31.5723C123.289 31.5879 123.359 31.6055 123.398 31.625ZM123.691 37.4258C123.691 37.2422 123.748 37.0879 123.861 36.9629C123.979 36.834 124.146 36.7695 124.365 36.7695C124.584 36.7695 124.75 36.834 124.863 36.9629C124.98 37.0879 125.039 37.2422 125.039 37.4258C125.039 37.6055 124.98 37.7578 124.863 37.8828C124.75 38.0078 124.584 38.0703 124.365 38.0703C124.146 38.0703 123.979 38.0078 123.861 37.8828C123.748 37.7578 123.691 37.6055 123.691 37.4258ZM129.375 37.2266C129.633 37.2266 129.871 37.1738 130.09 37.0684C130.309 36.9629 130.488 36.8184 130.629 36.6348C130.77 36.4473 130.85 36.2344 130.869 35.9961H131.9C131.881 36.3711 131.754 36.7207 131.52 37.0449C131.289 37.3652 130.986 37.625 130.611 37.8242C130.236 38.0195 129.824 38.1172 129.375 38.1172C128.898 38.1172 128.482 38.0332 128.127 37.8652C127.775 37.6973 127.482 37.4668 127.248 37.1738C127.018 36.8809 126.844 36.5449 126.727 36.166C126.613 35.7832 126.557 35.3789 126.557 34.9531V34.707C126.557 34.2812 126.613 33.8789 126.727 33.5C126.844 33.1172 127.018 32.7793 127.248 32.4863C127.482 32.1934 127.775 31.9629 128.127 31.7949C128.482 31.627 128.898 31.543 129.375 31.543C129.871 31.543 130.305 31.6445 130.676 31.8477C131.047 32.0469 131.338 32.3203 131.549 32.668C131.764 33.0117 131.881 33.4023 131.9 33.8398H130.869C130.85 33.5781 130.775 33.3418 130.646 33.1309C130.521 32.9199 130.35 32.752 130.131 32.627C129.916 32.498 129.664 32.4336 129.375 32.4336C129.043 32.4336 128.764 32.5 128.537 32.6328C128.314 32.7617 128.137 32.9375 128.004 33.1602C127.875 33.3789 127.781 33.623 127.723 33.8926C127.668 34.1582 127.641 34.4297 127.641 34.707V34.9531C127.641 35.2305 127.668 35.5039 127.723 35.7734C127.777 36.043 127.869 36.2871 127.998 36.5059C128.131 36.7246 128.309 36.9004 128.531 37.0332C128.758 37.1621 129.039 37.2266 129.375 37.2266ZM132.832 34.9004V34.7656C132.832 34.3086 132.898 33.8848 133.031 33.4941C133.164 33.0996 133.355 32.7578 133.605 32.4688C133.855 32.1758 134.158 31.9492 134.514 31.7891C134.869 31.625 135.268 31.543 135.709 31.543C136.154 31.543 136.555 31.625 136.91 31.7891C137.27 31.9492 137.574 32.1758 137.824 32.4688C138.078 32.7578 138.271 33.0996 138.404 33.4941C138.537 33.8848 138.604 34.3086 138.604 34.7656V34.9004C138.604 35.3574 138.537 35.7812 138.404 36.1719C138.271 36.5625 138.078 36.9043 137.824 37.1973C137.574 37.4863 137.271 37.7129 136.916 37.877C136.564 38.0371 136.166 38.1172 135.721 38.1172C135.275 38.1172 134.875 38.0371 134.52 37.877C134.164 37.7129 133.859 37.4863 133.605 37.1973C133.355 36.9043 133.164 36.5625 133.031 36.1719C132.898 35.7812 132.832 35.3574 132.832 34.9004ZM133.916 34.7656V34.9004C133.916 35.2168 133.953 35.5156 134.027 35.7969C134.102 36.0742 134.213 36.3203 134.361 36.5352C134.514 36.75 134.703 36.9199 134.93 37.0449C135.156 37.166 135.42 37.2266 135.721 37.2266C136.018 37.2266 136.277 37.166 136.5 37.0449C136.727 36.9199 136.914 36.75 137.062 36.5352C137.211 36.3203 137.322 36.0742 137.396 35.7969C137.475 35.5156 137.514 35.2168 137.514 34.9004V34.7656C137.514 34.4531 137.475 34.1582 137.396 33.8809C137.322 33.5996 137.209 33.3516 137.057 33.1367C136.908 32.918 136.721 32.7461 136.494 32.6211C136.271 32.4961 136.01 32.4336 135.709 32.4336C135.412 32.4336 135.15 32.4961 134.924 32.6211C134.701 32.7461 134.514 32.918 134.361 33.1367C134.213 33.3516 134.102 33.5996 134.027 33.8809C133.953 34.1582 133.916 34.4531 133.916 34.7656ZM141.041 32.9199V38H139.951V31.6602H140.982L141.041 32.9199ZM140.818 34.5898L140.314 34.5723C140.318 34.1387 140.375 33.7383 140.484 33.3711C140.594 33 140.756 32.6777 140.971 32.4043C141.186 32.1309 141.453 31.9199 141.773 31.7715C142.094 31.6191 142.465 31.543 142.887 31.543C143.184 31.543 143.457 31.5859 143.707 31.6719C143.957 31.7539 144.174 31.8848 144.357 32.0645C144.541 32.2441 144.684 32.4746 144.785 32.7559C144.887 33.0371 144.938 33.377 144.938 33.7754V38H143.854V33.8281C143.854 33.4961 143.797 33.2305 143.684 33.0312C143.574 32.832 143.418 32.6875 143.215 32.5977C143.012 32.5039 142.773 32.457 142.5 32.457C142.18 32.457 141.912 32.5137 141.697 32.627C141.482 32.7402 141.311 32.8965 141.182 33.0957C141.053 33.2949 140.959 33.5234 140.9 33.7812C140.846 34.0352 140.818 34.3047 140.818 34.5898ZM144.926 33.9922L144.199 34.2148C144.203 33.8672 144.26 33.5332 144.369 33.2129C144.482 32.8926 144.645 32.6074 144.855 32.3574C145.07 32.1074 145.334 31.9102 145.646 31.7656C145.959 31.6172 146.316 31.543 146.719 31.543C147.059 31.543 147.359 31.5879 147.621 31.6777C147.887 31.7676 148.109 31.9062 148.289 32.0938C148.473 32.2773 148.611 32.5137 148.705 32.8027C148.799 33.0918 148.846 33.4355 148.846 33.834V38H147.756V33.8223C147.756 33.4668 147.699 33.1914 147.586 32.9961C147.477 32.7969 147.32 32.6582 147.117 32.5801C146.918 32.498 146.68 32.457 146.402 32.457C146.164 32.457 145.953 32.498 145.77 32.5801C145.586 32.6621 145.432 32.7754 145.307 32.9199C145.182 33.0605 145.086 33.2227 145.02 33.4062C144.957 33.5898 144.926 33.7852 144.926 33.9922Z" fill="black"/>
<rect x="251.25" y="5.75" width="90.5" height="29.5" rx="2.75" stroke="black" stroke-width="0.5"/>
<path d="M267.6 23.216H277.428V24.044H267.6V23.216ZM268.452 15.668H276.504V16.484H268.452V15.668ZM268.476 20.252H276.492V21.068H268.476V20.252ZM270.144 16.424H271.14V20.336H270.144V16.424ZM273.84 16.424H274.824V20.336H273.84V16.424ZM278.639 23.276H288.467V24.104H278.639V23.276ZM283.031 20.948H284.027V23.624H283.031V20.948ZM279.827 15.392H287.255V18.68H280.847V20.852H279.863V17.876H286.271V16.196H279.827V15.392ZM279.863 20.432H287.507V21.248H279.863V20.432ZM297.574 14.588H298.582V20.204H297.574V14.588ZM291.502 20.732H298.582V23.348H292.51V24.98H291.538V22.604H297.586V21.524H291.502V20.732ZM291.538 24.524H298.978V25.316H291.538V24.524ZM290.158 15.32H295.978V16.112H290.158V15.32ZM289.966 19.844L289.858 19.016C291.79 19.016 294.382 18.968 296.494 18.704L296.554 19.436C294.394 19.76 291.874 19.832 289.966 19.844ZM291.226 15.68H292.186V19.376H291.226V15.68ZM293.938 15.68H294.91V19.376H293.938V15.68ZM311.614 14.588H312.61V22.664H311.614V14.588ZM304.006 15.464H309.718V16.28H304.006V15.464ZM303.826 21.032L303.718 20.18C305.494 20.18 308.026 20.156 310.054 19.916L310.114 20.66C308.026 20.996 305.59 21.032 303.826 21.032ZM305.086 16.16H306.046V20.324H305.086V16.16ZM307.678 16.16H308.638V20.324H307.678V16.16ZM309.814 16.64H312.142V17.456H309.814V16.64ZM309.814 18.716H312.142V19.532H309.814V18.716ZM305.674 24.38H312.898V25.196H305.674V24.38ZM305.674 22.004H306.67V24.896H305.674V22.004ZM317.613 15.524H318.441V16.352C318.441 18.26 317.193 19.868 315.369 20.492L314.865 19.7C316.497 19.172 317.613 17.828 317.613 16.352V15.524ZM317.805 15.524H318.633V16.352C318.633 17.756 319.773 19.016 321.369 19.52L320.877 20.3C319.077 19.712 317.805 18.188 317.805 16.352V15.524ZM315.141 15.296H321.081V16.1H315.141V15.296ZM322.617 14.588H323.625V20.456H322.617V14.588ZM316.629 20.996H317.613V22.28H322.641V20.996H323.625V25.292H316.629V20.996ZM317.613 23.084V24.476H322.641V23.084H317.613Z" fill="black"/>
</svg>
