<svg width="237" height="82" viewBox="0 0 237 82" fill="none" xmlns="http://www.w3.org/2000/svg">
<circle cx="38" cy="44" r="38" fill="#DFDFDF"/>
<rect x="50" width="187" height="25" rx="3" fill="#F5F5F5"/>
<path d="M61.414 6.668H67.238V14.914H61.414V6.668ZM66.104 7.606H62.548V13.976H66.104V7.606ZM69.884 5.422H71.046V18.106H69.884V5.422ZM73.9849 14.102H74.8249C76.3649 14.102 77.7649 14.046 79.4729 13.752L79.5709 14.718C77.8209 15.026 76.3929 15.068 74.8249 15.068H73.9849V14.102ZM73.9569 6.808H78.7029V11.26H75.1189V14.466H73.9849V10.308H77.5689V7.76H73.9569V6.808ZM83.1969 5.436H84.3169V18.092H83.1969V5.436ZM81.0549 10.434H83.4909V11.386H81.0549V10.434ZM80.3269 5.716H81.4189V17.448H80.3269V5.716ZM90.5598 6.346C92.5338 6.346 93.9478 7.564 93.9478 9.328C93.9478 11.106 92.5338 12.324 90.5598 12.324C88.5858 12.324 87.1578 11.106 87.1578 9.328C87.1578 7.564 88.5858 6.346 90.5598 6.346ZM90.5598 7.354C89.2438 7.354 88.2918 8.152 88.2918 9.328C88.2918 10.504 89.2438 11.316 90.5598 11.316C91.8618 11.316 92.8138 10.504 92.8138 9.328C92.8138 8.152 91.8618 7.354 90.5598 7.354ZM95.5998 5.422H96.7618V18.106H95.5998V5.422ZM86.6818 15.334L86.5138 14.368C88.8238 14.368 92.0158 14.354 94.7738 13.92L94.8718 14.774C92.0298 15.32 88.9358 15.334 86.6818 15.334ZM112.108 10.476H114.446V11.456H112.108V10.476ZM111.254 5.422H112.43V18.092H111.254V5.422ZM103.19 6.668H104.352V14.508H103.19V6.668ZM103.19 13.906H104.198C106.074 13.906 107.992 13.78 110.078 13.346L110.218 14.312C108.062 14.76 106.116 14.886 104.198 14.886H103.19V13.906ZM117.119 9.23H125.715V10.182H117.119V9.23ZM115.565 11.876H127.045V12.828H115.565V11.876ZM117.119 5.898H118.267V9.706H117.119V5.898ZM117.035 16.832H125.785V17.784H117.035V16.832ZM117.035 14.088H118.183V17.084H117.035V14.088ZM136.511 17.182C135.848 17.182 135.225 17.0513 134.642 16.79C134.059 16.524 133.545 16.1577 133.102 15.691C132.659 15.2243 132.311 14.6853 132.059 14.074C131.807 13.458 131.681 12.8 131.681 12.1C131.681 11.4 131.807 10.7443 132.059 10.133C132.311 9.517 132.659 8.97567 133.102 8.509C133.545 8.04233 134.059 7.67833 134.642 7.417C135.225 7.151 135.848 7.018 136.511 7.018C137.178 7.018 137.804 7.151 138.387 7.417C138.97 7.67833 139.484 8.04233 139.927 8.509C140.37 8.97567 140.716 9.517 140.963 10.133C141.215 10.7443 141.341 11.4 141.341 12.1C141.341 12.8 141.215 13.458 140.963 14.074C140.716 14.6853 140.37 15.2243 139.927 15.691C139.484 16.1577 138.97 16.524 138.387 16.79C137.804 17.0513 137.178 17.182 136.511 17.182ZM136.511 16.202C137.048 16.202 137.547 16.0947 138.009 15.88C138.476 15.6607 138.884 15.362 139.234 14.984C139.589 14.606 139.864 14.1697 140.06 13.675C140.261 13.1803 140.361 12.6553 140.361 12.1C140.361 11.54 140.261 11.0127 140.06 10.518C139.859 10.0187 139.582 9.58233 139.227 9.209C138.877 8.831 138.469 8.53467 138.002 8.32C137.54 8.10533 137.043 7.998 136.511 7.998C135.974 7.998 135.473 8.10767 135.006 8.327C134.544 8.54167 134.136 8.838 133.781 9.216C133.431 9.594 133.156 10.0303 132.955 10.525C132.759 11.0197 132.661 11.5447 132.661 12.1C132.661 12.6647 132.761 13.1943 132.962 13.689C133.163 14.1837 133.438 14.62 133.788 14.998C134.143 15.376 134.551 15.6723 135.013 15.887C135.48 16.097 135.979 16.202 136.511 16.202ZM147.23 17.182C146.567 17.182 145.944 17.0513 145.361 16.79C144.778 16.524 144.264 16.1577 143.821 15.691C143.378 15.2243 143.03 14.6853 142.778 14.074C142.526 13.458 142.4 12.8 142.4 12.1C142.4 11.4 142.526 10.7443 142.778 10.133C143.03 9.517 143.378 8.97567 143.821 8.509C144.264 8.04233 144.778 7.67833 145.361 7.417C145.944 7.151 146.567 7.018 147.23 7.018C147.897 7.018 148.523 7.151 149.106 7.417C149.689 7.67833 150.203 8.04233 150.646 8.509C151.089 8.97567 151.435 9.517 151.682 10.133C151.934 10.7443 152.06 11.4 152.06 12.1C152.06 12.8 151.934 13.458 151.682 14.074C151.435 14.6853 151.089 15.2243 150.646 15.691C150.203 16.1577 149.689 16.524 149.106 16.79C148.523 17.0513 147.897 17.182 147.23 17.182ZM147.23 16.202C147.767 16.202 148.266 16.0947 148.728 15.88C149.195 15.6607 149.603 15.362 149.953 14.984C150.308 14.606 150.583 14.1697 150.779 13.675C150.98 13.1803 151.08 12.6553 151.08 12.1C151.08 11.54 150.98 11.0127 150.779 10.518C150.578 10.0187 150.301 9.58233 149.946 9.209C149.596 8.831 149.188 8.53467 148.721 8.32C148.259 8.10533 147.762 7.998 147.23 7.998C146.693 7.998 146.192 8.10767 145.725 8.327C145.263 8.54167 144.855 8.838 144.5 9.216C144.15 9.594 143.875 10.0303 143.674 10.525C143.478 11.0197 143.38 11.5447 143.38 12.1C143.38 12.6647 143.48 13.1943 143.681 13.689C143.882 14.1837 144.157 14.62 144.507 14.998C144.862 15.376 145.27 15.6723 145.732 15.887C146.199 16.097 146.698 16.202 147.23 16.202ZM161.867 5.422H163.043V18.092H161.867V5.422ZM162.721 10.56H165.059V11.526H162.721V10.56ZM158.633 6.794H159.767C159.767 10.392 158.115 13.64 154.027 15.698L153.383 14.802C156.883 13.024 158.633 10.322 158.633 6.976V6.794ZM153.971 6.794H159.235V7.746H153.971V6.794ZM170.759 8.754H176.835V9.65H170.759V8.754ZM170.759 5.968H176.695V6.878H171.949V9.16H170.759V5.968ZM173.181 9.258H174.343V11.372H173.181V9.258ZM178.767 5.436H179.929V12.24H178.767V5.436ZM169.779 11.946L169.625 11.022C172.075 11.008 175.169 10.952 177.787 10.658L177.857 11.47C175.169 11.862 172.159 11.946 169.779 11.946ZM171.585 12.814H179.929V15.768H172.747V17.392H171.599V14.886H178.795V13.738H171.585V12.814ZM171.599 17.028H180.363V17.952H171.599V17.028ZM195.038 5.436H196.2V14.004H195.038V5.436ZM192.322 9.006H195.276V9.958H192.322V9.006ZM191.062 6.43H192.28C192.28 9.706 190.124 12.03 186.498 13.206L186.008 12.282C189.214 11.274 191.062 9.37 191.062 6.892V6.43ZM186.61 6.43H191.888V7.382H186.61V6.43ZM191.538 12.912H192.532V13.486C192.532 15.908 190.32 17.546 187.786 18.064L187.324 17.14C189.564 16.734 191.538 15.334 191.538 13.486V12.912ZM191.706 12.912H192.7V13.486C192.7 15.306 194.646 16.706 196.9 17.112L196.41 18.036C193.89 17.532 191.706 15.894 191.706 13.486V12.912ZM207.861 5.422H209.023V18.106H207.861V5.422ZM202.345 6.402C204.221 6.402 205.565 8.124 205.565 10.812C205.565 13.514 204.221 15.236 202.345 15.236C200.483 15.236 199.139 13.514 199.139 10.812C199.139 8.124 200.483 6.402 202.345 6.402ZM202.345 7.452C201.113 7.452 200.245 8.768 200.245 10.812C200.245 12.87 201.113 14.214 202.345 14.214C203.591 14.214 204.445 12.87 204.445 10.812C204.445 8.768 203.591 7.452 202.345 7.452ZM220.109 5.422H221.285V18.106H220.109V5.422ZM221.005 10.42H223.357V11.4H221.005V10.42ZM212.087 13.976H213.081C215.419 13.976 217.057 13.892 218.947 13.542L219.073 14.522C217.127 14.886 215.461 14.956 213.081 14.956H212.087V13.976ZM212.087 6.654H217.967V7.606H213.235V14.41H212.087V6.654ZM224.427 14.06V7.2H225.288V14.06H224.427ZM224.861 17.182C224.703 17.182 224.567 17.126 224.455 17.014C224.348 16.9067 224.294 16.7737 224.294 16.615C224.294 16.461 224.348 16.3303 224.455 16.223C224.567 16.1157 224.703 16.062 224.861 16.062C225.011 16.062 225.139 16.1157 225.246 16.223C225.354 16.3303 225.407 16.461 225.407 16.615C225.407 16.7737 225.354 16.9067 225.246 17.014C225.139 17.126 225.011 17.182 224.861 17.182Z" fill="black"/>
<path d="M63.134 30.5C63.5189 31.1667 64.4811 31.1667 64.866 30.5L69.1962 23C69.5811 22.3333 69.0999 21.5 68.3301 21.5H59.6699C58.9001 21.5 58.4189 22.3333 58.8038 23L63.134 30.5Z" fill="#F5F5F5"/>
</svg>
