<svg width="390" height="60" viewBox="0 0 390 60" fill="none" xmlns="http://www.w3.org/2000/svg">
<rect width="390" height="60" fill="white"/>
<path d="M38.5 17L47.5 10L56.5 17V28C56.5 28.5304 56.2893 29.0391 55.9142 29.4142C55.5391 29.7893 55.0304 30 54.5 30H40.5C39.9696 30 39.4609 29.7893 39.0858 29.4142C38.7107 29.0391 38.5 28.5304 38.5 28V17Z" stroke="#222222" stroke-width="2" stroke-linecap="round"/>
<path d="M38.9854 45.2075V46.2358H35.6456V45.2075H38.9854ZM36.0367 42.6016V49H34.7184V42.6016H36.0367ZM39.9259 42.6016V49H38.6119V42.6016H39.9259ZM46.7287 45.6514V45.9546C46.7287 46.4409 46.6628 46.8774 46.531 47.2642C46.3991 47.6509 46.2131 47.9805 45.9729 48.2529C45.7326 48.5225 45.4455 48.729 45.1115 48.8726C44.7805 49.0161 44.4128 49.0879 44.0085 49.0879C43.6071 49.0879 43.2395 49.0161 42.9055 48.8726C42.5744 48.729 42.2873 48.5225 42.0441 48.2529C41.801 47.9805 41.612 47.6509 41.4772 47.2642C41.3454 46.8774 41.2795 46.4409 41.2795 45.9546V45.6514C41.2795 45.1621 41.3454 44.7256 41.4772 44.3418C41.6091 43.9551 41.7951 43.6255 42.0354 43.353C42.2785 43.0806 42.5656 42.8726 42.8967 42.729C43.2307 42.5854 43.5983 42.5137 43.9997 42.5137C44.404 42.5137 44.7717 42.5854 45.1027 42.729C45.4367 42.8726 45.7238 43.0806 45.9641 43.353C46.2072 43.6255 46.3947 43.9551 46.5266 44.3418C46.6613 44.7256 46.7287 45.1621 46.7287 45.6514ZM45.3972 45.9546V45.6426C45.3972 45.3027 45.3664 45.0039 45.3049 44.7461C45.2434 44.4883 45.1525 44.2715 45.0324 44.0957C44.9123 43.9199 44.7658 43.7881 44.593 43.7002C44.4201 43.6094 44.2224 43.564 43.9997 43.564C43.7771 43.564 43.5793 43.6094 43.4064 43.7002C43.2365 43.7881 43.0915 43.9199 42.9714 44.0957C42.8542 44.2715 42.7648 44.4883 42.7033 44.7461C42.6418 45.0039 42.611 45.3027 42.611 45.6426V45.9546C42.611 46.2915 42.6418 46.5903 42.7033 46.8511C42.7648 47.1089 42.8557 47.3271 42.9758 47.5059C43.0959 47.6816 43.2424 47.8149 43.4152 47.9058C43.5881 47.9966 43.7858 48.042 44.0085 48.042C44.2312 48.042 44.4289 47.9966 44.6018 47.9058C44.7746 47.8149 44.9196 47.6816 45.0368 47.5059C45.154 47.3271 45.2434 47.1089 45.3049 46.8511C45.3664 46.5903 45.3972 46.2915 45.3972 45.9546ZM48.68 42.6016H49.7962L51.4397 47.2993L53.0833 42.6016H54.1995L51.888 49H50.9915L48.68 42.6016ZM48.0779 42.6016H49.1897L49.3919 47.1807V49H48.0779V42.6016ZM53.6897 42.6016H54.806V49H53.4876V47.1807L53.6897 42.6016ZM60.6552 47.9717V49H57.2494V47.9717H60.6552ZM57.6801 42.6016V49H56.3617V42.6016H57.6801ZM60.2113 45.2075V46.2095H57.2494V45.2075H60.2113ZM60.6508 42.6016V43.6343H57.2494V42.6016H60.6508Z" fill="#222222"/>
<path d="M116.5 11.0001C116.763 10.7374 117.074 10.5291 117.418 10.3869C117.761 10.2448 118.129 10.1716 118.5 10.1716C118.871 10.1716 119.239 10.2448 119.582 10.3869C119.926 10.5291 120.237 10.7374 120.5 11.0001C120.763 11.2627 120.971 11.5745 121.113 11.9177C121.255 12.2608 121.328 12.6286 121.328 13.0001C121.328 13.3715 121.255 13.7393 121.113 14.0825C120.971 14.4256 120.763 14.7374 120.5 15.0001L107 28.5001L101.5 30.0001L103 24.5001L116.5 11.0001Z" stroke="#222222" stroke-width="2" stroke-linecap="round" stroke-linejoin="round"/>
<path d="M99.4192 47.9849L100.694 42.6016H101.406L101.568 43.498L100.21 49H99.4456L99.4192 47.9849ZM98.7645 42.6016L99.8191 47.9849L99.7312 49H98.8787L97.4593 42.6016H98.7645ZM102.689 47.9629L103.73 42.6016H105.035L103.62 49H102.768L102.689 47.9629ZM101.805 42.6016L103.089 48.0068L103.054 49H102.289L100.922 43.4937L101.098 42.6016H101.805ZM106.152 42.6016H108.538C109.027 42.6016 109.448 42.6748 109.799 42.8213C110.154 42.9678 110.426 43.1846 110.617 43.4717C110.807 43.7588 110.902 44.1118 110.902 44.5308C110.902 44.8735 110.844 45.168 110.726 45.4141C110.612 45.6572 110.45 45.8608 110.239 46.0249C110.031 46.186 109.786 46.3149 109.505 46.4116L109.087 46.6313H107.013L107.004 45.603H108.547C108.778 45.603 108.97 45.562 109.122 45.48C109.275 45.3979 109.389 45.2837 109.465 45.1372C109.544 44.9907 109.584 44.8208 109.584 44.6274C109.584 44.4224 109.546 44.2451 109.47 44.0957C109.393 43.9463 109.278 43.832 109.122 43.7529C108.967 43.6738 108.772 43.6343 108.538 43.6343H107.47V49H106.152V42.6016ZM109.729 49L108.27 46.1479L109.663 46.1392L111.14 48.9385V49H109.729ZM113.719 42.6016V49H112.405V42.6016H113.719ZM118.083 42.6016V49H116.769V42.6016H118.083ZM120.052 42.6016V43.6343H114.831V42.6016H120.052ZM125.497 47.9717V49H122.091V47.9717H125.497ZM122.522 42.6016V49H121.203V42.6016H122.522ZM125.053 45.2075V46.2095H122.091V45.2075H125.053ZM125.492 42.6016V43.6343H122.091V42.6016H125.492Z" fill="#222222"/>
<path d="M200 19.5C200.003 20.8199 199.695 22.1219 199.1 23.3C198.394 24.7118 197.31 25.8992 195.967 26.7293C194.625 27.5594 193.078 27.9994 191.5 28C190.18 28.0035 188.878 27.6951 187.7 27.1L182 29L183.9 23.3C183.305 22.1219 182.997 20.8199 183 19.5C183.001 17.9218 183.441 16.3749 184.271 15.0326C185.101 13.6903 186.288 12.6056 187.7 11.9C188.878 11.305 190.18 10.9966 191.5 11H192C194.084 11.115 196.053 11.9948 197.529 13.4709C199.005 14.947 199.885 16.9157 200 19V19.5Z" stroke="#222222" stroke-width="2" stroke-linecap="round" stroke-linejoin="round"/>
<path d="M166.742 46.8774H168.056C168.029 47.3081 167.911 47.6904 167.7 48.0244C167.492 48.3584 167.2 48.6191 166.825 48.8066C166.453 48.9941 166.005 49.0879 165.481 49.0879C165.07 49.0879 164.703 49.0176 164.378 48.877C164.052 48.7334 163.774 48.5283 163.543 48.2617C163.314 47.9951 163.14 47.6729 163.02 47.2949C162.9 46.917 162.839 46.4937 162.839 46.0249V45.5811C162.839 45.1123 162.901 44.689 163.024 44.311C163.15 43.9302 163.329 43.6064 163.56 43.3398C163.795 43.0732 164.074 42.8682 164.4 42.7246C164.725 42.5811 165.088 42.5093 165.489 42.5093C166.023 42.5093 166.472 42.606 166.838 42.7993C167.208 42.9927 167.493 43.2593 167.695 43.5991C167.9 43.939 168.024 44.3257 168.065 44.7593H166.746C166.732 44.5015 166.68 44.2832 166.592 44.1045C166.504 43.9229 166.371 43.7866 166.192 43.6958C166.017 43.6021 165.782 43.5552 165.489 43.5552C165.27 43.5552 165.078 43.5962 164.914 43.6782C164.75 43.7603 164.612 43.8848 164.501 44.0518C164.389 44.2188 164.306 44.4297 164.25 44.6846C164.197 44.9365 164.171 45.2324 164.171 45.5723V46.0249C164.171 46.356 164.196 46.6475 164.246 46.8994C164.296 47.1484 164.372 47.3594 164.474 47.5322C164.58 47.7021 164.714 47.8311 164.879 47.9189C165.046 48.0039 165.246 48.0464 165.481 48.0464C165.756 48.0464 165.983 48.0024 166.162 47.9146C166.34 47.8267 166.477 47.6963 166.57 47.5234C166.667 47.3506 166.724 47.1353 166.742 46.8774ZM174.577 45.6514V45.9546C174.577 46.4409 174.511 46.8774 174.38 47.2642C174.248 47.6509 174.062 47.9805 173.821 48.2529C173.581 48.5225 173.294 48.729 172.96 48.8726C172.629 49.0161 172.261 49.0879 171.857 49.0879C171.456 49.0879 171.088 49.0161 170.754 48.8726C170.423 48.729 170.136 48.5225 169.893 48.2529C169.65 47.9805 169.461 47.6509 169.326 47.2642C169.194 46.8774 169.128 46.4409 169.128 45.9546V45.6514C169.128 45.1621 169.194 44.7256 169.326 44.3418C169.458 43.9551 169.644 43.6255 169.884 43.353C170.127 43.0806 170.414 42.8726 170.745 42.729C171.079 42.5854 171.447 42.5137 171.848 42.5137C172.253 42.5137 172.62 42.5854 172.951 42.729C173.285 42.8726 173.572 43.0806 173.813 43.353C174.056 43.6255 174.243 43.9551 174.375 44.3418C174.51 44.7256 174.577 45.1621 174.577 45.6514ZM173.246 45.9546V45.6426C173.246 45.3027 173.215 45.0039 173.154 44.7461C173.092 44.4883 173.001 44.2715 172.881 44.0957C172.761 43.9199 172.614 43.7881 172.442 43.7002C172.269 43.6094 172.071 43.564 171.848 43.564C171.626 43.564 171.428 43.6094 171.255 43.7002C171.085 43.7881 170.94 43.9199 170.82 44.0957C170.703 44.2715 170.613 44.4883 170.552 44.7461C170.49 45.0039 170.46 45.3027 170.46 45.6426V45.9546C170.46 46.2915 170.49 46.5903 170.552 46.8511C170.613 47.1089 170.704 47.3271 170.824 47.5059C170.945 47.6816 171.091 47.8149 171.264 47.9058C171.437 47.9966 171.634 48.042 171.857 48.042C172.08 48.042 172.278 47.9966 172.45 47.9058C172.623 47.8149 172.768 47.6816 172.885 47.5059C173.003 47.3271 173.092 47.1089 173.154 46.8511C173.215 46.5903 173.246 46.2915 173.246 45.9546ZM176.529 42.6016H177.645L179.288 47.2993L180.932 42.6016H182.048L179.737 49H178.84L176.529 42.6016ZM175.927 42.6016H177.038L177.241 47.1807V49H175.927V42.6016ZM181.538 42.6016H182.655V49H181.336V47.1807L181.538 42.6016ZM184.812 42.6016H185.929L187.572 47.2993L189.216 42.6016H190.332L188.02 49H187.124L184.812 42.6016ZM184.21 42.6016H185.322L185.524 47.1807V49H184.21V42.6016ZM189.822 42.6016H190.938V49H189.62V47.1807L189.822 42.6016ZM196.027 42.6016H197.341V46.8291C197.341 47.3213 197.236 47.7358 197.025 48.0728C196.817 48.4097 196.528 48.6631 196.159 48.833C195.793 49.0029 195.371 49.0879 194.894 49.0879C194.416 49.0879 193.991 49.0029 193.619 48.833C193.25 48.6631 192.96 48.4097 192.749 48.0728C192.541 47.7358 192.437 47.3213 192.437 46.8291V42.6016H193.755V46.8291C193.755 47.1162 193.801 47.3506 193.892 47.5322C193.982 47.7139 194.113 47.8472 194.283 47.9321C194.456 48.0171 194.659 48.0596 194.894 48.0596C195.134 48.0596 195.337 48.0171 195.504 47.9321C195.674 47.8472 195.803 47.7139 195.891 47.5322C195.982 47.3506 196.027 47.1162 196.027 46.8291V42.6016ZM204.034 42.6016V49H202.716L200.145 44.7109V49H198.827V42.6016H200.145L202.72 46.895V42.6016H204.034ZM206.983 42.6016V49H205.669V42.6016H206.983ZM211.347 42.6016V49H210.033V42.6016H211.347ZM213.316 42.6016V43.6343H208.095V42.6016H213.316ZM215.416 42.6016L216.752 45.5195L218.088 42.6016H219.525L217.42 46.6709V49H216.084V46.6709L213.975 42.6016H215.416Z" fill="#222222"/>
<path d="M268.5 30C274.023 30 278.5 25.5228 278.5 20C278.5 14.4772 274.023 10 268.5 10C262.977 10 258.5 14.4772 258.5 20C258.5 25.5228 262.977 30 268.5 30Z" stroke="#222222" stroke-width="2" stroke-linecap="round" stroke-linejoin="round"/>
<path d="M268.5 26C271.814 26 274.5 23.3137 274.5 20C274.5 16.6863 271.814 14 268.5 14C265.186 14 262.5 16.6863 262.5 20C262.5 23.3137 265.186 26 268.5 26Z" stroke="#222222" stroke-width="2" stroke-linecap="round" stroke-linejoin="round"/>
<path d="M268.5 22C269.605 22 270.5 21.1046 270.5 20C270.5 18.8954 269.605 18 268.5 18C267.395 18 266.5 18.8954 266.5 20C266.5 21.1046 267.395 22 268.5 22Z" stroke="#222222" stroke-width="2" stroke-linecap="round" stroke-linejoin="round"/>
<path d="M261.963 45.6558V48.1914C261.863 48.3115 261.71 48.4419 261.502 48.5825C261.294 48.7202 261.025 48.8389 260.697 48.9385C260.369 49.0381 259.972 49.0879 259.506 49.0879C259.093 49.0879 258.717 49.0205 258.377 48.8857C258.037 48.748 257.744 48.5474 257.498 48.2837C257.255 48.02 257.067 47.6978 256.936 47.3169C256.804 46.9331 256.738 46.4951 256.738 46.0029V45.603C256.738 45.1108 256.801 44.6729 256.927 44.2891C257.056 43.9053 257.239 43.5815 257.476 43.3179C257.713 43.0542 257.996 42.8535 258.324 42.7158C258.652 42.5781 259.017 42.5093 259.419 42.5093C259.975 42.5093 260.432 42.6001 260.79 42.7817C261.147 42.9604 261.42 43.2095 261.607 43.5288C261.797 43.8452 261.915 44.2085 261.959 44.6187H260.68C260.648 44.4019 260.586 44.2129 260.495 44.0518C260.404 43.8906 260.274 43.7646 260.104 43.6738C259.937 43.583 259.72 43.5376 259.454 43.5376C259.234 43.5376 259.038 43.583 258.865 43.6738C258.695 43.7617 258.551 43.8921 258.434 44.0649C258.317 44.2378 258.228 44.4517 258.166 44.7065C258.105 44.9614 258.074 45.2573 258.074 45.5942V46.0029C258.074 46.3369 258.106 46.6328 258.171 46.8906C258.235 47.1455 258.33 47.3608 258.456 47.5366C258.585 47.7095 258.743 47.8398 258.931 47.9277C259.118 48.0156 259.337 48.0596 259.586 48.0596C259.794 48.0596 259.966 48.042 260.104 48.0068C260.245 47.9717 260.358 47.9292 260.442 47.8794C260.53 47.8267 260.598 47.7769 260.645 47.73V46.5962H259.441V45.6558H261.963ZM268.682 45.6514V45.9546C268.682 46.4409 268.616 46.8774 268.485 47.2642C268.353 47.6509 268.167 47.9805 267.926 48.2529C267.686 48.5225 267.399 48.729 267.065 48.8726C266.734 49.0161 266.366 49.0879 265.962 49.0879C265.561 49.0879 265.193 49.0161 264.859 48.8726C264.528 48.729 264.241 48.5225 263.998 48.2529C263.755 47.9805 263.566 47.6509 263.431 47.2642C263.299 46.8774 263.233 46.4409 263.233 45.9546V45.6514C263.233 45.1621 263.299 44.7256 263.431 44.3418C263.563 43.9551 263.749 43.6255 263.989 43.353C264.232 43.0806 264.519 42.8726 264.85 42.729C265.184 42.5854 265.552 42.5137 265.953 42.5137C266.358 42.5137 266.725 42.5854 267.056 42.729C267.39 42.8726 267.677 43.0806 267.918 43.353C268.161 43.6255 268.348 43.9551 268.48 44.3418C268.615 44.7256 268.682 45.1621 268.682 45.6514ZM267.351 45.9546V45.6426C267.351 45.3027 267.32 45.0039 267.258 44.7461C267.197 44.4883 267.106 44.2715 266.986 44.0957C266.866 43.9199 266.719 43.7881 266.547 43.7002C266.374 43.6094 266.176 43.564 265.953 43.564C265.731 43.564 265.533 43.6094 265.36 43.7002C265.19 43.7881 265.045 43.9199 264.925 44.0957C264.808 44.2715 264.718 44.4883 264.657 44.7461C264.595 45.0039 264.565 45.3027 264.565 45.6426V45.9546C264.565 46.2915 264.595 46.5903 264.657 46.8511C264.718 47.1089 264.809 47.3271 264.929 47.5059C265.05 47.6816 265.196 47.8149 265.369 47.9058C265.542 47.9966 265.739 48.042 265.962 48.042C266.185 48.042 266.383 47.9966 266.555 47.9058C266.728 47.8149 266.873 47.6816 266.99 47.5059C267.108 47.3271 267.197 47.1089 267.258 46.8511C267.32 46.5903 267.351 46.2915 267.351 45.9546ZM272.536 43.6958L270.796 49H269.394L271.772 42.6016H272.664L272.536 43.6958ZM273.982 49L272.238 43.6958L272.097 42.6016H272.998L275.388 49H273.982ZM273.903 46.6182V47.6509H270.524V46.6182H273.903ZM280.495 47.9717V49H277.274V47.9717H280.495ZM277.7 42.6016V49H276.382V42.6016H277.7Z" fill="#222222"/>
<path d="M336 30C341.523 30 346 25.5228 346 20C346 14.4772 341.523 10 336 10C330.477 10 326 14.4772 326 20C326 25.5228 330.477 30 336 30Z" stroke="#222222" stroke-width="2" stroke-linecap="round" stroke-linejoin="round"/>
<path d="M320.223 46.7192H318.593V45.6909H320.223C320.475 45.6909 320.68 45.6499 320.839 45.5679C320.997 45.4829 321.112 45.3657 321.186 45.2163C321.259 45.0669 321.296 44.8984 321.296 44.7109C321.296 44.5205 321.259 44.3433 321.186 44.1792C321.112 44.0151 320.997 43.8833 320.839 43.7837C320.68 43.6841 320.475 43.6343 320.223 43.6343H319.05V49H317.732V42.6016H320.223C320.724 42.6016 321.154 42.6924 321.511 42.874C321.871 43.0527 322.147 43.3003 322.337 43.6167C322.528 43.9331 322.623 44.2949 322.623 44.7021C322.623 45.1152 322.528 45.4727 322.337 45.7744C322.147 46.0762 321.871 46.3091 321.511 46.4731C321.154 46.6372 320.724 46.7192 320.223 46.7192ZM323.932 42.6016H326.319C326.808 42.6016 327.228 42.6748 327.58 42.8213C327.934 42.9678 328.207 43.1846 328.397 43.4717C328.588 43.7588 328.683 44.1118 328.683 44.5308C328.683 44.8735 328.624 45.168 328.507 45.4141C328.393 45.6572 328.23 45.8608 328.019 46.0249C327.811 46.186 327.567 46.3149 327.285 46.4116L326.868 46.6313H324.794L324.785 45.603H326.327C326.559 45.603 326.751 45.562 326.903 45.48C327.055 45.3979 327.17 45.2837 327.246 45.1372C327.325 44.9907 327.365 44.8208 327.365 44.6274C327.365 44.4224 327.326 44.2451 327.25 44.0957C327.174 43.9463 327.058 43.832 326.903 43.7529C326.748 43.6738 326.553 43.6343 326.319 43.6343H325.251V49H323.932V42.6016ZM327.51 49L326.051 46.1479L327.444 46.1392L328.92 48.9385V49H327.51ZM335.354 45.6514V45.9546C335.354 46.4409 335.288 46.8774 335.156 47.2642C335.024 47.6509 334.838 47.9805 334.598 48.2529C334.358 48.5225 334.071 48.729 333.737 48.8726C333.406 49.0161 333.038 49.0879 332.634 49.0879C332.232 49.0879 331.865 49.0161 331.531 48.8726C331.2 48.729 330.912 48.5225 330.669 48.2529C330.426 47.9805 330.237 47.6509 330.102 47.2642C329.971 46.8774 329.905 46.4409 329.905 45.9546V45.6514C329.905 45.1621 329.971 44.7256 330.102 44.3418C330.234 43.9551 330.42 43.6255 330.661 43.353C330.904 43.0806 331.191 42.8726 331.522 42.729C331.856 42.5854 332.224 42.5137 332.625 42.5137C333.029 42.5137 333.397 42.5854 333.728 42.729C334.062 42.8726 334.349 43.0806 334.589 43.353C334.832 43.6255 335.02 43.9551 335.152 44.3418C335.287 44.7256 335.354 45.1621 335.354 45.6514ZM334.022 45.9546V45.6426C334.022 45.3027 333.992 45.0039 333.93 44.7461C333.869 44.4883 333.778 44.2715 333.658 44.0957C333.537 43.9199 333.391 43.7881 333.218 43.7002C333.045 43.6094 332.848 43.564 332.625 43.564C332.402 43.564 332.204 43.6094 332.032 43.7002C331.862 43.7881 331.717 43.9199 331.597 44.0957C331.479 44.2715 331.39 44.4883 331.329 44.7461C331.267 45.0039 331.236 45.3027 331.236 45.6426V45.9546C331.236 46.2915 331.267 46.5903 331.329 46.8511C331.39 47.1089 331.481 47.3271 331.601 47.5059C331.721 47.6816 331.868 47.8149 332.04 47.9058C332.213 47.9966 332.411 48.042 332.634 48.042C332.856 48.042 333.054 47.9966 333.227 47.9058C333.4 47.8149 333.545 47.6816 333.662 47.5059C333.779 47.3271 333.869 47.1089 333.93 46.8511C333.992 46.5903 334.022 46.2915 334.022 45.9546ZM338.021 42.6016V49H336.703V42.6016H338.021ZM340.57 45.335V46.3633H337.661V45.335H340.57ZM340.878 42.6016V43.6343H337.661V42.6016H340.878ZM343.444 42.6016V49H342.13V42.6016H343.444ZM349.193 47.9717V49H345.971V47.9717H349.193ZM346.398 42.6016V49H345.079V42.6016H346.398ZM354.642 47.9717V49H351.236V47.9717H354.642ZM351.667 42.6016V49H350.348V42.6016H351.667ZM354.198 45.2075V46.2095H351.236V45.2075H354.198ZM354.638 42.6016V43.6343H351.236V42.6016H354.638Z" fill="#222222"/>
</svg>
