<svg width="255" height="187" viewBox="0 0 255 187" fill="none" xmlns="http://www.w3.org/2000/svg">
<g filter="url(#filter0_d_444_17211)">
<rect x="10" y="6" width="235" height="167" rx="5" fill="white" shape-rendering="crispEdges"/>
<path d="M117.472 20.2727V29H116.415V21.3807H116.364L114.233 22.7955V21.7216L116.415 20.2727H117.472ZM119.702 20.228H126.11V21.044H119.702V20.228ZM122.906 21.596C124.442 21.596 125.498 22.364 125.498 23.564C125.498 24.752 124.442 25.508 122.906 25.508C121.346 25.508 120.302 24.752 120.302 23.564C120.302 22.364 121.346 21.596 122.906 21.596ZM122.906 22.376C121.91 22.376 121.25 22.832 121.25 23.564C121.25 24.272 121.91 24.74 122.906 24.74C123.878 24.74 124.55 24.272 124.55 23.564C124.55 22.832 123.878 22.376 122.906 22.376ZM127.094 19.088H128.09V25.868H127.094V19.088ZM127.814 22.076H129.698V22.904H127.814V22.076ZM121.046 26.456H128.09V29.936H127.094V27.272H121.046V26.456ZM122.402 19.028H123.398V20.684H122.402V19.028ZM138.637 19.088H139.633V27.128H138.637V19.088ZM135.577 20.504H139.009V21.308H135.577V20.504ZM132.697 28.88H139.921V29.696H132.697V28.88ZM132.697 26.432H133.693V29.252H132.697V26.432ZM131.341 19.88H132.337V24.992H131.341V19.88ZM131.341 24.68H132.157C133.705 24.68 135.157 24.596 136.849 24.296L136.945 25.124C135.205 25.436 133.753 25.508 132.157 25.508H131.341V24.68ZM135.577 22.568H139.009V23.384H135.577V22.568Z" fill="black"/>
<rect width="235" height="1" transform="matrix(1 0 0 -1 10 47)" fill="#DFDFDF"/>
<path d="M113.403 72V71.233L116.284 68.0795C116.622 67.7102 116.901 67.3892 117.119 67.1165C117.338 66.8409 117.5 66.5824 117.605 66.3409C117.713 66.0966 117.767 65.8409 117.767 65.5739C117.767 65.267 117.693 65.0014 117.545 64.777C117.401 64.5526 117.202 64.3793 116.949 64.2571C116.696 64.1349 116.412 64.0739 116.097 64.0739C115.761 64.0739 115.469 64.1435 115.219 64.2827C114.972 64.419 114.78 64.6108 114.643 64.858C114.51 65.1051 114.443 65.3949 114.443 65.7273H113.438C113.438 65.2159 113.555 64.767 113.791 64.3807C114.027 63.9943 114.348 63.6932 114.754 63.4773C115.163 63.2614 115.622 63.1534 116.131 63.1534C116.642 63.1534 117.095 63.2614 117.49 63.4773C117.885 63.6932 118.195 63.9844 118.419 64.3509C118.643 64.7173 118.756 65.125 118.756 65.5739C118.756 65.8949 118.697 66.2088 118.581 66.5156C118.467 66.8196 118.268 67.1591 117.984 67.5341C117.703 67.9062 117.312 68.3608 116.812 68.8977L114.852 70.9943V71.0625H118.909V72H113.403ZM120.39 63.228H126.798V64.044H120.39V63.228ZM123.594 64.596C125.13 64.596 126.186 65.364 126.186 66.564C126.186 67.752 125.13 68.508 123.594 68.508C122.034 68.508 120.99 67.752 120.99 66.564C120.99 65.364 122.034 64.596 123.594 64.596ZM123.594 65.376C122.598 65.376 121.938 65.832 121.938 66.564C121.938 67.272 122.598 67.74 123.594 67.74C124.566 67.74 125.238 67.272 125.238 66.564C125.238 65.832 124.566 65.376 123.594 65.376ZM127.782 62.088H128.778V68.868H127.782V62.088ZM128.502 65.076H130.386V65.904H128.502V65.076ZM121.734 69.456H128.778V72.936H127.782V70.272H121.734V69.456ZM123.09 62.028H124.086V63.684H123.09V62.028ZM139.325 62.088H140.321V70.128H139.325V62.088ZM136.265 63.504H139.697V64.308H136.265V63.504ZM133.385 71.88H140.609V72.696H133.385V71.88ZM133.385 69.432H134.381V72.252H133.385V69.432ZM132.029 62.88H133.025V67.992H132.029V62.88ZM132.029 67.68H132.845C134.393 67.68 135.845 67.596 137.537 67.296L137.633 68.124C135.893 68.436 134.441 68.508 132.845 68.508H132.029V67.68ZM136.265 65.568H139.697V66.384H136.265V65.568Z" fill="black"/>
<rect width="235" height="1" transform="matrix(1 0 0 -1 10 90)" fill="#DFDFDF"/>
<path d="M116.352 115.119C115.79 115.119 115.288 115.023 114.848 114.83C114.411 114.636 114.063 114.368 113.804 114.024C113.548 113.678 113.409 113.276 113.386 112.818H114.46C114.483 113.099 114.58 113.342 114.75 113.547C114.92 113.749 115.143 113.905 115.419 114.016C115.695 114.126 116 114.182 116.335 114.182C116.71 114.182 117.043 114.116 117.332 113.986C117.622 113.855 117.849 113.673 118.014 113.44C118.179 113.207 118.261 112.938 118.261 112.631C118.261 112.31 118.182 112.027 118.023 111.783C117.864 111.536 117.631 111.342 117.324 111.203C117.017 111.064 116.642 110.994 116.199 110.994H115.5V110.057H116.199C116.545 110.057 116.849 109.994 117.111 109.869C117.375 109.744 117.581 109.568 117.729 109.341C117.879 109.114 117.955 108.847 117.955 108.54C117.955 108.244 117.889 107.987 117.759 107.768C117.628 107.55 117.443 107.379 117.205 107.257C116.969 107.135 116.69 107.074 116.369 107.074C116.068 107.074 115.784 107.129 115.517 107.24C115.253 107.348 115.037 107.506 114.869 107.713C114.702 107.918 114.611 108.165 114.597 108.455H113.574C113.591 107.997 113.729 107.597 113.987 107.253C114.246 106.906 114.584 106.636 115.001 106.443C115.422 106.25 115.884 106.153 116.386 106.153C116.926 106.153 117.389 106.263 117.776 106.482C118.162 106.697 118.459 106.983 118.666 107.338C118.874 107.693 118.977 108.077 118.977 108.489C118.977 108.98 118.848 109.399 118.589 109.746C118.334 110.092 117.986 110.332 117.545 110.466V110.534C118.097 110.625 118.527 110.859 118.837 111.237C119.146 111.612 119.301 112.077 119.301 112.631C119.301 113.105 119.172 113.531 118.913 113.909C118.658 114.284 118.308 114.58 117.865 114.795C117.422 115.011 116.918 115.119 116.352 115.119ZM120.765 106.228H127.173V107.044H120.765V106.228ZM123.969 107.596C125.505 107.596 126.561 108.364 126.561 109.564C126.561 110.752 125.505 111.508 123.969 111.508C122.409 111.508 121.365 110.752 121.365 109.564C121.365 108.364 122.409 107.596 123.969 107.596ZM123.969 108.376C122.973 108.376 122.313 108.832 122.313 109.564C122.313 110.272 122.973 110.74 123.969 110.74C124.941 110.74 125.613 110.272 125.613 109.564C125.613 108.832 124.941 108.376 123.969 108.376ZM128.157 105.088H129.153V111.868H128.157V105.088ZM128.877 108.076H130.761V108.904H128.877V108.076ZM122.109 112.456H129.153V115.936H128.157V113.272H122.109V112.456ZM123.465 105.028H124.461V106.684H123.465V105.028ZM139.7 105.088H140.696V113.128H139.7V105.088ZM136.64 106.504H140.072V107.308H136.64V106.504ZM133.76 114.88H140.984V115.696H133.76V114.88ZM133.76 112.432H134.756V115.252H133.76V112.432ZM132.404 105.88H133.4V110.992H132.404V105.88ZM132.404 110.68H133.22C134.768 110.68 136.22 110.596 137.912 110.296L138.008 111.124C136.268 111.436 134.816 111.508 133.22 111.508H132.404V110.68ZM136.64 108.568H140.072V109.384H136.64V108.568Z" fill="black"/>
<rect width="235" height="1" transform="matrix(1 0 0 -1 10 133)" fill="#DFDFDF"/>
<path d="M113.199 156.21V155.341L117.034 149.273H117.665V150.619H117.239L114.341 155.205V155.273H119.506V156.21H113.199ZM117.307 158V155.946V155.541V149.273H118.312V158H117.307ZM120.823 149.228H127.231V150.044H120.823V149.228ZM124.027 150.596C125.563 150.596 126.619 151.364 126.619 152.564C126.619 153.752 125.563 154.508 124.027 154.508C122.467 154.508 121.423 153.752 121.423 152.564C121.423 151.364 122.467 150.596 124.027 150.596ZM124.027 151.376C123.031 151.376 122.371 151.832 122.371 152.564C122.371 153.272 123.031 153.74 124.027 153.74C124.999 153.74 125.671 153.272 125.671 152.564C125.671 151.832 124.999 151.376 124.027 151.376ZM128.215 148.088H129.211V154.868H128.215V148.088ZM128.935 151.076H130.819V151.904H128.935V151.076ZM122.167 155.456H129.211V158.936H128.215V156.272H122.167V155.456ZM123.523 148.028H124.519V149.684H123.523V148.028ZM139.758 148.088H140.754V156.128H139.758V148.088ZM136.698 149.504H140.13V150.308H136.698V149.504ZM133.818 157.88H141.042V158.696H133.818V157.88ZM133.818 155.432H134.814V158.252H133.818V155.432ZM132.462 148.88H133.458V153.992H132.462V148.88ZM132.462 153.68H133.278C134.826 153.68 136.278 153.596 137.97 153.296L138.066 154.124C136.326 154.436 134.874 154.508 133.278 154.508H132.462V153.68ZM136.698 151.568H140.13V152.384H136.698V151.568Z" fill="black"/>
</g>
<defs>
<filter id="filter0_d_444_17211" x="0" y="0" width="255" height="187" filterUnits="userSpaceOnUse" color-interpolation-filters="sRGB">
<feFlood flood-opacity="0" result="BackgroundImageFix"/>
<feColorMatrix in="SourceAlpha" type="matrix" values="0 0 0 0 0 0 0 0 0 0 0 0 0 0 0 0 0 0 127 0" result="hardAlpha"/>
<feOffset dy="4"/>
<feGaussianBlur stdDeviation="5"/>
<feComposite in2="hardAlpha" operator="out"/>
<feColorMatrix type="matrix" values="0 0 0 0 0 0 0 0 0 0 0 0 0 0 0 0 0 0 0.1 0"/>
<feBlend mode="normal" in2="BackgroundImageFix" result="effect1_dropShadow_444_17211"/>
<feBlend mode="normal" in="SourceGraphic" in2="effect1_dropShadow_444_17211" result="shape"/>
</filter>
</defs>
</svg>
