<svg width="342" height="41" viewBox="0 0 342 41" fill="none" xmlns="http://www.w3.org/2000/svg">
<path d="M67.338 13.436H68.5V20.898H67.338V13.436ZM68.01 16.67H70.348V17.636H68.01V16.67ZM60.31 21.472H68.5V24.034H61.472V25.378H60.338V23.264H67.366V22.298H60.31V21.472ZM60.338 25.126H68.99V25.952H60.338V25.126ZM62.004 18.63H63.166V20.24H62.004V18.63ZM58.756 20.618L58.616 19.764C60.87 19.764 63.978 19.75 66.582 19.386L66.68 20.128C63.978 20.604 60.968 20.618 58.756 20.618ZM58.938 14.402H66.204V15.228H58.938V14.402ZM62.578 15.62C64.37 15.62 65.518 16.236 65.518 17.286C65.518 18.336 64.37 18.952 62.578 18.952C60.772 18.952 59.624 18.336 59.624 17.286C59.624 16.236 60.772 15.62 62.578 15.62ZM62.578 16.39C61.444 16.39 60.716 16.726 60.716 17.286C60.716 17.846 61.444 18.196 62.578 18.196C63.712 18.196 64.426 17.846 64.426 17.286C64.426 16.726 63.712 16.39 62.578 16.39ZM62.004 13.31H63.166V14.836H62.004V13.31ZM71.5789 19.666H83.0169V20.618H71.5789V19.666ZM76.7169 17.636H77.8649V20.058H76.7169V17.636ZM73.0209 17.272H81.6869V18.224H73.0209V17.272ZM73.0209 14.01H81.5889V14.948H74.1689V17.832H73.0209V14.01ZM77.2769 21.528C79.9789 21.528 81.6169 22.354 81.6169 23.796C81.6169 25.266 79.9789 26.078 77.2769 26.078C74.5749 26.078 72.9369 25.266 72.9369 23.796C72.9369 22.354 74.5749 21.528 77.2769 21.528ZM77.2769 22.424C75.3029 22.424 74.1129 22.928 74.1129 23.796C74.1129 24.678 75.3029 25.168 77.2769 25.168C79.2649 25.168 80.4409 24.678 80.4409 23.796C80.4409 22.928 79.2649 22.424 77.2769 22.424ZM87.9305 23.516H99.3965V24.482H87.9305V23.516ZM93.0545 20.492H94.2165V23.796H93.0545V20.492ZM89.2745 14.332H90.4225V16.586H96.8765V14.332H98.0245V20.8H89.2745V14.332ZM90.4225 17.524V19.848H96.8765V17.524H90.4225ZM110.021 13.436H111.183V26.092H110.021V13.436ZM106.311 14.794H107.459C107.459 18.462 105.807 21.668 101.579 23.74L100.963 22.802C104.617 21.038 106.311 18.35 106.311 14.99V14.794ZM101.537 14.794H106.815V15.746H101.537V14.794Z" fill="black"/>
<path d="M232.412 13.422H233.574V26.106H232.412V13.422ZM223.928 22.088H224.978C227.092 22.088 228.982 22.004 231.222 21.64L231.348 22.592C229.052 22.97 227.148 23.054 224.978 23.054H223.928V22.088ZM223.9 14.612H229.752V19.134H225.09V22.452H223.928V18.182H228.576V15.564H223.9V14.612ZM236.079 23.558H247.545V24.524H236.079V23.558ZM241.189 20.282H242.351V23.992H241.189V20.282ZM237.073 14.64H246.467V15.592H237.073V14.64ZM237.101 19.736H246.453V20.674H237.101V19.736ZM239.047 15.41H240.209V19.904H239.047V15.41ZM243.359 15.41H244.507V19.904H243.359V15.41ZM250.428 20.254H259.122V21.192H250.428V20.254ZM248.958 23.502H260.424V24.468H248.958V23.502ZM250.428 14.514H258.982V15.466H251.604V20.548H250.428V14.514ZM251.226 17.342H258.716V18.266H251.226V17.342ZM265.309 23.516H276.775V24.482H265.309V23.516ZM270.433 20.492H271.595V23.796H270.433V20.492ZM266.653 14.332H267.801V16.586H274.255V14.332H275.403V20.8H266.653V14.332ZM267.801 17.524V19.848H274.255V17.524H267.801ZM287.4 13.436H288.562V26.092H287.4V13.436ZM283.69 14.794H284.838C284.838 18.462 283.186 21.668 278.958 23.74L278.342 22.802C281.996 21.038 283.69 18.35 283.69 14.99V14.794ZM278.916 14.794H284.194V15.746H278.916V14.794Z" fill="#DFDFDF"/>
<rect x="171" y="39" width="171" height="2" fill="#DFDFDF"/>
<rect y="39" width="171" height="2" fill="black"/>
</svg>
