<svg width="342" height="630" viewBox="0 0 342 630" fill="none" xmlns="http://www.w3.org/2000/svg">
<path d="M13.1016 6.625V18H10.7656V6.625H13.1016ZM16.6016 6.625V8.46094H7.32031V6.625H16.6016Z" fill="black"/>
<rect x="1" y="1" width="22" height="22" stroke="black" stroke-width="2"/>
<path d="M50.272 4.108H52.4V12.812H50.272V4.108ZM51.648 7.596H54.256V9.34H51.648V7.596ZM42.432 13.356H52.4V16.716H44.56V17.9H42.448V15.404H50.304V14.764H42.432V13.356ZM42.448 17.42H52.912V18.828H42.448V17.42ZM44 10.028H46.128V12.14H44V10.028ZM40.688 12.684L40.464 11.244C43.088 11.244 46.624 11.228 49.616 10.828L49.776 12.124C46.656 12.668 43.248 12.684 40.688 12.684ZM40.848 5.036H49.248V6.444H40.848V5.036ZM45.056 6.716C47.248 6.716 48.656 7.436 48.656 8.652C48.656 9.884 47.248 10.604 45.056 10.604C42.848 10.604 41.44 9.884 41.44 8.652C41.44 7.436 42.848 6.716 45.056 6.716ZM45.056 8.028C44.048 8.028 43.456 8.22 43.456 8.652C43.456 9.084 44.048 9.292 45.056 9.292C46.064 9.292 46.64 9.084 46.64 8.652C46.64 8.22 46.064 8.028 45.056 8.028ZM44 3.98H46.128V5.82H44V3.98ZM55.3748 11.068H68.7828V12.764H55.3748V11.068ZM61.0228 8.844H63.1348V11.724H61.0228V8.844ZM56.9908 8.172H67.2628V9.852H56.9908V8.172ZM56.9908 4.748H67.1828V6.412H59.1028V9.244H56.9908V4.748ZM62.0308 13.5C65.2308 13.5 67.1668 14.476 67.1668 16.22C67.1668 17.964 65.2308 18.94 62.0308 18.94C58.8307 18.94 56.8788 17.964 56.8788 16.22C56.8788 14.476 58.8307 13.5 62.0308 13.5ZM62.0308 15.1C60.0468 15.1 59.0388 15.468 59.0388 16.22C59.0388 16.988 60.0468 17.324 62.0308 17.324C64.0148 17.324 65.0228 16.988 65.0228 16.22C65.0228 15.468 64.0148 15.1 62.0308 15.1ZM84.7659 4.108H86.7819V18.924H84.7659V4.108ZM79.8859 9.164H82.3339V10.892H79.8859V9.164ZM81.7739 4.348H83.7579V18.252H81.7739V4.348ZM76.6859 6.524H78.2859V8.044C78.2859 11.372 77.3739 14.684 75.0219 16.156L73.7579 14.588C75.9339 13.228 76.6859 10.572 76.6859 8.044V6.524ZM77.1659 6.524H78.7499V8.044C78.7499 10.508 79.4859 13.004 81.6299 14.252L80.3819 15.804C78.0299 14.412 77.1659 11.308 77.1659 8.044V6.524ZM74.3179 5.596H80.9259V7.308H74.3179V5.596ZM90.4286 4.684H100.493V9.932H90.4286V4.684ZM98.3966 6.348H92.5086V8.268H98.3966V6.348ZM88.7806 11.324H102.173V13.004H88.7806V11.324ZM94.3966 9.548H96.5246V11.804H94.3966V9.548ZM90.2686 14.076H100.557V18.924H98.4286V15.756H90.2686V14.076Z" fill="black"/>
<path d="M8.004 49.088H9V55.484H8.004V49.088ZM8.58 51.86H10.584V52.688H8.58V51.86ZM1.98 55.976H9V58.172H2.976V59.324H2.004V57.512H8.028V56.684H1.98V55.976ZM2.004 59.108H9.42V59.816H2.004V59.108ZM3.432 53.54H4.428V54.92H3.432V53.54ZM0.648 55.244L0.528 54.512C2.46 54.512 5.124 54.5 7.356 54.188L7.44 54.824C5.124 55.232 2.544 55.244 0.648 55.244ZM0.804 49.916H7.032V50.624H0.804V49.916ZM3.924 50.96C5.46 50.96 6.444 51.488 6.444 52.388C6.444 53.288 5.46 53.816 3.924 53.816C2.376 53.816 1.392 53.288 1.392 52.388C1.392 51.488 2.376 50.96 3.924 50.96ZM3.924 51.62C2.952 51.62 2.328 51.908 2.328 52.388C2.328 52.868 2.952 53.168 3.924 53.168C4.896 53.168 5.508 52.868 5.508 52.388C5.508 51.908 4.896 51.62 3.924 51.62ZM3.432 48.98H4.428V50.288H3.432V48.98ZM11.6391 54.428H21.4431V55.244H11.6391V54.428ZM16.0431 52.688H17.0271V54.764H16.0431V52.688ZM12.8751 52.376H20.3031V53.192H12.8751V52.376ZM12.8751 49.58H20.2191V50.384H13.8591V52.856H12.8751V49.58ZM16.5231 56.024C18.8391 56.024 20.2431 56.732 20.2431 57.968C20.2431 59.228 18.8391 59.924 16.5231 59.924C14.2071 59.924 12.8031 59.228 12.8031 57.968C12.8031 56.732 14.2071 56.024 16.5231 56.024ZM16.5231 56.792C14.8311 56.792 13.8111 57.224 13.8111 57.968C13.8111 58.724 14.8311 59.144 16.5231 59.144C18.2271 59.144 19.2351 58.724 19.2351 57.968C19.2351 57.224 18.2271 56.792 16.5231 56.792ZM33.8987 49.088H34.8587V59.936H33.8987V49.088ZM29.9507 52.976H32.0267V53.804H29.9507V52.976ZM31.7267 49.34H32.6627V59.384H31.7267V49.34ZM27.8627 50.768H28.6307V52.148C28.6307 54.524 27.7187 56.768 26.1227 57.776L25.5107 57.032C27.0227 56.12 27.8627 54.14 27.8627 52.148V50.768ZM28.0667 50.768H28.8347V52.148C28.8347 54.032 29.6507 55.916 31.1387 56.78L30.5267 57.512C28.9427 56.552 28.0667 54.416 28.0667 52.148V50.768ZM25.8107 50.348H30.7667V51.176H25.8107V50.348ZM37.9418 49.532H45.2378V53.228H37.9418V49.532ZM44.2538 50.336H38.9138V52.424H44.2538V50.336ZM36.6818 54.584H46.4858V55.388H36.6818V54.584ZM41.0978 53.012H42.0818V54.884H41.0978V53.012ZM37.7738 56.504H45.2738V59.936H44.2778V57.32H37.7738V56.504ZM52.6288 49.268C55.0168 49.268 56.4448 49.94 56.4448 51.152C56.4448 52.364 55.0168 53.036 52.6288 53.036C50.2288 53.036 48.8128 52.364 48.8128 51.152C48.8128 49.94 50.2288 49.268 52.6288 49.268ZM52.6288 50.024C50.8528 50.024 49.8328 50.432 49.8328 51.152C49.8328 51.872 50.8528 52.28 52.6288 52.28C54.3928 52.28 55.4128 51.872 55.4128 51.152C55.4128 50.432 54.3928 50.024 52.6288 50.024ZM47.7208 53.756H57.5248V54.56H47.7208V53.756ZM48.9088 55.484H56.2768V57.932H49.9168V59.252H48.9328V57.212H55.2928V56.252H48.9088V55.484ZM48.9328 59.036H56.6008V59.816H48.9328V59.036ZM69.6324 49.088H70.6404V54.908H69.6324V49.088ZM63.6444 55.448H64.6284V56.768H69.6564V55.448H70.6404V59.792H63.6444V55.448ZM64.6284 57.56V58.988H69.6564V57.56H64.6284ZM64.8204 49.604C66.4644 49.604 67.6404 50.624 67.6404 52.1C67.6404 53.588 66.4644 54.608 64.8204 54.608C63.1764 54.608 61.9884 53.588 61.9884 52.1C61.9884 50.624 63.1764 49.604 64.8204 49.604ZM64.8204 50.432C63.7404 50.432 62.9604 51.116 62.9604 52.1C62.9604 53.084 63.7404 53.768 64.8204 53.768C65.9004 53.768 66.6804 53.084 66.6804 52.1C66.6804 51.116 65.9004 50.432 64.8204 50.432ZM73.2315 54.464H74.0115C76.1475 54.464 77.2035 54.428 78.4995 54.2L78.6075 55.004C77.2635 55.244 76.1835 55.28 74.0115 55.28H73.2315V54.464ZM73.2075 49.736H77.8875V52.82H74.2155V54.956H73.2315V52.04H76.9035V50.552H73.2075V49.736ZM80.7075 49.1H81.7035V55.76H80.7075V49.1ZM78.6075 50.696H80.9355V51.512H78.6075V50.696ZM78.6075 52.94H80.9355V53.756H78.6075V52.94ZM74.4435 56.348H81.7035V59.96H80.7075V57.164H74.4435V56.348ZM83.8026 50.936H89.1786V51.752H83.8026V50.936ZM86.4906 52.472C87.8466 52.472 88.8306 53.492 88.8306 54.956C88.8306 56.408 87.8466 57.428 86.4906 57.428C85.1466 57.428 84.1626 56.408 84.1626 54.956C84.1626 53.492 85.1466 52.472 86.4906 52.472ZM86.4906 53.324C85.6626 53.324 85.0626 53.996 85.0626 54.956C85.0626 55.916 85.6626 56.588 86.4906 56.588C87.3306 56.588 87.9426 55.916 87.9426 54.956C87.9426 53.996 87.3306 53.324 86.4906 53.324ZM92.0466 49.088H93.0066V59.936H92.0466V49.088ZM90.3186 53.648H92.3706V54.476H90.3186V53.648ZM89.7306 49.328H90.6666V59.408H89.7306V49.328ZM86.0106 49.4H86.9946V51.44H86.0106V49.4ZM99.2096 50.156H100.074V50.612C100.074 52.556 98.0096 53.984 95.8256 54.356L95.4416 53.564C97.3496 53.288 99.2096 52.04 99.2096 50.612V50.156ZM99.4616 50.156H100.314V50.612C100.314 52.04 102.186 53.288 104.082 53.564L103.71 54.356C101.514 53.984 99.4616 52.556 99.4616 50.612V50.156ZM99.2456 55.796H100.23V59.936H99.2456V55.796ZM94.8656 55.268H104.67V56.084H94.8656V55.268ZM95.7776 49.76H103.722V50.564H95.7776V49.76ZM110.177 52.964H112.253V53.792H110.177V52.964ZM108.149 50.108H108.929V52.172C108.929 54.44 107.981 56.636 106.397 57.608L105.773 56.852C107.261 55.976 108.149 54.032 108.149 52.172V50.108ZM108.341 50.108H109.109V52.136C109.109 53.876 109.925 55.724 111.353 56.588L110.777 57.368C109.217 56.408 108.341 54.248 108.341 52.136V50.108ZM114.161 49.088H115.121V59.936H114.161V49.088ZM111.965 49.316H112.901V59.396H111.965V49.316ZM119.344 54.668H120.328V57.92H119.344V54.668ZM123.352 54.668H124.348V57.92H123.352V54.668ZM116.944 57.728H126.772V58.556H116.944V57.728ZM121.84 49.772C124.132 49.772 125.776 50.864 125.776 52.568C125.776 54.26 124.132 55.352 121.84 55.352C119.536 55.352 117.892 54.26 117.892 52.568C117.892 50.864 119.536 49.772 121.84 49.772ZM121.84 50.564C120.1 50.564 118.852 51.356 118.852 52.568C118.852 53.768 120.1 54.56 121.84 54.56C123.58 54.56 124.816 53.768 124.816 52.568C124.816 51.356 123.58 50.564 121.84 50.564ZM128.227 58.4258C128.227 58.2422 128.283 58.0879 128.396 57.9629C128.514 57.834 128.682 57.7695 128.9 57.7695C129.119 57.7695 129.285 57.834 129.398 57.9629C129.516 58.0879 129.574 58.2422 129.574 58.4258C129.574 58.6055 129.516 58.7578 129.398 58.8828C129.285 59.0078 129.119 59.0703 128.9 59.0703C128.682 59.0703 128.514 59.0078 128.396 58.8828C128.283 58.7578 128.227 58.6055 128.227 58.4258Z" fill="#DFDFDF"/>
<rect y="74" width="342" height="0.5" fill="#DFDFDF"/>
<path d="M8.67969 140L10.6641 128.625H12.0781L10.0938 140H8.67969ZM11.6094 140L13.6016 128.625H15.0156L13.0234 140H11.6094ZM16.1797 133.195H8.04688V131.875H16.1797V133.195ZM15.5859 136.797H7.46094V135.484H15.5859V136.797Z" fill="black"/>
<rect x="1" y="123" width="22" height="22" stroke="black" stroke-width="2"/>
<path d="M41.136 135.788H42.176C44.336 135.788 45.712 135.756 47.376 135.5L47.552 137.228C45.856 137.516 44.384 137.548 42.176 137.548H41.136V135.788ZM41.136 127.644H47.12V129.34H43.152V136.492H41.136V127.644ZM42.576 131.516H46.832V133.164H42.576V131.516ZM51.344 126.108H53.376V140.924H51.344V126.108ZM49.568 131.836H52.016V133.548H49.568V131.836ZM48.144 126.332H50.144V140.252H48.144V126.332ZM56.7348 127.468H66.1268V129.148H56.7348V127.468ZM55.3748 137.26H68.7668V138.988H55.3748V137.26ZM65.0068 127.468H67.1188V129.228C67.1188 131.308 67.1188 133.324 66.5908 136.364L64.4628 136.188C65.0068 133.34 65.0068 131.228 65.0068 129.228V127.468Z" fill="black"/>
<path d="M5.4 172.216H6.36C6.36 175.348 5.256 178.252 1.344 180.172L0.804 179.392C4.236 177.712 5.4 175.288 5.4 172.324V172.216ZM1.392 172.216H5.904V173.02H1.392V172.216ZM5.256 174.904V175.672L1.02 176.068L0.852 175.192L5.256 174.904ZM8.496 171.088H9.492V181.936H8.496V171.088ZM14.5791 177.148H15.5631V181.6H14.5791V177.148ZM19.5471 171.088H20.5431V181.948H19.5471V171.088ZM11.7231 177.64L11.5911 176.8C13.6431 176.8 16.3671 176.788 18.7191 176.452L18.7791 177.196C16.3551 177.604 13.7391 177.64 11.7231 177.64ZM17.0871 178.492H19.7991V179.272H17.0871V178.492ZM15.1311 171.628C16.7271 171.628 17.8431 172.48 17.8431 173.764C17.8431 175.048 16.7271 175.9 15.1311 175.9C13.5111 175.9 12.4071 175.048 12.4071 173.764C12.4071 172.48 13.5111 171.628 15.1311 171.628ZM15.1311 172.396C14.0751 172.396 13.3311 172.96 13.3311 173.764C13.3311 174.58 14.0751 175.132 15.1311 175.132C16.1631 175.132 16.9071 174.58 16.9071 173.764C16.9071 172.96 16.1631 172.396 15.1311 172.396ZM23.9141 176.284H31.3661V177.1H23.9141V176.284ZM22.6781 179.644H32.5061V180.472H22.6781V179.644ZM23.9141 172.084H31.2581V172.912H24.9101V176.644H23.9141V172.084ZM33.7052 176.128H43.5452V176.884H33.7052V176.128ZM34.8692 177.76H42.3092V180.076H35.8892V181.348H34.9052V179.392H41.3372V178.468H34.8692V177.76ZM34.9052 181.084H42.6572V181.804H34.9052V181.084ZM34.9532 171.4H42.2732V173.656H35.9612V174.832H34.9772V172.984H41.3012V172.108H34.9532V171.4ZM34.9772 174.592H42.4772V175.312H34.9772V174.592ZM55.6168 171.088H56.6248V176.908H55.6168V171.088ZM49.6288 177.448H50.6128V178.768H55.6408V177.448H56.6248V181.792H49.6288V177.448ZM50.6128 179.56V180.988H55.6408V179.56H50.6128ZM50.8048 171.604C52.4488 171.604 53.6248 172.624 53.6248 174.1C53.6248 175.588 52.4488 176.608 50.8048 176.608C49.1608 176.608 47.9728 175.588 47.9728 174.1C47.9728 172.624 49.1608 171.604 50.8048 171.604ZM50.8048 172.432C49.7248 172.432 48.9448 173.116 48.9448 174.1C48.9448 175.084 49.7248 175.768 50.8048 175.768C51.8848 175.768 52.6648 175.084 52.6648 174.1C52.6648 173.116 51.8848 172.432 50.8048 172.432ZM59.2159 176.464H59.9959C62.1319 176.464 63.1879 176.428 64.4839 176.2L64.5919 177.004C63.2479 177.244 62.1679 177.28 59.9959 177.28H59.2159V176.464ZM59.1919 171.736H63.8719V174.82H60.1999V176.956H59.2159V174.04H62.8879V172.552H59.1919V171.736ZM66.6919 171.1H67.6879V177.76H66.6919V171.1ZM64.5919 172.696H66.9199V173.512H64.5919V172.696ZM64.5919 174.94H66.9199V175.756H64.5919V174.94ZM60.4279 178.348H67.6879V181.96H66.6919V179.164H60.4279V178.348ZM69.7869 172.936H75.1629V173.752H69.7869V172.936ZM72.4749 174.472C73.8309 174.472 74.8149 175.492 74.8149 176.956C74.8149 178.408 73.8309 179.428 72.4749 179.428C71.1309 179.428 70.1469 178.408 70.1469 176.956C70.1469 175.492 71.1309 174.472 72.4749 174.472ZM72.4749 175.324C71.6469 175.324 71.0469 175.996 71.0469 176.956C71.0469 177.916 71.6469 178.588 72.4749 178.588C73.3149 178.588 73.9269 177.916 73.9269 176.956C73.9269 175.996 73.3149 175.324 72.4749 175.324ZM78.0309 171.088H78.9909V181.936H78.0309V171.088ZM76.3029 175.648H78.3549V176.476H76.3029V175.648ZM75.7149 171.328H76.6509V181.408H75.7149V171.328ZM71.9949 171.4H72.9789V173.44H71.9949V171.4ZM85.194 172.156H86.058V172.612C86.058 174.556 83.994 175.984 81.81 176.356L81.426 175.564C83.334 175.288 85.194 174.04 85.194 172.612V172.156ZM85.446 172.156H86.298V172.612C86.298 174.04 88.17 175.288 90.066 175.564L89.694 176.356C87.498 175.984 85.446 174.556 85.446 172.612V172.156ZM85.23 177.796H86.214V181.936H85.23V177.796ZM80.85 177.268H90.654V178.084H80.85V177.268ZM81.762 171.76H89.706V172.564H81.762V171.76ZM96.1611 174.964H98.2371V175.792H96.1611V174.964ZM94.1331 172.108H94.9131V174.172C94.9131 176.44 93.9651 178.636 92.3811 179.608L91.7571 178.852C93.2451 177.976 94.1331 176.032 94.1331 174.172V172.108ZM94.3251 172.108H95.0931V174.136C95.0931 175.876 95.9091 177.724 97.3371 178.588L96.7611 179.368C95.2011 178.408 94.3251 176.248 94.3251 174.136V172.108ZM100.145 171.088H101.105V181.936H100.145V171.088ZM97.9491 171.316H98.8851V181.396H97.9491V171.316ZM105.328 176.668H106.312V179.92H105.328V176.668ZM109.336 176.668H110.332V179.92H109.336V176.668ZM102.928 179.728H112.756V180.556H102.928V179.728ZM107.824 171.772C110.116 171.772 111.76 172.864 111.76 174.568C111.76 176.26 110.116 177.352 107.824 177.352C105.52 177.352 103.876 176.26 103.876 174.568C103.876 172.864 105.52 171.772 107.824 171.772ZM107.824 172.564C106.084 172.564 104.836 173.356 104.836 174.568C104.836 175.768 106.084 176.56 107.824 176.56C109.564 176.56 110.8 175.768 110.8 174.568C110.8 173.356 109.564 172.564 107.824 172.564ZM114.211 180.426C114.211 180.242 114.268 180.088 114.381 179.963C114.498 179.834 114.666 179.77 114.885 179.77C115.104 179.77 115.27 179.834 115.383 179.963C115.5 180.088 115.559 180.242 115.559 180.426C115.559 180.605 115.5 180.758 115.383 180.883C115.27 181.008 115.104 181.07 114.885 181.07C114.666 181.07 114.498 181.008 114.381 180.883C114.268 180.758 114.211 180.605 114.211 180.426Z" fill="#DFDFDF"/>
<rect y="196" width="342" height="0.5" fill="#DFDFDF"/>
<path d="M14 264H7V266H14M19 269H5V258H19M19 253H18V251H16V253H8V251H6V253H5C3.89 253 3 253.9 3 255V269C3 269.53 3.21071 270.039 3.58579 270.414C3.96086 270.789 4.46957 271 5 271H19C19.5304 271 20.0391 270.789 20.4142 270.414C20.7893 270.039 21 269.53 21 269V255C21 254.47 20.7893 253.961 20.4142 253.586C20.0391 253.211 19.5304 253 19 253ZM17 260H7V262H17V260Z" fill="black"/>
<path d="M50.848 254.108H52.992V268.924H50.848V254.108ZM46.48 255.644H48.592C48.592 260.172 47.056 263.884 41.792 266.428L40.688 264.732C44.944 262.684 46.48 259.996 46.48 256.028V255.644ZM41.472 255.644H47.488V257.324H41.472V255.644ZM64.8788 254.108H67.0228V264.716H64.8788V254.108ZM66.4148 258.236H68.9908V259.98H66.4148V258.236ZM60.7508 255.212H63.0228C63.0228 259.244 60.5588 262.012 56.1428 263.292L55.2467 261.596C58.8788 260.604 60.7508 258.62 60.7508 256.268V255.212ZM55.8868 255.212H61.9028V256.924H55.8868V255.212ZM57.4388 266.972H67.5188V268.668H57.4388V266.972ZM57.4388 263.644H59.5828V267.724H57.4388V263.644Z" fill="black"/>
<rect x="239" y="244" width="103" height="36" rx="3" fill="#C9BC9C"/>
<path d="M272.004 262.988H272.988V266.948H272.004V262.988ZM267.6 262.64H277.404V263.468H267.6V262.64ZM271.992 257.948H272.868V258.224C272.868 260.096 270.84 261.476 268.56 261.824L268.212 261.032C270.168 260.768 271.992 259.58 271.992 258.224V257.948ZM272.124 257.948H272.988V258.224C272.988 259.568 274.824 260.768 276.768 261.032L276.408 261.824C274.14 261.488 272.124 260.072 272.124 258.224V257.948ZM268.548 257.42H276.456V258.236H268.548V257.42ZM272.004 256.088H272.988V257.708H272.004V256.088ZM285.971 256.076H286.979V266.936H285.971V256.076ZM286.703 260.48H288.707V261.308H286.703V260.48ZM283.199 257.252H284.171C284.171 260.336 282.755 263.12 279.251 264.884L278.699 264.116C281.699 262.592 283.199 260.276 283.199 257.408V257.252ZM279.203 257.252H283.715V258.068H279.203V257.252Z" fill="black"/>
<path d="M308.083 262.583H304.583V266.083H303.417V262.583H299.917V261.417H303.417V257.917H304.583V261.417H308.083V262.583Z" fill="black"/>
<path d="M11 347.5V355.5H3V347.5H11ZM9 349.5H5V353.5H9V349.5ZM12 336L17.5 345H6.5L12 336ZM12 339.86L10.08 343H13.92L12 339.86ZM17.5 347C20 347 22 349 22 351.5C22 354 20 356 17.5 356C15 356 13 354 13 351.5C13 349 15 347 17.5 347ZM17.5 349C16.837 349 16.2011 349.263 15.7322 349.732C15.2634 350.201 15 350.837 15 351.5C15 352.163 15.2634 352.799 15.7322 353.268C16.2011 353.737 16.837 354 17.5 354C18.163 354 18.7989 353.737 19.2678 353.268C19.7366 352.799 20 352.163 20 351.5C20 350.837 19.7366 350.201 19.2678 349.732C18.7989 349.263 18.163 349 17.5 349Z" fill="black"/>
<path d="M46.24 339.532H48.32C48.32 344.108 47.232 347.916 41.712 350.716L40.576 349.1C45.184 346.78 46.24 343.948 46.24 339.788V339.532ZM41.488 339.532H47.504V341.212H41.488V339.532ZM46.288 343.164V344.796L40.976 345.308L40.72 343.484L46.288 343.164ZM50.112 338.092H52.256V352.908H50.112V338.092ZM51.696 343.756H54.304V345.5H51.696V343.756ZM61.3908 343.5H64.0148V345.212H61.3908V343.5ZM55.7908 347.964H56.7988C58.8788 347.964 60.2228 347.932 61.8388 347.66L62.0148 349.356C60.3508 349.644 58.9268 349.676 56.7988 349.676H55.7908V347.964ZM55.7908 339.74H61.2948V341.42H57.8068V348.588H55.7908V339.74ZM57.2308 343.724H60.7348V345.356H57.2308V343.724ZM66.0628 338.108H68.0948V352.924H66.0628V338.108ZM63.0068 338.364H64.9908V352.268H63.0068V338.364ZM71.4535 339.356H80.8455V341.068H71.4535V339.356ZM70.0935 349.42H83.4855V351.148H70.0935V349.42ZM74.8295 344.332H76.9575V350.268H74.8295V344.332ZM80.0775 339.356H82.2055V340.78C82.2055 342.636 82.2055 344.716 81.6135 347.884L79.4855 347.644C80.0775 344.7 80.0775 342.556 80.0775 340.78V339.356ZM95.0043 338.092H97.1323V352.956H95.0043V338.092ZM85.5963 347.772H86.9083C89.5323 347.772 91.6283 347.676 93.9803 347.276L94.1883 348.988C91.7883 349.42 89.6123 349.5 86.9083 349.5H85.5963V347.772ZM85.5803 339.356H92.5723V345.084H87.7563V348.412H85.5963V343.404H90.3963V341.052H85.5803V339.356Z" fill="black"/>
<rect x="239" y="328" width="103" height="36" rx="3" fill="#9FC7C0"/>
<path d="M272.004 346.988H272.988V350.948H272.004V346.988ZM267.6 346.64H277.404V347.468H267.6V346.64ZM271.992 341.948H272.868V342.224C272.868 344.096 270.84 345.476 268.56 345.824L268.212 345.032C270.168 344.768 271.992 343.58 271.992 342.224V341.948ZM272.124 341.948H272.988V342.224C272.988 343.568 274.824 344.768 276.768 345.032L276.408 345.824C274.14 345.488 272.124 344.072 272.124 342.224V341.948ZM268.548 341.42H276.456V342.236H268.548V341.42ZM272.004 340.088H272.988V341.708H272.004V340.088ZM285.971 340.076H286.979V350.936H285.971V340.076ZM286.703 344.48H288.707V345.308H286.703V344.48ZM283.199 341.252H284.171C284.171 344.336 282.755 347.12 279.251 348.884L278.699 348.116C281.699 346.592 283.199 344.276 283.199 341.408V341.252ZM279.203 341.252H283.715V342.068H279.203V341.252Z" fill="black"/>
<path d="M308.083 346.583H304.583V350.083H303.417V346.583H299.917V345.417H303.417V341.917H304.583V345.417H308.083V346.583Z" fill="black"/>
<path d="M15 415H5C4.46957 415 3.96086 415.211 3.58579 415.586C3.21071 415.961 3 416.47 3 417V431C3 431.53 3.21071 432.039 3.58579 432.414C3.96086 432.789 4.46957 433 5 433H19C19.5304 433 20.0391 432.789 20.4142 432.414C20.7893 432.039 21 431.53 21 431V421L15 415ZM19 431H5V417H14V422H19M17 426H7V424H17M14 429H7V427H14" fill="black"/>
<path d="M50.272 416.108H52.4V424.812H50.272V416.108ZM51.648 419.596H54.256V421.34H51.648V419.596ZM42.432 425.356H52.4V428.716H44.56V429.9H42.448V427.404H50.304V426.764H42.432V425.356ZM42.448 429.42H52.912V430.828H42.448V429.42ZM44 422.028H46.128V424.14H44V422.028ZM40.688 424.684L40.464 423.244C43.088 423.244 46.624 423.228 49.616 422.828L49.776 424.124C46.656 424.668 43.248 424.684 40.688 424.684ZM40.848 417.036H49.248V418.444H40.848V417.036ZM45.056 418.716C47.248 418.716 48.656 419.436 48.656 420.652C48.656 421.884 47.248 422.604 45.056 422.604C42.848 422.604 41.44 421.884 41.44 420.652C41.44 419.436 42.848 418.716 45.056 418.716ZM45.056 420.028C44.048 420.028 43.456 420.22 43.456 420.652C43.456 421.084 44.048 421.292 45.056 421.292C46.064 421.292 46.64 421.084 46.64 420.652C46.64 420.22 46.064 420.028 45.056 420.028ZM44 415.98H46.128V417.82H44V415.98ZM55.3748 423.068H68.7828V424.764H55.3748V423.068ZM61.0228 420.844H63.1348V423.724H61.0228V420.844ZM56.9908 420.172H67.2628V421.852H56.9908V420.172ZM56.9908 416.748H67.1828V418.412H59.1028V421.244H56.9908V416.748ZM62.0308 425.5C65.2308 425.5 67.1668 426.476 67.1668 428.22C67.1668 429.964 65.2308 430.94 62.0308 430.94C58.8307 430.94 56.8788 429.964 56.8788 428.22C56.8788 426.476 58.8307 425.5 62.0308 425.5ZM62.0308 427.1C60.0468 427.1 59.0388 427.468 59.0388 428.22C59.0388 428.988 60.0468 429.324 62.0308 429.324C64.0148 429.324 65.0228 428.988 65.0228 428.22C65.0228 427.468 64.0148 427.1 62.0308 427.1ZM83.5979 416.124H85.7259V427.196H83.5979V416.124ZM85.1179 420.636H87.6939V422.38H85.1179V420.636ZM74.0619 417.66H82.7819V419.324H74.0619V417.66ZM78.4299 419.852C80.5579 419.852 82.0619 421.02 82.0619 422.716C82.0619 424.412 80.5579 425.564 78.4299 425.564C76.2859 425.564 74.7819 424.412 74.7819 422.716C74.7819 421.02 76.2859 419.852 78.4299 419.852ZM78.4299 421.468C77.4859 421.468 76.8299 421.916 76.8299 422.716C76.8299 423.516 77.4859 423.948 78.4299 423.948C79.3739 423.948 80.0299 423.516 80.0299 422.716C80.0299 421.916 79.3739 421.468 78.4299 421.468ZM77.3579 416.092H79.4859V418.476H77.3579V416.092ZM76.1739 428.972H86.2539V430.668H76.1739V428.972ZM76.1739 426.364H78.3019V429.708H76.1739V426.364ZM94.4126 423.164H96.5406V425.228H94.4126V423.164ZM88.7806 421.996H102.173V423.66H88.7806V421.996ZM90.3166 424.588H100.557V428.396H92.4286V429.692H90.3326V426.94H98.4606V426.14H90.3166V424.588ZM90.3326 429.244H100.941V430.828H90.3326V429.244ZM94.2046 417.148H96.0606V417.516C96.0606 419.628 93.9646 421.308 90.0286 421.596L89.3726 419.996C92.7486 419.772 94.2046 418.588 94.2046 417.516V417.148ZM94.8926 417.148H96.7486V417.516C96.7486 418.588 98.2046 419.772 101.597 419.996L100.941 421.596C97.0046 421.308 94.8926 419.644 94.8926 417.516V417.148ZM89.9966 416.508H100.973V418.156H89.9966V416.508ZM110.444 423.628H112.556V427.788H110.444V423.628ZM115.82 423.628H117.948V427.788H115.82V423.628ZM107.5 427.484H120.908V429.212H107.5V427.484ZM114.188 416.828C117.372 416.828 119.724 418.396 119.724 420.812C119.724 423.228 117.372 424.78 114.188 424.78C110.988 424.78 108.652 423.228 108.652 420.812C108.652 418.396 110.988 416.828 114.188 416.828ZM114.188 418.492C112.124 418.492 110.748 419.34 110.748 420.812C110.748 422.268 112.124 423.132 114.188 423.132C116.252 423.132 117.628 422.268 117.628 420.812C117.628 419.34 116.252 418.492 114.188 418.492ZM133.211 418.028H135.771V419.772H133.211V418.028ZM133.211 421.244H135.771V422.988H133.211V421.244ZM131.739 416.108H133.867V424.844H131.739V416.108ZM123.979 425.452H133.867V430.924H131.739V427.148H123.979V425.452ZM126.331 416.908C128.619 416.908 130.363 418.428 130.363 420.54C130.363 422.652 128.619 424.156 126.331 424.156C124.043 424.156 122.299 422.652 122.299 420.54C122.299 418.428 124.043 416.908 126.331 416.908ZM126.331 418.716C125.211 418.716 124.379 419.372 124.379 420.54C124.379 421.708 125.211 422.38 126.331 422.38C127.451 422.38 128.283 421.708 128.283 420.54C128.283 419.372 127.451 418.716 126.331 418.716Z" fill="black"/>
<path d="M8.004 461.088H9V467.484H8.004V461.088ZM8.58 463.86H10.584V464.688H8.58V463.86ZM1.98 467.976H9V470.172H2.976V471.324H2.004V469.512H8.028V468.684H1.98V467.976ZM2.004 471.108H9.42V471.816H2.004V471.108ZM3.432 465.54H4.428V466.92H3.432V465.54ZM0.648 467.244L0.528 466.512C2.46 466.512 5.124 466.5 7.356 466.188L7.44 466.824C5.124 467.232 2.544 467.244 0.648 467.244ZM0.804 461.916H7.032V462.624H0.804V461.916ZM3.924 462.96C5.46 462.96 6.444 463.488 6.444 464.388C6.444 465.288 5.46 465.816 3.924 465.816C2.376 465.816 1.392 465.288 1.392 464.388C1.392 463.488 2.376 462.96 3.924 462.96ZM3.924 463.62C2.952 463.62 2.328 463.908 2.328 464.388C2.328 464.868 2.952 465.168 3.924 465.168C4.896 465.168 5.508 464.868 5.508 464.388C5.508 463.908 4.896 463.62 3.924 463.62ZM3.432 460.98H4.428V462.288H3.432V460.98ZM11.6391 466.428H21.4431V467.244H11.6391V466.428ZM16.0431 464.688H17.0271V466.764H16.0431V464.688ZM12.8751 464.376H20.3031V465.192H12.8751V464.376ZM12.8751 461.58H20.2191V462.384H13.8591V464.856H12.8751V461.58ZM16.5231 468.024C18.8391 468.024 20.2431 468.732 20.2431 469.968C20.2431 471.228 18.8391 471.924 16.5231 471.924C14.2071 471.924 12.8031 471.228 12.8031 469.968C12.8031 468.732 14.2071 468.024 16.5231 468.024ZM16.5231 468.792C14.8311 468.792 13.8111 469.224 13.8111 469.968C13.8111 470.724 14.8311 471.144 16.5231 471.144C18.2271 471.144 19.2351 470.724 19.2351 469.968C19.2351 469.224 18.2271 468.792 16.5231 468.792ZM27.5741 461.268C29.9621 461.268 31.3901 461.94 31.3901 463.152C31.3901 464.364 29.9621 465.036 27.5741 465.036C25.1741 465.036 23.7581 464.364 23.7581 463.152C23.7581 461.94 25.1741 461.268 27.5741 461.268ZM27.5741 462.024C25.7981 462.024 24.7781 462.432 24.7781 463.152C24.7781 463.872 25.7981 464.28 27.5741 464.28C29.3381 464.28 30.3581 463.872 30.3581 463.152C30.3581 462.432 29.3381 462.024 27.5741 462.024ZM22.6661 465.756H32.4701V466.56H22.6661V465.756ZM23.8541 467.484H31.2221V469.932H24.8621V471.252H23.8781V469.212H30.2381V468.252H23.8541V467.484ZM23.8781 471.036H31.5461V471.816H23.8781V471.036ZM44.1098 461.1H45.1058V469.236H44.1098V461.1ZM44.7938 464.652H46.7138V465.492H44.7938V464.652ZM36.7178 462.408H43.1258V463.212H36.7178V462.408ZM39.9218 463.812C41.4578 463.812 42.5138 464.616 42.5138 465.84C42.5138 467.052 41.4578 467.856 39.9218 467.856C38.3738 467.856 37.3178 467.052 37.3178 465.84C37.3178 464.616 38.3738 463.812 39.9218 463.812ZM39.9218 464.592C38.9378 464.592 38.2658 465.084 38.2658 465.84C38.2658 466.584 38.9378 467.076 39.9218 467.076C40.8938 467.076 41.5658 466.584 41.5658 465.84C41.5658 465.084 40.8938 464.592 39.9218 464.592ZM39.4178 461.088H40.4138V462.828H39.4178V461.088ZM38.3498 470.88H45.5978V471.696H38.3498V470.88ZM38.3498 468.588H39.3458V471.228H38.3498V468.588ZM52.1248 466.188H53.1208V467.856H52.1248V466.188ZM47.7208 465.612H57.5248V466.416H47.7208V465.612ZM48.9088 467.484H56.2768V469.98H49.9168V471.252H48.9328V469.26H55.2928V468.24H48.9088V467.484ZM48.9328 471.048H56.6008V471.816H48.9328V471.048ZM52.0528 461.76H52.9288V462.096C52.9288 463.764 50.8888 464.856 48.5728 465.084L48.2488 464.316C50.2528 464.148 52.0528 463.26 52.0528 462.096V461.76ZM52.3408 461.76H53.2048V462.096C53.2048 463.26 55.0048 464.148 57.0088 464.316L56.6848 465.084C54.3808 464.856 52.3408 463.764 52.3408 462.096V461.76ZM48.6208 461.448H56.6488V462.252H48.6208V461.448ZM58.7719 469.776H68.5999V470.604H58.7719V469.776ZM63.1639 467.448H64.1599V470.124H63.1639V467.448ZM59.9599 461.892H67.3879V465.18H60.9799V467.352H59.9959V464.376H66.4039V462.696H59.9599V461.892ZM59.9959 466.932H67.6399V467.748H59.9959V466.932ZM75.1875 466.668H76.1715V469.92H75.1875V466.668ZM79.1955 466.668H80.1915V469.92H79.1955V466.668ZM72.7875 469.728H82.6155V470.556H72.7875V469.728ZM77.6835 461.772C79.9755 461.772 81.6195 462.864 81.6195 464.568C81.6195 466.26 79.9755 467.352 77.6835 467.352C75.3795 467.352 73.7355 466.26 73.7355 464.568C73.7355 462.864 75.3795 461.772 77.6835 461.772ZM77.6835 462.564C75.9435 462.564 74.6955 463.356 74.6955 464.568C74.6955 465.768 75.9435 466.56 77.6835 466.56C79.4235 466.56 80.6595 465.768 80.6595 464.568C80.6595 463.356 79.4235 462.564 77.6835 462.564ZM91.9386 462.732H93.8226V463.572H91.9386V462.732ZM91.9386 465.06H93.8226V465.888H91.9386V465.06ZM91.2426 461.088H92.2386V467.532H91.2426V461.088ZM85.1946 468.048H92.2386V471.936H91.2426V468.852H85.1946V468.048ZM86.8506 461.724C88.4826 461.724 89.6826 462.78 89.6826 464.304C89.6826 465.816 88.4826 466.86 86.8506 466.86C85.2186 466.86 84.0186 465.816 84.0186 464.304C84.0186 462.78 85.2186 461.724 86.8506 461.724ZM86.8506 462.576C85.7706 462.576 84.9906 463.272 84.9906 464.304C84.9906 465.324 85.7706 466.032 86.8506 466.032C87.9306 466.032 88.7106 465.324 88.7106 464.304C88.7106 463.272 87.9306 462.576 86.8506 462.576ZM94.8416 462.936H100.218V463.752H94.8416V462.936ZM97.5296 464.472C98.8856 464.472 99.8696 465.492 99.8696 466.956C99.8696 468.408 98.8856 469.428 97.5296 469.428C96.1856 469.428 95.2016 468.408 95.2016 466.956C95.2016 465.492 96.1856 464.472 97.5296 464.472ZM97.5296 465.324C96.7016 465.324 96.1016 465.996 96.1016 466.956C96.1016 467.916 96.7016 468.588 97.5296 468.588C98.3696 468.588 98.9816 467.916 98.9816 466.956C98.9816 465.996 98.3696 465.324 97.5296 465.324ZM103.086 461.088H104.046V471.936H103.086V461.088ZM101.358 465.648H103.41V466.476H101.358V465.648ZM100.77 461.328H101.706V471.408H100.77V461.328ZM97.0496 461.4H98.0336V463.44H97.0496V461.4ZM110.249 462.156H111.113V462.612C111.113 464.556 109.049 465.984 106.865 466.356L106.481 465.564C108.389 465.288 110.249 464.04 110.249 462.612V462.156ZM110.501 462.156H111.353V462.612C111.353 464.04 113.225 465.288 115.121 465.564L114.749 466.356C112.553 465.984 110.501 464.556 110.501 462.612V462.156ZM110.285 467.796H111.269V471.936H110.285V467.796ZM105.905 467.268H115.709V468.084H105.905V467.268ZM106.817 461.76H114.761V462.564H106.817V461.76ZM121.216 464.964H123.292V465.792H121.216V464.964ZM119.188 462.108H119.968V464.172C119.968 466.44 119.02 468.636 117.436 469.608L116.812 468.852C118.3 467.976 119.188 466.032 119.188 464.172V462.108ZM119.38 462.108H120.148V464.136C120.148 465.876 120.964 467.724 122.392 468.588L121.816 469.368C120.256 468.408 119.38 466.248 119.38 464.136V462.108ZM125.2 461.088H126.16V471.936H125.2V461.088ZM123.004 461.316H123.94V471.396H123.004V461.316ZM130.383 466.668H131.367V469.92H130.383V466.668ZM134.391 466.668H135.387V469.92H134.391V466.668ZM127.983 469.728H137.811V470.556H127.983V469.728ZM132.879 461.772C135.171 461.772 136.815 462.864 136.815 464.568C136.815 466.26 135.171 467.352 132.879 467.352C130.575 467.352 128.931 466.26 128.931 464.568C128.931 462.864 130.575 461.772 132.879 461.772ZM132.879 462.564C131.139 462.564 129.891 463.356 129.891 464.568C129.891 465.768 131.139 466.56 132.879 466.56C134.619 466.56 135.855 465.768 135.855 464.568C135.855 463.356 134.619 462.564 132.879 462.564ZM139.266 470.426C139.266 470.242 139.322 470.088 139.436 469.963C139.553 469.834 139.721 469.77 139.939 469.77C140.158 469.77 140.324 469.834 140.438 469.963C140.555 470.088 140.613 470.242 140.613 470.426C140.613 470.605 140.555 470.758 140.438 470.883C140.324 471.008 140.158 471.07 139.939 471.07C139.721 471.07 139.553 471.008 139.436 470.883C139.322 470.758 139.266 470.605 139.266 470.426Z" fill="#DFDFDF"/>
<rect y="486" width="342" height="0.5" fill="#DFDFDF"/>
<path d="M6.48 543.084H8.928V544.812H6.48V543.084ZM3.312 539.388H4.944V541.884C4.944 545.244 4.016 548.524 1.648 549.98L0.368 548.38C2.544 547.036 3.312 544.396 3.312 541.884V539.388ZM3.776 539.388H5.376V541.788C5.376 544.204 6 546.668 8.016 547.98L6.864 549.644C4.512 548.188 3.776 544.988 3.776 541.788V539.388ZM11.344 538.108H13.376V552.924H11.344V538.108ZM8.336 538.332H10.32V552.252H8.336V538.332ZM15.3588 546.636H28.7828V548.316H15.3588V546.636ZM20.9588 547.484H23.0708V552.924H20.9588V547.484ZM16.8948 538.668H19.0068V540.348H25.0868V538.668H27.1988V545.228H16.8948V538.668ZM19.0068 542.012V543.532H25.0868V542.012H19.0068ZM40.2855 538.108H42.4295V552.924H40.2855V538.108ZM35.9175 539.644H38.0295C38.0295 544.172 36.4935 547.884 31.2295 550.428L30.1255 548.732C34.3815 546.684 35.9175 543.996 35.9175 540.028V539.644ZM30.9095 539.644H36.9255V541.324H30.9095V539.644ZM44.7963 546.044H58.2203V547.74H44.7963V546.044ZM46.4443 538.396H56.5883V542.412H48.5723V544.012H46.4603V540.908H54.4923V540.012H46.4443V538.396ZM46.4603 543.372H56.8763V544.988H46.4603V543.372ZM50.4443 544.156H52.5723V546.972H50.4443V544.156ZM46.2843 548.572H56.6843V552.876H54.5563V550.252H46.2843V548.572ZM66.7954 539.628H68.5394V540.556C68.5394 543.356 67.2114 545.868 64.3794 546.78L63.2754 545.132C65.7554 544.332 66.7954 542.412 66.7954 540.556V539.628ZM67.2274 539.628H68.9554V540.556C68.9554 542.3 69.9634 544.108 72.3634 544.876L71.2754 546.524C68.5074 545.628 67.2274 543.212 67.2274 540.556V539.628ZM63.8514 538.972H71.8514V540.668H63.8514V538.972ZM73.0354 538.108H75.1634V547.036H73.0354V538.108ZM74.5714 541.692H77.1314V543.436H74.5714V541.692ZM65.2754 547.676H75.1634V552.924H73.0354V549.388H65.2754V547.676ZM81.6581 538.876H83.4341V540.204C83.4341 543.18 82.1061 545.788 79.1941 546.764L78.0901 545.052C80.6181 544.236 81.6581 542.236 81.6581 540.204V538.876ZM82.1061 538.876H83.8181V540.108C83.8181 542.076 84.7781 543.9 87.1301 544.652L86.0261 546.316C83.2901 545.372 82.1061 542.988 82.1061 540.108V538.876ZM88.4901 538.108H90.6181V546.78H88.4901V538.108ZM85.5941 547.164C88.7301 547.164 90.6661 548.236 90.6661 550.044C90.6661 551.868 88.7301 552.924 85.5941 552.924C82.4581 552.924 80.5221 551.868 80.5221 550.044C80.5221 548.236 82.4581 547.164 85.5941 547.164ZM85.5941 548.812C83.6741 548.812 82.6501 549.212 82.6501 550.044C82.6501 550.876 83.6741 551.292 85.5941 551.292C87.5301 551.292 88.5541 550.876 88.5541 550.044C88.5541 549.212 87.5301 548.812 85.5941 548.812ZM85.7861 540.796H88.7941V542.524H85.7861V540.796Z" fill="black"/>
<path d="M320.4 553.2V536.4H328.8V544.8H337.2V546C338.04 546 338.844 546.156 339.6 546.42V541.2L332.4 534H320.4C319.068 534 318 535.068 318 536.4V553.2C318 554.52 319.068 555.6 320.4 555.6H330.42C330.156 554.844 330 554.04 330 553.2H320.4ZM331.2 535.8L337.8 542.4H331.2V535.8ZM342 552V554.4H338.4V558H336V554.4H332.4V552H336V548.4H338.4V552H342Z" fill="black"/>
<path d="M4.08 610.876H5.856V612.204C5.856 615.18 4.528 617.788 1.616 618.764L0.512 617.052C3.04 616.236 4.08 614.236 4.08 612.204V610.876ZM4.528 610.876H6.24V612.108C6.24 614.076 7.2 615.9 9.552 616.652L8.448 618.316C5.712 617.372 4.528 614.988 4.528 612.108V610.876ZM10.912 610.108H13.04V618.78H10.912V610.108ZM8.016 619.164C11.152 619.164 13.088 620.236 13.088 622.044C13.088 623.868 11.152 624.924 8.016 624.924C4.88 624.924 2.944 623.868 2.944 622.044C2.944 620.236 4.88 619.164 8.016 619.164ZM8.016 620.812C6.096 620.812 5.072 621.212 5.072 622.044C5.072 622.876 6.096 623.292 8.016 623.292C9.952 623.292 10.976 622.876 10.976 622.044C10.976 621.212 9.952 620.812 8.016 620.812ZM8.208 612.796H11.216V614.524H8.208V612.796ZM18.6548 611.756H20.3988V612.684C20.3988 615.516 19.0708 618.06 16.2068 619.004L15.1508 617.324C17.6148 616.508 18.6548 614.572 18.6548 612.684V611.756ZM19.0868 611.756H20.8148V612.684C20.8148 614.412 21.8068 616.108 24.1908 616.828L23.1828 618.492C20.3668 617.644 19.0868 615.324 19.0868 612.684V611.756ZM15.7108 611.1H23.7108V612.796H15.7108V611.1ZM24.8948 610.108H27.0228V618.892H24.8948V610.108ZM26.4308 613.516H28.9908V615.26H26.4308V613.516ZM22.1908 619.164C25.2628 619.164 27.1988 620.236 27.1988 622.044C27.1988 623.852 25.2628 624.924 22.1908 624.924C19.1028 624.924 17.1668 623.852 17.1668 622.044C17.1668 620.236 19.1028 619.164 22.1908 619.164ZM22.1908 620.828C20.3028 620.828 19.2788 621.212 19.2788 622.044C19.2788 622.876 20.3028 623.292 22.1908 623.292C24.0788 623.292 25.0868 622.876 25.0868 622.044C25.0868 621.212 24.0788 620.828 22.1908 620.828ZM34.2535 610.54C36.5095 610.54 38.2055 611.948 38.2055 613.932C38.2055 615.9 36.5095 617.308 34.2535 617.308C31.9975 617.308 30.3015 615.9 30.3015 613.932C30.3015 611.948 31.9975 610.54 34.2535 610.54ZM34.2535 612.268C33.1655 612.268 32.3495 612.876 32.3495 613.932C32.3495 614.988 33.1655 615.596 34.2535 615.596C35.3415 615.596 36.1415 614.988 36.1415 613.932C36.1415 612.876 35.3415 612.268 34.2535 612.268ZM40.2535 610.108H42.3975V617.516H40.2535V610.108ZM32.5095 618.124H42.3975V622.188H34.6215V623.98H32.5415V620.652H40.2855V619.772H32.5095V618.124ZM32.5415 623.116H42.7655V624.764H32.5415V623.116ZM48.3643 612.444H50.0603V614.108C50.0603 617.532 48.6683 620.876 45.8843 622.14L44.6842 620.46C47.1643 619.356 48.3643 616.62 48.3643 614.108V612.444ZM48.8443 612.444H50.5243V614.108C50.5243 616.508 51.7083 619.068 54.1883 620.092L53.0363 621.772C50.2203 620.556 48.8443 617.404 48.8443 614.108V612.444ZM45.2763 611.532H53.5803V613.276H45.2763V611.532ZM54.9563 610.108H57.1003V624.924H54.9563V610.108ZM66.7954 611.628H68.5394V612.556C68.5394 615.356 67.2114 617.868 64.3794 618.78L63.2754 617.132C65.7554 616.332 66.7954 614.412 66.7954 612.556V611.628ZM67.2274 611.628H68.9554V612.556C68.9554 614.3 69.9634 616.108 72.3634 616.876L71.2754 618.524C68.5074 617.628 67.2274 615.212 67.2274 612.556V611.628ZM63.8514 610.972H71.8514V612.668H63.8514V610.972ZM73.0354 610.108H75.1634V619.036H73.0354V610.108ZM74.5714 613.692H77.1314V615.436H74.5714V613.692ZM65.2754 619.676H75.1634V624.924H73.0354V621.388H65.2754V619.676ZM81.6581 610.876H83.4341V612.204C83.4341 615.18 82.1061 617.788 79.1941 618.764L78.0901 617.052C80.6181 616.236 81.6581 614.236 81.6581 612.204V610.876ZM82.1061 610.876H83.8181V612.108C83.8181 614.076 84.7781 615.9 87.1301 616.652L86.0261 618.316C83.2901 617.372 82.1061 614.988 82.1061 612.108V610.876ZM88.4901 610.108H90.6181V618.78H88.4901V610.108ZM85.5941 619.164C88.7301 619.164 90.6661 620.236 90.6661 622.044C90.6661 623.868 88.7301 624.924 85.5941 624.924C82.4581 624.924 80.5221 623.868 80.5221 622.044C80.5221 620.236 82.4581 619.164 85.5941 619.164ZM85.5941 620.812C83.6741 620.812 82.6501 621.212 82.6501 622.044C82.6501 622.876 83.6741 623.292 85.5941 623.292C87.5301 623.292 88.5541 622.876 88.5541 622.044C88.5541 621.212 87.5301 620.812 85.5941 620.812ZM85.7861 612.796H88.7941V614.524H85.7861V612.796Z" fill="black"/>
<g clip-path="url(#clip0_210_8853)">
<path d="M319 617.909H322.273V620.091H319V617.909ZM323.255 609.727L321.727 611.255L324.018 613.545L325.545 612.018L323.255 609.727ZM332.091 607H329.909V610.273H332.091V607ZM339.727 617.909V620.091H343V617.909H339.727ZM328.818 629.909C328.818 630.564 329.255 631 329.909 631H332.091C332.745 631 333.182 630.564 333.182 629.909V628.818H328.818V629.909ZM338.745 609.727L336.455 612.018L337.982 613.545L340.273 611.255L338.745 609.727ZM337.545 619C337.545 621.4 336.236 623.582 334.273 624.673V626.636C334.273 627.291 333.836 627.727 333.182 627.727H328.818C328.164 627.727 327.727 627.291 327.727 626.636V624.673C325.764 623.582 324.455 621.4 324.455 619C324.455 615.4 327.4 612.455 331 612.455C334.6 612.455 337.545 615.4 337.545 619ZM335.364 619C335.364 616.589 333.411 614.636 331 614.636C328.589 614.636 326.636 616.589 326.636 619C326.636 621.411 328.589 623.364 331 623.364C333.411 623.364 335.364 621.411 335.364 619Z" fill="black"/>
</g>
<defs>
<clipPath id="clip0_210_8853">
<rect width="24" height="24" fill="white" transform="translate(318 606)"/>
</clipPath>
</defs>
</svg>
